<svg version="1.0" xmlns="http://www.w3.org/2000/svg" width="1365.333" height="1365.333" viewBox="0 0 1024 1024"><path d="M389.3 5.8c-5.2 3.9-9.8 8.5-13.8 13.8-5.6 7.5-6 8.3-7 15.9-1 7.7-1.1 8-3.8 8.3-3.3.4-5.3 3.9-9.2 16.5-2.6 8.4-3.1 9.1-8.2 13-3 2.2-7.2 6.7-9.4 9.8-2.2 3.2-5.9 7.2-8.4 8.9-5.5 3.8-7.5 8.1-7.5 16.6 0 5.8-.2 6.4-3 8.4-2 1.5-4.9 5.9-8.5 13-4 8-7.5 13.2-13.4 19.9-4.4 4.9-8.2 10-8.6 11.2-.8 2.3-.6 2.4 23 24.1l4 3.6-2.8 5.6c-2.3 4.9-2.7 6.9-2.7 14.6 0 4.9.4 9.9.9 11.2.5 1.3.4 4.8-.2 8.5-.9 5.6-1.2 6.2-3.6 6.5-2.2.3-2.6.9-2.9 3.8-.2 1.9.1 5.3.6 7.5.7 3.4.5 4.4-1.5 7.2l-2.4 3.1 4.3 3 4.4 3-.6 6.1c-.6 6.7-.4 6.8 4.9 5 2.4-.8 5.5-.9 11.6-.1 7.5 1 9.7 1.8 22.3 8.7 7.8 4.1 15 7.5 16.2 7.5 2.1 0 2.2.3 1.5 5.7-.4 3.6-1.6 7.3-3.2 9.7-2.5 3.8-2.5 4.1-1.3 11.1s1.2 7.2-1.4 10.9c-2.1 3.1-2.6 5.1-2.6 9.8 0 5 .6 7 3.6 12.5l3.7 6.5-2.3 4.9c-2.2 4.6-2.7 5-10.3 7.9l-8 3.1-8.9-3c-4.8-1.6-8.8-2.6-8.8-2.2 0 1.8 3.4 10.7 4.3 11.3.6.3 2.9.9 5.2 1.2 3.8.6 4.2 1 5.8 5.4 2.2 6.1 2.2 6.1-1.5 15.8-2.9 7.9-3.4 8.5-8.5 11.6-5 3-5.3 3.4-5.3 7.3 0 3.5-.6 4.7-4 8l-4 3.9v9.7c0 7.5.5 10.8 2 14.3l1.9 4.6h5.9c5.5 0 6 .2 9.9 4.2 3.4 3.5 4.4 5.5 5.4 10.4l1.2 6.1-5.8 11.4c-3.4 6.6-6.1 13.3-6.5 15.8-.5 4.2-.8 4.5-4.7 5.9-2.4.7-4.3 1.7-4.3 2 0 .4 1.3 2.2 2.8 4l2.7 3.3-1.1 14.2c-.7 7.8-1.7 15.8-2.3 17.7-1.5 4.8-1.4 5.8.8 6.5 1 .3 2.9 2.5 4.2 4.9 2.3 4.4 2.3 4.4.6 11.8-1 4-1.7 7.7-1.7 8.2 0 .5 2.4-1.7 5.4-4.8 3-3.1 5.9-5.6 6.4-5.6.8 0 4.2 14.3 4.2 17.7 0 1.3-19.8 11.8-20.7 10.9-.3-.2 0-2.1.7-4 1.1-3.4 1-3.9-2-7.6l-3.2-4-2.5 2c-1.4 1.1-3.5 2-4.7 2.1-1.1 0-2.9.4-3.9.8-1.7.6-1.7.8.3 3.4 3.1 4 5.8 13.5 6.1 22.2l.3 7.5-4.6 3.2c-5.5 3.8-5.4 3.8-6.4 20.7l-.6 12.5-7.9 9.3c-4.4 5.1-7.9 9.6-7.9 9.9 0 .9 4.7 9.3 13.3 23.8 7.5 12.6 7.8 12.7 9.2 4.3l.6-3.8 3.2 1.9c1.8 1.1 5.4 3.2 8 4.7l4.8 2.7-.3 8.7c-.3 8.3-.4 8.6-2.8 8.9-1.8.2-4.3-1.2-8.7-4.8-3.4-2.7-6.4-5-6.7-5-1 0 15.3 20.6 19.8 25l4.6 4.4v29.9l-3.6 4.3c-3 3.8-4.1 4.4-7.4 4.4-3.9 0-5-1.1-5-5 0-3.3-7-15.4-11.8-20.3-2.6-2.7-6.6-6.2-9-7.9l-4.2-2.9-4.1 3.2c-4 3.1-4 3.2-2.2 5.3 1.1 1.1 3.5 3.9 5.4 6.1 4.8 5.6 12.3 19.7 14.7 27.8 2.3 7.6 7.6 14.8 22.2 30.1 8.2 8.5 9.1 9.1 24.5 16.8 8.8 4.4 20.1 10.4 25 13.4 5 2.9 12.8 6.9 17.5 8.9 8.2 3.4 8.6 3.7 11.3 8.9 2.7 5.1 3.3 5.6 9 7.6 3.4 1.1 8.4 3.3 11 4.9 4.5 2.6 5.5 4 12.8 17.7 4.4 8.2 8.4 16.6 9 18.7.9 3.5.7 4.1-2.1 8l-3.1 4.2 3.2 1.3c1.7.7 6.4 3.5 10.5 6.3 4.8 3.2 8.3 4.9 10.4 4.9 6.8 0 7.7 12.7 1.4 18.5l-3.3 3 2 3.2c2.2 3.5 1.4 7.4-1.9 9.2-1.1.6-2.5 2.5-3.1 4.2-1.1 3.1-1 3.1 1.9 2.7l2.9-.4-.6 4.5c-.3 2.5-1.2 6.8-1.9 9.6-.7 2.7-1.1 5.2-.9 5.4.2.2 3-.1 6.1-.7 7.8-1.3 14.2.3 24.2 6.2 11.5 6.7 23.1 9.8 30 7.9 2-.5 2.3-1.1 1.8-3.3-.3-2 .1-3.3 1.5-4.6 2-1.8 2.2-1.8 9.2 1.1 1.4.6 1.7.1 1.7-3.1 0-3.4.8-4.6 7.1-11l7.1-7.2-2.5-4.3c-2-3.5-2.6-6.1-2.9-13.2l-.4-8.7h3.5c2.3 0 6.3 1.4 10.8 3.7l7.2 3.8 3.5-3.4c3.4-3.3 3.6-3.9 3.6-9.7 0-5.7-.4-6.9-6.7-17.9-3.6-6.4-7.7-12.4-9-13.2-2.1-1.4-2.3-2.2-1.8-5.2.4-2.2-.2-7-1.4-12.1-1.1-4.7-1.8-8.6-1.6-8.8.2-.2 2.5.1 5.2.6 4.6 1 4.9.9 9-2.4 3.3-2.7 4.5-4.6 5.8-9.2.9-3.1 1.8-6.4 2.1-7.2.2-.9 2.6-3.7 5.2-6.3l4.8-4.7 3.4 2.4 3.5 2.4 4.7-2.4 4.7-2.4 5.7 3.4c5.3 3.3 5.9 3.4 8.8 2.2 1.7-.8 7.8-3.5 13.7-6l10.5-4.7 3-9.2c2.9-9 2.9-9.3 1.5-15.9l-1.4-6.7 5-5.8 5-5.8.6-10.5c.7-13 1.9-16.9 6.3-19.8 2.6-1.7 3.4-2.9 3.4-5.3 0-2 1.1-4.4 3.3-6.9 3-3.6 3.3-4.7 4.7-16.7l1.5-12.8 4.3-2.3c3-1.7 5.2-4 7.3-7.8 1.7-3 3.5-5.4 4-5.4s4.3.9 8.4 2.1c4.1 1.1 9.4 1.9 11.6 1.7l4.2-.3 2.2-8c3.1-11.8 9.2-20.1 17.1-23.3 3.1-1.3 3.1-1.3 4.8-15 1.5-11.8 1.6-15 .5-22.2l-1.2-8.5-9.2-9c-8.2-7.9-9.4-9.5-9.8-13.1-.3-2.4.1-5 .9-6.5 1-1.8 1.3-7.3 1.3-21.4v-19l-3.9-4.4-4-4.4-7.4.7c-6.7.6-7.8.4-14-2.4-3.7-1.6-7-3-7.2-3-.2 0-2.1 2.7-4.3 5.9l-4 5.9-9.9-2.5-9.8-2.5-8.9-28.9-8.9-28.9h-15.1l-2.8-4.7c-2.8-4.5-2.8-4.8-1.4-8.4l1.5-3.8-8.1-12.3-8.1-12.3-4.8-22.5c-2.6-12.4-4.7-22.8-4.8-23.3 0-.4 1.5-.7 3.4-.7 3.3 0 3.3-.1 7.9-11.1l4.5-11-7.3-5.4c-7.5-5.6-8.5-7.3-8.5-15.7 0-2.1-.9-3.4-4.1-5.4-2.7-1.7-4.7-4-6-7l-2-4.4 2.8-5.1c2.6-4.7 3.6-5.5 13.6-10.5 5.9-3 10.7-6 10.7-6.8 0-.8-2.3-6.5-5.1-12.7l-5-11.4 1.4-5.8c1.4-5.5 1.4-6.3-.5-11.8l-2-5.9 2.2-6.7c1.5-4.7 3.5-8.1 6.1-10.8l3.9-4.1v-11.9c0-11.5.2-12.2 3-17 2.2-3.7 3-6.3 3-9.8 0-4.3.5-5.5 4.3-10 2.7-3.3 4.2-5.9 4-7.2-3.2-17.4-7-30.5-10.6-36.8-3.9-6.7-4-7.1-3.4-13.9.6-7 .6-7.1-4.8-17.9-3.8-7.4-5.5-12.1-5.5-14.6 0-3.2-1.2-5.3-8-13.8-7.5-9.4-8.4-10.2-15.7-13.5-12.6-5.7-18.1-9.2-19.4-12.3-.7-1.5-1.7-2.6-2.4-2.3-.6.2-3.6.7-6.6 1.1-4.3.5-6.9.1-12.4-1.8l-7-2.4-.3-6.9c-.2-6.3-.5-7.1-3.2-9.5-2.8-2.4-2.9-2.7-1.9-6.3.9-3.4.7-4.7-1.7-10.5-1.5-3.6-5.2-10.9-8.1-16.2-5.3-9.5-5.3-9.6-11-11.5-3.6-1.2-8-3.8-11.7-6.9-11.1-9.5-10-8.9-15.1-6.8-3.7 1.5-5 2.8-7.5 7.5l-3.1 5.8H458c-7.9 0-7.9 0-12.7 4.2-3.5 3.1-7.3 5.1-13.5 7.3l-8.7 2.9-5.7-4.5c-5.1-3.9-6.2-5.4-9-12.4-1.8-4.4-3.5-10-3.9-12.4-.6-4.1-.4-4.6 2.3-6.7l2.9-2.3-1.3-7.3c-1.7-9.9-2.6-12-6.7-15.1-2-1.5-3.8-2.7-4-2.7-.3 0-4.1 2.6-8.4 5.8z"/></svg>
