<svg version="1.0" xmlns="http://www.w3.org/2000/svg" width="1365.333" height="1365.333" viewBox="0 0 1024 1024"><path d="M663.8 103.5c-3.6 1.3-8.7 3.8-11.2 5.7-3.8 2.8-4.6 3.9-5.1 7.8-1 6.9-1.2 7.2-6.4 11.5-4.7 3.8-5.2 4.7-9.6 17.5-2.6 7.4-5.2 14.1-5.8 14.7-.5.7-2.2 1.3-3.6 1.3-1.5 0-6.9 2-11.9 4.5-8.2 3.9-9.5 5-12.4 9.6-3.5 5.7-7.7 8.1-23.5 13.3-8.2 2.7-8.3 2.8-8.3 6.2 0 2.7-.6 3.6-2.9 4.8-1.7.9-3.1 2.7-3.5 4.3-.4 1.5-1.8 6.5-3.2 11l-2.5 8.2-4.2.3-4.1.3-2.9 8.9-2.8 8.9 3.3 3.4 3.3 3.5-3.5 2.9c-1.9 1.6-5.1 3.2-7.2 3.5-3.7.6-4.8 2.2-4.8 7.1 0 2.3.1 2.3-16.4 4.4l-8.9 1.1-2.4-3.1c-2.3-2.9-2.8-3.1-9.4-3.1-6.6 0-7 .1-8.1 2.7-.7 1.6-1.3 2.9-1.4 3.1-.1.2-1.8 0-3.8-.4-2.9-.5-4.1-1.4-5.6-4.5-1.8-3.4-2.3-3.7-5.2-3.3-1.8.2-6.9.8-11.2 1.3-9 1.1-8.5 1.3-24.3-10.7-6.1-4.5-7.5-6.2-8.8-10.2-.9-2.6-2.5-5.6-3.6-6.6-4.1-3.7-9.9-14.8-9.9-18.9 0-3-1.4-6-6.2-13.7-6.8-10.9-7.1-11.2-11-12.2-2.5-.6-2.8-.3-2.8 1.7 0 1.7-1.2 3.2-4 5.1-2.2 1.4-4.4 2.6-4.9 2.6-2.3 0-5.9-6.2-7-12.1-1.2-5.8-1.9-7-7.7-13.1-3.5-3.6-6.4-7.3-6.4-8.2 0-1.3-1.4-1.6-8.4-1.6h-8.3l-3-6.8c-1.7-3.7-3.6-9-4.3-11.7-1.6-6-1.6-6.1-6-6.9-3.1-.5-3.7-.2-5.5 2.4-1.9 2.8-2.4 3-8.4 3-5.4 0-7 .4-9.9 2.7-4.7 3.5-6.7 2.3-6.8-4.2-.1-4.4-.3-4.8-4.8-7.8-4.1-2.6-5.6-3-10.4-2.8-3.4.1-8.6-.7-12.7-1.9-8.3-2.4-9.9-2.5-9.2-.6 2.4 6.2 2 7.9-4.7 17.1-3.6 4.9-7.1 9.8-7.8 10.8-.8 1.1-3.4 2.1-6.6 2.6l-5.3.8-3.1-3.9c-1.7-2.2-3.4-3.6-3.8-3.1-.4.4-2 4.1-3.5 8.1l-2.8 7.2 3.3 10.8c1.8 5.9 4.4 12.6 5.8 15 2.3 4.1 2.7 4.3 6.6 4.1 9-.4 10.1.1 11.1 5.4.7 3.4.5 3.7-1.5 3.7s-2.2.4-1.6 3.2c.9 4.4 2.6 6.8 8.8 12.1 3.4 2.9 8.7 5.9 14.7 8.3 5.4 2.2 11.1 5.4 13.6 7.6 4.1 3.6 4.6 3.8 13.9 4.4 8.8.6 9.9 1 12.6 3.5 1.6 1.6 4.1 2.9 5.4 2.9 2.4 0 3.6 2.8 3.6 8.8 0 1.4 1.5 4.1 3.6 6.5l3.7 4-4.8 4.2-4.8 4.1.7 6.5c.4 3.5.9 7.8 1.2 9.5l.6 3.1-7.8.9-7.8.9-4.6 7.7c-2.5 4.3-4.9 7.8-5.3 7.8-.5 0-2.1-.9-3.7-2-1.5-1.1-8.1-3.8-14.6-6.1-11.2-3.8-12.2-4.4-16.7-9.5l-4.9-5.4h-6.3c-8.8 0-23.9 3.7-30.5 7.4-5.2 2.9-6 3.1-14 2.8-8-.4-9-.7-16.1-4.8-7.4-4.3-7.8-4.4-16.4-4.4h-8.7l-6.9-6.1c-6-5.3-6.9-6.5-6.9-9.6 0-3.1.4-3.6 4-5 2.2-.9 4-1.9 4-2.3 0-.4-.9-1.8-2-3.2-1.6-2.1-3.1-2.6-8.5-3.1-4-.4-8-1.5-10-2.7-2-1.2-5-2-7.7-2-4 0-4.7-.3-5.7-2.8-.9-2.1-3.3-3.9-9.7-7-4.6-2.3-8.8-4.2-9.3-4.2-.6 0-1.3 1-1.6 2.1-.6 1.8-1.3 2.1-4.7 1.6-2.5-.3-5.1-1.6-6.8-3.2-2.8-2.7-3.1-2.7-10.5-2l-7.6.7-2.5 5c-2.2 4.3-3.3 5.4-8.2 7.5-5.2 2.3-6.3 3.4-13.6 13.6-7 10-8.8 11.8-16.7 17.2-4.9 3.3-8.9 6.2-8.9 6.5 0 .3 2.1 1.8 4.6 3.4 2.5 1.6 5.7 4.6 7.1 6.8l2.6 3.9-2.1 2.2-2.2 2.3 3.2 2.4c3 2.2 3.5 2.3 8.8 1.2 3.1-.7 6.1-1.2 6.6-1.2 2 0 7.4 8.8 7.4 11.8 0 5.6-.7 6.2-6.9 6.2-4.6 0-6.6.6-10.4 3-5.2 3.3-5.4 3.8-3.2 8 1.4 2.7 1.6 2.8 5.2 1.7 2.1-.6 5.1-2 6.7-3.1l2.9-1.9 2.6 3.1c1.4 1.7 4.3 3.8 6.4 4.7 5 2.1 5.1 5.5.2 8.5-4.1 2.5-4.2 2.9-1.3 6.5l2.1 2.7L68 361c1.4-2.7 13-12 15-12 .4 0 1.9 1.8 3.3 3.9l2.7 4 8.7-3c4.8-1.6 9.1-2.9 9.6-2.9.9 0 .4 5.2-1 10.8-.5 2.3-.4 2.3 4 1.7l4.6-.7 1.7 4.1c1.3 3.3 2.1 4.1 4.2 4.1 1.5 0 4.5 1.6 7.3 4 3.5 3 5.6 4 8.2 4 3 0 3.5.4 4 2.7.7 3.2-3 15-4.8 15.7-.7.2-7.6 4.6-15.4 9.7-13.6 8.9-14.4 9.6-18.7 16.7l-4.4 7.3 2 4.7c1.9 4.3 2.8 5.2 9.5 8.5 7.1 3.5 7.5 3.9 7.5 6.9 0 1.8-.7 4.2-1.5 5.2-2.1 2.8-1.9 3.8 2.1 9 2.5 3.3 5.5 5.7 10.6 8.2 10.6 5.3 20.9 13.5 23.8 18.8 1.3 2.6 3.1 4.8 4 5.1.8.2 4.6 1.1 8.5 2 3.8.9 12.8 4.2 20 7.4 10.3 4.6 14.4 6 19.8 6.5 3.7.3 7.2.8 7.8 1.2.6.3 0 1.9-1.5 3.9-1.5 1.9-2.6 3.6-2.6 3.8 0 .2 2.3 1.9 5 3.8 3.9 2.6 5 3.9 4.6 5.4-.2 1.1-1 5.5-1.7 9.8-1.1 7.5-1.4 8-4.6 9.5-2.9 1.4-3.3 2-3.3 5.5 0 3.1-1.3 6.1-6.1 13.9-3.4 5.4-6.4 9.7-6.8 9.5-.3-.1-4.4-2.1-9.1-4.4-8.5-4-8.5-4-16.5-3.2-4.4.4-11 .8-14.7.8l-6.7.1 2.5 7.4c2.5 7.4 2.5 7.4 5.3 6.3 2.3-.8 4.2-.5 11.1 2.2 7.3 2.8 9 3.1 14.5 2.5 5.7-.6 6.3-.5 6.7 1.2.2 1.1-.1 3.1-.6 4.6-.8 2.1-.4 4.1 1.8 9.7 2.7 6.9 2.9 7.1 11.4 12.6 8.7 5.6 9.3 5.7 15.4 3.9 1.2-.3 2.9 1.1 5.7 4.9 2.7 3.7 6.1 6.7 10.5 9.3 5.3 3 6.8 4.5 7.7 7.4.6 1.9 1.7 4.2 2.4 5 .7.8 1.8 3.2 2.5 5.3 1.1 3.4 2 4.2 7.6 6.8 10.8 4.8 13.4 5.3 20.7 4 4.3-.7 9.1-2.6 13.6-5.1l7.1-4 5.2 2.6c2.9 1.4 7.3 4.6 9.8 7l4.5 4.3 12.5.3c15.2.4 16 1.3 6.9 7.7l-6.1 4.3 3.7 3.8c3.5 3.6 3.6 3.9 1.8 4.9-1.1.5-3.6.8-5.6.4-2.9-.4-3.8-.1-4.9 1.6-1.1 1.8-2.2 2.1-7.9 2.1-6.1 0-6.8.2-8.3 2.6-1.6 2.4-1.6 2.9.5 10 3 10 6.7 13.4 15 13.4 4.9 0 6.1.4 10.2 3.6 2.6 2 4.7 3.8 4.7 3.9 0 .1-.7 2-1.6 4l-1.6 3.8 5.1 5.1 5.1 5.1 6.4-.3c5.7-.3 6.6-.1 7.6 1.8 1.2 2.3 1.4 2.2-7 4.3l-5.5 1.3-.3 4.7c-.2 3.4-.8 5-2.2 5.7-1.8.9-2.3.4-4.7-4.5-1.6-3.2-3.4-5.5-4.3-5.4-.8 0-4 .8-7 1.7-4.1 1.3-5.6 2.3-5.8 3.8-.6 3.9 1.7 7.3 8.2 12.4 11 8.6 10.9 8.4 10.4 34.1-.2 12 0 21.9.4 21.9s2.2-1.7 4-3.7c1.8-2 8-8.9 13.9-15.3 10.4-11.5 10.5-11.7 11.8-18.7l1.4-7.1 9.8-8.1 9.7-8.1 7.5.6 7.5.7 8.2-5.8c10.8-7.6 20.7-19.8 21.6-26.5.6-4.5.7-4.7 8.4-8.8 6.7-3.6 8-4.8 9.4-8.3 1.5-3.7 2.4-4.4 11-8.4l9.3-4.3 4.6-8.8c5.3-10.2 6.9-11.5 20.2-16.4 5-1.8 9.9-4.3 11.1-5.5 1.1-1.2 6.1-4.9 11.1-8.3 5.8-3.9 10.2-7.7 12-10.4 2.6-3.9 3.6-4.5 9.9-6.2 6.5-1.8 7.3-2.3 10.2-6.7l3.1-4.7 10.1-.7 10-.8 5-5.4c4-4.3 5-6.2 5-8.9V621h16.5l31.1 31.3c25 25.2 31.5 32.2 33.4 36.4l2.3 5.2-4.1 5.4c-3.7 4.7-4.9 5.6-10.2 7.1-8 2.2-15.5 7.8-18.6 13.8-1.9 3.8-2.4 6.3-2.4 12.5v7.8l6.1 2.4c5.2 2 6.3 2.9 8.1 6.6 1.8 3.7 3.1 4.7 11.1 8.6 5 2.4 10.8 5.9 12.9 7.7l3.7 3.4-2.4 6.5c-3.4 9.1-7.3 13.4-17 19.3l-8.4 5.1-8.8-.3-8.8-.3-1.5 5.8c-.9 3.3-2.3 6.3-3.2 6.8-2.1 1.2-6.7 1.3-10.2.4l-2.9-.8.6 6.3c.4 3.5.7 7.1.7 8 0 2.8 23.3 17.7 30 19.1 7.4 1.7 23.4 13.3 22.5 16.4-1.8 5.6-1.6 6 3.7 11.2 4.7 4.6 6 5.3 11.3 6.1 4.2.7 8.1.6 13.2-.3l7.3-1.2 2.5 4.3c1.4 2.3 3.5 5.1 4.8 6.1 1.2 1 3.3 3.6 4.6 5.8 1.3 2.2 3.9 5.6 5.7 7.5 1.9 2 3.7 5.2 4.1 7.4l.8 3.8 13 5.2c13 5.2 13 5.2 18.8 4 5.5-1.1 6.6-1.8 10.3-7.1.9-1.3 3.5-2.6 6.7-3.4 2.8-.6 6.8-2.4 9-3.8l3.8-2.6-.6-12.5c-.9-18.2-2.2-26.6-5.2-34.3-2.5-6.4-2.6-7.2-1.5-14l1.1-7.2-7-15.2c-3.8-8.3-6.9-16.1-6.9-17.3 0-1.1.7-3.7 1.5-5.7.8-1.9 1.5-6.4 1.5-9.9 0-8 2.5-13.8 5.5-13 7.7 2 7.1 2.3 8.3-3.6 1-5.1.9-5.4-1.8-8.3-2.1-2.3-2.6-3.5-2-5 .5-1.1.9-4.5.9-7.5.1-3 .4-7.9.7-10.7.6-5 1-5.5 7.8-11.1 6.1-5.1 13.2-9 14.3-7.9.1.2-.1 2.5-.6 5.1-.7 3.9-.6 5 1.1 7.1 1.1 1.4 2.6 2.5 3.4 2.5.8 0 1.4 1 1.4 2.4 0 1.3 1.4 3.9 3.2 5.7l3.2 3.4 1-3.7 1-3.8h5.6c6.2 0 7.8.7 5.4 2.4-1.4 1-1.3 1.4.4 3.7 1.1 1.3 2.6 4.5 3.3 6.9.7 2.5 1.5 4.8 1.9 5.3.3.4 1.6-5.7 2.9-13.6 2.1-13.3 2.2-15.2 1.1-25.6-1.5-13.5-.9-30.9 1.1-32.1.7-.5 4.3-1.2 7.8-1.6 6.1-.6 6.6-.5 8 1.7.9 1.3 2.9 3.7 4.6 5.4 2.9 2.9 3 2.9 3.3.9.2-1.2-1.1-4.4-2.7-7.2-3.3-5.3-3.6-6.2-2.2-6.2.5 0 2.6 2.6 4.5 5.9 4.3 7 6.6 9.3 6.6 6.5 0-1.1-.9-3.7-1.9-5.9-1.6-3.6-1.6-4.4-.3-8.3.8-2.3 1.2-4.8.9-5.6-.3-.7-2.9-2.7-5.9-4.3-8.9-5.1-15.4-10.8-18.7-16.7l-3.2-5.5 2.6-5c1.4-2.8 3.2-8.3 4-12.2.8-3.9 3.3-10.5 5.5-14.7 2.2-4.3 4.2-9 4.5-10.5.4-2 1.5-3.1 3.6-3.9 1.6-.6 2.8-1.3 2.6-1.7-.1-.3-1.7-3.5-3.4-7.1-2.7-5.8-3-7.1-2.3-11 .5-2.5.9-6.3 1-8.4 0-2.6.9-5 2.5-7.2 1.4-1.8 2.5-3.8 2.5-4.4 0-.6-1.4-4-3-7.7l-3-6.6 2.1-5.6c1.2-3.3 3.3-6.7 5.2-8.2l3.1-2.6-1.9-2.9c-1-1.6-3.7-4.9-6-7.4-2.4-2.5-4.5-5.5-4.9-6.7-1-3 1.8-7.9 4.8-8.7 4.9-1.2 5.8-3.1 5-11.5l-.6-7.6 13.3-8.9c16-10.7 25.2-17.8 28-21.7 1.9-2.8 2.4-2.9 9.5-2.9 6.6 0 8-.3 11-2.6 2.9-2.2 3.4-3.3 3.4-6.6 0-3.9 2.3-9.8 3.9-9.8.4 0 4.1 1.1 8.1 2.5 5.3 1.8 9.5 2.5 15 2.5 7.5 0 7.7-.1 14-4.7 6.3-4.5 6.5-4.6 10.4-3.4 2.3.7 7.7 1.6 12.1 2.1 4.4.5 10.4 1.3 13.4 1.9 2.9.6 5.5 1.1 5.6 1.1.1 0 2.6 3.6 5.4 7.9 8.7 13.2 11.5 14.4 9.1 3.8-.8-3.4-1.4-8.2-1.3-10.6.2-3.6-.5-5.3-3.7-10.2-4.4-6.4-5.1-10.4-2.1-11.4 1.9-.6 1.9-.7.1-6.3-1.1-3.1-2.4-7.6-3-10-1-3.9-1.3-4.2-3.8-3.6-1.5.4-3 .8-3.3 1-.4.2 0 3.4.7 7 .8 3.7 1.2 6.9 1 7.1-.2.3-2.3-.6-4.5-1.9l-4.1-2.3.6-5.1.6-5.1-3.4-.6c-1.8-.3-7.6-.9-12.8-1.3l-9.5-.7-6.1-5.9c-3.4-3.2-7.2-7.9-8.5-10.2l-2.3-4.4-4 1.8c-2.3.9-5.5 2-7.2 2.3-1.7.3-8.4 3-14.8 5.8l-11.7 5.3-10.2-1.7c-5.6-1-12.4-1.7-15-1.7-3.7 0-6.4-.8-11-3.4-3.4-1.9-8.7-3.9-11.7-4.6-3-.7-6.2-1.6-7.2-2.1-.9-.5-4.6-5.6-8.2-11.4L850 351l1.7-6.7 1.6-6.7-6.4-5.9c-3.9-3.7-9.1-7.2-13.4-9.2-13.1-6-18-9.8-22-17-3-5.2-5.2-7.6-11.3-12.1-9.1-6.6-10.7-8.9-17.1-25.4-3.5-9.1-5.4-15.7-6.7-24-1.6-10.7-2.2-12.3-8.2-23.5-7.1-13.2-18.9-27.9-57.6-71.9-17.8-20.2-20.2-23.3-21.1-27.6-1.2-5.7-10-16.2-15.5-18.4-3.2-1.2-4.1-1.1-10.2.9zM42.9 639.8c-4.2 3.2-9.4 5.9-15.2 7.9l-8.8 3-1.1-2.1c-.6-1.2-1.2-2.2-1.3-2.4-.2-.3-15.7 5.7-16.3 6.3-.2.1.6 1.8 1.7 3.6 1.4 2.2 2.1 5.1 2.1 8.2 0 2.7.7 6.4 1.6 8.2 1.7 3.6 2.4 3.9 12.5 5l5.5.6 1.2 4.5c.7 2.4 1.2 6 1.2 7.9 0 2.3 1 4.9 2.9 7.6 1.7 2.2 3.7 6.4 4.7 9.2 2.8 8.8 4.1 10.4 10.9 14.2 6.3 3.5 6.7 4 12.1 14.1 3 5.7 8.3 13.9 11.7 18.1 5.9 7.4 6.6 7.9 15.7 11.8 13.5 5.7 17.9 8.9 28.2 21 6.5 7.6 10.5 11.3 14 13.1 5 2.5 6.3 5.5 3.6 8.2-.9.9-.9 1.8 0 3.6.8 1.9 2.6 3 6.9 4.2 3.2.9 7 2.5 8.5 3.5 1.5 1.1 4.3 1.9 6.6 1.9 2.2 0 6.1.9 8.7 2 3.2 1.4 6.9 2 11.9 2 11.7 0 37.4 8.3 46.8 15.2 1.4 1 2.4 1 5-.1 1.8-.7 7.3-1.7 12.2-2.2 4.8-.4 10.1-1.1 11.6-1.4 1.8-.4 4 0 5.9.9 1.6.9 5.2 1.6 8 1.6h5l-2.8-6.8c-1.5-3.7-3.8-9.9-5.1-13.7-3-9.3-5.2-13.5-11.8-23-7.8-11.1-12.5-21.4-15.1-32.3-2.6-11.7-2.6-12 .3-12.8 2.4-.6 4-4.3 2.9-7-.2-.6-8.8-4.4-19.1-8.4-10.3-4.1-19.9-7.9-21.3-8.6l-2.7-1.3 1.9-8.8c1.1-4.9 2.7-10.9 3.6-13.4 1.6-4.6 1.6-4.7-1.7-13.5l-3.3-8.9-9.3-4.4-9.3-4.3-9.1 5.6c-8.5 5.3-9.4 5.6-15.4 5.6h-6.3l-4.9 5.2c-2.7 2.9-6.1 6.8-7.6 8.6l-2.7 3.3-4.8-2.5c-2.6-1.3-6.6-4.2-8.7-6.4-3.5-3.7-4.5-4.1-10.2-4.8l-6.4-.6v-6c0-4.9-.4-6.3-2.5-8.3-1.3-1.4-2.8-2.5-3.3-2.5s-3.6 2.5-7 5.6c-5.4 4.8-6.4 5.4-8.2 4.4-2-1.1-2.1-1.7-1.5-10.3l.7-9.2-4.1-4.8c-2.2-2.7-5.9-8.2-8.1-12.3l-4.1-7.4h-5.3c-4.8 0-5.9.5-11.7 4.8z"/></svg>
