<svg version="1.0" xmlns="http://www.w3.org/2000/svg" width="1365.333" height="1365.333" viewBox="0 0 1024 1024"><path d="M202.3 6.5c-2.7 4.1-4 7-3.6 8.3.3 1.3-.6 3.7-2.6 6.6-3.9 5.6-4.4 11.9-.9 11.4 1.4-.2 2.5-1.4 3.2-3.4l1.1-3.2 9.1 3.6 9.2 3.6 1.7 5.6c.9 3 1.9 6.3 2.1 7.2.5 1.5-.2 1.8-4 1.8-4.7 0-7 1.3-17.9 10.2-3.9 3-3.9 3.1-3.2 8.4l.6 5.3L191 75c-4.6 2.3-6.9 3-9.1 2.5-2.7-.6-3.6-.1-9.2 6.1-9.5 10.3-9.4 10.1-6.4 13.2 1.4 1.5 2.9 3.9 3.2 5.4.7 2.6.5 2.8-2.2 2.8-1.9 0-3.8.9-5.3 2.5-2 2.1-2.3 3.4-2.1 7.5.2 4.6 0 5.1-2.5 6-2.6 1-2.7 1.2-2.1 7.3.7 7.1 4.1 17.2 7 20.4l2 2.2 3.6-2.8c2-1.5 5.5-3.3 7.9-3.8 4.1-1.1 4.4-1 6.3 1.6 2.4 3.2 14.2 13.3 21.2 18l4.7 3.2v15.7l3.5.6c2.8.6 3.8 1.4 5 4.1.7 1.9 2.1 3.5 2.9 3.5.8 0 2.7 1.6 4.2 3.5 2.3 3.1 3.2 3.5 7.3 3.5 3 0 5.5.7 7.1 2 3 2.3 9.2 2.6 11 .5.7-.9 2.9-1.5 5.1-1.5 2.8 0 3.9-.4 3.9-1.5 0-2.5 3.3-1.7 7.4 1.6 3.5 3 3.7 3.5 3.3 7.3-.3 2.3-.8 5.2-1.2 6.6-.4 1.8.3 4 2.7 8 2.9 4.9 3.7 5.5 7 5.8 2 .2 4.2 1 4.8 1.8.7.8 2.6 1.4 4.2 1.4 4 0 8.8 2.7 8.8 4.9 0 1.1-2.1 3.6-4.6 5.7-4.2 3.6-4.5 4.1-3.5 6.6.8 2 .7 2.9-.4 3.8-.9.8-1.3 2.1-.9 3.6.9 3.6-2.6 3.1-8.9-1.1l-5.2-3.6-2.6 3.1c-3.4 4-9.4 4.3-12.8.6-1.9-2-3.6-2.5-10.1-3.1-7.2-.6-8-.5-11.9 1.9-4.9 3.1-5 3.1-11 .5-4.2-1.7-5.4-1.9-9-.9l-4.1 1.1v5.5c0 4.1-1.4 9.6-5.6 21.7-8.4 23.9-8.6 24.5-12.7 25.2-3.1.6-4.5 0-12.4-5.2l-8.8-5.9-5.4.8c-3 .5-5.7 1-5.9 1.3-.2.2.9 2.7 2.6 5.6l3 5.2-2.1 3.3c-1.2 1.8-3.9 4.1-5.9 5-2.1.9-3.8 1.8-3.8 1.8 0 .1.4 1.6.9 3.4l1 3.2-4-.6-3.9-.7v4.8c0 3.2-.6 5.5-2 7.2-1.1 1.4-2 2.9-2 3.4s2.5 4.5 5.5 8.9c4.2 6.2 5.5 8.9 5.5 11.8 0 8.9.9 10.9 6.5 14.6 3.4 2.2 8.4 4.3 13.7 5.6 6.6 1.7 10.2 3.4 17.8 8.4 5.2 3.5 12.4 8.9 16 12 6.5 5.5 6.5 5.6 13.1 5.6 4.5 0 8.1.7 11.4 2.1l4.7 2.1 2.4-2.3 2.4-2.3 3.6 3.5c5.4 5.1 7.2 9.5 6.2 14.5-.7 3.3-1.5 4.5-3.8 5.4-2.9 1.2-3 1.4-3 8.6 0 6.3.3 7.5 2 8.4 1.4.8 2 2.1 2 4.5 0 3.3.2 3.5 3.2 3.5 3.1 0 3.1 0 1.2 2.1-1 1.2-1.9 3.3-2 4.8-.3 13.2-.3 13.1-2.9 13.1-1.6 0-3.4 1.3-5.6 4-2.6 3.2-3.7 3.8-5.6 3.4-1.3-.4-3.7-.1-5.3.6-2.5 1.1-3.3 2.3-5.1 8.1-1.1 3.7-1.8 7.7-1.4 8.8.3 1.1.1 6.7-.5 12.4-.9 9.3-.9 10.9.7 14.1 1.3 2.8 2.6 3.9 5.6 4.8 3 .9 4.7 2.3 6.8 5.6 1.5 2.4 4.8 5.6 7.2 7.2 2.9 1.8 4.7 3.7 4.9 5.2.2 1.8 1 2.4 3.5 2.6l3.1.3-1.4 3.4c-.8 1.9-1.4 5.9-1.4 8.9 0 4.9-.3 5.7-2.9 7.5-2.2 1.6-3 3.1-3.4 6.8-.7 5.9 1 12.1 3.6 13.5 1.1.6 7 1.2 13.1 1.4 6.1.2 12.7.8 14.6 1.4 1.9.5 5.2 1 7.2 1 6.1 0 4.9 2.7-6.1 14-10.5 11-12.1 14.1-12.1 24.5 0 3.8.4 4.6 3.4 6.4 2.8 1.8 3.4 2.9 4 6.9.8 5.9 3.9 11.2 6.6 11.2 2.6 0 3.7 2.7 2.2 5.1-.7 1-1.2 3.3-1.2 4.9 0 1.7-.7 4.4-1.5 5.9-.8 1.6-1.2 3.1-.9 3.3.2.3.9 6.7 1.4 14.2.9 11.6.8 14.2-.5 17.3-1.9 4.5-1.5 5.8 2.2 6.6 1.7.4 3.7 2 5.1 4.1 2.3 3.3 2.3 3.8 1.6 19.3l-.7 16 5.7 9.4c4.4 7.4 5.6 10.4 5.6 13.6 0 3.4.4 4.2 2.2 4.7 2.2.5 2.2.7-1.4 4.3-4.5 4.7-5.4 9-3.4 15.8.9 2.7 1.6 7.6 1.6 10.8 0 5.6-.1 5.8-3.1 6.9-2.8 1-3 1.3-2.3 4.2.9 3.6 1 9.1.4 16.1l-.5 5 5.5 3.2c3.2 2 6.1 4.6 6.9 6.3 1.7 3.4 6.1 4.3 6.1 1.2 0-4.4-1.3-6.1-5.3-7.5-3.8-1.2-4.2-1.7-6.3-8-1.9-5.5-2.1-7.1-1.1-9.7.6-1.6 1.4-3 1.8-3 .6 0 3.1 7.4 4.5 13.2 1 4.2 8.2 5.3 12.1 1.6l2.3-2.1v4.1c0 2.3.8 5.7 1.7 7.6 1.3 2.9 1.4 4 .5 6.1-.7 1.4-1.2 5-1.2 8v5.5h6.5c6.2 0 6.5-.1 8.1-3.2 1.5-3 1.5-3.2-.4-4.7-2-1.5-2-1.8-.6-7.1.8-3 1.3-7.8 1.1-10.7-.3-4.3-.1-5.2 1.5-5.6 1-.3 1.8-1.4 1.8-2.7 0-1.1 1.3-3.8 2.9-5.8 2.3-2.8 3.1-5 3.3-8.7l.3-5 2.1 3.6c2 3.3 2.1 4.6 1.6 17.8-.6 16.5.2 19.1 5.2 19.1 2.6 0 3.6-.8 5.9-4.4 3-4.8 3.6-10.9 1.2-13.6-1.2-1.3-1.2-2.3-.3-5.4 1-3 2.1-4.3 5.4-5.9 4.2-2 4.2-2 4.6-8.1.2-4.2 1.1-7.4 2.8-10l2.4-3.9 1.8 5.3c1.4 4.2 1.7 7 1.2 13.5-.7 8.1-.7 8.3-4 9.9-4.6 2.2-5.3 5.5-2 9.9 1.4 1.9 2.6 4.1 2.6 4.9 0 3.4 2.2 7.6 4.3 8.2 2.6.7 5.7-1.9 5.4-4.6-.2-1.8.5-2 6.6-2.3 8.3-.3 10.7-2 8.9-6-.6-1.4-2.3-3.1-3.8-3.7-3.5-1.6-7.4-9.6-7.4-15.3 0-3.6.3-4.5 1.8-4.5 3.7 0 4.5 1.5 2.7 5-1.7 3.2-1.6 3.3 1.4 6.4 3.9 4 10 6.5 11.2 4.5.6-1.1 1.1-1.1 2.1-.1.6.6 3.1 1.2 5.5 1.2 3.7 0 4.4-.4 5.8-3 .8-1.6 3.5-4.1 6-5.6 3.7-2.1 4.5-3.1 4.5-5.4 0-1.6-1.1-4.2-2.5-5.8-2.3-2.7-2.4-3.5-1.8-9.7l.6-6.8-3.4-2.8-3.4-2.8 4.3-.1c5.1 0 5.1.7 1.6-18.1-3-16.2-2.5-22.9 2-29.6 1.7-2.4 2.6-5.1 2.6-7.6 0-3.4.2-3.7 1.9-2.7 1.7.8 2.5.3 5.8-3.8 2.1-2.7 5.5-6.3 7.5-8.1 3.3-2.9 3.8-3.1 3.8-1.3 0 1.1-2 3.8-4.5 6.1-2.9 2.6-5.4 6.3-7 10.1-1.4 3.3-4.5 9.2-6.9 13.2l-4.4 7.2 2 4.1c3.4 6.5 5.8 17.3 5.8 26.2 0 10.2 2.9 18.8 6.7 19.7 3.6 1 4.3 0 4.3-6.2.1-4.7.6-6.4 3-9.6 2.1-2.7 3-5.1 3-7.6 0-4.9 4.2-9 9.1-8.9h3.4l-4.2 2.1c-4.3 2.2-5.3 3.9-5.3 9.9 0 2.6-.8 4.3-2.9 6.3-1.8 1.7-3.1 4.1-3.3 6.2-.4 3.3-.2 3.5 3.6 4.5 3.8 1 4.2.9 6.2-1.6 1.2-1.5 3.9-5.8 6-9.6 2.1-3.7 4.8-7.2 5.9-7.7 1.2-.5 5.1-3.3 8.8-6l6.7-5.1v9.7l-4.4.6c-3.1.5-4.9 1.4-6 3.1-.8 1.3-3.3 3.4-5.6 4.6-4.9 2.8-8.6 8.1-9.5 13.7-.6 3.6-1.2 4.5-4.1 5.7-3.2 1.3-3.4 1.7-3.4 6.2 0 13.1 2.7 15.9 9.2 9.6 2.1-2.1 3.8-4.5 3.8-5.4 0-1 .5-2.1 1-2.4 2.5-1.5 0 7.1-2.6 9-2.8 2-1.3 5.8 3.3 8.3 3.5 1.9 5 2.2 9.4 1.6 4.2-.6 6.2-1.6 11-5.5 6.3-5.3 7.3-7.5 11.6-25.9 1.1-4.7 2.7-8.6 4.3-10.5 1.4-1.7 3.6-5.9 4.8-9.3 1.3-3.4 2.8-6.4 3.4-6.8.8-.5.9-.1.4 1.1-.3 1-.4 3.3 0 5.1.6 3.2.8 3.4 5 3.4s4.5-.2 7.3-5.1c1.6-2.9 3.2-6.7 3.6-8.7.5-2.9 1.3-3.7 5.4-5.4 3.7-1.6 5.5-3.2 8.3-7.7 3.4-5.1 3.8-6.5 4.6-16 .7-8 .6-11.3-.4-14.9-.8-2.5-1.4-8.4-1.4-13.1v-8.6l-5.8-4.5c-5.3-3.9-6.1-5.1-8.3-11.4-2-5.8-2.1-7-.9-7.4.8-.3 2.8-1.8 4.4-3.4 2.8-2.9 2.9-3 2.2-11.3l-.7-8.4 3.8 1.5c7.7 3.2 18.6-.5 19.5-6.6.4-2.7-.1-3.3-4.1-5.9-3.6-2.3-6.3-3.1-12.3-3.6-8.3-.8-11.5-2.7-12-7.5-.3-2.4 0-2.5 6.9-3.3 6.7-.8 7.4-.7 11.8 1.8 2.5 1.5 4.8 2.5 5.1 2.3.2-.3-.3-4.2-1.1-8.7-.9-4.6-1.5-8.7-1.3-9.2.2-.4 2 .6 4.1 2.4 3.2 2.7 4.1 4.3 5.3 9.7.9 3.6 2.8 8.5 4.4 11 1.8 2.9 3.5 7.6 4.6 13.3 1.5 7.8 2.2 9.4 6.5 14.8 2.7 3.3 4.9 6.4 4.9 6.9s1.4 1 3.2 1.2c2.7.3 3.3.9 4.5 4.4.9 2.8 2.6 5 5.1 6.8 2.1 1.4 4.6 4 5.6 5.7 1.4 2.4 2.3 2.9 4 2.4 1.1-.3 3.8-.9 5.9-1.2 4.8-.7 5.7-3.5 2.8-9.1-2.1-4.2-2.8-8.2-1.3-8.2 1.9 0 5 4.9 6.2 9.7 1.3 4.9 1.5 5.2 5.8 6.3 2.8.7 7.6.8 13 .4 7.2-.6 8.9-1.1 11.3-3.3 1.6-1.5 3.1-4.1 3.4-6.2.7-3.6.6-3.6-3.7-4.7-2.4-.6-5.4-1.3-6.7-1.4-2.8-.3-4.2-2.8-1.6-2.8 1.4 0 1.6-.6 1.2-3-.6-2.9-.5-3 2.8-3 3.1 0 3.5.3 3.5 2.5s.4 2.5 3.9 2.5c3.3 0 9.7-1.5 11-2.6.2-.2-.3-1.2-1.3-2.3-1.6-1.8-1.6-1.8 2.7-1.4l4.4.5 1-3.8c.6-2.9 1.5-4 3.3-4.4 1.6-.4 2.9-1.7 3.5-3.5.5-1.6 2.4-4.2 4.1-5.7 1.7-1.5 3.5-4.3 3.9-6 .6-3.1.7-3.2 1.5-1.1.7 1.6.3 4-1.4 8.5l-2.4 6.3 4.3 6c2.4 3.3 6.6 7.8 9.4 10 3.7 2.9 8.8 9.7 19.6 25.9l14.6 21.8 1.5 9.7c1.6 10.9 3.6 17.1 6.4 19.6 1.8 1.7 1.9 1.6 2.6-.9.3-1.5.8-2.6.9-2.4.2.2.9 5.9 1.6 12.7 1 10.2 1.4 12.1 2.4 10.7 1.5-1.9 1.6-1.3 3.5 14.4 1 7.8 2.1 11.3 6.1 20.1 4.8 10.3 4.9 10.7 3.9 15.8-.5 3-1 8.6-1 12.5 0 6.7-1 9.6-3.2 9.6-.4 0-.8-1.5-.8-3.3v-3.2l-2 2.5c-1.1 1.4-2.7 4.7-3.6 7.3-1.5 4.6-1.5 5.1.6 10.6 1.8 5 2.1 7 1.5 13.7l-.7 7.9 3.6 1.7c3.5 1.7 3.6 1.7 3.6-.3 0-1.6.4-1.9 2.3-1.4 1.2.4 2.9.9 3.8 1.1 1.3.4 2.1-1.1 3.8-6.5 2.6-8.6 2.6-12.2.1-19.7-2-5.8-2-8.4 0-8.4.6 0 .8 1 .4 2.3-.4 2 0 2.6 2.4 3.6 2.5 1.1 3.5 1 6.2-.4l3.3-1.7-.6 4c-.4 2.1-1.9 6.1-3.4 8.8-2.4 4.1-2.8 6-2.7 11.7.1 5-.2 6.7-1.2 6.7-.8 0-2.1 1.7-3 3.8-3.2 7.7-3.2 7.9 5.6 19.1l8.1 10.5-.6 6.5c-.3 3.6-.8 9.1-1.1 12.1-.5 5.5-.5 5.6 4.8 12.1 2.9 3.5 6.1 8.3 7.1 10.5 1.5 3.2 3 4.6 7.2 6.7 4.8 2.3 5.5 3.1 6.5 6.9 1.4 5.4 10.2 24.8 14 30.8 1.6 2.5 4.5 6.1 6.4 7.9l3.6 3.5v-3.8c0-2.4-1.2-6-3.4-9.9-4.9-9-8.3-19.1-9-27.7-.8-8.5-4.5-20.7-8.8-29.4-1.9-3.8-2.8-6.8-2.5-8.5.3-1.4 1-5.2 1.6-8.3 1-4.8.9-6.5-.4-10.3-2.3-6.9-2-7.9 2.9-10.3 3.7-1.7 4.7-2.9 5.7-6.2 1.1-3.7 1.5-4 5-4 3.3 0 4.1-.5 7.4-5.1l3.6-5 4.7 3.5c4.4 3.2 4.7 3.8 5.2 8.8l.5 5.3 9.4.3c5.2.1 10.1.8 10.8 1.4.7.6 1.3 3.2 1.3 6.2.1 4.3.6 5.7 3.4 9l3.4 4 5.1-4.3c2.8-2.4 5.1-4.6 5.1-5 0-.4-.7-3-1.5-5.7s-2.7-11.4-4.1-19.4c-1.4-8-3.4-18.7-4.5-23.9-2.3-11.2-2.5-26.1-.5-38.1.8-4.7 1.7-12.2 2.1-16.7.6-7.9.5-8.7-4.4-23.8-2.8-8.6-5.1-15.8-5.1-16.1 0-.2 1.6-.4 3.4-.4 3.4 0 3.5-.1 2.6-2.8-.4-1.5-1.1-7-1.4-12.2-.2-5.3-1.6-13.7-3-19.1-1.4-5.3-2.8-13.4-3.2-18-.3-5-2-13.1-4-19.8-2.2-7.2-3.4-13.5-3.4-17.2 0-9.6-1.8-15.5-5.7-18.5-4.4-3.3-5.5-6.4-5.4-14l.2-6.1-6.1-5.6-6-5.6v-10.6c0-6.9-.5-11.5-1.3-13.3-2.4-4.6-4-14.9-3.3-20.6.3-2.9 1.8-7.4 3.2-10 2.5-4.5 2.6-4.8 1-8.6-.9-2.2-1.6-5.7-1.6-7.6 0-2.4-1.2-5.6-3.4-9.3-3.8-6.2-6.6-16.5-6.6-24.2 0-3.6-.7-6-2.6-8.8-2.2-3.4-2.5-4.7-2.3-11.7.2-5.5-.2-8.8-1.3-10.8l-1.5-2.8-1.2 4.3c-.8 2.6-2.5 5.4-4.2 6.7l-2.9 2.4v-2.4c0-2.8-6.4-9.8-9-9.8-1.1 0-4.6 3.1-8.1 7-5.6 6.3-6.7 7-10 7-3.4 0-4-.5-8.8-7.5-2.9-4.1-5.6-7.5-6.1-7.5-.6 0-2 2.1-3.4 4.8l-2.4 4.7 3.4 8.1c2.8 6.8 3.3 9.4 3.5 17 .1 7.9-.2 9.6-2.5 14.2-2 3.9-3.2 5.2-4.9 5.2-4.1.1-10.2 3.7-15.8 9.6-5.7 5.9-5.7 6-6.3 13.4-.7 7.1-.5 8.1 3.3 18.3 2.3 6 4.1 12.5 4.1 14.7 0 3.6-.3 4-2.5 4s-2.5.4-2.5 3.5c0 2.6-.4 3.3-1.4 2.9-1-.4-2.3 1-4 4.4-2.6 5.2-2.6 5.2-12 6.8-2.6.4-5 1.8-6.7 3.7l-2.7 2.9-1.5-2.9c-.9-1.6-2.7-3.4-4-4-1.6-.7-3-2.6-3.7-5-.7-2.1-2.1-5-3.1-6.4-1-1.5-2.3-6.3-3-11.5-1.1-7.4-1.8-9.6-4.5-12.9-1.7-2.2-4.3-6.3-5.8-9.1l-2.8-5.2-4 1.6c-3.1 1.2-4.5 2.6-5.8 5.5l-1.7 3.8 3.8 9.7c2 5.3 4.1 10.9 4.4 12.4.7 2.6.5 2.8-2.3 2.8-3.7 0-7-3.6-11.6-12.9-2.9-5.8-3.4-8.3-4.4-19.6-1-10.1-.9-13.7 0-16.2 1.1-2.9 1-3.5-.9-5.5-1.2-1.3-3.2-5.2-4.5-8.8-1.3-3.6-4.2-9.2-6.5-12.5-6.1-9.1-10.3-18-10.3-22 0-2.3.4-3.4 1.1-3 .6.4 2.1-.3 3.4-1.5 3.3-3.1 2.2-5.9-2.6-6.6-3.6-.6-3.9-.9-3.9-4 0-3.3.1-3.4 3.8-3.4 7.8 0 11.2-7.3 11.2-24.3 0-8.2.4-11.5 2-15.1l1.9-4.6h5.8c3.2 0 6.9-.3 8.2-.7 2.3-.6 2.4-.8 1.8-8.9l-.6-8.4 2.6-.6c1.5-.4 4.6-.2 7 .4 9.1 2.5 30.3.4 32.5-3.1.4-.7.8-4.4.8-8.3 0-5.6.4-7.4 1.9-8.8 1.8-1.6 1.9-1.5 3.6 2.6 2.3 6 4.2 7.8 8.2 7.8 3.2 0 3.3-.2 3.3-3.8 0-5.8 2.1-7.9 8-8.4l5-.3v3.8c0 3.4.4 4 3.5 5.3 4.7 1.9 4.9 1.9 7-2.4 2.4-4.9 3.5-14.6 2.2-19.8-.6-2.2-.7-4.9-.4-5.8.6-1.5.9-1.5 3.5-.2s3.1 1.3 5.1 0c2-1.5 2.1-1.8.7-3.9-2-3.1-1.1-3.4 9.5-2.7 13.4.8 15.5-1.4 16.9-17.2.7-8.3 1-9.2 3.8-11.7 3.8-3.4 5.7-7.1 6.7-12.8.4-2.4 2.2-8.9 4.1-14.4 3.8-11.4 4.5-21.3 1.9-28.7-.8-2.3-1.5-4.6-1.5-5 0-1.4 5.2-3 9.6-3 4.1 0 4.6.3 6.1 3.5l1.7 3.5h8.2c7.3 0 8.6-.3 11-2.4l2.8-2.3-2.2-5.1c-1.2-2.8-2.2-5.8-2.2-6.6 0-.9-1.5-3.3-3.4-5.4-1.9-2.1-3.8-5-4.1-6.5-.6-2.2-1.7-3-6-4.2-3.7-1.1-5.5-2.3-6.3-4-.9-2-1.9-2.5-4.6-2.5-1.9 0-6.4-.9-10-2-5.6-1.8-6.8-2.5-8-5.3-2.2-5.3-5.4-7.4-13.3-8.7-5.6-.9-8.5-.9-13 .1-3.2.6-14.3 1.3-24.8 1.4-20.3.3-25.3.9-26.2 3.2-.9 2.2-5.8 4.3-10.2 4.3-3.4 0-4-.3-5-3-1.2-3.6-3.6-3.9-6.8-.8-3.2 3-13.2 3.7-18.7 1.4-2.1-.9-5.6-1.6-7.7-1.6-2.9 0-5.7-1.2-10.9-4.5-7.4-4.8-10.4-5.4-13.6-3-1.4 1.1-5.1 1.4-15.5 1.5-13.4 0-13.6 0-18.4 3.1-7.8 4.9-26.1 6.4-35.2 2.8-1.5-.6-6-1-9.9-1-4.9.1-8.2-.3-10.7-1.5-3.3-1.6-3.7-1.6-6.1-.1-1.8 1.2-4.7 1.7-10.1 1.7-4.6 0-8.7.6-10.3 1.4-7.5 3.9-15.5 2.7-23.3-3.5-2.1-1.7-5.4-3.1-8-3.4-11.3-1.6-30.7-5.9-33.4-7.5-1.6-1-4.8-2.3-7-3-2.2-.7-6.4-2.6-9.4-4.3-6.1-3.4-11.2-3.7-16.4-1-3 1.5-3.2 1.5-5.3-1-3.4-4-3.8-9.1-1.5-20.4 1.2-5.6 2.1-11.2 2.1-12.5 0-1.2.9-5.9 2-10.3 1.2-4.7 2-11.4 2-16.2 0-8.1-.1-8.4-3.5-12.2-2.8-3-3.5-4.7-3.5-7.8 0-2.1-.7-4.8-1.5-5.9-2.9-3.8-.9-12.5 4.4-19.2 1.5-2.1 3.6-5.2 4.6-7.1 1.6-3.2 1.6-3.3 0-2.7-4.8 1.8-6.5 1.8-6.5 0 0-.9.7-2.5 1.6-3.5 2.3-2.5 1.1-5.3-2-4.5-2 .5-2.9-.2-6-4.7-2.7-4-3.6-6.2-3.5-8.8.2-2.1-.8-5.4-2.4-8.7-2.3-4.4-3.2-5.2-5.5-5.2-3.5 0-5.2-1.6-5.2-5-.1-3.5-3.3-7-6.4-7-2.4 0-2.6.3-2.6 4.4 0 4-.3 4.5-3 5.5-1.6.5-3 1.5-3 2.1 0 2.3 2.2 5.1 4.8 6.1l2.7 1.1-4.4 1.7c-3.3 1.4-4 1.9-2.7 2.4 1 .4 2.6.7 3.6.7 1.4 0 3 1.8 3 3.5 0 .1-1.3.8-2.9 1.5-3.1 1.3-4.9 4.5-5.3 9.9-.4 4.4-3.6 5.8-7 3.1-1.3-1-4.6-2.1-7.3-2.5-8.6-1.1-9.5-1.5-11.5-4.7l-1.9-3.1-2.1 3.6c-3.2 5.4-6.6 5.1-10.4-.8-1.5-2.5-3.7-5-4.7-5.6-1.1-.5-3-2.7-4.3-4.7-2-3.1-3.6-4.1-10.4-6.6-7.6-2.6-8.2-3-8.6-6-2.3-14.7-2.7-16.1-5.1-18.6-1.6-1.6-2.5-3.8-2.5-5.7 0-2.7.4-3.2 3-3.8 1.7-.4 3-1 3-1.3 0-.4-1.8-1.8-4-3.2-2.5-1.5-4.4-3.7-5-5.6-.8-2.4-2.1-3.5-5.6-4.9-2.5-.9-5-2.6-5.7-3.6-.7-1.2-2.3-1.9-4.2-1.9-2.5 0-3.5.8-5.5 4.1-2.8 4.5-2.8 6.4.3 9.6 1.4 1.6 3.2 2.3 5.8 2.3 3.6 0 3.8.2 4.4 4 .4 2.6 1.3 4.1 2.6 4.5 1 .4 1.9 1.5 1.9 2.5 0 1.1 1.1 2.7 2.5 3.6 1.4.9 2.3 2 2 2.4-.9 1.4-7.8 1.9-12.6.9-3.9-.8-5.2-1.7-6.8-4.5-2.1-3.6-4.6-4.3-8.2-2.4-1.2.7-1.9 2.1-1.9 4 0 1.7-.2 3-.4 3-.1 0-1.7-.5-3.3-1.1-2.2-.7-3.2-1.8-3.7-3.9-.3-1.6-1.7-3.7-3.1-4.6-2.5-1.6-2.9-1.6-9.8.8-4 1.5-8 2.9-8.9 3.3-1.4.6-1.8.2-1.8-1.6.1-1.7 1.7-3.6 5.5-6.4 3-2.2 5.5-4.4 5.5-4.8 0-.4-1.6-1.7-3.5-2.8-4.3-2.5-5.8-5-5-8.2.6-2.1.1-2.6-3.9-4.1-2.5-1-5.6-3-6.9-4.5-1.3-1.6-4.1-3.4-6.3-4.1-4.9-1.6-11.9-6.8-13.3-9.8-.7-1.5-1.9-2.2-4-2.2-3.7 0-5.1-2.2-6.5-10.7L206.5.1l-4.2 6.4z"/><path d="M547.2 675c-1.8.4-3.4.9-3.6 1.1-.2.2-1.9 5.2-3.9 11.1l-3.5 10.6 2.3 3.4c2.5 3.6 8 7.8 13.2 9.8 3 1.1 3.3 1.8 5.1 9.8 3.9 17 4.4 21 4 32.4l-.4 11.3-4.3 6.1c-4 5.7-4.3 6.7-5.1 15-.4 5.3-1.6 10.8-2.9 13.7-1.1 2.7-2.1 5.1-2.1 5.4 0 1.1 4.7-1.1 7.4-3.6 3-2.7 2.9-2.2-1.1 4.1L550 809l2.8 1.4c2.8 1.5 3 1.4 7.5-3.2 2.7-2.7 4.7-5.7 4.7-6.9 0-1.7.9-2.5 3.9-3.3 2.1-.5 5.7-2.7 8-4.8 4-3.5 4.4-4.3 7.7-17.2 3.5-13.7 5.2-24.1 6-38.5l.5-8-6.5-9.4c-4.3-6.2-6.6-10.5-6.6-12.3 0-2.1-.5-2.8-1.9-2.8-1.2 0-2.1-.9-2.5-2.5-.5-2-1.3-2.5-3.6-2.5-3.6 0-6-3.9-6-10 0-3-.9-5.4-3-8.6-4.4-6.4-6.4-7.2-13.8-5.4zM679 701.1c0 1.4-.9 5.2-2.1 8.5-2.4 7-2.1 12.9 1 17.3 1.2 1.7 2.9 5.3 3.7 8 2 6.8 8.8 12.6 13.4 11.6 5.7-1.2 8.3-8.8 5.7-16.3-2.3-6.6-10.6-19.7-16.4-26.1-4.8-5.2-5.2-5.4-5.3-3zM622.9 724.2c0 3.5-.4 15.7-.8 27.3-.7 19.6-1 21.6-3.7 29.2-1.6 4.5-2.6 8.4-2.3 8.8 1.6 1.5 5.7-1 8.2-5 1.9-3 4-4.8 7-6 9.7-3.8 12.3-10 8.8-20.7-1.1-3.5-2.9-9.5-4.1-13.5-1.3-4.7-3.6-9.2-6.5-13.2-3.3-4.5-4.5-7-4.5-9.6 0-1.9-.4-3.5-1-3.5s-1 2.8-1.1 6.2zM638.5 730.7c.3 1.6.9 4.3 1.2 6 .6 4.1 1.4 4.1 3.6.4 2.3-4 .7-9.1-3-9.1-2.3 0-2.5.3-1.8 2.7z"/><path d="M543.3 782.9c-2.9 1.4-6 3.6-6.9 4.9-.8 1.2-3.3 3.1-5.5 4.3-2.8 1.4-3.9 2.5-3.5 3.5.3.9.6 2 .6 2.6 0 .6 1.3.8 3.5.4 4.3-.8 4.6.6.9 4.5-3.3 3.4-2.6 5.9 1.5 5.9 3.9 0 5.9-3.7 7.2-12.7.5-3.5 1.5-7.6 2.3-9.1l1.4-2.7 1.5 3.5 1.4 3.5.8-4.7c.4-2.6.5-5.1.4-5.6-.2-.6-2.8.2-5.6 1.7zM509.3 802.1c-1.6.6-2.4 2.2-3.3 6.6-.6 3.2-2.2 8.1-3.5 10.8-2 4.5-2.2 5.7-1.3 10.8 1 5.6 1.1 5.8 2.9 4.1 1-.9 1.9-2.4 1.9-3.3 0-.9 1.6-4.9 3.5-9 2.9-5.9 3.5-8.4 3.5-13.6 0-3.5-.3-6.6-.7-6.8-.5-.3-1.8-.1-3 .4zM518.8 802.2l-3.7 1 2.1 4.3 2.1 4.3-2.7 3.3c-3 3.6-3.3 8.5-.4 10.2 1.2.8 2.4.5 5.2-1.7 7-5.3 8.4-11.9 4-18.6-1.5-2.2-2.7-4-2.8-3.9 0 .1-1.8.5-3.8 1.1z"/></svg>
