<svg version="1.0" xmlns="http://www.w3.org/2000/svg" width="1365.333" height="1365.333" viewBox="0 0 1024 1024"><path d="M589.5 93.5c-.5.2-2.9.9-5.3 1.5-3.8 1-4.8 1.9-8.7 7.8-2.7 4.2-5.9 7.6-8.4 9.2-5.1 3.1-9.5 9.1-8.7 11.8 1.1 3.5-1.5 4.4-8.1 2.9-3.2-.8-7.3-2.2-9-3.1-5.2-2.6-9-2.1-10.8 1.4l-1.6 3.1-2.4-3c-3.3-3.8-3.2-8.4 0-12.7 2.5-3.3 3-5.8 1.9-8.8-1.3-3.4-11.9-1.5-21.2 3.8-3.1 1.8-8.3 3.8-11.5 4.5-4.6 1-5.7 1.6-5.3 2.9 1.8 6 1.7 7.2-.3 10.1-1.2 1.6-2.1 3.2-2.1 3.6 0 .3 1.8 2.7 3.9 5.3 3.7 4.5 7.1 12.1 7.1 16.1 0 1-1.1 2.4-2.5 3.1-3.1 1.7-15.8-.2-19.5-2.9-1.4-1-4.4-2.8-6.7-4-4.1-2-4.4-2-10.9-.5-8.8 2-14.3 5.8-14.4 9.9 0 1.6-1.3 5.2-2.8 7.9-2.2 4-5.2 6.8-16 14.7-7.2 5.3-15.1 11.4-17.5 13.5-3.3 3.1-6.1 4.4-12.7 6.3-8 2.2-8.9 2.8-15.5 9.2-7 6.9-7.1 6.9-12.6 6.9-4.3 0-6 .5-7.4 2-2.3 2.6-2.9 2.5-7-.6-3.2-2.4-3.8-2.5-9-1.7-5.3 1-5.7.9-9.6-2l-4-3 .3-7.3.3-7.4-7.5-2.4c-4.1-1.3-9.1-2.6-11.1-2.9-1.9-.3-6.4-2.3-9.8-4.6-3.7-2.4-8.5-4.5-11.9-5.2-3.1-.6-7.2-2.2-9-3.4l-3.4-2.3-9.6 4.6c-5.3 2.5-10.1 5-10.5 5.6-.4.6-.5 3.6-.2 6.6.3 3 .2 6-.3 6.6-1.4 2.1-10.9 2.5-19.9.8-8.2-1.5-9-1.9-12.3-5.7-5.1-5.8-5.9-7.7-6-12.9 0-2.6-.7-6.3-1.6-8.2-1.5-3.1-1.5-4.1-.3-9.3 1.5-6.3 1.4-17.3-.2-17.3-.5 0-4.4 2-8.7 4.5-5.2 3-10.9 5.2-17.7 6.9-5.5 1.4-12.8 3.6-16.2 5-3.5 1.3-11.1 3.2-17 4.1-6 .9-11.7 2-12.8 2.5-1.2.4-10.8 7.2-21.5 15.1-14.2 10.5-30.2 20.8-59 38-21.7 13-45.2 26.7-52.2 30.3L0 257.1v5.6c0 3.1 1.2 12.1 2.7 19.9l2.7 14.3 4.3.7c4.1.6 4.5 1 8.8 8 2.5 4.1 4.5 7.8 4.5 8.2 0 .4-2.3 3-5.1 5.7l-5.1 5 .5 12.6c.5 11 .3 13.1-1.4 16.9l-2 4.3 3 3.1c1.7 1.8 3.5 5.2 4.2 7.9.6 2.6 1.5 4.9 1.9 5.2.4.3 4-.7 8-2.2l7.3-2.7 3.3 3.8c1.8 2 4.4 6.5 5.9 10 2.1 4.9 3.3 6.5 5.7 7.4 2.8 1 3 1.3 2.3 5.1l-.7 4 4.1.7c4 .6 4.1.8 4.1 4.5s.1 3.8 5.2 5.3c2.9.8 7.5 2 10.2 2.7 3.2.8 6.9 2.9 10.8 6.1 3.3 2.8 6.1 4.8 6.2 4.6 2.4-2.9 7.6-14.4 8.1-17.9l.7-4.5 10-1.7c5.6-1 12.8-3.1 16.4-4.7 4.5-2 7.4-2.8 9.4-2.3 2.2.4 4.5-.4 9.6-3.2l6.8-3.8 3.1 3.6c1.8 2 5.8 9 9 15.5l5.9 11.9 5.5 1.4c7.1 1.8 7.3 2.7 6.5 24.1-.7 16.7-.7 16.8 1.8 20.5 3.9 6 5.8 12.9 5.8 21.3v7.6l11.4 10.7 11.4 10.7h5.2c6.1 0 12.7-3.1 21.7-10.1 7.7-6 10-6.3 10.9-1.3.4 2 .2 5.6-.3 8-.6 2.4-.8 4.6-.5 4.9.3.3 4.7.5 9.8.5 11.4 0 21.5 3.2 28.5 9.1 4 3.3 4.8 4.6 5.8 9.5 1.5 7.9 1.4 20.8-.4 27.4-2.5 9.2-2 14.6 1.6 19.1 1.7 2.2 3.7 5.9 4.4 8.2.7 2.3 1.9 4.3 2.8 4.5 2.5.5 8.6-5.7 11.8-12l2.9-5.8H343.7l4.6 3.6 4.7 3.7 10.4-.5c7.4-.4 11.6-1.2 15.1-2.7 2.7-1.2 6.8-2.1 9.5-2.1 4.2 0 4.9.3 5.9 2.7.7 1.6 3.4 4.3 6.2 6.2 7 4.8 11.6 10.5 13.6 16.9 1.4 4.4 2.5 5.9 5.6 7.9 6.5 4.1 6.7 4 6.7-1 0-2.5.4-4.8.8-5.1.4-.3 2.6-.1 4.8.4 2.7.6 5 2.2 7.6 5.2 2.1 2.4 3.7 4.5 3.7 4.8 0 .3-4.2 3.7-9.3 7.7l-9.3 7.2-.6 10c-.5 9.4-.8 10.6-4.6 17.7-2.3 4.2-4 7.8-3.9 7.9 5 3.4 8.2 4.5 12.6 4.5h5.1l1.2 5.8c.8 4 2.2 6.7 4.5 9.2 2.2 2.3 3.5 4.9 4 7.7l.6 4.2-5.8.3c-5.8.3-5.8.3-6.7 3.9-.7 3-1.6 3.9-6.3 6.2-5.2 2.6-5.4 2.8-5.4 6.7 0 3 .7 4.8 3.2 7.6 2.6 2.9 2.9 3.8 1.7 4.5-4.3 2.6-4.2 2.5-2.4 5.7 1.6 2.7 2.3 3 8.7 3.4 5.9.5 7.4 1 9.9 3.4 2.9 2.8 3 2.8 8.7 1.6 10-2.1 18.2-1.6 22.4 1.3 6.9 4.7 16.6 7.6 27 8.2l9.7.6 6.3-4c8.9-5.7 13.3-7.8 21.3-10.4 3.9-1.2 9.3-3.7 12.2-5.5 2.8-1.8 6.8-3.6 8.7-4 3.1-.5 3.7-1.1 4.6-4.5.5-2.1 1.5-5.7 2-7.9.6-2.2 1.9-5.5 3-7.3 1.6-2.8 1.7-4 .8-9.5-1.2-7.8-.1-9.8 8.2-15 5-3.2 6-4.4 7.6-8.8 1.5-4.6 2.3-5.4 7-7.7 4.2-2.1 5.8-3.6 7.7-7.2l2.3-4.6 4.4 3.5c4.1 3.2 5.1 3.6 10.8 3.6h6.4l-3.5 6.2-3.4 6.3 1.8 4.5c1 2.5 1.8 4.8 1.8 5.2.1.4-1.9 1.3-4.4 1.9l-4.5 1.1v6.2c0 3.7-.8 8.2-2 11.4-1.4 3.7-2 7.6-2 13.4v8.1l-4.6 5.3c-3.9 4.6-4.5 5.9-4.2 9.1.3 3.7.4 3.8 7 5.8 9.7 2.9 12.7 6.6 12.8 15.6 0 10.9-.7 12.8-5.6 15.2-5.7 2.7-5.6 4.7.2 10.6 4.1 4.1 4.7 5.2 5.1 10.1.5 4.7.2 5.8-1.6 7.4-1.3 1.2-2.1 3.1-2.1 5.1v3.3l8.8.6c7.1.6 9.9.3 15.4-1.3l6.6-1.9 5.2 3.5c2.8 1.9 7.6 4.3 10.5 5.3 3 1 7.3 3 9.7 4.3 2.4 1.4 5.9 2.8 7.9 3.1 3.3.6 3.9 1.2 6.2 6.4 1.4 3.1 3 6.9 3.6 8.4.9 2.3 1.7 2.8 4.3 2.8 3.1 0 3.5.4 5.3 5.2l2.1 5.3 7.3 1.4c6.9 1.3 7.7 1.3 13.5-.8 3.3-1.2 6.4-2.1 6.8-2.1 1 0 11.8 13.5 11.8 14.7 0 .5-1.1 2-2.5 3.3-2.6 2.4-2.7 3.8-.9 10.1.7 2.6 8 2.9 13.1.7l4.2-1.8 5.8 3.7c3.2 2.1 7.7 4.7 10.1 5.7 4 1.8 4.2 2.1 4.2 6.1 0 5.9 2.9 18.6 4.8 20.7 1.1 1.3 1.3 3 .9 6.2-.6 3.9-.4 4.7 1.5 6.1 3.8 2.6 9.8 1.8 19.1-2.5 4.7-2.2 9.2-4 10-4 .8 0 2.7 2 4.1 4.5 2 3.3 3.3 4.5 5.1 4.5 2.1 0 2.5-.7 4-7.1 1.3-5.8 3.5-12 5-13.7.7-.8 13.4 5.9 15.4 8.2 2 2.1 3.3 2.6 7.2 2.6h4.8l1.1-4.3c.6-2.3 1.3-4.8 1.5-5.5.3-.7 2.1-1.2 4.4-1.2 3.6 0 4.1.3 5.3 3.5 1.2 3.4 1.5 3.6 5.2 3.3 3.2-.2 4.5-1.1 7.7-4.9 3.7-4.3 4-5 5.4-16.3 1.8-13.6 5.5-22.9 9.3-23.4 1.9-.3 1.3-1.1-4.3-5.9-7-6-6.7-5-4.3-14.6 1.8-7.3-1.1-11.6-7.8-11.7-1.7 0-2.4-1.1-3.8-6.3-1-3.7-2.9-7.4-4.6-9.2-1.6-1.7-3.6-5.5-4.5-9-1-3.3-1.9-6.3-2.2-6.7-.2-.4-2.6.3-5.3 1.7-2.7 1.4-5.2 2.5-5.5 2.5-.9 0-.5-16.1.5-23.5.8-5.6 1.5-7.4 3.5-8.8 1.4-1 2.5-2.2 2.5-2.6 0-.5-2.4-2.4-5.4-4.4l-5.3-3.5.7-4.4c1.1-6.4 6.4-17.3 10.2-20.7 1.8-1.7 5.6-4 8.4-5.1 3.7-1.5 5.7-3.1 7-5.5 1.8-3.3 1.8-3.5-.5-8.4-3-6.2-2.3-8.9 2.9-12.1l4-2.5v-7c0-6.1.4-7.6 2.6-10.6 1.4-1.9 3.6-5.6 4.9-8.2 1.6-3.5 4.8-6.9 11.1-12.3 11.5-9.8 12-10.4 12.8-16.3.6-4.2 1.2-5.4 4.5-8 6-4.8 9.2-4.1 11 2.4 1.9 6.6 3.4 8 7.8 6.9 3.3-.8 3.8-1.4 4.8-5.4.9-3.8 1.5-4.5 3.7-4.8 2.6-.3 2.7-.1 3.9 7.1.9 5.2 2 8.4 3.8 10.6l2.6 3.2 3.4-5.7 3.3-5.6-2.1-3.9-2.2-3.8 2.8-.7c4.9-1 5.2-1.2 7.8-5.3 3.2-5.2 3.2-6.1-.5-9.6-2.1-2-3-3.8-3-5.9 0-2.7.7-3.4 5.3-5.9 4-2.1 5.6-3.6 6.9-6.7l1.6-3.9 6.8-.3 6.8-.3 3.2-11.5 3.1-11.5 5.9.1c3.3.1 8.6.5 11.9.9 5.9.7 6 .7 8.3-2.4 2.2-3 2.3-3.5 1.1-8.7-1.2-5.4-1.4-5.6-8-9.4l-6.7-4 .5-4.2c.4-2.4 2.8-9.4 5.5-15.6 2.7-6.1 4.7-11.6 4.4-12-.2-.4-2.7-1.8-5.5-3.1-4.9-2.4-4.9-2.4-6.8-10l-1.9-7.6-6.4-1.2c-9.6-1.8-13.8-1.6-17.7.8l-3.5 2.2-6-6-6-6 1.5-5.1c.8-2.8 1.2-5.4.9-5.7-.3-.3-1.8-.5-3.4-.5-1.8 0-2.8-.5-2.8-1.5 0-3.5 2.9-6.8 10.6-11.9 6.3-4.2 9.2-6.9 11.9-11.2 2-3.1 3.5-5.8 3.3-5.9-.5-.5-12-3.3-16.6-4-3.6-.6-4.7-.4-6.6 1.4l-2.3 2.2-.7-7c-.6-6.4-1.2-7.9-7.4-17.8-6.4-10.3-7-10.9-13.2-14-5.6-2.8-7.2-3.2-11.6-2.7l-5.1.6-2.2-5.1c-1.5-3.5-2.8-5.2-4.4-5.5-13.3-2.9-23.3-4.5-25.1-4-1.6.4-2.5-.2-3.9-2.6l-1.8-3.1-3.9 3.1-3.8 3-5.8-2c-5.7-2-5.9-2-7.7-.2-1.8 1.9-2 1.9-7-.9l-5.2-2.8-4.5 4.3c-3.3 3.3-5.7 4.7-9.3 5.4-4.6.9-4.8.9-6.2-1.8-1.3-2.5-1.3-3.4.1-7.4l1.6-4.6-3.3-5.3c-1.9-2.8-5.7-7.4-8.6-10.1-5.2-4.7-5.3-4.9-5.3-10.5 0-3.2.7-7.8 1.6-10.3 1.5-4.5 1.6-4.6 6.9-5.3 5.9-.7 5.9-.7 6.9-8.5l.7-4.5 3.9.3 3.9.4.7-5.1c.6-4.5 1.1-5.4 4.3-7.3 2-1.2 3.7-2.2 3.9-2.3.2-.2-.5-2.1-1.4-4.5-1.6-4-1.9-4.1-5-3.6-2.7.6-3.4.3-3.9-1.5-.4-1.2-.3-2.4.3-2.8 10.4-6.5 11-7.3 12.2-13.8 1-6 .9-6.5-1.4-10l-2.6-3.7 2.4-3c1.3-1.7 3.8-3.8 5.7-4.7 3.2-1.6 3.4-2 3.9-8l.5-6.4 4.3-.9c4.8-1 5.2-2.3 1.7-5.6-3.2-3-3.4-9.1-.5-13.5 1.1-1.7 2-4.4 2-6.1v-3.2l-7-.7-7.1-.7-3.4-5.4c-4-6.3-4.9-6.5-15-3.3-8.2 2.5-10.7 2-16-3-2.5-2.5-5.4-4.1-7.7-4.5-5.4-1-14.8-5.5-14.8-7.2 0-3.5-7.3-23.4-9.7-26.7-4-5.1-8.4-5.7-15.4-2.1-9.7 4.9-15.6 6.4-24.9 6.4h-8.8l-3.6 4-3.6 4-5.5-2.5c-5.2-2.3-5.8-2.3-9.6-1-3.6 1.3-7.7 1.2-10.1-.2-.4-.2.6-4 2.2-8.4l2.9-7.9-2.7-1.4c-1.5-.7-7.3-1.7-13-2.1-12.1-.8-13.2-1.7-13.2-10.3 0-5.3-.1-5.5-6.5-12.1-6.3-6.5-6.5-6.9-6.5-11.9 0-3.3 1-7.5 2.6-11.5l2.6-6.3-2.3-4.9c-1.9-3.9-4-6-10.1-10.2l-7.7-5.4-1.4 2.8c-.8 1.5-1.8 5.1-2.1 7.9-.9 6-4 10.3-14.5 19.6-7.3 6.5-7.4 6.5-11.2 5.5-2.8-.7-4.5-1.9-6-4.3-1.1-1.9-2.2-3.4-2.3-3.4-.1 0-4.7 1.5-10.2 3.4-9.8 3.3-10.1 3.3-13.3 1.6-3.2-1.6-6-5.1-6.1-7.6 0-.5 1.3-2 3-3.2l3-2.2 4 2.5c2.2 1.4 4.4 2.5 4.8 2.5.9 0 2.2-11.7 2.2-19.7 0-6.2-2.4-10-6.9-10.8-2-.3-4.3-.8-5.1-1-.8-.2-1.9-.2-2.5 0z"/></svg>
