<svg version="1.0" xmlns="http://www.w3.org/2000/svg" width="1365.333" height="1365.333" viewBox="0 0 1024 1024"><path d="m614.1 162.4-21.4 18.2-14.1 2.8-14.1 2.7-24.7 16.6-24.8 16.7-12.7-2.7c-15.3-3.2-15.2-3.2-21.3-.6l-4.8 2.1-.7 14.8c-1.1 22.6-.3 20.9-11.7 24.2l-9.6 2.8-18.8-8.4c-10.4-4.6-20.6-9-22.8-9.7l-3.9-1.4-9.2 9.7-9.2 9.8-13.4 5c-7.4 2.8-13.7 5.4-14.1 5.8-.4.4-1.4 2.4-2.3 4.4L359 279l3 1.2 3.1 1.3-4.5 5.1c-4.5 5.1-4.5 5.2-5.2 14.5-.4 6.8-.2 11.2.9 15.7 1.2 4.7 1.3 6.4.4 6.7-10.1 3.7-9.8 3.6-13.5 1.5l-3.5-2.1-2.8 2.7c-3.3 3.1-3.2 3.2-5.2-1.7-1.5-3.6-1.7-3.7-11.4-5.9-5.4-1.2-10.7-2.4-11.7-2.7-1.8-.5-1.9 0-1.2 10.8.3 6.3.9 18.9 1.3 28.1l.6 16.7-2.4.5c-1.3.3-7.5 1.1-13.6 1.7-12.1 1.2-11.5.9-12.7 7.9-.3 2-1.5 4.1-2.7 4.8-4 2.5-10.6-.9-24.6-12.8-11.9-10.1-13.2-10.9-18.8-12-17.5-3.2-16.6-2.9-16.3-5.8.2-2.1.9-2.8 3-3 1.6-.2 2.8-.8 2.8-1.3 0-1.2-9.2-11.9-10.1-11.9-.4 0-1 2-1.3 4.5-.7 4.3-.8 4.5-5.8 6-2.9.8-5.8 1.5-6.5 1.5-.7 0-2.6 2.6-4.1 5.7-2.4 5.1-3.5 6.2-10.7 10.5-7.7 4.6-8 4.9-8.5 9l-.5 4.3-6 1.3c-3.2.7-6.1 1.5-6.3 1.7-.2.2 1 3.5 2.7 7.3 1.8 4 3.1 8.8 3.1 11 0 3.7.4 4.4 5 7.7 2.7 2 5 4.1 5 4.7 0 .6-1 7.1-2.1 14.4l-2.1 13.3-5.6.7c-4.3.5-6.2.3-8.7-1-2.2-1.2-4.9-1.6-9.5-1.4l-6.5.3-.7 5.2-.8 5.1 7.2 7 7.1 6.9-5.2 9.4-5.3 9.4 3 5.5c2.7 5 3.2 8 1.3 8-.3 0-1.5-1.6-2.5-3.5-2.1-3.8-2.3-3.9-5.9-2.6-1.9.7-2.7 2-3.2 5-.7 4.1-1.7 4.9-4.5 3.2-2.3-1.5-6.4 5.3-7 11.9l-.5 5.5-4 .5c-5.5.8-6.5 1.6-6.5 5.6 0 1.9-.5 3.4-1 3.4-.6 0-3.3 2-5.9 4.5-4.7 4.4-5 4.5-11.2 4.5-3.5 0-14.7.9-24.8 2l-18.5 1.9-6.7 6.7-6.8 6.7-9.8 1.6c-8.5 1.4-9.8 1.9-10.1 3.7-.2 1.7 1.1 2.7 7.8 5.8l8.1 3.7-.6 8.8-.7 8.8 4.1 2.4 4.1 2.3v7.9c0 7.6-.1 7.9-3.4 11-3.3 3.2-3.4 3.4-4.1 14.3-.4 6.1-1.1 11.7-1.5 12.5-.5.7-2.4 1.9-4.2 2.5-2.2.7-4 2.4-5.5 5-1.3 2.3-4.9 5.9-8.4 8.5-3.4 2.4-7.4 6.3-8.9 8.7L7.2 664l3.1 12 3 12.1-2.2 2.3c-1.3 1.4-2.1 3.5-2.1 5.8 0 2-1.2 6.2-2.6 9.3-2.4 5.3-2.6 6.5-2 14 .6 7.8.5 8.3-2 10.6-3.2 3-3 4 4.8 20.1 4.2 8.7 6.8 13 8.2 13.5 1.2.4 6.1.6 11.1.6 7-.1 10.8.4 17.2 2.4 7.5 2.3 8.3 2.8 8.3 5 0 1.6-.7 2.7-2 3-1.1.3-2 .7-2 1 0 .2 3 4 6.7 8.3 4.2 4.9 7.6 7.9 8.8 8 1.9 0 6.5 5.7 6.5 8 0 .6-.9 2.8-2 5-2 3.8-2 3.9-.1 5.2 1.1.8 2.1 2.9 2.3 4.8.2 2.4.8 3.4 1.7 3.2.8-.2 5.4 1.2 10.4 3l8.9 3.3-.6 5.7-.6 5.6 4 .7c3.1.5 4.4 1.4 5.6 3.7 1.3 2.6 1.9 2.9 4.2 2.3 1.5-.4 5.5-.9 9-1.2 5.5-.4 6.3-.7 6.8-2.9.3-1.3.7-2.4.9-2.4 1.3 0 6.5 2.4 6.5 3 0 .4-.7 2.4-1.6 4.5-.8 2-1.4 3.8-1.2 3.9.2.2 5.4 2.4 11.6 5l11.3 4.7 2.8-2c4.5-3.2 5.2-4.5 6.4-12.8l1.2-7.8 5.3-.6c2.9-.4 5.5-.9 5.6-1 .2-.2 1.5-2.3 3-4.6 2.6-4.2 2.6-4.3 7.4-3.6 2.6.3 4.9.7 5 .9.2.1 4.7-1.8 10-4.3l9.7-4.5 8 1 7.9 1 3.1-3.2c2.4-2.6 4.5-3.6 10.2-4.9 7-1.6 7.3-1.6 10.7.4 3.1 1.8 4.5 2 12.3 1.4 8.1-.7 9.7-.5 19.3 2.4l10.4 3.1 2.7-2.6c3.7-3.5 5.9-2.8 8.9 2.9 2.3 4.3 2.8 4.7 6.1 4.7s3.7.3 4.3 3.1c.3 1.7.6 4.6.6 6.5 0 2.9.3 3.3 3.2 3.6 2.9.3 3.7 1.3 10.9 14.2 7.2 13 18.8 28.4 21.5 28.5.6.1 3.2-1.5 5.7-3.5 3.9-3.1 4.7-4.2 4.7-7s-.7-3.8-3.9-6l-3.9-2.6.5-5.4c.5-5 .3-5.7-2.2-8.4-2.7-2.8-2.7-3-1.5-8.2.9-3.7 2.2-6.1 4.3-7.9 3-2.5 3-2.6 1.7-7.2-.7-2.9-1-6.6-.6-9.4.4-3.4.2-5.1-.9-6.3-.8-.9-2.2-5.3-3-9.7-1.5-7.8-1.5-8.4.4-13.4 2.2-5.6 2-6.5-2.5-12.5-2-2.7-2.2-3.9-1.7-8.3.5-4.5 1-5.4 4-7.2 4.1-2.5 3.3-3.4-3.7-4.4-2.5-.3-5.2-1-5.9-1.4-.7-.5-2.1-6.5-3.4-14.5l-2.1-13.7 5.9-24.2c3.2-13.3 6.1-24.5 6.4-24.8.3-.4 8.8-.3 18.8.2 13.5.6 18.8 1.2 20.5 2.3 2 1.3 9.4 1.4 60.7.7 59.6-.8 59-.8 60.3-4.3.2-.4 3.3-1 7-1.4 6.3-.6 7.1-.5 11 2.1l4.2 2.8 30.7-.8c29.2-.6 30.8-.6 31.8 1.2.6 1 1.7 2.7 2.6 3.7 1.4 1.9 1.6 1.9 5.3-1.1 3.7-3 4.1-3.1 10.3-2.4 4.6.5 8.7 1.9 14.6 4.9 4.6 2.3 8.4 4.2 8.6 4.2.3 0 1.6-1.7 3.1-3.8 1.8-2.6 5.3-5.4 10.6-8.3 7.9-4.4 8-4.4 8-8.5 0-2.8.6-4.7 2-5.9 2-1.8 2.1-1.7 6.6 1.5l4.6 3.3 6.1-6.1 6.2-6 46.5 10.1c25.6 5.5 46.6 10.1 46.7 10.2.2.1.7 2.6 1.3 5.5.6 2.9 1.2 5.6 1.5 5.8.2.3 5-2.1 10.6-5.3l10.2-5.8 16.7.7 16.7.7 6.7-6.1 6.6-6 5.3 2.1c2.8 1.2 5.8 2.4 6.6 2.7 1 .4 1.2-.2.7-2.4-2-10.4-2.1-10 2-12.8 2.1-1.4 4.7-2.6 5.6-2.6 1.4 0 1.8-.8 1.8-3.5 0-2.9-.5-3.7-2.7-4.6l-2.7-1 2.5-2.5c2.3-2.3 2.8-2.4 7.8-1.4 7.8 1.5 7.9 1.4 9.3-3.7l1.4-4.8 2.3 3.8c1.2 2 2.6 3.7 3.1 3.7 1.4 0 2.2-3.9 1.5-7.8-.5-3.4-.2-4.2 5.2-10.3 5.7-6.5 5.9-6.6 12.7-7.8l6.8-1.2 7.5 6.7 7.4 6.7 5.7-1.6c3.1-.9 10.9-2.1 17.2-2.6 9.5-.8 11.8-.7 13.1.5 1 .9 3.8 1.4 7.8 1.4h6.3l19.2-15.9c20.7-17.1 20.6-17 20.6-26.3 0-2.3.6-2.9 4-3.9 3.8-1.1 4-1.4 4-5 0-2.1.7-5.7 1.6-8l1.7-4.1-19.2-28.4c-18.7-27.8-20.6-31.5-18.3-35 .4-.7 5.2-1.8 10.7-2.5 5.5-.7 10.2-1.4 10.4-1.5.2-.2-.9-2.3-2.4-4.6-2.5-3.7-2.8-4.9-2.6-11.9l.2-7.8-3.8-.6c-2.1-.4-4.4-.7-5.2-.8-.8-.1-2.4-3-3.5-6.4-1.2-3.4-2.4-6.5-2.8-6.8-.3-.4-3.9-1.5-7.9-2.5-8.5-2.2-6.2-3.2-19.7 9.2l-8.4 7.7-14.7-.6c-8-.3-15.3-.9-16.2-1.2-1-.3-14.3-11.7-29.8-25.4l-28-24.7-4.8 1.1c-4.6 1.2-4.7 1.2-7.6-2.2-5.8-6.8-5.6-5.9-4.1-23.9.7-9.1 1.5-17.3 1.6-18.3.3-1.4 1.7-.9 9.1 3.4l8.8 5.1 4.6-3c4.4-2.9 4.7-2.9 8-1.5 3.9 1.6 4.8 1.1 7.6-3.5l1.7-3-17.2-5.8c-9.5-3.1-17.4-5.8-17.6-5.9-.2-.2-1.1-3.5-2-7.4l-1.7-7.2-14.3-6.4c-13.8-6.2-14.7-6.5-22.3-6.5-7.9 0-7.9 0-7.9-2.6 0-2.7-9.3-16.7-19.8-29.6-4.7-5.9-5.9-8.4-9.2-18.7l-3.7-11.9 2.5-4.6c2.3-4.2 2.4-4.9 1.3-8.6-1.1-3.6-2-4.4-10.2-8.9l-9.1-4.9-5.4-10.1-5.4-10 4.9-13.7 4.9-13.6-1.9-7.9-1.9-7.9 2.2-3.7c1.2-2 1.8-3.8 1.3-4-.6-.3-14-5.1-30-10.7l-29-10.3-6.8 3.4c-6.8 3.4-6.9 3.4-11.5 1.9-2.6-.8-11.7-2.2-20.2-3.1-8.5-.8-17.1-1.7-19-1.9-3.3-.5-4.6.5-24.9 17.8z"/></svg>
