<svg version="1.0" xmlns="http://www.w3.org/2000/svg" width="1365.333" height="1365.333" viewBox="0 0 1024 1024"><path d="M69 178c0 5.7-.2 6.2-6.1 13.9-4.6 6-8.1 9.3-13.8 13.1-7.2 4.6-8.2 5-13.9 5h-6.1l-4.6 14.7c-2.6 8.2-6.2 19.7-8.1 25.8l-3.5 11 4.7 12.8 4.6 12.8 5.7 3.6c3.1 2 5.9 4 6.2 4.5.3.5 1.2 8.6 1.9 17.8l1.3 16.9 4.8 5.9c4.4 5.5 5.2 6.1 9.8 6.7 4.8.6 5.3 1 15.4 12.3 9 10.2 10.5 12.3 11.1 16.2.5 3.6 2.4 6.8 9.7 16.2 8.1 10.5 9.2 11.6 11.2 10.9 3-1.2 12.7 2.7 13.8 5.4 1.4 3.6.9 8.9-1 12.2-1.6 2.6-3.4 3.6-10.5 5.9l-8.6 2.8-2.2 5.8-2.3 5.8-5.6 1.1c-7.5 1.5-14.6 7.5-16.8 14.2-.9 2.5-3.6 7.1-6.1 10.1l-4.5 5.5-8.5.3c-12.6.3-14.3.3-16.5-.5-1.8-.6-2.6.3-6 7.3-3.8 7.8-3.9 8.1-2.8 13.5 1.1 4.8.8 7.9-2.7 28.6l-3.9 23.2 7 6.6 6.9 6.6-.6 10.2-.7 10.3-7.3 4.5c-7.1 4.4-7.4 4.8-9 10.4l-1.6 5.9-3.1-.9c-6-1.7-6.7-1.4-6.7 3.7 0 4.4.4 5.1 8.4 13.8 7.1 7.6 9.1 10.7 12.6 18.6 2.3 5.2 4.7 10 5.3 10.7.7.6 12.7 5.7 26.7 11.3 14 5.6 25.8 10.5 26.2 10.8.4.4 1 6.8 1.3 14.2.7 13.5.7 13.5 5.5 23.6 3.2 6.8 5.7 10.8 7.8 12.2 2.4 1.7 3.7 4.2 6.2 11.5l3.1 9.2-8.2 7.5-8.1 7.5.7 10.7c.7 9.8.5 11.2-1.5 16.1-2.2 5.3-2.2 5.6-.6 10.3 2.1 6.2 2 7.3-.9 17.3-1.4 4.7-2.5 9-2.5 9.7 0 .7 5.6 2.2 14.8 3.9 8.1 1.4 15.5 2.9 16.4 3.1 1.3.4 2.5-1 5-6.1 2.8-5.6 3.8-6.7 6.8-7.5 5.4-1.5 6.3-1.2 9.3 3 1.6 2.2 3.5 4 4.3 4 .8 0 7.4-1.8 14.7-4.1l13.2-4 25.2.2c21 .2 25.6 0 27-1.3 1-.8 5.7-3.1 10.5-5.2s9.4-4.7 10.4-5.7c.9-1 2-1.9 2.4-1.9.3 0 1.6 2.9 2.9 6.4l2.2 6.4 5.7 1.1c5.2 1 6.1.9 12.4-1.6 6-2.3 6.7-2.9 6.2-4.7-.4-1.2-1.3-4-2-6.3l-1.3-4.3 4.2-2.8 4.2-2.9 4.3 1.8c4.2 1.8 4.3 1.8 11.4-.8l7.1-2.7 4.1 4.5 4.1 4.5 4.6-.9c4-.9 5.3-.7 10.3 1.6l5.8 2.7 5.9-4.1c5.2-3.5 6.5-4 10.7-3.7l4.7.3 2.2 12c1.2 6.6 2.5 13 2.8 14.2.4 1.8 1.6 2.3 8.3 3.4 8 1.3 9.6 2.3 14.9 9.1 3.1 4.1 7.3 3 11.6-3.1 3-4.1 4.2-4.9 9.7-6.4l6.3-1.8 5.1 5c4.2 4.1 7.2 5.8 16.7 9.6l11.7 4.6 3.2 6.2c1.8 3.4 5.5 8.3 8.3 11l4.9 4.7h16.4c19.5 0 25.4-1.3 38.7-8.5l8.7-4.7 8.8.6c6.3.5 13 .1 24.2-1.4 20.4-2.6 19-2.8 19 2 0 2.2.1 4 .3 4 .1 0 9-2.4 19.7-5.4l19.5-5.3 1.7-6.8c1-3.8 2.9-8.6 4.4-10.8l2.6-4-3.1-7.1c-3-6.9-3.1-7.5-2.9-19.6.4-15.6-.1-17.2-5.2-19.5-3.6-1.6-4-2.2-4-5.4 0-2 .4-4.1.8-4.7.4-.6 6.1-2.9 12.8-5.1l12.1-4 10.6 4.2 10.6 4.3 1.5-2.3c.8-1.3 2-4.4 2.7-6.9.6-2.6 1.5-4.9 2-5.2.5-.3 5.7-1.7 11.6-3.2l10.6-2.7 3.4-7.9c2.7-6.4 3.3-9 3.3-15.1v-7.2l6.1-4.1 6.2-4 6.9 2.4 7 2.4 5.4-3.9 5.4-3.9 9.3 2.4c5 1.3 9.9 2.4 10.7 2.4.8 0 8-5.7 15.9-12.5 7.9-6.9 15.1-12.5 16-12.5.9 0 8.7-.7 17.4-1.5 18.9-1.7 19.7-1.5 22.6 6.1 1.1 2.9 4.7 9.3 7.9 14.1 5.9 8.7 6 8.8 12.8 11.2 3.8 1.3 10.4 4.3 14.6 6.7 4.2 2.4 8 4.4 8.3 4.4.3 0 .5-1.3.5-2.8 0-2.8.6-3.1 11.8-7.4l11.7-4.5 7 2.4 6.9 2.3 4.1-3.9 4-3.9 5.1 1.9c4.9 1.9 5.2 1.9 10.5.1 3.2-1.2 5.5-2.6 5.7-3.6.2-.9-1.5-3.7-3.7-6.4-8.6-9.8-12.1-15.5-12.1-19.2 0-3-.9-4.5-6-9.5-3.3-3.3-6-6.4-6-7.1 0-.6-2.9-3-6.4-5.4-3.6-2.4-6.7-5.2-6.9-6.1-.3-1-2.2-2.2-4.6-2.9-4-1.1-4.1-1.1-2.5-3.5.8-1.3 2.2-2.6 3-2.9.8-.3 1.4-1.2 1.4-2.1 0-.8 1.4-2.8 3.1-4.3l3.1-2.8-1.8-3.6-1.7-3.7-3.4 1.4c-3.9 1.6-3.6 2-5.3-7-1.8-9.5-1.8-9.5-5.4-9.5-4.9 0-9.3-1.8-11.1-4.6-1.2-1.8-2.4-2.4-5.3-2.4-2 0-4.4-.5-5.2-1-1-.6-2.1-.3-3.8 1.2l-2.2 2.2-4.3-2c-4.1-2-4.4-2-9.9-.3-5.6 1.6-5.8 1.6-5.8-.1 0-2.4 2.5-4.8 5.6-5.6 1.3-.3 2.4-1 2.4-1.5 0-.4-3.3-2.4-7.2-4.3l-7.3-3.6h4.6c2.6 0 6.2.6 8 1.4 7.9 3.2 7.6 3.3 10.8-3.8 1.6-3.6 3.3-6.6 3.7-6.6.4 0 2.4.5 4.5 1.2 3.6 1 4.1.9 6.4-1.2 1.3-1.2 2.5-3.2 2.7-4.4.2-1.4 1.2-2.2 2.8-2.5 3.2-.4 4-1.7 4-6.3 0-6.3 1.5-8.8 5.2-8.8 5.7 0 7.5-1 9.4-5.2l1.8-4.1 8.1.7c4.4.3 10.7.9 13.9 1.2l5.9.7-.6-11.9c-.3-6.6-1.3-14.2-2.2-17.1-1.4-4.8-1.4-5.5.1-9.3 1.4-3.5 1.6-6.4 1-19.3-.6-13.7-.5-15.8 1.3-21.7 1.2-3.6 2.1-7.2 2.1-8 0-.8.7-2.9 1.6-4.5 4.1-7.7 7.4-14.2 8.3-16.8 1.1-2.7.9-2.9-4.2-5.2-4-1.9-6.9-2.5-12.4-2.5-4 0-9.6-.5-12.5-1.2l-5.3-1.2 9.5-.9c6.2-.5 10.7-.5 13.1.2 6.6 2 13.9 1.4 17.9-1.4 2.9-2 4.1-4 6.7-11.2 1.8-4.9 3.7-10.7 4.3-13 .8-3.4 1.9-4.7 6.1-7.4 2.8-1.7 5.7-4.3 6.6-5.6 1.3-1.9 2.4-2.3 6.8-2.3 2.9 0 8.2-.9 11.7-2 7.9-2.5 9.5-2.5 13.5 0 1.8 1 5.5 2.2 8.3 2.6 2.8.4 7 1.9 9.5 3.5l4.4 2.8 1.2-4.2c.8-2.7 3.1-6.2 6.5-9.7 2.8-3 6.8-8.8 8.8-12.7 3.3-6.7 3.6-8 3.6-16 0-4.9-.5-10.4-1.1-12.3-.6-1.9-1.4-8.8-1.8-15.2-.3-6.4-.9-11.9-1.2-12.2-.2-.3-19-3.6-41.6-7.4l-41.2-6.9-9.6-7.3c-10.6-8.1-10.5-8-15.9-22.7-4.6-12.3-4.5-12.3-22.7-12.3h-12.8l-6.2-7.5-6.2-7.5h-40.3l-5.6-6.8C807.7 215 794.4 210 771.3 210c-8.5 0-9.8.3-19.7 4.4-17.1 7.2-47.7 15.5-57.1 15.6-2.2 0-7.1.8-10.9 1.8-6.3 1.6-7.6 1.7-13.8.3l-6.8-1.4-9.2 3.6c-5.1 2-13.1 4.6-17.8 5.8-4.7 1.2-9 2.7-9.7 3.3-.6.6-2 3.3-3.1 6l-1.9 5-10.4 2.3c-9.1 2-10.8 2.8-14.1 6-3.6 3.5-3.8 4.1-3.8 9.7 0 7.5-2.9 11.7-10.4 15-4.7 2.1-5.7 3.1-10.2 10.7-4.8 8.1-5.2 8.5-10.4 10.2-7 2.3-23.5 4.7-32.5 4.7-6.4 0-7.6.4-14 4.1l-7 4.2-6.6-1.1c-4.3-.8-9.5-2.7-15.1-5.7-12.5-6.6-17.7-8.1-31.2-9-9.7-.6-13.1-1.2-18.9-3.6-8-3.3-11.8-3.5-21.3-1.3-10 2.3-18.1 1.2-23.9-3.3-2.5-1.9-8.1-5.6-12.5-8.4-7.8-4.8-8.1-4.9-15.8-4.9h-7.9l-3.3 4.9c-2.8 4-4.7 5.5-10.9 8.4-6.4 3-9.3 3.7-18.4 4.6l-10.7.9-7.8-4.3c-9.1-5.1-25.8-11.1-35.8-12.9-5.8-1-8.9-2.4-16.3-7-6.3-4-11.1-6.3-15.5-7.3-6.4-1.4-6.5-1.4-10.4 1.2l-4 2.6-13.7-7.6-13.7-7.7-12.6-.4c-7-.3-22.8-.1-35.2.3-22.5.8-22.5.8-32.3-1.9-7.6-2.1-11.1-3.6-15.2-6.8l-5.4-4.1 3-6.6c2.2-5 2.9-8 2.9-12.9 0-6.1.1-6.4 2.8-6.9 1.5-.3 6.6-1.8 11.4-3.2 6.9-2.1 9.5-3.5 12.4-6.4l3.6-3.7-1.7-5.1-1.7-5.1h-7.5c-7.1 0-7.7-.2-11.6-3.5-2.8-2.4-7.2-4.5-14-6.7-8.4-2.8-10.9-4.2-16.5-9-3.7-3.2-7-5.7-7.4-5.8-.5 0-.8 2.7-.8 6z"/></svg>
