<svg version="1.0" xmlns="http://www.w3.org/2000/svg" width="1365.333" height="1365.333" viewBox="0 0 1024 1024"><path d="M752.5 106.2c-13.7 5.4-40.5 16-59.5 23.5s-40.6 16.6-48 20.3c-9.2 4.6-15.9 7.3-21.1 8.3-12.8 2.7-25.2 10.9-42.9 28.2-14.1 13.9-15.6 15-58.5 44.3-44.5 30.4-47 32.3-84.5 65.5l-4.5 4 4.3-.7c3.6-.5 4.2-.4 4.2 1.1 0 2.8-1.3 4-5 4.7-2.9.5-4 1.4-6 5.2-2.7 4.9-5.1 6.4-10.6 6.4-2 0-4.5.5-5.6 1.1-1.1.6-12.7 10.2-25.8 21.3-19.9 16.8-27.9 22.8-49.2 36.8l-25.5 16.7-23.1 9c-12.7 5-33.7 13.3-46.6 18.5-19 7.7-27.4 10.5-43.8 14.6-14.8 3.7-26.5 7.5-43.3 14l-23 8.8-17.5 1.8c-13 1.2-30.1 1.8-66.9 2.1-27.1.3-48.9.8-48.5 1.3.5.4 5.9 2.6 11.9 4.9 10.9 4 11.3 4.1 24 4.1 12.5 0 13.5.2 26.1 4.3l13.1 4.2L87 492.2c8.8 10.2 10.5 11.7 12.6 11.2 1.8-.5 7.9 2.6 26.1 13.1 13.8 7.9 25 15 26.6 16.8 1.5 1.8 6.1 9.9 10.3 18.2 4.2 8.2 11.8 22.6 16.9 32l9.3 17 .7 13.5c.4 10.1.2 15.2-.9 20.4-1.4 6.6-1.3 7 .6 9.7 1.1 1.5 5.1 5.5 8.9 8.8l6.8 6.2-3 8.1c-2.8 7.6-3 9.4-3.5 25.7-.6 15.6-.4 18.4 1.4 24.6l1.9 7 9-.2c5.5-.1 16.3-1.6 27.8-3.8 10.3-2 19-3.3 19.4-3 .3.4 2.2 3.6 4.1 7.3 3.1 5.9 4 6.7 7.9 8l4.5 1.5 2.9-3.4c1.6-1.9 4.7-7.3 6.8-12l4-8.5 6.4-2.1 6.4-2.1 4.4 13.2 4.3 13.1-.7 10.3-.8 10.3 6.6 16.2c3.6 8.9 9.9 21.9 14 28.9 7.1 12.1 7.7 12.8 11.1 13.3 7 1.1 17.4 7 25.5 14.5 11 10.2 13.1 13.7 16.6 27.5l3 11.8 9.3 9.4c11.3 11.3 17.3 15.1 30.3 19.2 6 1.9 11.3 4.2 13.2 5.9l3.1 2.7-7 9.9c-7.3 10.2-7.6 11.4-3.6 14 2.2 1.3 38.1-9.3 50.3-14.9 4.9-2.3 12.3-5.4 16.3-7.1 6.5-2.5 8.3-3.9 14.6-10.9 4-4.4 10.5-13.2 14.4-19.5 6.3-10.2 8.3-12.5 17.5-20.2 9.3-7.9 10.5-9.3 12.4-14.5 1.8-5.3 2.5-6 7.7-8.8 5.4-2.8 6.1-3.6 12.7-15l6.9-12-5.5-2.8c-3-1.5-5.5-3-5.5-3.4 0-.3 2.4-3.3 5.3-6.7 2.9-3.4 9.1-11.5 13.7-18.1 4.6-6.6 12-15.9 16.5-20.8 7.7-8.4 8.1-9.2 11.7-19.9 3.9-11.6 3.9-11.6 1.1-21.2-.4-1.5-1.7-.7-7.7 5.1-5.6 5.5-8.6 7.6-14 9.7-6.5 2.6-6.9 2.6-8.8 1-1-1-1.6-2.4-1.4-3.1.3-.7 7.2-9.8 15.2-20.2 9.6-12.2 18.1-24.6 24.4-35.2 8.4-14.3 10.1-18 13.3-29 3.5-11.9 3.7-13.5 3.7-26.4 0-13.8 0-13.8-3.1-18.7-2.2-3.3-3.7-4.7-4.8-4.4-.9.3-5.9 1-11 1.6l-9.5 1.2-8.7-4.2-8.7-4.3-4.4-15.4-4.4-15.4 1.3-15.2c.6-8.4 1.7-23.6 2.2-33.9l1-18.8-4.5-17.2c-2.5-9.4-7.1-24.1-10.4-32.6l-5.9-15.5 3-14c1.6-7.7 2.8-14.1 2.7-14.2-.2-.2-3.2-1.9-6.8-3.9-5.3-2.8-7-4.4-8.6-7.8l-2.1-4.3 2.2-6 2.3-6-4.4-5.1-4.3-5.1 3.2-3c2.3-2.2 8.1-4.9 20.5-9.4l17.4-6.4 9.6-19.2 9.7-19.3 15-5c12.2-4.1 16.3-5 22-5 3.9 0 11.5-.7 17-1.5s16.8-1.5 25-1.5h15l6.1-3.9 6.1-4 .6-7.7c.4-4.2.7-13.2.7-19.9v-12.2l10.1-6.3c5.5-3.6 10.2-6.7 10.4-7 .2-.3.6-4.8 1.1-10l.7-9.5-5.9 5.3c-3.2 2.9-12.7 10.6-20.9 17.1-12.1 9.5-15.6 12.9-17.8 16.9l-2.8 5.1-4.3-3.2c-2.4-1.9-7.1-4.1-10.9-5.1l-6.7-1.8 3-4.2c6.2-8.4 4.8-7.7 13.4-6.1 4.3.8 7.9 1.5 8.2 1.5.2 0 3-4 6.3-8.9l6-8.9 16.4-9.6 16.3-9.6 3.9-8.3c3.3-6.8 5.4-9.6 12.4-16.3l8.5-8.1-2.7-6c-2.8-6.3-3.4-12.3-1.7-16.7.8-2.2 1.6-2.6 5.2-2.6 2.4 0 8.3-.5 13.2-1.1 8.9-1.1 9.6-.9 10.8 2.3.2.4 8.6 2.4 18.6 4.4l18.4 3.7 4.5-4.5 4.6-4.6-7.9-4.6c-7.6-4.5-8.1-4.6-16-4.6-7 0-9.2-.5-14.9-3-3.7-1.7-8-3-9.5-3-7.8 0-5.9-1.5 9.6-7.6l15.9-6.3h-15.8l-15.8-.1-5.2-3.3c-2.9-1.8-5.6-3.6-6.2-3.8-.5-.3-12.2 3.9-26 9.3z"/><path d="M823.3 213.1c-4 2.2-7.3 4.6-7.3 5.2.1.7.7 3.7 1.4 6.7 1.1 4.7 1.7 5.7 4.7 7.1 3.8 1.9 4.7 4 4.8 11.7.1 6.2-2 10.9-5 11.4-2.2.3-3.2 1.6-4.3 5-.4 1.3-1.6 1.8-4 1.8-3 0-3.7-.4-4.2-2.5-.5-2.2-1.2-2.5-5.1-2.5-4.2 0-5 .5-12.9 7.7l-8.4 7.6v6.8c0 3.7.7 10.4 1.6 14.9.8 4.5 1.4 8.3 1.2 8.5-.2.1-1.7 0-3.4-.2-3.1-.5-3.2-.6-4.4-8.6-.7-4.5-1.5-8.6-1.7-9-.3-.5-2.4 1.8-4.8 5-3 4-6.2 10.7-10.3 21.6-5.5 14.2-6 16.4-5.6 21.5 1 12.1 1 12 7 14.9 2.9 1.5 5.4 3 5.4 3.4 0 .4-1.5 4.7-3.4 9.6l-3.5 8.9 3.6 12.5c2.7 9.5 3.4 13.5 2.9 17.4-.3 3.5.2 7.3 1.7 12.4l2.1 7.5-2.2 10.5-2.1 10.5 5.5 10.3c3 5.6 6.3 10.8 7.3 11.5 1 .7 4.8 4.1 8.4 7.5l6.7 6.2.9 13.3c.5 7.3 1.9 19.6 3.1 27.3 1.9 12.6 2.5 14.8 6.5 22.1l4.3 8.1-1 18.4c-1 18.1-1 18.6 1.5 28.1l2.5 9.8-2.9 10c-3.3 11.1-3.4 10.3 2.8 17.3l3.2 3.7h9.4c7.7 0 10.8-.5 18.1-3 4.9-1.6 9.4-2.7 10-2.3.6.4 3.4 2.4 6.2 4.5 4.9 3.7 5.9 4 22.8 6.8 9.8 1.7 19.6 3 22 3 2.3 0 8.2-1.3 13.1-3 4.9-1.6 8.9-2.9 9-2.7 1.1 1.7 2.5 12.7 2.5 19.2v8.2l3.1.7c6.1 1.2 8.2.6 13-3.4 4.8-4 6.4-4.5 13.1-3.4 3.6.6 3.7.8 5.2 7.2.8 3.6 1.9 6.8 2.4 7.1.5.3 6.3 4.1 12.9 8.4 11.1 7.1 12.4 7.7 17.3 7.7 4.7 0 5.9-.5 11.9-5 3.6-2.7 8.8-7.4 11.5-10.5l4.8-5.6-3-8.7c-6-17.1-9.7-23.5-17.5-30.5-4-3.5-9.9-8.4-13.2-10.9-8.8-6.7-26.5-26.2-30.7-33.8-3.5-6.4-3.5-6.6-2.7-14.5.6-5.8.4-9.6-.6-14-.8-3.3-1.5-10.2-1.5-15.3 0-6.1-.5-10.3-1.4-12.1-.8-1.5-2.9-8.3-4.6-15l-3-12.2 5-8.5c2.8-4.7 7.1-12.6 9.6-17.6l4.5-9 1.6-18.1 1.5-18-8.8-8.7c-4.9-4.8-9.9-9.3-11.2-10.2l-2.3-1.5 2.2-8.8 2.2-8.7-3-6.2c-2.2-4.4-4-6.7-6.6-8.1-1.9-1-4.2-3.2-5-4.9-1.3-2.9-1.2-3.5 1.9-10.5 1.9-4 3.4-7.9 3.4-8.5 0-.7-1.8-3-4.1-5.1-2.6-2.6-6.2-8.3-10-15.8l-6-11.8 2.2-11.9 2.2-11.8-6.4-5.8c-7.4-6.7-19.7-19.3-23.7-24.3-1.5-1.8-5.6-8.8-9.2-15.4l-6.5-12.2-10-3.5-10-3.6-.3-11-.3-10.9h-6.7c-3.7 0-10.1-.4-14.2-.7-7.5-.8-7.5-.8-14.7 3.3z"/></svg>
