<svg version="1.0" xmlns="http://www.w3.org/2000/svg" width="1365.333" height="1365.333" viewBox="0 0 1024 1024"><path d="M523.1 79.8c-1 1.8-2 2.2-6.3 2.2-4.1 0-5.7.5-7.7 2.5-2.3 2.1-3.1 2.3-6.3 1.6-5.4-1.2-7.5 1.4-4.1 5.1 1.6 1.8 1.6 1.9-2.2 1.7-4.7-.3-8.9 1.6-8.1 3.7.3.8.9 2.1 1.2 2.9.4 1.1 0 1.5-1.5 1.5-1.8 0-2.1.6-2.1 4 0 2.2-.2 4-.5 4s-2.4-.9-4.6-2c-3.7-1.9-4-2-4.5-.3-.3 1-.9 2.6-1.4 3.5-.7 1.3-.3 2.2 1.8 3.8l2.7 2.1-4.2-.4c-3.6-.4-4.4-.2-5.8 1.9-1.1 1.8-2.2 2.3-3.8 1.9-1.6-.4-2.9.1-4.6 1.9-2.8 3-2.2 5.6 1.3 5.6 1.9 0 2.4.4 1.9 1.6-.4 1 .1 2.2 1.1 3 1.5 1 1.5 1.5.4 3.3-1.7 2.8.1 4.8 3 3.2 1.1-.6 3.1-1.1 4.4-1.1 1.3 0 3.4-.7 4.7-1.6 2.2-1.6 2.3-1.6 1.2.5-.7 1.1-2.7 2.8-4.6 3.6-4 1.6-4.3 2.5-1.4 5.1 1.7 1.5 2.3 1.6 4 .6 1.6-1.1 1.9-.9 1.9.8 0 2.2 1.5 2.5 6.9 1.4 2.1-.5 3.1-1.2 3.1-2.5 0-1.1.7-1.9 1.5-1.9s1.5.4 1.5 1c0 1.9 2.5.9 6.3-2.5 2-2 3.7-4 3.7-4.5 0-.9 4-3 5.6-3 1.1 0 .1 3.2-2.6 8.3-2.4 4.3-3.8 5.8-6.5 6.7-1.9.6-3.7 1.5-4 1.9-.2.4 1.6 3.2 4 6 2.5 2.9 4.5 5.7 4.5 6.2 0 2-2.6.6-7.6-4.1-4.8-4.5-5.7-5-10-5h-4.6l.6 3.1c.3 1.7.6 4.2.6 5.4 0 1.6.8 2.6 2.8 3.3 3.3 1.1 8.2 8.7 8.2 12.6 0 2.3.4 2.6 3.3 2.6 1.8 0 3.8-.5 4.5-1.2 1.9-1.9 2.6-.1 1.2 3.4-.8 1.8-1.5 3.4-1.6 3.6-.1.2-1.6-.4-3.4-1.3-2.7-1.4-3.8-1.5-8.1-.4-4 1.1-4.9 1.7-4.9 3.5 0 1.3-.4 2.6-1 2.9-1.2.8-1.3 9.5-.1 9.5.5 0 1.4-.7 2.2-1.6 1.2-1.4 1.4-1.4 2.5.1.9 1.2 1.9 1.5 3.5 1 1.8-.6 2.1-.4 1.6.9-.8 2.1 1.3 7.6 3.7 9.5 1.4 1.2 1.9 1 3.7-1.3 2.7-3.5 3.4-2.7 1.8 1.8-1.2 3.3-1.6 3.6-5.4 3.6-3.6 0-4.2-.4-6-3.8-1.7-3.2-2.6-3.7-5.9-4-3.6-.3-3.8-.2-3.2 2 .3 1.3.6 3.3.6 4.5 0 1.6.6 2.3 2 2.3 2.3 0 2.3 0 1.1 3.3-.6 1.4-1.8 2.8-2.8 3.1-2.6.8-6.5 9.1-5.7 12.1.8 3.4 6.2 4.3 11.2 2.1 3.5-1.6 3.9-1.6 7.7.4 5.1 2.6 6.9 2.7 5.5.1-1.5-2.8-1.4-2.9 2.6-3.7 2.8-.5 3.8-.3 4.9 1.2 1.3 1.8 1.5 1.7 2.5-1.4 1.1-2.9 1.6-3.2 5.1-3.2 3.8 0 3.9.1 3.9 3.7v3.7l3.5-3.4c1.9-1.9 3.7-4.2 4.1-5.2.3-1 1.1-1.8 1.9-1.8.7 0 1.8-1.3 2.3-2.9.9-2.5.7-3.2-1-4.8-1.5-1.3-2.2-1.5-2.5-.6-.7 2-4.3-.4-4.3-2.8 0-1.6-.4-1.9-1.7-1.4-1 .4-3.9 1.1-6.5 1.5l-4.8.6v-3.4c0-3.3.1-3.4 1.8-1.9 3.1 2.8 6.9 2.1 11.4-2.2l4.1-3.8-2.2-3.7-2.3-3.6h2.5c2.8 0 7.7-3.5 7.7-5.5 0-.8-.7-1.8-1.6-2.3-1.4-.8-1.4-1.1.7-2.6l2.4-1.7-2.2-1.8c-1.9-1.6-2-2.1-.9-3 1.9-1.6.8-5.1-2-6.2-1.3-.4-2.4-1.3-2.4-1.9 0-.6-1.1-.8-2.6-.4-1.9.5-2.5.4-2-.5.4-.6 2.4-1.1 4.5-1.1 4.5 0 5.1-.4 4.4-3.2-.5-1.6-1.1-1.9-3.4-1.4-9.8 2-9.2 2-8-.3.7-1.1 2.1-2.1 3.3-2.1 1.2 0 3.7-1.4 5.4-3.1 2.7-2.6 3.1-3.5 2.3-5.5-.8-2.2-.6-2.4 1.5-1.8 1.9.4 2.7-.1 4.5-2.9 2.7-4.4 2.7-6.7 0-6.7-1.6 0-1.9-.3-1.2-1.3.6-.6 1.3-2.3 1.6-3.7 2.3-10.5 5.7-23 6.7-25.3 1.1-2.2 1.1-3.2 0-5.2-1.7-3.1-2.4-2.6-6 4.6-1.7 3.3-3.7 5.9-4.5 5.9-1.3 0-1.2-.7.5-4l2.1-4-2.1-.8c-1.9-.7-1.9-.8.7-2.4 1.6-.9 4.2-4 5.9-7 2.7-4.6 3-6 2.7-10.9l-.5-5.6-5.6-2.7c-6.2-3.1-5.7-3.3-10.4 3.5l-1.7 2.4-.1-3c-.1-1.7-.5-3.9-.9-5-.8-1.9-.8-1.9-2 .3z"/><path d="M451 134c0 1 .8 2.4 1.8 2.9 1.5.9 1.5 1.2.2 2.1-.8.6-2.5.8-3.7.5-1.9-.5-2.3-.1-2.3 2 0 1.4.7 2.8 1.5 3.1 2 .8 1.9 4.3 0 5.1-.9.3-2.3 1.9-3.1 3.5-1.5 2.9-1.5 3.1 1.3 6l2.8 3.1-2.7-.7c-2.6-.6-2.8-.4-2.8 2.3 0 1.6.7 3.4 1.5 4.1.8.7 1.5 2.4 1.5 3.9.1 1.4.6 3.6 1.3 4.9l1.3 2.2 3.9-2c5-2.6 5.1-2.6 6.4 1 .9 2.8.9 3-1.6 3-1.5 0-3.7 1-4.9 2.1l-2.3 2.2 2.2 3.9c1.5 2.6 3.1 4.1 5 4.5 2.2.4 2.5.8 1.6 1.9-1.7 2.1 1.3 6 5.2 6.8 4.5.9 4.9.8 4.9-1.2 0-.9.9-2.3 2-3 1.7-1 2-1 2 .4 0 .8.5 1.2 1 .9.6-.3 1-1.7 1-3 0-1.8.4-2.2 2-1.8 1.6.4 2 0 2-2.2 0-5.5 2.2-10.3 6.1-13.5 3.9-3.1 3.9-3.1 2.4-6-1.4-2.8-2.8-3.4-6.5-3.2-2 .1-3-1.7-3-5.4 0-1.7-.7-3.7-1.4-4.4-.8-.6-1.6-3-1.8-5.3l-.3-4.2-1.6 3.4-1.5 3.5-1.3-3.2c-1.1-2.6-1.9-3.2-4.2-3.2-2.6 0-2.9-.4-2.9-3 0-5.1-4.6-12.9-8.5-14.6-4.4-1.8-4.5-1.8-4.5.6zM430.3 158.7c-2.1.8-1.5 4.8 1.1 7.2l2.3 2.2.7-2.3c1-3.9.7-6.6-1-7.2-.9-.3-1.6-.6-1.7-.5-.1 0-.8.3-1.4.6zM408.4 176c-2.9 1.1-2.1 6 1.6 9.5 3.5 3.4 3 6.5-1.1 6.5-2.7 0-2.7.1-1.8 2.9.9 2.7 1.3 2.9 3.5 2.1 4.1-1.6 9.2 1.2 11.2 5.9 1.5 3.6 4.5 6.1 7.3 6.1.6 0 .9-3.3.6-8.9-.4-6.9-.9-9.6-2.5-11.8-3.1-4.4-6.9-7.6-8.1-6.8-.7.3-1.1-.2-1.1-1.4 0-2.2-3.5-5.1-6-5-.8 0-2.4.4-3.6.9zM380 183.5c-2.5 1.3-5.5 2.4-6.7 2.5-3.6 0-2.9 3 .7 3 1.7 0 3 .5 3 1 0 .6.6 1 1.3.8.6-.1 2.5.6 4 1.6 2.8 1.9 2.9 1.9 4.9-.1 2-2.1 2-2.2.3-6.7-1-2.5-2-4.6-2.4-4.6-.3.1-2.6 1.2-5.1 2.5zM435 191.8c0 3.6.5 5.4 2 6.7 2.3 2.1 2.6 4.1.8 4.8-1 .3-1 1.1.2 3.4l1.5 3 5.2-2.3 5.1-2.3-1.1-4.3c-.6-2.4-2-5.5-3.1-7.1-2-2.7-7.8-6.7-9.7-6.7-.5 0-.9 2.2-.9 4.8zM369.8 196.2c-1.9.6-2.8 1.7-2.8 3.2 0 1.2-.6 2.8-1.2 3.5-1.1 1-1 1.4.5 2.2.9.6 1.7 1.9 1.7 3 0 1.8.6 2 4.7 1.7 4.5-.3 4.7-.4 6-4.5.9-2.5 2.2-4.5 3.4-4.8 1.2-.4 1.9-1.5 1.9-3.1 0-2.3-.3-2.4-5.7-2.3-3.2 0-7 .5-8.5 1.1zM333.9 202.6c-3.1 2.5-6.5 4.4-8.3 4.6-2.3.2-3.2.9-3.4 2.4-.3 1.8-1.2 2.3-5.3 2.8-4.6.6-4.9.8-4.9 3.6 0 4 .2 4.5 2.1 4.2.9-.2 1.9.4 2.3 1.3.4 1.2 1 1.4 2.5.5 1.7-.9 2-.6 2.3 1.8.4 3.4 3.8 3.7 5.3.4.6-1.3 1.8-2.2 3.3-2.2 1.5 0 2.9-1 4-3.1 2.5-4.6 4.9-7.5 5.7-6.7.4.3 0 1.7-.9 3-1.7 2.6-1.1 6.8.9 6.8.7 0 2.9-.7 4.9-1.5 2.7-1.2 3.6-2.1 3.6-3.9 0-1.3.7-2.7 1.6-3 1.1-.4 1.4-1.4.9-3.5-.5-2.4-.2-2.9 1.6-3.4 1.5-.4 2-1.1 1.5-2.2-.3-.9-.6-2.6-.6-3.7 0-1.7-.5-1.9-3.2-1.4-1.8.3-4.9.2-7-.3-3.3-.8-4-.5-8.9 3.5zM414 206.8c0 1.6 4.1 5.2 6 5.2 2.4 0 2.6-2.3.4-4.4-1.6-1.7-6.4-2.2-6.4-.8zM398.4 213.2c.8 6.2 2 7.8 5.3 7.8 2.7 0 2.7-.6-.5-8.7-1.2-2.9-2.3-4.3-3.6-4.3-1.7 0-1.8.5-1.2 5.2zM448.1 210c-3.8.6-7.4 4.6-5 5.4 7.8 2.6 12 3.4 12.4 2.3.3-.7.9-2.4 1.4-3.8.9-2.4.7-2.7-2.2-3.5-1.8-.5-4.7-.7-6.6-.4zM467 215.6c0 2.5.7 4.1 2.3 5.5 3.2 2.7 3.7 2.4 3.7-2 0-3-.6-4.4-2.2-5.5-3.3-2.3-3.8-2-3.8 2zM346 224.9c0 1.1-.6 2.1-1.3 2.1-.8 0-2.2.9-3.2 2-1.5 1.6-1.5 2.2-.5 3.5 1.1 1.3.9 1.5-1.3 1.5-3.3 0-5.4 2.5-3.7 4.5 1.1 1.3.8 1.5-1.8 1.5-4.7 0-5.7 2.2-2.3 4.8 1.6 1.2 3.4 3.7 4.1 5.7 1.1 3.3 1.4 3.5 5.6 3.5 3.7 0 4.4-.3 4.4-2 0-2.5 1.6-2.6 2.2-.2.4 1.4 1.7 1.8 6.8 1.9 7 .2 7.4.4 6.6 3-.5 1.7-1.4 1.8-7.1 1.5-3.5-.2-7.5-.2-8.9.2-2.2.5-2.3.8-1.4 3.9.7 2.2 2.2 4 4.2 5.1 3.1 1.6 3.4 1.6 8.5-.3 2.8-1.2 6.1-2.1 7.2-2.1 1.1 0 3.7-.9 5.8-2 3.1-1.5 4-1.7 4.4-.6.3.8 2.9 1.5 6.3 1.9 4.8.5 6.2.3 8.6-1.4 1.5-1.1 3.1-3.1 3.4-4.4.3-1.3 1.2-2.9 2-3.6 1.9-1.6.8-8.9-1.8-11.1-1.5-1.3-2.5-1.5-4.4-.8-3.3 1.3-3.4 1.3-3.4-.5 0-.7-.8-1.8-1.7-2.4-1.6-.9-1.6-1.1-.1-2.8 1.4-1.5 1.5-2.2.3-4.2-.9-1.8-1-3.1-.2-4.8.7-1.6.7-2.7-.3-3.8-1.2-1.4-1.8-1.1-5.7 2.7-2.3 2.3-4.3 4.7-4.3 5.3 0 .5.9 2.1 2 3.5 1.7 2.3 1.7 2.6.3 4.2-1.2 1.4-1.3 2.3-.4 4.9.6 1.8 1 3.3.9 3.4-.2.1-2.8-.3-5.8-.9-4.7-1-5.5-1.4-5.8-3.6-.2-1.4-.8-3-1.3-3.6-.5-.6-.4-1.5.2-2.1 1.5-1.5-.3-4.6-4.6-7.9-1.9-1.4-3.5-3.5-3.5-4.5 0-1.1-.6-1.9-1.4-1.9-.7 0-2.8-.3-4.5-.6-2.7-.6-3.1-.4-3.1 1.5zM441.6 227.9c-1.6 1.8-1.6 2.2 2 9.2 2 4.1 3.8 7.6 4 7.8.1.2 2.4-.4 5-1.3s4.8-1.5 4.9-1.3c0 .1 1.8 3.7 3.8 7.9 3.7 7.5 3.8 7.8 2.2 10.8-1.5 2.9-1.5 3.2.5 5.9 1.1 1.6 2 4.2 2 5.8 0 2.2.7 3.3 2.5 4.1 3.1 1.4 11.4.5 13.8-1.6 1.5-1.4 1.7-1.3 1.7.1 0 .9.5 1.9 1 2.2.6.4 6.8-.1 13.8-1 11-1.5 12.9-2.1 14.5-4.1l1.8-2.4 4 2.3c3.8 2.1 4.1 2.1 5.3.4.7-.9 2-1.7 2.9-1.7.8 0 2-1.4 2.6-3.2.6-1.7 2.1-3.8 3.2-4.6l2.2-1.5-2.6-1.4c-2.3-1.2-2.5-1.7-1.7-3.9 1.6-4.2 1.2-5.3-2.5-6-1.9-.3-3.5-1-3.5-1.5s-1.1-1.4-2.5-1.9-2.8-1.6-3.1-2.4c-.8-2.2-22.8 8.5-23.2 11.3-.4 2.5-1.5 2.7-3.3.5-.9-1.1-2.2-1.4-4.5-.9-2.5.4-3.5.1-4.2-1.1-.9-1.5-1.1-1.5-2.3.7l-1.3 2.4-.6-3c-.5-2.7-1-3.1-5.9-4-4.8-.9-5.2-1.2-3.8-2.4 1-.7 1.7-2 1.7-2.7 0-.8.9-1.4 2.1-1.4 1.8 0 1.5-.6-2.1-4.8-5.6-6.3-7.7-7.4-11.1-5.7-2.4 1.3-2.7 1.2-4.3-1.6-1-1.8-2.6-2.9-3.9-2.9-1.2-.1-3.3-.7-4.7-1.5-3.3-1.9-4.4-1.8-6.4.4zM329.2 229.2c-4.5 1.8-5.2 2.4-4.6 4.2 1.1 3.8 1.9 3.6 6.9-1.4 5.4-5.5 5.3-5.7-2.3-2.8zM402 233.6c-1.8 2 .5 4.4 4.1 4.4 3.2 0 3.5-.7 1.6-3.1-1.8-2.3-4.4-3-5.7-1.3zM429.7 235.7c-1.3 1.3-1.9 1.4-3.1.4-.9-.8-2.6-1.1-4-.7l-2.5.6 2 5.7c1 3.1 1.9 5.8 1.9 6.1 0 .3-1.6-1.6-3.5-4.2-4.5-5.8-6.5-6-6.5-.7 0 2.2.5 4.3 1 4.6 1.5.9 1.2 2.5-.4 2.5-2 0-6.6 3.9-6.6 5.6 0 1.2 1.1 1.4 6.3.8 3.4-.3 6.6-1 7.2-1.5 3-2.9 3.4 1.1.4 5.2-1.6 2.3-1.9 3.8-1.4 6.9l.7 3.9 4.6-.6c6.9-.9 9.2-2.8 9.2-7.2 0-2.1.6-4.6 1.4-5.6 1-1.4 1.1-2.5.4-3.9-.6-1-.7-4-.4-6.5.5-3.9.2-5.2-2.2-8.8-2.6-3.9-2.9-4.1-4.5-2.6zM402.5 243.2c.4 1.8.9 3.4 1 3.6.3.3 6.4-2.5 7.4-3.4 1.2-1.1-2.6-3.4-5.6-3.4-3.4 0-3.4.1-2.8 3.2zM287.7 245.7c-.4.3-.7 1.4-.7 2.3 0 1-.7 2.4-1.6 3.1-1.2.9-1.5 2.4-1.1 5.1.4 3.3.2 3.9-3 6-1.9 1.3-4 3.8-4.8 5.5-.8 1.8-2.1 3.3-3 3.3-2 0-14.5 11.8-14.5 13.7 0 .7 1.8 4.6 4 8.5 4.1 7.1 4.1 7.1 2.5 11-.8 2.1-1.5 4.5-1.5 5.3 0 2.1 6.3 2 9.5-.1 1.5-1 2.5-1.2 2.5-.5s2 1.1 5 1.1c5 0 5 0 7.5-5 1.4-2.8 3.4-5.3 4.3-5.6 3.7-1.2 6.1-2.7 6.4-4.1.4-1.7 19.4-10.3 22.9-10.3 2.8 0 5.9-2.7 5.9-5.1 0-.8-.7-4.2-1.6-7.4-1.7-6.6-5.1-10.4-9.5-10.5-3.5 0-8.5-5.5-9.3-10.3-.7-3.7-.7-3.7-5.4-3.6-2.6.1-6.4-.6-8.4-1.5-4.1-1.8-5.1-1.9-6.1-.9z"/><path d="M407.9 248.1c-2 2-2 2.3-.5 3.1 2.1 1.2 4.6-.6 4.6-3.3 0-2.5-1.5-2.4-4.1.2zM398 257.5c0 .8-.5 2.4-1.2 3.4-1.4 2.3.4 5.1 3.3 5.1 1.6 0 1.9-.8 1.9-4.4 0-3.1-.5-4.6-1.6-5-2.2-.9-2.4-.8-2.4.9zM446.8 258.2c-2.3 1.9-5.4 7-6.2 10-.5 2.3 0 3.1 4.5 6.3 4.6 3.3 5.5 3.6 8.8 2.8l3.6-.9.3-6.3c.3-6 .1-6.6-2.9-9.7-3.5-3.6-5.6-4.2-8.1-2.2zM80.2 339.2c-54.8 61.9-63.9 72.6-63 74.2.5 1 1.8 2 2.7 2.3 1.3.3 1.6 1.2 1.3 3.4-.4 2.8-.3 2.9 2.2 1.9 2.1-.8 3.3-.6 5.1.6 3 2 3 2.2.6 4.8-1.8 2-1.9 2.9-1 13.8.9 10.2.8 12.1-.5 14-2.2 3.2-2 3.8 1.3 3.8 1.6 0 4.2.5 5.6 1 2.1.8 3.4.6 5.8-.7 1.8-1 3.6-2.4 4.2-3.1.8-1 1.8-.9 5.2.4 4.8 1.9 5.8 3.9 4.3 7.8-1.5 4-1.2 11.7.6 19.9 1.3 5.4 1.4 7.9.6 10.2-.6 1.6-1.3 8.3-1.7 14.8-.5 9-1.1 12-2.2 12.4-.8.3-1.2 1.2-.9 2 .4.8.3 2-.1 2.6-1.3 2.2-1.1 8.6.3 9.8.8.6 1.4 1.7 1.4 2.3 0 .6 1.4 3.1 3 5.6 1.6 2.5 3 5.2 3 6.1 0 .9.7 2.2 1.5 2.9 2.1 1.7 1.9 2.5-1.4 6.2-1.5 1.8-3.3 4.9-4 6.9-.6 2-2.3 4.2-3.7 4.9-1.7.9-2.4 2-2.1 3.2.4 1.3-.1 1.8-1.4 1.8-1 0-1.9.7-1.9 1.5 0 .9-.9 1.5-2.3 1.5-3.9 0-5.8 3.1-6.2 10-.4 5.6.8 15.7 2 16.8.3.3 1.3-.2 2.3-1.1 2.2-2 8.2-2.3 8.2-.5-.1 2.1-3.7 5.8-5.5 5.8-1.5 0-1.6.6-1 4.2.4 2.4.7 4.9.6 5.5-.1.7-.2 2.8-.2 4.5-.1 1.8-1 4.2-2 5.4-1.6 1.7-1.7 2.4-.7 5.2 1.2 3 1.5 3.2 6.1 3.2 4.1 0 4.8.3 4.3 1.6-.3.9-.6 1.9-.6 2.3 0 .5-2.9 1.6-6.5 2.6-7 1.9-9.4 4.7-6 7.1 1.5 1.2 1.5 1.3-.4 2.3-3.7 2-4.4 4.7-2.6 10.2 1.1 3.3 2.2 4.9 3.4 4.9.9 0 3.2 1.5 5 3.3 3 3.1 3.1 3.6 1.9 6.2-1.1 2.5-1 2.9 2 5.6 1.8 1.6 4.1 2.9 5.2 2.9 1.2 0 2.3.8 2.7 1.7.3 1 1.3 2.6 2.1 3.6 1.3 1.4 1.3 2.1.3 4.1-1 1.8-1 3.1 0 6.4 1.1 3.7 1.6 4.2 4.1 4.2 3.1 0 3.6 1.5 1.3 4-1.4 1.5-1.3 2 .5 4.3 1.3 1.6 2.7 2.4 3.6 2 1.2-.4 1.4.2 1.2 3-.1 1.9.4 4.2 1.1 5.1 1.2 1.4 1 1.6-1.5 1.6-1.7 0-2.4.4-1.8.9 1.6 1.5 24.8 11.4 55.9 23.8 65.4 26.2 121 41.3 194.5 52.8 22 3.5 52.8 6.2 84 7.4 14 .6 30.1 1.3 35.6 1.6l10.1.6.7-4.1c.9-5.5 3.7-5.2 4.8.5 1.6 8.1 2.7 9.5 6.9 9.5 2.1 0 4.1.5 4.4 1.1 1.4 2.2 5.4 2.8 9.5 1.4 3.7-1.3 4.3-1.3 7.8.7 2 1.2 4.3 2.8 5 3.7 1 1.3 1.6 1.3 3.3.3 1.7-1.1 2.3-.9 4.5 1.8 3 3.5 7.5 4 11.4 1.3 3.1-2.2 14.6-1.9 17.1.3 3.1 2.8 7.9-.6 7.9-5.6 0-2 2.8-3.4 5.1-2.5 2.2.8 3.7-.7 4.1-3.9.4-3.9 2.8-4.7 2.8-.9v2.8l1.9-2.8c1-1.6 1.6-3.8 1.3-5.2-.5-3-.9-2.9 6.8-.9 4.6 1.1 6.9 1.3 9.1.5 4.2-1.4 10.1.7 11 4.1.4 1.4 2.2 4.7 4 7.2l3.4 4.7 5.5-.4c3-.2 6.3-.8 7.3-1.2 1.4-.6 1.7-.2 1.7 2.1 0 1.8 1.1 4 3.1 6 3 3.1 3 3.3 1.5 6.2-1.5 3-1.5 3 1.4 4 2.3.8 2.9 1.7 3.2 4.4.3 3 .7 3.3 3.8 3.6 1.9.2 4.7 1.3 6.3 2.4 2.8 2 3.3 2 16.9.9 10-.9 14.4-.9 15.1-.2 1.8 1.8 9.2 1.3 11.8-.8l2.4-1.9 6 5.7c3.3 3.2 6.5 6 7 6.2.6.2 2.5 2.3 4.4 4.7 3.2 4.1 3.2 4.4 1.6 6.2-1.4 1.5-1.5 2.2-.5 4.1 1.1 1.9 1 2.4-.5 3.5s-2.2 1-4.6-.7c-1.9-1.4-3.6-1.8-5.4-1.3-2.1.5-2.7.2-3.2-1.5-.7-2.7-8.9-8.3-11.7-7.9-1.9.3-1.7.7 2.2 4.9 4.6 5.1 5.2 8 2.6 13.1-1.4 2.7-1.5 4.1-.5 9.9 1.8 11.1 1.6 12.7-2.9 18-4.3 5.2-6.2 10.6-4 11.9 2.3 1.4-.3 6.3-4.3 8.3-2.6 1.2-3.7 2.4-3.7 4 0 2.5 3.4 5.2 5.3 4 .6-.4 2.4-.6 3.9-.5 2.1.2 2.8-.2 2.8-1.6 0-1.9 5.9-8.2 7.7-8.2.6 0 2.3-2 3.7-4.4 3.1-5.3 4.9-6 14.2-5.7 5.7.2 7.3-.1 7.7-1.3.4-1-.2-2-1.4-2.7-1.8-.9-1.1-1.5 6.1-5 4.5-2.1 9.2-3.9 10.6-3.9 2.9 0 2.9 0 .3-4.5-2.1-3.5-2.2-3.5-4.6-1.9-1.7 1.1-3.6 1.4-5.9.9-1.9-.3-3.4-.7-3.4-.9 0-2.6 3.2-7.2 7.5-10.9 5.8-5.1 19.6-12 22-11 3 1.1 8.3-.6 8.9-2.9.3-1.2 0-2.6-.7-3-.6-.4-.9-.9-.7-1.1.3-.2 4-3 8.2-6.1 5.4-4 8.9-7.6 11.9-12.2 2.3-3.6 4.9-6.9 5.8-7.3.9-.5 12-4.6 24.6-9.1 12.7-4.6 23.6-8.8 24.3-9.3.6-.5 1.2-2.2 1.2-3.8 0-1.9.5-2.9 1.5-2.9.9 0 1.8-.7 2.1-1.5.4-1 1.3-1.3 2.5-1 2.6.9 4.6-3.4 3-6.4-.9-1.7-.9-2.6.4-4.3 1.8-2.7 1.9-6.1.3-9.1-2.8-5.2-1.3-33.7 1.8-33.7.7 0 1.8.9 2.4 2 1.4 2.7 2.5 2.5 8-1 4.5-2.9 4.9-2.9 8.6-1.7 3.8 1.3 4.1 1.8 9.4 14.5l5.5 13.2 3.3-.6c2.2-.4 3.2-.2 3.2.6 0 .7 1.1 2.8 2.6 4.7 2 2.7 3.2 3.3 6.1 3.3 4.5 0 10.9-4.1 11.7-7.6.4-1.4 1.4-2.4 2.4-2.4 1.2 0 2.7-1.7 4.3-5.1 1.3-2.8 3.4-5.8 4.6-6.6 1.3-.9 2.8-3.3 3.3-5.4 1.5-5.5 4.3-5.4 3.4.1-.4 2.2-.4 4 0 4s4.2-1.8 8.6-4c8.7-4.4 9-4.5 9-3 0 .5-1.4 1.7-3 2.5-1.7.9-4 3-5 4.8-1.8 2.9-2 3-2 .9 0-4.4-3.4-.6-10.8 12.3-5.9 10.1-7.1 12.9-6.2 14.1.7.7.9 2.1.6 3-.3.9.7 3.4 2.5 6 2.5 3.7 3.4 4.3 5.4 3.8 1.4-.3 3.3.1 4.9 1.2 2.6 1.6 2.7 1.6 4.1-.2.8-1 1.5-2.5 1.5-3.3 0-.8.6-1.9 1.4-2.5.7-.6 2.5-4.6 3.9-8.9 2.1-6.3 2.4-8.3 1.5-10.2-1.4-3.1.5-5.8 3.4-4.9 2.4.7 4.8-1.2 4.8-4.1 0-1.5 1.5-3.2 4.8-5.4 3.9-2.7 20.7-22.7 22.1-26.3.2-.6-.9-.7-2.8-.3-2.3.5-3.1.3-3.1-.8 0-2.2-4.7-3.9-6.9-2.5-1.5.9-2.3.9-3.4 0-1.1-1-2-.4-4.6 2.8-2.7 3.4-3.7 4-7.1 4-2.2 0-4.2.6-4.7 1.4-.9 1.4-11.3 3.2-11.3 1.8 0-.4.5-1.3 1.2-2 1.6-1.6-7.8-1.7-11.8-.2-2.3.9-3.1.7-5.4-1.5-1.5-1.4-3.8-2.5-5.3-2.5-2.3 0-2.7-.4-2.7-3 0-3-.1-3.1-3.6-2.4-3.4.6-3.6.6-2.5-1.4.6-1.1 1.1-3.5 1.1-5.2 0-3.4-2.5-9-4-9-.5 0-2.5 1.6-4.5 3.7-3.4 3.5-3.6 3.5-5.4 1.9-1.5-1.4-2.9-1.6-6.8-1.1l-4.8.6 3.5-3c2.2-2 4.6-3.1 6.6-3.1 1.7 0 3.8-.8 4.6-1.8 2.8-3.2 6.8-13.4 6.8-17.3 0-3.5-.3-4-3.7-5.4-2.8-1.2-5.4-1.4-9.9-1l-6 .7-13.5 12.2c-19.1 17.4-22.7 23.5-30 50-2.5 9.2-3.9 12.2-8.5 18.7-3 4.4-6.1 7.9-6.9 7.9-.7 0-5.2 5.3-9.9 11.7-8.1 11.1-8.6 12-8.6 16.8 0 4.5-.3 5.3-3.6 7.8-4.6 3.7-5.7 2.6-1.6-1.6 2.7-2.8 3.2-4 3.2-8.3 0-6 2.1-9.5 17.3-28.2 8.5-10.4 10.7-13.7 10.7-16.1 0-1.8.6-4.2 1.4-5.4.8-1.2 2.6-8.1 4.1-15.2 1.5-7.2 4.5-17.7 6.7-23.4 3.9-9.9 4.2-10.4 8.3-12.2l4.3-1.9.7-9.7.7-9.8 4.2-4.1c4.4-4.4 29.4-18.4 32.7-18.4 1.1 0 5.8-2.2 10.5-5 4.6-2.7 9.3-4.9 10.5-4.7 1.2.1 5.8-2.7 11.9-7.3l9.8-7.5 2.1-8c1.4-5.3 1.9-9.4 1.5-12.2-.9-5.8 0-8.5 3.4-10.5 1.8-1.1 3.2-2.9 3.5-4.7.5-2.1 1.8-3.7 4.6-5.3 3.2-1.9 4.6-3.6 7.1-9.2 3.4-7.8 4-15 1.4-16-1.1-.4-1.5-1.4-1.2-3.1.5-2.3.3-2.4-3.1-1.9s-3.8.3-6.1-3.5c-6.2-10.2-20-13.9-20-5.4 0 1.4-.6 2.3-1.5 2.3-.8 0-1.5-.9-1.5-2 0-1.3-1.3-2.6-3.8-3.9-3.7-1.9-3.8-1.9-7.7.1-5.1 2.6-5 2.5-3.5 4.3 1.1 1.3.9 2-1.2 4.3-1.4 1.5-2.8 4.1-3.1 5.9-.4 1.8-2.3 5.8-4.4 8.9l-3.8 5.8-.3-5.2c-.3-4.7.1-5.7 3.7-10.6 2.4-3.2 3.8-6.1 3.5-7-.4-1 1.3-3.7 4.5-7.4 3.9-4.5 4.9-6.3 4.4-8.1-.4-1.7-1.1-2.1-2.6-1.7-1.1.3-3.2-.1-4.7-.9-2.6-1.4-2.8-1.3-4.6 2.1-1.8 3.3-2.1 3.5-5.4 2.8-1.9-.4-4.6-.7-6-.6-9.1.6-11.2 1-12.8 2.5-2.6 2.4-2.9 2.2-3.6-2.1-1-6-1.3-6.2-8.6-4.7-4.7 1-6.8 1.1-7.8.2-.7-.6-3.8-.9-6.8-.8-3 .1-5.4 0-5.4-.4 0-.3.7-1.7 1.6-3 1.4-2.2 1.4-3.1.2-8.7-1.3-6.1-1.5-6.3-4.3-6.2-1.7.1-4.5-.2-6.3-.8-2.6-.8-3.1-1.4-2.7-2.8.8-2.5-2.3-7.3-4.2-6.6-.8.3-3-1-5.1-3-3.6-3.5-5-3.8-9.4-1.9-1.5.6-1.8.2-1.8-2.7 0-2.9-.7-3.9-4.9-7.1-3.3-2.6-5.8-3.7-8.2-3.7-2.8 0-4.5-1.2-11.2-7.8l-7.8-7.7.5 10c.5 9.8.9 14 2.2 23.8.5 4.3.4 4.9-1.5 5.4-1.6.4-1.9 1.1-1.5 2.8.4 1.6-.5 4-3 7.9-2 3.1-3.8 5.6-4 5.6-.3 0-3.8-1.5-8-3.4l-7.4-3.4-3.5 2.3c-1.9 1.3-3.7 3.1-4 4-.9 2.1-3 1.9-4.5-.5-1.1-1.7-1-2 .7-2 1.4 0 2.1-1 2.5-3.6.8-4-.8-6.8-3.5-6.1-1.2.3-2-.5-2.8-3.3-.6-2-2.2-4.9-3.6-6.4-2-2.1-2.3-3.1-1.5-4.1.8-1 .6-2.4-1-5.4-1.1-2.3-2.3-6.1-2.7-8.6-.4-3.5-1-4.5-2.5-4.5s-1.7.5-1.2 2.5c.7 3-1 3.4-3.8.8-1.7-1.5-1.9-1.5-3.6 0-1.3 1.2-3.7 1.7-7.5 1.7h-5.6l-.8-4.1c-.7-3.6-1.3-4.2-4.8-5.5-2.2-.7-4.9-1.4-6-1.4-1.2 0-2.6-.5-3.3-1.2-.6-.6-3.5-2.2-6.4-3.4l-5.3-2.2-4.3 3.5c-5.5 4.5-8.6 5.3-20.2 5.3-10.6 0-13.1 1-14.8 5.9-.9 2.5-.5 3.7 2.9 9.4 3.5 5.8 4 7.4 4.2 13.6.2 5.8.5 7.1 1.9 7.1 1.7 0 3.8 4.7 3.8 8.5 0 1.1 1.1 3.7 2.5 5.6 1.9 2.5 2.4 4 1.9 5.9-.4 1.4-.8 5.3-.9 8.8-.1 4.8-.6 6.8-2.2 8.3-1.9 2-1.9 2 .1 6.3 1.7 3.8 2.5 4.5 5.7 4.9 2.3.3 6.3 2.3 10.1 5.1 5.2 3.6 7.5 6.2 11.8 13.2l5.3 8.7-.5 13.2-.5 13.3-7.9 11.5c-6.8 10-8.6 11.9-12.6 13.8-2.7 1.2-4.8 2.5-4.8 2.9 0 1.3 7.7 8 9.2 8 1.2 0 1.9 1.6 2.7 6.1.8 4.6 2.1 7.5 5.1 11.5 2.2 2.9 4.4 7.1 4.9 9.4.5 2.3 1.6 4.9 2.5 5.9 1.1 1.2 1.6 3.7 1.6 8.3 0 4.6.4 6.9 1.5 7.8 1.7 1.4 2 7 .4 7-.6 0-1.3-.9-1.6-2-.3-1.1-1.3-2-2.2-2-.9 0-2.2-.5-2.8-1.1-.8-.8-1.3.1-1.8 3.7-.9 6.9-1 7.1-4.1 7.8-2.4.6-3.5 0-9.3-5.8-3.6-3.6-7.9-6.8-9.4-7.2-1.6-.3-3.3-1.7-3.9-2.9-.6-1.3-4.1-4.9-7.9-8-6-5-6.9-6.2-6.9-9.1 0-1.9-1.3-7.5-2.9-12.6-3.6-11.6-4.4-17-3-20.1.8-1.9.8-3.1-.3-5.2-1.5-2.7-1.6-2.7-12.9-3-7.5-.1-12.2.2-13.9 1-1.4.7-3.9 1-5.6.8-1.8-.3-3.5 0-3.8.6-.5.7-2.7-.4-6.1-3-4.1-3-6.1-4-7.8-3.5-1.4.3-4.1-.4-7.2-1.9-2.6-1.4-6.4-2.5-8.2-2.5-2.3 0-3.6-.6-4-1.8-2-5.5-14.6-14.2-20.6-14.2-2.1 0-5.1-1.1-7.8-3-2.4-1.6-6.3-3.2-8.7-3.6-3.6-.5-4.9-.2-8.2 2-2.7 1.7-5.3 2.6-8.1 2.6-4 0-4.1-.1-3.6-2.9.4-1.9-.8-7.8-3.3-16.8-2.2-7.6-4-14-4-14.2 0-.2-.9-.1-1.9.2-1.1.3-2.9-.1-4-.9-1.4-1.1-2.6-1.2-4.6-.4-4 1.5-5.5 1.2-5.5-1.2 0-1.2-.6-2.9-1.4-3.7-1.1-1.3-1.2-3.7-.4-13.1.5-6.3 1-13.1 1.1-15 .1-1.9 1.4-5.3 2.8-7.5 4.3-6.6 5.9-10.2 5.9-13.3 0-1.7 1-3.7 2.5-5.2 1.7-1.6 2.2-2.7 1.5-3.5-.7-.8.6-2.9 4-6.7 2.8-3.1 5-6.1 5-6.7 0-.6.6-1.1 1.3-1.1.7 0 1.8-.5 2.5-1.2.9-.9.5-1.5-1.8-2.4-4.6-2-3.6-3.4 2.3-3.4 5.6 0 7.9-1.5 10.6-6.7 1-1.9.6-2.6-3.3-5.7-3.4-2.9-5.2-3.6-8.5-3.6-2.8 0-5.4-.8-7.9-2.5-2-1.4-4.9-2.5-6.5-2.5-3 0-3.3-1.6-.6-3.3 1.1-.7 2.8-.2 6 1.9 2.4 1.5 6.4 3.1 8.9 3.5 2.5.4 5.9 1.2 7.6 2 2.8 1.1 3.5 1 6.1-.9 1.8-1.3 3.3-3.4 3.6-5.2.6-2.8.9-3 5.2-3 3.8 0 5.1-.6 8.5-3.6 2.2-2 4-4.5 4-5.6 0-1 .9-3.1 2-4.6 1.1-1.6 2-4.7 2.2-7.7l.3-5-7.4-.8c-6.2-.7-8.1-1.4-11.9-4.3-3.3-2.5-5.5-3.4-8.3-3.4-3.2 0-3.9-.3-3.9-2s.7-2 4.5-2c5.4 0 11.5 2.8 13.9 6.4 1.4 2.2 2.4 2.6 6.7 2.6 4.6 0 5.5-.4 8.5-3.7 2.8-3 7.4-14 6.2-14.7-.2-.1-2-.9-4-1.9-5.5-2.4-4.7-3.7 2.2-3.7 5.3 0 6 .2 6 2 0 3 6.6 2.9 7.5-.1.6-1.9.8-1.9 2.4-.5 1.7 1.5 4.1 2.2 4.1 1.1 0-.3-.8-1.7-1.7-3.1-1.4-2.2-1.4-2.7-.2-3.4.8-.6 1.9-.4 2.9.5 1.3 1.1 2 .9 4.6-1.3 1.9-1.6 3.7-4.5 4.5-7 .7-2.3 1.8-4.7 2.6-5.3.8-.7 1.3-3.2 1.3-6.5 0-5.2-.2-5.5-4-8-2.7-1.8-4-3.4-4-4.9 0-1.3-1.3-3.4-3-4.8-3.7-3.1-3.8-4.7-.5-4.7 2.1 0 2.9-.9 4.6-4.7 1.6-3.7 1.7-4.8.7-5.5-.7-.4-1.6-.8-1.9-.8-.3 0-.4-1.4-.1-3 .4-2.9.3-3.1-2.1-2.5-1.7.5-3.7.1-5.6-1.1-2.5-1.5-2.9-2.3-2.4-4.3.6-2.3.4-2.4-2.7-1.8-1.8.4-5 .2-7.1-.3-2.8-.8-5.1-.8-8 0-3.9 1.1-4.1 1.3-3.5 4.2.3 1.7.6 3.9.6 5 0 1 1.3 3.1 3 4.6 2.1 1.9 2.7 3.1 2 4.2-.5.8-.5 2.1.1 3.2.8 1.5.6 1.8-1.1 1.8-1.8 0-2 .6-2 7.3 0 4.9-.5 8-1.5 9.3-.8 1-1.7 4.1-2.1 6.7-.4 2.8-1.3 5.1-2.1 5.4-.8.3-1.9 1.6-2.4 2.9-1.2 3.2-2.7 3-3.5-.4-.4-1.5-2.2-4.7-4-7.2-3.9-5.4-4.8-8.7-3.5-12 .7-1.8 1-2 1-.8.1 2.1 1.7 2.4 2.4.5 1.1-2.9-1.8-9-6-12.4-2.4-2-4.3-4.4-4.3-5.4 0-2.5-.8-2.4-3 .3-1.3 1.6-2.1 4.8-2.5 10.5-.5 6-1.1 8.3-2.1 8.3-.8 0-1.6-1.8-2-4.9-.4-2.8-1.8-6.7-3.5-9.2-2.6-3.9-2.7-4.4-1.3-7 1.9-3.7 1.8-3.9-.9-3.9-1.3 0-2.8-.5-3.5-1.2-.8-.8-1.5-.8-2.7.2-1.3 1.1-2 .9-4.1-1.1l-2.5-2.3 2.3-1.8c1.8-1.3 2.1-1.9 1.1-2.9-2-2-1.5-3.6.8-3.5 2.8.1 3.6-2 1.1-2.8-2.6-.9-8.2-12-8.2-16.4 0-4.5-6.4-15.4-8.6-14.5-.8.3-2.1-.2-2.8-1.2-1.3-1.9-3.6-1.3-3.6.8 0 .7-.9 1.8-2.1 2.5-1.6 1.1-1.8 1.6-.9 2.7 1.7 2 .6 4.3-2.2 4.7-2 .3-2.4 1.1-2.9 5.6-.4 2.9-1 5.6-1.3 5.9-.3.4.3 1.3 1.5 2.1l2 1.4-2.2 2.4c-3.4 3.6-2.1 8.8 3.5 14.1 2.5 2.4 5.3 4.3 6.4 4.3 1 0 2.4 1.1 2.9 2.3.9 1.9 1.7 2.3 4.2 1.9 1.9-.2 3.1 0 3.1.7 0 .6-1.2 1.1-2.8 1.1-2.3 0-2.9.6-4 4-1.4 4.5-.7 9 1.3 9 .8 0 1.5-1.2 1.7-2.8.5-4.1 2.3-2.8 2.6 1.9.2 3-.2 4.7-1.6 6.3-1 1.1-2.5 3.6-3.2 5.3-1.1 2.8-1.7 3.3-4.6 3.3H446v17.2l-3.2-1.9c-3-1.7-3.3-2.4-3.5-7.1-.1-2.8.2-5.4.7-5.7.6-.4 1-2.1 1-3.9 0-3-.3-3.4-3.5-3.9-1.9-.3-5-1.8-7-3.3-3.4-2.6-3.5-2.6-3.5-.5 0 1.6-.6 2.1-2.5 2.1-1.4 0-2.5.5-2.5 1 0 1.2 4.9 6 6.1 6 .4 0 1.8 1.4 3 3.1 1.8 2.5 1.9 3.3.8 4-.9.5-2.1.2-3.4-1-1.1-.9-3.3-2.3-4.9-3-2.5-1-3.1-1-3.8.3-1.2 2.1-3.4 2-7.3-.4-2.6-1.6-3.8-1.8-6-1-1.4.5-5.2 1-8.4 1-5.3 0-5.9-.2-9.6-4.1-2.7-2.7-4.6-3.8-5.9-3.5-2.5.6-6.6-1-6.6-2.7 0-.8-.9-2.2-2-3.2-1-.9-2.2-3.7-2.6-6.1-.9-6-3.7-9.6-6.7-8.5-1.2.5-5.3 1.4-9.2 2-4.4.8-7.8 2-9.2 3.3-2 1.9-2.1 2.2-.6 4.4 1.7 2.6 6 3.3 6.9 1.1.2-.7 1.6-1.4 3-1.5 1.4-.1 4.1-.9 6-1.8 3.7-1.8 6.4-1.3 6.4 1.1 0 1.5-8.8 6.5-11.6 6.5-3.1 0-9.5 4.3-8.9 6 1.1 2.6 2.5 11.1 2.5 14.7 0 3.1-.2 3.3-2.1 2.2-1.9-1-2-.8-1.4 1 .5 1.5.2 2.1-1 2.1-2.1 0-2.9-2.4-1.8-5.7 1.3-4 0-10.5-2.6-12.1-1.1-.8-2.1-2.3-2.1-3.3 0-1.1-.6-1.9-1.4-1.9-.8 0-1.8-.9-2.1-2-.7-2.2-4.1-4.5-4.9-3.2-.3.5-4.4.6-9.2.4-7.2-.4-10.1-1.1-16.1-3.8-4.1-1.9-8.5-3.4-9.9-3.4-2.8 0-3.2-2.4-.9-5.6 1-1.5 2.2-2 3.9-1.7 5.9 1.2 8.3-3.8 5.2-11-1.8-4.4-4.4-6.4-9.3-7.2-5.2-.8-14.7-7.3-15.1-10.2-.2-1.3-2.4-3.5-5.3-5.5-3.8-2.5-5.8-4.8-8.4-9.9-3.9-7.6-5.1-8.8-9.9-9.6-2.7-.4-3.6-.2-3.6.8 0 .8-1.1 2.1-2.3 3-2 1.5-2.7 1.5-5.5.3-3.7-1.5-4.1-2.9-1.2-4.4 1.3-.7 2-2.1 2-4s.7-3.4 2-4.2c2.1-1.3 2.7-4.3 1.1-5.2-.5-.4-2.1.7-3.4 2.4-1.4 1.6-3.2 3-4.1 3-.8 0-2.3 1.1-3.4 2.5s-2.7 2.5-3.6 2.5c-1.4 0-1.6-1.8-1.6-13.5 0-12.8-.1-13.5-2-13.5-1.6 0-2 .7-2 3.6 0 2.1-.4 3.3-1 2.9-1.8-1.1-5 .6-5 2.6 0 1.2-.7 1.9-2 1.9-1.1 0-2-.6-2-1.4 0-2.1-9.3-3.2-13.1-1.6-2.3 1-3.3 1-4.2.1-.6-.6-2.7-1.1-4.6-1.1-3.9 0-12.1 2.8-12.1 4.1 0 1.6-3.8.9-4.4-.8-1.1-2.7 1.4-4.2 9.7-6 6.3-1.3 8.1-1.4 10-.4 3.5 1.9 16.1.2 16.5-2.2.3-1.3-.3-1.7-2.7-1.7-1.9 0-3.1-.5-3.1-1.3 0-1.6-19.6-1.3-21.6.3-.8.8-1.9.8-3.1.2-1.3-.7-3.6-.4-7.8.9-7.7 2.4-14.5 1.8-14.5-1.4 0-1.2-1.9-4-4.1-6.3-4-4.1-5.8-8.5-6.2-15.4-.2-2.2-3.6-8.9-7.2-14.3-1.1-1.6-8.5 6.4-65.3 70.5zM543 286.1c-1.4.6-4.2.8-6.2.5-2.9-.5-3.8-.3-3.8.8 0 2.5 2 6.8 4.4 9.7 1.4 1.6 2.7 4.2 3.1 5.9.4 1.6 1.3 3 2 3 2.7 0 4.5-1.2 4.5-3 0-2.8 1.9-3.5 8.5-3.2 4.9.3 6.4 0 7.8-1.6 1.7-1.8 1.5-2.1-4.7-7.6-6.8-5.9-9.8-6.8-15.6-4.5z"/><path d="M328.2 288.8c-4.2 2.1-5.5 2.4-6.1 1.3-.6-1-2.7-.3-9 2.8-6.9 3.5-8.1 4.5-8.1 6.6 0 1.4-.4 2.5-.9 2.5-.4 0-2.9 1.6-5.5 3.5-4.8 3.7-6 6.5-2.7 6.5 2.6 0 4.4 2.3 3 3.7-2.3 2.3.3 3.3 8.7 3.3 7.7 0 8.4.2 8.4 2 0 1.9-.7 2-9.1 2-7.4 0-11.3.7-13.6 2.4-.1.1.4 2.2 1.1 4.6 1.3 4.3 1.6 4.6 7.7 6.9 3.5 1.3 8.9 2.6 12 2.8 4.8.4 5.8.8 7.2 3.3.9 1.5 2.9 3.1 4.4 3.5 3.5.8 7.3 4.3 7.3 6.7 0 3.6-7.7 2.1-12.7-2.4-2.8-2.6-12.1-4.8-20.4-4.8h-6.7l-.6 3.4c-.5 2.5 0 5.1 1.7 9.3 2.2 5.5 2.6 6 9.5 9.6 5.6 2.9 7.2 4.3 7.2 6 0 2.2 2.5 12.6 3.2 13.3.2.2 5.9 1.2 12.5 2.2l12.2 1.9 4.6-2.9c4.2-2.6 4.9-2.8 8.8-1.7 4.2 1.1 4.2 1.1 7.8-3 3.7-4.2 6.9-5.3 6.9-2.6 0 2.3 5.1 6.4 7.9 6.5 2.3 0 2.3.1.8 1.8-2.5 2.7-2.1 3.2 2.3 3.2 2.3 0 5.2.7 6.5 1.6 2.3 1.5 3.1 1.5 7.7.2 4.9-1.3 5.3-1.7 6.2-5.3.7-3.2.6-4-1-5.2-2.3-1.7-3.4-1.7-3.4.1 0 .8-.7 1.6-1.5 2-1.1.4-1.5-.1-1.5-1.8 0-1.4-.3-3.1-.6-3.9-.4-1.1 0-1.4 1.3-1.1 1.1.3 2.6-.3 3.7-1.5 1.9-2.1 4.6-2.8 4.6-1.4 0 .5.5 1.5 1 2.3.8 1.3 1.1 1.2 2.5-.5 1.2-1.4 1.8-1.6 2.1-.8 1.2 2.7 2.4 1.1 2.4-3 0-3.9-.3-4.4-3.3-5.5-2.2-.8-4-2.6-5.7-5.7-1.8-3.3-2.9-4.3-4.2-3.9-1.3.4-2.4-.9-4.9-5.7-3.1-6.2-3.1-6.5-3.6-24.3l-.4-18.1-3.6-6.2c-3.3-5.6-3.9-6.1-7.5-6.5-4.5-.4-4.4-.6-5.3 11.4-.4 4.9-1.1 9-1.5 9.3-.5.3-.3 2.3.5 4.5 1.3 3.7 1.3 4-.6 5.1-1.2.6-2.3.8-2.7.5-.3-.4-.9-4.6-1.2-9.4-1.1-13.8-6-23.5-9.6-18.7-1.3 1.8-1.3 2.1.2 3.2.9.7 2.1 1.4 2.7 1.6 2.1.7-.5 2.7-3.4 2.7-1.7 0-3.2.6-3.5 1.5-.4.8-1.8 1.5-3.2 1.5-2.5 0-2.5 0-.7-2s1.8-2.2-.5-6.9c-1.2-2.7-3.3-5.4-4.6-6-2.2-.9-2.6-.7-4.7 2.4-1.6 2.6-2.9 3.5-4.9 3.5-3.8 0-3.5-1.4.8-4.1 3.5-2.1 3.6-2.3 2.9-6.8-.4-2.5-1-4.9-1.3-5.2-.4-.4-3.1.5-6 1.9zM454.4 288.4c-4.4 1.6-6.6 3.7-6.1 5.8.4 1.3 0 1.8-1.4 1.8-1.8 0-1.9.8-1.9 11.2.1 7.9.5 12.1 1.5 13.8.8 1.4 1.4 4.2 1.5 6.3 0 3.1.4 3.9 2.7 4.8 2 .7 3 .6 4-.4 1.9-1.9 3.5-9.2 2.7-12.4-.7-2.7-.2-2.8 6.1-.8 1.6.5 2.7-.3 5.3-3.9 1.8-2.4 3.2-5.4 3.2-6.5 0-1.2 1.1-4.4 2.5-7.1 1.4-2.7 2.5-5.8 2.5-7 0-1.8-.6-2-5.2-2-3.8 0-6.5-.7-9.7-2.5-2.3-1.4-4.4-2.4-4.5-2.4 0 .1-1.5.6-3.2 1.3zM517.7 288.7c-.2.4-.7 1.9-1 3.3-.4 1.6-1.9 3.2-4 4.2-3.1 1.5-3.5 2.1-4 7-.4 2.9-.7 7.6-.7 10.4 0 4.4.3 5.2 2.4 6.2l2.4 1.1-2 4c-1.3 2.6-1.8 5-1.4 6.6.5 2.1 1.2 2.5 4.5 2.5h3.9l.4 5.5c.3 5.2.2 5.5-2.1 5.5-2 0-2.2-.4-1.7-2.4.5-2-.3-3.3-4.6-7.4-5.1-4.8-5.2-5.2-6.1-12.3-1.7-14.2-1.7-21.7-.1-22.3 1.4-.5 2.2-2.2 3.8-7.4.7-2.1.5-2.2-6.1-2.2l-6.8.1-4.5 6c-2.5 3.4-5.1 6.8-5.7 7.8-.9 1.2-1 2.6-.3 5.1.8 2.8.6 4.3-1.4 8.6-1.5 3.3-2.1 5.6-1.5 6.5.5.8.9 5.7.9 11 0 11-.2 10.8 9.7 10.4 4.5-.2 5.4.1 6.7 2.1 1.5 2.1 1.4 2.3-.5 2.9-1.1.4-3 0-4.3-.9-1.9-1.2-2.7-1.3-4.1-.3-1.5 1.2-1.5 1.6.1 5.7 1 2.5 2.4 4.9 3.3 5.4.8.5 2.5 2 3.7 3.3 3 3.2 8.6 2.9 9.4-.5.5-2.2.6-2.2 4.5 1.8 4.4 4.5 5 4.7 8.5 2.1 2.2-1.8 2.5-1.8 3.6-.3s1.8 1.5 5.9.4c3.8-1 5.4-1 8.2 0 3.1 1.1 3.6 1.1 4.8-.5 1.2-1.7 1.5-1.7 4.4-.3l3.1 1.6-.6-2.9c-.6-2.7-.4-2.9 3.2-3.3 2.2-.3 4.4-.1 5.1.4.7.6 2.1.3 3.8-.8 2.7-1.8 2.7-1.8-2-7.3l-2-2.4 2.5.6c1.4.4 4 .7 5.8.7 2.8 0 3.5.5 5.4 4.5 1.4 2.9 2.9 4.5 4 4.5 1 0 1.8.4 1.8 1 0 .5 1.2 1 2.6 1 1.5 0 4.4 1 6.5 2.2 3.1 1.7 3.9 2.8 3.9 5 0 2.1-.6 2.9-2.6 3.4s-2.4 1.2-2.2 3.3c.2 1.8 1 2.7 2.5 2.9 1.8.3 2.6-.5 3.8-3.6 1.4-3.4 1.9-3.8 4.3-3.4 1.5.2 3.8 1.5 5.2 2.8 1.7 1.6 3 2 4 1.4 1-.6 1.7-.2 2.5 1.3.5 1.2 3.1 3.3 5.7 4.7 2.9 1.5 6.8 5.2 10.2 9.4 5.1 6.3 5.5 7.1 4.1 8.6-.9 1-1.5 3.6-1.5 6.3 0 3.8-.7 5.7-3.5 9.6-4.6 6.4-4.5 8.3.8 11.9 2.3 1.6 5.1 3.9 6.1 5.1 1.6 1.8 1.7 2.1.3 2.1-.9 0-2.8 1.1-4.3 2.5s-3.3 2.5-3.9 2.5c-.7 0-1.5.6-1.8 1.4-.7 1.9-6.9 3.6-12.9 3.6-6.8 0-7.9.6-6.7 3.7 1 2.6.7 2.9-4.5 6.5-.6.4-.4 1.8.4 3.8 3.9 9.3 10.7 12.1 18.5 7.5 4.9-2.8 4.9-2.8 3.5-5.5-1.3-2.5 1.3-3.3 6-2 1.9.6 3.6 1 3.7 1 .2 0 .3-.9.3-1.9 0-1 .9-2.9 1.9-4.2l1.9-2.4 1.3 2.8c1.3 2.9 1.7 3.1 3.8 1.8 1-.7 3.4.4 8 3.5 5.5 3.7 7.4 4.4 11.3 4.4h4.8v4.5c0 5.8 1.9 6.8 13.5 7 6.3.1 9.9.6 12.2 1.8 3.6 1.9 8.7 2.1 18.1.7 4.7-.6 7.5-.5 11 .5 4.1 1.3 4.8 1.2 6.4-.2 1.6-1.5 1.6-1.7-.3-5.4-1.3-2.6-2.6-3.9-4-3.9-1.1 0-3.5-1.1-5.2-2.4-3.3-2.5-12.4-5.6-16.3-5.6-1.4 0-3.7-1.7-6.3-4.9l-4.1-4.9 5 1.3c2.8.7 7.4 2.3 10.3 3.5 4.6 1.9 5.9 2 10.7 1.2 4.8-.9 5.9-.8 8.8 1l3.2 2v-5.1c0-3.9-.4-5.1-1.8-5.5-1-.4-2.9-2-4.1-3.7l-2.3-3.1 2.3.7c1.3.4 3 1 3.6 1.2 1 .4 1-.2.2-2.4-.6-1.9-2.3-3.6-4.4-4.6-1.9-.9-3.5-2.3-3.5-3.1 0-.9-1.7-2-4-2.7-3.7-1.1-3.9-1.4-2.5-2.9 1.3-1.4 1.3-1.9.2-2.8-.7-.6-2.2-.9-3.4-.6-1.5.4-2.6-.3-4.3-2.6-2.1-3-2.6-3.2-6.6-2.6-4.2.5-4.5.4-7-3.3-2.9-4.5-5.9-5.7-9.1-3.6-2.9 1.9-3.3 1.9-3.3-.4 0-1.2-1.1-2.3-3-3-2-.7-3-1.7-3-3.1 0-1.9.2-2 2.8-.7 2.8 1.4 6.2 1.2 6.2-.3 0-1.2-4.1-5-5.4-5-.6 0-.5-.4.3-.9 1.2-.8 1.3-1.5.4-3.4-.7-1.4-.9-2.8-.6-3.1 1.2-1.2 4-.6 5.7 1.3.9 1 3.7 2.4 6 3.1 3.7 1 4.7 1 6.9-.4l2.4-1.7-.1 3.8c-.1 3.4.3 4 5.7 7.7 4.1 2.9 6 3.7 6.8 2.9.6-.6 2.8-.9 5-.6 4.3.6 4.9-.3 2.4-4-.8-1.2-2.1-4.1-2.9-6.5-1.4-3.9-1.4-4.2.3-4.2 1.9 0 5.1-5.7 5.1-9 0-1.5-.7-2-2.5-2-2.1 0-2.5-.5-2.5-2.9 0-2.1.6-3.2 2-3.6 2.2-.7 2.6-2 .9-3.1-.6-.3-.9-1.9-.6-3.4.6-2.5.3-2.8-3.1-3.3-2.8-.5-4.6-.1-7.8 1.8-2.4 1.4-4.5 2.5-4.8 2.5-.3 0-.6-1.9-.6-4.2v-4.3l-2.6 3.7-2.7 3.7-2.6-1.8c-1.4-1.1-3.7-3.1-5-4.5-1.8-1.9-3-2.4-4.8-2-2 .6-2.3.3-2.3-2.5 0-4.2-1.4-3.9-4.6.9-2.2 3.4-3.2 4-6 4s-3.8-.6-5.4-3.2c-1.9-3.2-2.1-3.2-10.1-3.4-9-.2-11.8-1.5-7-3.2 3.5-1.2 3.8-2.4 1.7-6.5-1.4-2.6-1.4-2.7.7-2.7 1.3 0 3.3-.7 4.5-1.6 1.9-1.3 2.1-1.9 1.1-3.1-1-1.1-2.6-1.3-7.6-.7l-6.4.6 1.3-2.8c.6-1.6 1.8-3.7 2.6-4.6 1.2-1.4 1.1-1.8-1-2.9-1.3-.7-3.3-1.9-4.6-2.7-2.1-1.4-2.2-1.3-2 .9.3 2.2-.1 2.4-4.1 2.7l-4.4.3 3.2-3.9c1.7-2.2 3.1-4.2 3.1-4.5 0-.3-2.3-1-5.1-1.7-4.5-1.1-5.1-1.1-6.4.6-1.3 1.6-1.6 1.7-2.4.4-.8-1.2-1.3-1.2-3 .4-2.1 1.9-2.1 1.9-2.1-1.7 0-3-.4-3.7-2-3.7-1.5 0-2 .7-2 2.6 0 3.9-1.7 6.3-4 5.7-2.4-.6-2.5-2.7-.5-6.6 1.8-3.5.6-6.4-3-7.3-3.7-.9-5.3.1-5.7 3.7-.4 4.7-2.4 4.6-4.8 0-1.1-2.3-2.3-4.1-2.6-4.1-.3 0-1.9 1.1-3.6 2.5-1.6 1.4-3.4 2.5-3.9 2.5-1.6 0-.9-3.3 1.2-5.6 1.7-1.8 1.9-2.6.9-4.4-.9-1.6-1.7-2-3.6-1.6-1.6.4-2.4.2-2.4-.7 0-2.1-3.8-3.5-11-4.1-7.7-.7-11.4.7-11.8 4.4-.1 1.4-.5 3.5-.7 4.7l-.5 2.3-2.1-2.1c-1.1-1.1-3-1.9-4.2-1.7-1.8.2-2.4 1.2-3.1 5.5-.6 3.4-1.4 5.3-2.2 5.3-1.7 0-1.8-3.4-.3-6.2.9-1.7.8-2.4-.6-3.4-1.2-.9-1.6-2-1.1-3.9.8-3-1.5-8-4.5-9.6-1.5-.8-1.9-1.7-1.5-3.4.4-1.5-.1-3.1-1.3-4.6-1.6-2-2.3-2.2-4.7-1.3-2.2.8-3.4.7-5.1-.3-1.1-.8-2.3-1-2.6-.6zM379.6 293.2c-.8 1.2-1.2 2.6-.9 3.2.4.6 2.4 3.7 4.6 7 4.3 6.4 4 6.4 8.2-1.5l2.3-4.5-2-3.2c-1.7-2.8-2.5-3.2-6.3-3.2-3.4 0-4.7.5-5.9 2.2zM417.6 291.7c-2.6.4-2.8.7-2.3 3.9.5 3 .4 3.4-1.2 2.9-1-.3-2.3.1-3 .9-1.5 1.8.2 6.6 2.4 6.6 1.1 0 1.5 1.2 1.5 5.1 0 4.6-.2 5-2.2 4.7-1.5-.2-2.6-1.4-3.3-3.3-1.7-5.1-3.5-5.7-6-1.8-1.6 2.4-1.6 2.8-.1 5.4.9 1.5 1.6 4.1 1.6 5.7 0 2.6.5 3.2 3.6 4.2 4.3 1.5 10.4 10.2 10.4 14.9 0 2.3.7 3.4 2.8 4.5 3.6 1.9 6.2.5 6.2-3.4 0-2.3.3-2.7 2-2.3 1.2.3 3.6-.5 6-2.1 4.4-2.9 4.7-4.3 3.4-14-.6-4.1-.9-4.6-2.7-4-1.7.6-1.9.3-1.3-2.2.8-3 2.2-4.4 4.4-4.4.6 0 1.2-.9 1.2-2.1 0-1.8-.4-2-2.6-1.5-9.3 2.4-9.8 2.1-5.9-3 1.4-1.8 2.5-4 2.5-4.8 0-.9.7-1.6 1.5-1.6 1.9 0 1.9-1.9 0-4.4-1.4-1.9-2.5-1.9-9.9 0-2.1.5-2.8.1-3.7-2-.7-1.4-1.5-2.5-1.8-2.5-.3.1-1.9.4-3.5.6zM167.3 297.6c-1.8 1.3-2 2-1.2 4.2.6 1.5 1.5 3 2.1 3.3.6.4 4.3-.4 8.4-1.8 5.9-2 7.2-2.8 6.7-4.1-1.1-3-1.5-3.3-2.8-2.2-.9.7-2.6.8-5.6.1-5.4-1.3-4.9-1.3-7.6.5zM425.7 379.8c-1.9 2-2.7 3.9-2.7 6.4 0 3.7-1.2 4.8-5.2 4.8-2.6 0-2.1 4.3.5 4.8 1.1.2 2.7 1.2 3.7 2.2 1 1 5.3 3.5 9.6 5.5l7.8 3.7 4.1-4.3 4-4.4-2.7-.3c-2.3-.3-2.8-.8-2.8-3.1 0-1.8-1.2-3.8-3.5-6.1-1.9-1.9-3.5-3.9-3.5-4.6 0-1.4-4.8-7.4-5.9-7.4-.4 0-1.9 1.3-3.4 2.8z"/><path d="m590.8 388.7-3.8 1.5v6.3c0 3.4.3 7.7.6 9.4.6 2.9.9 3.1 4.8 3 7.3-.2 9-1.1 10.5-5.7 1.2-3.8 1.1-4.5-.3-6.1-.9-1-1.6-3.5-1.6-5.9 0-4.1-.1-4.2-3.2-4.1-1.8 0-5 .7-7 1.6zM604.9 388.6c-.6.7-.8 2.2-.4 3.4.5 1.5 1.5 2 4.3 2 5.1 0 6.7-1.2 5.3-3.8-1.3-2.4-7.6-3.5-9.2-1.6zM539.3 450.8c1 1 1.7 2.6 1.7 3.4 0 .9 1 1.8 2.3 2.2 7.2 1.9 7.7-1.3.7-4.9-5.9-3-6.9-3.1-4.7-.7zM533.5 455c1.2 4.2 1.9 5 3.5 4 1.3-.8 1-1.4-1.4-3.7l-2.8-2.8.7 2.5z"/><path d="M526.9 455.7c-1.1 1.2-1.3 4.8-1.1 14.8.1 7.3.6 14.5 1.1 16.1.7 2.5.2 4-3.2 9.7-2.2 3.7-3.8 6.9-3.6 7.1.2.2 3.3-.2 6.9-1 3.5-.7 6.6-1.1 6.8-.9.2.2.6 2.2.9 4.5l.6 4.2 3.6-.7c4.4-.8 5.1-1.2 5.1-3 0-3.1 3.4-8.4 5.7-9 2.2-.5 2.4-.9 1.8-4.4-.5-3.3-.3-4 1.8-5.4 2.3-1.5 2.5-1.5 3 .3.3 1.3 1.4 2 3 2 1.9 0 2.6.6 2.9 2.2.2 1.9 1.4 2.5 6.6 3.7 7.1 1.6 8.1 1.3 11.9-3.6l2.4-3.1-2.3-2.7c-2.2-2.5-2.6-2.6-6.3-1.6-5.8 1.6-7.4 1.4-6.8-.7.7-2.9-5.5-12.2-8.2-12.2-1.2 0-4.1-1.4-6.3-3-2.4-1.7-5.4-3-7.1-3-2 0-3-.6-3.4-2-.6-2.4-5.7-2.9-5.7-.5 0 3.1-2.1 1.3-4.7-4-1.5-3-3-5.5-3.4-5.5-.4 0-1.3.7-2 1.7zM610.7 483.9c-2.1.8-1.4 1.7 3.2 4.1 3.1 1.6 4.8-.6 2.4-3.2-1.7-1.9-2.7-2.1-5.6-.9zM601.7 490.2c-1.7 1.3-1.7 1.5.7 3.7 2.7 2.5 5.3 2.5 7-.1 1.9-3.2-4.3-6.1-7.7-3.6zM567 508.7c-2.5.8-5.5 1.1-6.6.8-1.9-.4-2.3.1-2.9 3.2-.4 2.1-1.3 4.9-2 6.3-1.1 2.1-1.1 3.1.1 5.9 1.3 3.1 1.6 3.3 3.2 1.9.9-.9 3.1-1.9 4.9-2.3 2.4-.5 4-1.9 6.3-5.6 2.7-4.2 3.1-5.4 2.4-8.2l-.9-3.3-4.5 1.3zM592.7 516.8c-3.8 3.9-3.6 7.9.6 12 2.6 2.5 3.6 2.9 4.5 2 2.4-2.4.8-16.8-1.8-16.8-.3 0-1.8 1.3-3.3 2.8zM5.8 570.3C4 571.8 3 573.5 3 575.2c0 1.5-.5 3-1 3.3-.6.4-1 2.5-1 4.8.1 2.3-.2 6-.5 8.2-.4 2.2-.2 8.2.3 13.4.8 7.3 1.4 9.8 3.1 11.4 1.6 1.6 2.3 1.9 3.3.9.9-.9.9-1.7 0-3.7-.7-1.4-1.2-5.5-1.2-9.1 0-5.8.2-6.6 2.1-7.1 1.7-.5 2-1.1 1.5-3.8-.6-2.8-.2-3.7 2.9-6.4 2-1.7 4-3.1 4.5-3.1 1.3 0 5-3.7 5-5 0-.6-1.3-1-3-1-1.6 0-3 .5-3 1.1 0 .5-.5.7-1.1.3-.6-.3-.9-1.7-.6-3 .3-1.8 0-2.4-1.4-2.4-1.2 0-1.9-.9-2.1-2.7-.4-3.5-1.7-3.7-5-1zM931.1 603.3c-1.6.8-2.9 3-4.2 7.2-1.7 5.4-1.8 7.3-.8 18.4.5 6.9 1.7 15.6 2.5 19.4.7 3.7 1.4 8.3 1.4 10.1 0 2.4.7 3.8 2.3 4.9 1.8 1.2 2 1.8 1 2.8-.7.7-1.3 3.3-1.3 5.8 0 3.5-.6 5.1-2.6 7.2l-2.6 2.7 2.2 1.2c1.7.9 2.5.9 3.8-.3 3.6-3 4.1-2.9 3.5 1-.3 2.1-1.3 5.3-2.1 7.2-1.5 3.3-1.5 3.4 1.2 5.7 1.5 1.3 3.3 2.4 3.9 2.4 1.3 0 15.7-9.7 19.2-12.9 1.1-1.1 4-2.2 6.5-2.6 4.4-.6 4.7-.9 8.3-7.6 2.1-3.8 4.2-6.9 4.6-6.9 1.5 0 3.1 2.5 3.1 4.9v2.4l2.4-2.2c1.4-1.3 2.3-2.8 2-3.5-.6-1.6 5.2-7.1 6-5.7.4.6.1 2.3-.7 3.8-.8 1.6-2.1 4.8-2.9 7.3-.8 2.5-1.9 5.3-2.3 6.2-.5 1.3-.1 2 1.6 2.7 2 .7 3 .4 5.6-2.1 2.7-2.6 3.2-3.9 3.7-9.7.9-9.3.9-12.2.1-15.9-.5-2.4-.4-3.2.6-3.2 3.5.1 7.9 6.2 7.9 11 0 2.9.6 4.1 2.5 5.4 1.3.9 2.7 1.6 3 1.6.3 0 .5-2.3.5-5 0-4.3.3-5 2-5 1.3 0 2 .7 2 1.8 0 1.8 4.6 7 5.4 6.1.2-.2 1.1-1.9 2-3.7 1.6-3.2 1.6-3.8 0-10.7-1.5-6.5-2.2-7.8-5.3-10l-3.6-2.5-.6 3.5c-1.2 7.3-3.9 5.6-3.9-2.6 0-5.2-.2-5.9-2-5.9s-2 .7-2 7-.2 7-2 7c-1.5 0-2-.7-2-2.5 0-1.4-.6-2.5-1.2-2.5-.7 0-1.9-.4-2.7-.9-1.1-.7-1-1.5.8-4.5 1.5-2.4 2.1-4.7 1.9-7.3l-.3-3.8-2.9 4.2c-2.6 3.9-5.6 5.7-5.6 3.4 0-.5-1.1-1.2-2.5-1.5-3-.8-4.3-4.7-2.8-8.7 1.6-4.2-1.6-4.4-9.3-.6-4.9 2.4-6.4 3.6-6.4 5.3 0 1.1-.8 2.8-1.8 3.7-1.6 1.5-1.9 1.5-3-.4-1.2-1.9-1.3-1.9-3.7 1-2.3 2.7-2.8 2.8-6 1.8-3.9-1.2-4.1-1.6-2-5.6 1.2-2.4 1.2-3.1.2-4-1-.7-2.2-.4-4.5 1.2-2.6 1.8-3.3 3.1-3.8 7-.6 4.4-1.8 6.6-3.1 5.4-.3-.3-1-4.9-1.7-10.1-.9-6.5-1.8-10.2-3.1-11.6-1.6-1.8-1.6-2-.2-2 2.6 0 2.4-9-.1-9.7-1.4-.3-1.7-1.2-1.4-3.9.5-3.8-.6-4.3-4.7-2.1zM628.9 631.4c-1.9 1.7-5.9 9.9-5.9 12.2 0 .1 1.2.4 2.6.7 2 .4 3.5-.3 6.2-2.7 3.4-3.2 3.5-3.3 2.2-7.2-1.7-5.3-2.1-5.6-5.1-3zM20.4 662.2c.3 1.3.6 2.9.6 3.6 0 .7 1.2 2.4 2.6 3.7 2.4 2.3 2.5 2.5.7 2.5-1.2 0-2.5 1.1-3.2 2.7-1.1 2.4-.9 2.9 1.8 5.4 1.7 1.5 3.1 3.6 3.1 4.5 0 1 1.4 3.3 3.1 5l3.2 3.3-2.2 2.7c-2.1 2.7-2.1 2.9-.5 4.1 1 .7 2.3 1.3 3 1.3.8 0 1.5 2.6 1.9 7 .6 6.2.9 7 2.5 6.5 2-.6 3.5 1 3.6 4 0 2.1 13.3 20.9 14.1 20.1.7-.7 4.3-14.9 4.3-17 0-1.1-1.8-4.3-4-7.2-3.3-4.3-4-6.1-4-9.7 0-2.4-.5-7-1.2-10.3-1-5.1-2.1-7.1-8.7-15-4.2-5-8.3-10.5-9.3-12.2-1.8-3.4-4.9-5.6-9.2-6.6-2.6-.6-2.8-.5-2.2 1.6zM857.1 691.4l-6.5 3.3 5.6.7c3.1.4 6.4 1.4 7.4 2.1 2.9 2.2 11.3 1.8 19-.9 10.1-3.5 10.4-3.7 10.4-5.6 0-2.1-5.9-3-20-2.9-8.8 0-10 .3-15.9 3.3zM615.5 706.4c-4.3 1.2-5.7 3.9-2.8 5.1 2.7 1.1 17.5 3.6 18.1 3.1.2-.3-1.3-2.5-3.3-5-4-4.9-5.3-5.3-12-3.2zM906.2 719.2c-1.9 5.5.3 9.7 4.3 8.2 1.2-.5 1.3-.9.4-2-.7-.9-.9-2.9-.5-5.4.5-3.4.4-4-1.2-4-1.1 0-2.2 1.2-3 3.2zM928.6 723.9c-.3 2-.8 7.9-1.1 13.3l-.7 9.6 3.8 2.6c5.8 3.9 8.2 3.4 13.2-2.4 2.4-2.7 5-6.6 5.8-8.6 1.3-3.2 1.3-3.8 0-5.9-1.4-2-1.9-2.2-5.3-1.4-2.1.5-4.8.9-6.1.9-2.2 0-2.3-.3-1.7-4.3.6-4.2.6-4.2-3.4-5.8l-4-1.7-.5 3.7zM914.8 742.1c-1.6.4-4.5 2.1-6.5 3.7-2.1 1.6-5.4 3.3-7.3 3.7-1.9.4-4.7 1.4-6.2 2.1-3.3 1.7-5.7.9-6.9-2.2-.4-1.3-1.5-2.4-2.2-2.4-1.9 0-3.2 9.1-1.5 10.1 1.8 1.1 11.3 2.4 17.3 2.3 12.5-.1 17.6-2.4 14-6.4-1.4-1.5-1.3-2.1.6-6.4 1.1-2.6 1.9-4.9 1.7-5-.1-.2-1.5 0-3 .5zM641.2 858.2c-.7.7-3.9 1.1-7.6 1.1-6 0-6.4.1-6.9 2.3-.4 2.2-.1 2.4 3.9 2.4 2.3 0 5.3.4 6.6.9 1.3.4 4.4 1.1 7.1 1.5l4.7.7v-3.9c0-3.6-.3-4.1-3.1-5.1-3.8-1.3-3.3-1.3-4.7.1z"/></svg>
