<svg version="1.0" xmlns="http://www.w3.org/2000/svg" width="1365.333" height="1365.333" viewBox="0 0 1024 1024"><path d="M622 163.7c-.8.3-3.1 1.5-5 2.8-1.9 1.3-5.3 2.6-7.5 3-2.1.4-5.2 1.3-6.7 2.1s-5.5 1.4-8.8 1.4c-4.5 0-6.9.5-8.9 1.9-1.5 1.1-4.4 2.1-6.6 2.3-3.5.3-4.3.9-8.8 7.4l-4.9 7.1 2.6 8.9c3.4 11.8 2.7 15-4.8 22.1-4 3.9-6.2 5.3-8.3 5.3-3.3 0-8.2 4.6-12.8 12.1-2.6 4.3-3.3 4.7-7.6 5.3-4.9.7-7 2.5-12.3 10.9-.9 1.6-3.3 3.8-5.2 4.9-1.9 1.1-3.4 2.5-3.4 3.2 0 .6-.9 2.9-1.9 5-1.1 2.1-2.3 5.2-2.6 6.8-.5 2.1-1.6 3.4-3.6 4.1-1.5.6-3.3 2.4-4 3.9-.8 1.9-3.7 4.3-9 7.4-4.3 2.6-8.1 5.5-8.4 6.5-.4 1-2.6 2.7-5 3.8-3.7 1.6-4.6 2.6-6.1 6.8l-1.7 4.8h-30.2l-7 4.5c-6.2 4-7.6 4.5-13 4.6-3.3.1-9.5 1.1-13.9 2.2-7.4 2-8.3 2-14.8.7-15.3-3.3-29.7-.8-35.8 6.1-1.6 1.9-3 4.1-3 4.9 0 1.3 4.4 5.1 12.1 10.6 2.1 1.4 2.1 1.8 1 6.6-1 4.2-2.5 6.4-8.4 12.5-14.7 15.2-24.3 26.2-26.2 30.2l-2 4.1-23.5 1.1c-20.6 1-24.1 1.4-28.3 3.3-4.6 2.1-5 2.2-12 .7l-7.2-1.5-9.5 5.3c-5.2 2.9-12.9 6.5-17 8.1-4.3 1.6-10.9 5.3-15.5 8.7-4.3 3.2-8.6 5.8-9.5 5.8-.8 0-5.5 1.3-10.4 2.9l-9 2.9-8.7-7.4c-7.6-6.4-8.8-7.9-9.4-11.4-1-5.8-3.7-5.4-7 .9-3.1 6.3-8.8 9.6-25 14.6-6.6 2-13.7 4.7-15.7 6.1-3.6 2.3-4.3 2.4-22.8 2.4H80l-3.6 5.7c-2 3.2-5.6 7.5-7.9 9.5-3.3 2.9-4.3 4.6-4.8 7.7-.2 2.1-3 8.7-6.2 14.5-5.1 9.5-6.1 10.8-9.9 12.5-5.3 2.3-8.6 6.7-8.6 11.5 0 4-3.2 13.2-6.7 19.2-1.3 2.3-2.7 6.2-3.1 8.5-.7 4.4-.7 4.4-11.3 9.9-5.8 3-12.3 6.9-14.3 8.7l-3.8 3.1 4.1 5.5c3.2 4.2 5 5.6 7.6 6.1 7 1.4 10.6 15 7.4 28.5-.8 3.7-.7 4.8 1 7.4l1.9 3-2.4 3.8c-3.7 6-2.9 10.9 2.5 14.4 3 1.9 3.1 2.3 3.1 8.8 0 4.9-.6 7.9-2.1 10.8-1.7 3.4-1.8 4.6-1 7.1.6 1.7 1.1 7.6 1.1 13.2l.1 10.1 5.2 4.1c2.9 2.3 7.7 5.4 10.7 6.9 3 1.5 8.3 5.2 11.6 8.1l6.1 5.4.7 8.8c1 12.7 4.3 24.8 8.1 30.2 20.3 28.7 27.9 38.7 34.3 45.2 7.1 7.3 7.9 7.7 13 8.4 4.8.6 5.5 1 7 4 1.2 2.5 2.4 3.5 4.8 4 2.6.5 3.9 1.6 5.9 5 2.6 4.4 2.6 4.5 1 9.4-1.5 4.4-1.5 5.1-.1 7.9 1.1 2.1 1.6 5.9 1.6 12.7 0 7.5.4 10.2 1.6 11.5.8.9 2.2 4.3 3 7.6 2.3 9 2.3 9.1 3.7 7.2.7-.9 2.4-1.9 3.8-2.2 2.2-.6 3.9-3.6 12.8-23.8 10.3-23.1 10.3-23.2 9.9-29.8-.4-5.8-.1-7.3 2.4-12.3 2.4-4.9 2.8-7 2.8-13.6v-7.9l7.2-2.1c5.5-1.6 8.6-3.2 12.5-6.7 5-4.3 5.3-4.5 11.6-4.5 5.1 0 8-.7 13.2-3 3.7-1.7 7.9-3 9.3-3 1.4 0 5.1-.7 8.2-1.6 5.1-1.4 6.8-1.4 17.9-.1 9.7 1.2 12.7 2 14.5 3.6 1.7 1.6 3.5 2.1 7.7 2.1 3 0 8.7 1 12.8 2.2 6.7 2 7.9 2.1 15 .9 4.2-.7 9.3-2 11.3-3l3.7-1.8 5.1 3c3.5 2 5.5 2.6 6.2 1.9 1-1 .7-6.5-1.1-16.2-.5-3-1-11.8-1-19.6-.1-7.7-.6-16.7-1.2-19.9-1.1-5.8-1-5.9 1.7-7.9 1.5-1.2 5.2-3.5 8.2-5.1 4.9-2.7 5.6-3.6 7.9-9.5 1.4-3.6 4.1-8.4 6-10.7 5.2-6.4 9.3-15 9.3-19.3v-3.7l5.1-.7c2.8-.4 7.6-1.8 10.7-3.2 9.2-4.1 20.4-8.2 25-9.3 2.3-.5 5.4-1.6 6.8-2.6 3.6-2.3 16-.5 18.7 2.8 3.8 4.8 5.8 6.4 14.4 11.7 4.8 3 10.8 7.1 13.3 9.2 2.5 2 6.1 4.4 8.1 5.2 4.4 1.9 12.1 10.5 14.7 16.6 1.7 3.9 2.8 4.9 8.1 7.4 5.5 2.7 6.5 2.9 9.4 1.8 5-1.8 19.1-1.6 20.7.3.7.8 2.4 1.5 3.8 1.5 1.7 0 4 1.4 6.4 3.7 3.5 3.4 4.1 3.6 9.5 3.4 4.5-.2 7.1.4 11.4 2.3 3.6 1.7 8.3 2.8 13.2 3.2 7.5.7 7.7.6 9.9-2.1 1.9-2.4 2.6-2.7 6.4-2.1 2.4.3 11.9 2.8 21 5.6 18.8 5.7 26.2 6.9 32 5 4.4-1.4 8.4-4.6 8.4-6.8 0-.9 1.3-3.8 2.9-6.6 2.1-3.8 2.6-5.7 2-7.4-1.2-3.3-.2-4.8 3.9-5.8 3.3-.8 4.1-1.6 6.8-7.3 3.2-6.7 4.6-8 13.1-12.6l5.2-2.7 2.9 2.1c1.7 1.1 4.1 2.1 5.4 2.1 3.3 0 13.2 3.5 17.5 6.1 3.8 2.3 9.2 2.2 12.2-.4.9-.8 3.6-2.1 6.1-3 2.5-.8 7.6-2.7 11.3-4.1 3.7-1.4 8.8-2.6 11.3-2.6s6.2-.9 8.2-1.9c2.1-1.1 6.4-2.7 9.7-3.6 3.3-1 7.8-3 10.1-4.6 2.6-1.8 4.9-2.6 6.2-2.2 2.5.6 9-4 10.3-7.4.6-1.7 1.6-2.3 3.9-2.3 4.4 0 15.6 4.5 19.8 8 4.1 3.4 10.5 4.1 14.5 1.6 3.5-2.2 12.5-3.9 17.2-3.3 3.9.6 4.6.4 6.8-2.2 1.8-2.2 3-2.8 5-2.4 4.2.8 5.4-1 6-9.3.4-4.9 1.1-8.2 2.2-9.3.8-1 1.3-2.5 1-3.3-.7-1.8 2.8-3.4 10-4.3 2.8-.4 5.6-1.2 6.3-1.8 1.1-.8 1.6-.7 2.3.6.6 1 2.2 1.7 3.9 1.7 1.7 0 4 1 5.6 2.5 1.5 1.4 3.5 2.5 4.5 2.5s2 .4 2.3.9c.9 1.4 7.5 2.1 10.2 1 1.9-.7 3.1-.5 4.7.6 2.5 1.8 6 1.9 8.9.4 1.4-.8 2.3-.8 3.1 0 .6.6 2.5 1.1 4.3 1.1 1.7 0 4.3.9 5.7 2 1.4 1.1 3.4 2 4.5 2s2.5.6 3.1 1.4c.7.8 2 1.2 3.1.9 1.1-.3 3.1.4 4.6 1.6 2.2 1.7 3.5 2 8.8 1.5 3.3-.3 6.8-.8 7.6-1.1 2.5-1 7.4-.2 8.5 1.2.6.7 2.7 1.6 4.6 2 3.2.6 3.6.4 5.7-3.4 4.6-8.1 13.1-10.6 23.3-6.8 11.3 4.3 16.8 7.5 17.5 10.2.9 3.5 3.4 3.2 3.4-.4 0-4.1-3.4-9.4-7.9-12.4-3.2-2.1-4-3.4-5.5-9.1-1-3.6-2.4-7.1-3.2-7.7-1.2-1-1.2-1.5.1-3.5 2.1-3.3 2-9.1-.3-9.8-1.4-.5-1.7-1.4-1.4-4 .2-2.1-.3-4.4-1.3-6-2.2-3.3-13.5-9.6-17.3-9.6-1.6 0-3.7-.9-4.6-1.9-1-1.1-3-2.1-4.5-2.3-1.8-.2-2.7-1-2.9-2.6-.5-3.1-7.4-6.6-11.5-5.8-2.7.5-3.6 0-7.9-4.4l-4.8-5-3.4 3c-3.7 3.3-4.6 3.6-4.6 1.8 0-2.2 4.5-7.8 7.3-8.9 2.2-.9 2.7-1.7 2.5-3.8-.2-2.1-1.9-3.5-8.8-7.3-4.7-2.6-9.7-6.1-11.3-7.8l-2.7-3 3.7-6.8 3.7-6.8-4.8-6.2c-4.9-6.2-5.4-6.5-14.7-8.6-2-.4-3.8-2.5-7-7.8-2.5-4.1-5.6-7.8-7.3-8.7-1.6-.9-6.8-4.2-11.5-7.4-8.5-5.7-8.6-5.7-16.1-5.7l-7.5-.1-3-3.9c-1.8-2.3-4.7-4.5-7.2-5.5-3.7-1.4-4.3-2.1-4.3-4.6 0-2.5-.6-3.3-3.9-4.7-2.1-.9-5.3-3.4-7.2-5.6l-3.3-3.8 4.2-3.7c4-3.4 4.2-3.9 4.2-9.1 0-5.1-.3-5.9-3.8-9.3-2.8-2.8-4.6-3.7-7.1-3.7-2.9 0-5.1-1.7-16.1-12l-12.7-12h-7c-3.9 0-7.4.5-8.1 1.2-.6.6-5.3 1.2-10.9 1.4-8.3.3-10.5 0-14.4-1.7l-4.6-2.1-.6-9.6-.7-9.6 3.6-3.7c3.2-3.3 3.5-4.1 3.2-8.5l-.3-4.9-16.5-1.8c-15.1-1.6-22.2-1.7-26-.3-1 .4-2-.6-3-2.7-1.2-2.5-2.2-3.3-4.7-3.5-4.7-.5-6-3.3-3.8-8.3 2.3-5.1 1-6.9-4.4-6.2-3.4.5-3.9.2-4.4-1.8-1.1-4.1-.8-4.6 5.8-8.9 5.9-3.8 6.5-4.5 6.5-7.6 0-2.2.6-3.7 1.5-4 1.3-.5 1.5-4.1 1.5-24v-23.3l-10.6-16.3c-5.9-8.9-15.3-22.3-20.9-29.8-8.3-11-11.1-14-15.3-16.3-5.7-3.1-6.7-4.4-13.8-16.9l-4.9-8.8h-8c-4.4 0-10.5-.7-13.5-1.5-5.6-1.5-9.3-1.8-12-.8z"/></svg>
