<svg version="1.0" xmlns="http://www.w3.org/2000/svg" width="1365.333" height="1365.333" viewBox="0 0 1024 1024"><path d="M813.5 84.4c-2.7 1.3-6.6 2.7-8.5 3.1-1.9.4-6.5 2.5-10.2 4.6-3.6 2.2-7.8 3.9-9.1 3.9-1.9 0-3.7 1.6-7.5 6.7-2.7 3.8-5.2 7.6-5.5 8.5-.7 2 1.5 3 4.8 2.2 4.4-1.1 6.2 1 7.3 8.3.7 5 .7 7.1-.1 7.8-4.8 4.2-7.7 8.8-7.7 12.5 0 2.1-.4 4.2-1 4.5-.5.3-1 2.1-1 4s-.4 3.7-1 4c-.5.3-1 1.8-1 3.3 0 1.5-1.1 4.9-2.4 7.7-2.4 4.9-2.4 5-.5 5.3 5.2.9 3 7.2-3 9-2.3.7-4.1 1.7-4.1 2.1 0 .5-2.1 3.4-4.7 6.5-3.3 4-5.1 5.5-6.2 5-.9-.3-4.3-1-7.6-1.4-3.3-.5-6.9-1.2-8.1-1.5-1.9-.6-2.3.4-5.5 10.7-1.9 6.2-3.3 12.1-3.1 13.2.1 1-.7 3.4-1.9 5.2-1.3 2.2-1.8 4.1-1.4 5.5.5 1.4 0 2.8-1.5 4.4-3.1 3.3-2 7.6 2.5 10.1 3.4 1.8 3.5 1.8 5.7-.3 1.3-1.1 4.3-2.5 6.7-3.1 3.7-.9 4.8-.8 7.5.9 1.7 1 4.3 1.9 5.8 1.9 2.2 0 2.9-.7 4-4.3 1.3-3.9 1.8-4.3 6.1-5.1 4.1-.8 5.3-.6 10 1.7 2.9 1.5 6 2.7 7 2.7.9 0 1.7.7 1.7 1.5s2.1 2.6 4.6 4.1c8 4.7 12.9 14.1 9 17.3-.7.6-6.4 1.3-12.7 1.6-10.3.5-11.5.7-13.9 3-1.7 1.6-3.8 2.5-5.9 2.5-2.7 0-3.4.5-4.2 3-1 2.6-1.6 3-4.7 3-2.1 0-4.7.8-5.8 1.8-3 2.3-6.4 9.5-6.4 13.2 0 2-.6 3.3-1.7 3.7-1 .3-3.1 1.8-4.8 3.3-3.4 3.1-11.2 6-16.2 6-2.8 0-3.3.4-3.3 2.4 0 2.4-8.2 11-12.9 13.5-3.3 1.8-15.3.5-18.5-2-1.6-1.2-4-1.9-7.1-1.9h-4.6l-4.1 8.5-4 8.5 4 4.7c2.2 2.7 4.9 5.6 6 6.6 1.1 1 1.8 2.6 1.5 3.5-.5 1.8-6.8 6.9-11.9 9.5-1.7.9-4.3 3.5-5.9 5.9-6.1 9.3-9.6 12.8-12.7 12.8-1.6 0-4.6 1.1-6.6 2.5-2.5 1.7-5 2.5-7.9 2.5-2.3 0-4.5.5-4.8 1.1-.4.6-3.3.9-6.8.8-3.4-.2-7.9.3-9.9 1-2.5.8-4.3.9-5.5.3-1.3-.8-2.4-.5-4.2.9-1.3 1-3.7 1.9-5.3 1.9-4.6 0-17.3 6-27.7 13l-9.4 6.2-3.3-1.6c-2.5-1.2-3.4-2.2-3.4-4.1 0-2.5 0-2.5-3.6-1-5.4 2.2-9.3 1.9-19.1-1.9-4.8-1.8-10.6-3.7-12.8-4-4.7-.8-6.2-1.9-9.4-6.4-1.9-2.7-2.8-3.2-6.5-3.2-2.3 0-9.1-.9-15.1-2-7.3-1.3-11.2-1.7-11.9-1-1.6 1.6-11.2 1.2-26.7-1.1-10.8-1.6-14.8-1.8-16.6-1-1.8.8-3.1.8-5.3-.4-1.6-.8-5.2-1.5-8-1.5-4.6 0-5-.2-5-2.3 0-1.3-1.5-3.7-3.4-5.6-2.7-2.6-3.9-5.3-6.1-12.9-1.7-5.7-3.6-10.3-4.7-11.1-1-.7-1.8-2.6-1.8-4.2 0-2.6-.3-2.9-3.2-2.9-2.5 0-4.9-1.3-9.3-5-3.3-2.8-6.9-5.3-8-5.6-1.1-.3-4-2.5-6.5-4.9-4.3-4.1-4.8-4.3-12.5-4.9-5-.4-12.7-2.1-20.7-4.6l-12.7-4-1.1-3.8c-1.4-5.2-1.4-5.4 2-9.2 2.5-3 2.9-4.4 3-9.1 0-3.9.5-6.1 1.6-7 2.2-1.8 1.1-9.3-2-13.4-1.3-1.7-2.7-5.3-3.1-8.1-1-6.2-6-13.7-8.7-12.8-1.3.4-2.1-.2-3-2.1-.9-2-1.6-2.5-3.2-2-1.2.4-3.8.9-5.8 1.2-3.1.4-3.8.2-3.8-1.2 0-1-.8-3.9-1.7-6.5-1.4-4-2.4-5.2-5.9-6.8-3.4-1.7-4.1-2.5-3.7-4.1.3-1.2-.2-3.3-1.2-4.7-1.4-2.2-1.5-3-.5-4.9 1.8-3.4.7-4.2-5.2-3.9-2.9.1-6.8.3-8.5.3-3 .1-3.3.4-3.3 3.4 0 5.2-4 8.3-11.8 9.2-6 .7-6.3.8-8.7 4.9-2.2 3.7-2.5 5.5-2.5 13.3 0 10.1-.4 10.8-7.8 13.6-5.6 2.2-6.7 2.1-9.6-.8-1.9-1.9-3.6-2.5-6.9-2.5-3 0-5.6-.8-8.9-2.9-9.2-5.8-7.8-6.4-15.2 6.4-3.6 6.3-6.6 12.2-6.6 13.1 0 .9-1.6 3.8-3.5 6.3l-3.4 4.7 2.1 2.2c1.9 1.8 2 2.4.8 5.1-1.2 2.9-3 4.2-3 2.1 0-.5-1.8-1.4-4-2-2.1-.6-4.3-1.7-4.8-2.6-.7-1.3-2.7-1.4-15.4-.6-8 .6-15.5 1.5-16.6 2.1-2.9 1.5-1.7 4.1 1.8 4.1 1.5 0 3.3.7 4.1 1.6 1 1.3.9 2.1-.6 4.7-1.6 2.6-1.9 5-1.7 13.2.1 5.5.4 12.6.8 15.7l.6 5.8h-3.1c-2.6 0-3.1.4-3.1 2.5 0 1.8-.5 2.5-1.8 2.5-2.8 0-5.2 3.2-5.8 7.6-1 7-2.4 9.4-5.3 9.4-1.5 0-3.1.4-3.7 1-.5.5-6.5 2.1-13.4 3.5-11.6 2.4-12.7 2.8-15.5 6.1l-3 3.4-7.8-1c-4.3-.6-9.6-1.7-11.7-2.5l-4-1.4-5.2 5.9-5.2 6H43.1l-.7-3.5c-.7-4.1-1.9-5.1-3.9-3.5-.9.7-2.9.9-5.2.5-2.9-.4-5.2 0-9.6 2-3.2 1.4-6.8 2.5-8 2.5-3.5.1-7.1 3.4-7.2 6.7 0 2.2-.7 3.1-3.3 4.3-3.7 1.7-4.8 4.4-3.2 8.4.8 2.3.7 3.1-.6 4-1 .8-1.4 2.3-1.2 4.6.3 3.3.6 3.5 4.6 4.1 3.2.4 5.3 1.5 8 4.2 3.6 3.6 3.6 3.7 2.4 8.2-.7 2.5-1.2 8.1-1.2 12.5v8l-2.7.2c-1.6 0-4 0-5.6-.1-1.8-.2-2.9.4-3.4 1.5-.9 2.4 5.8 8.4 9.5 8.4 3.4 0 5.2 1.6 5.2 4.7 0 1.6.4 2.1 1.6 1.6.8-.3 2.5.4 4 1.7 2.9 2.8 3.3 9.3.7 12.2-1.3 1.5-1.4 2.3-.5 4.4.7 1.3 1.2 3.4 1.2 4.5 0 1.7.5 1.8 3.8 1.3 3.6-.6 3.8-.4 5 2.9C34.5 479 46.9 487 52.4 487c3.2 0 3.6.3 3.4 2.2-.1 1.3.1 6 .6 10.6.8 8.1.9 8.4 4.5 10.6 2 1.3 4.4 3.8 5.4 5.5 1.8 3 1.8 3.1 0 3.1-3.5 0-6.1 5.2-3.1 6.2.8.3.7 1.1-.5 2.8-3.3 4.7-1 13.4 3.8 14.6 1.5.4 2.2 1.1 1.8 2-.3.8 0 3.5.6 5.9 1.4 5.7.1 8.1-4.8 8.8-2 .3-4.6.9-5.7 1.2-1.8.6-2.2.2-2.8-2.9-.6-3.3-1-3.6-4.1-3.6-3.5 0-3.5 0-3.5 4.6 0 3 .8 5.9 2.1 8.1 2 3.1 2 3.6.6 5-1.2 1.2-1.3 2.2-.5 4.3.7 2.2.5 3.6-.7 6-1.6 3.2-1.6 3.2.7 2.5 1.3-.4 2.7-1.1 3.2-1.6 1.3-1.2 3.5 2.1 3.6 5.2 0 3.4 3.6 7.9 6.1 7.9 3.1 0 10.1 6.1 9.6 8.2-.4 1.2.5 2.5 2.6 4 6.1 4.1 11.7 10.2 11.7 12.5 0 3.3 2.8 4.1 4.6 1.4 1.3-1.8 6.3-5.1 7.9-5.1.3 0 .5.6.5 1.4 0 1.6 6.1 6.9 12.9 11.1 2.4 1.5 5.5 4 6.8 5.6 1.4 1.6 3 2.9 3.6 2.9 1.8 0 6.7 8.7 6.7 11.8 0 1.7.8 3.2 2.1 4.1 2 1.2 2.4 1 4.4-1.4 1.8-2.4 2.4-2.6 4.3-1.6 2.5 1.3 2.6 2.2 1.3 6.9-1 3.2-.8 3.4 5.7 8.5 3.6 2.9 6.9 5.1 7.2 5.1.3-.1 1.5-.5 2.8-.9 2-.6 2.2-.3 2.2 3.3 0 4.3 1 5.2 5.9 5.2 2.2 0 3.5 1 5.7 4.2 1.5 2.4 3 4.5 3.2 4.8.1.2 1.2-.1 2.3-.8 1.8-1.1 2.1-1.1 2.6.7.6 2.5 4.5 3.6 5.6 1.6 1.4-2.6 4.3-1.6 10.4 3.2l5.8 4.8 8.5-.1c5.4 0 10.4-.7 13.8-1.8 2.9-1 5.9-1.5 6.7-1.2 1.7.6 2.1 8.1.6 10.5-1.1 1.8.7 6.1 2.6 6.1 1.4 0 9.3-7.5 9.3-8.9 0-1.1 8.6-6.6 11.8-7.6 3.9-1.1 9.2.3 9.2 2.5 0 1 .8 2.1 1.8 2.4 4.5 1.2 13 2.6 15.3 2.4 4.4-.4 8.9 2.2 9.6 5.3.6 3.2 1.3 3.4 11.8 3 6.3-.3 9-1.8 10.6-5.9.5-1.2 1.6-2.2 2.5-2.2 2.5 0 8.4-4.8 9.5-7.7.8-2 1.4-2.4 3.4-1.9 3.5.9 8.4-1.4 16.6-7.9 7.8-6 9.9-6.6 11.4-3.3.8 1.8 2.3 2.5 7.8 3.4 6.5 1 6.8 1 8.5-1.1.9-1.3 3.8-2.9 6.4-3.8 4.4-1.4 4.7-1.4 6.4.4 1.6 1.8 1.6 2.1-.1 5.4-2.3 4.2-1.5 5.3 2.8 3.7 2.9-1.1 3.4-1 5 .9 1.7 2.2 1.7 2.3-1.3 5.4-1.6 1.7-3 3.9-3 4.8 0 1.9.5 2 3.5.8 1.4-.6 2.8-.2 4.8 1.5 1.6 1.3 4.1 2.4 5.6 2.4s3.2.5 3.9 1.2c.9.9 1.6.5 3.2-1.4 2.3-3 4.8-2.8 9.7.9 2.3 1.6 3.4 3.5 3.8 6.1.4 2 1.4 5.9 2.2 8.6 1.3 4.2 1.7 4.6 3 3.4.8-.8 2.4-1.3 3.6-1.1 1.9.4 2.2 1.2 2.4 5.6.7 15 .2 21.2-1.9 25.3-2.1 4-2.1 4.3-.5 6.8 2.3 3.4 2.2 3.6-1.2 3.6-2.5 0-3.1.5-3.6 3-.5 2.3-1.2 3-2.9 3s-2.5.8-3.2 3.2c-.6 2-1.7 3.4-2.9 3.6-3.5.7-5.7 3.4-5.1 6.3.4 2.1 0 2.9-2 3.8-2.4 1.1-2.6 1.5-2 6.4 1 7.7 1 10.9.1 13.4-.9 2.9.7 3 4.3.4 3.4-2.4 9.8-3.4 15.5-2.6 3.8.6 4.4 1 4 2.6-.3 1.1.1 3.3.8 5.1.7 1.7 1.2 4.4 1.1 5.9-.1 1.5.2 3 .8 3.4.5.3 1 1.6 1 2.9 0 3.4 1.9 4.6 7.2 4.6 4.3 0 4.8.2 4.8 2.2 0 1.3-.9 3.4-2 4.8s-2 3.8-2 5.3c0 1.6-1.1 4.3-2.6 6.2-1.4 1.8-2.1 3.5-1.7 3.8 1.9 1.1 11.9 3.7 14.4 3.7 2.6 0 2.7.2 2.2 3.5-.5 3-.2 3.6 2.1 4.6 1.7.8 2.6 2 2.6 3.5 0 2.1.2 2.2 2.4 1.3 1.6-.8 3.3-.8 5.3-.2 2.4.9 3.3.6 6.1-1.8 4.1-3.6 7.2-3.8 7.2-.5 0 1.3.7 2.9 1.5 3.6.8.7 1.5 2.3 1.5 3.6 0 2.2.4 2.4 4.3 2.2 2.3-.1 5.3.1 6.6.6l2.3.8-.3-8.5c-.3-6.3-.8-9-2.2-10.4-2-2.3-2.2-8.1-.3-10.6 1.1-1.4 1.5-1.5 2.5-.4 1.9 2.4 7.7 1.4 11.1-1.8 1.6-1.6 3-3.5 3-4.2 0-2.5 4.1-1 9.4 3.4l2.9 2.4 3.8-3.7c3.7-3.6 4-3.7 5.2-2 1.3 1.8 1.5 1.8 3-.4l1.6-2.3 3.5 2.6c4.2 3.2 5.6 3.4 5.6.7s2.5-3.6 5.4-2c1.9 1 2.9.9 5.2-.4 4.8-2.6 6.4-4.2 6.4-6.4 0-1.4 1.7-3 5.2-5.2l5.2-3.2 2.5 3.1c1.5 1.8 3.5 3.1 4.8 3.1 1.3 0 2.4.8 2.8 2 .7 2.2 2.1 2.5 5.9 1 1.7-.6 2.7-.6 3.2.1.3.6 2 .9 3.8.8 6.7-.4 7.6-.1 7.6 2.9 0 1.6-.9 3.7-2 4.7-2.5 2.3-2.5 3.7-.1 5.9 1.1 1 2.1 3 2.3 4.4.2 1.8 1 2.8 2.3 3 1.1.2 2.9 1.4 4 2.6 3.3 3.9 10.3 6.4 14.8 5.3 2.9-.7 4.2-.6 5.5.6 1.8 1.5 9.2 1.3 9.2-.3 0-.5 1-1 2.2-1.2 1.4-.2 2.4-1.2 2.8-2.6l.5-2.4 2.4 2.6c1.7 1.8 3.5 2.6 5.7 2.6 1.8 0 3.4.5 3.6 1.1.7 2 9.8.2 9.8-1.9 0-1.3.3-1.2 1.6.6.8 1.2 2.6 2.2 4 2.2 2.8 0 2.9.7.9 3.4-1.6 2.1-2.1 11.6-.6 11.6.5 0 1.2 1.6 1.5 3.6.4 1.9 1.4 3.8 2.2 4.1.7.3 1.4 1.4 1.4 2.4 0 1.6.8 1.9 5.5 1.9 5 0 5.6-.2 7-3 1.5-2.8 1.4-3-1-4.6-1.5-1-2.5-2.6-2.5-3.9 0-1.5-.8-2.6-2-3-1.1-.3-2-1.3-2-2 0-.9.6-1.2 1.5-.9 3.3 1.3 6.4-.5 7.6-4.5 1.2-4.2 4.4-6.1 15.6-9.6 2.9-.9 6.9-2.8 9-4.2 2.4-1.7 5.3-2.7 7.8-2.8 3.7-.1 6.5-.9 12-3.5 1.1-.5 2.9-1 3.9-1.2 1.1-.2 2.4-1.6 3-3.4.7-1.8 1.6-2.9 2.4-2.6.7.2 2.1-.2 3-1 .9-.8 2.5-1.8 3.5-2.1 1.4-.5 1.6-1.4 1.1-4.9-.3-2.4-1.3-6-2.1-8.1-1.2-2.7-1.3-4.1-.6-4.8.8-.8 1.5-.4 2.4 1.2 2.6 5 6.4 8.9 8.7 8.9 1.2 0 3.9-.7 5.9-1.5 2-.9 4.4-1.3 5.4-1 1.4.5 1.8-.1 2.1-2.2.3-3 3.8-4.7 3.8-1.8 0 3.3 2.9 2.6 6.6-1.5 3.8-4.2 3.9-4.2 5.2-2.1 1.8 2.7 4.8 2.7 5.5 0 .4-1.4 1.2-1.9 2.4-1.7 1 .3 4.1-.7 6.8-2.1 2.8-1.4 6.4-2.8 8-3.1 2.4-.4 3.1-1.1 3.3-3.3.2-1.5 1.2-3.2 2.3-3.7 1.1-.6 2.4-3 3-5.5.7-2.9 1.7-4.5 2.7-4.5.8 0 3.2-1.8 5.3-4 2.1-2.2 4.2-4 4.8-4 1.2 0 6.1-5.6 9-10.3 1.4-2.3 2-4.4 1.6-5.7-.4-1.4-.2-2 .8-2 .8 0 2.2-.9 3.2-2s2.9-2 4.2-2c2.2 0 2.3-.3 1.7-3.5-.6-3.4-.5-3.5 2.5-3.5 2.8 0 3.1-.3 3.1-3 0-2 .5-3 1.5-3 1.7 0 3.4-2.9 3.2-5.5-.2-1.7.3-2 3.6-1.7 3.1.2 3.7 0 3.7-1.6 0-1.1-.7-2.2-1.5-2.6-.8-.3-1.5-1.2-1.5-1.9 0-.8.7-2 1.5-2.7 1.8-1.5 2-5.3.3-7.9-.9-1.5-.7-2.4 1.2-5.2 1.5-2.1 2-3.4 1.2-3.7-.6-.2-2.3-1.2-3.7-2.3-4.3-3.4-1.5-4.7 4.9-2.3 1.2.5 1.6 0 1.6-1.8 0-1.4.9-3.3 2-4.3s2-2.8 2-4c0-1.2.8-3 1.9-3.9 1-.9 2.2-3.6 2.5-5.9.6-3.6 6.3-21.4 7.3-22.6.2-.3.9.1 1.5.7 1.7 1.7 2.6 1.5 3.3-.8.3-1.1 1.7-2.3 3-2.6l2.3-.6-2-3.4c-1.5-2.6-1.8-4.1-1.2-5.7 1.4-3.3.6-7.5-1.7-8.2-3.8-1.2-2.2-3.5 2.5-3.5h4.4l-1.3-4.8c-.7-2.6-1.6-5.4-1.9-6.3-.4-.9 0-2.1.9-2.9 2-1.6.4-3-3.6-3-1.5 0-3.8-1.3-5.9-3.5-1.9-1.9-4.1-3.5-5-3.5-.9 0-4 1.8-7 4-4.8 3.6-5.5 3.8-7 2.5-1.5-1.4-2-1.4-4.6 0-3.2 1.6-4.1.7-2.4-2.4.8-1.6 2.1-2.1 5.1-2.1 4.9 0 7.9-1.5 7.9-3.9 0-1 1.6-2.7 3.9-3.9 2.1-1.2 4.2-2.9 4.5-3.8.3-.8 2.2-2.2 4.1-3 5.2-2.1 4.8-5.3-1.4-9.8-2.7-2-5.6-3.6-6.5-3.6-.9 0-2.5-.9-3.6-2-1.4-1.4-3.3-2-6.2-2-3.6 0-4.5-.4-5.5-2.6-1.1-2.4-1.1-2.6 1-1.9 1.2.3 3.6 1 5.3 1.4 1.8.5 4.7 2 6.5 3.4 1.9 1.4 5.1 2.8 7.2 3.2 3.3.6 3.7.5 3.7-1.4 0-1.5-1-2.3-4-3.1-5.4-1.5-6-3-1.1-3 4.7 0 4.9-.7 2-4.4-1.4-1.7-3-2.6-5-2.6-2.2 0-2.9-.5-2.9-1.9 0-2.5-2.3-4.3-7.9-6.2-4.3-1.5-4.6-1.8-4.9-5.4-.3-2.8-1.5-5.3-4.4-8.7-2.2-2.7-6.3-9.2-9.2-14.6l-5.2-9.7-6.6-1.5c-3.7-.8-7.5-2.3-8.5-3.3-1.1-.9-2.9-1.7-4-1.7-2.3 0-3.6-3.9-2.2-6.2.5-.7.9-2.3.9-3.4 0-1.2.6-2.7 1.4-3.3.8-.7 1.8-2.6 2.1-4.2.5-2.2 1.2-2.9 3-2.9s2.5-.7 3-3c.3-1.6 1.5-4.1 2.6-5.5 1.7-2.1 1.8-2.5.5-2.5-.9 0-1.6-.8-1.6-1.9 0-2.7 1.7-3.5 2.8-1.5.8 1.5 1.1 1.5 4.1-.1 2.6-1.3 3.2-2.2 3-4.3-.3-2.1.8-3.8 4.9-8 2.9-2.8 5.7-5.2 6.2-5.2.6 0 2.8-1.7 5.1-3.7l4-3.7 3 1.8c1.7 1 3.2 1.6 3.4 1.4.2-.2 1.3-3.6 2.4-7.6l2-7.2h-3.5c-2 0-4.4-.5-5.5-1.1-1.6-.8-2.5-.7-3.7.4-2.7 2.3-4.9 2.7-11.2 2-4.7-.5-6-.9-6-2.3 0-.9-1.2-2.2-2.6-2.9-2.3-1-3.2-.8-7.5 2-3 1.9-4.9 3.8-4.9 4.9 0 1.1-1.3 2.7-3 3.7-1.6.9-3 2.2-3 2.9 0 .6-.9 2.3-2.1 3.8-1.7 2.1-2.9 2.6-6.8 2.6-2.6 0-5.2-.5-5.9-1.2-.7-.7-1.2-3.7-1.2-6.9 0-4.2-.6-6.5-2.3-9-2.3-3.5-6.1-4.9-8-3-1.6 1.6-9.1 1.3-12.9-.5-1.8-.8-4.3-3-5.4-4.7l-2.1-3.2 2-6.7c2.1-7.1 4.6-9.1 7.7-6.3 2.1 1.9 3.4 1.9 5 0 .6-.7 3.1-1.7 5.4-2 3.9-.6 4.3-1 5.9-5.5.9-2.6 1.7-5.9 1.7-7.3 0-1.3.7-3 1.5-3.7.8-.7 1.5-1.9 1.5-2.6 0-.8.6-1.4 1.3-1.4.6-.1 4.2-2.3 8-5.1 4.5-3.3 6.7-5.6 6.7-7 0-1.1 1.2-3.5 2.6-5.4 1.4-1.8 3-4.9 3.5-6.8.7-2.8 1.6-3.7 4-4.2 1.8-.4 3.6-.2 4.4.5 1.2 1 1.8 1 3 0s1.9-1 2.7-.2c.7.7 2.4 1.2 3.9 1.2 2 0 3 .7 3.9 3 1.1 2.7.9 3.7-1.5 9.3-1.5 3.4-3.8 7.2-5.1 8.4-1.3 1.2-2.4 3.3-2.4 4.7 0 1.4-.4 2.8-1 3.1-.5.3-1 .9-1 1.3 0 .9 5 3.2 7.1 3.2 1.5 0 1.5.4.2 4.5-1.2 3.6-2.2 4.7-4.9 5.7-2.2.8-3.4 1.9-3.4 3 0 2.1-.1 2.1 5.6.7 2.9-.8 4.4-1.7 4.4-2.8 0-.9 1.3-2.4 2.9-3.3 1.7-.9 3.9-3.4 5-5.6 2.2-4.3 11.9-13.2 14.3-13.2.9 0 1.8-.9 2.1-2 .3-1.2 1.4-2 2.5-2 1.2 0 2.4-.5 2.7-1 .3-.6 1.7-1 3.1-1 5.2 0 11.4-5.5 11.4-10 0-1.7 11.2-15 12.7-15 .7 0 2.3-1.8 3.5-4 1.3-2.1 3.3-4.2 4.5-4.5 3-.7 5.9-6 7.2-12.9 1.6-8.8 4.9-11.7 8.6-7.6 2.1 2.4 7.2 2.6 15.5.6 6.9-1.6 7.8-4.1 3-8.6-1.8-1.6-3-3.5-2.8-4.2.6-1.9 6.8-4.7 10.5-4.8 3.6 0 6.3-3 6.3-7 0-3.4 1-4.7 4-5.1 3.2-.5 5-5.1 3.2-8-1.6-2.5-.5-6.9 1.7-6.9.9.1 2.5 1.5 3.6 3.3 1.6 2.4 2.8 3.2 5 3.2 2.7 0 3.1-.4 3.5-3.5.4-2.5 1.2-3.8 3.3-4.8 2.6-1.2 2.7-1.7 2.7-8.3 0-4.3-.5-7.8-1.4-9.2-.8-1.2-1.7-4.3-2.1-6.8-.4-2.7-2.6-8-5.1-12.4-2.4-4.3-4.4-8.2-4.4-8.9 0-.6 1.5-1.8 3.2-2.7 3.7-1.8 4.5-3 5.3-8.3.5-3.1.8-3.5 1.8-2.4.9 1.1 3.1 1.3 9.9.9 10.1-.7 11.3-1.4 9.7-5.9-.9-2.7-.8-3.7 1-6.8 1.4-2.3 1.9-4.4 1.5-6-.3-1.3-.1-3 .5-3.8 1.3-1.5 1.6-9.4.9-26.1-.5-11.7-.5-12.1 1.9-14.7 2.9-3 2.6-7.4-.8-10.4-1.2-1.1-1.9-3-1.9-5.5 0-3.5-.2-3.8-3.2-4.1-2.6-.2-4.5.6-8.5 3.7-2.9 2.2-5.3 4.8-5.3 5.7 0 1.3-.8 1.8-2.8 1.8-3.7 0-10.4 6.6-9.6 9.5.4 1.7-.6 2.4-6.8 4.6-12.7 4.6-16.1 5.5-16.6 4.1-.2-.6-2-2.1-4-3.2-3.4-1.9-3.7-2.4-3.4-5.9.3-3.3 0-4.1-2.7-6-2.3-1.7-3.1-3-3.1-5.3 0-2.9-.1-3-3.5-2.4-3 .6-4.2.2-7.4-2.3-5.1-4.1-8.5-5.2-13.1-4.5-3 .5-4.8.1-7.5-1.5-3.3-1.9-3.8-2-6.5-.6-1.6.8-4.9 1.5-7.3 1.5-6.2 0-8.8-2.3-9.4-8.4-.4-3.6-1.1-5-2.4-5.3-1.1-.3-1.9-1.4-1.9-2.5 0-3.1-2.5-7-7.4-11.5-2.5-2.3-4.6-5.1-4.6-6.2 0-1.1-1.1-3.3-2.5-4.9-1.4-1.7-2.5-3.4-2.5-3.9s-1.3-2.2-3-3.8c-1.6-1.6-3-3.9-3-5.1 0-1.3-.6-2.7-1.4-3.1-.7-.4-2.1-2.5-3.1-4.5-.9-2.1-2.5-4-3.6-4.3-1-.4-1.9-1-1.9-1.5 0-1.7-6.5-7-8.7-7-1.2 0-3.3-.4-4.7-.9-1.6-.7-3.5-.6-5.5.2-2.7 1-3.8.8-8.7-1.7-7.9-3.8-13.6-4.2-19.9-1.2zM695.4 894.5c-.4 1-2.1 1.5-5.3 1.5-2.5 0-5.5.7-6.6 1.5-1.4 1.1-3.2 1.3-6.6.9-3.7-.5-4.7-.3-5.2 1-.4 1-1.8 1.6-4 1.6-3 0-3.5.4-4 2.9-.4 1.8-2.5 4.5-5.7 7.2l-5 4.2v6.3c0 3.5.5 6.6 1 6.9.6.3 1 2.1 1 4 0 3.2.2 3.4 5.4 4.9 3 .9 6.8 1.6 8.4 1.6 1.7 0 3.4.4 3.7 1 .3.5 1.9 1 3.6 1 2.4 0 2.9-.4 2.9-2.4s.6-2.5 3.9-3.1c2.2-.3 4.9-1.7 6.2-3.1 1.2-1.3 2.8-2.4 3.5-2.4 1.8 0 3.4-3.3 3.4-7 0-6 2.1-11.7 5.6-15.1 2.8-2.7 3.4-4 3.4-7.6 0-3.5-.3-4.3-1.8-4.3-1 0-2.7-.7-3.8-1.5-2.4-1.8-3.3-1.9-4 0z"/></svg>
