<svg version="1.0" xmlns="http://www.w3.org/2000/svg" width="1365.333" height="1365.333" viewBox="0 0 1024 1024"><path d="M103 32.1c-4.1.5-8 1.1-8.6 1.3-.6.2-4.8 7.1-9.4 15.2-9 16.2-8.7 14.5-2.6 18.9 1.3 1 1.9 2.7 2 5.7.1 3.7-.2 4.3-2.1 4.6-2.5.4-3-.7-1.2-2.5s.1-5-3.8-7.4c-3.7-2.3-3.7-2.3-6.3 2.2-.5 1-2.9 2-5.5 2.3-4 .6-4.4.9-3.5 2.6 1.3 2.4 1.3 3-.1 3-1.1 0-3.8 2.9-3.9 4.1 0 .3 2.5 1.4 5.6 2.5 3.5 1.2 6.3 2.9 7.5 4.5 2.3 3.3 2.3 4.1.3 8.1-1.2 2.4-1.3 3.6-.5 5.4L72 105h-9.4c-8.6 0-14.8 1.1-17 3.1-.5.4.1 2.1 1.3 3.8 3.3 4.5 1.1 4.1-6.7-1.5-.2-.1.2-1.1.9-2.2 2.2-3.5-.1-4.8-9.5-5.5-4.6-.3-9.7-.2-11.2.2l-2.9.8 3.8 1.2c2 .7 3.7 1.9 3.7 2.7 0 1.3-10.7 7.4-13 7.4-1.3 0-11.2 6.1-10.7 6.7.2.2 2.6-.1 5.2-.7 3.8-.9 4.9-.8 5.9.4.6.7 3.5 2 6.5 2.7 4.3 1.1 5.8 2 7.3 4.5 1.9 3.2 5 4.3 12.3 4.4 2 0 3.6.9 4.9 2.6 1.8 2.6 1.8 2.6-1.3 5.8-1.7 1.8-3.1 3.5-3.1 3.9 0 1.1 16.9.8 23.2-.3 5-1 6.1-.8 9.5 1 2.1 1.1 4.5 2 5.5 2 .9 0 3.7 2.3 6.1 5.1l4.5 5.1-1.7 5.2c-1.5 4.5-1.6 6-.5 12.1 2.1 11.7 2.2 11.5-3.5 11.5-4.4 0-4.9.2-5.5 2.6-.5 1.9-.2 3.3 1.2 4.8 3 3.3 3.1 4.9.6 7.9-2.8 3.3-3.2 6.2-.8 5.3.9-.3 1.9-.6 2.3-.6.4 0 1.3-1.5 1.9-3.4 1.1-2.9 1.9-3.5 5.2-4.1 3.5-.6 5.8.1 9.9 3.2.3.2-.6 1.1-1.8 2-1.3.8-2.9 3.1-3.7 4.9-1.1 2.6-2 3.4-4 3.4-3.3 0-6.4 1.7-6.4 3.5 0 1-1 1.5-3 1.5-3.2 0-3.6.6-2 3 1.4 2.2-1.7 5-5.7 5-1.9 0-5.2.9-7.5 2.1-3.3 1.7-4.6 1.9-6.5 1-3.8-1.7-5.9-1.3-7.1 1.4-.7 1.4-2.3 3.1-3.7 3.7-1.4.6-2.4 1.7-2.1 2.4.2.6 1 3 1.7 5.3.7 2.4 2 4.3 3.1 4.7 2.5.7 5.9 8.3 4.7 10.4-2.3 4.1-2.6 4.3-4.9 3-2.1-1.1-2.2-1.1-1.6 1.3.5 2.1.2 2.6-1.6 2.9-1.3.2-4-.3-6.1-1.1-3.4-1.3-4-1.3-5.3.1-1.4 1.4-1.4 1.8.2 4.3 1.7 2.6 1.7 2.8-.5 7.3-1.3 2.6-4.1 6.2-6.2 8l-3.9 3.3 2.5 4.9c2.3 4.6 2.4 4.9.8 8.9-1.6 4-1.5 4.1.8 6 2.3 1.8 2.3 2.1 1 5.3-3.1 7.6-1.9 15.1 3 18.6 2.3 1.6 2.4 3.5.4 5.2-.8.7-1.5 2.3-1.5 3.6 0 2.1.5 2.4 4 2.4 3.8 0 4 .1 4 3.2 0 3.3 1.7 6.6 7.4 14.7 2.2 3.2 2.8 5.2 2.9 9.3 0 6.4 1.4 8.2 7.8 10.3 5.1 1.7 8.9 6.1 8.9 10.4 0 4.8 2.7 8.8 8.1 11.9 4.2 2.4 6.3 4.6 9.6 9.9 4.1 6.8 4.1 6.8 2.2 8.9-1.5 1.5-1.8 2.9-1.3 4.8.6 2.4 1 2.6 6.5 2.6 3.3 0 7.5.7 9.4 1.4 4.2 1.8 19.9 4.6 25.8 4.6 2.3.1 5.3.7 6.7 1.5 1.4.8 3.9 1.4 5.6 1.5 1.6 0 3.5.5 4.2 1.2.9.9 1.5.9 2.4 0 2.1-2.1 7.2-1.4 9.8 1.3 1.8 1.9 3.4 2.5 6.4 2.5 2.3 0 4.7-.4 5.5-.9.9-.6 2.8.1 6 2.4 8.1 5.7 17.7 10.5 21 10.5 2.4 0 3.9.9 6.4 3.7 5.5 6.2 5.9 7 4.7 9.3-1 1.8-.7 2.2 2.7 3.6 6.9 2.9 11.9 8.9 15.9 19.1 3.5 8.9 4 9.6 10.9 15.4l7.2 6 .7 6.9c.7 6.9.8 7.1 4.6 9 2.1 1.1 4 2.5 4.2 3.1.3.9 1.7.7 5.1-.6 4.4-1.6 4.7-2 4.7-5.3 0-1.9 1-5.1 2.2-7.1 1.3-2 2.1-4.4 2-5.4-.8-4.7 4.7-13.6 8.5-13.7.7 0 1.7-.8 2.2-1.9.6-1 3.4-2.8 6.3-4.1 7.5-3.2 17.8-10.4 15.6-10.8-1-.2-3.6.7-5.9 2-3.8 2.1-4.1 2.1-5 .5-.6-.9-1.9-1.7-2.9-1.7-1.1 0-2-.5-2-1.1 0-2.1 4.1-7.9 5.6-7.9 2.2 0 5.7 2 7.2 4.2 2 2.8 6 2.4 6.8-.7.3-1.4.4-3.4.1-4.5-.4-1.5.1-1.9 2.6-2.2 2.5-.2 3.2-.9 3.9-3.4.4-1.7 1.5-3.7 2.3-4.4 1.2-1 1.3-1.6.4-2.6-.9-1.1-.5-1.4 2.4-1.4 2.6 0 3.7-.5 4.2-1.9.4-1.3 1.2-1.7 2.9-1.4 2 .4 2.5 0 2.8-1.8.2-1.9.8-2.3 2.8-2.1 6.9.7 9 1.4 9 2.8 0 1.2.5 1.2 3.2-.2 3.1-1.6 3.2-1.8 1.3-2.8-1.1-.6-4.1-3.2-6.6-5.8-4.2-4.3-5-4.7-7.8-4.2-2.1.4-3.7 1.6-4.6 3.4-1 2-2.4 2.9-5.1 3.3-4.8.8-6.7-.6-5.2-3.8.6-1.3 2-2.6 3.1-2.9 2-.5 2-.6.2-3.3-1-1.5-2.7-3.4-3.7-4.1-2.6-1.8-2.5-7.2.1-7.2s3.3-1.3 2.5-4.5c-.5-1.9-2.1-3.3-5.8-5.1-2.8-1.3-6.2-3.1-7.6-3.9-1.4-.8-5-1.5-8-1.5-5.5 0-5.5 0-8.8-5.1-1.8-2.7-3-5.4-2.7-5.9.3-.4-.7-1.3-2.2-1.9-2.5-1-2.4-1.1 1.5-.6 2.4.3 7 .8 10.3 1.2l6.1.6-.4-2.9-.3-2.9-13.6-.3-13.6-.3-1.1 2.6c-.6 1.4-1.9 2.5-2.8 2.5-3.4 0 1.6 3.9 5.5 4.3 2 .2-.5.4-5.5.5-8.8.2-9.1.1-10.2-2.3-.6-1.4-1.9-2.5-2.8-2.5-2 0-17.5-11.3-19.2-13.9-1.1-2-.4-2.9 1.2-1.4 1.6 1.6 7.5 3 8.5 2 2.2-2.2 1.1-3.7-2.5-3.7-3.1 0-3.7-.4-4.7-3-.6-1.7-1.7-3-2.4-3s-1.6-1.2-1.9-2.6c-.5-1.9-2-3.2-5.1-4.6-3.1-1.4-4.9-2.9-5.8-5.1-1.6-3.7-.6-4.3 4.9-3.3 2.4.5 3.6 1.6 5.5 5.2 3.2 5.9 6.2 7.4 15.4 7.4 9 0 13.7-1.4 13.7-4.2 0-1-.5-1.6-1-1.3-.6.3-1.9.3-3.1 0-1.9-.7-2-.8-.3-2.6.9-1.1 1.5-2.1 1.3-2.3-1.6-1.3-5.2-2.6-7.7-2.6-1.7 0-3.7-.9-5.1-2.4-1.8-1.9-4-2.7-10.3-3.6-4.4-.6-9.5-1-11.3-.9-4.7.5-6.5-1.5-6.5-7 0-2.5.4-5.1.8-5.8 1-1.6 8.1-.2 12.7 2.5 2 1.2 5 2.2 6.6 2.2 1.7 0 4.4.7 6 1.6 2.3 1.2 3.4 1.3 4.4.4 3.9-3.2 15-3.3 14-.1-.3 1 .6 2.2 2.5 3.3 1.9 1.1 3 2.5 3 3.9s.5 1.9 1.4 1.6c.8-.3 3-.9 4.8-1.2 3-.6 3.9-.1 10.3 5.8 5.2 4.8 8.4 6.8 12 7.9 4.7 1.3 5 1.6 5.3 5 .4 4.2.5 4.3 23.1 19.7l13.4 9.1h8.3c4.6 0 8.6-.5 8.9-1 .3-.6 3-1 5.9-1h5.4l.7 3.7c.8 4.3 2.7 8.4 4.8 10.2 1.2.9 1.3 2 .7 4.2-.8 2.7-.4 3.7 3.5 8.7 3.3 4.2 4.5 6.6 4.5 9.1 0 2.7 1.3 4.7 7.4 11.5 4.9 5.3 8.7 10.8 11 15.5 3.3 6.9 3.4 7.5 2.1 10.2-.8 1.5-3.7 4.6-6.3 6.8l-4.9 4.1.9 6.3c1.7 13.3 2.6 15.1 8.5 18.8l5.4 3.2-.6 4.7-.6 4.7 11.8 10.3c6.5 5.7 12.5 10.9 13.3 11.6 1.3 1.1 3.3.9 11.4-1.2l9.8-2.5 19.3 7.6c13 5 20.7 7.5 23.5 7.5 3.7 0 28 3.3 33.8 4.5 1.5.4 2.2 1.3 2.2 2.8 0 1.3 1.4 4.5 3.1 7 2.6 3.9 3.8 4.8 7 5.3 5.7.9 5.6 2.1-.2 2.9-4.9.7-5 .8-4.7 3.9.3 3 .5 3.1 4.8 3.1 2.5 0 6.8-.3 9.7-.7 5.1-.7 5.2-.6 5.5 2 .3 2.5.7 2.7 5.6 3 4.1.2 7 1.3 13.8 5.3 7.1 4.1 9.4 4.9 13.5 4.9 3.9 0 7 1 15.2 5.1 5.6 2.8 12.2 6.8 14.7 8.9 2.5 2 7.9 5.6 12.1 7.9 7.3 4.2 7.7 4.6 9.3 9.7l1.7 5.4 10 5.1c9.5 4.7 10.9 5.8 26.9 22 16.5 16.5 17 17.1 17.6 22 .6 4.1 1.2 5.2 3.5 6.4 1.5.8 3.1 2 3.4 2.6 1.2 1.8 3.5 20 3.5 27.2v6.9l3.3-.2c1.7-.1 3.8-.2 4.5-.1 1.9.2 1.4 6-.9 9.2-2.4 3.5-2 7.2 1.7 13.5l2.3 4.2-5.1.6c-3.7.5-6.2 1.6-9.4 4.3-4.1 3.5-4.3 3.8-2.7 5.5 1.5 1.7 1.5 2.4.3 7.1-.8 2.9-1.4 8.6-1.5 12.7-.1 9.3-.5 10.1-4.8 8.9-5.1-1.5-16.8-1.3-17.8.3-1.7 2.7-1 6.4 1.5 7.6 1.5.7 2.5 2.1 2.8 4.1.4 2.7-.1 3.4-3.4 5.6-3.7 2.5-3.8 2.6-3.8 8.8v6.2l9.3 6.2c6.4 4.3 10.7 8.1 14.2 12.6 2.7 3.5 8 8.8 11.7 11.8 4.4 3.6 6.8 6.2 7 7.8.2 1.7 2.1 3.7 6 6.3 5.4 3.7 6 3.9 9.5 2.9 6.5-1.9 12.1-1.4 13.4 1 1 2 1.6 2.1 9.1 1.5 7.9-.7 8-.6 22.6 4.9 8.1 3.1 17.7 7.4 21.4 9.5 4.7 2.8 7.2 3.8 8.6 3.2 1-.4 5.5-4.1 10-8.2 12-11.2 12.1-15.6.5-25.9l-5.8-5.2 2.3-6.5c2.2-6.3 2.2-6.7.6-8.5-1.1-1.2-3-1.9-5.4-1.9-2.7 0-4.3-.7-6.4-2.9-2.2-2.3-4-3-8.4-3.6-7.3-.9-14.3-4.7-19.8-10.8-3.5-3.9-4.4-5.7-4.4-8.6 0-3-.9-4.7-4.9-9.2-4.4-5-4.8-5.7-3.5-7.4 1.9-2.6 1.8-2.9-1.8-4.8l-3.3-1.7 7 .6c5.1.4 11.2 2.1 23 6.6 14.8 5.6 18.1 7.5 20.4 11.7.7 1.2 1.2 1.3 2.4.3 1.1-1 2.6-1 6.5 0 4.3.9 5.6 1.8 7.7 5 2.7 4.1 2.3 4.1 13.7 2.3 2.5-.4 3.1.1 5.8 5.5 1.6 3.2 3.4 8 4 10.7 2.1 9.6 6.2 18.7 10.4 23.3 8.2 8.9 7.8 7.7 5.6 15.4-1.1 3.8-3.5 9.2-5.4 12-1.9 2.8-3.9 6.8-4.6 8.8-1.1 3.6-1 3.9 3.7 10.2 4.4 6 5.4 6.8 12.2 9.3 5.3 2 9 4.3 13.5 8.4 3.3 3 9.3 7.4 13.1 9.7 10 6 15 12.7 23 31.1 3.6 8.3 6.5 15.8 6.5 16.8s-.7 4.2-1.5 7.2c-1.3 5.2-1.3 5.6.7 8.4l2.1 3 2.9-5.9c3.7-7.9 3.6-11.9-.8-20.5-2.6-5.3-3.4-7.8-2.9-10 .9-4.1-1-9-5-12.9-3.3-3.2-3.5-3.8-2.9-7.7.3-2.4.3-6.3 0-8.8-.6-4-1-4.5-3.3-4.5-1.4 0-4.1-1.1-5.9-2.5-3.9-3-4.9-3.1-6.7-.5-1.3 1.9-1.5 1.8-3.8-1.7-1.6-2.6-4.4-4.7-8.6-6.8-5.1-2.5-6.2-3.4-6.2-5.5-.1-2.1 1.3-3.3 9.4-8 7.5-4.2 10.5-6.6 13.8-11 2.3-3 5.9-7.4 8-9.7 3.5-3.8 4.1-4.1 6.3-3.1 1.8.8 4.2.8 9.3-.1l7-1.3 4-6.6c5.9-9.9 7.3-14.5 6.5-21.9-.5-5.4-.3-6.6 1.5-9.2 1.7-2.3 2-3.5 1.2-4.9-.6-1-1.7-3.8-2.5-6.1-1.2-3.7-1.2-4.3 0-4.8 2.2-.8.9-5.7-3.3-12.7-2-3.2-4.1-7.7-4.8-9.9-1-3.3-1.8-4.3-4.2-4.9-2.6-.7-3.1-1.4-3.7-4.8-.6-3.6-1.2-4.3-5.1-6.2-4.9-2.4-5.2-2.9-3-4.8.8-.7 1.5-2.3 1.5-3.5 0-1.8.9-2.6 3.6-3.5 3-1 4-2.2 5.9-6.3 2-4.7 2.1-5.3.6-7.8-1.5-2.7-1.5-2.9 1.2-5.7 1.9-2 4.9-3.5 9.5-4.7 3.7-1 7.6-2.6 8.8-3.6 1.3-1.2 3.5-1.9 6.1-1.9 2.7 0 4.3-.5 4.7-1.5.3-.8 1.4-1.5 2.4-1.5 2.2 0 5.2-3 5.2-5.1 0-.8 2.3-2.9 5-4.7 4.3-2.8 5-3.7 5-6.5 0-2.6-.6-3.6-3-5-2.2-1.3-3-2.6-3-4.6 0-1.8-1.2-3.9-3.9-6.5-3.2-3.2-4.7-3.8-9.5-4.3-5.2-.5-6-.9-7.9-4-1.3-2-4.3-4.5-7.2-6-8.1-4.1-13.2-8-15.5-11.8-2.3-3.8-5.2-4.4-11.6-2.6l-3.1.9-.6-17.2c-.4-9.4-.7-36.7-.7-60.7v-43.6l14-2.8c15.7-3.1 15.3-2.5 8.1-10.7-3.7-4.1-4-4.9-3.1-7.3.9-2.3.7-2.8-1-3.2-1.1-.3-2-1.1-2-1.7 0-2.2 3.2-10.6 4-10.6.4 0 1.2-1.3 1.8-2.8.9-2.6 1.3-2.8 4.8-2.4 2.6.3 5 1.5 7.4 3.7 3.6 3.4 6.5 4.3 16.3 5.2 5.6.5 6 .7 9 4.9 2.6 3.7 3.5 4.4 5.7 4 2-.5 2.9.1 4.6 2.8 1.9 2.9 2 3.6.8 4.8-1.3 1.2-1.2 1.8.6 4.1 1.8 2.3 2.9 2.7 7.2 2.7 3.4 0 5.8.6 7 1.7 1.5 1.3 2.3 1.5 3.7.6 1.1-.7 2.3-.7 3.3-.2 1.3.7 2.5-.1 5.2-3.4 3-3.7 3.4-4.7 2.9-8.3l-.5-4 4.1.4c2.2.2 4.5 1 5.2 1.8.6.8 2 1.4 3.1 1.4 1.8 0 2-.5 1.4-3.1-.3-1.7-.6-3.7-.6-4.4 0-.7-2.1-2.1-4.7-3-3.8-1.4-5.7-3-9.5-8-4.3-5.8-4.6-6.6-3.8-9.6.5-1.8.9-3.3.7-3.4-.1-.1-2.2-1.5-4.7-3s-7-5.2-10.1-8.2l-5.6-5.5-7.6 3c-7 2.7-8.4 2.9-16.2 2.4l-8.6-.5-2.7-4.5c-1.4-2.5-3.6-7.3-4.7-10.6-1.2-3.4-2.6-6-3.1-6-.5.1-2.8.4-5.1.8l-4.3.6-25.6-34.1c-14-18.7-25.3-34.3-25.1-34.6.3-.2 4.8-.7 10.1-1 9.1-.6 9.6-.7 9.6-2.8 0-1.5-1.3-3.1-3.8-4.7-3.3-2.2-5.2-2.6-15.2-3.1-6.3-.3-12.5-.8-13.7-1.2-1.6-.5-2.3-.2-2.8 1.4-.5 1.6-1.5 2.1-4 2.1-3.1 0-4.1-.9-12.1-11.3-4.9-6.1-19.9-25.2-33.4-42.2-13.6-17.1-27-34.3-29.9-38.3-3.7-5.1-5.9-7.2-7.4-7.2-1.6 0-3.6-2-7.2-7.2-9.1-13.2-29-47.2-32.7-55.8-4.2-9.8-22.7-66.4-25.8-79-2.8-11-7.7-22.8-13.5-32.3-3.7-6.2-5.5-8.1-10-10.6-4.8-2.7-10.5-4.1-10.5-2.6 0 .3 1.1 2.3 2.5 4.5s2.5 4.9 2.5 6.2c0 1.2.7 2.9 1.5 3.8 1.2 1.4 1.4 2.6.7 5.7-.5 2.3-.5 6.7 0 10.3.6 5.1.5 7.3-.8 10.7l-1.7 4.3h-6.1c-3.7 0-8.2.8-11.4 2-2.9 1.1-7.6 2-10.5 2-4.8 0-5.7.4-8.7 3.5-2.3 2.4-4.3 3.5-6.3 3.5s-4.4 1.3-7.9 4.5c-4.7 4.2-5.4 4.5-10.7 4.5-3.1 0-7.8.8-10.4 1.7l-4.9 1.8-2-2.8c-1.1-1.5-5.1-4.5-8.9-6.8-4.4-2.5-8.4-5.9-11-9.2-4.5-5.6-6.8-6.5-8.4-3-.6 1.6-1.8 2.3-3.6 2.3-1.4 0-3.4.9-4.4 2-1.7 1.9-1.8 1.9-6.9 0-2.8-1.1-6.8-2-8.8-2-2.8 0-3.8-.5-4.3-2.1-.7-2-1.3-2.1-10.3-1.7-5.4.2-10.5.8-11.4 1.2-1.3.6-1.8.4-1.8-.6 0-.8-2-3.4-4.5-5.8l-4.6-4.5 3.2-2.6c3.1-2.5 3.2-2.7 2.5-8.3-.7-5.5-.8-5.7-5.6-8.1-3.3-1.7-6.6-2.5-9.9-2.5-4.6 0-5.2-.3-6.6-3.1-1-1.8-3.1-3.7-5.3-4.6-2-.8-5.4-3.1-7.4-5.1-3.5-3.3-3.8-4-3.8-9.2 0-4.7-.4-6-2.5-8l-2.4-2.3-7.6 5.7c-7.6 5.7-7.7 5.8-12.8 5.1-4.6-.7-6-1.5-13.2-8.2-5.4-5-10.8-8.8-16.5-11.8-4.7-2.3-9.4-5.2-10.4-6.4-2.2-2.4-4.5-2.5-9.6-.6-3.4 1.2-3.8 1.1-13.8-4.2l-10.3-5.4-36 20.6c-21 12.1-36.7 20.5-37.7 20.3-1-.3-21.3-7.9-45.2-16.9-41.2-15.5-44.7-17-65.7-28.5l-22.1-12-7.9.8-7.8.9-16.5-6.2c-11.1-4.1-17.5-7.1-19.5-9-2.8-2.6-3.7-2.9-9.5-2.8-3.6.1-9.9.5-14 1z"/></svg>
