<svg version="1.0" xmlns="http://www.w3.org/2000/svg" width="1365.333" height="1365.333" viewBox="0 0 1024 1024"><path d="M86.8 46.5c-9.6 3-15.2 5.3-18.6 7.8-3.4 2.4-5.7 3.4-7.1 3-3-.8-12.3 7.8-13.6 12.5-1 3.6-1.2 3.7-8 4.9-3.9.6-11.6 2.8-17.3 4.7-8.4 2.9-11.4 4.5-16.3 8.7L0 93.2v15.6l5.7 3.4 5.8 3.4 3.5 10 3.4 10.1-2.6 3.1c-2.3 2.8-2.5 3.5-1.7 7.9 1.3 6.8 1.4 7 5.8 9.3 4.8 2.4 6.7 2.5 13.8.4 3.6-1 6.7-1.3 9.1-.9 2.1.5 7.9.7 13.1.6l9.4-.3L83.7 137c16.8-17.3 18.7-18.9 21.2-18.4 3.4.7 10.4-2.6 21.6-10.3 8.9-6.1 10.7-7.9 17.1-17.3 3.7-5.4 4.4-7.3 4.4-11.2 0-4.4-.1-4.7-3.2-5.4-1.8-.3-5.9-2.7-9-5.1-5.6-4.4-5.7-4.6-6-10l-.3-5.5-5-2c-2.7-1.1-9.3-3.7-14.5-5.7l-9.5-3.8-13.7 4.2zM159.5 155.5l-4.9 3.5-3.3-3.2-3.3-3.2-5.4 5.3c-3 2.9-5.8 6.7-6.3 8.5-.5 1.7-1.4 3-1.9 3-.5-.1-4.7-.5-9.4-.8l-8.5-.7-1.8 4.4c-1.5 3.6-2.6 4.8-6.6 6.7-4.5 2.1-4.9 2.6-5.3 6.3-.4 3.7-.1 4.1 2.9 5.3 2.5 1.1 3.4 2.2 3.9 4.9.8 4.4 1.4 4.7 5.2 3.4 2.9-1 3.5-.7 9 3.9 4.7 3.8 7.2 5.1 12 6.2 5.9 1.2 6.5 1.2 11.9-1.3 8.1-3.5 11.7-4.4 20.2-5.1 4.7-.4 9.5-1.6 13.2-3.2 5.4-2.5 5.7-2.8 6.6-7.4.7-3.6.6-5.4-.4-7.5-.8-1.5-1.2-3.8-.8-5.4.5-2.6.3-2.9-2.6-3.5-1.7-.3-5.1-.6-7.5-.6h-4.3l-1.6-5.5c-1.4-4.9-1.4-5.8-.1-8.4 1.4-2.6 1.4-3-.7-4.8-5.1-4.5-5-4.4-10.2-.8zM923.4 180.1c-1.6 1-4.5 1.9-6.5 1.9-3 0-4.7 1-10.4 6.2l-6.7 6.2.4 8c.3 6.6.8 8.8 2.9 12.1 2.3 3.6 2.5 4.3 1.3 7-.8 1.6-1.3 5-1.2 7.4.2 3.8-.2 4.7-3 7.1-1.8 1.4-3.2 3-3.2 3.3 0 .4 2.4.7 5.3.8 2.8 0 7.4.6 10.2 1.2 4.4 1.1 5.1 1.6 6.3 4.9 1.4 3.6 1.3 3.8-1.7 7.6l-3.1 4 4.7 4.3 4.7 4.3.3 8c.3 4.5.6 8.6.8 9.3.3.8 2.7.4 8.2-1.3 4.2-1.4 7.9-2.7 8.1-2.9.2-.2-.6-2.5-1.6-5.2-1.1-2.6-2.3-6.2-2.6-8-.4-2.7-.2-3.2 1.7-3.5 1.7-.2 2.3-1.1 2.5-3.5.2-2 1.3-4 2.8-5.2 1.3-1 2.4-2.6 2.4-3.5 0-.8-1.8-6-4-11.5-2.1-5.5-4.6-12.8-5.4-16.3l-1.5-6.3 2.6-2.1 2.6-2-2.6-9c-2.2-7.7-2.5-9.6-1.6-12.9 1.1-3.8 1-4-2.7-7.3-6-5.1-6.7-5.3-10-3.1zM215.2 205.1c-2.1 4.8-2.1 5.2-.4 7.3.9 1.3 4.3 3.4 7.6 4.7 4.1 1.6 6.4 3.2 7.5 5.2 3.5 6.2 2.9 6 14 5.2 9.8-.7 10.2-.8 11.6-3.6.8-1.5 1.5-3 1.5-3.3 0-1.1-6.9-2.6-12.1-2.6-5.1 0-5.8-.3-6.4-2.3-.4-1.2-2-3.6-3.5-5.2-1.6-1.7-3-3.9-3.2-4.9-.2-1.4-2-2.4-6.8-3.8-3.6-1-6.8-1.8-7.1-1.8-.4 0-1.6 2.3-2.7 5.1zM382.1 248.1c-1.9 1.6-3.7 1.9-8.2 1.8-5.6-.2-6 0-10.3 3.9-2.5 2.3-5.4 4.2-6.5 4.2-3.2 0-4.6 6.8-2.9 13.8l1.3 5.4 10.9 6.8 10.8 6.8 5.9 10.9c4 7.5 6 12.4 6.5 16.1.6 4.8 1 5.5 4 7 3.1 1.4 3.5 1.4 5.3-.2 1.6-1.5 1.8-2.3.9-5.3-.8-3-.6-3.8 1-5.7 1.1-1.1 4.6-7.2 7.7-13.4l5.6-11.2h3.8c2.6 0 4.9-.9 7.7-3 3.6-2.7 4.5-2.9 12.4-3h8.5l11.5 6.6c13.8 7.9 17.2 8.6 36.5 7.8 17.5-.8 19.7-2.2 16-9.4-1.2-2.4-2.2-3-4.8-3-2.6 0-4.3-1.1-8.6-5.4-3.8-3.9-7-6-11.2-7.5-5.4-2-6.5-2.1-17-1-10.7 1-11.3 1-14-1-7.4-5.5-10.1-6.7-18.1-8.5l-8.7-1.8-3.4 2.1c-2.9 1.8-4 1.9-6.2 1.1-2.3-.9-3.2-.7-5 1-1.2 1.1-2.6 2-3.1 2-1.5 0-7.1-6.1-10.7-11.6-2.9-4.5-3.6-4.9-7.5-5.2-2.6-.2-4.5-.9-4.9-1.8-.7-1.9-2.3-1.7-5.2.7zM255 254.9c0 4.6.1 4.9 3.1 5.5 6 1.2 6.2.8 2.2-4.9-2.1-3-4.1-5.5-4.5-5.5-.5 0-.8 2.2-.8 4.9zM288.5 270c-1.5 1.6-1.7 2.6-.9 4.8 1.4 4.1 4.7 4 7.3-.1 1.1-1.9 2.1-3.7 2.1-4 0-.4-5.5-2.7-6.5-2.7-.1 0-1 .9-2 2zM972 424.9l-2.2 4.8-7.6 1.1c-14 2.2-17.3 1.8-26.1-3.3-4.3-2.5-8.3-4.5-8.8-4.5-.6 0-1.5 1.8-2.1 3.9-.7 3.2-.6 4.2.6 5.5 1.4 1.3 1.3 1.7-.1 4-2.2 3.3-2.2 4 .9 11.3 2.3 5.4 2.6 7 2 12.6l-.7 6.5-6.7 4.5c-4.9 3.3-7.6 5.9-10.1 10l-3.3 5.6 2.1 9.8c1.2 5.3 2.3 9.8 2.4 9.9 2.9 2.4 11.8 6.7 17.2 8.3 5.3 1.5 8 3 10.5 5.7l3.5 3.6 11-.6c8.7-.5 12-.3 15.4.9 2.4.8 4.5 1.4 4.6 1.3.2-.2 1.6-2.8 3.3-5.8 3-5.2 3.8-5.9 17.4-13.4 23.2-12.9 24.8-14 24.8-17.8 0-1.8.9-4.1 2.1-5.4 2.1-2.2 2.1-2.3.5-14.5l-1.6-12.3-5.9-6.1c-4.7-4.8-6-6.8-6.4-10-.3-2.2-1-5.2-1.6-6.8-1-2.4-1.5-2.7-6.1-2.7-4.1 0-7-1-15.9-5.4l-10.8-5.5-2.3 4.8zM606.8 774.7c-4 4.1-4.7 5.4-4.9 9.3-.4 6.3 2.8 15.3 6.7 19.1 3 2.9 3.1 3.3 2.2 6.7-.6 2-2.1 5-3.4 6.7-1.7 2.2-2.4 4.5-2.4 7.6-.1 2.4-.9 5.9-1.9 7.7-1.4 2.8-1.6 4.2-.8 8.7 1.4 7.6-.3 19-3.6 24.1-1.4 2.2-2.8 6.2-3.1 9.1l-.7 5.3 4.3 2.1c3.3 1.6 4.8 3.1 6.4 6.8 2 4.4 2.3 4.7 5.5 4.4 3-.3 3.8.2 7.1 4.5l3.7 4.9-3.1 3.1-3.1 3 7.3 8.5 7.3 8.4 15.6 6.5c13.8 5.8 17.2 6.8 29.9 8.8 13.8 2.2 29.4 2.4 34.3.5 1.2-.4 1.9-2.4 2.4-6.3.5-4.6 1.4-6.6 4.6-10.4 3.4-4.1 3.8-5 2.9-7.3-1.5-3.9-1.4-4.1 3.8-6 2.6-1 5-2.1 5.5-2.4.8-.8-1.1-8-4.5-17.4-1.9-5.3-2.3-5.7-5.2-5.7-2.8 0-3.7-.9-8.7-8.3-4.2-6.1-5.8-9.5-6.3-13.2-1.1-7.9-1.4-8.3-6.7-10-3.8-1.3-5.6-2.6-8-6.1-2.9-4.3-3.2-4.4-8.2-4.4h-5.3l-8.3-14.6-8.3-14.5-3.8.2c-3.2.3-5-.5-10.8-4.4-3.8-2.7-8.6-7-10.6-9.7l-3.8-5 1.1-6.2 1.1-6.1-4.5-4.8c-2.5-2.7-4.7-5-5-5.1-.2-.2-1.5 1.2-2.9 3l-2.4 3.3-3.2-4.5c-1.7-2.5-3.2-4.6-3.3-4.6-.2 0-2.4 2.1-4.9 4.7zM820.6 777.2c-2.2 3.4-4.6 8.5-5.4 11.5-1.4 4.9-1.8 5.4-5.3 6.3-3.4.9-3.7 1.3-4.1 5.1-.2 2.8 0 4.3.9 4.5.7.2 2 .6 2.8.9 1.1.3 1.5 1.9 1.5 5.4 0 4-.4 5.3-2.4 6.8-3 2.3-5.7 16-4.9 24.6.5 5.6.7 5.9 4.7 7.9 2.2 1.1 5.7 3.5 7.6 5.3 3.3 3.1 4.1 3.4 12 4l8.5.6 12.1-10.7 12-10.6-1.4-12.2c-.7-6.6-2.4-15.3-3.6-19.2-2.1-6.4-2.2-7.3-.9-9.9 1.4-2.7 1.3-3.2-1.8-9.1-1.9-3.5-3.9-6.4-4.5-6.4-.6 0-2.8.7-4.7 1.5-2 .8-4 1.5-4.5 1.5-.4 0-2-2.5-3.5-5.5s-3-5.5-3.5-5.5c-.4 0-1.5 1.2-2.4 2.7l-1.6 2.7-1.3-4.2c-.7-2.3-1.5-4.2-1.8-4.1-.3 0-2.4 2.8-4.5 6.1zM368.4 885.4c-3.3 1.2-7.4 3.1-9 4.3-1.6 1.1-6.4 3.3-10.8 4.8-7.1 2.6-8.3 3.4-12.7 8.9-5.9 7.4-10.4 18.4-13.2 32.4l-2.1 10.3 10.2 10.2c9.8 9.8 10.7 10.4 22.1 15.4 8.6 3.9 13.1 5.3 16.3 5.3 6.3 0 17.6-5.4 26.1-12.3 3.7-3.1 7.6-5.9 8.7-6.2 1.9-.6 2-1.5 2-14.3 0-17-1.3-27.9-4.7-38.5-2.3-7.5-3.1-8.7-8.6-13.7-5.4-5-12.7-8.8-16.7-8.9-.8 0-4.2 1-7.6 2.3zM248.5 944c-2 1.3-4.7 2-8.2 2-5.5 0-5.4-.1-6.8 6.7-.4 2.2-1.3 3.3-2.8 3.5-1.8.3-2.4 1.4-3.6 7.6-.7 4-1.1 7.5-.8 7.9.4.3 2.4.1 4.7-.5l4-1 3.8 5.4c2 3 4.1 5.4 4.6 5.4.4 0 2.1-1.1 3.7-2.4 1.7-1.4 4.9-2.8 7.5-3.2l4.7-.7-.7-7.5c-.3-4.1-.6-10.8-.6-14.8 0-7.1-.1-7.4-3-8.9-3.5-1.8-2.9-1.9-6.5.5z"/></svg>
