<svg version="1.0" xmlns="http://www.w3.org/2000/svg" width="1365.333" height="1365.333" viewBox="0 0 1024 1024"><path d="M334.7 227.7c-.2.5-1 2.5-1.6 4.5-.8 2.3-2.4 4.4-4.2 5.5-1.6 1-2.9 2-2.9 2.3 0 .4 1.3 1.9 2.9 3.4 2.2 2.1 3.4 2.6 5.5 2 2.9-.7 3.1-.2 1.5 2.7-.9 1.8-.4 2.3 6 5.2 3.9 1.8 7.1 3.7 7.1 4.3 0 3.6-9.4 8.4-16.6 8.4-5.8 0-9.1 1.1-10.5 3.6-.7 1.4-5.3 4.6-10.8 7.6-8.8 4.8-10.2 5.2-17 5.5-6.2.2-7.8.6-10 2.6-2.1 1.9-3.4 2.3-6.3 2l-3.8-.5v5.1c0 4.5-.3 5.2-2.7 6.4-1.6.8-6.6 1.8-11.3 2.2-4.6.4-9.8 1.4-11.4 2.2-2 1.1-4.3 1.3-7.4.9-3.8-.5-5-.2-7.8 1.9-2.5 1.9-4.5 2.5-8.4 2.5h-5.1l-2 4.7c-1.1 2.7-2.3 6-2.6 7.4-.3 1.5-2.2 4.4-4.4 6.5-4.3 4.2-3.2 4.4-12-2.8l-4.7-3.8-.5 2.8c-.4 1.8-2 3.8-4.2 5.3-2.7 1.8-3.4 2.9-3 4.4 1.2 4 1 4.8-1.8 5.6-2.5.7-3 .4-4.4-2.7-.9-1.9-1.9-3.4-2.2-3.4-.9 0-3 3.5-7.8 13.2l-4.3 8.7-3.6-.6c-1.9-.3-6 0-9 .7-4.2 1-5.7 1.1-6.6.2-2.6-2.6-3.6-1.2-4.4 5.4-.6 5.7-1.2 7.3-4.1 10.5-3.6 4-9.3 6.6-11.5 5.3-.7-.4-4.6-3.2-8.6-6.2l-7.4-5.4-5.1 3.6c-2.9 2-7.1 5-9.4 6.7-3.9 3-4.2 3.1-6.4 1.5-3.3-2.3-6.2-2-16.7 1.6-9.2 3.1-9.3 3.2-14.8 10.4-3.2 4.2-6.5 7.5-7.9 7.8-1.8.5-2.6 1.5-3.1 4.1-.4 2.4-1.2 3.5-2.4 3.5-2.4 0-6 9-6 15.1s-2.7 11.1-5.5 10.3c-3.3-1-4.7-3.5-4.1-7.6.6-3.5.4-3.9-2.6-5.4-4.4-2.2-4.3-2-2.4-4.9 1.8-2.8 1.4-3.2-3.9-3.7-2.6-.3-3.1-.9-4.5-5.8-1.2-4-2.1-5.5-3.3-5.4-8.2.4-7.9.3-7.4 2.6.3 1.3.9 3.5 1.2 4.9.5 2.1.1 2.8-2.9 4.4-2 1.1-3.6 2.2-3.6 2.5.1 1.2 3.8 4.8 7.6 7.2 2.8 1.8 5.3 4.7 7.7 9 3.1 5.5 3.4 6.5 2.1 7.9-.8.8-1.4 3.4-1.4 5.7 0 3.9.3 4.2 5 6.8 3.8 2.1 5 3.3 5 5 0 2 .7 2.5 4 3 2.5.4 4.5 1.5 5.5 3 .8 1.2 4.4 3.9 8 5.9 5.3 3 6.5 4.1 6.5 6.2 0 1.6.4 2.3 1.3 2 .6-.3 1.9-.8 2.8-1.2 1.3-.5 2 .2 2.9 2.9.6 1.9 1 4.5.8 5.7-.2 1.7.7 2.5 5.2 4.3 5.5 2.2 5.5 2.2 5.2 6.2-.3 3.7-4.4 11.4-8.3 15.9-1 1.1-2.1 4.3-2.5 7.2-.6 4.8-.9 5.3-4 6.3-1.9.6-4.3 2.5-5.5 4.1l-2.1 3 2.5 2.7c1.3 1.5 2.9 4 3.4 5.6.8 2.6 1.7 3.2 7.2 4.4 4.9 1.1 6.1 1.7 5.7 3-.2.9-.7 3.8-1.1 6.5-.6 4.4-.5 4.8 1.9 5.7 3.4 1.3 6.3 6.2 7.7 13.1 1 5 1.5 5.8 4.5 7.2 2.8 1.4 3.4 2.2 3.4 4.9 0 1.7 1 6.2 2.2 9.9 1.7 5.3 2.7 6.9 4.4 7.3 1.3.4 4.5 2 7.1 3.6 4.6 2.9 5.1 3.5 7.1 10.3l2.1 7.3h5.8c3.2-.1 6.6.3 7.5.8 1.4.6 1.8.4 1.8-1.3 0-1.2.6-2.1 1.4-2.1 3.4 0 10.3 3.4 14.2 7 2.4 2.2 5 4 5.9 4 1 0 1.5 1 1.5 2.9s1.4 4.7 3.8 7.8c2.1 2.6 4.8 6.4 6 8.4 1.1 1.9 4.2 5 6.7 6.8 3.7 2.7 4.5 3.8 4.5 6.5 0 2.5.9 3.9 4.4 6.9 3.6 3 5.3 3.7 8.8 3.7 3.9.1 5 .7 12.1 7.3l7.7 7.3 1.5 7.9c1.6 8.6 1.7 8.7 11.4 15.7l4.4 3.2-.6-3.7-.6-3.7h5.8c4.5 0 6.2.4 7.6 2 1 1.1 2.6 2 3.5 2 2.4 0 3.4 1.4 6.5 9.2 2.9 7.2 2.9 7.2 8.8 5.9 3.7-.9 3.9-.8 5.2 2.4.8 1.8 2.5 4.6 3.8 6.1 4.2 5 6.7 10.7 5.5 12.8-1.4 2.5.5 3.6 6.1 3.6 4.1 0 5 .5 11.1 6.4 3.7 3.6 7.9 6.8 9.3 7.1 2.4.6 9.7 9.2 9.7 11.3 0 .5-1.2 1.4-2.6 2.1l-2.5 1.1 3 3.9c4.1 5.1 4.6 5.5 12.1 8.1 4.9 1.8 8.8 2.4 15.7 2.4l9.2.1 4.1 4 4 3.9 2.8-2.7c1.5-1.5 3.5-2.7 4.4-2.7 1.2 0 1.5-.6 1.1-2.1-.5-2-.3-2.1 2.7-1.7 3 .5 3.3.2 5.1-3.9 1-2.5 1.9-5.6 1.9-6.9 0-3.4 3.1-3.1 5.3.5 1.4 2.4 2.8 3.2 7.2 4.1 4.7 1 5.7.9 8.1-.6 2.5-1.7 2.7-1.7 4 .1.8 1 1.4 2.3 1.4 2.8s1.1.6 2.4.3c2-.5 3 .1 5 2.6l2.5 3.2 2.4-2.2c2.1-2 2.5-3.5 3-11 .8-12.1 1.9-15.3 6.1-17.6 4.3-2.3 8.6-8.3 8.6-11.9 0-3.3.5-3.3 10.5-.1 8.1 2.7 13.1 3.2 14.6 1.7.5-.5-.1-2.8-1.3-5.2-2-4.1-2-4.5-.5-9.4.9-2.9 1.4-6.2 1.1-7.3-.3-1.2.4-4 1.6-6.3l2.1-4.2-2-5.5c-2.9-7.7-2.8-11.8.4-13.2 1.7-.8 2.5-2 2.5-3.7 0-1.9.5-2.5 2.3-2.5 4.3 0 6.7 1.2 7.3 3.6.6 2.2 1.1 2.4 6.3 2.4h5.7l2.2 4.6c1.9 3.9 2.6 4.5 4.5 4 1.2-.3 4.1-.6 6.5-.6 3.9 0 4.4-.3 5.9-3.5 1.6-3.3 1.9-3.5 6.7-3.5 4.2 0 6.1.6 10.3 3.5 3.3 2.2 7.1 3.8 9.9 4.2 4 .5 4.9 1.1 5.8 3.4.8 2.3 2.4 3.3 8.6 5.6 4.1 1.5 9.8 4.4 12.7 6.6 4 3 6.6 4.1 11.9 4.9 4.7.8 6.9.8 7.1.1.2-.5.9-1.8 1.6-2.7 1.1-1.5 2.3-1 12.6 4.8 6.6 3.8 13.9 8.9 17.5 12.3 3.3 3.2 8.2 7.5 10.7 9.6l4.6 3.7H616c10.6 0 15.7.4 19.6 1.7 5.1 1.6 5.4 1.6 7.4-.2 1.6-1.4 2.3-1.6 3.2-.7 2.1 2.1 3.3 1.3 9.2-5.8 5.3-6.3 6.2-7 9.5-7 2 0 4.5-.7 5.6-1.5 1.7-1.4 2.2-1.2 5.5 2 3.4 3.3 3.7 3.4 7.3 2.3 3.5-1.1 3.9-1 6.7 1.7 1.9 1.9 3 4 3.2 6.4.3 3.5.4 3.6 3.9 3.3 2.2-.2 6.1.7 10 2.2 6.3 2.6 6.6 2.6 13.9 1.2 4.1-.8 7.6-1.3 7.8-1.2.1.2 1 4.5 1.9 9.7.9 5.2 1.9 9.7 2.3 10.2.3.4 1.6-2.6 2.9-6.5 1.3-4 3.3-8.4 4.5-9.8 1.3-1.4 2.8-4.5 3.5-7 .8-2.9 2.9-6.1 5.6-9 2.4-2.5 6.1-6.9 8.3-9.9 3.7-5.2 4.2-5.6 10.8-7.1l6.9-1.7 9.7 5 9.7 5.1 9.3-3.6 9.3-3.5 4.1 2.3c5.3 3.1 7.3 3 13.2-.5 3.1-1.8 7.1-3.1 10.9-3.6l6-.7 4.3-8.9 4.4-8.9 4.1.1c6.9.2 12.4-3 18.5-10.9 3.2-4.1 6.5-7.3 8-7.7 1.3-.4 5.3-2.3 8.7-4.4 7.4-4.4 11.3-9.8 14.9-20.5 1.3-3.9 3.3-8 4.5-9.2 1.6-1.7 2.3-4.2 2.8-10.1.5-5 1.6-9.6 3.2-12.8l2.4-4.9L935 627c6.3-2.1 13.8-4.8 16.5-6.1 4.5-2.2 5.2-3 7-8.2 1.4-3.7 3.7-7.3 6.7-10.4 2.6-2.7 5.7-7.2 7-10.2 2.1-4.8 2.8-5.5 7.8-7.5l5.4-2.2 7 1.9 6.9 1.9 11.3-4.2c11.3-4.2 11.4-4.2 12.4-8.2 1-3.4.7-4.9-1.9-12.1-1.7-4.5-3.5-10.2-4.2-12.7-1.3-5.2-4.3-9-7.3-9-3.9 0-6.5-1.2-7.1-3.1-.5-1.4-1.6-1.9-4.1-1.9-5.6 0-9.4-2.5-9.4-6.1 0-1.7-1.8-7.2-4-12.1-2.2-5-4-9.5-4-9.9 0-.5 1.1-2.7 2.5-4.9s2.5-4.2 2.5-4.5c0-.3-1.3-.5-3-.5-1.6 0-3-.3-3-.8.1-.4.5-2.6.9-4.9.7-3.8.6-4.4-1.6-5.8-2.3-1.5-2.4-1.5-3.4 1.5-1 2.7-1.5 3-5.2 3-3.2 0-4.8-.7-7.3-3.1-2.3-2.3-5-3.5-9.6-4.5-8.5-1.8-8.5-1.8-9.7 1.7l-1.1 3.1-3-2.2c-1.7-1.2-3.7-3.4-4.5-5-.9-1.7-2.8-3.3-4.8-3.9-2.6-.9-3.8-2.2-5.4-5.9l-2-4.7-1.3 2.7c-1.6 3.3-2.1 3.4-7.7 1-3.4-1.3-4.4-2.3-4.9-4.7-.3-1.7-2.5-5.2-4.9-7.9l-4.3-4.9-2.2 4.3c-1.2 2.3-2 4.3-1.8 4.5.2.1 1.3.8 2.6 1.4 1.2.6 2.2 1.9 2.2 2.8 0 1.2-.7 1.4-3.1.9-2.6-.5-4 .1-8.7 3.8-4.4 3.4-6.8 4.5-10.7 5-4.9.6-5.1.5-10.9-4.7-4.3-3.9-7-7.6-10.5-14.3l-4.6-8.9h-4c-4.2 0-6.8-2.1-13.9-11.7l-2.7-3.6 5.1-1.1c2.8-.6 6.7-1.1 8.6-1.1 2.7 0 3.7-.5 4.6-2.4.6-1.4 2.4-3 3.9-3.7 2.4-.9 2.9-1.7 2.9-4.6 0-1.9-.9-4.8-2-6.3-1.8-2.6-1.9-3.1-.6-6.8l1.4-3.9-4.8-3.6-4.8-3.6-.6 3c-.3 1.7-1.5 4.4-2.7 6-2 2.8-2.3 2.9-10.2 2.9-5.3 0-10.5.7-14.7 2-9.1 2.8-10.9 2.6-12.1-1-1.3-3.7-2.8-3.8-6-.4-2.4 2.5-2.4 2.5-4 .5-1.2-1.5-1.5-3.3-1.2-6.6l.6-4.5h-3.8c-2.7 0-5.8-1.2-10.6-4.2-5.9-3.6-6.9-4.7-6.9-7 0-2.7-.1-2.8-5.9-2.8-5.5 0-6.1-.2-8.1-3-1.8-2.5-2.8-3-6.2-3-2.4 0-4.9-.7-5.9-1.6-1.7-1.5-17.7-6.4-21.1-6.4-1 0-2.6 1.6-3.8 3.9l-2 4 3.4 2.8c3.4 2.8 5.5 7 7.6 15 1 3.9 1.3 4.3 6.5 5.8 5.1 1.4 5.5 1.8 5.5 4.6 0 1.7.5 5.1 1.1 7.6 1 3.7.9 4.7-.2 5.4-2.5 1.5-4.4 1-6-1.8l-1.7-2.6-1.1 2.1c-.9 1.7-2.1 2.2-5.1 2.2-3.4 0-4.2.4-5.6 3.2-2.2 4.4-2.1 4.4-4.2 1.8l-1.8-2.2-3.1 2.6c-1.8 1.5-4.8 5.6-6.8 9.1-2.4 4.4-4.2 6.5-5.5 6.5-1.2 0-2.2 1.2-3 3.6l-1.2 3.7-5-.6c-2.7-.4-6.5-1.6-8.4-2.8-4.7-2.8-8.9-11.5-9.8-19.7-.6-6.4-.6-6.4-9.7-16.3-7.9-8.5-9.8-10-13.1-10.5-5.2-.9-8-4.7-7.1-9.9l.6-3.7-7.3.3-7.3.4-1.4-4.3c-1.3-3.8-1.8-4.2-4.7-4.2-2.5 0-3.5-.6-4.4-2.5-1.6-3.4-1.6-3.5 1.2-3.5 1.8 0 2.6-.6 2.8-2.2.2-1.4 2.2-3.3 6.1-5.5 4.5-2.7 5.7-3.9 5.7-5.9 0-2.4.1-2.4 2.7-1 2.5 1.2 3 1.2 6.4-1.1 4.3-2.8 6.9-7.7 5-9.6-2.1-2.1-1.1-3.4 2.9-4.1 2.2-.3 4-.8 4-1.1 0-.2-3.2-4.9-7.1-10.5-6.4-9.1-7.3-10-10.2-10-3.1 0-8-1-12.4-2.4-1.9-.6-2.3-.1-3.8 4.4-1.3 3.9-2.2 5.1-4.3 5.7-2 .5-3 .1-4.6-2-1.2-1.4-4-3-6.4-3.7-5.5-1.4-8.9.7-9.8 6.2-.6 3.7-.7 3.8-5.2 3.8h-4.5l.6-4.3c.4-2.8.1-5.6-1.1-8.5l-1.7-4.4-5 .7c-2.7.3-6.6.8-8.6 1.2-3.4.5-3.7.3-6.2-4-1.5-2.5-2.7-5.6-2.7-7 0-1.3-1.1-3.4-2.6-4.7-2.1-2.1-2.7-2.2-3.4-1-.5.8-1 1.8-1 2.2 0 1.5-7.9.8-12.2-1-2.4-1.1-6.1-2.2-8.3-2.6-7.8-1.4-23.1-6.9-26.6-9.7-2-1.6-4.2-2.9-4.7-2.9-.6 0-2.5 2-4.2 4.5-2.6 3.7-3.4 4.3-4.9 3.5-1.4-.7-2-2.7-2.5-8-.8-7.5-1.7-9-7.5-11.9-3.2-1.7-3.8-2.6-5.4-8.4-1.3-5.1-1.5-7.1-.6-9 1.3-2.8-.2-6.7-2.6-6.7-.8 0-1.5-.6-1.5-1.3-.1-3.2-1.6-4-5.4-2.6-3.6 1.3-3.8 1.3-6.2-1.9l-2.6-3.2-2 2.6-2.1 2.6-1.9-3c-1.6-2.5-2.6-3-7.7-3.6-6.8-.8-10.7.5-11.5 3.9-.3 1.3-.9 3-1.2 3.8-.4 1.1.2 1.6 1.8 1.9 1.9.2 2.4 1 2.6 3.9.3 3.1-.2 4-2.7 5.9-2.8 2-3 2.3-1.6 4.3.8 1.2 1.7 4.1 2.1 6.4.6 3.8.4 4.2-1.7 4.5-1.3.2-5.8-.1-9.8-.5-4.1-.5-9.4-.6-11.6-.2-4 .5-4.2.8-5.8 5.9l-1.7 5.4-5.3-1.5c-6.8-1.9-19.7-7.4-19.7-8.5 0-.4.9-3.1 2-6l2-5.3-2.4-2.4-2.5-2.4-3.6 2.8c-3 2.2-3.9 2.5-4.6 1.4-1.3-2-1.1-3.2 1.2-9.5 2.1-5.6 2.1-5.8.3-9.2-1.2-2.2-3.2-3.9-5.6-4.9-3.2-1.3-3.8-2-3.8-4.4 0-3.5-.4-3.6-4.7-.3-1.8 1.4-4.9 3.2-6.9 4-3.6 1.5-3.7 1.5-6.8-1.5-1.9-1.8-4.3-3.1-5.7-3.1-1.4 0-3.4-.9-4.4-2-1.9-2.1-3.1-2.5-3.8-1.3z"/></svg>
