<svg version="1.0" xmlns="http://www.w3.org/2000/svg" width="1365.333" height="1365.333" viewBox="0 0 1024 1024"><path d="M619.2 202.7c-1.7 2.5-1.7 3.2-.6 5.8.7 1.6 1.3 4 1.4 5.3 0 1.2.9 4 2 6.2 3.4 6.7-.5 13.3-6.7 10.9-3.8-1.4-6.3-3.8-6.3-6.1 0-1.2-1.1-2.3-3-2.9-1.6-.6-3-1.5-3-2s-.9-.9-2.1-.9c-4.1 0-5.9-1.8-5.9-6.1 0-3.8-.2-4-2.7-3.7-2.6.3-2.8.6-3.1 5.6-.3 5.6 2.5 13.1 7.6 20 3.3 4.5 2.4 7.5-2.8 9.6-2.2.9-5.6 1.6-7.4 1.6-2.7 0-3.5.5-4 2.4-.7 3-5 4.6-12.3 4.6-4.3 0-6.2-.6-10.3-3.3-2.8-1.8-5-4-5-5 0-2.5-1.2-2.1-4.5 1.3-2.7 2.9-7.5 4.1-7.5 2 0-1.3-7-9-8.1-9-2 0-.7 4.6 2.1 7.5l3 3.1-2.3 3.5c-2.9 4.4-5.2 4.7-8.7 1.4-2.8-2.6-7.1-4.3-14.2-5.2-3.3-.4-3.8-.2-5.2 2.5-.8 1.6-2.2 3.2-3.1 3.6-2.1.8-8.5-2.4-8.5-4.3 0-.9-.6-2.8-1.4-4.3-.8-1.5-1.7-4-2.1-5.7-.5-2.3-1.4-3.2-4.3-4.2-2-.6-5.4-2.3-7.5-3.7-3-2-4.2-2.3-5.5-1.5-2.8 1.7-2.5 5.2 1.3 14.9 4.2 10.6 4.2 15.2.1 17.9-1.9 1.3-3.2 1.4-7.2.5-5.2-1.2-6.4-2.2-6.4-5.7 0-1.2-.9-2.7-2-3.3-1.8-.9-2-.8-2 1.6 0 2.5-.2 2.6-4 2.1-5-.6-5.4 1.3-1 5.1 1.7 1.5 3 3.2 3 3.9 0 2.4-2.2 2.4-4.8 0-3-2.8-9.9-6-11.3-5.1-.5.3-.9 1.2-.9 2 0 1-1.3 1.4-4.7 1.4-4.1 0-5-.4-8.4-4.1-3.7-4-4.2-4.2-10.9-4.7-6.4-.4-7.3-.3-9.5 1.8-1.7 1.6-2.5 3.4-2.5 5.6 0 2.6-1.1 4.4-4.9 8.2-5.8 6-12.2 8.6-14.8 5.9-1.4-1.4-1.9-1.4-4.5-.1-3.5 1.8-3.6 3.2 0 4 3.8 1 5.1 3.2 5.2 8.6 0 6.4-1.7 6.3-11.7-.5-8.3-5.7-12.8-7.7-17.4-7.7-2.8 0-2.9.2-2.9 4.9 0 4.9 0 4.9 5.3 7.9 6.1 3.4 7 4.4 8.3 9.2.8 3 .5 4.3-1.8 9-1.5 3-2.7 4.7-2.7 3.8-.1-.9-1.3-2.6-2.8-3.8-2.3-1.8-3.5-2-8.2-1.5-3.1.4-6.8 1.5-8.3 2.5-3.3 2.4-10.8 2-18.8-1-7.2-2.7-12-2.7-12.7 0-.6 2.2-3.7 2.7-5 .7-.5-.7-1 .9-1.3 4.2-.4 4.4-1 5.8-3.2 7.4l-2.8 2.1-3-2.2-3-2.2-5.5 4.5c-7.3 5.9-10.7 6.1-15.2.8l-3.1-3.8-.7 4c-.4 2.2-1.5 5.3-2.4 6.8-1.6 2.8-1.5 3.1 2.2 9.7 2 3.8 3.7 7.9 3.7 9 0 1.2.7 3.4 1.5 5 2.1 4.1 1.1 8-2.2 8-1.3 0-3.5 1.2-5 2.6-1.8 1.8-3.4 2.4-5.7 2.2-3-.3-3.1-.2-2.9 3.7.1 2.2.4 5.4.8 7.2.6 2.7.4 3.2-1.5 3.5-2 .3-2 .6 1.8 6.4 3.9 6 4.1 6.1 9.3 6.6 3.2.3 5.7 1.2 6.4 2.2.7.9 2 1.6 2.9 1.6 1.3 0 1.6-1 1.6-5 0-2.8.4-5 .8-5 .5 0 2.1 1.3 3.7 3 3.7 3.8 4.5 3.8 4.5-.2v-3.3l2.4 2.5c2.9 3 3.9 6 2.6 8-.8 1.3-1.3 1.3-4.1-.3-4.1-2.3-6.2-2.2-5.4.2 1.2 3.9-5.8 5.9-9.4 2.7-2.5-2.3-3.4-2-5.1 1.6-2.1 4.5-4.6 5.8-6.3 3.4-2.1-2.9-5.1-1.3-6.3 3.4-1.2 4.3-.4 6 2.8 6 1.4 0 1.8.8 1.8 3.3 0 2.6 1.3 4.7 6 10 4.8 5.4 6 7.5 6 10.1 0 4.4-2.5 5.4-5.6 2.5l-2.3-2.1-1.6 5.6c-.9 3.2-1.4 6.4-1.1 7.2.9 2.3 6.9 4.4 12.5 4.4 4.4 0 4.9-.3 5.5-2.5.6-2.3 1.1-2.5 6-2.5 2.9 0 5.6.3 6 .7.4.4 3.6.6 7.1.5 3.7-.2 6.5.1 6.9.7.4.6.2 2.8-.4 5-1 3.7-1.3 3.9-5.8 4.5-12.5 1.5-20 1.8-21.9.8-1.5-.8-2.5-.8-3.8.2-1.7 1.2-1.5 1.5 1.9 4.2 2 1.6 3.6 3.2 3.6 3.6 0 .5-2 .8-4.5.8-4 0-4.6.3-6 3.1-1.4 2.7-1.5 3.6-.1 8.2.8 2.9 1.9 8.3 2.5 12.1 1 6.6.9 7-1.4 9.8-4.6 5.5-2.6 9.8 4.7 9.8 2.6 0 4.3 1.1 8.5 5.2 3.2 3.2 6.8 5.7 9.1 6.3l3.7 1.1.3 12.9c.2 11.3.5 13.2 2.3 15.1 1.1 1.1 3.2 5.4 4.8 9.5 2.5 6.7 3.2 7.6 7.2 9.6 5.2 2.6 8.9 2.9 8.9.8 0-.8.3-1.5.8-1.5 1.8.1 3.1 1.8 4.1 5.7.9 3.3 1.8 4.4 3.7 4.9 1.7.4 2.9.2 3.5-.7 1.1-1.9 8.7-1.2 12.6 1.2 2.3 1.5 3.2 1.6 3.5.7.8-2.4 3.5 1 6.4 8 3 7.4 7.5 12.7 11.5 13.7 2.2.6 2.8.1 4.3-3.4 1.8-3.9 1.9-4 8.5-4.6 3.6-.3 7.4-.7 8.5-.8 3-.3 7.4-12.9 6.9-19.8-.3-3 0-6.6.6-8.2l1.1-2.7h11.2c9.5 0 12.4.4 18.3 2.5 3.9 1.3 7.7 2.5 8.5 2.5.8 0 2.4 1.5 3.6 3.3 1.7 2.6 2 4.1 1.5 8.2-.8 6.2-6 14.2-10.5 16-5 2.1-6.7 4.7-7.3 11.3-.4 4.4-.1 7.2 1.3 10.8 2.1 5.5 2.3 13.2.6 26.9-1.3 10.5-3.9 18.7-8.3 25.8-1.7 2.7-3.9 8.4-5 12.6-1 4.2-2.6 9.3-3.4 11.4-.8 2-1.5 5.5-1.5 7.7 0 3.6.3 4.1 3.8 5.6 7.7 3.2 8.7 3.1 11.6-1.8 1.4-2.5 2.6-5.4 2.6-6.6 0-2.7 10.9-12.5 15.5-13.9 2.9-.9 4.1-.8 6.4.5 2.6 1.5 3 1.4 6.2-.6 2.7-1.6 4.4-1.9 7.8-1.5 3.5.5 4.5.3 5.3-1.1 1.3-2.4 4.9-3.6 14.5-5.1 4.8-.8 9.3-2.1 11-3.3 3.3-2.4 9.5-4.2 14.3-4.2 4.5-.1 5.8-1.2 10.4-8.7 6.3-10.5 10.8-12.6 21.1-9.5 5.3 1.6 6.1 2.2 6.5 4.8.3 1.6 2 5.9 3.8 9.6 2.5 4.9 3.9 6.8 5.9 7.3 1.4.3 2.7.4 2.9.2.3-.2.9-3.2 1.5-6.5 1.1-6.1 1.1-6.2-2.1-10.2-3.8-4.7-3.1-6.6 2-5.5 2.3.5 4 2.1 6.6 6 2.1 3.1 5 6 7.2 7.1 5.7 2.9 8.2 5.5 8.2 8.4 0 4 6.9 7 16 7h6.9l.7 4.5c.4 2.7 1.2 4.5 1.9 4.5s3.8 2 6.8 4.5c6.4 5.2 10.2 5.9 11.6 2.1 1.4-3.5 4.3-4.2 6.1-1.4.8 1.3 5 6 9.3 10.4 9.2 9.6 12.8 11.2 23 9.9 8.8-1.1 13.5-1.1 14.7.1.6.6-.1 3.1-2 7.3-3.6 7.6-3.7 10.2-.6 15.5 1.9 3.3 3.6 4.6 8.3 6.5 16.5 6.7 15.3 5.9 15.3 10.5 0 3.3.6 4.8 2.6 6.7 3.5 3.3 9.9 15.3 11.4 21.5l1.3 5.1 9.1 3.5c5 1.9 12.5 4.1 16.6 4.9l7.5 1.4.5 5c.3 2.7 1.1 6 1.8 7.3l1.3 2.2 3.9-2c3.2-1.6 5-1.9 9.4-1.4l5.4.6.7-4c.6-3.5 1.1-4.2 4.6-5.6 2.2-.9 5.8-1.6 8-1.6 3.5 0 4.9-.7 9.6-5 3.4-3.1 6.4-5 7.9-5 1.6 0 3.3-1.2 5.3-4 1.6-2.3 4.1-5 5.5-6.1l2.5-2 4.8 2.4c2.6 1.3 6.6 3 8.8 3.7 6.2 2 9.3 4.4 12.4 9.2 2.5 4 3.7 4.8 11.3 7.6 8.8 3.3 13.6 3.8 25.6 2.6 5.7-.6 6.1-.8 5.1-2.6-.9-1.7-.5-2.6 2.7-5.9 2.1-2.1 4.6-4.1 5.5-4.4 1.9-.7 4.3-10.4 2.8-12-.5-.5-.9-3-.9-5.6 0-3.7.7-5.5 3.4-9.1 3.8-4.9 6.1-5.8 15.1-5.8 5.2 0 5.3 0 5.9-3.4.8-3.9 0-8.1-2-11.1-.8-1.1-1.4-4.2-1.4-7 .1-4.4.6-5.5 4.1-9.4 3.5-3.9 4.7-4.6 10.7-5.7 4.5-.9 10.2-1.2 17.5-.7 10.4.6 10.9.5 13.3-1.8 5.6-5.2 6.7-10.5 3.5-16.8-1.9-3.7-2.2-3.8-8.3-4.5-5.1-.5-6.8-1.2-9.1-3.4-3.8-3.8-5.1-9.7-3-13.3 1.5-2.5 1.5-2.9-.6-5.8-2.3-3.3-6-4.1-7.9-1.9-.5.7-1.6 3.2-2.3 5.5-.6 2.4-1.6 4.3-2 4.3-1.3 0-3.9-13.7-3.9-20.9 0-3.9-.5-9.1-1.2-11.6-1-3.7-1.7-4.7-4.5-5.6-2.5-.8-3.3-1.6-3.3-3.5 0-2.7-6.5-20.7-8.7-24.1-1-1.5-1.3-3.5-.8-6.2.7-4.3-.3-7-6-15.6-3.1-4.6-3.4-5.8-3.7-14.2-.3-6.9-.1-9.4.9-9.7 2.3-.9.2-3.4-6.5-7.6-6.1-3.9-7.1-4.2-12.2-3.8-8.3.6-8.9-.4-8.9-17.9 0-11.7-.4-14.9-2.1-19.2-1.1-3-2-7.5-2-10.7 0-4.4-.6-6.4-2.9-9.7-2.6-4-3.9-8.6-5.6-21.5-.6-4.4-9.3-22.9-11.7-24.9-.7-.6-3.9-1.9-7-2.9-3.7-1.1-7.6-3.4-10.9-6.3l-5.2-4.5.7-9.8c.8-12.4 2.8-16.7 12.5-26.5 6.5-6.6 7.6-7.3 13.1-8.4 3.3-.6 8-2.4 10.3-3.9 2.7-1.7 6.5-3 10.3-3.5 3.2-.4 9.3-1.6 13.4-2.7 6.3-1.6 10.3-1.9 24.5-1.7 9.4.1 19.1-.1 21.7-.5 4.2-.7 5.1-.5 9.3 2.4l4.6 3.2 3.4-2.7c3.1-2.3 3.5-3.1 3.5-7.2 0-2.7.8-5.8 1.9-7.7 1.1-1.7 3.6-8.5 5.6-15.1 3.5-11.1 4.2-12.4 9.4-18 6.2-6.7 9.1-13.6 9.1-21.9 0-4.1.5-5.3 3.3-8 2.8-2.9 4.9-3.7 17.4-6.6l14.2-3.3 5.9-6.7c6.4-7.1 8.2-11.3 8.2-19.3 0-4.6-.3-5-7.2-12-8.3-8.4-16.2-14.1-18.3-13.3-.8.3-2.1 2.1-2.9 4-1 2.4-2.8 4.2-5.8 5.7-2.4 1.2-6.2 3.9-8.4 5.9-3.8 3.5-4.8 3.9-12 4.5-6.7.7-9 .4-15.4-1.5-10.9-3.3-14.6-3.9-23.2-4-7.8 0-16-1.8-31.1-6.7l-7.8-2.5-23.7 2.2c-17.6 1.6-26.6 2-35.2 1.5-12.5-.7-16.4-2.1-21.4-7.4-1.7-1.7-3.7-3.1-4.6-3.1-.8 0-3.9-1.6-6.9-3.5-2.9-1.9-5.9-3.5-6.7-3.5-.8 0-1.7-1.3-2-3-.4-2-1.3-3-2.4-3-1 0-4.4-1.4-7.6-3.1-5.1-2.6-15.4-5.8-19.1-5.9-.9 0-1.1 1-.7 3 .8 3.5-.9 6-4 6-1.1 0-3 .7-4 1.5-1.8 1.4-2.3 1.3-5-1.3-5.7-5.3-13-9.2-17.2-9.2-4.5 0-10.8-2.7-16.1-6.7-3.3-2.6-4.5-2.8-15-3.4-11.2-.5-11.3-.6-14.8-3.9-1.9-1.9-3.7-4.1-4-5.1-.3-.9-2-1.9-3.8-2.3-2.5-.5-3.5-.2-4.8 1.5-1.5 2.1-1.6 2.1-4.6-1.8-1.7-2.1-3.5-3.5-3.9-3-.4.4-.3 3.1.3 6 1.3 6.2-.2 9.7-4.3 9.7-2.8 0-4.3-2.5-2.5-4.3 2.2-2.2 1.2-4.5-2.1-5.2-1.8-.4-4.3-1.3-5.5-2.1L648 214v8.4c0 6.7-.3 8.5-1.6 9-2.6 1-5.1.7-8.3-1.2-3-1.6-3.1-2-3.1-8.3 0-4.4-.5-7-1.4-7.8-.7-.6-1.6-2.9-2-5.1-.5-3.1-1.1-4-2.6-4-1.1 0-2-.6-2-1.3 0-1.1-3.9-3.7-5.5-3.7-.2 0-1.2 1.2-2.3 2.7zM429.4 223.7c-.3 2.1-1.5 4.8-2.6 6-2 2.1-2 2.1.4 3.4 1.2.6 3.9 2.5 5.8 4.1 4.8 3.9 7.1 3.8 6.3-.5-1.8-9.1-5.5-16.5-8.5-16.7-.4 0-1 1.7-1.4 3.7z"/><path d="M342.8 296.9c1 7.2 9.2 9.4 9.2 2.6 0-3.9-2-5.5-6.8-5.5-2.6 0-2.8.3-2.4 2.9zM331 299.4c1.7 2.4 4.3 4.9 5.6 5.5 3.3 1.4 3.4 1.4 3.4-.7 0-1.7-3.5-5-8.5-7.9-3.6-2.2-3.7-1.4-.5 3.1zM122.9 376.1c.3 8.9.3 9.1-1.8 8-1.7-1-2.3-.7-3.7 1.4-1.5 2.3-2.1 2.5-5.7 2-2.8-.5-3.7-.4-3.3.4 1 1.6-3.4 13.1-5 13.1-.8 0-1.4 1.1-1.4 2.5 0 2-.5 2.5-2.5 2.5-1.7 0-2.9.9-3.9 2.8-.8 1.5-2.6 3.3-4 4-2.2 1-2.6.9-3.2-1-.6-1.9-1.2-2-7.4-1.6-3.7.3-7.7 1.2-8.9 2-3.6 2.6-28.1.5-28.1-2.3 0-1.8-1.7-.8-3.9 2.2l-2.3 3.1 2.8 2.9c1.8 1.9 3.8 2.9 5.6 2.9 1.8 0 2.8.5 2.8 1.5 0 .8 2.1 2.9 4.7 4.5 4.6 2.9 5.2 3 14.8 2.8 7.7-.2 10.5-.7 12.4-2 1.3-1 4.1-1.8 6.1-1.8 3.3 0 4.4.7 9.4 6.1l5.6 6v10.4c0 10.1.1 10.4 2.8 12.4 2.6 2 2.6 2.1.8 3.6-1.1.8-1.8 1.6-1.5 1.8.2.2 2.1 1.5 4.1 2.9l3.8 2.5-3.7 1.7-3.6 1.7 4.3 4.4c5.1 5.2 8.8 6.1 18.3 4.5 7.2-1.3 8.8-2.7 11.7-9.8.7-1.8 2.6-5.1 4.1-7.2 1.6-2.2 2.9-5.3 2.9-6.9 0-4.3 2.4-5.9 6-3.8 1.5.9 3.8 1.7 4.9 1.7 2.4 0 2.5.6.6 4-2.4 4.2-1.7 4.3 3.4.6 2.7-2 6-3.6 7.4-3.6 2.5 0 2.6-.1 2.5-7 0-3.9-.1-7-.2-7s-1.7.4-3.6 1l-3.5.9 2.5-2c1.9-1.7 3.3-1.9 6.6-1.4 2.5.3 4.5.2 4.9-.4.3-.6 1.9-.8 3.4-.5 2.3.5 3 .2 3.5-1.3s1.5-1.8 5.3-1.7c4.2.2 4.8.5 5.6 2.9.8 2.2 1.4 2.6 4 2.3 1.7-.2 3.2-.8 3.4-1.3.2-.6-1.5-3.4-3.7-6.4-4.8-6.3-5.4-11.3-1.7-13.2 3.2-1.7 3.2-1.7.7-4.4-2.8-3-4-3.2-4-.5 0 3.3-5.3 2.7-8.4-1.1-2.5-2.9-3.4-7.9-2.8-15.2.1-1.2-.6-1.7-2.6-1.7-5.8 0-10.1-1.3-10.7-3-.8-2.5-4.8-3.9-13.6-4.9-4.2-.5-8.9-1.5-10.5-2.2-2.7-1.3-2.9-1.9-3.6-8.8-.3-4-1.1-7.8-1.7-8.4-.6-.6-3.5-1.2-6.5-1.5-4.1-.3-6-1-7.7-2.8-1.2-1.3-2.5-2.4-2.8-2.4-.3 0-.4 4.1-.2 9.1zM217.3 383.3l-6.3 2.1v4.8c0 3.6.5 5.3 2.2 7 1.3 1.3 3 3.6 3.8 5.3.8 1.6 2.3 3.1 3.3 3.3 2.5.5 6.7-2.5 6.7-4.7 0-1.7 1.8-3.1 4-3.1.5 0 1.4 2.5 2 5.5 1.1 5.5 1.2 5.5 4.8 5.5 3.3-.1 3.5-.2 2-1.4-2.7-2-2.2-4.1 1.5-5.8 2.9-1.4 3.4-1.3 6.2.3 1.7 1.1 3.5 1.9 4.1 1.9 2.4 0 2.4-3.4.1-6.9-1.3-2-2.7-4.6-3.1-5.9-1.1-3.3-4-4.4-10-3.7-4.9.6-5.5.5-9.9-2.9-2.6-2-4.8-3.6-5-3.5-.1 0-3 1-6.4 2.2zM213.4 490.7c-1.3 2.9-1.3 4.1-.4 5.8.9 1.7.9 2.8 0 4.5-1 1.8-1.7 2.1-5.1 1.5-4.8-.8-5.7.7-3.9 7.1 1.5 5.3 4.7 7.4 11.1 7.4h4.1l-.4 4c-.2 2.2 0 4 .5 4 .4 0 3 2 5.6 4.5l4.9 4.6.6-3.5c.5-2.7 1.3-3.7 3.8-4.5 5.2-1.8 9.2-1.4 11.8 1.4 2.4 2.5 2.4 2.6.6 5.7l-1.9 3.1 2.4-.6c1.3-.4 3.2-.7 4.3-.7 1.5 0 1.7-.5 1.3-2.9-.4-1.9-.1-3.3.8-4.1 1.9-1.6 1.9-7.4.1-8.9-2.2-1.8-5.6-9.7-5.6-12.8 0-1.6.5-3.5 1-4.3 1.5-2.4-3.6-6.8-10.5-9-3.3-1.1-8.5-2.9-11.5-3.9-3-1.1-7-2-8.8-2.1-2.9 0-3.5.5-4.8 3.7zM114.2 505.7l-5.1 6.8-8.3 2.3c-4.6 1.2-10.2 2.2-12.6 2.2-2.3 0-6.1.6-8.3 1.2-4.1 1.3-4.1 1.3-3.4 5.3 1.6 10 1.7 13.6.5 16.5-1.1 2.7-1.7 3.1-4.4 2.8-3-.3-3.1-.5-4.1-6.5-1.1-7.1-4.7-12.1-6.6-9.3-.5.8-.8 2.5-.6 3.8.5 2.6-1.9 4.8-8 7.6-5.3 2.3-6.3 4.9-6.3 15.1 0 6.4-.3 8.5-1.3 8.5-2.4 0-5.8-4.6-7.2-9.6-.7-2.7-2.1-7-3.1-9.7-2-5.2-3.9-6.2-14.3-7.4-5.4-.6-5.4-.6-4.7 1.8.4 1.3.8 3.1.9 3.9.3 2.1-4.5 2.5-8.2.5L6 539.9v3c0 2.5.6 3.1 5 5 2.7 1.2 5 2.8 5 3.6 0 .8 1.3 2.9 2.9 4.7 1.6 1.9 3.2 5 3.6 7 .6 2.9 1.3 3.9 3.7 4.7 2.8 1 2.9 1.3 2.3 5.1-.5 3.2-.3 4.6 1.1 6.1 1.6 1.8 1.6 2-.1 3.9-1.8 2-1.8 2-5.2-.6-3.2-2.4-3.3-2.4-3.3-.4 0 1.2.7 3.5 1.6 5.1 1.4 2.8 1.4 3.2-.1 4.9-1.7 1.8-1.8 1.8-5.1-.3-1.8-1.2-3.9-3.4-4.5-5-.6-1.5-1.5-2.7-2-2.7-1.7 0-1.9 4-.4 7l1.6 3.2-3.3-.4c-4.1-.4-4.8 1.7-2.3 7.2 1.3 2.9 3.4 4.8 8.5 7.9 3.7 2.2 8 4.3 9.4 4.7 2.2.5 2.6.3 2.6-1.5 0-2 .2-2.1 2.7-.7 2.8 1.4 3.6 3.1 8.3 15.8 1.7 4.7 2.6 5.8 4.4 5.8 3.5 0 11.7 3.1 12.3 4.6.3.8 1.9 1.4 3.8 1.4 2.7 0 3.4.4 3.7 2.5.3 1.4.2 2.8-.2 3-1.6 1-6.9 13.7-6.7 15.8.3 3.3-3.7 3.5-5.8.4-2.5-3.9-4.9-2.4-6.9 4.4-1.1 3.6-3 7-4.7 8.6-1.5 1.5-2.5 3.1-2.2 3.5.9 1.6-.7 5.8-2.2 5.8-.9 0-1.5.9-1.5 2.4 0 1.3-1 3-2.2 3.8-1.7 1.1-2.1 2.3-2 5.7.2 5.3.7 6.1 3.7 6.1 1.5 0 2.5.7 2.9 2.2.3 1.3 1.4 3.4 2.5 4.7 1.7 2.2 2 2.3 4.1.8 1.2-.8 4.4-4.4 7-8 3.8-4.9 5.9-6.8 9.4-8.1l4.5-1.7-.2-5.8c-.1-4.6.5-6.9 2.6-11.1 1.7-3.2 2.7-6.8 2.7-9.4 0-2.3.7-5.2 1.6-6.4 1.1-1.5 1.8-6 2.4-13.5 1.1-15.8 1.5-16.5 10.5-21 4.4-2.2 9.8-3.9 13-4.3 4.1-.5 5.6-1.1 6-2.5 1-2.9 5.1-2.5 5.9.6.9 3.7 3.9 3.2 5.9-1 1.7-3.7 4.7-4.8 4.7-1.8.1 4.2 1.5 4.4 7.4.8 6.2-3.7 8.5-3.7 8.3.2-.2 2.2.3 2.6 2.8 2.8 1.7.1 4.5.8 6.2 1.6 2.9 1.2 3.5 1.1 5-.4s1.5-1.8.1-3.4c-2.9-3.3-6-10.5-5-11.5 1.5-1.5 6.2-1.1 12.7 1 3.3 1.1 6.3 1.8 6.7 1.5.5-.2 1.1-2.2 1.4-4.3.4-2.2 1.3-4.5 2-5.1.8-.6 1.4-2.6 1.4-4.4 0-1.8.6-3.7 1.3-4.3 1-.8 1.7 0 3 3.9 1.5 4 2.2 4.9 4.1 4.9 2.7 0 3.2-.8 4.1-7.6.4-2.8 1.7-5.9 2.9-7.2l2.1-2.4-3.3-2.7c-3.3-2.6-3.3-2.7-1.4-4.4 2.9-2.6 7.6-2.2 9 .8.7 1.4 2.3 3 3.7 3.7 3.1 1.4 5.9-.7 7.6-6 .7-2 2-5 3-6.7 1.1-1.6 1.9-4 1.9-5.3 0-2 .4-2.2 2.3-1.6 1.2.4 2.5 1.1 2.8 1.6.4.7 1.4.6 2.7-.1 2.1-1.1 3-3.9 3.4-11.6l.3-4 2 3.3c1.6 2.7 2.5 3.3 4.8 2.9 1.9-.2 2.7.1 2.7 1.1 0 2.5 3.8 7.8 6.5 9 2.8 1.3 3 .8 1-2.8-.8-1.4-1.4-3.1-1.5-3.8 0-1.6 3-1.5 5.3.3 2.2 1.6 6.7.1 6.7-2.1 0-2.9-9.4-12.2-14-13.9-2.5-.8-7-3.1-10-4.9-4.8-2.8-5.6-3.8-6.8-7.9-1.3-4.6-1.4-4.7-5.2-4.7-3.3 0-5.2-1-11.1-5.5-3.9-3-7.8-5.5-8.8-5.5-.9 0-2.9-.7-4.5-1.5-1.5-.8-4-1.5-5.5-1.5s-3.6-.7-4.9-1.5c-1.6-1.2-3.5-1.4-7.4-1-8.8 1-9.3 1.3-10.6 4.7-.7 1.8-2 4.4-3 5.6l-1.8 2.4-3.1-2.6c-3.4-2.9-7.1-3.4-7.9-1.1-.4.8-1.8 1.5-3.4 1.5-2.2 0-3.9-1.4-8.5-7.3-3.2-3.9-6.1-7.6-6.5-8-.4-.5-3 2.2-5.8 6z"/><path d="M10 569.2c-1.4.6-4.1 1.3-6 1.7-3.8.7-4.8 2.6-2.8 5.4 1.2 1.5 2 1.6 7.3.6 3.3-.6 6.3-1.4 6.8-1.8 1.1-1.1-.3-7.1-1.7-7-.6 0-2.2.5-3.6 1.1zM109 634.8c0 1-.7 2.8-1.6 4.1-1.5 2.2-1.5 2.4.4 4.3l2 2.1 3.6-2.2c2-1.3 3.6-2.4 3.6-2.6 0-.2-.9-2-2.1-3.9-2.2-3.8-5.9-4.9-5.9-1.8zM347.4 639.9c-2.3 1.4-3.3 3-4.1 6.6-1.4 6.1-.7 8.5 2.4 8.5 1.9 0 2.8-.9 4.5-4.7 1.1-2.5 2.3-6.3 2.5-8.5.6-4.4-.5-4.8-5.3-1.9zM225.3 737.2c-.6.7-.8 3-.6 5 .4 2.8 1 3.8 2.3 3.8 1 0 2.5.3 3.4.6 1.3.5 1.6-.2 1.6-3.4 0-2.2-.3-4.7-.6-5.6-.7-1.9-4.7-2.1-6.1-.4z"/></svg>
