<svg version="1.0" xmlns="http://www.w3.org/2000/svg" width="1365.333" height="1365.333" viewBox="0 0 1024 1024"><path d="M333 71.1v71.1l-21.7-.6c-48.1-1.3-82.9-1.7-84.5-1.1-1.3.5-1.8 1.8-1.8 4.5 0 4.1.1 4.2 6.7 5.5 2.1.4 5.1 2.6 8.7 6.3 5.3 5.4 5.5 5.6 7.4 3.9 1.5-1.4 2.9-1.6 6.1-1.1 5.5.9 8 3 10 8.5 1.3 3.4 2.8 5.1 6.8 7.8 4.5 2.8 5.4 4 6.7 8.3 2.5 8.8 5.1 11.5 14.3 15l8.1 3.1.7 4.3c.4 2.7 1.4 5 2.8 6.1 4 3.2 8 9.3 9.2 14.1 1.2 4.6 1.3 4.7 6.1 5.7 2.8.5 6.3 2 7.8 3.2 4.1 3.3 5.6 3 5.6-1.2 0-3.2.3-3.5 2.9-3.5 4 0 5.9 2.5 3.7 4.9-1.6 1.7-1.4 2.1 4.2 7.9 5 5 6.7 6.2 11.2 7.1 2.9.6 6.4 2 7.7 3.1 1.9 1.5 4.1 2 8.3 2h5.7l1.2 4.1c1 3.4 1.9 4.3 5.8 6 7.5 3.2 10 5.6 19.1 17.8l8.6 11.6.1 6.7c0 6.4.1 6.7 2.5 7 2 .2 2.4.8 2.2 2.8-.2 1.4-.6 5.1-.9 8.3l-.5 5.7 3.6 1.5c4 1.7 4.2 2.3 2.1 5.1s-1.9 3.1 3.3 3.8c2.6.4 7.2 1.2 10.2 1.7 3 .5 8 1.3 11 1.7 7.2 1 8 1.6 8 6.2v3.8l6.9.7c4.8.5 7.5 1.3 8.6 2.5.9 1 2.3 1.6 3 1.3 1-.3 1.6.7 2.1 3.4.3 2.1 1.1 4.4 1.7 5.1 1.2 1.5 1.2 1.4-3.3 3.7l-3.4 1.8 2.9 2.4 3 2.4-5.8 5.1-5.8 5.1 2.8 1.3c2 .9 2.3 1.3.9 1.3-1.4.1-1.7.6-1.3 2.3.5 1.8-.1 2.8-2.8 4.6-4.2 2.7-4.4 3.9-.9 4.8l2.5.6-2.1 2.3c-1.2 1.3-2.4 4.1-2.7 6.2-.5 3.6-.2 4.1 3.1 6.3l3.5 2.5-2.5 2.6-2.5 2.6 2.8 2.1c2.7 2 2.7 2.1.6 2.2-2.6 0-5.8 4.3-4.9 6.5.3.8 1.5 1.5 2.6 1.5 1.7 0 2 .4 1.5 2.2-.4 1.3-1 2.6-1.4 3-.3.4-69.9.3-154.5-.2-144.9-.9-154-.8-155.2.8-3.1 4.1-24.6 41-55.1 94.2-18.1 31.6-39.6 68-47.6 80.9-9.6 15.2-14.7 24.3-14.7 26 0 2 4.6 8.9 16.5 24.7 9 12 16.5 22.6 16.5 23.4 0 .8-1.3 3.7-2.9 6.3-2.3 3.9-4.1 5.5-9.2 8l-6.4 3.2.3 13.9.4 13.8-3 3.2c-8.3 8.6-9.9 14.4-6.2 21.6 1.1 2.2 2 5 2 6.3 0 1.3.9 6.1 2.1 10.6 2.5 10 2 15.7-1.6 19.1-2.6 2.5-4.5 7.6-4.5 12.3 0 2-1.1 3.9-4 6.4-2.2 2-4 4.4-4 5.4 0 1.5-.6 1.7-3 1.2-1.6-.3-3-.2-3 .2 0 2.2 7.7 10.7 11.8 13.1 6.6 3.8 33.4 24 41.2 31.1 7 6.3 43.7 36.1 49.8 40.4 5.5 3.9 13.7 8.8 22.7 13.5 4.4 2.4 11.7 7.4 16.1 11.2 9.2 7.8 27.8 18.4 42.7 24.3 5.4 2.2 13 5.5 16.9 7.5 3.9 2 16.7 6.5 28.4 10 16.6 5 25 6.9 38.5 8.9 20 2.9 28 3 51.4 1 14.4-1.3 39.5-1.9 71.3-1.6 16.1.1 45 8.8 71.2 21.4 8.5 4.1 19.4 9.1 24.1 11 7.7 3.2 35.6 12.7 37.2 12.7 1.3 0 .7-3.3-.9-5.1-1.1-1.2-1.6-4-1.7-9.5-.2-9.9 1.4-13 10.3-19.8 3.6-2.7 6.6-5.1 6.7-5.5.1-.3.7-2.4 1.2-4.7 1-3.8 1.6-4.4 11.5-9.7 10.3-5.6 14.1-8.9 18.4-15.9 1.8-2.9 2.9-3.6 6.4-4.1 2.6-.4 4.8-1.4 5.8-2.7.9-1.2 3.4-2.5 5.5-3 3.6-.8 4.6-.5 11.8 3.6 9.5 5.3 10.7 4.9 10.7-3.5.1-4.7.8-7 4.8-14.6 4.5-8.5 5.1-9.2 13.7-15.2 8.9-6.3 9-6.4 14.5-5.8 4.2.4 6.7.1 11-1.6 3-1.2 5.9-2.5 6.3-2.9.8-.7-2-18.4-3.3-20.9-.4-.8-2.7-2.2-5.1-3.2-5.3-2-6.1-4.4-2.4-7.3 2.5-2 2.6-2.2 1.1-5.1-1.7-3.1-1.3-7.8.6-10.2 1.7-2.1 7.6-1.6 8.3.6.3 1.1 1.3 2.5 2.1 3.2 1.3 1 2.4.4 6.8-4l5.3-5.3 5.3 1.6c5.8 1.7 5.9 1.7 12.5-3.7l3-2.5 4.8 2.4c2.6 1.4 5.2 2.2 5.7 1.9.6-.4 1-2.3 1-4.3 0-6 .9-7.8 4.6-9.1 2.2-.8 4.4-2.7 5.9-5.1 1.3-2.1 4.6-6.1 7.2-8.8 2.6-2.8 6-6.4 7.4-8.1 2.6-3 2.8-3.1 11.7-3.1 7.7 0 9.3-.3 10-1.8.6-.9 1.2-7.1 1.4-13.7.3-7 1.1-13.2 1.8-14.8 1.3-2.6 1.2-3-2.8-7-3.3-3.4-4.2-5-4.2-7.8 0-2.7-1.4-5.4-6.5-12.3-5.6-7.5-6.5-9.4-6.5-13 0-3.8.4-4.5 4-7.2 4.6-3.3 9.8-12.8 10.7-19.3.5-3.4.2-4.6-1.6-6.5-1.9-2.1-2.2-3.1-1.6-7.2.4-2.7 1.8-6.5 3.1-8.6 2.1-3.2 3.8-4.2 17.6-9.6 8.4-3.3 18-6.9 21.3-8.1 4.9-1.8 9-4.9 22-16.3 16.6-14.5 30.8-24.6 48.2-34.2 8.7-4.8 11.4-7 18.8-15 7.7-8.4 9.1-9.5 13-10 3.7-.6 4.7-1.3 6.7-4.5 1.3-2.1 12.7-13.1 25.3-24.5 15.4-13.8 23.6-21.9 24.9-24.4 1.3-2.8 3.4-4.7 7.7-7.1 3.2-1.8 6.1-3.6 6.4-4.2.4-.5 2.8-.9 5.6-.9h4.9v-3.9c0-2.9.6-4.3 2.3-5.4l2.2-1.6-2.5-2c-1.4-1.2-5.9-3.8-10-6-4.2-2.2-8.8-5.3-10.3-7-2.4-2.7-23.7-14.1-26.4-14.1-.6 0-4.1-2.3-7.9-5.1-3.8-2.8-7.8-5.6-8.9-6.1-1.1-.6-5.5-4.4-9.8-8.4-8.6-8.1-15.4-11.2-20.2-9.4-2.9 1.1-2.9 1.1-1.4 4.4.7 1.5 4.2 4.3 8.5 6.7 4.8 2.8 7.7 5.1 8.4 6.9.8 1.9 2.3 3.1 5 3.9 4.1 1.2 8.6 6.2 7.4 8.2-.7 1.1-7.9.7-13.3-.8-2.2-.6-2.3-.4-1.7 2.3 2 9.1 2 9-2.2 15.1-2.3 3.2-4.7 7.9-5.3 10.5-1.1 3.9-1.9 4.9-5 6.3-2.1 1-4.2 1.4-4.8 1.1-1.6-1-1.3-4.2.5-5.6.9-.8 1.4-2.5 1.2-4.4-.3-2.6-1.2-3.5-5.9-6.1-3-1.6-9.2-5-13.7-7.4-5.4-3-8.4-5.3-9.2-7-1-2.4-3.3-4.3-9.9-8-1.8-1-5.4-1.4-11.8-1.4-9.2.2-9.3.1-13.4-3.3-4-3.3-4.3-3.4-13.4-3.4-6.4 0-11.3-.6-15.7-2-6.4-2-19-2.3-23.1-.5-1.9.8-10.3-.2-12.8-1.6-1.2-.6-2.3-.1-3.9 1.6-1.7 1.8-3.4 2.5-6.3 2.5h-3.9l.6-9.3c.3-5 1.1-19.6 1.6-32.2 1.1-24 3.3-64.2 7.5-135 5.2-87.5 6.6-142.1 5.8-228.1l-.6-78.1-7.5-.7C762.1.3 662.9 0 545.8 0H333v71.1z"/></svg>
