<svg version="1.0" xmlns="http://www.w3.org/2000/svg" width="1365.333" height="1365.333" viewBox="0 0 1024 1024"><path d="M348.1.9c-1.1.7.7 3.2 8.2 11.2 5.4 5.6 10.9 12.2 12.3 14.7 2.4 4 2.5 5 1.8 9.5-.9 5-.9 5-6.4 6.8-3 1-6.7 2.1-8.2 2.4-3.9.8-7.2 4.8-9.2 11.2-2.2 6.9-5.1 9.9-10.4 10.8-2.3.4-6.2 2.3-9.3 4.6-2.9 2.1-6.3 3.9-7.6 3.9-1.8 0-3.2 1.3-5.6 5.1-2 3.3-6.2 7.5-12 12l-9 6.9h-16.2l-4.7 5.9c-3.6 4.4-4.8 6.7-4.8 9.2 0 4.3-10.3 20.9-12.9 20.9-2.2 0-5.1 3-5.1 5.2 0 .9 1 4.1 2.1 7.2 1.8 4.6 2.6 5.6 4.5 5.6 1.8 0 2.4.7 3 3.4.4 2.6 1.3 3.7 3.4 4.5 2.4.8 3 1.7 3.5 5.5.6 4.1.4 4.9-2.4 8.3-1.7 2.1-3.1 4.7-3.1 5.8 0 1.2 3 5.1 7.5 9.5l7.4 7.4 1.5-3.5c2.7-6.4 4-7 15-6.2 9.4.6 9.9.7 14.7 4.6 2.9 2.2 4.8 4.5 4.5 5.3-.3.7-1 3-1.5 5.1-.6 2.1-2.6 5.4-4.5 7.2-2.6 2.5-3.7 4.6-4.2 7.9l-.7 4.4-4-.5c-3.3-.5-4.6-.1-7 1.9-1.6 1.3-3.7 2.4-4.7 2.4s-3.7 1.6-6 3.5-4.8 3.5-5.6 3.5c-4.4 0-10.7 3.5-15.7 8.7l-5.4 5.7-5.1-2.2c-3.2-1.4-7.1-2.2-10.6-2.2-3 0-6.7-.5-8.2-1-3.4-1.3-5 .5-2.9 3.6 1.2 1.9 1.1 2.2-3.1 4.2-2.5 1.2-5.8 2.2-7.4 2.2-1.6 0-3.2.5-3.6 1.1-.3.6-1.6.8-2.8.5-1.1-.3-4.5-.3-7.4.1-6.7.7-12.2 5.3-12.2 10 0 2.2-.6 3.3-2.5 4.1-2.1 1-2.5 1.8-2.5 5.5 0 3.6.6 4.9 3.5 7.7 1.9 1.9 3.5 3.9 3.5 4.4 0 .6.9 2.2 1.9 3.5 1.3 1.7 1.7 3.1 1.1 4.5-1.4 3.8-2.2 16.4-1.1 17.1.6.3 1.1 1.5 1.1 2.6 0 1 .7 1.9 1.5 1.9 2.2 0 3.9 3.8 2.5 5.5-.8 1-.8 1.9-.1 3.4 1.5 2.7 1.6 2.6-2.9 4-3.2 1-4.3 1.9-5.9 5.5-1.7 4-2.2 4.4-6.5 5-4.3.7-5 1.2-8 5.9-1.8 2.9-4.3 7.1-5.4 9.3-1.4 2.7-3.1 4.5-5 5.2-2.5.8-2.9 1.4-2.5 3.6.8 4.1 90.6 102.6 93.6 102.6.6 0 3.6-.5 6.7-1.2 4.8-1 6.3-.9 9.8.5 2.8 1.1 5.6 1.4 9.1 1 2.7-.3 7.1 0 9.8.6 4.7 1.2 4.8 1.2 7-1.6 1.8-2.2 2.5-2.5 3.5-1.5 1.7 1.7 8.4 1.5 11.6-.5 1.5-.9 4.1-3 5.8-4.5 2.7-2.5 3.8-2.9 8-2.6 4.2.3 4.9.6 5.2 2.5.4 2.7.3 2.6 3.8 1.3 2.3-.9 3.1-.7 5.1 1.1 1.2 1.3 2.3 3.2 2.3 4.4 0 2.8 6.5 9 11.7 11 5.6 2.2 7.2 5.9 4.9 11.5-.9 2.2-1.6 6-1.6 8.4 0 2.4-.6 5.9-1.4 7.7-.8 1.9-1.7 9.1-2.1 16.4-.6 11.2-1 13.5-3 16.6-1.3 2-3 5.2-3.8 7.1-1.1 2.6-2.3 3.7-5.4 4.6-4.9 1.5-5.8 2.6-6.6 7.5-.6 3.7-.4 3.9 3 5.3 3.3 1.4 3.7 1.4 5.8-.6 2.2-2.1 2.4-2.1 5-.4 1.6 1.1 6 2.1 10.9 2.6 16 1.7 17.7 2 18.3 3.4.3.8 1.9 1.4 4 1.4 2.6 0 5.9 1.5 12.4 5.7l8.8 5.6-2.5 3c-2 2.4-5.4 8.8-5.4 10.3 0 .2.7.4 1.5.4 1.2 0 1.3.4.5 1.9-3.2 6 .4 14.2 7 15.9 3.4.8 3.5 1 3.8 6.1.3 4.4.9 5.9 3.2 8.3 1.6 1.6 3.5 4.7 4.1 6.9 1 3.3 1.8 4.1 4.8 4.9 6.4 1.8 6.8 2.6 2.4 4.9-4.4 2.2-6.3 5.8-6.3 11.8 0 2.8-.6 3.7-3.1 5.1-7.2 3.9-8.9 6.1-8.9 11 0 4.2-.4 5-3.4 7.4-1.9 1.6-4.1 2.8-4.9 2.8-.7 0-2.4 1.1-3.7 2.5-1.8 1.9-3.4 2.5-6.6 2.5-4.8 0-5.4.9-5.4 7.5 0 3.2.7 5.1 2.5 7.3 2.2 2.6 2.4 3.3 1.4 6.1-.6 1.8-.9 4.4-.6 6 .9 4.3-1.1 11-4.4 15.2-1.7 2.1-3.3 5.5-3.6 7.6-.3 2.1-1.4 5.2-2.5 7-1.2 2-1.8 4.8-1.7 7.5.1 3.2-.8 6.3-3.5 11.8-2.4 4.9-3.6 8.8-3.6 11.5 0 2.2-1.2 12.2-2.7 22.2l-2.7 18.2 2.7 3.8c1.5 2.2 2.7 5.1 2.7 6.5 0 1.4.7 2.8 1.4 3.1 3.5 1.4 8.6 17.8 8.6 27.7v5.5l7.3 5.7c4.5 3.7 8.2 5.8 9.8 5.8 4.6 0 6.1 3 7.2 14.1.8 8.8.7 10.7-.7 13.6-1.4 2.9-1.5 4.4-.6 9.3.9 5.1.8 6.2-.9 9.1-1.1 1.9-2.2 5.9-2.6 9l-.7 5.6 8.1.5c4.5.3 8.4.8 8.7 1.1.4.4-.5 3-1.9 5.9l-2.7 5.3 3.5 3.4c3.2 3.2 3.6 3.4 5.9 2.1 4.2-2.2 9.9 1 14.8 8.3 2.2 3.3 4.9 6.2 5.9 6.4 1.1.3 1.9 1.1 1.9 1.9 0 2 6 8.4 7.9 8.4.9 0 2.2.5 2.9 1.2.7.7 2.7 1.7 4.4 2.2 2.4.8 3.4 1.8 3.6 3.6.2 1.4 2.1 4.3 4.1 6.5 2.1 2.2 4.8 5.4 6 7.2 1.8 2.6 3.8 3.7 12.9 6.6 5.9 2 13.8 3.8 17.6 4.1 9.9.8 15.5 3.8 18.3 9.8 2.6 5.5 6.3 7.8 12.3 7.8 5.7 0 10.7-2.4 12.8-6.1 4.1-7.6 3.3-7.3 17.2-5.6 14.3 1.7 16.2 1.3 17.9-4.3 1.6-5.5 1.3-8.9-1.3-14.3-1.6-3.2-2-5-1.2-5.2.6-.2 3.8-.9 7.1-1.5 8.2-1.6 10.5-3.2 10.5-7.3 0-2.2.8-4 2.3-5.4 1.2-1.1 2.7-2.8 3.3-3.8 1-1.8 1.2-1.8 4.6-.2 2 .9 4.3 1.7 5.1 1.7.8 0 3 .6 4.9 1.4 2.2 1 3.9 1.1 4.9.5.7-.5 2.5-.9 3.9-.9 2.1 0 2.8.7 3.5 3.2l1 3.3H640.2l2-5c1.1-2.8 2.3-7 2.7-9.5.7-4.9 1.1-5 8.6-3.5 2.4.5 3.5.1 5.4-1.9 1.8-1.9 3.5-2.6 6.2-2.6 2.5 0 4.7-.8 6.6-2.4 5.5-4.5 7-4.9 13.7-3.6 3.3.7 7.4 1.9 9 2.7 3.1 1.6 7.4 1.2 13.6-1.3 3.2-1.3 3.9-2.1 4.6-5.7.7-3.4 1.6-4.5 4.4-5.9 4.6-2.3 5.7-4 6.5-10 .7-5.1 3.2-8.8 6-8.8.8 0 2.4-1.3 3.6-2.9 3.5-4.8 6.7-5.6 12.9-3.2l5.4 2.1 5.1-3.5c5.1-3.5 14-6.3 16.9-5.2.9.4 2.3 2.5 3.2 4.7 2.2 5.4 5.5 7 14.5 7 5.4 0 7.7.4 9.1 1.7 1.7 1.5 5.1 2.4 16.2 4 3.4.5 4.3.2 6-2 1.7-2.1 3.5-2.7 10.1-3.5 6.8-.9 8.8-.9 13.3.6l5.4 1.6 5.6-2.9c3.2-1.7 5.9-3.1 6.1-3.2.9-.6-2.3-3.3-3.8-3.3-2.2 0-9.1-3.7-12.2-6.6-2.2-2.1-3.5-2.4-10.1-2.4-6.8 0-7.7-.2-8.3-2-.4-1.1-3.7-5.3-7.5-9.4-6.9-7.5-7.3-8.3-8.4-14.8-.5-2.8-1.7-4.4-5.1-7-4.1-3.1-4.4-3.6-4.5-8 0-4.2-.3-4.8-3.4-6.6-2.5-1.5-3.5-2.9-3.9-5.3-.8-5.7-3.4-11.2-6.1-13.4-1.4-1.1-2.6-2.9-2.6-3.9s-1.4-3.1-3.1-4.7c-2.5-2.3-3-3.5-2.7-5.9.4-2.6 0-3.3-2.9-5-2-1.2-3.3-2.7-3.3-4 0-1.1-.9-2.5-2-3.2-1.2-.8-2-2.4-2-4 0-1.8-.8-3.3-2.4-4.4-1.4-.8-2.6-2.5-2.8-3.7-.2-1.5-1.1-2.3-2.8-2.5-3.5-.5-5.5-2.6-7-7.2-1.2-3.6-1.1-4.2.5-6 1.8-2 1.8-2.1-.5-4.5-2-2.1-2.2-3.1-1.7-8.1.6-5.9-.5-8.5-8.4-20-2.5-3.7-2.8-4.9-2.9-13.5-.1-5.2.1-10.2.5-11.2.5-1.1.1-2.5-.7-3.5-.9-.9-1.8-3-2.2-4.6-.6-2.5-1-2.7-3.4-2.1-3.5.9-7 .9-10.6 0-2.6-.7-2.9-.6-2.4 1.3s-.1 2.4-4.8 3.9c-4.6 1.4-5.9 1.5-9.6.3-2.4-.7-7.7-1.6-11.8-1.9l-7.5-.6.2-5c.6-13.2.4-14.5-2.4-18-1.5-1.9-4-3.9-5.5-4.4-1.7-.6-2.8-1.7-2.8-2.8 0-2.9-5.2-7.8-10.4-9.8-4.9-1.9-7.6-5.3-7.6-9.8 0-4.8-4.3-15.2-8-19.3-2.1-2.3-4.1-5-4.4-6.1-.3-1.1-4-4.1-8-6.8-6.5-4.2-7.6-5.3-8.4-8.9-1.9-7.6-3.4-19.8-2.7-22.3.3-1.3 2.7-4.4 5.4-6.9 2.6-2.4 6-6.7 7.6-9.5 2.4-4.5 2.7-5.8 2.2-11.7-.4-6-.1-7.2 2.4-11.5 1.6-2.6 2.9-5 2.9-5.2 0-.3 2.5-6 5.5-12.6s5.5-12.4 5.5-12.8c0-.4-1.6-2.6-3.5-4.8-1.9-2.3-3.5-4.8-3.5-5.5 0-.8-1.6-3.3-3.5-5.5-4.6-5.4-4.5-7.8.6-12.1 2.2-1.9 5.2-5.3 6.6-7.5l2.5-4 5.7.6 5.7.5 2-3.7c2.3-4.4 7.7-7.3 11.9-6.5 2.9.6 5.2.6 14 .4h7c1.7.1 6.8-.4 11.5-.9 4.7-.6 11.4-1.4 15-1.7l6.6-.6-3.7-3.7-3.7-3.6 2.2-6.8c2.1-6.8 4.5-9.2 6.9-6.8.6.6 2.8 1.1 4.8 1.1 3.8 0 4.9-1.2 4.9-5.2 0-2.1-6.5-11.8-8-11.8-1.9 0-3 2.8-2 5.4.7 2 .6 2.6-.4 2.6-2.3 0-3.5-2.3-3.8-7.5-.3-4.3-.6-5-2.6-5.3-1.8-.3-2.1-.8-1.6-3 .4-1.5 2.1-4.3 3.9-6.2 2.3-2.5 3.4-4.8 3.8-8.2.4-2.6 2-6.9 3.8-9.9 6.6-10.7 7.9-15.2 7.9-28.7 0-11.6.1-12.5 2.5-15.6 2.3-3 2.6-4.4 2.7-12.7.1-8.1-.3-10.8-3.1-19.4-4.7-14.2-6.8-17.4-16.2-24.2-4.4-3.2-9.5-6.5-11.2-7.4-15.6-7.9-19.9-9.7-21.7-9.2-1.1.3-2 1.4-2 2.4 0 2.6-.5 2.4-4.5-1.9-1.9-2-4.6-6.7-6-10.3-2.5-6.4-2.8-6.8-11.5-12.4-5.3-3.5-10-7.4-11.7-9.7-3.4-5-10-10.8-15.5-13.8-2.6-1.3-5.8-4.4-8-7.5-2.1-3-5.9-7.1-8.5-9.2l-4.6-3.8h-22.2l-7.9-4.8c-7-4.2-8.5-4.7-13.8-4.7-11.4 0-23.4 8.3-26.8 18.6-.6 1.9-1.5 3.4-2 3.4s-2.6 3-4.7 6.7c-3.5 6.2-3.8 7.5-3.9 14.8-.2 12.9-1.2 18-4.1 20.7-2.4 2.1-2.5 2.1-1.8.3.5-1.1 1.2-11.8 1.6-23.9.7-17 1.3-23.5 2.9-29.1 1.1-3.9 2-8.5 2-10.2 0-1.7.7-3.7 1.6-4.4 2-1.6 10.8-14.6 11.8-17.4.4-1.1.4-11.5 0-23l-.7-21-3.5-3c-10.3-8.8-14.8-13.6-18.5-20-5.2-8.9-12.7-16.6-15.5-15.8-1.5.4-2.7-.6-5.3-4.4-6.4-9.3-13.5-16.7-20.6-21.3-4-2.5-9-6.9-11.2-9.6-2.2-2.8-5.9-6.4-8.3-7.9-2.4-1.6-6.3-5-8.8-7.6-3.2-3.4-7.2-6.1-14-9.3-5.2-2.5-12.9-7-17-10.1-4-3.1-13.9-8.9-21.9-12.9-8.1-4-20.3-10.3-27.2-13.9-13.8-7.4-16.9-8.1-16.9-4.3 0 1.4.7 3.2 1.6 4 1.3 1.4 1.3 1.6 0 1.6-2.7 0-8.9-4.4-14.1-9.9C349.7-1.7 350.8-.8 348.1.9z"/></svg>
