<svg version="1.0" xmlns="http://www.w3.org/2000/svg" width="1365.333" height="1365.333" viewBox="0 0 1024 1024"><path d="M497.6 72.5c-1.7 3.8-3.9 6.4-8.4 9.8-5.4 4.2-6.2 5.3-7.7 10.5-.9 3.1-1.8 6.3-2 6.9-.3.9-2.8 1.3-7.8 1.3-6.8 0-7.5-.2-10.1-2.9l-2.8-2.9-4.4 2.3c-2.4 1.3-6.2 2.6-8.4 3-3.2.5-4.4 1.3-5.3 3.3-.6 1.5-3.1 4.9-5.5 7.7l-4.4 5-17.1 4.5-17.1 4.6-1.1 4.9c-1.1 5.5-3.3 6.9-6.5 4-1.6-1.4-3.1-1.6-8.7-1.1-3.7.4-8.3.7-10.1.6-2.9 0-3.5.5-5.1 4.1-1.5 3.3-1.7 4.8-.9 7.1.7 2 .7 3.2-.1 4.2-.8 1-.9 1.6-.1 2.1.5.3 1 2.1 1 3.8 0 4.8 1.9 6.8 10.9 11.1 4.4 2.2 8.3 4.8 8.6 5.7.3 1-.3 3.5-1.4 5.6-1.6 3.3-1.9 5.2-1.4 12.2l.6 8.2-3.3 3.4c-3.3 3.4-4 6-2.7 10.7.6 2.2.2 3-2.4 4.9l-3.2 2.2-6.3-3.3c-5.5-3-6.4-3.2-8-2-.9.8-2.5 1.4-3.6 1.2-1-.2-1.8.3-1.8 1s-.9 1.9-1.9 2.5c-1.5.9-2.3.9-3.7-.2-2.6-1.9-5.4.7-5.4 5.1v3.2l-7.2 1.2c-5.1.9-10.5 2.9-18 6.6-5.8 2.9-10.9 5.8-11.3 6.4-.8 1.3 2.1 6 3.7 6 .6 0 2 .7 3 1.6 1.7 1.6 2 1.5 5.9-1 4.6-3.1 6.9-2.3 6.9 2.1 0 2.1.3 2.3 1.4 1.4 1.8-1.5 5 3.1 4 6.1-.5 1.7-1.2 2-4.5 1.5-2.1-.3-3.9-.1-3.9.4s-1.5.9-3.4.9c-2.9 0-3.4.4-3.9 2.9-.4 1.8-1.4 3-2.8 3.4l-2.1.6 2 2.5c1.1 1.4 2.8 5.8 3.7 9.6 1.7 7.1 1.7 7.1 7.2 9.9l5.6 2.8-4.7 3.8-4.7 3.8-5.1-1.6-5-1.6-4.8 4.5c-3.1 2.9-5.3 4.2-6.4 3.8-.8-.3-2.9-.1-4.5.4-2.6.9-3.2.7-6.2-2.4-1.8-1.8-4.8-3.9-6.6-4.5-1.8-.6-3.3-1.7-3.3-2.5 0-1.8-5.2-4.4-7.7-3.8-1.1.3-2.5-.1-3.2-1-.8-.9-2.7-1.6-4.4-1.6-1.7 0-4.5-1.1-6.3-2.5-5.3-4.1-7.7-3-9.2 4-.7 3.5-1.2 4.1-4.7 5.1-9.9 2.8-9.3 2.9-11.6-1.9-1.7-3.5-3.5-5.2-8.5-8.1-3.5-2-7.7-3.6-9.4-3.6-3.1 0-3.7-1.3-2.1-3.9 1.3-2-1.6-6.1-5.4-7.6-2.6-1.1-3.3-2.3-4.9-8-1.5-5.2-2.4-6.9-4.3-7.6-4.7-1.8-6-1.1-8.2 4.1-1.7 3.9-3.3 5.7-6.9 8-4.5 2.7-4.8 3.2-4.4 6.4.2 1.9-.1 5-.8 7-1.5 4.5-4.2 5.4-32.4 10.6-23.9 4.3-28.5 4.4-38.9.9-3.2-1.2-6.5-1.8-7.3-1.5-.8.3-2.2 2.1-3.1 4.1-1.6 3.3-2 3.5-6.3 3.5-3.2 0-5.6.7-8.2 2.5-2 1.4-4.2 2.5-4.7 2.5-.6 0-3-1.3-5.3-2.9-3.6-2.5-5.8-3.1-13.1-3.9-8.4-.8-9.1-.7-14.9 1.9l-6.2 2.7-5.5-2.4c-3.1-1.4-9.3-4.5-13.8-7-4.6-2.4-8.4-4.4-8.6-4.4-.2 0-1.3 1.3-2.5 3-2.2 2.9-2.2 3-.3 4.9 1.1 1.1 2.4 4.5 3.1 7.8.6 3.2 1.5 6.7 1.9 7.8 2.5 6.2 3.3 9.9 2.2 10.3-1.9.6-1.2 4.8 1.3 7.1 1.7 1.6 3.2 2.2 4.8 1.8 3.8-1 5.3.7 2.1 2.2l-2.8 1.3 2.2 1.5 2.2 1.4-2.1 2.1c-1.8 1.8-1.8 2.1-.4 3.7 1.8 2 2.1 5.7.6 6.6-1.2.7-1.4 6.8-.3 7.9.5.4 1.3 3.1 1.8 5.9l1 5.2 8-.1c7.5-.1 7.6-.1 2 .5-3.3.3-6.9 1.2-8 1.9-2 1.2-1.9 1.3.6 3.5 2.2 1.8 2.6 2.8 2.2 5.4-.4 2.6-.2 3.3 1.2 3.3 2.7 0 7.1 3.6 8.5 7 .7 1.6 1.8 3 2.5 3s2.4 1.8 3.9 4c1.5 2.3 3.4 4 4.5 4 1.7 0 4 2.8 8.1 9.9.8 1.4 1.4 4.4 1.4 6.6 0 4.2 1.9 6.7 4.4 5.7 1-.3 1.3 0 1 .9-.3.8-1.6 1.3-3.2 1.2-3.1-.2-3.4 1.2-.7 2.7 1.1.5 2.3 2 2.6 3.1.5 1.5 1 1.8 1.5.9.5-.8.9-.7 1.4.5.3.9.4 2 .1 2.5-.7 1.1 1.4 2.5 5.6 3.9 3.2 1 3.7 1.7 4.3 5.1.9 5.5 3.1 5.2 3.4-.5.1-3.6-.3-4.7-2-6-1.9-1.3-2-1.5-.5-1.5 1 0 3 .9 4.5 1.9 3.5 2.5 9.9 3.6 11.8 2 1.2-1 1.2-1.4-.6-2.6-1.1-.8-2-2-1.9-2.6.1-.7-.1-2-.6-3-.5-1.2-.2-2.2.9-3 .8-.7 1.7-2.1 1.9-3.2.4-2.9 4.7-11.5 5.7-11.5.5 0 2.3-2.9 4-6.5 2.2-4.6 3.5-6.3 4.5-5.8 2.1.7 1.9 2-.3 2.6-2.1.5-3.7 4.7-1.9 4.7.7-.1 2.5-1.1 4.1-2.4 2.6-2.1 3.1-2.2 5.5-1 3.9 2.1 5.1 1.7 6.6-1.9 1-2.5 1.1-4.4.3-8.2-1.6-8.1-1.1-12.1 1.7-14.9 1.4-1.4 2.8-3.9 3.1-5.5.4-1.8 1.1-2.8 1.9-2.5 1.9.8 5.2-6.9 6.9-15.9 2.8-14.3 5.6-23.4 8.2-25.8 1.3-1.2 2.4-2.8 2.4-3.4 0-.6 1-2.1 2.2-3.2l2.3-2 12 3.9c7.9 2.6 12.7 4.7 14.1 6.3 1.9 2 9.3 6.5 10.9 6.5 1 0 .5-3.6-.7-4.8-1.6-1.6.2-1.5 2.3.1.9.7 1.8 2.8 2.1 4.7.3 1.9.7 4.2.9 5 .2 1-.3 1.5-1.6 1.6-4.5.2-4.6.3-3.5 2.3 1.5 3 1.2 3.6-1 1.6-1.9-1.7-1.9-1.6-1.5 1.9.3 2 .7 5.1.9 7 .3 2.2-.2 4.3-1.5 6.2-1 1.6-1.9 3.9-1.9 5.1 0 1.9-.3 2-2.9 1-3.8-1.4-6.5-.3-5.8 2.4.4 1.6-.1 2.3-2.3 3-5.3 1.9-4.7 5.3 2.2 11.9 6.2 5.9 15.1 8.5 19.3 5.7 1.7-1.2 2.5-1.2 5.3 0 3.3 1.4 4.2 3.9 2 6.1-.8.8-.5 1.6 1.3 3.1 1.3 1.1 3.1 2 3.9 2.1.8 0 3.8 1.2 6.5 2.7 2.8 1.5 6.8 2.9 9 3.2 3.5.5 4 1 4.3 3.4.2 1.6 1.1 3.1 2 3.4.9.4 2.8 1.5 4.1 2.5 3.5 2.7 5.9 2.4 5.3-.7-.4-2.5-4.9-6.5-7.1-6.5-.6 0-1.1-.4-1.1-.9s-.9-1.1-2-1.4c-1.4-.3-2-1.4-2-3.1 0-2.7.5-2.9 5.2-2.6 3.3.2 4.1-1.1 3.2-5.4-.4-2.4-1.3-3.7-2.8-4.2-3.1-.9-7.6-5.5-7.6-7.7 0-3.6-1.9-5.8-4.5-5.1-3.5.9-6.3-.4-8-3.6-1.9-3.7-1.9-7.4 0-9 1.7-1.4.3-5-1.9-5-.8 0-1.9-.7-2.7-1.6-.9-1.1-2.2-1.4-4.1-1-1.5.3-2.8.1-2.8-.4 0-.6.7-1 1.5-1 2.1 0 1.9-1-1.5-6.3-3.2-5.2-4.3-11-1.5-8.7.8.7 1.5 1.8 1.5 2.5 0 1 7 7.2 15 13.1 1.6 1.2 4.2 3.2 5.7 4.5 1.6 1.3 6.4 3.5 10.7 4.9 4.5 1.4 8 3.1 8.3 4 .3.8 1.6 3.7 2.8 6.5 4.3 9.1 6.5 14.6 6.5 16.2 0 .9.8 2.2 1.7 2.9 2.5 1.7 2.4 14 0 17.4-.9 1.4-1.7 3.6-1.7 5s-.5 3.1-1.1 3.7c-2 2-2.3 14.2-.5 21.1.8 3.4 1.3 7.4 1 8.9-.7 3.4.4 5.9 5.6 13.8 2.1 3.3 5.2 8.5 6.9 11.6 1.6 3.1 4.6 6.9 6.5 8.5 10.5 8.5 17 14.5 19.1 17.5 2.6 3.9 11.1 11.3 14.8 13 1.4.6 4.9 4 7.9 7.6 5.6 6.8 15.8 13.4 22.8 14.8 2 .4 5.4 2.4 8 4.9 5.6 5.2 8.2 6.6 11.9 6.6 3.6 0 5.6 2.4 5.3 6.1-.3 2.5.3 3.3 4.5 5.8 8.2 5.1 9.6 6.2 8.5 7.3-.6.6-2 .4-4-.6-3.9-2-6.8-2-7.5-.2-.5 1.3-1.2 1.3-4.7-.1-2.3-.9-4.5-2.4-5-3.4-.8-1.4-.2-1.9 3.6-2.8 3.5-.9 4.4-1.5 4-2.7-.3-.9-.6-2.4-.6-3.5 0-1.3-.7-1.9-2.1-1.9-1.1 0-4.3-1-7-2.1-3.8-1.7-5.3-1.9-6.2-1-1.9 1.9-4.6 1.3-10.1-2.4-2.9-1.9-5.9-3.5-6.6-3.5-.7 0-1.1-.3-.7-.6.8-.9-4.8-5.4-6.7-5.4-.9 0-1.6-.5-1.6-1 0-.6-.6-1-1.4-1-3 0-2.7 2.2.8 5.5 3.8 3.6 4.6 5.5 2.1 5.5-1.9 0-1.9.4 0 4 2.7 5.2-2.2 3.1-10.7-4.7-2.6-2.4-5.2-4.3-5.8-4.3-1.1 0-.4 4.1 1.1 7.2 1.7 3.2 1.1 4.1-2.2 3.4-3.3-.6-9.7-5.6-9.2-7.2.1-.5-.9-1.8-2.4-2.8-3-2.2-15.3-6.7-16.5-6-1.3.8-.9 3.8.8 6.3 1.5 2.1 2.1 2.3 7.9 1.6 6.1-.6 6.3-.6 6.9 1.9.3 1.3.4 3 .1 3.8-.5 1.3 2.3 4.7 5.9 7.2 1.7 1.2 1.8 1.4.2 4.5l-1.7 3.2 6.1 5.9c3.4 3.2 5.7 5.9 5.1 6.1-1.6.6 4.4 7.5 7.7 9.1 1.5.7 3.3 2.8 4.1 4.5.8 1.8 2.3 3.6 3.4 3.9 1.5.5 1.7.8.6 1.5-1 .6-.4 1.2 2.3 2.4 2.1.8 4.2 1.5 4.7 1.5.6 0 3.5 3 6.4 6.7 8 10 18 19.2 21.6 19.9 1.8.4 3.8 1.8 4.9 3.5 2.3 3.7 11.5 10.5 16.1 12 2 .6 4.3 1.7 5.1 2.4.8.7 2.4 1.5 3.5 1.8 1.1.2.3.4-1.8.4-5.2 0-5.4.7-1 3.4 2.1 1.3 4.9 3.5 6.3 5 2 2 4.2 2.9 9.8 3.9 5.2.9 8.1 2 10.9 4.2 3 2.3 4.4 2.8 6.8 2.4 1.9-.4 2.5-.3 1.6.3-1.9 1.2-.5 3 3.6 4.7 1.8.8 3.7 2.2 4 3.2.3.9 2 3 3.7 4.7l3.1 3-3.1.3c-3.1.3-3.1.4-2.3 4 .5 2 .9 5.7.9 8 0 3.5.4 4.5 2 4.9 2.5.7 2.7 3.3.3 3.3-1.3.1-.3 1.4 3 4.5 3 2.8 4.3 4.5 3.3 4.5-2.2 0-2 1.9.2 2.6.9.3 2.5 1 3.5 1.5s2.2.7 2.8.3c.6-.3 2.1.4 3.3 1.5 2.7 2.6 15.6 4.2 15.6 2 0-.8 1.3-1 4.5-.6 3.8.6 4.6.4 5.5-1.4 1-1.7.6-2.2-3.4-4-2.6-1.1-4.6-2.1-4.6-2.3 0-.2 1.8.1 4.1.7 2.9.7 5.5.7 9-.1 3.8-.9 5.4-.9 6.9.1 3.1 1.9 2.4 2.6-2.7 2.9l-4.8.3 2.8 1.9c2.4 1.6 3.5 1.8 6.6 1 2-.6 4.7-.7 6.1-.3 4 1.1 17 1 17-.1 0-.6-.6-1-1.2-1-.7 0-3.5-1.1-6.3-2.5-2.7-1.3-6.3-2.5-8-2.5-3.1 0-7.5-2-4.6-2 .8 0 4.3-1.2 7.8-2.6 6.2-2.4 6.7-2.5 16.1-1.4 10.2 1.2 14.7 3 7.5 3-2.4 0-4.6.6-5.3 1.5-.7.8-2 1.5-2.9 1.5-1.3.1-1.3.2.3 1.2 1 .6 5.9 1.1 10.7 1.2 8.3.2 9.1.4 13.6 3.6 13.4 9.5 14.3 10 19.5 10 4.1 0 5.4.4 6.8 2.3 2.4 3 10.9 5.5 22.9 6.6l9.4.9 10.4 10.8c5.7 6 10.8 11.7 11.4 12.7.6 1 2.4 2.3 3.9 2.9 1.6.5 3.2 1.8 3.5 2.9.8 2.4 12.1 13.9 13.8 13.9.7 0 2.1 1.4 3 3 1.2 2 2.6 3 4.2 3 4.1 0 12.7 3.8 17.8 7.7 2.7 2.1 8.7 7.3 13.4 11.6 5.7 5.3 9 7.6 10.1 7.3 1.2-.4 2.1.2 2.7 1.7.6 1.2 1.9 2.4 3 2.6 2.5.4 3.5 1.9 3.5 5.2 0 3.6 6.8 11.9 9.7 11.9 1.2 0 2.7.9 3.3 2 .6 1.1 2 2.4 3.1 3.1 1.8.9 1.9.9 1-.9-1-1.9-.3-2.2 11.9-5.2 8.6-2.1 13-3.7 13-4.6 0-4.8-2.7-11.9-6.9-18.3l-4.9-7.3-16.8-9.2-16.9-9.1-2.1-6-2.1-5.9-6.9-2.3-6.9-2.3-5.3-13.4-5.3-13.4 2.1-8.2c1.2-4.5 2-8.3 1.8-8.5-.2-.1-2.9-1.7-6-3.4-4.2-2.4-6.7-3.1-10-3-4.9.2-6.7-.7-19-10.1-6-4.6-11.3-10-18.4-18.8-11.8-14.6-25.7-26.2-36.2-30.2l-6.6-2.5-2.9-7c-2.4-6-3.6-7.5-7.8-10.3-2.9-1.9-6.2-5.3-8-8.2-1.7-2.7-4.9-6.3-7.2-8-2.3-1.6-5.8-5.6-7.8-8.7-3.3-5.4-4.1-6-10.5-8.3-6.4-2.4-7-2.8-8.3-6.7-1.4-3.9-1.8-4.2-6.2-4.8-3.9-.5-5.4-1.5-9.6-5.8-2.8-2.9-5.6-6.9-6.3-9-.7-2.2-4.2-7.2-8.1-11.5-4.7-5.3-6.9-8.5-6.9-10.3 0-1.4-1.1-5.9-2.5-10-2.4-6.9-2.5-7.8-1.3-13.8l1.2-6.4-2.9-2.3c-1.6-1.3-4.2-2.6-5.7-3-3.3-.7-3.4-.9-.9-4 1.9-2.4 1.8-2.4-3.3-15.8l-5.2-13.5-8.9-6.8c-8-6.1-9.6-7.9-15.8-18l-7-11.2-7.7.6-7.8.6-5.5-4.4c-4.6-3.6-5.9-5.4-7.6-10.3l-2-5.8 4.6-4.2 4.7-4.3-3.9-6.8c-6.2-11.1-7-19.8-1.8-21.1 2.2-.6 2.4-1 1.8-4.8-.4-2.2-1.8-6.5-3.1-9.5l-2.4-5.4 2.4-2.6c3.8-4 4.3-6.5 3-14.7l-1.1-7.5 2.9-2.4c1.6-1.4 3.5-2.5 4.2-2.5.7 0 2.1-.8 3-1.9 1.5-1.6 2.2-1.7 5.8-.8 3.4.8 4.2.8 5-.6 1.5-2.7 5.3-2.1 6.4 1l.9 2.6 3.3-2.8c3.2-2.7 3.5-2.7 6-1.3 1.5.8 3.9 1.8 5.5 2.2 2.9.7 3.3 1.7 1.7 4.7-.8 1.5-.7 1.9.4 1.9.9 0 3 1.3 4.7 2.8 2.6 2.3 3.3 3.9 4 8.6 1 7.3 3.7 10.6 8.8 10.6 3.2 0 4.4.8 10.1 7 6.2 6.8 6.8 7.1 12.8 8.1 3.4.6 8.2.8 10.7.5 4.3-.7 4.4-.8 5.1-5.2.4-2.6 2.1-6.7 3.9-9.4 2.2-3.3 2.9-5.2 2.4-6.3-.7-1.2.5-2.3 5.3-4.9 6-3.3 6.2-3.6 8.5-10.3 2.9-8.7 5.7-11.8 9.8-11.2 1.6.3 4.7 0 6.8-.6 3.4-.9 4.6-.7 11.7 2.3 6.2 2.5 8.9 3.1 11.8 2.7 2.4-.4 6.4.2 11.7 1.7 9.4 2.8 11.2 2.3 11.7-3.2.3-3.2.7-3.7 3-4 1.8-.2 2.8-1.1 3.2-2.8.4-1.3 1.4-2.4 2.3-2.4.9 0 2.7-1 4-2.1 1.8-1.8 2.5-2 3.7-1 1.1.9 1.3 1.9.5 3.7-1.6 4.3-1.1 5.4 2.1 5.4 2.4 0 3-.4 3-2.3 0-2.1.1-2.1 1.8.5s1.9 2.7 3.6 1c1.7-1.6 1.8-1.6 1.2.5-.6 1.9-.3 2.2 2.1 2 2.2-.2 2.9.3 3.1 1.9.2 1.6 3 3.3 11.5 7.3 10.2 4.7 11.8 5.1 18.4 5.1h7.3l1.8-3.6c1.2-2.3 2.2-3.3 2.6-2.5.4.6 1.6 1.1 2.7 1.1 1 0 1.9.7 1.9 1.5s.7 1.5 1.5 1.5 1.5.4 1.5 1c0 3.3 15.9 5.6 18.9 2.7 1-1 1.6-.8 3.1 1 1 1.3 2.5 2.3 3.4 2.3.9 0 1.6.8 1.6 1.9 0 2.5 7.7 3.5 9 1.2.7-1.4 1.1-1.4 2.7.2 1.3 1.1 2.2 1.4 3 .6.7-.7 1.8-.6 3.5.1 2.1 1 3.3.8 7.6-1.4 2.8-1.4 5.5-2.6 6-2.6s7.3 4 15.1 9c7.8 4.9 14.6 9 15.2 9 .5 0 4.3-1.9 8.4-4.2 6.6-3.7 7.5-4.5 7.5-7 0-2.3.4-2.8 2.4-2.8 1.7 0 2.7-.9 3.6-3.1 1.8-4.3 4.9-5.3 7.9-2.5 1.7 1.5 2.5 1.7 2.8.8.6-1.7 4.8-1.5 6.3.3.7.8 1 2.2.6 3-.4 1 .7 2.7 3 4.7 3.3 2.9 4 3.1 10.7 2.9 8-.2 10.2-1.7 9.2-6.1-.5-2.4-.1-2.7 4.5-4.4 2.8-1 5.2-1.7 5.4-1.5.2.2.8 1.3 1.3 2.3 1.4 2.6 9 4.5 17.9 4.6h7.2l3.6 4.4c3 3.7 4.4 4.6 8.1 5.2 2.5.3 4.8 1 5.1 1.5 1 1.6 2.4 1 3.6-1.6.8-1.9.8-2.8-.2-4-1.6-1.9 0-2 2.6 0 2.4 1.8 3.4 1.9 3.4.2 0-.8 1.4-1.2 4-1.2 4.2 0 4.7.4 2.8 2.3-.9.9-.3 1.5 2.5 2.7 4.7 2 4.7 2 4.7-1.4 0-4.1 2.4-5.8 3.8-2.7.6 1.3.8 3.3.6 4.3-.4 1.4.7 3 4.1 5.8 3.9 3.2 4.6 4.2 4 6.3-.6 2.4-.6 2.4 5 1.7l5.5-.6v4.6c0 2.5.4 5.4.9 6.4.8 1.4.5 1.6-2.3 1.3-3.2-.4-3.2-.4-2.8 3.8.4 3.7.8 4.3 5.2 6.5 2.6 1.3 5.4 3.5 6.4 4.9 1.6 2.6 1.9 2.6 13.6 2.6h11.9l.7-5.1c.8-6.3 3.2-7.6 10.9-6.1 4.8 1 5.1.9 8.6-2.3 2-1.8 5.1-3.6 6.9-4 3-.7 3.2-.9 2.5-4.3-1-5.1-1-5.2-6.6-5.2-5.5 0-5.3.8-2.7-9.3.5-2.1.6-4.7.3-5.7-.3-1.1-.1-2.8.5-4 .9-1.6.6-2.7-1.5-5.7-4.3-6.5-3.4-8.7 2.9-6.8l4.3 1.3 4.1-5.2c3.8-4.9 4-5.4 2.4-6.9-1.2-1.3-1.3-2-.5-2.8.9-.9 3.2-.7 9.3.9 8 2 8 2 9.1 0 .9-1.7 1.7-1.9 4.7-1.3 2.1.4 4.8 1.7 6.2 3.1 1.4 1.3 4 2.7 5.8 3 4.1.8 10.2-.3 10.8-2.1.3-.7-.4-3.5-1.6-6.2l-2.1-5-12.7-1.9-12.7-2-.6-2.9c-.3-2-1-2.9-2-2.6-6.6 1.6-12.7 1-18.8-1.7-5.8-2.5-6.6-3.3-7.8-6.9-1.3-3.9-1.6-4.1-7.6-5.3-8.4-1.7-13.7-5.1-13.7-8.9 0-2.5.5-3 5-4.2l5-1.4-3-4.7c-2-3.2-3-6.1-3-8.7 0-3.7.2-3.9 3.8-4.5 2-.3 5.4-.6 7.4-.6 2.7 0 4.1-.6 5.3-2.2 1.4-2.1 1.4-2.4-.7-4-1.3-1-4-2.3-6-2.8-2-.6-4-1.5-4.4-2.1-.6-1.1-10.6-.5-14 .8-.9.3-1.4-.2-1.4-1.5 0-3.6-1.1-5.2-3.6-5.2-3.2 0-3.1-2.5.1-4.6 2.3-1.5 2.4-1.7.7-4.1-1.6-2.6-1.6-2.6 1.1-2.1 2.3.4 2.7.2 2.7-1.7 0-1.2.9-3 2-4 3-2.7 2.4-5-2-8.7l-4.1-3.2 3.8-2.3c6.5-3.9 8.3-7.8 3.3-7.1-1.7.3-3.3.1-3.6-.4-.3-.4-2.1-.8-4.1-.8-3.9 0-10.7-3.6-9.7-5.2.4-.6 2.4-.7 4.8-.4 4.2.7 4.3.6 5.3-2.9.9-2.9.8-3.9-.6-5.6-1.6-2-1.7-2-5.4-.3-4.9 2.4-6.2 1.1-4.8-4.3.9-3.3 1.6-4.2 4.1-4.7 3.3-.6 3.7-2.1 1.5-5-2-2.6-1.9-3.3.5-4.1 2.2-.7 2.8-4.5.8-4.5-.7.1-2.4.7-3.8 1.5s-3.8 1.4-5.5 1.5c-2 0-3.6.9-5.1 2.7l-2.2 2.7-10.3-3.2c-8.7-2.8-10.5-3.1-11.4-1.9-10.5 14.3-17.5 22.2-21.6 24.3-2.8 1.4-5.5 2.1-6.8 1.7-1.8-.4-3.3.5-7.1 4.2-5.2 5.1-7.3 5.5-14.7 2.4-2.8-1.1-3.4-1.1-5 .3-2.3 2.1-9.2 1.1-18.3-2.6-7.7-3.2-21.1-4.3-23.1-2-1.9 2.3-8.5 1.7-12.9-1.1-3.5-2.2-5.1-2.5-13.4-2.5-7.9 0-10.1.4-13.1 2.1-2 1.2-3.7 2-3.9 1.8-.1-.2-1.3-1.9-2.6-3.7-2-3-2.7-3.3-5.3-2.8-2.3.5-6.1-.6-14.9-4l-11.7-4.5-1.8-5.6c-2.6-8.3-7.4-11.4-21.7-14.3-6.1-1.2-12.1-2.4-13.3-2.7-1.8-.4-2.5.1-3.3 2.2-1.1 2.8-1.6 2.8-8.9-.3l-3.6-1.5 3.5-1.2c3.3-1.1 3.4-1.2 1.2-1.9-1.6-.6-2.1-1.3-1.7-2.6.8-2.6-5.3-4-7-1.6-1.7 2.2-2 2.1-4.4-1.9-1.4-2.4-2.8-3.5-4.3-3.5-2.2 0-2.2-.1.7-2.4l3-2.4-3.7-.7c-3.1-.6-3.8-1.1-3.8-3.1 0-1.8-.5-2.4-2.2-2.4-2.1 0-2.1 0-.2-2.1 1.8-2.1 1.8-2.1-.9-4.1-1.5-1.1-2.7-2.6-2.7-3.3 0-.7-1.6-1.9-3.5-2.5-3.2-1-3.5-1.5-3.5-4.8v-3.7l-18.6-8c-18.4-7.9-18.6-8.1-24.5-14.7-4.7-5.3-5.9-7.3-5.9-10 0-4.5-5-12-9.8-14.8-3.2-1.9-4.3-2.1-8-1.2-3.5.8-4.5.7-4.9-.4-.3-.8-1.9-1.4-3.8-1.4-3 0-3.5-.5-5.4-5-1.5-3.4-2.9-5.2-4.5-5.6-1.7-.4-2.2-1.1-1.9-2.8.4-1.9-.3-2.6-4.5-4.4-6-2.6-6.5-2.6-10-.8-2.4 1.3-3.3 1.2-8.4-.9-3.1-1.3-6.9-3.7-8.5-5.4-2.3-2.6-4.1-3.4-10-4.5l-7.3-1.4-2.4 5.3z"/><path d="M139.9 363.2c-1.2 2.4-2.8 4.7-3.5 5.3-1.6 1.2-.7 6.4 1.2 7.2.8.3 1.4 1.3 1.4 2.3 0 2 2.2 4.1 6.8 6.4 3.1 1.6 3.3 2 3.1 6.6-.2 4.4.1 5.3 3.6 9.2 2.1 2.4 4.7 4.6 5.7 5 1 .4 1.8 1.2 1.8 1.8 0 .6-.7.6-2-.2-1.5-1-2.2-1-3.2 0s-.9 1.9.5 4.4c1.6 2.8 1.6 3.3.3 4.6-2.2 2.2-7.1-.1-10.6-5-3-4.2-3.5-4-5.6 1.8-.9 2.6-.8 3.3.6 4.2 1 .6 2 2.3 2.3 3.9 1.5 7.6 1.9 9.1 2.9 12.6.7 2.3 1.6 3.6 2.4 3.3 2-.8 3.1 1.4 3.7 7.4.4 3.1 1.3 6 2.2 6.6 1 .8 1.5 2.8 1.5 6.3 0 5-.1 5.2-2.2 4.6-1.3-.4-2.7-1.1-3.2-1.6-2.2-2-3.6-.8-3.6 3 0 6.1 1.1 9.9 3.5 12.3 3.7 3.8 4.7 6.4 3 7.8-2.2 1.8-1.9 6.7.4 8 2.9 1.5 5.1 1.2 5.1-.8.1-2.3 5 3.6 5 6 0 .9 1.2 2.6 2.8 3.7 3.2 2.5 4 3.2 7.1 6.5 2.7 3 8.1 3.7 8.1 1 0-1.7-7.5-9.4-9.1-9.4-1.9 0-9.2-8.4-11.3-12.9-1.2-2.5-2.6-5.3-3.1-6.1-.5-.8-1-4.4-1.1-7.9l-.2-6.4 3.7 3.9c2.1 2.1 4.1 4.8 4.5 6 .6 1.9 7.7 7.4 9.7 7.4.5 0 .9-.7.9-1.5s1.6-2.1 3.5-2.9c5.1-2.2 4.3-4.4-1.2-3.7-.8.1-1.3-1.1-1.3-3.2s-.6-3.7-1.4-4c-.8-.3-2.6-2.6-4.1-5.1-2.4-4-2.6-5-1.6-7.8 1.5-4.4 1.4-5-1.5-9.3-1.7-2.6-2-3.6-1-3.2 1.8.7 2 .1 1.6-6.3-.1-2.5-.9-5.6-1.7-6.9-1-1.6-1.3-3.5-.9-6 .4-2 .9-5.2 1.2-7.1 1-6.7 1.4-8 2.9-8 1.6 0 2-3.6.7-5.8-.5-.7-2.3-1.1-4.2-1-3.6.3-3.3.8-12.5-18-3.3-6.7-3.5-7.6-2.9-13.6.6-5.9.5-6.4-1.7-8-4.1-2.8-6.6-2.1-9 2.6zM216.4 421.7c-.3 1.3-1.1 2.3-1.6 2.3-.6 0-.5.7.2 1.5s2.6 1.5 4.2 1.5c3.1 0 3-.9-.6-5.5-1.6-2-1.6-2-2.2.2zM212.1 429.8c-.7 1.4-1.8 1.8-4.3 1.4l-3.3-.4 3.8 3.7c4 4 4.5 4.7 2.2 3.9-1-.4-1.5 0-1.5 1 0 1.2-.6 1.5-2.5 1-1.4-.3-3.2-.3-4.2 0-1.4.6-1.1 1.2 1.8 4.2 3 3.1 3.9 3.5 7.9 3.3 5.5-.3 7.6.8 13.7 6.9 5.4 5.4 10.8 8 11.7 5.7.9-2.5-6.2-12-13.4-17.9-7.2-5.9-8.1-7.4-5.5-9.6 1.4-1.2 1.4-1.5-.1-3.1-2.2-2.4-5-2.4-6.3-.1zM228.1 429.1l-2.5 1 2.3 1.5c1.7 1.2 2.5 1.3 3.6.4.8-.6 1.1-1.8.8-2.6-.6-1.6-.9-1.6-4.2-.3z"/><path d="M141.2 442.2c-1.4 1.4-1.6 4.8-.3 4.8.9 0 2.5-4.9 1.8-5.6-.2-.2-.9.2-1.5.8zM214 462.3c0 .7 1.6 3.2 3.5 5.4 1.9 2.3 3.5 4.6 3.5 5.2 0 1.5 11.9 14.5 13.6 14.9.8.2 1.4 1 1.4 1.8 0 1.9 2.6 6.1 6.4 10.2 2.5 2.7 2.8 3.6 1.9 5.1-.9 1.5-.6 2.2 2.2 4.4 1.9 1.5 4.1 2.7 5 2.7 4.2 0 13.5 9.6 13.5 14 0 2.1 5.9 3.7 7.1 1.8.5-.8 1.4-.7 3.3.6 3.1 2 3.1 2.1.5 4.7-1.7 1.7-1.8 2.3-.7 3.6.7.9 1.3 2.1 1.3 2.8 0 2 10.1 10.5 12.4 10.5 2.9 0 1.7-2.5-2.8-5.5-4.2-2.9-3.9-3 1.9-1 4.9 1.7 7.9 1.9 10 .5 1.3-.9 1.1-1.3-1-2.9-1.4-1.1-2.1-2.3-1.7-2.7.4-.4 1.5 0 2.5.9 2.4 2.2 5.2 2.2 5.2.1 0-2.2-6.5-8.2-9.5-9-1.4-.3-2.7-1.5-3-2.5-.4-1.1-2.1-2.6-3.8-3.5-1.8-.9-4.6-3.1-6.4-4.8-8.7-8.5-14.1-11.8-12.8-7.6.3 1.1.3 2-.2 2-1.3-.1-6.7-5.2-9.7-9.3-1.6-2-3.3-3.7-4-3.7-1.5-.1-8.4-6-6.9-6 .6 0 1.5.6 2.2 1.3.6.8 3.5 2.6 6.6 4.1 3 1.6 5.5 3.2 5.5 3.6 0 .5 2.7 1.7 6.1 2.9l6.1 2-1.7-2.7c-3.1-4.9-5.6-7-8.9-7.6-3.3-.6-5.8-3.3-8.9-9.3-2.1-4-6.7-7.3-11.3-8-3.6-.6-3.7-.5-3.2 2.1l.5 2.7-2.4-2.3c-8.6-8-11.3-10.9-11.3-11.8 0-1.4-9.4-11-10.8-11-.7 0-1.2.6-1.2 1.3zM131.7 466.8c-1.4 1.6-2.7 4.4-3 6.8-.4 3.7-.2 4.2 2.7 6.2 1.8 1.2 3.5 2.2 3.9 2.2 1.4 0 .6-2.8-1.3-4.5-2.5-2.2-2.6-6.3-.2-7.2 3.2-1.2 4.3-4.7 1.8-5.6-.7-.3-2.5.7-3.9 2.1zM136 500.8c0 1.7 2.9 3.4 4.7 2.8.9-.4 1.3-1 .7-1.5-1.5-1.4-5.4-2.3-5.4-1.3zM219.5 526c.5 2.8.3 4.6-.6 5.7-1.2 1.3-.9 1.9 1.6 3.9 3.9 3.1 8.5 3.2 8.5.3 0-1.1-.7-2.7-1.5-3.5-.9-1-1.2-2.5-.8-4.4.7-3.8-1.1-6-4.9-6-2.9 0-3 .1-2.3 4zM201.7 525.4c-.3.8.4 2.6 1.6 4 1.2 1.3 3 3.6 4 5s2.4 2.6 3.2 2.6c2 0 1.9-2.9 0-3.6-.8-.4-1.5-1.8-1.5-3.4 0-1.6-.3-3.5-.6-4.4-.8-2-6-2.1-6.7-.2zM188 536.4c0 1.6 4.6 5.4 9.7 8 4.9 2.4 5.8 1.9 2.5-1.4-1.7-1.7-3.4-3-3.8-3-.4 0-2.2-1.1-4-2.5-3.8-2.9-4.4-3-4.4-1.1zM206 549.8c0 1.4 2.3 3.2 4.2 3.2 2.4 0 2.3-1.7-.1-3-2.3-1.2-4.1-1.3-4.1-.2zM216.3 550.5c-1.8 1.9-1.6 2.9.7 5 1.1 1 2 1.3 2 .7 0-.7 1.4-1.2 3-1.2 2.1 0 3 .5 3 1.7 0 2.8 5.2 12.3 6.7 12.3 1.3 0 1.3-.4-.2-2.6-1.8-2.9-1.5-4.3.5-1.9.7.8 1.8 1.5 2.5 1.5s1.8.7 2.6 1.6c1.3 1.6 5.4 1.2 7.4-.7 1.2-1.3-2.3-4.2-4.2-3.5-2.1.8-9.3-3.6-12.6-7.8-1.7-2.1-4.5-4.5-6.4-5.2-3.9-1.7-3.5-1.7-5 .1zM250 570.6c0 2.9 12.3 14.4 15.5 14.4.3 0 .5-.6.5-1.3 0-1.5-9.5-11.7-10.9-11.7-.5 0-1.4-.7-2.1-1.5-1.6-1.9-3-1.9-3 .1zM235 575.1c0 .7.9 2.3 2.1 3.5l2 2.1-2.8.1c-1.5 0-3.8-.6-5-1.4-1.3-.8-2.3-1.1-2.3-.6 0 1.5 8.2 6.3 9.7 5.7 2.5-.9 19.8 16 26.5 26 6.7 9.8 18.2 22.3 25.3 27.4 4.2 3 4.5 3.1 4.5 1.2 0-1.4-.6-2.1-1.8-2.1-1 0-2.9-1.1-4.2-2.5l-2.3-2.5h2.2c1.2 0 3.7 1.1 5.5 2.5 1.8 1.4 3.5 2.5 3.8 2.5.3 0 .5-1.3.6-3 0-2-.5-3.1-1.7-3.5-1-.3-4.4-2.8-7.5-5.5-3.2-2.8-6.1-5-6.6-5-.4 0-1.7-1.5-2.8-3.4-1.3-2.2-3.3-3.8-5.6-4.6-3.7-1.2-8.6-7.7-10-13.3-.3-1.5-1.1-2.7-1.6-2.7-.6 0-1-.7-1-1.5 0-.9-.6-1.5-1.2-1.3-2.1.4-9.1-3.4-9.5-5.3-.3-1-1.8-2.3-3.4-2.9-1.6-.7-2.9-1.8-2.9-2.5 0-.6-1.7-2.5-3.7-4.1-5.3-4.2-6.3-4.7-6.3-3.3zm51 53.9c.9 1.6.8 1.8-.5 1.4-.8-.4-1.5-1.2-1.5-2 0-2 .7-1.7 2 .6zM242 576.1c0 .5.7.9 1.5.9.7 0 1.8.6 2.2 1.4.9 1.5 5.3 3.2 5.3 1.9 0-1.8-1.7-3.1-5.2-4.1-2.3-.6-3.8-.7-3.8-.1zM263 576.4c0 2 4.5 5 6.4 4.3.9-.4 1.9.5 2.7 2.4.6 1.7 2.3 3.8 3.7 4.7 1.3.9 5.7 4.9 9.7 9 5.9 6.1 7.8 7.4 9.6 6.9 2.3-.6 3.8.6 11 9.4 6.6 8 16.9 17.9 18.7 17.9.9 0 2.8.9 4.2 2 1.4 1.1 4 2 5.8 2 4.6 0 3.9-2.5-1.8-6.5-2.5-1.7-5.1-4.5-5.9-6.3-.8-1.7-2.4-3.5-3.5-3.8-1.2-.3-3.7-1.8-5.6-3.3-1.9-1.5-5.5-4-7.9-5.5-5.7-3.6-15.7-13.4-16.9-16.6-.7-1.7-2.3-2.9-5-3.7-2.3-.7-5.3-2.4-6.9-3.9-7.6-7-11.2-9.2-12.3-7.5-.5.9-1 1-1.4.2-.4-.6-1.6-1.6-2.7-2.1-1.5-.8-1.9-.7-1.9.4zM272.5 596.7c1.1 4.7 14.5 16.5 14.5 12.8 0-2.4-1.2-4.5-2.5-4.5-.7 0-3.4-2.5-6-5.5-5.2-6.1-7.1-7-6-2.8zM304 635.9c0 .5 1 1.3 2.3 1.6 1.2.4 4 2.4 6.2 4.5 7.9 7.4 12.5 9.3 7.7 3.2-1.6-2-3.2-4.9-3.5-6.3-.6-2.2-1.1-2.5-3.7-2.1-1.8.3-3 0-3-.7 0-.6-1.3-1.1-3-1.1-1.6 0-3 .4-3 .9zM300.5 642.4c2.1 3.8 2.3 4.6.9 4.6-.8 0-1.4.6-1.2 1.2.3.8 2.3 1.3 4.7 1.4 3.6.1 4.8.7 7.6 3.7 1.9 2.1 3.9 3.7 4.5 3.7.5 0 5 2.2 9.8 5 4.8 2.7 9.3 5 10 5 2.9 0 .7-1.8-5.8-5-4.9-2.4-7.7-4.5-9.4-7.1-1.7-2.4-4.9-5-9.6-7.6-6.1-3.2-7.1-4.1-6.7-6 .3-1.6-.1-2.3-1.2-2.3-.9 0-2.6-.3-3.9-.6l-2.3-.7 2.6 4.7zM357 646.5c0 1.6 5.2 8.4 6.9 9 1 .3 2.4 1.9 3.1 3.5 1 2.4 1.9 3 4.1 3 1.6 0 2.9-.3 2.9-.6 0-1.8-4.3-7.2-6-7.7-1.1-.3-2.5-1.9-3.1-3.6-.9-2.4-1.6-3-2.9-2.6-1 .3-2.1.1-2.5-.5-.6-1-2.5-1.4-2.5-.5zM395 668.7c0 1.2.7 2.3 1.5 2.6 2.3.9 2.6-.9.5-2.8-1.9-1.7-2-1.7-2 .2zM390.4 670.6c.3.9.6 2 .6 2.5s.7.9 1.5.9c1.8 0 1.8-.5.5-3.1-1.3-2.3-3.5-2.6-2.6-.3zM378.4 675.4c1.4 1.9 2.6 4.2 2.6 5 0 .9.9 1.6 2 1.6 3.1 0 2.5-3.6-1.2-7-4.6-4.1-6.7-3.9-3.4.4zM386.7 675.4c-.3.8.8 1.9 2.9 2.9 4.6 2.3 4.4-.7-.3-3.1-1.6-.9-2.2-.9-2.6.2zM402.7 675.4c-1.7 1.3-1.5 1.6 2 4.5 2.9 2.4 3.9 2.8 4.1 1.7.2-.9-.2-2.1-.8-2.8-.6-.7-1.6-2.1-2.3-3-1-1.5-1.5-1.5-3-.4zM374 678.5c2.4 2.5 5 3.3 5 1.5 0-.9-5.1-4-6.6-4-.4 0 .3 1.1 1.6 2.5zM363.6 682.5c.4.8 1.4 1.5 2.3 1.5 1 0 3 1.3 4.6 3 2.7 2.8 9.4 4.9 12.5 3.8 1.6-.5-8.9-7.5-12.2-8.2-1.6-.3-3.9-.8-5.3-1.1-1.9-.4-2.3-.2-1.9 1zM444.8 728.8c-1.6.2-2.8.7-2.8 1.2 0 .9 5.9 1.9 6.5 1 .8-1.3-1.1-2.5-3.7-2.2zM453.6 730.6c-3.2 3.3-3.3 4.4-.2 4.4 2.1 0 8.5-1.8 9.5-2.6.9-.8-3.3-4.4-4.9-4.4-1 0-2.9 1.2-4.4 2.6zM469.3 737.7c-2.7.5-2.6.5-1.2 3.5 1 2.4 9.1 6.1 13.6 6.3 1.1 0 3.5 1.5 5.1 3.3 1.9 2 4 3.2 5.6 3.2 1.5 0 3.5.6 4.6 1.2 3.3 2.1 4.6-.4 1.8-3.5-9.2-10.3-9-10.1-10.6-8.1-1.4 1.8-1.4 1.8-.9-.4.4-1.7.1-2.2-1.6-2.2-1.1 0-2.8-.7-3.7-1.5-1.8-1.6-9-2.6-12.7-1.8zM507 743.3c0 .8.7 2.7 1.5 4.3 1.3 2.5 1.3 3 0 4.4-.8.9-1.2 1.9-.9 2.3.3.3.3 1.1-.1 1.7-.5.8-1.1.8-2.1-.1-.8-.6-1.8-.9-2.1-.5-1.5 1.4 1.5 4.1 6.1 5.6 2.6.9 6.2 3 8 4.7 2.8 2.8 4.5 3.4 13.3 4.9 8.6 1.4 12.2 1.5 25.9.6 19.3-1.4 23.4-2 24.1-3.8.3-.8 1-1.4 1.5-1.4 1.6 0 3.7-3.2 3.8-5.6 0-1.6-1.2-2.8-4.2-4.4-2.4-1.3-5.2-2.4-6.3-2.5-1.1-.1-2.3-.3-2.7-.4-.5 0-.8-.7-.8-1.5 0-2-9.5-3.3-11.5-1.6-.8.7-1.5.8-1.5.3 0-2.1-20.9-5.8-38-6.8-3.6-.1-8.2-.6-10.2-1-3-.6-3.8-.4-3.8.8zM525.2 777.3c-2.7 1.4-2.3 3.2.7 3.1 1.1 0 2.1.3 2.1.8s1.2 2 2.6 3.3l2.7 2.5h-2.6c-1.4 0-2.7-.4-2.9-.8-.1-.4-1.7-1.8-3.4-2.9-2.8-2-3.7-2.1-8.5-1.2-3 .5-8.7 1.2-12.7 1.6-7 .5-7.2.6-5.6 2.4.9 1.1 2.3 1.9 3.1 1.9.8 0 3.1.9 5.3 2 2.2 1.1 5 2 6.4 2 1.3 0 4.6 1.1 7.3 2.4 7.4 3.6 25.1 6.7 34.8 6 5-.4 12.5 0 20 1 14.1 1.9 48.3 2.2 56.8.5 8.7-1.8 5.8-3.5-7.2-4.3-6-.4-12.6-1.2-14.7-1.8-5.4-1.4-18.9-2.6-38.4-3.4l-16.5-.6-3.3-3.6c-1.8-2.1-3.7-4.8-4.3-6.1-.8-2.1-1.4-2.3-4.9-1.7-2.7.4-4 .2-4-.5 0-.6-.6-.9-1.2-.6-.7.3-2.1.8-3 1.2-1.2.5-1.7 0-2-1.7-.3-2.6-3-3.2-6.6-1.5zM491.7 789.4c-.3.8.8 2 2.9 3 4.3 2 7.4 2.1 7.4.1 0-.8-.9-1.5-2-1.5-1.2 0-3.4-.7-5-1.5-2.3-1.2-2.9-1.2-3.3-.1zM447.5 810c-6.4 2.9-8.8 8.3-3.1 7.3 2-.4 2.6-.1 2.6 1.3 0 .9-.7 2.5-1.6 3.5-2.8 3.1-.8 4.2 6.7 3.5 3.7-.3 8-1.1 9.4-1.6 1.4-.6 3.8-1 5.3-1.1 1.9 0 3.6-1.2 6-4.1 5.3-6.7 4.1-9.1-3.6-6.8-2.7.7-3.3.6-2.9-.4.4-.9-.5-1.6-2.5-2-4.4-.9-14-.6-16.3.4zM606.4 819.5c1.2 2.9 1.3 3.5.2 3.5-1.2 0-3.1 2.9-2.4 3.5.2.1 3.9 1.4 8.3 2.9 6.7 2.2 9.8 2.6 19 2.6 11 0 11 0 15.9 3.5 2.7 1.9 6.5 4 8.5 4.6 2 .7 5 2.3 6.7 3.6 2.4 1.8 4.4 2.3 8.7 2.3 4.8 0 5.8.3 7.6 2.7 1.2 1.5 1.9 3.4 1.6 4.4-.5 1.5 2.3 2.7 20.2 8.5 11.4 3.8 22 7.6 23.5 8.6 1.4 1 3.7 1.8 5 1.8 1.7 0 2.9.8 3.6 2.5 1.3 2.9 3.2 3.3 3.2.7 0-1-1.6-3.3-3.5-5.2-1.9-1.8-3.3-3.5-3.1-3.8.6-.6 4.9 1.8 6.9 3.9 2.3 2.5 4.4 2.4 5.2-.1.4-1.1 1.1-1.7 1.7-1.4.6.4 2.4.7 3.9.6 1.8 0 2.9.4 2.9 1.3 0 2.2 4.1 4.6 5.7 3.3 1-.8 1.3-.3 1.3 2.3 0 3.2.6 3.8 9.8 9.5 13.1 8.3 15.9 9.7 16.5 8.1.2-.7.8-.3 1.6 1.1.9 1.6 2.1 2.2 4.9 2.3 2.2.1 2.9.3 1.7.6-5.5 1.4-6.6 2.2-5.6 4.1.7 1.4 2.6 2.1 6.7 2.5 3.7.4 6.9 1.5 9.4 3.2 3.1 2.1 4.2 2.4 5.8 1.6 1.5-.8 2.4-.6 4.1 1.3 2.3 2.5 2.8 5.2.9 5.9-3 1 8.7 10.6 21.7 17.8 4.4 2.4 9.6 5.8 11.6 7.6 2 1.8 4.6 3.3 5.7 3.3 1.2 0 4.1 2.3 7 5.5 2.8 3 5.3 5.5 5.6 5.5.3 0 .6-1 .6-2.3 0-1.3.5-2.8 1.1-3.4.8-.8-1.5-3-8-7.9-5.7-4.4-8.8-7.5-8.6-8.4.2-.8.7-3.5 1-6 .6-4.3.4-4.8-4.5-10.5-2.8-3.3-6.1-6.3-7.3-6.7-4.3-1.2-8.8-.8-12.8 1.2-4 2.1-5.9 2-5.9-.4 0-.8-3.3-4-7.2-7.2-4-3.2-12.5-10.1-18.8-15.4-14.4-12.1-24.2-18.6-30.2-20.1-4-1-4.8-1.5-4.8-3.5 0-1.6-.9-2.8-2.9-3.8-2.3-1.2-2.9-2.4-3.5-6.3-1.1-8.1-8.3-13.3-11.7-8.3-1.3 1.9-1.6 1.9-6.9.5-7.3-2-9.2-1.9-13.5.7l-3.7 2.1-5.5-2.7c-7.3-3.6-7.9-2.6-.9 1.5 3.1 1.8 5.8 3.9 6 4.6.9 2.1-1.5 1.5-3.4-1-1-1.2-4.7-3.3-8.3-4.6-3.6-1.2-6.8-2.9-7.1-3.7-.3-.8-1.5-1.4-2.6-1.4-1.8 0-1.9.3-.9 2.1 1 2 .9 2.1-1.2 1.4-1.3-.4-4.1-.9-6.1-1.2-3.2-.4-3.8-.9-3.8-2.9 0-2.7-3.2-6.4-5.5-6.4-.8 0-6.7-2.5-13.1-5.5-6.4-3-12.8-5.5-14.1-5.5-1.3 0-3.7-.7-5.4-1.5-2.4-1.3-5.1-1.4-14.9-.9l-12 .7-4.6-3.7c-2.6-2-5.6-3.6-6.6-3.6-1.7 0-1.7.2-.4 3.5z"/><path d="M541.7 828.7c-2.6.7-1.5 2.8 1.5 2.9 1.3 0 3.1.6 4 1.4 1.3 1.3 1.1 1.8-1.9 4.8-1.9 1.8-3.3 3.8-3 4.5.2.7 2.5 1.2 5.8 1.3 3 .1 6.8.7 8.4 1.3 1.7.7 6.9 1.7 11.8 2.2 4.8.5 9.5 1.4 10.5 2 2.1 1.3 10-.8 16.1-4.2 3.7-2.2 3.8-2.1 21.7 1.3 10.1 2 11.5 2.1 16.4.7 6.2-1.6 7.4-3.4 3-4.4-1.9-.4-3.6-1.7-4.5-3.5-1.5-3-5.9-5-10.9-5-1.7 0-4.3-.6-5.8-1.4-3.3-1.7-17.6-1.2-26.5 1.1-8.2 2.1-23.5.6-29.6-2.9-1.2-.7-3.3-1.4-4.7-1.5-1.4-.2-4.3-.5-6.5-.7-2.2-.3-4.8-.2-5.8.1zm11 6.9c-.3.3-1.2.4-1.9.1-.8-.3-.5-.6.6-.6 1.1-.1 1.7.2 1.3.5zM665.4 869.5c-1 .8-2.7 1.5-3.6 1.5-2.1 0-2.3 1-.5 3.2 1.2 1.7 9.5 4.4 10.4 3.4.3-.3 1.8.1 3.4.9 1.5.8 4.2 1.5 5.9 1.5 1.7 0 4.3.9 5.8 1.9 1.8 1.3 7 2.7 15.4 4 8.3 1.3 14.3 2.8 17.6 4.5 4.2 2.1 5.5 2.4 8.5 1.5 5.1-1.4 5.3-2.5 1-3.9-2.1-.7-5.2-2-7-3.1-1.8-1-5.9-2.1-9.3-2.5-3.4-.4-6-1.1-6-1.8 0-.6-2.1-1.7-4.7-2.3-2.7-.7-9.1-2.4-14.2-3.8-5.2-1.4-11.3-2.5-13.4-2.5-3.2 0-3.7-.2-2.8-1.4.9-1.1.8-1.5-.5-2-2.4-.9-3.8-.7-6 .9zM569.9 875.6c-1 1.3 1.3 3.8 2.4 2.7.4-.3.7.1.7.9 0 .9-.5 1.8-1.2 2-.7.3-.3 1.3 1.1 2.7 1.6 1.6 2.9 2.1 4.4 1.6 4.5-1.4 7.7-1.7 7.7-.7 0 2.1 4-.1 6-3.3 3.7-6 3.3-6.3-9.1-6.7-7.3-.2-11.4.1-12 .8z"/></svg>
