<svg version="1.0" xmlns="http://www.w3.org/2000/svg" width="1365.333" height="1365.333" viewBox="0 0 1024 1024"><path d="M4.2 325.7c-1.5.6-.6 2.3 1.4 2.3.8 0 1.4-.7 1.4-1.5 0-1.5-.6-1.7-2.8-.8zM.7 330.2c.6.7 1.3 3.4 1.5 5.9.8 7.6 5.7 14.7 18.2 26.3 9.1 8.5 11.9 10.6 14.3 10.6 2.9 0 9.3 5.3 9.3 7.6 0 .6.9 1.9 2.1 3C51 388 57 397.2 57 400.3c0 3.1.5 3.4 9.9 7.9l9.9 4.7 3 6.3c1.6 3.5 4.2 10.8 5.7 16.3 3.2 11.8 4.7 14.5 11.1 19.6 8.2 6.4 19.3 19.8 20.9 25.1.8 2.6 3.4 7.6 5.8 11 5.9 8.4 8.9 14.5 8.2 16.8-1.1 3.4.6 7 4.1 8.8 1.9 1 4.9 4.2 7.3 7.9 2.4 3.7 5.7 7.3 8.3 8.9 6.4 4.1 8.8 6.5 8.8 8.8 0 2.1 10.9 12 17.4 15.9 1.7 1.1 4.5 3.2 6.1 4.7 1.7 1.6 4.9 3.6 7.3 4.5 2.7 1.1 4.8 2.8 5.7 4.6 2.1 4 15 16.9 16.9 16.9 2 0 2-.1-.1-4.5-.9-1.9-1.4-3.7-1.1-4.1.9-.9 4.2.4 8.2 3.1 3.5 2.4 3.6 2.4 4.6.5 1.4-2.7 3.3-2.5 8.1.7 2.3 1.5 4.3 2.2 4.8 1.7.5-.5 1.6-6 2.6-12.3 1.6-9.8 1.6-12.3.6-17.7-1-4.9-1-7.1-.1-9.9 1-2.9 1-4.2 0-6-1.1-2-.9-3.2 1-7.7l2.2-5.3-3-5.5c-7.1-13.5-6.6-13-13.7-13-7.9 0-9.5-.6-9.5-3.5 0-1.6-1.1-3-3.5-4.4-4.2-2.4-4-2.1-5.5-13.3l-1.2-8.6h-3.1c-6 0-12.6-1.9-16.2-4.7l-3.7-2.7 4.3-4.4c4.2-4.3 4.2-4.5.1-5.6-1.9-.5 1.5-4.8 3.9-4.8 4.3 0 .1-8.2-6-11.6l-4.5-2.5-3.4 3.6c-5.6 5.7-6.5 4.3-2.2-3.5l3.8-7-4.1-3c-4.5-3.3-6.2-3.7-7-1.6-.8 2.1-4.4.8-5.1-1.7-.3-1.2-.1-2.4.4-2.5 1.4-.5 1.2-3.6-.2-5-.7-.7-3.4-1.2-6.2-1.2h-4.9l1.9 2.1 1.9 2.2-2.5-1.3c-4.2-2.2-7.9-5.7-7-6.6.8-.9 1.3-3.7 1.1-6.1-.3-3.4-8.1-2-8.1 1.5 0 1.2-.6.8-2-1.2-2-3.2-8.8-7.8-10.2-7-.4.3-.8 1.6-.8 3 0 5.1-6 1.7-10-5.8-1.7-3.2-3.7-5.8-4.3-5.7-2.7.3-3.7-.2-3.7-2 0-2.8-12-13.5-21.1-18.8-4.3-2.5-7.9-4.9-7.9-5.3 0-.4-2.2-1.9-5-3.4-4.1-2.3-5-3.2-5-5.5 0-1.6-1-3.7-2.5-5.1-1.4-1.3-2.9-3.5-3.3-5-.4-1.4-3-4.6-5.8-7.2-4.8-4.6-5.2-4.7-8.2-3.6-2.5 1-3.9.9-6.6 0-2.2-.8-5.3-1-8.5-.6-7.4 1-11.3-.2-16.5-4.8-5.1-4.4-12.2-6.2-15.1-3.8-1.2 1-1.6.9-2.1-.4-.3-.9-1.1-1.6-1.6-1.6-.7 0-.7.4-.1 1.2zM705.4 356.2c-1.2 1.9-1.1 11.8.1 11.8.6 0 1.9-1.6 2.9-3.5 1.6-2.9 1.7-3.8.6-6.5-1.3-3.2-2.4-3.7-3.6-1.8zM466.9 359.6c-6.5 1.9-8.3 3.7-9.8 9.2-.9 3.7-1 5.6-.2 7.1s.8 2.8-.3 5.3c-.8 1.8-1.7 4.1-2 5.1-.3.9-1.8 2-3.3 2.3-2.2.4-3.3 1.6-4.7 5.1-1.6 3.8-1.7 4.6-.5 5.4 1.1.6.6 1.5-2.3 3.9-2.7 2.2-3.9 4.1-4.3 6.8-.3 2-1.5 5.6-2.6 7.8-2.2 4.4-4.5 5.4-13 5.4-2.5 0-4.2.7-5.7 2.5-3 3.4-7.3 3.2-14.7-.5-4.7-2.3-7.4-2.9-12.3-3-7.2 0-9.9 1.1-11.2 4.6-.6 1.6-2.9 3.3-6.7 5-5.1 2.2-6.3 2.4-9.9 1.5-3.6-.9-5-.7-10.3 1.4-3.3 1.4-6.8 2.5-7.7 2.5-.9 0-4-2.4-6.8-5.3-2.9-2.8-6.8-6.4-8.8-7.9-2-1.5-4.6-4.8-5.8-7.3-1.2-2.5-2.8-4.5-3.5-4.5-.7 0-2.4 1.9-3.8 4.2-1.4 2.4-3.4 5-4.5 5.9-1.3 1.1-2.2 3.6-2.7 7-.4 3-1.2 6-1.7 6.6-.6.8-.8 3.8-.3 7.7.5 5.1 1 6.5 2.5 6.9 1.1.3 2.7 2.1 3.6 4.1 1.6 3.3 1.6 3.7.1 5.4-2.6 2.8-2.1 6.7 1 9.2 1.9 1.5 2.4 2.3 1.5 2.9-.9.5-.8 1.2.4 2.9 1.1 1.6 2.1 2.1 4 1.6 2.6-.7 3.5 1.3.9 2.2-.9.4-1.5 1.9-1.5 4.1v3.5l4.4-2.6 4.4-2.6 2.6 3.1c3 3.6 3.1 4.5 1 9.9-1.5 3.7-1.5 4.2-.1 5.3 1.9 1.5 4.7 11.3 4.7 16.7 0 2.3.5 5 1 6.1 1 1.8 1.2 1.8 3.5.3s2.7-1.4 7.3 1.2l4.9 2.7 8.7-2.7c4.9-1.5 9-2.5 9.3-2.2.3.2.7 3.3 1 6.8.8 8.7 1.7 9.5 6 5.7 2.4-2 4.1-2.8 5.2-2.3 5.8 2.5 14.3-.3 16.2-5.3l1-2.7 2.6 2.8c2.1 2.3 3.1 2.7 5.9 2.1 3.2-.6 3.4-.5 3.4 2.4 0 3.7 2.1 4.5 9.5 3.6 8.2-1.1 10.3-.2 11 4.3.3 2 1 5.4 1.6 7.4l1 3.8 4.7-2.4c2.6-1.3 8.3-3.8 12.7-5.5 4.4-1.8 9-3.9 10.2-4.6 2.1-1.4 2.2-1.3 3.3 4.1l1.2 5.6 2.1-1.9c3.3-2.7 3.8-3.6 3.4-6-.2-1.2.2-2.4.9-2.7 1.9-.7 1.8-3.6-.1-3.6-.9 0-1.5-.9-1.5-2.4 0-1.3-.5-2.6-1.1-2.8-.7-.2-.4-1.6 1-3.8 1.1-1.9 2.1-5.2 2.1-7.3 0-3 .4-3.7 1.7-3.5 2.4.4 3.8-5.3 1.6-6.9-.8-.7-2-1.4-2.5-1.5-.6-.2-.7-2.3-.3-5.2.7-4.3 1.7-5.8 9.8-14.2 6.7-7.1 9.4-9.3 10.8-8.9 1 .4 2.7.1 3.9-.5 2.6-1.4 2.9-9 .4-11.1-1.3-1-1.5-2.4-1-6.4 1.4-12 5.9-21.2 9.8-19.9 1.2.3 2.4.1 2.8-.6.6-1 1.8-1 5.3-.1 6.8 1.7 12.1 1.4 14-.7 1-1 1.7-2.3 1.6-2.8-.1-1.2-13.3-11.9-19.2-15.5-5.5-3.4-6.4-5.1-4.9-9.1.9-2.6.6-4.2-2.6-12.3-2.8-7.1-4.3-9.7-6.5-11-4.4-2.6-2.4-5 2.6-3 3.5 1.4 1.8-2.9-2.1-5.2l-3.7-2.2 4.8-.1c5.1 0 5.6-.8 3.3-5-1.2-2.1-1.2-2.6.2-3.6 1.3-.9 2-.9 3-.1 1.1.9 1.3.5 1-1.9-.4-3.7-4.3-4.6-6.5-1.5-.8 1.2-1.9 2.1-2.5 2.1-.7 0-.7-.4.1-1.3.8-1.1.2-1.8-2.7-3.4-3-1.7-5.9-2.2-15-2.5-6.8-.2-12.9.1-15.3.8zM289.9 364.9l-2.3 1.9 1.9 4.1c1.1 2.2 2.7 4.1 3.5 4.1 4 0 5.2-5.2 2.4-9.5-2-3-2.5-3.1-5.5-.6zM680.5 374c-.3.5.1 1.7 1 2.7.8 1 2.1 2.7 2.8 3.7 2.3 3.2 4 1 2.1-2.7-2.3-4.3-4.6-5.8-5.9-3.7z"/><path d="M506.5 378c.3.5 1 1 1.6 1 .5 0 .9-.5.9-1 0-.6-.7-1-1.6-1-.8 0-1.2.4-.9 1zM249.5 382.9c-.3.5-.1 1.2.5 1.6.5.3 1-.1 1-.9 0-1.8-.6-2.1-1.5-.7zM236.4 390.2c.3 1.3.6 2.7.6 3.2 0 .6.6.1 1.4-1 1-1.3 1.1-2.3.4-3.1-1.7-2.1-3.1-1.5-2.4.9zM306.1 390.9c-1 1.7-.9 2.1.3 2.1 2 0 2.7-1.3 1.6-2.9-.6-1.1-1-.9-1.9.8zM14 392.5c-1.7 2.1.9 5 5.9 6.6 2 .6 4.8 2.3 6.3 3.7 1.6 1.4 3.3 2.2 4.2 1.9 2.5-1 1.9-2.2-2.4-5.1-2.2-1.4-4-3.3-4-4.1 0-.8-.8-1.5-1.8-1.5s-2.7-.7-3.8-1.5c-2.4-1.8-2.9-1.8-4.4 0zM740.5 402c-1.5 1.6-3.2 2.7-3.7 2.4-1.3-.9-.9.6.7 2.2.8.9 1.5 2.4 1.5 3.5 0 2.8 2.4 2.3 6.5-1.2 5.1-4.5 4.7-9.9-.9-9.9-.7 0-2.5 1.3-4.1 3zM47.1 406.9c-1.1.7-.9 1.1.8 2 1.8 1 2.1.9 2.1-.9 0-2.2-.7-2.5-2.9-1.1zM727.5 407.1c-1 1.5.3 2.5 1.6 1.2.7-.7.7-1.3.1-1.7-.6-.3-1.4-.1-1.7.5zM727.6 412c-1.9 2.2-3.8 5.2-4.2 6.7-.3 1.6-1.4 5.4-2.4 8.6l-1.9 5.7 2.6 2.4c2 1.8 2.4 3 1.9 4.9-.3 1.4.1 5.2.9 8.3.8 3.2 1.5 7.5 1.5 9.5 0 2.1.7 4.2 1.6 5 .8.7 2.4 3 3.5 5.1 1.9 3.7 9.3 9.7 10.5 8.5.4-.3-.9-2.4-2.8-4.7-4.9-5.7-8.2-15.8-6.8-21.1 1.3-4.8 3-5 12.5-1.5 3.6 1.3 6.5 2.1 6.5 1.7 0-1.9-5.3-8-8-9.1-3.8-1.6-3.5-2.6 2.1-6.5 3.5-2.5 4.5-3.9 4.7-6.5.5-5.2-.5-8-3.1-8-3.3 0-8.6 3.6-9.9 6.7-2.1 4.8-6 10.3-7.3 10.3-.7 0-1.8-.7-2.5-1.5-1-1.1-.5-2 2.4-4.5 2.2-2 4-4.7 4.7-7.2.9-3.6.8-4.4-1.2-7.1-2.1-2.8-2.1-3.1-.5-5.7 2-3.4 2-4 .2-4-.7 0-3 1.8-5 4zM663 422.3c-1.8 4.1-5.1 6.7-8.5 6.7-.8 0-3.8 2.1-6.6 4.6-4.1 3.6-5.7 4.5-7.8 4.1-1.4-.2-5.9-1-9.9-1.8-6.5-1.2-7.4-1.1-8.8.3-1.6 1.5-1.9 1.5-4.4-.3-2.6-2-14.5-4.3-16.2-3.3-.5.3-1.5.1-2.2-.5-1-.8-2.2-.8-4-.1-4.7 1.8-6.6 1.3-6.6-1.6 0-2.3-.3-2.5-2.5-2-1.6.4-3.4.1-4.6-.7-3.2-2.3-6.8-.9-8.5 3.2-2.7 6.4-8.4 10.7-8.4 6.3 0-1-.3-2.1-.6-2.5-.8-.8-8.4 7-8.4 8.7 0 .8-.5 1.8-1 2.1-2.1 1.3-4.2 6.7-3.1 7.8 1.9 1.9 1.3 4-.9 3.4-2.2-.6-2.9 1.8-.8 2.5 2.2.8-1 11.7-5.5 18.8-4 6.2-4.2 6.7-4.2 14.5 0 6.8-.3 8.5-2.2 10.9-1.3 1.6-2.3 3.8-2.3 5 0 3-2.7 6.6-5 6.6-2.4 0-3.1 3-1.2 5.2 1.2 1.5 1.2 2-.1 3.9-1.6 2.2-1.4 6.5.5 10.2 1.3 2.6 5.4 3.9 7.8 2.5 2.6-1.7 5.4 1 7.4 7 2.1 6.1 2 8.3-.9 20.4-3.3 13.8-3.3 15.2.9 17.7 3.9 2.4 5.9 2.6 7.5.7 1.4-1.7 10.2-2.8 11.9-1.4 1.7 1.4 1.5-1-.3-4.2-2-3.5-1.8-8.4.4-12.9 1.8-3.4 1.8-4.1.5-6.6-1.8-3.5-1.8-12.9 0-15.8 1.4-2.2.9-5.5-2.8-17.2-.5-1.6.4-2.6 4.4-5.3 5.2-3.4 7.9-3.9 11.1-2.2 3 1.6 2.6 9.3-.6 13.2-1.4 1.6-2.5 3.4-2.5 3.8 0 1.2 11.3 10.6 15.1 12.5 2.7 1.5 2.8 1.7 1.4 3.8-.8 1.3-1.7 4.3-2.1 6.8-.5 4.2-.4 4.5 2.6 6.1 3.7 2.1 13.2 2.6 11.2.6-3.9-3.9 2.1-8.4 9.9-7.4 4.3.6 4.9.4 6.8-2 2.7-3.5 2.7-5.2-.3-6.5-1.3-.6-4-3.1-6-5.5s-4.3-4.4-5.1-4.4c-2 0-2.6-1.5-1.6-4.2.6-1.2 1-1.9 1.1-1.3 0 .5.7-.5 1.5-2.3 1.3-3 1.3-3.6 0-4.9-.8-.8-1.5-2.2-1.5-3.1 0-1-1.2-2.3-2.7-3-3.3-1.5-12.3-13.6-12.3-16.6 0-2.2 3.5-4.8 10.3-7.6 2.4-1 6-4.3 10-9 3.4-4.1 7.5-8.1 8.9-9 2.6-1.4 2.9-1.3 5.7 1.4l3.1 2.9 1.5-3.7c2-4.6 1.5-6-2.5-8.1-2.5-1.3-3.7-1.4-7-.4-3.3 1-3.9 1.6-3.4 3.1.5 1.7.1 1.8-5.8 1.2-5.4-.5-7.1-.3-10.6 1.5-4.6 2.3-9.2 2.7-11 .9-.9-.9-2.6.3-7.5 5.7-5.6 6.1-6.6 6.8-9 6.1-1.6-.4-4.2-2.6-6.4-5.6-2-2.7-4.9-5.4-6.4-6-2-.9-3.2-2.5-4.3-5.8-2.9-8.4-1.4-16.6 3.9-21.9 3.8-3.8 5.2-4 11.3-1.6 4.1 1.5 4.8 1.5 11.7-.1 5.4-1.3 7.9-1.5 9.3-.7 1.3.7 6.4.8 14.5.4 11.6-.6 12.8-.4 16.6 1.6 2.3 1.1 5.5 2.1 7.1 2.1 1.6 0 3.1.4 3.4.9.6.9 9-.2 14.1-1.9 4.1-1.4 12.5-10.2 19-20 4.6-6.9 4.7-7.2 3-9-1-1.1-2.9-2-4.2-2-1.9 0-2.8 1-4.3 4.3zM47.8 424.4l-2.7 1.1 3 5.3c1.7 2.8 4.4 6 6 6.9 1.6 1 3.2 2.8 3.5 4 .9 3.4 4 2.9 5.3-.8 1.8-5.1 1.4-6.1-4.5-12.2-5.9-6-6.4-6.2-10.6-4.3zM207.3 430.7c-3.6 1.8-4.4 4.3-1.4 4.3 1 0 2.4.7 3.1 1.5 1.8 2.2 3.9 1.8 4.6-.9.6-2.4-1-6.7-2.4-6.5-.4 0-2.2.8-3.9 1.6z"/><path d="M198 431.5c-1.2 1.5-.6 3.5 1.1 3.5.6 0 1.9 1 2.9 2.2 1 1.3 2.2 2 2.6 1.6.4-.5-.1-1.7-1.1-2.8-1-1.1-1.5-2.8-1.2-4 .6-2.4-2.4-2.8-4.3-.5zM184 432.9c0 .6.5 1.3 1 1.6.6.3 1-.1 1-.9 0-.9-.4-1.6-1-1.6-.5 0-1 .4-1 .9zM184 439c0 1.5.7 2 2.7 2 2.5 0 2.6 0 .8-2-1-1.1-2.2-2-2.7-2-.4 0-.8.9-.8 2zM720.6 454.8c-.2.4-.1 1.4.5 2.2.7 1.2.9 1 .9-.8 0-2.3-.5-2.8-1.4-1.4zM209.6 457.9c-2.6 2.8-.5 4.7 4.5 4.3 2.4-.3 3.9 0 3.9.7 0 .6.5 1.1 1 1.1 2.3 0 .7-3.1-2.7-5.5-4.5-3-4.5-3-6.7-.6zM763 456.8c0 1.3 3.5 4.2 5 4.2.9 0 .5-.9-1-2.5-2.4-2.5-4-3.2-4-1.7zM787.8 458.5c-1.6.9-2.8 2.1-2.8 2.8 0 1.7 5.8 4.8 6.6 3.6.3-.6 1.1-.3 1.8.7 1.1 1.4 1.8 1.5 4.6.6 1.8-.7 4.5-1.2 6-1.2 3.6 0 4.7-2.7 2.1-5.3-2.6-2.7-14.4-3.4-18.3-1.2zM74.4 461.6c.4.9.2 2.2-.4 2.9-1.5 1.9.3 2.7 2.5 1.1 1.4-1 1.6-1.6.6-3.4-1.4-2.5-3.6-3-2.7-.6zM714 465.5c0 2.5.4 3.5 1.5 3.5.9 0 2.8 1.2 4.3 2.7 3.6 3.7 8.8 5.5 10.3 3.7 1.2-1.5.4-3.4-1.4-3.4-.7 0-1.8-.4-2.6-.9-1.2-.8-1.2-1.2-.2-2.5 2-2.4-.2-4.5-4.4-4.1-2.2.2-3.5-.1-3.9-1.1-.3-.8-1.2-1.4-2.1-1.4-1.1 0-1.5 1-1.5 3.5zM207.3 464.8c-2.6.4-2.8 1.7-1 4.9l1.3 2.3 2.7-2.6c1.5-1.3 2.7-2.7 2.7-2.9 0-1-3.7-2.1-5.7-1.7zM829 464.7c-.8.4-3.7 2.1-6.3 3.9-2.7 1.8-6.5 3.6-8.5 4-4.9.9-7.2 2.1-7.2 4 0 2.1-2.9 7.4-4 7.4-.6 0-1-1.5-1-3.4 0-2.8-.4-3.5-2.2-3.8-1.3-.2-2.2-.9-2-1.6.2-1-1-1.2-4.5-1-4.9.3-7.1 2.5-3.4 3.5 1.1.3 2.3 1.3 2.6 2.3.3 1 1.9 3.6 3.5 5.8 3.1 4.3 8 6.3 10.5 4.2 1-.8 2.7-.7 7.1.4 5.7 1.5 7.4 2.7 7.4 5.6 0 1.8 3 6.7 6 9.8 1.6 1.7 2.9 2.2 4.7 1.7 1.4-.3 3.1-.1 3.9.6.8.6 2.4.8 3.6.4 1.3-.3 5.9-1 10.3-1.5 4.4-.4 9.6-1.1 11.5-1.6 3.2-.7 3.4-.6 2.1.9-.9 1.1-1 1.7-.2 1.7 2.4 0 .9 2.7-2.4 4.3-4.8 2.3-7 2.1-8.7-.5l-1.5-2.3-4.8 4c-7.3 6.2-7 6.1-11 4.2-4.4-2.1-5.8-2.1-9.6-.1-2.5 1.2-2.8 1.8-1.8 3 .6.8 2.1 1.4 3.3 1.4 3.1 0 8.2 3.5 9.8 6.7.8 1.6 2.1 2.7 2.9 2.5.9-.1 2.1.9 2.7 2.2.9 2.1.8 2.6-1.1 3.9-1.9 1.2-2 1.7-.8 3 .7.9 1.1 2.2.8 2.9-.2.7.4 2.3 1.5 3.5 1.9 2 2.2 2.1 6.3.6 5.1-1.7 6.2-2.8 6.7-6.7.5-5 2.8-5.3 8.3-1.2 6.9 5.3 10.6 7.1 11.5 5.6.9-1.5 4.1 0 6.7 3.3 3.9 4.8 9 7 19 7.8 7.1.6 10 1.3 12 2.9 1.4 1.1 3.7 2 5 2 1.4 0 5.6 1.7 9.4 3.7 5.7 3.1 7.1 3.5 7.8 2.4.8-1.2 2.3-.6 8.1 2.9 11 6.6 15 9.8 15 11.9 0 1.1.7 2.1 1.6 2.3.9.2 2.4 3.1 3.8 7.1 1.2 3.7 3.5 8 5 9.6 2.7 2.8 2.7 3.1 1.6 6.7-1.3 3.7-1.2 3.9 2.1 6.6 2.6 2.2 2.9 2.8 1.5 2.8-1.9 0-1.9.1 0 2.1 1.8 2 1.8 2-.9 1.4-7.7-2-15.8 3.9-21.7 15.6-3.6 7-3.4 9.4.5 7.9 1.3-.5 4.9-.9 7.7-.9 2.9 0 6.9-.1 8.8-.3 1.9-.1 4.7.2 6.2.6 2.1.6 2.7.4 3.2-1.2 1-3 5.4-5.6 7.1-4.2.9.8 3.3.9 6.8.5 7.3-.9 9.7.5 22.4 12.8l10.3 10V636c0-24.7-.1-25.4-2.2-27.7-2.1-2.2-2.1-2.4-.5-5.8 1.5-3.2 1.7-8.3 1.7-45.9v-42.4l-4.9-2.1c-2.7-1.1-6.2-2.1-7.8-2.1-1.5-.1-3.9-.7-5.3-1.4-1.3-.8-3.8-1.2-5.5-.9-2.2.4-5.9-.8-13.5-4.1-5.7-2.6-11.1-5.3-12-6-1.7-1.5-19.6-7.6-22.3-7.6-1 0-4.5 1.4-7.8 3.1-6 3-6.1 3.1-5.5 6.4.4 1.8.3 3.6-.2 3.9-.5.3-4 .8-7.8 1.1-10.2.9-11.1 1.2-11.8 3.9-.3 1.3-2.4 4.4-4.6 6.7-2.2 2.4-4 4.8-4 5.4 0 .6-2.4 3.2-5.4 5.8-4.6 4-6.1 4.7-9.6 4.7-5 0-9.5-3.8-8.5-7 .5-1.5.2-2-1.4-2-1.6 0-2.1-.9-2.7-4.5-.5-3.5-1-4.5-2.5-4.5-1.1 0-1.9.7-1.9 1.5 0 2.6-1.4 1.7-4.1-2.8-3.9-6.2-4.7-15.2-1.8-20.9l2.2-4.2-3.4-6.3c-3.6-6.6-3.4-6.5-13.1-7.8-2.8-.4-6.2-1.8-8.8-3.6-5.2-3.8-15.5-5.9-20-4.2zM775 466c0 .5.7 1 1.5 1s1.5-.5 1.5-1c0-.6-.7-1-1.5-1s-1.5.4-1.5 1z"/><path d="M715.2 471.2c-.8.8-.9 1.5-.1 2.5 1.6 1.9 2.9 1.6 2.9-.6 0-2.5-1.3-3.4-2.8-1.9zM898 472c0 .5 1.7 1.8 3.8 2.9 2 1.1 5 3.6 6.5 5.5 2.2 2.8 3.5 3.6 6 3.6 3 0 5.7-1.4 5.7-3.1 0-.3-1.3-.9-3-1.2-1.9-.4-3.4-1.7-4.4-3.5-1.1-2.2-2.7-3.2-6-4.1-5.5-1.4-8.6-1.4-8.6-.1zM79 478.9c-1.6 3.1-1.2 5.4 1.9 10.3 3.3 5.2 6.6 7.8 9.8 7.8 4.5 0 4.4-3-.4-11.8-4-7.3-4.8-8.2-7.3-8.2-1.9 0-3.3.7-4 1.9zM885.3 478.6c-.7 1.9 2 4.4 4.9 4.4 2.3 0 2.3-1.3.1-3.2-3.2-2.7-4.3-3-5-1.2zM621.5 482.9c-2.5.5-3.1 1.2-3.3 3.9-.4 3.9 2 5.3 4.8 2.7 1.9-1.7 2-1.7 3.9.6l1.9 2.4 2.6-2.4c2.7-2.6 3.4-5.5 1.5-6.7-.6-.3-1.6-.1-2.2.5-1.6 1.6-3.7 1.4-3.7-.4 0-1.6-.7-1.7-5.5-.6zM722.5 483c-.7 1.1 1.8 2.4 3.5 1.8.6-.2.1-.9-.9-1.5-1.3-.8-2.2-.9-2.6-.3zM773.5 483c.3.5 1.3 1 2.1 1s1.4-.5 1.4-1c0-.6-.9-1-2.1-1-1.1 0-1.7.4-1.4 1zM721.6 488.4c-3.1 3-3.2 4-.5 6.7 1.5 1.5 2.6 1.8 4.2 1.2 1.2-.4 4.6-.8 7.5-.8 6.5 0 6.7-1.4.9-5.4-6.5-4.4-9.1-4.8-12.1-1.7zM237 490.8c0 .5-1.1.7-2.5.4-2.9-.5-5.5 1.3-5.5 3.7 0 .9-1.4 2.8-3.2 4.3-1.8 1.4-2.9 3-2.5 3.4.4.5 3.6 1 7.1 1.2 6.1.4 6.4.5 8.9 4.5 1.5 2.3 2.7 5.5 2.7 7.3 0 3.9 2.1 6.4 8.1 9.8l4.7 2.6 2.2-5.7c1.3-3.2 2.8-6.4 3.3-7.1 1.2-1.5 1.2-1.6-4-3-6.7-2-8.3-3.9-10.6-13.2-2.2-8.3-2.3-8.5-5.4-8.8-1.8-.2-3.3.1-3.3.6zM899.5 492.9c.6.6 3.4 1.5 6.3 2.1 2.9.5 6.5 1.9 8.2 3.1 2.1 1.6 3.3 1.9 4.2 1.2.7-.6 3.5-1 6.1-1 5.4 0 8-1.5 5.1-3.1-1.1-.5-6.2-1.3-11.4-1.6-5.2-.4-11.7-.9-14.5-1.2-3.6-.4-4.7-.3-4 .5zM652.6 494.6c-1.9 1.8-1.9 1.6-.6 4.8 1.1 3 3.7 3.3 8.1 1 2.3-1.1 3.4-1.2 4.4-.4 1 .8 2.4.8 5.5 0s4.9-.8 6.9 0c1.9.8 3.5.8 5.5 0 4.2-1.5 4.5-1.3 3.9 2.6-.5 2.9-.3 3.6.8 3.2.8-.2 1.5-1.6 1.7-2.9.2-1.9 1.3-2.9 4-3.9l3.7-1.4-3-.7c-1.6-.4-6.1-.7-10-.8-3.8 0-10.5-.8-14.8-1.6-10-1.9-14.2-1.9-16.1.1zM777.8 495.6c-2.6.8-5 1.9-5.3 2.4-.7 1.2 6.7 5 9.7 5 2.9 0 5.2-1.5 4.4-2.8-.3-.6-.1-1.2.5-1.4.7-.2.9-1.3.5-2.6-.9-2.6-3-2.7-9.8-.6zM108 512.9c0 2.7 2.4 7.1 3.8 6.9 1-.2 1.8.8 2.3 2.7.5 1.7 2.2 4.4 3.9 6l3 2.9v-3.7c0-3-.9-4.6-5.6-9.6-5.3-5.7-7.4-7.2-7.4-5.2zM279.6 514.5c-1.5 3.9-1.7 11.1-.4 12.8 1.2 1.6 1.8 1.7 4.1.6 2.1-.9 3-.9 4.1 0 1.2 1 2 .5 4.5-3 1.7-2.3 3.1-4.6 3.1-5 0-.5-1.9-2.2-4.2-3.9-4.5-3.3-10.2-4.1-11.2-1.5zM762.2 520c-2.5 1.6-3.2 1.7-4.2.5-.8-1-3.3-1.2-10.5-.8-9.2.6-9.6.7-13.3 4.2-3.7 3.5-3.8 3.8-2.7 7.1l1.2 3.5 1.9-3.7 1.9-3.7 4 3.5c2.5 2.2 3.5 3.7 2.8 4-.7.3-1.3 1.2-1.3 2 0 1.5 3.3 1.8 6.5.4 1.9-.7 1.9-.8.2-1.5s-1.7-.9.4-3.1c2.2-2.4 4.9-3.1 6.3-1.7.4.5 2.6 1.3 4.9 1.9 3.3.8 5 .8 7.8-.3 3.6-1.4 3.8-1.3 15.9 4.7 6.7 3.4 12.3 6 12.5 5.8.1-.2.6-1.7.9-3.5.6-2.7.3-3.7-2.3-6.4-1.7-1.8-3.1-3.7-3.1-4.4 0-2.4-4.6-5.5-8.2-5.5-2 0-4.7-.4-6.1-.9-1.3-.5-4.6-1.6-7.4-2.4-4.7-1.4-5.3-1.4-8.1.3zM731.5 522c-.3.5.1 1 .9 1 .9 0 1.6-.5 1.6-1 0-.6-.4-1-.9-1-.6 0-1.3.4-1.6 1zM697.3 525c-5.2 1.1-8.3 2.7-8.3 4.4 0 2.1 5.2 8.3 9.5 11 4.9 3.2 7.3 3.3 13.5.1 4.6-2.3 5-2.8 5-6 0-2.9-.4-3.5-2.1-3.5-1.1 0-1.8-.4-1.5-.9.4-.5-.8-2.1-2.5-3.5-3.2-2.7-6-3.1-13.6-1.6zM726.5 528c-.3.5.1 1 .9 1 .9 0 1.6-.5 1.6-1 0-.6-.4-1-.9-1-.6 0-1.3.4-1.6 1zM721.5 530c-.3.5.3 1 1.5 1s1.8-.5 1.5-1c-.3-.6-1-1-1.5-1s-1.2.4-1.5 1z"/><path d="M738.5 535c-.4.6-.3 1.6.3 2.2.6.6 1.2.6 1.7-.2.4-.6.3-1.6-.3-2.2-.6-.6-1.2-.6-1.7.2zM714.5 543c.3.5.8 1 1.1 1 .2 0 .4-.5.4-1 0-.6-.5-1-1.1-1-.5 0-.7.4-.4 1zM621.4 546.5c-.8 2 1.3 4.5 3.7 4.5 1.9 0 3.5-3.3 2.4-5-1-1.6-5.5-1.2-6.1.5zM855 551c.8.5 2 1 2.5 1 .6 0 .3-.5-.5-1s-1.9-1-2.5-1c-.5 0-.3.5.5 1zM620.2 556.2c-.5.7-1.3 2.9-1.7 4.8-.7 3.2-.8 3.3-1.6 1.2-1-2.6-1.8-2.7-6.3-.8-3 1.2-3.4 1.9-3.9 6.2-.3 2.7-.7 5.8-.9 6.9-.3 1.7.3 2 3.2 2 3.2 0 3.5.3 3.5 2.8.1 4.8 4.9 6.4 6.5 2.2.5-1.4 2.6-3.5 4.5-4.7l3.6-2.1-2.7-2.8c-2.4-2.5-2.6-3.3-1.8-5.7.7-1.9 1.6-2.6 3.1-2.5 2 .2 2.1 0 1.1-3-1.3-3.9-2.7-5.7-4.3-5.7-.7 0-1.7.6-2.3 1.2zM596.1 570.3c-1.6 1.6-1.3 4.2.7 6 2.5 2.3 3.9 2.1 4.5-.5 1.1-3.9-2.7-8-5.2-5.5zM634.1 574.4c-.9 1-.9 1.6-.1 2.1 1.6 1 3.1-.7 2.1-2.3-.6-1-1-1-2 .2zM157.4 576.6c.3.9.6 1.8.6 2 0 .9 4.9.3 5.6-.7.8-1.4-1.4-2.9-4.5-2.9-1.7 0-2.2.4-1.7 1.6zM845.8 578.5c-2.8 4.2-4.6 10.5-3.1 10.5 1.3 0 6.6-11.5 6.1-13.1-.3-.9-1.4.1-3 2.6zM875.2 581c-1.8 2.2-2.8 4.1-2.2 4.5 1.1.7 1.4 4.8.3 5.8-.3.4-1.2.2-1.9-.4-1.8-1.5-2.1-.5-2.9 9.8-.5 7.2-.4 8.2 1.2 9.1 2.5 1.5 6.8-1.3 9-5.8 1-1.9 1.8-4 1.8-4.5 0-.6 1.1-1.9 2.4-3.1 2.1-1.8 2.2-2.3 1-4.1-1-1.6-1-2.5-.1-3.5 1.6-2-1.5-11.8-3.7-11.8-.9 0-3.1 1.8-4.9 4zM837 585.5c0 2.4.5 3.5 1.5 3.5 1.5 0 2-2.6.9-5.4-1.1-2.8-2.4-1.7-2.4 1.9zM564.6 586.5c-.9 2.5.4 12.6 1.5 11.9 1.1-.6 1.1-9.1 0-11.8-.7-1.9-.8-1.9-1.5-.1zM238.7 598.1c-5.2 11.4-5.1 13.2.8 11 3.1-1.1 3.8-1 6.4.8 1.6 1.2 4.1 2.1 5.5 2.1 1.9 0 2.6.5 2.6 1.9 0 1.1-.4 2.3-1 2.6-.5.3-1 1.4-1 2.4 0 1.5 1.2 1.9 7.8 2.5 9.5.8 16.3 2.5 27 6.7l8.4 3.3 4.6-1.8c4.8-1.9 16.6-2.3 18.7-.7.5.5 3.5 1.1 6.7 1.5 3.1.3 8.7 2 12.5 3.7 7 3.2 16.9 6.9 18.5 6.9.5 0 .6-.5.3-1-.8-1.3-1.1-1.3 6 .9 4.3 1.4 6.7 1.6 8.5.9 1.7-.6 5.5-.4 12.2.8 8.4 1.5 10.6 1.5 15.2.4 5-1.2 5.8-1.1 14.5 1.9 5.1 1.7 10.6 3.1 12.2 3.1 1.6 0 2.9.4 2.9 1 0 1.4 3.9 3.2 5.7 2.6 1.2-.5.9-1.3-1.6-4.1-3.4-3.9-3.9-6.6-1.6-8.5 1.2-1 1.5-1 1.5.4 0 2 3.6 4.3 8.2 5.1 4.7.9 7.2 3.6 6.4 7-.8 3.2.7 3.3 2.2.1.6-1.3 3-3.4 5.4-4.7 4.9-2.8 5.8-4.9 2.9-7.8-2.7-2.7-8.4-3.6-13.2-2.1-5.6 1.9-11.4.1-12.2-3.8-.4-2.1-1.8-3.4-5.3-5.2-4.5-2.2-5.2-2.2-10.3-1.1-11.2 2.5-12.2 2.4-19.1-1.2-3.5-1.9-6.5-3.8-6.7-4.3-.2-.6.6-2 1.7-3.2 1.8-1.9 2.7-2.1 6.8-1.4 8.5 1.3 13.4.8 19.6-2.1 8.6-4 6.6-5.1-9.5-5.3-10.3-.1-13.2.1-13.6 1.2-.7 1.8-2.7 1.8-4.2 0-.7-.8-3.8-1.7-6.9-2-11.7-1.1-15.4-1.8-15.9-3.2-.6-1.7-2.7-1.8-5.2-.2-1.7 1-2.5.7-6-2.5-2.3-2-4.5-3.7-5-3.7-.4 0-2.5 2.5-4.5 5.5-2.1 3.3-4.6 5.7-6 6.1-1.3.3-6.1-.2-10.6-1.1-4.8-1-9.7-1.4-12-1-2.3.4-4.7.2-6-.5-1.4-.7-2.5-.8-3.3-.2-.8.6-2.4.6-4.7-.2-2.7-.8-3.6-1.7-3.8-3.8-.2-1.6-1.8-4-3.8-5.7-2.9-2.6-3.7-2.9-5.4-1.9-1.5 1-2.6.9-5.5-.5-2-.9-4.4-1.7-5.3-1.7-1 0-2.6-.6-3.7-1.4-2.9-2-12.2-2.6-13.6-1-1.5 1.8-3.3 1.8-4.8 0-.6-.7-3.5-1.6-6.4-1.9-2.8-.4-6.1-.9-7.2-1.2-1.8-.6-2.7.7-6.8 9.6zM883.1 603.1c-1.3 1.7-2 3.3-1.6 3.7.8.8 4.4-3.7 4.5-5.6 0-1.6-.1-1.5-2.9 1.9zM450 610c.8.5 2.6.9 4 .9 2.3 0 2.3-.1.5-.9-1.1-.5-2.9-.9-4-.9-1.7-.1-1.7.1-.5.9zM569 613.9c0 1.4 1.8 2.3 3.1 1.5.8-.4.7-.9-.2-1.5-1.8-1.1-2.9-1.1-2.9 0z"/><path d="M428 615.5c.7.8 1.6 1.5 2.1 1.5s.9-.7.9-1.5c0-.9-.9-1.5-2.1-1.5-1.8 0-1.9.2-.9 1.5zM745.4 615.1c-.3.6 0 1.5.7 2 2.2 1.4 2.9 1.1 2.9-1.1 0-2.1-2.4-2.7-3.6-.9zM811.8 615.9c-1.4 1.1-4 4.3-5.9 7-1.9 2.8-4 4.9-4.6 4.6-.7-.2-1.3 0-1.3.5 0 .6.7 1 1.5 1 1 0 1.5 1 1.5 2.9 0 2.1.6 3 2.2 3.4 1.2.4 2.3.5 2.4.4 5.4-7.6 7.4-11.4 7.4-14.1 0-1.8.5-3.7 1-4.2.8-.8.7-1.4-.3-2.2-1.1-1-2-.8-3.9.7zM818.5 615c-.3.5.3 1.4 1.4 1.9 2.6 1.5 3.1 1.4 2.5-.3-.7-1.8-3.2-2.8-3.9-1.6zM576 617c0 .5 1.2 1 2.6 1 1.4 0 2.3-.4 1.9-1-.3-.6-1.5-1-2.6-1-1 0-1.9.4-1.9 1zM801 622.6c0 1.7 2.2 1.4 2.8-.4.2-.7-.3-1.2-1.2-1.2-.9 0-1.6.7-1.6 1.6zM719 625.5c0 1.7.2 1.8 2.4.9 1.8-.7 1.2-2.4-1-2.4-.8 0-1.4.7-1.4 1.5zM697 626.6c-1.9.8-4.7 1.3-6.2 1-2.2-.4-3.1 0-4.8 2.3-3 4.4-2.6 5.1 3.2 5.1 3.7 0 7.1-.9 12.1-3.2l6.9-3.2-2.2-1.8c-2.7-2.2-4.4-2.2-9-.2zM768.6 630.8c-.3.5.6 2 2 3.3 2.5 2.4 2.6 2.4 4 .4.8-1 1.3-2.4 1.1-3-.4-1.3-6.3-1.9-7.1-.7zM504 636.9c-5.3 1.1-6.2 1.8-4.9 4.3.9 1.6.8 2.3-.2 2.9-2 1.2-3 1.1-5-.7-1.6-1.5-2.1-1.4-5.8.7-2.3 1.2-4.3 3-4.5 3.8-1.7 6.4-1.6 7.2.8 9.6 2.9 2.9 4.3 3.1 7.2 1.1 1.1-.8 4-1.4 6.5-1.5 4.7 0 17.4-3.5 18.4-5.1.9-1.5 2.5-1.2 2.5.5 0 2.7 10.3 2 15.1-1 2.2-1.4 3.7-3 3.3-3.6-.4-.8-.9-.7-1.5.2-1.1 1.9-2.7.1-3.1-3.6-.3-2.7-.7-3-3.8-3.1-1.9 0-4.3-.4-5.3-.9-1.1-.4-2.8-.2-4.4.6-2.3 1.3-2.7 1.1-5.1-1.9-2.8-3.3-3.8-3.5-10.2-2.3zM729 636.8c0 1.7 3.9 4.4 5.5 3.9.8-.4 1.5-1.6 1.5-2.7 0-1.6-.6-2-3.5-2-1.9 0-3.5.4-3.5.8zM533.1 638.4c-.9 1-.9 1.6-.1 2.1 1.7 1 3.7-1.2 2.4-2.5-.8-.8-1.5-.6-2.3.4zM617.5 638c-.3.5-.1 1 .4 1 1.9 0 1.2 1.7-1.3 2.8-1.3.6-4 2.5-6 4.2l-3.6 3.2-4.5-1.7c-3.4-1.3-5.9-1.6-10.2-1.1-5.2.6-6.4.3-14.8-3.4l-9.2-4-5.7 1.5c-7.3 1.9-9.2 2.9-11.2 6.1-1.3 1.9-1.4 3-.6 4.8 1 2.2 1.3 2.3 11.4 1.8 8.3-.4 11.1-.1 13.6 1.2 2.9 1.5 3.4 1.5 7.2 0 2.9-1.2 5.5-1.5 9.1-1 3.1.4 5.6.3 6.3-.3.7-.6 5.7-2 11-3 5.4-1.1 11.5-2.9 13.6-4 3.8-2 3.8-2 5.2 0 1 1.6 2 1.8 4.6 1.3 1.7-.4 3.2-1.2 3.2-1.9s.9-1.5 1.9-1.8c1-.2 2.4-1.4 3-2.5 1.1-2 .9-2-7.2-1.8-4.6.2-8.9.6-9.5 1-.6.3-1.6-.3-2.2-1.4-1.1-2.1-3.5-2.7-4.5-1zM653.6 641.4l-1.5 3.8 4.7-.7c9.6-1.4 13.2-2.6 13.2-4.6 0-2-1-2.2-10.7-2.3-4-.1-4.3.1-5.7 3.8zM797 640c-2.7 3.8-1.4 3.8 3 0 3.2-2.6 3.3-2.9 1.3-3-1.3 0-3 1.2-4.3 3zM646.8 640.7c-4.3 2.9-4.6 3.8-1.8 5.3 2.5 1.3 3.6.7 5.6-3.2 2.2-4.2.6-5.1-3.8-2.1zM753.4 639.5c1 .8 2.4 1.1 2.9.8.6-.4.2-1-.9-1.4-3.1-1.2-4-.9-2 .6zM469.5 641.1c-2.3 1.8-2.6 2.7-2 5.5.4 2.6.2 3.5-1.3 4.3-1.1.6-2.3.7-2.7.3-.5-.4-.5-.2-.1.5.3.6 2.6 1.9 5.1 2.8 5 2 9.5 1.4 9.5-1.2 0-.9 1.1-3.5 2.4-5.8 2.7-4.6 2.4-5.9-1.7-7.4-4.1-1.6-6.1-1.4-9.2 1zM541 647.4c0 1.4.5 2.8 1 3.1.6.3 1 0 1-.8s.7-1.8 1.6-2.1c2-.8.9-2.6-1.7-2.6-1.4 0-1.9.7-1.9 2.4zM454.7 649.7c-1.3 1.2-.7 2.3 1.3 2.3 1.3 0 1.8-.5 1.4-1.5-.7-1.6-1.7-1.9-2.7-.8zM546.6 650.5c-.3.9 0 1.5.9 1.5 1.6 0 2-1.6.6-2.4-.5-.3-1.1.1-1.5.9zM664.6 655.4c-1.5 1.3-7.1 3.8-12.3 5.6-10 3.4-16.3 8.1-16.3 12 0 1.1-1.6 3.7-3.5 5.9-1.9 2.1-3.5 4.9-3.5 6.1 0 2.2.1 2.2 1.8.7 2.2-2 6.4-2.2 9.1-.5 1.5.9 2.9.9 6.3-.1 6.3-1.8 11.4-5.4 19.1-13.3 6-6.3 6.7-7.4 6.2-9.9-.5-2.1-.2-3.1.9-3.5 2.1-.8 2-3-.1-3.7-1-.2-2.5-.7-3.3-1.1-.8-.3-2.8.5-4.4 1.8zM535 665.9c-1.9 1-3.6 2.3-3.8 2.9-.4 1.4 4.1 3.5 13.5 6.2 5.4 1.5 8.2 3 11.2 5.9 2.3 2.2 5.4 4.2 7 4.6 3.5.7 8.5-1.5 10.2-4.6 1.4-2.7-.7-5-10.5-11.7-7-4.8-7.2-4.8-15.7-5-6.5-.1-9.3.3-11.9 1.7zM595 689.5c-1.2 1.4-1.1 1.8 0 2.5 1.7 1.1 5.3-.7 4.7-2.3-.6-1.9-3.2-2-4.7-.2zM624.5 692.2c-9.6 6.2-8.3 9.2 1.8 4.2 2.9-1.5 5.3-2.7 5.4-2.8.1-.1-.1-1.3-.5-2.7l-.7-2.6-6 3.9z"/></svg>
