<svg version="1.0" xmlns="http://www.w3.org/2000/svg" width="1365.333" height="1365.333" viewBox="0 0 1024 1024"><path d="M21.4 73.8c-2.3 3.7-4.5 7.6-4.8 8.8-.4 1.3-3.7 3.7-8.6 6.4-5.9 3.2-8 4.8-8 6.3 0 1.1 1.3 6.3 2.9 11.6l3 9.6L6 146c.2 27.7.1 29.8-1.9 34.7l-2 5.1 5.6 4.3c6 4.6 15.7 16.1 17.3 20.5.6 1.4 1.3 11.7 1.7 22.7l.6 20.2 4 7.3c3 5.5 5.6 8.7 10.2 12.5l6.3 5.2L49 286c.7 4.1 2.4 10.3 3.7 13.7 2 5.1 3.2 6.6 6.6 8.6 7.6 4.4 15.7 6.7 26.6 7.5l10.4.7-5.3 6.9-5.3 6.9.6 11.7.5 11.8-4.5 4.3c-7.2 7.1-15.1 19-16.9 25.8-1.6 5.7-2 6.2-5.4 7.1-2.1.6-4.2 1.6-4.8 2.3-1.3 1.6-3.2 13.1-3.2 19.1 0 3.8-.6 5.6-3 8.6-5.3 6.7-6.4 13.4-3.4 20.8 1.2 3.2 2.3 4.1 5.3 5.1 2.2.6 4.6.9 5.4.5 1.2-.4 2.4 1 4.5 5.3 1.7 3.2 4.8 8.9 7.1 12.8 3.5 5.9 4.1 7.8 4.1 12.5 0 5 .3 5.9 3.2 8.7 1.8 1.7 6.6 5.2 10.6 7.6 4 2.5 8.5 6.1 10.1 8.1 1.6 2 6.4 6.2 10.5 9.2 6.3 4.6 9.3 6 17 8.1 8.8 2.4 9.6 2.8 12.3 6.7 1.6 2.2 4.2 7.2 5.8 11.1 1.6 3.8 4 8.6 5.5 10.5 4.9 6.5 8.6 13.5 10.3 19.3 1.5 5.5 1.5 6.4-.4 16-1 5.6-2.2 16-2.5 23.2l-.5 13 6.3 3.1 6.3 3.1 1.5 8.9c1.6 9.6 4.9 16.1 11.8 23.9 4.3 4.8 24 20.5 25.7 20.5.7 0 2-1.8 2.9-4 1.2-3.1 2.3-4.2 4.4-4.6 2.5-.5 3-1.2 4-6.4.9-4.1.9-6.6.2-8.6-2.2-5.6 5.1-6.2 11.7-.8 3.7 3.1 4.6 4.6 6.5 11.1 1.7 5.8 2.8 7.8 4.8 8.8 1.4.7 3.6 2.5 4.9 3.9 1.4 1.4 2.9 2.6 3.5 2.6.6 0 2.9 1.4 5 3l4 3 3-2.9c5.2-4.8 10.9-8.1 14.2-8.1 3.9 0 9 6 10.8 12.8 1.4 5.3 12 20.6 16.4 23.6 4.1 2.7 6.7 7.3 9.7 16.7l2.6 8.4 9.8 8.5c9.7 8.4 9.8 8.6 10.9 14.5.7 3.3 3.7 12.1 6.8 19.5 3.1 7.4 6.9 16.8 8.6 20.8 2.7 6.5 3.9 8 12.1 15.2l9.2 8h9.2c9.3 0 9.4 0 20.1 5.4 5.9 3 13.7 7.6 17.4 10.3 5.8 4.2 7.2 6 10.8 13l4.2 8.1 6.1 1.7c17.5 4.7 29 9.1 32.6 12.3 2.3 2.1 3.2 3.5 2.4 3.8-.8.4.5 2.6 3.8 6.3l5 5.8 9.2-1.5c12.6-1.9 23.8-1 28.7 2.2 5.6 3.7 17.6 6.9 23 6.3 7.1-.8 15.9-5.2 19.8-9.7 3.1-3.7 3.7-4 8.5-4 9.6 0 16.5-3.6 20-10.6 1.4-2.7 3.2-3.6 16.4-8.4 8.1-2.9 17.2-6.4 20.2-7.7 8.7-3.8 13-3.2 25.2 3.2l10.5 5.4 6.1 10.3c4.2 7.2 6.3 11.8 6.8 15.3 1.1 8.1 6 19.1 14.8 33.5l8.3 13.5 13.4.5c8.7.4 14.6 1.1 16.5 2 2.3 1.1 7.9 1.5 23.5 1.6 23.8.1 31.7 1.4 38.8 6.4 4.1 2.9 4.6 3 5.5 1.5 3-5.4 7.3-6.8 12.5-4.1 6 3 23.5 4.9 41.7 4.4 17-.5 17.4-.5 20.5-3.1 1.7-1.5 3.6-2.7 4.1-2.7.5 0 2.6 1.6 4.7 3.5 3.3 2.9 4.8 3.5 10.8 4.1 3.8.4 9.9 1.7 13.6 3 3.7 1.2 7.5 2 8.5 1.8 1-.2 6.1-.9 11.3-1.4 5.2-.5 11.1-1.2 13-1.6l3.5-.6.2-10.6c.3-12.1 2.6-29.2 4.9-36.7.9-2.8 3.9-9.7 6.7-15.5 6.2-12.8 15.4-23.4 21.5-24.5 3.8-.7 10.7-4.3 19.2-10 3.4-2.3 6.7-3.6 10.5-4 5.2-.7 5.9-1.1 11.1-6.9 8.1-8.8 9-12.6 5.7-22-2.4-6.6-5.7-8.6-14.3-8.6-10.9 0-10.7.1-11.4-9.8-.9-13.4-8.8-42.3-12.3-45.4-3.9-3.3-10.3-5.7-20.8-7.6-9.2-1.7-13-3.1-23-8.1-16-8-22.5-13.8-29.7-26.8-3-5.4-6.4-12-7.4-14.6-2.1-5.4-6.7-9.7-17.9-16.9-3.9-2.5-8.2-6.2-9.8-8.5l-2.8-4 1.9-4.9c8.5-21.6 11.6-28.1 15-31.8 10.2-11.2 12.9-15.7 15-25.6 3.1-14.1 3.6-21 2.3-28.2-1.8-9.5-5.5-15.4-12.1-19.3-5.4-3.3-5.6-3.3-12.2-2.3-6 1-7.1.9-12.3-1.2-7.8-3.2-16.8-10-18.5-14-1.4-3.3-1.5-5.6-1-23.6.2-9.3 0-10.6-2.8-17-7.1-16.3-11.2-27.7-11.2-31.4 0-4.7 2.1-15.1 5-24.4 2.3-7.4 2.1-15.4-.5-18-.7-.7-3.7-1.6-6.6-1.9-2.9-.4-5.6-1-5.9-1.4-.4-.5-1-6.7-1.4-13.8l-.6-13 9-4.8 9-4.8v-8.2c0-7.7.3-8.9 5.2-20.2l5.3-12-.3-17c-.1-9.4.3-22.4.9-29 .9-11.1.9-12.3-1-16.5-2.2-5.2-3.6-12-5.3-27.5l-1.3-11-4.5-1.2c-2.5-.6-9.1-1.2-14.7-1.2L819 248l-9.7-5.2c-5.4-2.8-12-6.8-14.8-8.8-6.9-5.1-12.3-7.9-24.4-13-5.7-2.4-10.4-4.9-10.6-5.5-1.8-6.8-4.6-11.8-9.2-16.6-5.3-5.6-5.4-5.6-13.6-6.8-10.2-1.4-15.6-1.4-21.1 0-3.9 1-5.3.7-14.7-2.5-5.7-1.9-18.5-5.8-28.3-8.6l-18-5.2-10-9.4-10.1-9.5-13.5.5c-17.8.7-18.7 1-19.9 5.4-.6 1.9-2.3 4.8-3.7 6.4-2.5 2.5-3.4 2.8-9.3 2.7-3.6 0-8.2-.6-10.1-1.3-2.7-1-4.9-1-11 0-13.3 2.3-14.3 2.8-22.2 11.5-9.2 10.1-29.2 26.3-36.6 29.6-3.1 1.4-9.9 3.6-15.1 4.9-5.2 1.2-9.9 2.8-10.5 3.4-1.6 1.6-.7 7.8 1.9 13 1.4 2.7 3 8.1 3.6 12 1.3 7.9.9 9-4.2 9-1.4 0-5 .7-7.9 1.6-4.1 1.2-7.4 1.4-13.7.9-4.6-.4-8.3-1-8.3-1.4 0-.4 3.1-1.3 7-2 7.1-1.3 8.1-2 5.6-4-1-.9-3-.6-8.2 1.3-15.3 5.4-30.3 9.5-36.8 10.2-5.4.5-10 2-20.2 6.5-12.8 5.8-13.4 5.9-22 5.9-15.1 0-25.5-2.4-36.4-8.2-11-5.9-29-16.8-33.8-20.4-2.1-1.6-4.5-5.3-6.8-10.3-3.3-7.2-3.9-7.9-7.6-9-2.6-.8-6.9-1-12.7-.6-8.3.7-9 .6-14.7-2.3-3.2-1.6-8.2-3.3-11-3.7-4.4-.6-5.8-1.3-10.2-5.8-4.7-4.7-5.5-6.3-9.3-17.7-3.6-10.8-4.3-14.2-4.9-25-.4-6.9-1.1-13.2-1.4-14-.5-1.1-2.3-1.5-7.5-1.5-6.2 0-7.1-.3-8.9-2.5-1.1-1.4-4.7-3.8-8-5.4-3.3-1.6-6.5-3.9-7.2-5.1-.7-1.2-3.4-3.3-6.1-4.5-2.7-1.3-4.9-2.9-4.9-3.5 0-1.6 3.5-4.6 10.2-8.9l5.8-3.6-3.1-8.3c-2.5-6.9-2.9-9.1-2.4-13.8l.6-5.6-7.1-4.6c-6.3-4.2-7.5-4.7-12.7-4.7-8.8 0-20.3 4.3-29.3 10.8-6.2 4.5-8.8 7.3-14.5 15.9-11 16.3-10 15.4-19.3 16.8-12.4 1.8-30 .3-43.2-3.6l-10.6-3.1-7.9-13.1C45.7 93.4 27.4 67 26.2 67c-.4.1-2.6 3.1-4.8 6.8z"/></svg>
