<svg version="1.0" xmlns="http://www.w3.org/2000/svg" width="1365.333" height="1365.333" viewBox="0 0 1024 1024"><path d="M482.6 4.5C477.7 7 472.5 9 471 9s-5.9-1.2-9.6-2.7c-5.6-2.1-8.7-2.7-15.9-2.7-12.6-.1-15.2.6-22.1 6.5-7.5 6.5-10.8 7.9-18.8 7.9-5.4 0-7.5-.6-13.3-3.5-9.3-4.9-10.9-4.4-11.6 3.6-.3 4-1.3 7.2-2.6 9-2.8 3.8-2.6 5.4.9 7.9 4.3 3 4 5.6-.7 6.4-6.6 1-8.9.7-11.7-1.9-3.8-3.5-6.6-3.2-10.8 1.2-4.9 5.3-5.1 6.5-1.8 11 3 3.8 3.7 6.7 2.1 7.7-1.9 1.2-1.8 4.7.1 7.1 2.3 3 1.7 6.2-1.7 7.7-2.1 1-3 .5-7.7-3.7-2.9-2.6-5.9-6-6.7-7.6-2-4.3-4.8-4.5-13.4-.9-4.2 1.7-8.8 3-10.3 2.8-4.1-.5-6.3-4.3-7.1-12.1-.7-7.6-3-11.7-6.6-11.7-2 0-2.4.8-3.5 7.6-1.6 10.4-4.8 16.9-11.2 22.9-11.7 10.9-10.7 9.2-11.5 19.1-.4 4.9-1.2 9.5-1.7 10.1-3 3.7-8.6-.3-14.4-10.3-2.5-4.2-2.6-4.9-1.5-8 .7-1.9 1-3.8.6-4.3-.3-.5-2.9-1.7-5.8-2.5-6.5-1.9-9.7-4.1-9.7-6.7 0-2.7-2.3-7-5-9.2-2.3-1.9-2.4-4.9-.3-14.1l.6-2.9-4.4.7c-3.2.5-5.5 1.8-8.4 4.5-2.2 2.1-6.1 5.1-8.8 6.6l-4.7 2.7 2.1 3.4c3 4.9 2 7.3-5.8 14-3.8 3.2-8.7 7.6-11.1 9.8l-4.2 4-7.3-3.6-7.3-3.7-5 1.5c-2.7.8-10.2 2-16.6 2.6-10.6 1.1-12.1 1-15.4-.6-3.7-1.7-3.7-1.7-11.5 1.5-7.5 3-7.9 3.3-7.9 6.3 0 2.4.9 4.1 3.6 6.7 4.9 4.7 6.4 7.9 6.4 14.1 0 5 .2 5.4 3.7 7.8 5.9 4 10.3 8.1 10.3 9.7 0 .8-1.1 2.9-2.5 4.7-1.7 2.3-2.5 4.6-2.5 7.4 0 4-.1 4.1-2.7 3.6-1.8-.3-5.7.5-10.3 2.2-4.1 1.5-10.8 3-14.9 3.4-4.4.5-7.7 1.3-8.2 2.1-1.2 1.8-.6 6 2 13.4 2.3 6.4 3.6 7.8 11.9 12.6 5.7 3.4 8.2 7 8.2 12.1 0 2.7-.9 4.3-4.5 7.8-2.5 2.5-5.7 6.1-7 8.1-2.2 3.1-2.4 3.9-1.4 6.8.9 2.7.8 4-1.1 8.3-2.1 5-2.1 5.2-.4 9.7 2.3 6 10.5 14 18.5 18 5.8 2.9 6.9 3.1 17 3.1 16.8 0 19.9 2.2 15.4 10.9-1.4 2.8-2.5 6.2-2.5 7.6 0 1.9-.9 3.1-3.1 4.3-6 3.3-7.9 5.3-7.9 8.2 0 7.1 3 7.6 19.2 3 17.5-4.9 18.3-5.3 23.9-13.6 7.2-10.7 10.3-13.9 15.3-15.8 3.9-1.5 4.7-2.3 6.9-7.6 2.1-4.7 3.4-6.3 6.4-7.8 15.2-7.8 33-6.8 42.2 2.4 2.6 2.6 4.1 4.9 3.8 5.8-.3.8.1 2 .9 2.6 1.1 1 1.8.8 3.3-1.1l2-2.4 4.3 4c2.3 2.2 4.5 4.3 4.8 4.6.3.3 2 1.4 3.9 2.4 1.9.9 7.7 5.1 13 9.3 5.3 4.1 10.2 8 10.9 8.5.9.7 1.7.4 2.7-.9 1.3-1.9 1.4-1.8 3.7.3 1.4 1.3 3.3 2.3 4.4 2.3 2.3 0 9.4 6.9 9.4 9.1 0 .8 1.1 3 2.4 4.8 2.9 3.9 3.4 6.5 5 25.6 1.2 14.6 1.4 15.4 5.9 25.5 2.6 5.8 5.6 12.2 6.7 14.2 2.5 4.6 2.5 7.2 0 20s-2.5 12.4.5 10.4c3.3-2.2 5.1-2 10.2.9 3.2 1.9 4.3 3.2 4.3 5 0 1.3-.4 2.7-1 3-.5.3-1 2.4-1 4.5s-.5 4.2-1.1 4.5c-1.6 1.1 2 4.5 4.8 4.5 6.4 0 17.2 8.4 19.5 15.2.6 1.8 2.2 4.6 3.5 6.2 1.6 1.9 2.2 3.5 1.7 5-.9 3.1-3.4 5.6-5.6 5.6-2.3 0-2.3 1.2.2 4.1l2 2.4 1.9-2.4c1.5-2 2.5-2.3 5.2-1.8 15.2 2.5 27.8 13.8 38.3 34.4 2.1 4.3 3.1 5.3 5.2 5.3 1.7 0 3.5 1.1 5.2 3.2 1.5 1.8 5.7 6.2 9.3 9.8 8.3 8.3 8.9 9 10.9 15.3 1.4 4.5 2.3 5.6 6.3 7.7 5.7 3.2 15.2 13.8 19.3 21.6 2.7 5.3 3.4 5.9 6.5 6.2 1.9.2 4.3 1.2 5.4 2.2 1.1 1 4.4 2.8 7.2 4 3.9 1.7 6 3.4 8.3 6.8 1.6 2.5 3 5.4 3 6.4 0 2.7 3.7 2.3 7.8-.9 1.9-1.4 5.5-3 8-3.4 4.3-.9 4.7-.7 10.4 3.6 3.3 2.5 6.4 4.5 6.9 4.5.4 0 2.5-.9 4.6-2 3.1-1.5 4.6-1.7 7.7-1 2.2.5 4.3.7 4.7.4 3.2-1.9 19.9 37.6 19.9 46.9 0 4.5 1.6 4.9 2.5.7.8-3.5 1.2-3.6 3.7-1.3 1.8 1.6 2.1 1.6 4.9.1 3.7-2.2 5-1.7 9.4 3.8 2 2.4 4.7 4.7 6 5 4.6 1.2 3.9 4.7-2.5 11.2-2.3 2.4-4 4.5-3.8 4.7.2.1 4.8-1.2 10.3-3 5.5-1.8 13.4-3.6 17.5-4l7.6-.7 3.6 5.9c10.2 16.6 11.3 21.3 6.9 29.5l-3.1 5.7 3.6.7c2.2.4 4.3 1.7 5.6 3.5 1.6 2.2 2.5 2.6 3.5 1.8 1.7-1.5 10.1 5.5 12.8 10.5 1.1 2.1 2.5 3.4 3.2 3.1.7-.2 1.3 0 1.3.5s1.1 1.7 2.5 2.6c2.5 1.6 2.7 1.6 7.3-2.3 6.6-5.5 6.7-5.5 10.7-3.9 5 2.1 8.5 5.1 11.8 9.8 2.3 3.5 2.7 5.1 2.7 10.8 0 7.5 1.9 13.9 7.4 24.8 2.4 4.7 4.6 7.7 6.2 8.4 5.1 2.3 8.4 13.8 8.4 29.1v9.7l6.1 12.2c5.9 11.8 6.1 12.3 4.9 16.2-.6 2.1-2.4 5.2-3.9 6.7-2.8 2.8-2.8 2.8-7.2 1.2-5.7-2.1-8.4-1.3-13.6 3.8-3.9 3.7-5.7 7.3-3.4 6.7 1.1-.4 6.1 6.8 6.1 8.8 0 2.2-8.5 18.7-11.5 22.3-1.5 1.7-4.7 4.3-7.1 5.7-3.8 2.2-4.2 2.8-3.3 4.5.7 1.5.6 4-.7 9.5l-1.6 7.5 2.8 3.1c4.7 5 8.3 6.8 11.2 5.7 1.4-.5 5.1-.7 8.4-.3 4.9.6 6.2.4 7.9-1.2 3.7-3.3 7.9-10.2 7.9-12.9 0-1.6 1.8-5 4.7-8.8 9-11.8 12-14.4 19.4-17.2 3.8-1.5 7.6-3.6 8.4-4.8 2.3-3.3 2.1-23.9-.2-27.8-1.7-2.8-1.7-3.1.2-6.5 3.6-6.7 11.6-12.9 21-16.3 10.1-3.7 10-3.6 16.6-1.2l5 2 2-4.7 2-4.6-2.7-5.4c-2.6-5-2.7-5.7-1.5-10.1.9-3.7.9-5.4 0-7.4s-.9-4 0-8.3c1.5-7.5 1.5-7.1-1.9-8.9-1.7-.9-3.6-2.7-4.2-4-.7-1.5-4.1-4.1-8.4-6.5-3.9-2.1-8.1-5.2-9.2-6.7-1.8-2.5-2.7-2.8-9.6-3.1-7.2-.4-7.8-.6-10-3.6-6.5-8.6-6.8-12.7-1.6-20 3.8-5.3 6-12.3 6-19.1 0-3.7.5-5.7 1.7-6.6.9-.8 2.7-3.9 4-6.9 1.4-3 3.5-6.9 4.7-8.5 1.3-1.7 2.8-4.6 3.4-6.5 2.8-8.4 9.6-14.7 18.4-17.1 6.6-1.7 13.4 2.7 12.6 8.3-.2 1.7 1.2 2.9 8.2 6.6 4.7 2.5 10.4 5.5 12.7 6.7 3.8 2.1 5.2 2.2 14.7 1.8l10.6-.6 3.3 3.6c1.8 2 4.8 6.5 6.7 10.1 3.3 6.1 3.4 6.6 2.2 10-1.2 3.4-1.2 4 1.2 8 3.6 6.2 23 20.4 26.2 19.2 1.1-.4 1.4-2.6 1.4-9 0-9.8.7-12 5.1-17 3.9-4.5 3.7-6.5-2.8-19.6-4.2-8.4-6-10.8-16.3-21-6.3-6.3-12.5-12.9-13.7-14.5-1.2-1.7-2.3-2.4-2.3-1.8 0 2.5-2.8 1.3-3.8-1.6-.8-2.1-1.9-3.1-4.4-3.6-3.5-.8-9-3.3-9.8-4.5-.3-.5-4-2.6-8.3-4.8-8.9-4.7-21.8-14.2-25.6-19-1.4-1.8-5.5-5-9.1-7.2-7.5-4.5-25.9-12-29.4-12-1.4 0-4.6-1.6-7.2-3.7-2.7-2-7.7-4.5-11.4-5.6-7.5-2.2-15.1-5.9-16.9-8.1-.8-.9-2.2-1.6-3.3-1.6-1.1 0-4.5-2.4-7.6-5.3-3.1-2.9-8.1-6.8-11-8.6-5.8-3.7-7.6-6.2-6.7-9.2.4-1.1 4.9-5.1 10-9 13.7-10.3 15.1-13.3 9.1-20.4l-3.3-3.9-9.5 2.2c-9 2-9.7 2.1-15.1.5-5.2-1.4-6.5-1.4-15.8 0-9.3 1.5-10.4 1.5-13.2 0-1.7-.8-6-1.8-9.5-2.1-6-.5-6.6-.8-12.6-6.2-4.6-4.2-8-6.3-12.7-7.9-6.8-2.3-10.9-5.4-10.9-8.2 0-1.2-1.5-2.5-4.2-3.7-2.9-1.2-7.5-5.3-13.8-12.2-5.2-5.7-11.8-11.8-14.6-13.6-7-4.5-10-8.3-14.9-18.9-5.8-12.4-9.2-23.6-10-32.5-.9-10.4-2.7-16.2-9.7-31.4-5.2-11-6.2-14.2-6.6-19.9l-.4-6.7-12.7-8.4c-9.8-6.5-16.6-12.2-30.6-25.6-9.8-9.5-21.7-20.4-26.3-24.4-4.6-3.9-9.2-8.4-10.2-10.1-2.5-4-8.1-25.7-8.1-31 .1-8.6.1-12.2 0-17.4-.2-7.1 2.3-10.6 7.5-10.5 2.4.1 3.6-.3 3.6-1.2 0-3.4 2.3-6.2 4.9-6.1 2.4.2 2.6-.2 3.5-5.6.8-5.3.6-6.1-1.2-8-1.8-1.8-2.5-1.9-4.7-.9-3.9 1.8-4.5 1.5-4.5-2.2 0-6.4-1.4-16.2-1.9-13.9l-.6 2.3-3.3-2.6c-4-3.2-6.5-7.8-5.7-10.5.6-1.9 1.4-2 6.3-.2.8.4 1.2-.6 1.2-3.1 0-6.9 5.2-15.7 11.6-19.7 2.8-1.7 3.7-1.9 5-.8 1.1.9 1.8.9 2.6.1.7-.7 2.5-1.2 4.1-1.2 2.5 0 2.8.3 2.5 2.7-.2 1.9-1.1 3-2.8 3.5-1.8.6-1.5.7 1.4.3 2.1-.2 6.8-1.9 10.5-3.6 4-2 8.6-3.4 11.6-3.6 10.9-.7 11.5-.8 13-3.1 1.5-2.1 1.5-2.2-.9-2.2-3.1 0-3.2-.8-.5-5.4 1.3-2.3 2.5-3.3 3.5-2.9.8.3 2.2-.2 3.2-1 1.5-1.4 2.5-1.3 9.7.8 8.3 2.4 10 4 7.3 7.2-1.2 1.5-1.1 1.5 1 .4 1.3-.7 3.1-2.6 4-4.2 2.2-3.8 4.1-3.7 9.2.6 5.6 4.7 8 7.8 8 10.5 0 1.7.5 2.1 2.8 1.8 2.1-.2 2.8-.9 3-3 .4-3.6-.8-5.2-9-12.3-3.8-3.3-6.8-6.6-6.8-7.4 0-.9.9-3 2-4.6 2.9-4.3 2.6-7.3-.7-8.5-4.5-1.6-7.6-3.4-8-4.7-.3-.7 2.1-4 5.3-7.3 3.1-3.3 5.5-6.2 5.3-6.3-.2-.2-4.7-1.6-9.9-3.2-5.2-1.5-10.1-3.2-10.8-3.8-.9-.7-1.2-2.9-1-6.6l.3-5.6 7.9-4.2c8.8-4.7 20.8-12.4 20.3-12.9-.2-.2-8.4-1.7-18.3-3.4-10-1.7-20.5-3.7-23.5-4.6-3-.9-11.2-3.1-18.4-5-14.4-3.8-24.4-8.2-27.5-12.1-3.2-4.1-4.4-10.1-3.1-15.1 1-4 .9-4.6-1.2-7.2-1.3-1.5-2.7-4.7-3.1-6.9-.8-5.4-2.5-5.3-14 .4zm11.2 298.7c1 1 1.7 1 3.1.1 1.6-1 2-.9 2.5.3 1 2.6.7 5.4-1 7.9-1.5 2.3-1.6 2.3-6 .8-4.9-1.6-5.7-4-2.8-8.1 1.7-2.5 2.5-2.7 4.2-1z"/><path d="M341.2 402c-.8 1.4-2.3 2-4.6 2-1.8 0-3.9.7-4.6 1.5-1.4 1.7-4 2-4 .5 0-.6-1.5-1-3.4-1-2.8 0-3.4.4-3.8 2.5-.5 2.2-.1 2.6 3.5 3.6 3.1.8 4.6.8 6.4-.2 2-1.1 2.6-1.1 3.4.1.8 1.3 1 1.3 1.9 0 .7-1.2 1.2-1.2 2.1-.3 1 1 1.7.5 3.6-2.2 2.2-3.2 3.2-8.5 1.5-8.5-.4 0-1.3.9-2 2zM232 546.7c0 .5.7 1.7 1.5 2.7 3.3 4.3.1 8.9-6.3 9-4 .1-10 4.3-17.5 12.3-3.6 3.9-4.5 4.3-8.8 4.3-3.6 0-6.5 1-12.3 4-4.1 2.2-8.2 4-9.1 4-2.4 0-13.4-5.8-16.1-8.5-1.4-1.4-2.1-3-1.8-3.9.4-1 .1-1.6-1-1.6-1.3 0-1.4.4-.4 2.5 1 2.2.7 3.5-2.7 10-3.9 7.7-3.9 9-.2 9 3.5 0 3.3 3.6-.3 6.8-1.8 1.6-2.9 3.6-2.9 5l.2 2.2.4-2.2c.6-3.2 3.3-1.7 3.3 1.9v2.9l2.6-2c3.9-3.1 5.4-2.7 4.7 1.2-.3 2.3.2 4.4 1.7 7 2 3.3 2.2 4.6 1.6 10.7-.5 4.8-.4 7 .4 7 .5 0 1.8 1.5 2.7 3.4 1.5 3.2 1.5 3.7-.1 7-1.4 2.9-1.5 4.3-.7 7.4 1.9 6.6 1.5 7.7-3.1 9.6-2.4 1-3.7 2-3 2.3.9.3 1.1 1.9.6 5.5-.6 4.5-.5 5 1.1 4.6 1.1-.2 2.2-1.6 2.7-3.4.9-3.4 3.5-5.1 5.2-3.4.7.7.6 2-.2 4.3-.9 2.5-.9 4.2-.1 6.4.8 2.4.7 3.9-.5 6.6-1.3 3.2-1.3 3.6.1 4.1 1.3.5 1.3.9.2 2.3-1.1 1.3-1.1 1.7-.1 2 1.7.6 1.5 4.2-.3 5-.9.3-2.5-.3-3.5-1.2-2.6-2.3-2.9-1.9-3.6 4.6-.4 3-1.6 7-2.7 8.9-1.1 1.9-2.8 6.4-3.8 9.9-1.7 6.3-1.7 6.5.2 8.9 2.5 3.3 2.4 4.1-1.2 7.8l-3 3.1 1.6 4.1c.9 2.2 2.4 4.2 3.4 4.5 1 .2 2.1 1.7 2.4 3.4.3 1.7 1.6 3.5 3.1 4.3 2.3 1.2 2.5 1.8 2 4.8-.5 2.8-.3 3.8 1.2 4.9 1.5 1.1 1.7 1.8.7 4.3-.8 2.2-.8 3.3.2 4.6 1.1 1.6 1.3 1.6 2.4-.5.7-1.2 2.4-2.6 3.8-3.2 2.2-.8 3-.6 5.3 1.6 1.9 1.8 3 2.3 3.5 1.5.5-.8 1.1-.6 2 .7 1.2 1.6 1.5 1.6 5.2-1 4.9-3.4 10.1-8.7 10.4-10.7.1-.8-.1-3.6-.5-6.3-.5-2.8-.4-6.4.2-8.9.9-3.4.8-4.6-.3-5.9-1.5-1.6-2-3.9-.9-3.9 1.6 0 6.2 3.5 8 6.1 1.6 2.5 2.4 2.8 5.1 2.3 5.1-1 8.9.5 14.3 5.2 3.4 3.2 5.5 4.4 6.8 4 1.3-.5 2.2.1 3.2 1.9.7 1.4 1.7 2.5 2.1 2.5.8 0 3.9-7.4 3.9-9.6 0-.8 1.1-2.6 2.5-4 2.4-2.4 3.4-5.4 1.8-5.4-.5 0-1.4-.4-2.1-.9-1.1-.6-.6-2 2.3-5.9 2.9-4.1 3.6-5.9 3.4-9-.2-2 0-4.2.3-4.7 1.1-1.8 2.9-13.5 2.3-14.6-.4-.5-.2-1.6.4-2.3 1.4-1.6 4.1-12.2 4.1-16 0-1.6.7-3.7 1.6-4.7 1.3-1.4 1.3-2.1.3-3.7-1-1.7-1-2.5.4-4.6 2.3-3.4 2.2-4.1-1.3-11-2.1-4.2-3-7.3-3-10.9 0-4.7.2-5.2 5.9-10.6 3.2-3.1 7-7.9 8.4-10.6 2.5-5 2.5-5.1.6-7.4-1.5-1.8-1.9-3.9-1.9-9.2 0-4.9-.4-7-1.4-7.6-.8-.4-2-3-2.7-5.6-1.2-4.4-1.2-4.9.8-6.9l2.2-2.2-2.2-1.1c-1.5-.7-2.2-2-2.2-3.8.1-2.2-.3-2.5-2.1-2.1-2.6.7-6.4-.3-6.4-1.6 0-.5 2-2.3 4.5-4.1l4.6-3.3-2.8-1.2c-2.2-.9-3.1-.9-4.4.2-3.2 2.9-4-1.4-.9-5.3 2.2-2.8 2.4-4.1 1-6.3-.8-1.2-1.3-1.1-3.4.9l-2.4 2.3-1.7-2.5c-.9-1.4-1.5-3.3-1.3-4.3.2-1.4-.8-2.1-4.5-3.2-3.6-1-5.2-2.1-6-4.1-.8-1.6-1.8-2.5-2.9-2.3-.9.2-1.9-.2-2.3-.7-.7-1.3-2.5-1.5-2.5-.4zM695 863.9c-.9.3-3.6 2-6 3.7-7.1 4.9-8.5 5.1-13.7 1.3l-4.6-3.2.5 3.2c.4 2.7-.1 3.7-3.8 7.1-2.4 2.2-5.1 4-6.1 4-.9 0-4.1-1.7-7-3.7-4.9-3.4-5.6-3.6-8.6-2.6-1.8.6-5.2 1.5-7.7 1.8-2.5.4-5.9 1.9-8 3.6-5 4-10.7 5.8-22.9 7-12.9 1.3-13.2 1.3-20.6-.1-8.4-1.6-15.3-.9-21.4 2.4-4.4 2.3-6 2.6-9.7 2-5.5-.8-10-4.4-12.5-9.9l-1.8-4h-6.8c-5.3 0-6.8-.3-7-1.5-1.1-8.4-1.3-9-4.1-9-1.5 0-3.6.7-4.6 1.5-2.6 2-5.5 1.9-7.8-.2-1.9-1.7-2-1.6-3.9.7-1 1.4-1.8 3.6-1.7 5 .3 2.1-.5 2.9-5.2 5.2-3 1.5-6.5 2.7-7.7 2.7-2.7.1-8-4.2-8.8-7.2-.4-1.2-1.1-3.4-1.7-5l-1.1-2.8-3.4 4.1c-1.9 2.2-5.5 5.2-7.9 6.6-6.1 3.6-10.5 10.2-9.7 14.8.3 2-.1 5.4-1 8.1-.9 2.5-1.4 5.1-1.2 5.8.2.7.9 3.1 1.5 5.5.9 3.4 1.7 4.5 4.4 5.6 2.5 1 3.7 2.4 4.6 5.1 1.5 4.5 4.5 5.9 10.3 4.5 2.3-.5 6.5-1 9.4-1 5 0 5.4.2 8.5 4.4 2.7 3.7 4.1 4.7 8.1 5.5 5.3 1.2 10.7 3.7 10.7 5 0 1.4 11 12.9 14.4 15 1.8 1.2 4.6 2.1 6.1 2.1 2.2 0 4.1 1.4 8.4 6.1 5.9 6.4 9.6 8.9 13.2 8.9 1.3 0 3.5 1.5 5.4 3.7 3.1 3.6 3.4 3.7 6.5 2.6 2.3-.9 3.8-.9 5.6-.1 1.8.8 3.1.8 5-.1 2.3-1 3.5-.8 9.2 1.9 8.7 4.1 12.8 7.3 13.6 10.7.4 1.5 2.1 4.3 3.8 6.2 1.7 1.9 4.1 5.8 5.4 8.7 2.1 4.8 2.8 5.4 7.8 7.3 8.7 3.2 13.2 4.1 25.6 4.9l11.5.7.3 2.7c.3 2.5.5 2.6 2.8 1.6 2.3-1.1 2.4-1.5 1.8-5.7-.4-2.5-.7-6-.7-7.8.2-6.8 9.6-19.3 14.8-19.3 2-.1 2-.1 0-1.6-1.8-1.4-1.8-1.7-.4-2.7 1.5-.9 1.4-1.5-1.2-5-1.6-2.2-2.6-4.3-2.4-4.8.3-.4-.4-1-1.5-1.4-1.1-.3-2.4-1.4-3-2.4-.7-1.5-.3-2.1 2.6-3.5 3.1-1.4 3.4-1.9 2.3-3.2-.7-.9-3.4-2.6-6-3.9-4.3-2.2-4.8-2.9-5.8-7.5-1.9-8.7-1.4-12.8 1.8-16.9 3.4-4.3 5.4-8.7 7-15.6.7-2.8 2.8-7.1 5-10 2.1-2.7 6.2-9.2 9-14.2 2.9-5.1 7.4-11.9 10.1-15 2.8-3.2 5-6.5 5-7.3 0-.9 1.2-3.3 2.6-5.3 1.4-2.1 2.4-4 2.2-4.1-1.2-1.1-6.6-2.2-7.8-1.7z"/></svg>
