<svg version="1.0" xmlns="http://www.w3.org/2000/svg" width="1365.333" height="1365.333" viewBox="0 0 1024 1024"><path d="M770.5 54.8c-48.4 30.2-119.5 74.6-158 98.9-38.5 24.2-87.1 54.5-108 67.3-20.9 12.8-41.6 26.2-45.9 29.7-8.9 7.1-9.4 7.2-22.7 4.7-4.5-.8-9.1-1.3-10.2-1-1.3.3-3.1-.4-4.9-2-2.7-2.2-3.8-2.4-13.6-2.4-12-.1-23.3-1.9-25.9-4.2-2.7-2.3-6.1-3.1-13.4-3-5.5.1-6.8-.2-7.5-1.7-1.8-3.7-17.1-16.9-26.9-23.3-5.5-3.5-10.6-7.7-11.4-9.1-1.3-2.4-1.8-2.6-5.5-2-2.3.3-4.2.7-4.4.8-.1.1-1.9-.3-4-1-2.1-.8-5.8-1.1-8.8-.8l-5.1.5-.7-4.3c-.7-4.5-4.7-12.2-6.9-13.6-.8-.4-1.8-3.5-2.3-6.8l-.9-6-4.5-1.3c-7.9-2.3-9.4-3.2-8.2-4.4 1.8-1.8 1.4-3.8-.6-3.8-1.7 0-6.7-4-7.3-5.9-.5-1.4-15.8-4.2-21-3.9-4 .2-5.8-1-5.9-4 0-.8-1.6-1.2-4.8-1.2-3.9 0-5.3.5-7.3 2.6-1.3 1.4-4.8 3.7-7.7 5-3 1.3-6.7 3.5-8.4 4.9-3.4 2.9-5.9 3.1-11.7 1l-4.1-1.4 1.5 2.9c2.3 4.4 1.9 6.5-2 10.7-4.4 4.7-5.1 6.8-3.2 9.6.7 1.2 1.7 4.6 2 7.5.6 4.8.4 5.4-1.7 6.3-1.6.8-2.2 1.7-1.9 3.3.3 1.6-.2 2.5-1.8 3.2l-2.2 1 3.2 3.7c3.2 3.5 3.2 3.6 1.5 6.2-1.5 2.3-1.6 3.2-.6 5.8 1 2.7.9 3.4-.8 5.2-1.2 1.3-2 3.5-2 5.7 0 2-.4 4.8-.9 6.2-.7 1.5-.6 3.7 0 5.8.5 1.8 1.4 11.7 1.9 21.9 1 17.6.9 18.8-1 23-1.1 2.6-2 6.6-2 9.7 0 3.8-.8 6.9-3 11.2-3.4 6.8-4 14.2-1.4 17.1 1.4 1.6 1.4 2-.1 5-1.6 3-1.6 3.4-.1 6.1 1.3 2.1 1.6 4 1 7.6-.3 2.6-1.1 5.3-1.7 6-1.3 1.7.8 11.9 2.9 14.3 1.1 1.2 1.4 2.5.9 3.6-1.2 2.8-1.3 10.2-.2 16 .8 4.3 1.4 5.2 3.6 5.7 1.4.3 3.5 1.3 4.6 2.1 2 1.6 2 1.8-2.6 24.1-4.9 24.3-5 28.4-1.3 39.6 1.2 3.6 1.3 5.6.5 8.5-2.8 10.8-4.1 18.5-4.1 24.8 0 4.3-.6 8-1.5 9.5-.8 1.4-1.9 3.7-2.6 5.2-.9 2.4-1.5 2.7-3.7 2.1-1.5-.3-3.1-1.1-3.5-1.7-.8-1.1-.2-7 .9-10 .3-.9.1-1.6-.5-1.6-1.4 0-5.3 4.3-8.3 9-1.2 1.9-3 4.5-4.1 5.8l-2.1 2.2-2.1-2-2.1-2-2.4 4.9-2.3 4.9 4.8 8.4c2.6 4.6 6.1 9.7 7.8 11.5l3 3.2-1.7 10.2c-1.4 8.7-2.1 10.7-5 14.3-5.8 7.1-6.6 10-4.8 18.5l1.6 7.3-4.5 4.2c-2.5 2.2-5.9 5.3-7.6 6.7-2.7 2.2-3.2 3.4-3.8 9.3-.4 3.7-.5 8.2-.2 10.1.5 2.8.2 3.5-1.3 4-3 .9-8 7.9-8 11.1-.1 5.6-2.8 15-5.9 20.4-1.7 3-3.1 6.3-3.1 7.3 0 .9-2.1 4.8-4.6 8.6-4.1 6.3-4.9 8.3-7.4 20.6-3.2 15.4-5.6 23.2-7.8 25.7-1.7 2-1.3 3.5 4.6 15.2l3.4 6.9-3.6 3.1c-3.4 3-3.6 3.5-4.7 12.6-1.5 11.6-1.6 10 1.6 24.8 1.4 6.7 2.3 12.8 1.8 13.5-.4.6-3.6 5.2-7.2 10.2-5.6 7.7-7 10.6-9.8 20-3.2 10.4-3.3 11.5-2.7 21.5l.6 10.5-3.7 6.5c-3.3 5.8-3.6 7.1-3.1 11.3.4 3.5 0 6.3-1.4 10-1.6 4.1-2 7.7-2 17.3v12.1l-5 5.4c-6.4 6.9-7.9 12.7-4.8 17.7 2.4 3.9 2 9.3-1.2 18.6-1.2 3.6-1.7 6.8-1.3 9.2.5 2.8.2 4-1.1 5-1.5 1-1.7 2.1-1.1 6.3l.7 5 5.1 1c36.8 7.2 222.6 40.1 226.6 40.1.5 0 21.1-16.9 45.8-37.5l44.8-37.4 26-45.8 26-45.8 78.3-16.1c43-8.8 78.3-16.2 78.5-16.5.2-.2 8-18.3 17.3-40.2l16.9-39.9 34.7-20.6c19.1-11.4 34.7-20.9 34.8-21.2 0-.3-46.6-55.6-103.6-123-87.5-103.4-103.3-122.6-101.7-123.2 1-.4 25-7.3 53.3-15.4 28.3-8 83.2-23.7 122-34.9s108.3-31 154.5-44 84.5-24 85.1-24.3c.7-.4 13.9-12.6 29.5-27.2 15.5-14.6 29.8-27.9 31.7-29.5l3.5-3.1-4.3-13.9c-2.4-7.7-4.6-14.3-4.9-14.7-.3-.4-10.5 2-22.6 5.2-12.1 3.3-22.3 6-22.7 6-.4 0-1-2-1.3-4.4-.4-2.5-2.9-11.9-5.5-21.1-3.9-13.5-4.5-16.7-3.4-17.2.8-.3 5.4-1.8 10.2-3.2 7.3-2.3 8.6-3.1 8.4-4.6C919.2 199.9 860.9 3 859.1.8c-.4-.4-40.2 23.9-88.6 54z"/></svg>
