<svg version="1.0" xmlns="http://www.w3.org/2000/svg" width="1365.333" height="1365.333" viewBox="0 0 1024 1024"><path d="M911.7 283.3c-5.5 2.7-6.3 2.9-20 2.9-11.3 0-16.1-.4-23.2-2.1-13.2-3.2-19-3.6-26.1-1.7-3.4.9-9.2 1.6-12.9 1.6-3.6 0-7.5.4-8.5 1s-12.9 1.2-26.5 1.4c-20.3.3-25 .7-27 2-1.3.9-3.8 1.6-5.5 1.6-1.7 0-5.7.8-9 1.7-5.7 1.5-6.4 1.5-11.4 0-2.9-.9-6.6-1.7-8.3-1.7-1.7 0-4.1-.8-5.4-1.8-3.9-3-5.1-3.1-20.1-1.6-16.6 1.7-18.9 2.4-18.1 5.3.5 1.9.1 2.1-4 2.1-3.5 0-4.9.5-5.6 1.9-.9 1.6-2.7 2-11.3 2.6-7.9.6-10.8 1.2-13 2.8-2.6 1.9-4.2 2.1-29.3 2.1l-26.6.1-1.9 2.5c-1.1 1.4-2 3.3-2 4.3 0 .9-1.1 3.5-2.5 5.6-3.9 5.8-6.4 6.2-31.7 5.1-11.9-.4-23.4-.6-25.5-.3-4.3.6-9.3-1.5-17.1-7-3.3-2.4-5.6-3.2-10.2-3.5-3.4-.2-6.5-1-7.1-1.8-.7-.8-3.1-1.4-5.8-1.4-2.5 0-7.7-1.2-11.6-2.6-3.8-1.4-8.2-2.8-9.7-3.1-1.5-.3-4.5-2-6.7-3.9-2.9-2.5-4.9-3.4-7.5-3.4-2.5 0-3.6-.5-3.6-1.4 0-3.2-15.6-8.6-24.7-8.6-2.6 0-3.6.5-4 2-.6 2.3-1.2 2.5-12.3 4-7.2 1-9 1-12-.3l-3.5-1.5-4.5 4.8-4.5 4.8h-6.7c-5 0-7.4.4-9.4 1.8-6.1 4.4-8 5.4-9.9 5.4-3.8 0-8.2 3.7-10.9 9.1-2.1 4.4-2.6 6.7-2.6 13.1 0 7-.4 8.6-3.6 15.1-3.6 7.1-3.7 7.3-3.1 16.2.7 11.7 3.2 18 7.7 19 3 .7 3.1.8 1.4 2.6-1.4 1.6-3.1 1.9-9.8 1.9h-8.2l-6.8-5.7-6.8-5.6-15.4 1.2c-15 1.1-15.6 1.1-18.3-.9-1.9-1.3-4.5-2-7.5-2-3.4 0-6.2-.9-10.4-3.3-5.3-2.9-6.4-3.2-15.2-3.3-6.3-.1-11-.7-14-1.9-3.8-1.4-6-1.6-14-.9-12.7 1.1-27.2.7-34.3-1.1-10.5-2.7-14.1-2.1-26 4-5.9 3-13.2 6.2-16.2 7-6 1.5-16.4 9.6-19.1 14.8-.9 1.7-3.3 3.6-5.8 4.7-5.9 2.5-6.7 5.5-2 7.8 3.1 1.4 3.4 2 3.2 5.3-.1 3.1.8 4.8 6.6 12.3 6.7 8.6 6.7 8.6 10.5 8 3.5-.6 4-.3 6.9 3.2 4.9 5.9 5.6 4.6-10.5 19.1-3.7 3.4-9.6 8.4-13 11.2-3.4 2.8-7.8 7.1-9.9 9.5-2 2.4-5.4 5.2-7.5 6.1-2.3 1.1-4 2.6-4.3 4-.4 1.7-4 4.3-13.1 9.5L81 492.1v4c0 2.2.7 5.1 1.6 6.4 1.4 2.1 2.4 2.5 6.8 2.5 4.2 0 6.4.7 11 3.5 3.2 1.9 6.2 3.5 6.6 3.5.4 0 3.7-1.6 7.4-3.5 8-4.2 14.4-4.7 17.6-1.5 1.7 1.7 2 3.3 2 11.5 0 5.9.4 9.5 1 9.5s2.9-.9 5.1-2l4-2.1 2.8 2.1c3.8 2.6 5.9 2.5 10.3-.5 4.5-3 4.9-3 12.3-.5 3.2 1.1 6.8 2 8.1 2 1.5 0 3.6 1.6 6.1 4.5 2 2.5 4.4 4.5 5.3 4.5 3 0 5-5.3 5-13.2v-7.4l3.5-1.7c3.5-1.7 3.5-1.7 3.5.7 0 2.3 2.8 5.6 4.7 5.6.6 0 1.3-1.8 1.7-3.9.5-3.3 1.3-4.4 5.1-6.8 5.2-3.2 5.6-5.2 1.9-9.6-2.8-3.3-2.1-4.7 2.7-4.7 1.4 0 3.1-.6 3.8-1.3 1.1-1 1.2-.3.7 4-.6 4.5-.4 5.3 1.3 6.3 1.3.7 2.2.7 2.6 0 1.2-2 3.4-1 4 1.8.3 1.6 1.9 3.8 3.4 5l2.9 2.1-1.4 6.3c-.7 3.5-1.3 7.1-1.4 8 0 3.2 3.3 3.9 14.4 3l10.6-.8.6 3.4c.4 1.8.4 4.6 0 6.2l-.6 3h6.8c4.3 0 9.1-.8 13.1-2.1l6.3-2.1 8.1 2.2c10.2 2.9 12.4 4 16.5 8.3 3.2 3.3 3.4 3.4 8.3 2.5 4.3-.8 6.2-.5 13.1 1.8 7.9 2.6 8.2 2.6 11.4.9 2.3-1.2 3.7-1.4 5-.7.9.5 2.9.6 4.3.3 3.5-1 7.5.1 7.9 2.2.3 1.5-.7 1.7-8 1.7h-8.4l-5.6 5c-3.6 3.2-6.7 7.3-8.9 11.5l-3.4 6.6-3.7-.6c-5.1-.9-6.1 0-4.2 3.6.8 1.7 1.3 3.3 1 3.6-.3.4-3.4.9-6.8 1.2-6 .6-6.6.4-12.3-3-5.7-3.5-16.5-6.2-16.5-4.1 0 1.4 4 5.2 5.5 5.2 1.7 0 2 2.1.5 3.6-.5.5-1.3 3.4-1.7 6.4-.7 4.5-1.2 5.6-2.9 5.8-2.7.4-8.4-4.3-8.4-6.9 0-5.8-11.4 2.6-13.7 10.1-.6 1.9-2.5 6.6-4.1 10.5l-2.9 7-4.9.1c-3 .2-6.4 1.1-8.6 2.3-4.9 2.9-15.8 4-17.7 1.7-1.1-1.3-3.2-1.6-10.2-1.6-7.8 0-9-.2-9.9-2-.8-1.4-2.1-2-4.8-2-2-.1-4.8-.7-6.2-1.5-4-2.3-15.7-1.9-22.1.7-6.8 2.7-7.9 4.1-7.9 9.9 0 4.2.4 5 4.8 9.1 2.6 2.4 5.5 4.9 6.5 5.4 2.1 1.2 4.1 8.7 3.3 12.1-.5 1.9-1.1 2.1-4.1 1.6-2.3-.4-4.3 0-6 1.1-2.9 1.9-3.1 1-1-4.1 2.3-5.5 1.9-8.8-1.5-11.6-2.3-2-3-3.4-3-6.2v-3.7l-10.4.4c-10.3.3-10.4.4-14.4 4-2.2 2-4.9 3.9-6 4.2-1.4.5-2.6 2.4-3.7 5.7-2 5.8-8 11.4-9.6 8.8-.5-.8-.9-2.6-.9-4 0-3.2-1-3.6-9.3-4.5-4.9-.5-7.7-.1-13.4 1.6l-7.1 2.1-3.9-2.4c-3.9-2.5-15.9-5.6-29.6-7.8l-7.7-1.2-5.1 3.2c-2.8 1.7-5.8 3.1-6.7 3.1-3 0-10 3.4-11.3 5.5-.7 1.1-1.6 4-1.9 6.4-.4 4-.8 4.5-4.2 5.7-3.6 1.2-3.7 1.2-6.4-2.7-1.5-2.2-3.2-3.8-3.8-3.6-.6.2-1.4 2.8-1.7 5.8-.3 3-1.3 7-2.3 9l-1.8 3.6 3.2 6.2c3 6 3.1 6.8 2.5 13.5-1 10.8-1.6 10.6 29.2 10.6 15.3 0 26.9-.5 30.5-1.2 5.1-1.1 6.2-1 8.7.5 4 2.4 6 2.1 10.1-1.2l3.4-2.9 4 2c3.1 1.6 4.4 1.8 6.3.9 3.4-1.5 12.4-1.3 14.7.4 1.4 1.1 1.7 2.2 1.2 4.9-.3 2-.9 5.2-1.2 7.2-.5 3-.2 4 2.2 6.5 3.4 3.5 7.9 3.9 11.8.8 1.4-1.1 6.9-3.8 12.2-5.9 5.3-2.1 10.6-4.8 11.8-5.9 3.2-3 17-9.1 20.7-9.1 2.6 0 4.3 1.2 9.4 6.6 6.1 6.3 6.5 6.5 12.2 7.1 8.6.8 11.3 3.7 11.3 11.9 0 7.4 1.8 9.8 5.1 6.8 1.8-1.6 2.5-1.7 6.6-.6 4 1.1 4.7 1.1 5.9-.5.7-1 1.4-2.1 1.4-2.6.1-2.1 5.5-.1 14.3 5.3 5.3 3.3 10.8 6 12 6 2.7 0 6.1-3.2 7.6-7.2 1.4-3.7 6.3-7 15.1-10.3 6.8-2.4 9.3-2.8 27.5-3.5 11-.5 25.8-1.6 32.9-2.5 12.7-1.5 13-1.6 22.2-7 8-4.7 10-5.5 14.4-5.5 2.8 0 6.1.7 7.4 1.5 2.2 1.4 2.4 1.3 5.5-2.5 2.3-2.9 4-4 5.9-4 1.5 0 4.6-.9 6.8-1.9 3.2-1.5 4.4-2.6 4.9-5 .4-1.7 1.8-4.4 3.1-6l2.4-2.9-1.6-11.2-1.5-11.2 2.3-2.5c1.3-1.4 5.1-4.4 8.6-6.6 6.6-4.4 8.3-7 11.9-18.2 2.1-6.4 3.9-8.5 7.6-8.5 1.8 0 4.8-1.4 7.7-3.5 5.6-4.1 12.2-5.4 17.9-3.5 3.4 1.1 4.4 1 8.7-.9 2.7-1.2 6-3.3 7.4-4.5 1.4-1.3 4.8-3.5 7.5-4.9 2.8-1.5 6.1-4.2 7.5-6.1 1.7-2.4 4.3-4.2 8.5-5.8 4.6-1.8 6.1-2.9 6.3-4.6.5-3.5 4.4-4.8 10.6-3.5 6.2 1.3 14.1.6 15.8-1.4 1-1.2.7-2-1.9-4.2-2.8-2.2-7.3-11.1-7.3-14.1 0-1.8 4.4-1 8.9 1.5l4.4 2.6 11.5-3.2c15-4.2 29.8-12 32.8-17.4 3.8-6.7 6.4-8.5 10.7-7.8 3.1.5 3.9 1.1 4.4 3.3.3 1.6 1.8 4.4 3.5 6.4 2.7 3.3 3.4 3.6 8.4 3.6 5.1 0 5.4.2 5.4 2.4 0 1.4-.9 3.1-2.1 3.9-2 1.4-2 1.6-.4 7.1.9 3.1 1.9 5.6 2.1 5.6.3 0 2.3-.9 4.5-2.1 3.8-1.9 4.2-1.9 5.9-.4 2.4 2.2 6.6 1 9.2-2.6 1.8-2.4 2.9-2.9 6.2-2.9 3 0 4.5-.5 5.4-2 .7-1.2 1.8-1.7 2.7-1.4 1.9.8 9.5-2 14.7-5.3 2.1-1.2 4-2.3 4.3-2.3.2 0 1.2 1.4 2 3.1l1.6 3 3.4-2.5c1.8-1.4 4.6-2.6 6.2-2.6 2.2-.1 4.5-1.9 11.3-9.2l8.5-9.1-.3-8.6c-.2-6.7-.7-9.2-2.2-11.3-1.1-1.5-2-3-2-3.4 0-.4 2-3.1 4.5-6 2.5-2.8 4.5-6.2 4.5-7.4 0-3.9 3.2-7.7 8.4-10.2 2.7-1.2 6.3-3.4 7.8-4.6 2.5-2.1 3.2-2.3 6-1.3 2.8 1 3.4.9 5.8-1.4 2.3-2.2 3.4-2.5 10.6-2.5 4.9 0 8.5-.5 9.2-1.2.7-.7 3.8-1.3 7-1.4 3.1-.2 7.6-.9 9.9-1.8 2.9-1 6.3-1.3 11.5-.9 6.6.5 8 .3 14.6-2.6 4.2-1.7 9-3 11-3 2 .1 6.7-1.1 10.5-2.5 5.5-2.1 8.5-2.6 16-2.6 13.6 0 15.6-1.4 22.9-15.9 3.2-6.2 6.7-14 7.9-17.2 1.5-4 2.7-5.9 3.8-5.9.9 0 3.8-2.2 6.5-4.9 3.8-3.8 5.8-5 9-5.5 3.1-.5 4.8-1.5 6.9-4.1 1.5-1.9 6.2-6.1 10.5-9.3 4.2-3.3 12.1-10 17.4-14.9 9.6-9 9.7-9.1 15.6-9.5 5.4-.4 6.4-.9 11.3-5.1 5.2-4.6 9.9-6.1 11.4-3.7.3.5 2.4 1.4 4.7 2.1 7.9 2.1 15.8-3.7 21-15.2.9-2.2 2.8-4.4 4.2-5 1.3-.7 3-2.5 3.7-4.1 2-4.8 7.2-7.5 17.3-8.8 7-.9 9.6-1.7 11.9-3.6 1.6-1.4 4.2-3.1 5.8-4 2.3-1.2 2.9-2.1 2.9-4.9 0-1.8-.3-3.6-.8-3.9-.4-.2-2.7-.1-5.2.4l-4.5.8-7.7-7.4c-6.2-5.9-8.4-7.4-10.8-7.4-1.7 0-4.4-.7-6-1.5-4.1-2.1-22.5-1.5-26.1.8-1.4.9-4.5 2-7 2.3-3.6.5-5.2.1-9.1-2.1-2.7-1.5-4.8-3-4.8-3.4 0-2.1-8.2-9.9-11-10.5-1.7-.3-4.8-2-7-3.7-3.3-2.6-3.9-3.9-4.5-8.3-.4-2.8-1-5.6-1.4-6.2-.4-.6-2.6 0-6.4 1.9z"/></svg>
