<svg version="1.0" xmlns="http://www.w3.org/2000/svg" width="1365.333" height="1365.333" viewBox="0 0 1024 1024"><path d="M45 86.9c-4.1 2.2-9.9 6.2-12.8 8.8l-5.4 4.8-1 9.5-1 9.5-6.8 7c-4.5 4.6-8.1 9.5-10.6 14.5-3.6 7.2-3.8 8.2-5.5 26.5-1.9 20.2-2.3 47-1 64.7l.8 10.6 10.2 14.1c17.3 24.2 25.6 33.7 33.2 37.9 5.1 2.8 8.9 6.2 16.4 14.7 5.4 6 15 16.5 21.3 23.2L94.4 345h11l11.1.1 14.9-5.8 14.8-5.8 4.1-6c2.2-3.3 6.5-8.8 9.5-12.3 3.9-4.5 6-8 7.3-12.3 2.5-8.1 2.5-8.8-1.6-16.9-2.8-5.6-4.3-7.4-7.5-9-2.8-1.4-4-2.7-4.1-4.3 0-1.2-.4-4.9-.9-8.2-.6-4.8-.4-7.4 1.2-13 3-10.5 9.2-22.1 12.7-24 1.6-.8 5.9-3.7 9.4-6.4l6.5-5 2 4.9 2 4.8 8.6.7 8.5.7 4.4 4.7c2.3 2.5 5.5 6.2 7 8.2 1.4 1.9 3.8 4.2 5.2 4.9 1.9 1 3 3.1 4.6 8.4 1.6 5.6 3 8.1 6.7 11.8l4.6 4.8h8.9c6.8 0 9.7.4 12.7 2 3.5 1.8 4 2.5 4 5.5v3.5h5.3c6.2 0 9.7 2.1 18.4 11.1 3.9 4.1 6 7.5 8.7 14.3l3.6 9v56.3l4.8 1.8c2.6 1 7.3 3.1 10.5 4.7l5.8 2.9 3.3-2.8c2.3-2.1 5.4-3.3 11.6-4.7 9-1.9 13-4.4 13-8 0-2.1 10.5-11.7 13.5-12.4 3.3-.8 5.3 1.7 6 7.3.6 4.8 1.1 5.7 4 7.5 2.7 1.7 5 2 14.7 2h11.4l7.4 5.5 7.4 5.5h19.5l3.6 11.7c2 6.5 3.7 12.2 3.9 12.7.1.5 3.5 2.1 7.6 3.7 9.2 3.4 19.6 3.8 31.2 1l7.7-1.8 19.3 3.8 19.2 3.9 13 9.9c11.3 8.5 14.4 10.3 22.6 13.1 8.4 2.9 10.3 4 16 9.5 4.1 3.9 8.5 7 12 8.5 12.7 5.2 33.6 16.6 42.4 23.1 8.6 6.3 9.8 6.9 14.3 6.9h4.9l3.7 8.7c3.4 7.9 4.5 9.4 10.7 14.6l6.8 5.7 8-3.5c4.4-1.9 8.3-3.5 8.6-3.5.4 0 1.6 2.1 2.7 4.6 1 2.6 5.3 8.4 9.4 12.9 7.3 8 7.5 8.4 7.5 13.4v5.3l3.4-2.1c2.1-1.3 5-2.1 7.8-2.1 4.1 0 5.2.6 13.9 8 5.2 4.4 12.6 10.9 16.4 14.4 3.9 3.5 9.7 7.7 13 9.4 6.6 3.4 10.5 8.2 14.5 18.4 2 4.9 2.8 5.8 5.4 6.4 6.4 1.3 15 7.2 20.9 14.3 3.2 3.9 6.6 7.2 7.5 7.5 1.3.5 9.4 12 14.1 20.3.4.7 3.4 1.8 6.7 2.4 3.2.6 8.8 2.7 12.3 4.6l6.3 3.6-.6 5.8-.7 5.8 4.8.3c4.7.3 4.8.4 8 6.3 2.2 4.2 5.7 8.2 12 13.8 4.8 4.3 9.1 8.4 9.4 9 .4.7 1 3.5 1.4 6.3l.6 5.1 6.8 1.7 6.8 1.8 4.1 7.1c5.9 10.3 13.5 18.5 31.9 34.7l16.2 14.3 4 11.9c4.3 12.8 4.5 13.1 20.2 30.8 3.6 4.1 10 12.6 14.2 18.9l7.5 11.4-3.7 10.4c-3.4 9.5-4.2 10.8-8.5 14.2-2.6 2.1-7.8 7.3-11.5 11.6-3.8 4.3-10.3 10.8-14.6 14.5l-7.7 6.7-7.5-2.9c-8.8-3.3-18.6-11.1-27.3-21.4-5.8-6.9-28.8-27.3-34.3-30.3-1.8-1-7.6-4.2-13-7.2-9.4-5-10-5.6-12.8-11.1-2-3.9-3.9-6.3-6.2-7.4-9.9-5-20.8-12.8-24.5-17.7-2.3-2.8-7.4-8.4-11.4-12.3-6.9-6.8-7.7-7.3-14.8-8.9-8.1-2-15.4-6.6-24-15.4-2.5-2.5-8.1-7.5-12.5-11.1l-7.9-6.4-18.1-3.8c-9.9-2-18.1-3.8-18.2-3.8-.1 0-3.3-4.4-7-9.8-5.6-8.1-7.2-11.2-8.6-17.4l-1.8-7.6-6.9-4.7c-6-4.1-7.7-4.8-14.2-5.6-4-.4-11.8-.9-17.3-.9l-10-.1-16.4-12.7-16.4-12.7-3.5-8.4c-3.6-8.3-3.7-8.4-12.2-14.1-6.4-4.3-12.2-7-22.9-10.9l-14.3-5.1-13.1-.1c-21.3-.1-29.1-1.1-40.8-5.3-10.2-3.6-10.5-3.9-16.1-10.5-5.4-6.4-5.8-7.3-5.8-11.9 0-4.6-.3-5.3-4.3-8.9-2.4-2.2-6.1-4.6-8.3-5.3-2.1-.7-5.4-2.3-7.2-3.5-2.9-2-3.8-2.1-8.2-1.2-4.7.9-5.3 1.4-11.7 9.7-6.2 8-7.5 9.1-14.3 12.4l-7.5 3.5-25.5.6c-14 .4-27.7.7-30.5.7-2.7.1-10.2-.2-16.5-.7l-11.5-.8-6.1 3.1c-5.1 2.6-8 3.2-18 4.2l-11.9 1.1-4.7 4.6c-4.2 4.2-4.7 5.1-5.3 10.7-1 9.6-1 9.6-5.2 8.4-2-.5-7.3-3.5-11.9-6.5-8.3-5.5-8.4-5.7-8.4-9.7 0-3.2.8-5.1 3.5-8.5 1.9-2.4 3.5-4.6 3.5-4.8 0-.2-1.3-3-3-6.3-3.4-6.6-5-7.4-15-6.8l-5.4.3-.9 4.2c-.4 2.4-1.5 4.4-2.5 4.8-.9.4-10 1-20.3 1.3l-18.5.5-1.9-2.9c-1-1.6-6.2-7.4-11.5-12.9s-11.3-12.8-13.3-16.3c-3.4-5.8-3.7-7-3.7-14 0-7.5-.2-8-4.6-15.1-2.5-4.1-7.4-11.1-10.8-15.7-3.4-4.5-7.3-11-8.7-14.4-2-5.3-3.6-7.3-10.4-13.4-13.7-12.1-14.8-13.9-19.4-32.4-3.4-13.2-4.1-17.8-4.1-25.6V430l10.7-21.4 10.7-21.4 5.8-2.8 5.8-2.8v-5.9c0-5.3-1.9-10.7-5.5-15.5-.1-.1-2.8-.7-5.9-1.3l-5.8-1-9.1 5.9c-13 8.5-17.4 9.7-31.7 8.5l-11.5-1-7 3.2c-8.4 3.9-18.6 13.7-24.3 23.4-3.7 6.3-3.7 6.4-13.1 10.1l-9.4 3.7-3.8 7.4-3.8 7.4v17l-.1 17 6.8 8.6c4.4 5.7 10.5 11.8 17.7 17.6 6.1 5 18.2 16.7 27 26.1l16 17.1 13.3 25.8 13.4 25.8 22.1 16.3c21.5 15.8 22.4 16.6 26.9 24l4.8 7.7 51.2 14.7 51.3 14.7 26.5 3.5c25.4 3.5 27.8 3.6 56 3.6 35.1 0 65.7-1.4 83.3-3.9l12.8-1.7 11.7 8.5c6.4 4.6 15 11.1 19.1 14.3 4.1 3.2 8.4 6.1 9.5 6.3 1.2.3 8.2 1.6 15.6 3 10.3 1.9 24.4 6.1 59 17.6l45.5 15.1 44 21.5c24.2 11.8 63 31.3 86.2 43.4l42.2 22.1 28.3 25.1c15.6 13.9 42 36.4 58.7 50.1 25.9 21.1 33.3 26.6 50.4 37.2 11 6.8 21.4 12.6 23.1 12.8 1.7.3 12.7 1.2 24.5 2.1l21.4 1.7 12.3-4.8 12.4-4.7v-8.2c0-5.6.6-10 2.1-14.3l2.1-6.3-2-5.7c-1.7-4.6-2.2-9.1-2.6-23.3l-.5-17.6-9.1-23.3c-7.5-19.2-13.4-31.7-32.5-68.9-39.2-76.3-30.8-63.7-69-104.2-28.4-30.2-38.8-40.4-75.2-73.5-24.9-22.6-59-52.3-83-72.2l-40.8-33.8L667 454l-42.5-26.4-95-48.9c-74-38.1-103.9-54.1-135-72.2-22-12.7-47.9-27.6-57.5-33.1-14.6-8.2-23.4-14.3-52.5-36.3-19.2-14.6-42-32.6-50.5-40-39.3-34.5-47.9-40.8-80-59.3-12.6-7.3-44.7-29.9-46.4-32.7-.3-.4-7.7-3.8-16.5-7.6-14.2-6.2-16.1-7.2-16.6-9.6-.8-3.5-2.2-4-13-4.5-8.9-.4-9.1-.4-16.5 3.5z"/></svg>
