<svg version="1.0" xmlns="http://www.w3.org/2000/svg" width="1365.333" height="1365.333" viewBox="0 0 1024 1024"><path d="M156.6 2.1c-7.9 1.7-9.4 2.4-13.5 6.2-3.5 3.3-5.8 4.6-9.1 5.1-2.4.4-5.2 1.4-6.2 2.3-1.4 1.3-2.8 1.4-7 .8-2.9-.5-8.2-.8-11.7-.7-5.3.2-6.7.6-8.6 2.7-2.9 3-6.3 3.9-12.1 3.1-3.1-.4-4.4-.2-4.4.7 0 .6-.5 2.9-1 4.9-1 3.5-1.5 3.8-8 5.9-6.2 2-7 2.6-7.6 5.3-.3 1.7-1.7 4.5-3 6.3-1.3 1.7-2.4 4.3-2.4 5.7 0 1.9-.6 2.6-2.8 3.1-1.5.3-4 2.1-5.5 4-2 2.5-4.2 3.8-8.6 5l-5.8 1.7-.6 5.6c-.5 4.4-1.2 6.2-3.1 7.8-1.3 1.2-3 4.1-3.6 6.5-.7 2.4-2.1 6.1-3.1 8.2-1.7 3.3-1.9 4.5-.9 9.4.5 3.1 1 11.2 1 17.9 0 12.3 0 12.4-3.6 18.8-4 7.3-3.9 9.9.4 11.4 1.5.6 7.3 3.6 12.9 6.9l10.2 5.9 11 16.7c6.1 9.2 11.5 16.7 12 16.7 1.7 0 3.3 7.8 2.6 12.5-.4 2.5-.2 5.8.5 7.9 1 3.2 1.5 3.6 4.6 3.6 2.7 0 3.6.5 4.3 2.3.6 1.4 2.6 2.8 5.7 4 4.6 1.6 5.2 2.3 9.7 10.2 4.2 7.4 5.5 8.9 9.8 11 2.7 1.4 6.8 4.7 9.1 7.3 14.9 16.5 16.5 17.7 30.7 23.7 7.4 3.1 17.3 7.2 22 9 4.7 1.8 10 4 11.6 4.9 1.7.9 3.6 1.6 4.4 1.6 1.5 0 9.5 4.3 22.6 12 4.4 2.6 10.3 5.5 13 6.4 5 1.6 5 1.7 9.3 10.9 2.6 5.6 4.2 10.6 4.2 12.9 0 2.8.8 4.6 3.3 7.4 1.7 2 4.8 6.8 6.7 10.8l3.5 7.1 7.2 2.2c4 1.2 9.1 3.6 11.4 5.3 2.5 1.8 5.5 3 7.3 3 4.6 0 10.8 3.9 11.9 7.5.5 1.6 1.9 4 3 5.2 1.8 2.1 2.2 2.1 4.8.8 4.7-2.5 8.5-1.9 12.9 2.1l3.9 3.6 8.9-.7 8.9-.7 4.1 3.6c4 3.6 4.1 3.7 7.1 2.2 3.9-2.1 19.6-2.1 27.1-.1 3 .8 7.5 1.5 10 1.5 4.3 0 4.6.2 5.5 3.2.8 2.4 1.7 3.4 4 3.9 1.7.4 4.4 1.3 6.2 2 2.9 1.2 3.5 1.1 5.5-.8 2.8-2.5 8.2-2.1 11.5 1 2.2 1.9 2.4 1.9 6.6.3 3.8-1.4 4.7-2.4 6.1-6 1.6-4.1 2.1-4.5 6.4-5.4 8.5-1.9 38.7-2.3 49.2-.7 5.2.8 9.8 1.5 10.3 1.5.4 0 .7 2.6.7 5.7v5.8l9.3 9.7c6.1 6.3 10.4 10 12.7 10.8 3.8 1.2 29.5 4 37.5 4 6.7 0 11.7 3.3 13.3 8.8 1.4 4.7 3.4 6.6 6.2 5.9 1.4-.4 2.6.3 4.1 2.4 1.5 2.1 2.9 2.9 5 2.9 3.2 0 17 6.7 31.7 15.3 7.6 4.4 10 6.4 12.9 10.8 2 3 6.7 8.8 10.5 13 5.9 6.7 6.8 8.2 6.8 11.6 0 5.2 2.6 15.2 4.9 18.3.9 1.4 2.3 4 2.9 5.8 1.5 4.3-.4 8.3-5.3 11.5-2.7 1.7-3.5 2.9-3.5 5.3 0 3.5 3 8 6 8.9 2.9.9 2.9 11.4 0 14-1.6 1.4-2 3.1-2 7.5v5.8l-4 1.6c-2.2.9-4.6 1.6-5.3 1.6-.6 0-3.5 1.1-6.3 2.4l-5.2 2.4 2.1 7.4 2.1 7.3 5.8 2.7c5.7 2.6 5.8 2.8 5.8 6.7 0 2.9.5 4.3 1.9 5 1.5.8 1.7 1.9 1.4 6.3-.2 2.9-.9 6.9-1.4 8.9-1 3.1-.7 4.4 1.8 10.4 2.9 6.8 3.1 7 7.2 7.7 4 .7 4.7.4 9.8-3.3 5.4-4 5.5-4.2 4.7-7.7-.4-2.1-.8-8.8-.9-14.9 0-8.7.3-11.7 1.5-13.1 2.1-2.7 13.4-8.5 15.6-8 1 .2 4.1 3.6 6.9 7.5 4.5 6.5 5.4 7.3 8.3 7.3 3.1 0 3.2-.2 3.2-3.8 0-3 .7-4.5 3.4-7.1 1.9-1.9 4.1-3.1 5.2-2.9 1.4.2 2-.4 2.2-2.5.4-3.5 4.9-5.7 11.7-5.7h4.5v4.4c0 3.5.5 4.7 2.4 6 2.3 1.5 2.8 1.4 7.3-.5 5.5-2.3 6.3-3.3 6.3-7.6 0-2.5-.9-4-4.5-7.1-4.1-3.6-4.5-4.4-4.5-8.5v-4.5l4.8-.6c9.7-1.4 9.8-1.4 11.1-5.7.9-2.9 2.1-4.4 4.4-5.5 3-1.4 3.2-1.8 2.9-6.2-.2-2.6-.9-5.2-1.6-5.7-.7-.6-2.3-3.8-3.7-7.2-1.5-4-3.1-6.5-4.6-7.2-1.6-.8-2.3-1.9-2.3-4 0-4.2-1.9-5.6-10-7.6-7.1-1.7-7.2-1.9-12.3-8.6-3.7-5-5.8-6.9-7.4-6.9-1.4 0-2.3.6-2.3 1.5s-.9 4.1-2 7.2c-1.1 3.2-2 6.7-2 7.9 0 3.6-2.9 5.3-8.2 4.7-4.1-.5-4.8-.9-5.9-3.6-.8-1.8-1.2-4.4-1-5.9.1-1.5-.3-3.7-1-5-2.5-4.8-9.4-12.1-12.8-13.5-4-1.7-6.8-4.7-7.6-8.4-.6-2.7-4-4.9-7.7-4.9-1.1 0-4.7-.9-7.9-2.1-5.4-2-5.7-2.2-4.7-4.4.8-1.9.6-3-1.1-5.8-1.1-1.9-2.1-4.4-2.1-5.5 0-2.4-6.9-8.2-9.8-8.2-3.5 0-5.2-1.1-5.2-3.4 0-3.5-4.8-7.3-10.2-8.1-3.1-.5-4.8-1.2-4.8-2.1 0-1-1.3-1.4-4-1.4-3.3 0-4.2-.4-5.2-2.5-.7-1.5-2.3-2.7-4.2-3.1-5.6-1.2-8.6-3.4-11-8.2-1.3-2.6-2.7-6.9-3.1-9.5-.6-3.7-1.3-5-3.9-6.6l-3.1-2-2.6 2.5c-2.3 2.2-2.9 2.3-5.7 1.3-5.4-1.9-6.5-5.4-6.7-22-.2-13.9-.3-14.8-2.7-18-2.5-3.3-2.5-3.5-1.2-9.9.8-3.6 1.2-7 1-7.6-.2-.5-3.1-1.8-6.4-2.9-4-1.2-7.2-2.9-9.3-5.1l-3.3-3.4-.6-14-.6-14.1-10.6-10.7c-11.1-11.3-14.1-15.7-18.3-26.7-1.4-3.7-3.4-8.3-4.5-10-1.1-1.8-2-4.4-2-5.8 0-3.9-1.7-7.5-3.9-8.2-1.1-.3-2.2-1.8-2.6-3.4-.3-1.5-3-5.1-6-8.1-3.4-3.3-5.5-6.4-5.9-8.4-.5-2.4-2.5-4.8-8.2-9.5-6-5.1-19.3-19.8-28.2-31.2-.9-1.2-1-2.4-.3-4.2.9-2.4.6-2.8-3.9-5.7-3.3-2.1-5.1-4-5.5-5.9-.3-1.6-1.7-3.9-3.1-5.1-1.5-1.5-2.4-3.5-2.4-5.4-.1-4.6-2.3-7.7-6.6-9.5-6.5-2.7-14.2-9.2-15.3-13-1.6-5.3-5.8-9.1-10.1-9.1-3.2 0-3.9-.5-5.8-3.9-1.2-2.1-2.2-5.5-2.2-7.5 0-3.9-1.7-5.1-8.7-6.3-2.1-.4-4.2-1.7-5.8-3.9-2.2-2.9-3.2-3.4-6.6-3.4-2.2 0-6.7-1.2-10.2-2.9-4.8-2.1-6.6-3.6-8.1-6.5-1.1-2.1-2.7-3.6-3.7-3.6-3.2 0-14.8-4.8-19.2-8-5.4-3.9-40.7-41.2-45.5-48.2-4.6-6.5-10.4-9.8-17.7-9.8-3.3 0-6-.7-8-2-1.7-1.1-4.7-2-6.8-2-2.3 0-6.4-1.3-10.5-3.4-5.2-2.6-7.1-4.2-8.4-7-1.5-3.1-2.3-3.6-5.1-3.6-1.8 0-4.2.7-5.3 1.5-1 .8-2.6 1.5-3.3 1.5-.8 0-2.7 1.2-4.2 2.6l-2.8 2.7-4.3-1.8c-5.5-2.2-6.8-3.3-6.8-5.9-.1-4-3.7-10.3-7.3-12.5-1.9-1.2-3.8-3.2-4.1-4.5C195.5 4 190.3 2 180.1 2c-5.4 0-9.1-.4-9.1-1 0-1.4-4.1-1.1-14.4 1.1zM847.8 667c-3.7 2.2-21.1 6-32.1 7-11.3 1-12.1.9-15.3-1-3.9-2.5-6.6-2-8.2 1.5-.6 1.3-3 3.4-5.3 4.6-4 2-4.2 2.2-2.2 3.3l2.1 1.1-2.3 5.7c-2 5-4.4 8-9.9 12.6-.9.7-1.6 2.2-1.6 3.2 0 1.1-1.8 3.9-4 6.1-2.2 2.3-4.2 5.1-4.4 6.3-.2 1.1-.9 4.8-1.5 8.2-.6 3.3-1.1 6.9-1.1 8.1 0 1.4-1.2 2.6-4 3.8-3.6 1.6-4 2.2-4 5.5 0 2.1-.6 4.3-1.4 5-.8.6-4.2 5.2-7.6 10.1-7.7 11.2-10.9 20.6-14 40.4-2.2 14.7-2.2 15.2-.5 22.5 1 4.1 2.3 13.1 3 20l1.3 12.5-3.4 3.6-3.5 3.6.2 16.5c.1 13.6-.1 17-1.5 19.6-1 1.9-2.4 3.2-3.5 3.2-1.5 0-1.9 1-2.3 5.7l-.5 5.7 6.2 6.1c5.3 5.3 6.3 6.8 6.7 10.6.6 5.4 5.3 15.2 11.3 23.7 4.5 6.3 4.5 6.4 4.5 14.8v8.4l3.5 1.4c2.3 1 3.9 2.6 4.9 4.9.9 2.3 2.4 3.8 4.5 4.5 2.4.8 3.1 1.7 3.1 3.6 0 2.1 1.2 3.1 7.5 6.3 4.1 2 7.5 4.3 7.5 5 0 .7.9 2.2 2 3.3 1.1 1.1 2 3.3 2 5 0 2.6.5 3 4.2 4.1 2.4.6 6 2 8 3s4.7 1.9 5.9 1.9c1.3 0 3.2.8 4.3 1.8 1.2 1 3.5 2.4 5.3 3.1 2.9 1.2 3.8 1 10.2-1.9 3.8-1.8 7.2-3.9 7.5-4.7.5-1.2 1.2-1.1 4.1.7 3.2 2 4 2.1 8.4 1 4.6-1.1 4.9-1.4 6.1-5.6 1.1-3.7 1.9-4.8 4.9-6 2-.8 4.6-1.3 5.8-1.1 1.3.2 3.3-.6 5-1.9 2.2-1.9 4-2.3 9-2.4 5.8 0 6.6-.3 10.2-3.6l4-3.5 8.9.2c8.6.2 9.3 0 14.6-3.2 15-9 18.3-9.6 28.8-5.4 3.4 1.4 6.5 2.5 7 2.5 1.9 0 8.5-5.1 10.1-7.9.9-1.6 4.7-4.7 8.4-6.9 9.4-5.6 12.6-10 13.5-18.2 1-10 2.3-16.7 3.5-18.2.6-.7 1.4-3.6 1.7-6.3 1.2-8.3 1.6-9.1 5.2-10.8 3-1.5 3.4-2.1 3.4-5.5 0-2.6.7-4.5 2-5.7 1.6-1.5 2-3.1 2-9 0-4.7-.5-7.8-1.5-9.1-1.6-2.1-2-6.4-.6-6.4 2.5 0 4.1-3.4 4.1-8.7 0-4.4.4-5.8 2.2-7.2l2.2-1.8-2.7-4.5c-1.4-2.5-4-9-5.8-14.4-2.9-9.1-3-10.2-1.9-14.4 2.7-10.1 2.5-15.4-1.3-24.8-4.8-12-6.1-18.9-4.8-25.3.6-2.7 1.1-7.2 1.1-9.8 0-4-.3-5-2-5.4-1.6-.4-2-1.4-2-5 0-2.5.4-5.7.9-7 .8-2.1.5-2.9-2.1-5.3-1.6-1.6-3.9-4.6-5-6.7-1.2-2.5-3.1-4.4-5.3-5.3-3.5-1.4-9.2-8.5-11.1-13.9-.7-1.9-1.9-3.1-3.2-3.3-2.8-.4-4.4-3.4-3.6-6.7.8-3.2-.8-5.2-6.1-7.6-2.2-1-4.8-2.4-5.7-3.1-1.4-1-2.3-.9-5 .3-3 1.4-3.7 1.4-6.8.1-1.9-.9-6-1.8-9-2.1-5.4-.6-5.5-.7-11.2-8.1-3.2-4.1-6-8.7-6.3-10.2-.4-1.5-2.2-4.7-4.1-7.2-2.6-3.4-4.3-4.7-7.2-5.2-2-.4-5.1-1.8-6.9-3.1-2.7-2.1-3.5-2.3-5.3-1.3-3.6 1.9-23.8 2.2-26.3.5-2.5-1.7-3.6-1.8-5.9-.5z"/></svg>
