<svg version="1.0" xmlns="http://www.w3.org/2000/svg" width="1365.333" height="1365.333" viewBox="0 0 1024 1024"><path d="M363.8 1.3c-5 1.6-7.1 4.7-5.8 8.2.9 2.3.5 3.2-3.2 7.6-2.3 2.7-5.3 5.2-6.7 5.5-5.1 1.1-5.3 1.3-4.8 4.7.2 1.7 1.1 4.7 1.8 6.5 1.3 3 1.2 3.4-.4 4.3-2.2 1.3-2.2 3.2.3 9.5 1.3 3.5 1.7 6.4 1.3 8.8-.5 3.2-.2 4 1.8 5.4 1.3.9 3.2 1.5 4.2 1.4 1.1-.2 1.7.3 1.7 1.7 0 1.2-.4 2.1-1 2.1-1.8 0-1 1.8 1 2.3 1.3.3 2 1.4 2 3 0 1.3.7 3 1.5 3.7 1.3 1 1.2 1.7-.5 5.1-1.2 2.3-2 5.8-2 9.1 0 4.5.4 5.7 3.1 8.4 3.7 3.8 3.1 5.4-1.8 5.4h-3.5l.7 4.6c.6 4 .4 4.8-1.4 6.1-1.2.8-2.1 2.4-2.1 3.6 0 1.2-.8 3.8-1.9 5.7-3.3 6.3-3.5 7.9-.9 11.6 1.2 1.8 2.8 3.4 3.4 3.4 1.8 0 4.4 3.5 4.4 5.8 0 1.6-.7 2.1-3.2 2.4-2.9.3-3.3.7-3.6 3.4-.3 2.8-.6 3-3.4 2.6-2.1-.3-3.6-1.5-5.1-3.9-1.9-3.3-2.3-3.5-6.4-3-3.5.4-4.3.2-3.9-.9.3-.8.8-2 1.1-2.7.9-2-7.8-5.7-13.4-5.7-2.7 0-7.8.9-11.3 2-8.4 2.6-9.5 2.5-11.3-.9-1.5-2.9-1.1-8.4 1-17.3.6-2.1.2-2.9-1.9-4.3-3.1-2.1-3.3-4-.6-8 2.7-4.1 2.6-8.6-.4-11.4l-2.4-2.2-2.2 3.6c-3.2 5.2-13 11.4-21.2 13.5-3.8 1-8.3 2.9-10.1 4.3-4.6 3.5-6.9 3.9-11 2.2-6.7-2.8-7.1-2.5-12.7 9.2-6.7 14.1-9.9 18.1-14.8 18.5-3.2.3-3.8.7-4.2 3.3-.3 1.6-1.5 4.9-2.8 7.3-1.8 3.3-2 4.7-1.2 6.2 1.2 2.3 1.1 2.3 6.4 1 5.2-1.2 7.7.1 4.4 2.2-1.3.8-4 2.1-6 2.9-3.5 1.2-4.3 1.1-9-1-7.6-3.4-11.2-3.7-14.2-1.4-1.3 1.1-4.6 2.8-7.3 3.8-9.6 3.6-15.5 11.5-19.9 27-2.9 10.1-3.4 11.2-6.8 13.4-3.5 2.4-3.6 2.6-3.6 8.6 0 7.1 1.2 9.2 5.8 10.1 3.2.6 3.2.6 3.2-3.4 0-3.7.3-4.1 2.8-4.4 1.8-.2 2.8-1 3-2.3.3-2.3 5.3-5.5 8.6-5.5 4.1 0 6.3 2.7 8.1 9.7 1 3.8 3.6 10.3 5.8 14.5 3.8 7.5 6.1 9.5 7.3 6.3.9-2.2 3.4-1.8 3.4.5 0 1.2-.6 3.3-1.4 4.8-.7 1.5-1.6 4.2-2 6.1-.3 1.9-1.7 4.9-3 6.6-1.4 1.7-2.6 4.7-2.8 6.6-.2 2.6-1.1 3.8-3.8 5.6-3.5 2.1-4.5 3.1-8.1 7.2-3 3.4-2.7 16.3.7 24.4 4.5 10.8 8.5 13.5 13.5 9.3l3.1-2.6 3 2.5c1.6 1.4 3.7 2.5 4.7 2.5s2.6.9 3.6 2 2.3 2 2.9 2c.7 0 4.5-3 8.5-6.6l7.2-6.7 6.7 1.1c5.9 1 7.1 1.6 10.2 5.1 4 4.5 9.7 6 14 3.6 2-1.1 2.9-1.1 5 0 2.2 1.2 2.6 1.9 2.2 4.9-.4 3.6-4.8 8.6-7.6 8.6-1.8 0-3.5 6.4-2.9 11 .3 2.2.9 4 1.2 4 .4 0 .5 5.8.3 12.8l-.4 12.9 4.1 3.5 4.1 3.5-2.5 3.4c-1.4 1.9-3.3 4.7-4.2 6.3-1 1.7-3 4.2-4.6 5.6-2.3 2.2-3 4.1-4.3 12.1-.8 5.2-1.3 10.6-1 12 .4 2-.2 3.3-2.2 5.1-1.5 1.4-3.5 2.8-4.5 3.1-.9.4-2.2 1.7-2.8 3.1-1.2 2.5-4.7 4.6-7.9 4.6-1.3 0-2 .7-2 1.9 0 1.1-1.1 3.3-2.4 4.8l-2.5 3 2.4 5c1.3 2.9 3.2 5.4 4.3 5.7 2.6.9 3.6 3.5 1.7 4.2-2.1.9-2.1 10 .1 10.8 1.3.5 1.1 1.1-1 3.9-2.8 3.6-3.7 10-1.8 11.9.9.9.2 1.8-3.3 4-3.2 2-4.7 3.7-5.1 5.7-.5 2.1-1.8 3.4-5.9 5.4-4.5 2.2-5.3 3-5.9 6.2-.4 2-1.3 3.8-2 4.1-.8.3-1.7 2-2.1 3.7-.8 3.4-1 4.3-2.1 12.2-.4 2.9-1.5 6-2.8 7.4-2.1 2.3-2.1 2.3-.1 3.5 1.1.6 5.1 4.4 8.9 8.3 3.8 4 7.3 7.3 7.8 7.3s1.4-1.4 1.9-3c.9-2.4 1.7-3 3.9-3s4.2-1.5 9.3-7.1c5.4-5.7 7.3-7.1 10.4-7.6 4.7-.7 6.6-2.1 6-4.5-.5-1.6 0-1.8 3.1-1.6 2.1.2 4 .7 4.3 1.1.3.5 2.9-.4 5.8-2 4.1-2.2 5-3.2 4.7-4.8-.7-2.8.4-4.1 3.9-4.8 8.7-1.7 13.7-4.2 16.6-8.3 1.5-2.2 3.1-5.3 3.5-6.8.3-1.4 1-2.8 1.4-3.1.5-.3 3.4.7 6.5 2.2 3.8 1.9 6 2.4 6.9 1.8.7-.6 4.6-3.2 8.6-5.8 4-2.7 8.4-6.2 9.7-7.8 4.1-4.8 11-3.1 12.6 3 .4 1.9 2.6 6 4.7 9.1 3 4.4 4.7 5.9 7.7 6.8 2.1.6 4.8 2.4 6 3.9 3.8 5.3 10.1 8.8 16.7 9.3 5.6.5 6.1.7 7.1 3.4.8 2.4.6 3.1-1.3 4.6-1.2 1-2.2 2.8-2.2 4.1 0 3 4.8 7.9 7.7 7.9 1.9 0 2.3-.5 2.3-3.4 0-3 .4-3.4 3.2-4 1.8-.3 4.1-1.5 5.3-2.5 1.1-1 3.4-2.1 5-2.4 1.7-.3 5-1.3 7.5-2.2 6.2-2.3 11.7-2.1 14.5.5 1.8 1.7 2.7 2 4.3 1.1 3-1.6 5.6-6.2 6.2-11.1.4-3.3 1.1-4.7 2.7-5.6 3.8-1.8 6-4.4 6.7-7.5.7-3.7 5.7-6.9 10.8-6.9 2 0 4.3-.3 5.2-.6 1.4-.5 1.3-.9-.4-3.1-1.1-1.4-2-3-2-3.4 0-.5 1.7-2.5 3.8-4.4 3.1-2.9 4.2-3.4 6.7-2.9 1.7.3 6.1 1 9.8 1.5 7.2.9 17 5.6 23.3 11.2 2.5 2.1 4.7 3 8.9 3.4 5 .5 5.8.9 7.2 3.7 2.2 4.2 3.3 4.7 6.4 2.9 4.2-2.5 7.2-1.1 12.2 5.9 3.5 5.1 4.7 7.7 5.6 13.3 1 5.6 2.2 8.6 6.2 14.7 2.9 4.4 5.7 10.1 6.6 13.5 1 3.9 2.6 7 4.8 9.3 1.8 1.9 5.6 8.2 8.4 14 6.1 12.6 6.3 12.9 12.3 16.4 2.6 1.5 7.6 5.6 11.1 9.1 5.1 5.1 7.1 8 9.7 14.1 2.9 7 3.1 8.3 2.5 14.3-1 9.8-6.1 23.9-10.2 28.2l-3.4 3.6-.4 16.6c-.4 14.5-.7 17.3-2.7 21.9-1.4 3.3-2.2 7.3-2.3 10.8 0 5 .4 6 4.2 10.8 3.2 4 4.4 6.5 4.9 10.3.6 4.1 1.3 5.5 4.1 7.6 4.7 3.6 8.3 11 8.3 17 0 9.6 5.6 14.4 25.7 21.8 6.4 2.4 12 4.9 12.4 5.6.5.9-.8 2.4-4.2 4.6-2.7 1.9-4.9 4-4.9 4.9 0 .8.8 3.1 1.9 5.2 1 2 2.2 5.2 2.6 7 .7 3.4 4.5 6.2 8.4 6.2 5.6 0 11.4 6.5 14.2 15.7 1.2 4.2 1.1 4.3-2.4 8.2-2.2 2.4-3.8 5.4-4.2 7.8-1.4 7.9-1.9 8.8-6.1 9.4-4.8.7-9.4 2.6-9.4 3.7 0 2 4.8 5.2 7.8 5.2 2.8 0 3.2.4 3.2 2.5 0 1.8-.7 2.8-2.6 3.6-1.5.5-4.8 2.7-7.4 4.9-6.2 5.2-7.1 8.9-3.2 13.5 1.5 1.9 3.3 3.4 4 3.4.6.1 1.2.9 1.2 2 0 1 1.2 3.5 2.6 5.6 2.7 4 2.2 5.5-2.1 5.5-1.8 0-2 .5-1.7 3.5.3 2.6 0 3.6-1.2 4.1-1.1.4-1.4 1.3-1.1 2.4.4 1.4 0 1.9-1.7 2.2-2.1.3-2.4 1-3 8-.4 4.2-1.2 9.5-1.8 11.7-.7 2.6-.7 4.8 0 6.5.9 2.4.5 3-6 8.2-3.9 3.1-7 6.2-7 6.9 0 1.1-3.9 2.1-11.2 2.9-1.5.1-3.3.8-4.1 1.5-.8.6-2.1.9-3 .5-.8-.3-1.8-.1-2.2.5-.3.6-1.7 1.1-2.9 1.1-1.9 0-2.5.7-2.9 3.3-.3 2 0 3.5.8 3.9.7.4 1.6 2 1.9 3.4.9 3.3 6.6 12.2 9.4 14.8 1.9 1.7 3.2 1.8 13.1 1.2 9-.6 11.4-.5 14 .8 1.7.9 3.1 2.3 3.1 3.2 0 1 .6 1.3 1.9.9 1-.3 2.3 0 2.9.7.6.7 3.1 2.2 5.6 3.3 3 1.3 4.6 2.6 4.6 3.8 0 2.3 1.4 5 6.1 11.3 3.7 5.1 3.9 5.2 10.2 5.8 3.6.4 8.2 1.6 10.2 2.7 3.6 1.9 3.8 1.9 5.1.2.7-1 1.4-2.5 1.4-3.3 0-2.7 2.9-5.7 6-6.3 3.9-.8 3.9-2.9 0-7.4-2.4-2.7-3-4.3-3-7.8 0-3.9-.4-4.6-2.9-5.9-3.2-1.7-4.1-3.4-4.1-7.7 0-1.7-.5-3.9-1.1-5-1.1-2.2-.3-6.1.9-4.4 1.4 2 6.5 3.7 7.2 2.4.5-.8 2.6-.9 6.8-.4 3.3.4 6.9.4 8 .1 1.8-.6 4.8-6 5.4-10 .3-1.7.6-1.7 3.4.8 2.6 2.1 4.2 2.6 8.6 2.6 5.7 0 7.8-1.2 7.8-4.3 0-1.6.5-1.8 2.6-1.3 2.3.6 2.6.4 2.2-1.2-.5-1.6.3-2.3 3.5-3.6 4.8-1.9 5.7-1.2 5.7 4.6 0 3 .4 3.7 2.2 4 1.5.2 2.5 1.3 3.2 3.5.5 1.8 1.3 3.3 1.7 3.3.5 0 1.8.9 2.9 2 1.1 1.1 3 2 4.3 2 1.9 0 2.5.8 3.5 4.5.7 2.5 2.7 6.2 4.5 8.1 3 3.3 3.6 3.5 5.6 2.4 2.2-1.1 5-1 9.9.5 1.4.5 2.2.3 2.2-.5 0-1.5 9.1-9.9 10.8-10 .6 0 1.2.4 1.2.8 0 .5.6 1.6 1.3 2.6 1.3 1.7 1.7 1.6 8.8-1.7 4.1-2 8.3-3.7 9.4-3.9 1.2-.2 2.1-1.2 2.3-2.6.2-1.2 1.4-3.3 2.8-4.7 1.3-1.3 2.4-2.9 2.4-3.5 0-1.6 4.8 1.9 5.5 4.1.6 1.8 5.2 4.9 7.3 4.9.4 0 1.8-2 3-4.5 1.4-3 3-4.7 4.6-5.1 1.4-.3 3.7-2.2 5.2-4.1 2.3-3 2.5-3.9 1.5-5.5s-.9-2.2.5-3.2c1.4-1.1 1.5-1.5.3-3.4-1.8-2.9-.4-5.1 4.4-7.5 4-1.9 4.8-4.2 1.9-5.1-1-.4-3.3-2-5-3.7-2.5-2.4-3.2-4-3.2-6.9 0-3.6.1-3.8 4.1-4.3 2.4-.3 5-.1 6.1.6 1.6 1 2.2.8 3.9-1.2 1-1.3 1.9-3.2 1.9-4.2 0-1.1 1-2.4 2.3-3 1.2-.5 3.1-3 4.2-5.4 1.1-2.5 2.5-4.5 3.2-4.5 2.6 0 1.3-5-2.3-9-3.1-3.4-3.5-4.5-3-7.1.8-4.1-.7-6.6-4.4-7.4-3.6-.8-4.4-1.9-3.1-4.3 1.6-2.9-2.8-6.9-8.5-7.8-5-.7-5.3-1.1-7.5-9.8-.9-3.6-2-5.3-4.1-6.5-2.2-1.3-2.8-2.3-2.8-5.2 0-2.7-.7-4.2-3.1-6.3-2.8-2.5-2.9-2.9-1.5-4.5.9-1 1.6-3.1 1.6-4.7 0-2.8.3-3 7.8-5.2 4.3-1.2 9.2-2.2 11-2.2 3.4 0 3.9-.4 7.8-6.4 2.1-3.2 2.4-4.6 1.9-7.7l-.7-3.9h-11.7l-2.6-4.4c-2-3.4-3.7-4.9-7.1-6.2-5.5-2.1-6.6-4.1-5.8-10.1.8-6.5-2-9.8-9.4-10.8-5.1-.7-5.8-1.2-11-7.5-5.5-6.7-6.7-11.7-3.6-15.1 1.5-1.7 1.4-2-.6-4.8-2.7-3.9-4.3-3.9-6.9.1-1.1 1.8-2.9 3.9-4 4.6-1.2.7-2.1 1.9-2.1 2.6 0 2.9-3.5 2.2-6.7-1.3-3.4-3.7-5.1-9.5-3.3-11.5 1.5-1.9.3-4.6-3.6-8.3l-3.4-3.2v-12.3c0-7.7.6-14.4 1.5-17.8 2-7.5 1.9-8.9-.5-8.3-1.2.3-3.1-.5-5.1-2.1-1.7-1.4-3.4-2.6-3.9-2.6-1.4 0-2.9-5.6-1.9-7.1 1.2-2 1.1-2.9-.4-2.9s-3.7-4.1-3.7-6.9c0-1-.7-2.4-1.5-3.1-1.8-1.5-2-4.7-.2-5.3.9-.3.7-.9-.5-2.4-1-1.1-1.8-3.2-1.8-4.6 0-3.2-2.9-3.8-3.7-.7-.3 1.1-1.3 2-2.3 2-1.8 0-5-3-5-4.7 0-.5-1.1-1.6-2.5-2.3-1.4-.7-2.5-2.1-2.5-3 0-.9-1.3-2.6-2.9-3.8-2.9-2.1-5.3-5.8-10.7-15.7-6.8-12.7-13.6-22.4-17-24-2.3-1.1-3.4-2.3-3.4-3.8 0-1.2-1.6-4.2-3.5-6.6-4-5-3.9-4.6-2.4-7.3 1-1.9.7-2.5-2.2-4.9l-3.4-2.8 1.6-4.3c.9-2.4 1.9-5.1 2.4-6 .4-1.2-.1-2.5-1.9-4.3-1.4-1.4-2.6-3.4-2.6-4.5 0-1-1.3-3.9-3-6.3-2-2.9-3-5.7-3-8.1 0-3.1-.4-3.8-3.2-5-3.1-1.3-3.4-1.2-5.3 1-2.5 2.9-5.2 3.1-8.1.3-1.8-1.6-2.1-2.8-1.6-6.5.5-4.3.4-4.4-2.6-4.4-2.1 0-3.1-.6-3.5-2-.3-1.1-1.9-2.8-3.6-3.7-3.4-2-4-4.7-1.4-7.5 1.5-1.7 1.4-1.9-1.6-2.9-1.7-.6-3.6-1.9-4.1-2.9-1.6-3-1.2-11.9.7-15.3 3.1-5.7 4.4-6.7 6.4-5.6 1.7.9 1.9.6 1.9-2.4 0-1.9-.7-4-1.5-4.7-.8-.7-1.5-2.1-1.5-3.1 0-1.3-.7-1.9-2.3-1.9-1.3 0-4.5-1.1-7.1-2.4-2.6-1.3-6.3-2.7-8.2-3-2.4-.5-3.4-1.2-3.4-2.5 0-3.1-3.2-5.1-7.2-4.5-2.9.5-4 .2-5.4-1.5-1-1.1-2.9-2.1-4.1-2.1-1.7 0-2.7-1-3.7-3.5-1-2.2-2.6-3.9-4.3-4.6-4-1.5-13.1-10.7-13.8-14.1-.7-3.1-3.9-5.3-7.1-4.9-2.3.2-5.4-3.6-5.4-6.7 0-1.2-1.2-2.2-3.5-3.1-2-.7-4.5-2.6-5.7-4.2-1.2-1.6-3.1-2.9-4.3-2.9-2.6 0-4.5-1.8-3.8-3.6.3-.8 0-1.4-.6-1.4s-1.1-.8-1.1-1.9c0-1.1-1.2-2.3-2.9-3.1-1.6-.6-4.1-2.5-5.7-4.1-2.3-2.4-3.6-2.9-7.4-2.9-4.8 0-9-2.1-9-4.6 0-.8-.7-1.4-1.5-1.4s-1.5-.9-1.5-2c0-1.4-.7-2-2.1-2-1.1 0-1.7-.5-1.4-1 .3-.6 1.5-1 2.5-1s3.2-1.2 4.9-2.6c1.7-1.4 4.7-2.8 6.8-3 6.6-1 9-2.3 9.6-5.4.4-1.7 1.5-3.1 2.7-3.5 3.1-1 2.5-5.4-1.5-11.1-3.4-4.8-4.1-7.6-2.9-10.8.9-2.2 4.1-2 5.4.4 1.1 2.1 7.5 2.9 8.2 1 .8-2.5 16.8-.7 16.8 1.9 0 .6 2.3.7 5.4.4 5.3-.5 5.5-.5 7 2.6.9 1.7 2.1 3.1 2.6 3.1s2.1 1.2 3.5 2.6c2.1 2 3.4 2.5 6.8 2.3 2.3-.1 5.1.2 6.3.9 1.9 1 2.3.7 4.2-3.7 2.7-6.2 7.7-10.4 10.4-8.8 1.6 1 2.1.9 2.9-.6.6-1 2.2-1.7 3.8-1.7 1.6 0 3.4-.7 4.1-1.5 1.8-2.2.3-7-2.7-8.4-2.1-.9-2.3-1.4-1.3-2.6 2.4-2.9 14.4-8.5 18.2-8.5h3.8v-4.4c0-2.5.5-4.8 1-5.1.6-.4.3-1.6-1-3.2-2.4-3.1-2.5-4.1-.4-6.4 1.4-1.6 1.4-1.8-.8-2.4-1.3-.4-3.8-2.1-5.6-3.7-2.9-2.5-4.2-2.9-8.5-2.8-6.4.2-12.2-1.2-12.1-2.8.1-.7.2-2.5.3-4.1.1-2 .8-3.2 2.1-3.6 2.8-.9 2.5-4.2-.7-7.4-1.6-1.6-3.6-4-4.6-5.4-1.4-2.1-2.6-2.7-5.5-2.7-2-.1-5.5-.8-7.7-1.6-2.2-.9-5-1.8-6.2-2.1-2.7-.6-5.7-3.8-4.9-5.2.4-.6 3.2-1.8 6.2-2.8 4.4-1.4 5.9-1.5 7.4-.5 3.3 2 5.8 1.4 7.4-1.7.9-1.6 3.4-4.5 5.6-6.3 2.2-1.9 4-4.2 4-5 0-.9-3.1-3.5-6.9-5.8-5.5-3.3-7.1-4.8-7.6-7.1-.5-2.1-1.7-3.5-4.1-4.6-1.9-.9-3.4-2.2-3.4-2.9 0-.7-.8-1.5-1.8-1.8-1-.4-3.2-3.4-4.8-6.9-2.6-5.5-3.3-6.2-5.7-6-2 .1-2.7-.3-2.7-1.6 0-2.2-5.2-6.1-8.3-6.1-1.2 0-2.8-.5-3.4-1.1-1.6-1.6-8.1-.2-9.5 2.1-.9 1.4-1.9 1.8-3.6 1.3-2.2-.5-11.4 1.8-15.6 3.9-1.3.7-2.1.6-2.6-.2s-1.8-1-3.4-.6c-1.9.5-2.6 1.3-2.6 3 0 1.3-.7 2.6-1.5 3-1 .4-1.3 1.4-.9 3.6.6 2.9.5 3-2.8 3-3.4 0-3.6.2-4.2 4-.5 3.4-1 4-3.1 4-1.4 0-2.5-.6-2.5-1.3 0-.7-2.2-3.6-4.8-6.5-3.5-3.8-5.6-5.2-7.5-5.2-3.2 0-6.7-3.2-6.7-6 0-2.2-1.6-2.5-5.3-1.1-1.9.7-3.6.2-8.6-2.4-3.5-1.9-6.9-3.1-7.6-2.9-.7.3-1.6.1-2-.5-.3-.6-1.3-1.1-2.1-1.1-2.6 0-11.4-8.1-11.3-10.4 0-1.1-1.4-5.8-3.2-10.2-2.6-6.3-3.9-8.4-6-9.1-2-.8-2.7-1.9-3.2-4.9-.4-2.1-1.4-5.2-2.2-6.8-.8-1.5-1.5-4.1-1.5-5.6 0-3.2-2.3-6-4.9-6-1 0-2.4-.6-3-1.4-.9-1.1-.3-1.6 3.4-2.7 4-1.2 4.5-1.7 4.5-4.2 0-1.7 1.4-4.6 3.5-7.4 4.8-6.3 4.7-7.8-.2-4.6-2.6 1.7-2.7 1.7-2 0 .4-1 .7-2.3.7-2.8s.8-1.3 1.8-1.7c.9-.4 4.1-3.3 7.1-6.4l5.3-5.8-.4-6.1c-.5-7-2.1-8.9-7.5-8.9H473v-7.5c0-6.7-.2-7.5-1.9-7.5-1.6 0-2 1-2.6 5.2-.7 5.5-2.7 8-8.9 11.4-2.3 1.3-3.3 1.3-5.6.4l-2.9-1.2V99c0-6.4-.4-10.6-1.3-11.9-1.1-1.8-1.1-2.3.1-3 2.1-1.3-.1-4.4-5.8-8-5.2-3.4-6.8-5.8-5.1-7.5 1.8-1.8 1.1-4.1-2-7.1-1.6-1.6-3-3.9-3-5.2 0-1.2-.9-2.7-1.9-3.3-1.1-.5-2.3-1.9-2.6-3-.3-1.1-1.2-2-1.8-2-.7 0-1.7-1-2.2-2.3-.6-1.2-2-2.6-3.2-3.2-1.2-.5-2.4-1.8-2.7-2.8-.2-1.1-.9-1.6-1.5-1.3-1.2.8-6.9-10.2-9.6-18.2-.9-2.9-2.8-6.6-4.1-8.2-2.1-2.5-2.8-2.7-5.4-2-1.6.5-5.5.8-8.6.8-5.3-.1-6.6.5-7.7 3.6-.2.6-1.7 0-3.4-1.2-2.2-1.5-3.4-3.6-4.5-7.4-1.3-4.8-1.7-5.3-4.4-5.5-1.6-.1-4.6.3-6.6 1z"/></svg>
