<svg version="1.0" xmlns="http://www.w3.org/2000/svg" width="1365.333" height="1365.333" viewBox="0 0 1024 1024"><path d="M579.3 6.7c-2.2 3.8-4.4 7.9-4.8 9.3-1.4 4.8-7.6 14.9-9.5 15.5-1.2.4-2.2 2.3-3 5.5-1.1 4.7-1.3 4.9-3.8 3.9-4.8-1.8-16.2-3.9-21.6-3.9-5 0-5.2.1-6.4 3.3-2.4 6.7-.9 9.1 3.7 5.8 3.5-2.5 5.9-2.6 10.9-.5 7.1 2.9 12.2 9.5 12.2 15.6.1 6.1 2.5 13.3 4.6 13.6 1 .1 3.5.7 5.4 1.2 1.9.5 4.7 1.2 6.3 1.5 3 .6 3.8 3.9 1.1 4.9-1.5.6-1.5.8 0 3.1 1.9 2.8 2.1 4.5.5 4.5-.6 0-3.2 1.8-5.8 4-2.6 2.2-5.2 4-5.8 4-1.6 0-2.9-4.3-1.5-4.8.6-.2 2.6-1.3 4.4-2.5 4.7-3.2 5-7.5.8-11.1-5.8-4.9-8.5-3.4-10 5.6-1.4 8-2.9 9.3-11.3 10-7 .6-10.3 2.8-12.5 8.3-2 5.2-1.9 5.1-3.9 3.3-1.4-1.1-4-1.5-10.8-1.4-8.8.1-9 .1-9.9 2.8-.8 2.1-.6 3.2.7 4.6 2.1 2.4 2.2 8.1.1 11-1.5 2.2-1.5 2.5.6 4.7 1.7 1.8 2.1 3.3 1.9 7.6-.2 3.7.3 6.5 1.6 8.9 1.4 2.6 2 7.1 2.7 18 1 16.9.7 20.1-2.6 26.1-1.9 3.3-4 5.2-8.1 7.4-4.9 2.7-5.7 3.5-6.7 7.3-.9 3.8-1.7 4.6-6.2 6.9-2.8 1.4-7.8 5-11 7.8-5.4 4.9-6.4 5.4-12.2 6-7.9.8-10.4.1-10.4-3 0-4.9-4.5-6.6-11.9-4.5-2.5.7-3.9.6-4.9-.2-1.1-1-1.7-.8-2.8.7-2.5 3.4.5 9.9 5.7 12.6 2.1 1 4 2.8 4.4 3.9.8 2.5 5.1 2.7 7.6.4 2.3-2.1 4.1-.9 3.9 2.4-.4 5.7 0 7.3 2.3 8.1 1.7.7 3 .3 5.5-1.6 4-3 5.5-2.1 5 2.8-.2 2.8-.8 3.5-2.8 3.7-1.4.2-3 .9-3.5 1.6-.8 1.1-2 1-6-.2-2.8-.8-6.7-1.4-8.8-1.4-3.6 0-4-.3-5.7-4.4-1.7-3.9-2.3-4.4-5.5-4.6-1.9-.1-4.2-.2-5.1-.2-1-.1-2.1 1.2-2.8 3-.6 1.7-3.2 5-5.8 7.3-4 3.7-5 4.1-6.3 3.1-1.2-1-2.1-1-4.1-.1-2.2 1-2.5 1.7-2.3 4.9.2 2.4-.6 5.5-2.1 8.6l-2.3 4.9 2.3 4.4c3.1 5.8 3.5 15.3.9 19.8-1.5 2.6-1.7 3.8-.9 5.9.5 1.4 1.4 2.6 1.9 2.6.4 0 1.1 1.4 1.5 3.2.5 2.4.9 2.9 1.8 2 2.8-2.8 7.7-.2 7.8 4.2 0 1.1-1.2 3.3-2.7 4.8-4.1 4.3-9.1 3.9-19.7-1.6-14.5-7.4-15.6-7-15.6 5.9 0 7-.2 7.9-2.5 9.7-2.1 1.6-2.5 2.8-2.5 7.4 0 3.5-.7 6.9-2 9.4-2.7 5.3-2.5 8.1.8 11.2 2 1.9 4.1 2.7 8 3 2.9.3 5.8 1 6.4 1.6 1.6 1.6-6.8 3.6-11.2 2.7-9-1.8-9.2-1.7-11.9 6.3l-2.4 7.3-7.4 4.1c-6 3.5-7.5 4.8-8.4 7.7-3.7 11.6-9.4 25-11.5 27.2-2.1 2.2-2.4 3.2-1.8 6.3.7 4.3-1.5 7.6-5.1 7.6-2.6 0-5.1 2.5-6.6 6.8l-1.1 3.2H311.1l-2 5.5c-2.6 6.9-2.6 7.2-.1 8.5 2.9 1.6 2.5 5.6-1 10-2.1 2.7-3 4.9-3 7.6 0 2.6-1.1 5.5-3 8.6-2.5 4-3.7 5-7.3 5.9-5.8 1.4-10.9 7.7-10.5 12.9.3 2.9.8 3.6 3.6 4.4 4.2 1.2 4.2 3.8-.1 7-4.4 3.4-8 10.4-10.2 19.6-.9 4.1-2.8 9.2-4.2 11.3-1.3 2.1-3.7 7.1-5.2 11.2-1.7 4.2-4.8 9.8-7.6 13.1l-4.6 5.8.4 26 .4 26.1 5.3 2.7c2.9 1.6 6.4 2.8 7.9 2.8 2.8 0 5.3 2.2 10.5 9.4 2.8 3.7 3 3.8 7 3.1 6.1-1.1 10.5-1 11.8.3.6.6 1.4 3.4 1.8 6.3.5 3.9.3 5.5-1 7.2-2.3 3-3.9 7.8-5.5 16.9-1.1 6.2-2.5 9.5-7 17-5.1 8.4-5.6 9.7-5 13.3 1.1 7.1 2.5 9 7.1 9.3 2.6.2 4.9 1.1 5.9 2.2 1.6 1.7 1.6 2.5.5 6.7-2.1 7.8-4.8 11.2-19.9 25.3-20.7 19.5-20.7 19.6-4.7 33.5 12.8 11 12.6 10.7 12.6 26 0 7.2 0 7.2 4.3 11.1 2.8 2.7 6.3 4.6 10.5 5.8 5 1.6 6.2 2.3 6.2 4 0 1.3 3.6 5.7 9.4 11.5 7.6 7.6 9.7 10.3 10.7 14 .9 3.2 3.8 7.7 9.6 14.8l8.3 10.2 5.8.3 5.7.3 2.7 5.1c2.1 3.9 3.7 5.5 7 6.9 2.4 1 6.4 3.8 8.9 6.2 3.2 3.1 5.7 4.5 8.5 5 2.1.3 5.4 1.7 7.2 3 3 2.3 3.8 2.4 10.8 1.8 7.2-.7 7.6-.6 10.3 1.9 3.2 3.1 8.7 4.3 12.9 2.8 1.9-.6 8.8-.7 19.8-.2 18.4.9 19.4 1.3 19.4 7.3 0 2 1.3 4.4 4 7.4 3.1 3.6 4 5.4 4 8.3 0 2.6.7 4.3 2.6 6.1 1.4 1.3 3.5 4.1 4.5 6.1 1.7 3.3 2.4 3.8 5.4 3.8 1.9 0 3.5.5 3.5 1.1 0 .8 1.9.9 6.3.5 7.4-.8 9.6.4 15.2 7.7l3.6 4.7h13.2c8 0 15.5.6 19.2 1.5 3.3.8 8.4 1.4 11.3 1.5 3.9 0 5.2.4 5.2 1.5 0 2.8 2.2 6.3 4.7 7.4 1.4.7 4.5 2.8 7 4.8 4.8 3.9 4.6 3.3 2.2 12.5-.7 2.9-2.7 5.1-8.4 9.9-9.1 7.5-9.8 10.1-3.4 12 3.1 1 4.5 1 5.9.1 1.1-.6 3.6-1.4 5.7-1.8 3.4-.5 4.2-.2 7.2 3 3.8 4 4.7 4.2 7 2.2.9-.7 4.3-1.8 7.5-2.4 7.1-1.4 8.4-2.4 9.2-6.8.8-4.2-1.1-7.3-6.8-11.4-2.7-2-5.1-5-7-8.8-3.2-6.5-3.4-8.4-1.3-10.2.9-.7 3.2-4.4 5.1-8.1 2.4-4.6 4.2-6.9 5.4-6.9 1 0 2.8-.9 4.1-1.9 2.3-1.8 2.4-2.6 2.4-13.3 0-14.3 1.6-17.9 12.4-27 1.1-.9 3.1-5.5 4.6-10.5 3.5-11.7 3.8-12.3 9.5-15.7 7.1-4.3 7.2-5.6.4-5.6-4.9 0-5.5-.2-6.4-2.6-1.6-4-1.2-5.4 1.8-7.1 1.6-.9 3.6-2.9 4.4-4.4 1.1-1.8 2.6-2.9 4.5-3.1 2.2-.2 2.9-.9 3.1-3.1.3-2.6.6-2.8 3.5-2.2 3.7.8 6.7 3.2 6.7 5.2 0 1.2 1.1 1.3 5.3.8 6.4-.8 9.7 1.3 11.5 7.4.7 2.2 1.6 4.3 2.1 4.5.5.3 2.4-2.4 4.2-6.1 3.9-7.6 6.3-9.7 8.3-7.1 1.8 2.5 6 3.2 7.5 1.4 1-1.2.9-3.2-.8-10.6-1.2-5-1.9-9.5-1.6-10 .3-.6 2.4-1 4.5-1 3.6 0 4.1-.3 5.9-4.1l2-4.1-2.4-3.6c-2-2.9-2.2-3.9-1.2-4.9.9-1 2.1-1 4.7-.2 5 1.5 9.5-.3 8.5-3.4-1.8-5.7-1.7-7.5.4-8.6 3-1.6 2.6-4.1-.8-5.4-3.6-1.3-4.1-3.5-4.1-16.3 0-9.2.1-9.5 2.6-10.4 1.6-.6 3.2-2.7 4.6-5.7 1.8-4.1 2.1-6.8 2.2-22.4.1-17.6.1-17.7 2.6-19.7 1.6-1.3 4.8-2.3 8.5-2.7 3.3-.3 7.6-1 9.5-1.4l3.5-.8-4-1.8c-2.9-1.3-5.4-1.6-9.5-1.2-5.3.6-5.6.5-7.2-2.4-1.1-1.9-2.8-3.2-4.8-3.5-3.6-.8-3.9-2.9-.5-3.8 4-1 3.3-4.4-1-5.2-3.7-.7-4.5-2.3-2-4.4 1.2-1 2.9-.8 8.7 1 10.7 3.2 16.8 1.7 16.8-4.1 0-2.4-.9-3.3-5.9-6.1-6.2-3.4-7.9-5.9-5.5-7.9 1.3-1.1 4.9-.9 9.9.6 1.7.5 2 .1 2-3.1 0-3.4.3-3.8 3.3-4.6 3.9-1 4-2.6.7-6.2-3-3.3-3-3-.4-7.3 2-3.2 2.1-3.9.9-9.3-1-4.8-1-6.6 0-9 .7-1.7 1-4.4.6-6.3-.5-2.9-.3-3.5 1.9-4.5 3.4-1.6 3.2-3.2-.5-3.2-2.5 0-3-.4-3-2.5 0-1.9-.8-2.8-3.4-3.9-1.8-.8-3.6-1.8-4-2.4-.6-1 8.4-2.2 17-2.2 7 0 8.4-.7 8.4-4.1 0-1.8.7-3.2 2-3.9 4.2-2.2 1.2-7.8-3.8-7.1-1.5.1-4.6 2.1-7.1 4.3-3.6 3.1-5 3.8-7.1 3.3-3.3-.9-3.4-1-2-3.5.9-1.7.8-2.5-.4-3.9-2-2.2-2-4.5-.1-6.1.8-.7 1.5-2.1 1.5-3.1 0-2.5 3.8-4.9 7.7-4.9 4.1 0 4.9-1.4 1.7-2.9-3.9-1.7-8.4-1.3-14.2 1.4-7.6 3.5-16.3 3.5-21.5 0-3.7-2.6-5.1-6.5-2.2-6.5.8 0 2.2-1.2 3.2-2.8 1-1.5 2.8-3.5 4-4.5 2.9-2.4 2.9-3.1-.2-4.5-2.5-1.1-2.5-1.3-1-4.2.8-1.6 2.4-3.4 3.4-4 2.9-1.5 7.7-1.2 9.2.6 1.4 1.7 5.1 3.7 8.7 4.8 2.6.9 3.1-1.4.7-3.4-2.4-2-1.7-3.8 1.9-5 4.5-1.4 5.3-3.7 2.4-6.7-1.9-2-2-2.5-.8-3.3.8-.5 2.5-.7 3.7-.4 3.3.9 4.3-4 1.4-6.7-2.5-2.4-2.6-2.8-.5-5.7 1-1.4 2.5-2.2 4.5-2.2 2.7 0 3-.2 2.2-2.3-.7-2-.8-5-.3-11.3.3-3.4-1.1-4.6-5.5-4.6-3.8 0-7.5-2.6-7.5-5.2 0-1-.9-1.4-2.7-1.3-2.3.2-2.8-.3-3.6-3.6-.6-2.6-1.7-4.1-3.3-4.7-1.8-.7-2.4-1.7-2.4-3.9 0-4.9 1.8-7.4 8.1-11 5.3-3.1 5.9-3.8 5.9-6.6 0-3-.5-3.5-7-6.6l-6.9-3.4-.1-7.6c0-13.1 4.3-20.9 11.7-20.9 4 0 7.3-1.1 7.3-2.3 0-.5 1.6-2.9 3.5-5.2 2.2-2.8 3.7-5.8 4.1-8.6.4-2.4 1.4-5.2 2.2-6.2 1.3-1.5 1.3-2.5.3-7.1-1-4.7-1-5.9.3-8.5.9-1.6 2.4-3.2 3.5-3.6 1.8-.5 1.9-1.4 1.5-10.3-.7-12.9-.9-13.9-3.8-14.6-3.5-.9-4.5-4.6-1.7-6.4 2.4-1.7 2.7-3.5.7-5.1-.8-.7-1.6-3.3-1.9-5.9-.2-2.6-.8-5.6-1.2-6.8-.5-1.8-.2-2.2 2.3-2.7 2.7-.6 3.1-1.1 3.7-5.8.4-2.9 1.6-6.6 2.6-8.3 1-1.7 1.9-4.1 1.9-5.3 0-1.2.5-2.5 1-2.8 1.5-.9 1.2-4.5-.5-5.1-.8-.4-1.5-1.9-1.5-3.5 0-2.2-1-3.5-4.6-6l-4.7-3.2 2.4-1.8c1.3-1 2.7-1.9 3.2-1.9.4 0 .7-1 .7-2.3 0-1.2.9-4.2 2.1-6.6 2.1-4.7 1.9-7.1-.5-7.1-.8 0-2.9-1.4-4.6-3.2-2.2-2.2-4.5-3.4-7.4-3.7l-4.1-.6-1-6.7c-.5-3.7-1.6-7.3-2.2-8-.7-.6-1.3-1.9-1.3-2.7 0-.9-1.4-4.5-3-7.9-1.7-3.5-3-7.1-3-8 0-1-.7-2.6-1.5-3.6-2.3-3-1.8-6.2 1.3-8.5 5.4-4.1 5.5-4.2 4.8-8.9-.3-2.5-1.3-5.3-2.1-6.2-.8-.9-1.5-2.5-1.5-3.6 0-2.9-1.9-4.4-5.5-4.4-1.8 0-3.9-.8-4.8-1.8-1.4-1.5-1.4-2.3-.4-5.4.7-2.1 2-4.5 2.9-5.5 2-2.3 3.2-11.7 1.9-14.2-.8-1.4-2.7-2.1-7.3-2.6-10.4-1.2-13.9-5.1-7.3-8.2 3.6-1.7 4.7-4.6 2-5.7-.8-.3-1.5-1.4-1.5-2.5 0-1-1.3-3.1-3-4.4-1.6-1.4-3-2.9-3-3.2 0-.4 4.3-.5 9.4-.3 11.2.4 10.6 1.2 10.6-13.5v-9.8l3.5-1.4c3.6-1.6 5.5-4.1 4.8-6.3-.9-2.6-9.3-10.2-12.8-11.6-2.7-1.2-3.5-2.1-3.5-4.1 0-2.9-2.1-7.5-5.7-12.1-1.7-2.3-3.5-3.3-6.5-3.8s-5.5-1.9-8.9-5.1c-5.6-5.2-10.2-6-13.5-2.4-1.2 1.3-2.7 1.9-4.2 1.6-1.8-.3-3.6.8-7.8 4.7-3.2 3.1-5.4 6.1-5.4 7.3 0 3.2-2.9 3.7-4.2.8-1-2.2-.7-3.4 2-8.6 3.6-7 3.8-8.3 1.7-13.2-2.4-5.7-2-8.1 1.6-9.4 4.1-1.6 3.6-4.5-.9-5.4-4.4-.9-4.7-1.4-2.8-4.1.9-1.2 1.6-3.1 1.6-4.1 0-1.5-.5-1.8-2.2-1.3-1.3.3-3.2.6-4.4.6-1.2 0-2.5 1-3.2 2.5-3 6.6-13.2-.7-13.2-9.4 0-2.8-.5-4.4-1.5-4.7-.8-.4-1.5-1.6-1.5-2.9 0-3.5-2.6-4.9-9.5-5.1-3.4-.1-6.7-.4-7.4-.8-.6-.4-1.1-2.3-1.1-4.3 0-3.4.1-3.5 3.1-2.9 2 .4 4.3-.1 6.7-1.3 3.7-1.9 3.8-1.9 6.1 0 2.4 1.9 2.4 1.9 6-.7 2-1.5 4.2-3.4 4.9-4.2 2-2.5 1.4-6.6-1.3-9.2-3.1-2.9-3.3-8.1-.5-12.8 2-3.2 2-3.2 0-3.2-1.2 0-2.5-1-3.2-2.5-1.3-2.8-1.2-2.8-5.5-1.6-3 .9-3.3.8-4.3-2.4-.9-2.9-1.7-3.4-5.2-4-3.9-.7-4.4-.5-6.8 2.5-3.1 3.8-6 3.6-6-.4 0-1.4-.4-3.6-1-5-.9-2.5-1.3-2.6-8.7-2.6-4.3.1-10.3.7-13.4 1.4-5.3 1.3-5.6 1.2-8.3-1-4.3-3.8-5.9-3.1-10.3 4.3z"/></svg>
