<svg version="1.0" xmlns="http://www.w3.org/2000/svg" width="1365.333" height="1365.333" viewBox="0 0 1024 1024"><path d="M421.2 2.5c-1.1 1.4-2.3 4.3-2.7 6.5-.6 3.8-.8 4-7.6 6.1-4.7 1.5-7.3 1.9-8.1 1.2-.7-.6-3.4-1.3-5.9-1.6-4-.5-5.6-.1-12.2 3.2-5 2.4-9 5.2-11.3 7.9-2.3 2.7-4.4 4.2-5.9 4.2-1.3 0-3.1 1.1-4.2 2.5-1.8 2.5-1.9 2.6-5.6 1L354 32V14.2l-3.4-2.1c-2.7-1.7-5-2.1-11.8-2.1-7.4 0-8.7.3-10.4 2.1-3.9 4.3-10.2 8-12.8 7.3-1.3-.3-2.7-.1-3 .5-.4.6-2.3 1.1-4.3 1.1h-3.6l.6 4.2c.4 3.1 0 5.3-1.7 8.7-2.9 5.7-4.6 13.4-4.6 20.7 0 4.6-.6 6.3-3.1 10.1-4.1 5.8-4.8 11.2-2.1 15 2.5 3.5 3.7 10.5 2.3 13.1-.6 1.1-3.4 3.5-6.3 5.4-5.3 3.3-5.4 3.3-16.3 3.1-15.8-.3-19.6.8-27.4 7.9-3.6 3.2-7.2 7.5-8.1 9.6-1.2 2.7-3.4 4.8-7.7 7.4l-6 3.8-.7 17.7c-1.5 42.1-1.6 43.3-4 43.3-1.2 0-3.3.8-4.6 1.7-5.6 3.8-17.4 15-20.3 19.3-15.5 22.9-36.5 44-43.7 44-3.7 0-9 2.8-16.3 8.9-7 5.7-21.7 15.7-29.8 20.3-3 1.6-5 4.1-7.9 9.3-2.1 3.8-5.7 8.8-7.9 11-3.1 2.9-4.1 4.7-4.1 7 0 3.1-.2 3.3-9.3 6.4-12.7 4.4-20 8.8-20.7 12.7-.4 1.6-2.8 5.7-5.4 9.1-4.7 6-4.7 6.1-4.1 12 .7 5.6.6 5.9-1.8 7-3.9 1.8-6.1 5.7-5.4 9.7.4 2.7 0 4-2.4 6.9-1.6 2-3.8 3.8-4.8 4.2-2.6.8-5.5 7.7-4.7 11.1.9 3.3-.5 4.3-5.9 4.5-2.2 0-4.8.4-5.8.8-1.8.6-1.8.8-.2 2.1.9.7 3.8 4.5 6.5 8.4 3.6 5.2 6.5 8.1 10.5 10.5 8.7 5.3 11.1 11.8 8.4 22.6-1 3.8-.8 4.8 1 8.2 1.8 3.1 3.4 4.3 8.9 6.5 3.7 1.5 9.2 3.4 12.3 4.2 3.1.9 10 3.9 15.3 6.6 5.3 2.8 19.6 9.1 31.8 14 12.1 5 24.2 10.2 26.7 11.7s6.6 3.7 9.1 4.9c2.5 1.2 10.2 6.9 17.1 12.7 12.1 10.2 12.7 10.9 16.4 18.9 3 6.3 3.9 9.6 3.9 13.8l.1 5.5-3.2-.1c-1.8-.1-3.3.2-3.3.6 0 .5 2.3 2.9 5.1 5.4 3.8 3.4 5.9 4.6 8.3 4.6 1.8 0 5.5 1.5 8.8 3.4 7.2 4.4 25.7 11.2 32.8 12.1 9.3 1.2 31 8.4 36.6 12.2 3.6 2.4 6 3.4 8 3.1l2.9-.3-3.8-3.7c-2.1-2.1-5.6-4.3-7.7-4.9-2.2-.7-4.7-2-5.6-3.1-1.6-1.7-1.6-1.8.7-1.8 1.4 0 2.9.4 3.5.9 1.6 1.6 12.3 7.1 13.8 7.1.8 0 1.8 1 2.2 2.2.4 1.3 2.3 3.7 4.3 5.5l3.6 3.2-3.2.1c-4 0-4.1 1.1-.5 4.5 3.5 3.3 9.6 6 16.9 7.5 5.5 1.1 6.3 1.7 17.3 12.5 7.5 7.4 13.1 12.1 16 13.3 2.5 1.1 6.4 3.6 8.8 5.5 2.4 2 6.5 4.4 9.2 5.4l4.8 1.7 1.1 7.5 1.2 7.5 7.1 6.5c3.9 3.6 8.6 7.7 10.4 9.1 1.8 1.4 6.3 5 10.1 8.1 3.7 3.1 8.8 6.7 11.3 8 3.1 1.7 5.3 3.9 7 7 4 7.3 13.6 17.1 25.5 26 6.1 4.5 13.5 10.5 16.5 13.4 3 2.8 8.8 7.3 12.8 10 4.7 3.1 7.2 5.4 7.2 6.7 0 3.6 2.8 8.8 4.8 8.8 3.3 0 11.2 4 15.4 7.8 2.2 2 5.3 6.2 6.8 9.3 4.2 8.2 13.9 19 22.8 25.3 4.2 3 8.6 6.3 9.6 7.5 1.1 1.2 6 4.4 10.8 7.2 7.5 4.3 8.7 5.3 7.3 6.3-1 .7-1.3 1.8-1 2.8 1 2.4 9.4 7.8 12.2 7.8 1.5 0 5 2.5 9.9 7 4.2 3.9 10.2 8.4 13.3 10 3.2 1.6 7.3 4.1 9.1 5.7 11.1 9.3 18.5 13.3 32.5 17.8 7.7 2.4 15.1 4.6 16.5 4.9 4 .8 20 11.3 25.5 16.7 4.3 4.2 5.9 5 10.9 6 10.9 2 29.8 9.9 36.2 15.2 1.6 1.3 5.2 3.1 7.9 4.1 6.9 2.5 14.6 7 17.5 10.2 7.3 7.8 22.1 16.3 31.5 18 8.2 1.4 13.8 4.5 21 11.2 4.6 4.4 8.4 7.2 11.1 8 2.5.7 10.3 1.2 19.8 1.2h15.7l13.2 5.6c7.3 3.1 17.4 7.2 22.5 9 5.2 1.9 12.5 4.8 16.4 6.4 3.9 1.7 8.4 3 10.2 3 4.7 0 5.8 1.3 6.4 6.9l.5 5.1h3.6c3 0 4.2.6 5.9 3 1.7 2.3 3.1 3 5.6 3 1.8 0 6.1 1.1 9.5 2.5 4.9 2 7.2 2.4 11 1.9s5.6-.2 9 1.5c5.7 2.9 12.3 3.6 20.9 2.1 8.8-1.5 9.3-3 2.6-8.7-4.5-3.8-4.6-3.9-3.7-7.8 1.5-6.8.9-23.3-1.2-32.7-1.9-8.4-1.9-8.9-.2-11.8 2.2-3.6 2.2-6.7.5-28.5-1.3-16.3-1.5-17.2-4.6-22.1-3.1-5-3.2-5.5-3.2-16.3 0-10.1.2-11.1 1.8-11.1 1.1 0 2.7-.9 3.7-2s2.9-2 4.2-2c2 0 2.3-.5 2.3-4.1 0-2.6-.8-5.3-2.5-7.7-2.3-3.4-2.5-4.5-2.5-15.2 0-6.3.4-12 .8-12.6 1.4-2.2 7.4-4.5 10.9-4.2 3.9.3 5.9-1.6 9.2-8.9 1.9-4.1 1.9-4.2-.3-12.9-2.1-8.4-2.1-9.1-.7-15.1 1.5-5.8 1.8-6.3 4.4-6.3 1.5 0 3.9-.7 5.3-1.6 1.3-.9 2.6-1.5 2.7-1.3.2.2.8 1.5 1.4 2.9l1.1 2.5 1.5-3.5c.8-1.9 2.9-4.5 4.5-5.7l2.9-2.2-1.4-8.3c-.8-4.5-1.6-8.5-1.9-8.7-.2-.2-1.3.8-2.5 2.3l-2.1 2.6-3.2-4.2c-4.3-5.6-5.5-13.5-2.3-14 1.8-.3 2.3-1.4 3.3-8.3.6-4.5 1.9-10.4 2.8-13.3 1.4-4 1.5-5.9.8-8.1-1.2-3.3-.7-4.1 2-4.1 2.5 0 2.2-1.8-1-6.6-1.5-2.2-3.6-6.7-4.6-10-1.1-3.2-3.2-9.4-4.7-13.7-2.2-6-2.6-8.3-1.9-10.3.6-1.4 1-7.7 1-13.9 0-12.6-.4-13.5-6.9-13.5-2.7 0-3.1.5-4.6 5-2 5.9-2.9 5.7-6.5-2-1.3-2.7-2.6-5-2.9-5-.3 0-2.6 1.3-5.1 3l-4.4 2.9-3.4-6.4c-2.7-5.1-4.1-6.6-6.7-7.5-4.9-1.6-13.9-6.7-16-9-2.9-3.2-5.3-2.6-6.1 1.5-.4 2.2-1.2 3.5-2.2 3.5-1.9 0-16.9-9.9-19.6-12.9-2-2.2-2.2-4.8-1.1-12.2.6-3.8.3-5.4-2-10-1.5-3-3.3-5.7-3.9-6.1-.6-.4-3.5-.8-6.3-.8-6.3 0-6.3.1-3.3-14.1 3.2-15 3.1-15.2-4.5-19.4-4-2.3-7.2-4.9-8.6-7.2-2.7-4.4-9.2-7.3-16.4-7.3-3.4 0-5.7-.5-6.5-1.5-2-2.4-7.6-2.9-14.6-1.1-5.2 1.3-6.9 1.4-8 .5-1.2-1-2.1-.6-4.7 1.9-1.8 1.7-4.8 3.4-6.7 3.9-4.4 1.2-13.7-.7-17.6-3.4-1.6-1.2-6.5-3.1-10.9-4.3-5.2-1.4-9-3.2-11-5-5-4.6-18.6-8.1-23.9-6.1-2.1.9-3.2.8-4.2 0-1.2-1-1.2-1.3.1-2.3 1.4-1 1.3-1.8-.4-7.1l-2-6 2.6-2.7c2.2-2.3 2.4-3 1.3-4.3-.7-.8-2.2-1.5-3.4-1.5-1.2 0-3.5-1.4-5.1-3-1.6-1.7-3.9-3-5.1-3-1.8 0-2.4.9-3.4 5-.9 3.9-1.6 5-2.9 4.6-.9-.3-2.7-.8-4.1-1.1-1.4-.4-3.7-2.4-5.3-4.6-4-5.9-8-7.9-15.4-7.9-5.6 0-6.3-.2-6.3-2 0-1.3.7-2 2-2 2.3 0 7-6.5 7-9.7 0-1.7.6-2.3 2.1-2.3 3.7 0 5.9-1.9 5.9-5 0-3.4-.1-3.4 3.5-2 2.5.9 2.8.7 4.3-2.9 1.3-3.1 2.5-4.2 5.4-5.1 2.5-.7 3.8-1.7 3.8-2.8.1-1.7 3.4-4.5 9.7-8.2 2.1-1.2 3.3-2.9 3.8-5.2.5-2.2 2.5-4.9 6.1-8.1 3.8-3.4 5.4-5.6 5.4-7.4 0-1.6.7-2.7 2-3 1.9-.5 4-5.5 4-9.7 0-1.1.8-4.3 1.7-7.3 1.6-5.2 1.6-5.3-.5-7.6-2.6-2.8-2.8-5.9-.6-9.2 1.3-1.9 1.5-3.8 1-7.9-.7-5-.5-5.5 1.4-6.1 3.2-1 8-8.3 8-12 0-1.7-1.1-6.5-2.5-10.5-2.8-8.4-3.3-17.4-1-20.4 2-2.6 2-10.2 0-10.9-.8-.4-4.5-2.9-8.4-5.8l-6.9-5.2-.7-6.1c-1-10.2-1.5-11.5-4.3-12.8-2.2-1.1-2.9-2.4-3.9-6.8-.6-3-1.2-8.1-1.2-11.2-.1-3.1-.6-6.9-1.2-8.5-.6-1.5-1.5-7-2-12.2-.7-8.4-1.2-10-4.9-16.3-4.1-6.8-4.4-7-13.3-11.2-5.1-2.4-10.9-5.9-13-7.7-3.6-3.2-3.8-3.9-4.9-12.2l-1.1-8.7h-9.3c-10.7 0-15.6 1.5-22.1 6.7-3.6 2.9-4.3 4.1-5.7 10.2-2.2 9.8-2.1 19.7.3 24.3l2 3.6-6 7.1c-3.3 3.9-6.4 7.1-7 7.1-1.7 0-5.4 5.1-5.9 8.3-.4 2.7-1 3.2-3.5 3.5-2.6.2-3.7 1.4-7.5 7.9-2.5 4.2-4.7 8-4.8 8.4-.2.5 1.1 2.7 2.9 5l3.2 4.1-2.1 4.4c-1.6 3.1-2.9 4.5-4.9 5-1.6.3-4.5 1-6.6 1.5-4 1-5.7.6-5.7-1.5 0-.7-1.1-2.3-2.4-3.5-2.3-2.2-2.5-2.2-5-.6-1.4 1-2.6 2.1-2.6 2.6 0 .4-1.4 2.4-3.1 4.3-2.4 2.8-4 3.6-7.7 4.1-7.9 1-8.9 1.4-13.2 5-3.4 2.8-5 3.5-8.6 3.5-2.4 0-4.4-.2-4.4-.5 0-.4.7-1.9 1.5-3.5 1.5-2.8 1.4-2.9-3-5.7-3.2-2-4.5-3.5-4.5-5.1 0-1.9-.5-2.2-3.7-2.2-6.9 0-11.9-4.7-14.4-13.4-.6-2-.5-4.2.3-6.3 2.2-5.9-1.6-7.4-14.7-5.9l-6 .7-2-4.3-2-4.3-7.2-.3c-6.6-.3-7.3-.1-8.4 2-2.6 5-7.9 5.3-10.6.7l-1.8-3.1-6 6.7-6 6.6.1-7c.1-8 2.5-12.8 8.7-17.5 3.1-2.4 6.7-10.3 6.7-14.6 0-.8 1.1-2.5 2.4-3.9 1.5-1.6 3.4-6 4.8-11 2.4-8.2 2.4-8.4.6-11.9-1-2-1.8-4.5-1.8-5.5 0-2.2 2.5-11.3 4.7-17.4 1.8-4.9 1.1-10.6-1.5-12.5-.9-.7-3-3.1-4.7-5.3-1.6-2.2-4.1-5-5.6-6.2-2.2-1.8-2.8-3.6-3.7-10.5-1.7-12-1.5-19.6.7-24.4 3.1-6.8 3.5-11.8 1.4-15.4-1.5-2.6-2.3-3.1-4.7-2.7-2.4.3-2.6.2-1.3-.8 1.4-1 1.4-1.5-.8-5.1-2-3.3-2.4-5.2-2.5-12.1 0-9.1.9-8.1-9.3-9.9-2.5-.4-4.4-1.6-5.7-3.4l-2-2.9 2.2-4.6c1.8-3.8 2-5 1.1-7.4-.8-2.4-.8-3.2.5-4.5 1.4-1.4 1.5-2 .2-4.9-2.1-4.9-1.8-10.2.8-13 1.2-1.3 2.2-2.8 2.2-3.4 0-1.8-3.4-4-7.3-4.7-2.6-.5-5.3-2.2-8.5-5.3l-4.7-4.5-4.6 1.6c-2.6.9-5.6 1.6-6.8 1.6-1.2 0-3.5.7-5.1 1.5-3.7 1.9-3.7 1.4.1-5.5 3.8-7 3.4-11.8-1.5-15.5-3.2-2.4-8-3.2-10.2-1.7-.6.4-2 3.4-3 6.6l-2 5.9-3.2-7.4c-2.6-6-3.2-8.3-2.7-11.4.6-3.4.2-4.7-2.5-8.8-1.8-2.6-3.6-4.7-4-4.7-.5 0-1.8 1.1-2.8 2.5z"/></svg>
