<svg version="1.0" xmlns="http://www.w3.org/2000/svg" width="1365.333" height="1365.333" viewBox="0 0 1024 1024"><path d="M159.5 63.5c-.5.2-2.7.6-4.9 1-5.2.9-8.6 4.4-8.6 9 0 1.9-.9 6.2-2.1 9.6-2.4 6.9-2 11.6 1.2 14.5 5.4 4.9 4.5 10.2-2.2 12.4-2.1.7-5.6 2.7-7.7 4.5-2 1.7-8.6 5.5-14.5 8.3-8 3.9-12.1 6.7-16.2 10.7-3 3-6.2 5.5-7.2 5.5-2.8.1-5.9 3.2-8.5 8.5-2.1 4.3-2.9 5-8.4 7-11.1 4.1-14 6.1-15.8 10.5-2.9 7.3-2.1 15.4 2.5 26.4l4.1 9.8-1.2 8.7c-1 7.5-1.5 9-4.4 12.1-1.8 1.9-4.7 5.7-6.4 8.5-4.9 7.9-8.9 11.2-14.7 12-2.7.4-9.9 2.4-15.9 4.6-9.1 3.1-11.7 4.6-15.3 8.1l-4.2 4.3 3.4 9.5c1.8 5.2 5.2 13.5 7.5 18.5 5 10.6 14.1 36.8 16.5 47.5 1.7 7.3 1.6 8.2-.9 34.8L33 397l2.6 8.1c1.4 4.4 2.9 10.5 3.4 13.6.8 4.9.7 6.1-1 8.8-1.1 1.8-2 5-2 7.3 0 3.4-.5 4.5-3.2 6.5-2.7 2.1-3.2 3.3-3.6 8-.6 7 3.2 25.1 6 29.1 2 2.7 2 3.3.9 11-1.9 12.3-1.9 12.3-9.3 18.1-6.3 4.9-7.5 5.5-11.8 5.5h-4.8l-5.1 8c-2.8 4.5-5.1 8.2-5.1 8.5 0 .2 9 13.6 20 29.7l20 29.3v8c.1 11.1 1.2 15.7 4.8 20.1 2.6 3.1 3.2 4.8 3.2 8.6v4.8l7.1 3.6 7.2 3.6 6.1-2.6c7.3-3.1 7.2-3.1 7.9-.7.5 2.2 9 3.5 12.1 1.9 1.3-.7 3.5-.7 7 .1 4.7 1.1 5.4 1.6 8.4 6.6 1.8 2.9 4 5.6 5 5.9.9.2 9.2 1.7 18.4 3.2 16.3 2.6 16.7 2.8 17.7 5.4.8 2.4.3 3.7-3 9.3l-4 6.6 13.7 17.3c7.5 9.5 14.2 17.8 14.8 18.5.6.6 24.3 6.4 52.6 12.7 28.3 6.4 52.4 12 53.5 12.5 1.1.5 10.8 7.3 21.5 15.3 10.7 7.9 20.1 14.8 20.8 15.2.8.5 23.4-9.9 58.7-26.9l57.4-27.7 262.5 125.1C837.8 903.7 956.4 960 957 960c.6 0 .8-1 .6-2.3-.3-1.2-.7-6.4-1.1-11.5-.4-7.1-.3-9.2.7-9.2 20.7-.4 66.2-2.1 66.5-2.4.3-.3-7.2-143.1-16.6-317.5l-17-317.1-8.1-10.3-8-10.2.5-6c.3-3.3.6-7.1.7-8.5.1-1.4-1.9-7.8-4.5-14.2-4.5-11.5-4.6-11.7-3.6-18.4.8-5.9 2-8.4 8.5-19.1l7.5-12.3-4.6-7.4c-4.3-7-4.8-8.5-7.6-23.5l-3-15.9 8.4-8.2c4.7-4.4 8.7-8.9 9-10 .5-1.9-2.9-5.8-7-7.9-1.4-.7-2.3-2.2-2.5-4.4-.3-3.1-.5-3.2-5.8-3.8-3-.3-7.5-1.3-9.9-2.3-4-1.5-5-1.5-10.1-.2-3.2.8-10.8 1.6-17 1.7-9.5.1-11.4-.1-12.2-1.5-.5-.9-1.7-1.6-2.7-1.6-1 0-5.1-1.2-9.2-2.7-6.5-2.4-9.4-2.7-23.7-3.2-14-.5-16.5-.9-17.6-2.4-.7-.9-2.6-1.7-4.2-1.7-4 0-5-.9-6.2-5.3-1.1-3.8-1-3.9 1.4-3.3 1.9.5 2.4.3 2.4-1.3 0-1-.7-2.4-1.5-3.1-.8-.7-1.5-2.8-1.5-4.6 0-4-1.2-4.6-11.2-6.4-7.3-1.3-27.6-7.7-29.7-9.4-.8-.6-5-1.1-9.4-1.2-7.1-.1-8.1-.3-9.7-2.4-1.5-2-2.1-2.1-5.1-1.2-1.9.6-9 1.3-15.8 1.6l-12.5.6-4.7 4c-5.9 5-8.6 6.1-17.4 7-3.8.4-9.3 1.4-12 2.2-7.9 2.2-25.3 12.1-32.8 18.6-3.7 3.2-8.5 6.7-10.6 7.7-2.9 1.3-5.2 3.6-8.7 8.9-2.6 3.9-6.1 8.9-7.9 11.1-5.5 6.8-7.8 12.4-8.3 20-.4 6.6-.2 7.6 3.2 14.3 2 3.9 3.6 8.2 3.6 9.5 0 1.5 1.6 3.8 4.5 6.4l4.5 4v7.3c0 10.4-3.2 18.6-12.1 30.7-8.8 12.1-16.2 19.8-21.4 22.5-2.2 1.2-9 3.8-15 5.8-8.6 2.9-11.6 3.5-13.5 2.8-1.4-.5-5.3-1.4-8.8-1.9-4.1-.6-7.5-1.8-9.5-3.3-1.8-1.4-4.5-2.8-6.2-3.2-1.6-.4-5.2-2.6-8-4.9-2.7-2.3-7.2-5.7-10-7.5-2.7-1.8-6.8-4.9-9-6.8-5.9-5-15.3-10.2-18.6-10.2-2.8 0-6.9-3-6.9-5 0-.6-1.4-1-3.1-1-4.5 0-14.5-2.8-20-5.6-2.7-1.3-6.2-2.4-8-2.4-4.5 0-14.9-2.8-18.5-5.1-3.8-2.3-12.2-3.5-36.4-5.4-10.2-.8-20.8-1.9-23.7-2.5-5.5-1.2-18.2-7.4-28.5-13.9l-6.3-4-5.5-13.7c-5.1-13-5.4-14.5-6-24.9-.7-14.2-1.9-16.7-9-18.3-2.8-.7-7.5-1.2-10.3-1.2-5.9 0-15.3-1.5-21.8-3.6-2.6-.8-6-1.4-7.5-1.4-3.1 0-13.6-7.5-17.4-12.2-1.5-2-3.3-2.7-7.7-3.3-3.2-.4-7.3-1.3-9.3-2.1-4.7-1.8-14.3-3.4-20.3-3.4-3.8 0-6.2-.8-10.8-3.5-7.6-4.4-10.8-4.5-26.4-.2-10.7 2.9-13.3 3.2-24.2 3l-12.2-.1-20.8-10.6c-20.3-10.3-23.7-11.8-25.8-11.1z"/></svg>
