<svg version="1.0" xmlns="http://www.w3.org/2000/svg" width="1365.333" height="1365.333" viewBox="0 0 1024 1024"><path d="M681.3 2.8c-.9 1.5-3.1 3.9-4.9 5.2-3.8 2.8-4.2 4-1.5 4 2.9 0 4.7 2.8 3.3 5.1-.7 1-1.2 2.8-1.2 3.9 0 1.3-.7 2-2 2-1.1 0-2.3.7-2.6 1.5-.4.8-1.6 1.5-2.8 1.5-2.8 0-6.2 3.7-6.4 6.8 0 1.3-.8 3.5-1.7 4.9l-1.7 2.5-2.7-2.6c-3.3-3.2-8.2-4.3-9.9-2.3-1 1.2-.9 1.6.3 2.1.8.3 1.5 1 1.5 1.7 0 1.8 5.2 7.4 6.6 7.1.9-.2 1.1.8.7 3.6-.3 2.4-.1 4.2.6 4.6.6.4 1.1 1.9 1.1 3.4s.7 3.7 1.5 4.9c2.1 3 1.1 9.1-3.2 18.1-2.6 5.4-3.5 8.7-3.6 13 0 3.2-.7 6.3-1.4 7-.7.7-1.3 2.3-1.3 3.6 0 3.6-2.1 5.4-8.4 7-7.7 2-9.7 1-11.8-5.7l-1.6-5.2-.1 4.8c0 2.6.6 6.4 1.4 8.4 2 4.6 1.9 5.6-.2 4.5-1-.6-2.4-.6-3.5-.1-1 .5-2.7 1.4-3.8 1.9-1.4.7-2 .7-2-.1 0-.6-.5-.9-1.1-.7-.7.2-1.3 3.9-1.6 8.8-.3 7.6-.7 8.8-3 10.8-2.3 2.1-2.7 2.2-4.2.8-1-.9-2.5-4.2-3.5-7.3-1-3.2-3-7-4.5-8.4-1.4-1.4-3.1-3.4-3.8-4.5-1.2-1.8-1.3-1.8-2.6-.2-1.7 2.2-2.7 2.3-2.7.3 0-.8-.4-1.5-1-1.5-.5 0-1 .7-1 1.5 0 .9-1.2 2.7-2.6 4-2.1 2-2.5 3.1-2.1 5.7.2 1.9-.2 4.5-1 6.1-1.2 2.5-1.2 3.5.1 8.1 1.6 5.3 2.9 6.6 6.7 6.6 2.6 0 2.4 1.6-.5 3.6-3 1.9-2.5 3.8 1.4 5.4 3.5 1.5 4.3 4.3 2.4 8.9-.8 1.9-1.2 4.1-.9 4.9.3.7-.2 2.3-1 3.5-1.5 2.1-1.5 2-1.5-1.3.1-1.9.7-4.6 1.5-6 2.1-3.7 1.8-4.7-1.7-5.9-3.8-1.4-4.7-.7-2.4 1.8 1.2 1.3 1.5 2.7 1 4.6-.6 2.5-1 2.6-4.8 2.3-2.2-.3-4.7-.6-5.5-.9-.9-.2-1.8.8-2.5 3.1-.6 1.9-2.2 5.1-3.4 7-1.6 2.5-2 4.2-1.5 6 .3 1.4.7 3.8.8 5.5.4 5.9.3 5.8 3.6 5.1 1.9-.3 3.8-.1 4.6.5 1 .9 2 .9 3.9-.1 2.3-1.3 2.7-1.1 5.3 1.6 3 3 4.9 7.4 3.3 7.4-.5 0-1.4-1.1-2-2.5-1.4-3-3.2-3.3-3.2-.5 0 1.1-.4 2-1 2-.5 0-1-.6-1-1.3 0-1-6.8-5.7-8.3-5.7-.8 0-8.4 10.5-11.2 15.5-1.5 2.7-3.4 5.9-4.1 7-.8 1.1-1.4 3.2-1.4 4.7 0 1.8-.6 2.9-2 3.3-1.1.3-2 1.5-2 2.5 0 1.1-1.3 2.6-3 3.5l-3 1.6v-5.3c0-4 .7-6.5 2.8-10.1 2.5-4.1 2.8-5.4 2.2-9.7-1-7.5-2.1-8-7.2-3.5-7.8 7-9.8 12.5-4.1 11 1.8-.4 2.4-.2 2.1.7-.3.7-2 1.7-3.9 2.2-2.8.7-3.8 1.7-5.4 5.4-1.2 2.6-4 6.2-6.9 8.6-2.6 2.2-5.2 5.1-5.7 6.4-1 2.5.7 7.2 2.7 7.2.7 0 2.2 2.1 3.4 4.6 1.2 2.5 3.1 5.1 4.1 5.7 2.8 1.7 2.3 2.7-1.4 2.7-1.8 0-5 .9-7.2 2s-4.7 2-5.7 2c-1.1 0-1.8.7-1.8 2 0 1.1-.4 2-.9 2-1.4 0 .6-7.1 2.8-9.9 1.2-1.4 2.7-3.8 3.5-5.2 1.5-2.5 1.4-2.7-1.9-4.5-2.4-1.3-3.5-2.6-3.5-4.1 0-3.1-1.5-3.6-4.9-1.8-3.5 1.7-13.6 9.9-20.1 16.1-2.5 2.4-6.6 5.2-9.1 6.2-6.6 2.9-10.9 8.4-10.9 14.2 0 2.5-.7 5.6-1.6 6.8-1.8 2.6-1.1 4.2 1.7 4.2 1.2 0 2.9 1 4 2.2 2 2.5 2.6 4.9.7 3-1.8-1.8-3.8-1.5-3.8.6 0 2.4-3.7 2.6-4.5.2-.3-1-1.7-3.4-3-5.3-1.7-2.6-2-3.7-1.1-4 .8-.3 1.1-1.7.8-3.5-.3-2.6-.9-3.1-4.2-3.7-4.1-.7-6.9.3-10.7 3.8-2.6 2.3-3.2 6-.8 5.1.9-.4 1.5 0 1.5.8 0 2.6-5.7 1-6.4-1.7-.8-3.1-3.8-4-7.4-2.1-2.9 1.5-10.7 1.2-11.8-.5-.8-1.4-2.4-1.1-2.4.4 0 .8-.9 2.2-1.9 3.1-1.4 1.3-1.8 2.6-1.4 5.5.3 2.3.1 4.1-.6 4.5-.6.4-.8 1.8-.5 3.2.5 1.8.2 2.4-1 2.4-1.1 0-1.6-.9-1.6-3.1v-3.1l-4.7.6c-9.2 1.3-10.3 1.7-10.3 3.7 0 1 .5 1.9 1 1.9 2.3 0 .7 1.9-3 3.8-4.3 2.1-5.4 1.9-4-.8 1.2-2.3.1-9-1.7-9.7-2.7-1.1-9.3 2.9-12.7 7.8-1.9 2.6-4.8 5.5-6.5 6.5-1.7 1-3.1 2.2-3.1 2.6 0 .4-.8.8-1.7.8-.9 0-2.5.7-3.5 1.6-1.2 1.2-2.1 1.4-3 .7-.7-.6-5.8-1.3-11.3-1.7-5.5-.3-11.3-.7-12.9-.9-2.7-.2-3 .1-4.7 6.2l-1.8 6.4 2.9 3.4c3.6 4 3.7 5.3.9 10.3-1.8 3.2-2 4.4-1.2 8.2 1 4.4.9 4.6-2.3 7.2-1.9 1.5-3.4 3.5-3.4 4.6 0 1-.5 2.2-1 2.5-.6.4-1.7 2.3-2.5 4.2-.9 2-2.5 4.6-3.6 5.7-3.2 3.2-8.9 12.6-8.9 14.7 0 1-.9 2.3-2 2.9-1.1.6-2 1.5-2 2.1 0 .6-1.8 4-4 7.7-2.3 3.7-4.8 9.1-5.6 12.1-1.5 4.9-1.5 5.6.2 9.2.9 2.2 2.8 5.4 4.1 7.1 2.7 3.8 2.9 6.3.6 13.5-1.6 5.2-1.6 5.6.7 15.1 1.4 5.5 2.3 12.3 2.2 15.7-.1 7.7 2.1 14.5 5.8 17.9 1.7 1.4 3 3.2 3 3.9 0 .7 1.6 5 3.5 9.5 2.7 6.4 3.2 8.8 2.5 10.6-.5 1.3-1.4 5.1-2 8.5-1 5.8-1 6.3 1.7 10.8 1.5 2.7 3.7 6.2 5 7.9 1.3 1.7 2.3 3.4 2.3 3.9 0 .4 2 3.8 4.5 7.5 5.3 8.2 5.6 11.3 2.1 19.5-3.5 8.2-4.3 12.5-2.4 13.9 1.9 1.5 5.8 8 5.8 9.8 0 .9-.6 2.1-1.4 2.7-.8.7-1.7 2.3-2 3.7-.4 1.4-2.1 4-3.9 5.8-1.8 1.7-5.4 7.6-8 12.9-2.6 5.3-5.2 9.7-5.7 9.7s-2.5 2.1-4.5 4.6c-2.5 3.3-3.5 5.7-3.5 8.2 0 4-4.4 12.2-6.5 12.2-3.4 0-9.6 10.2-10.6 17.5-1.3 9.6-2.9 16-4.8 18.5-1.5 2.1-2.8 2.6-8.7 3-4 .4-8.5 1.4-10.6 2.5-3.1 1.7-3.9 2.7-4.8 6.8-1.3 6.3-1.3 9.2.4 15.5 1.2 4.7 1.2 5.2-.4 5.2-.9 0-3.1 2.1-4.9 4.7-2.8 4-3.2 5.3-2.8 9 .2 2.4.1 4.3-.4 4.3s-.9-.7-.9-1.6c0-1.4-.3-1.4-1.5-.4-.8.7-1.5 2.2-1.5 3.3 0 1.1-.7 2.8-1.5 3.7-3.5 3.9-2.8 16 .9 16 .8 0 1.6.7 2 1.5.4 1.1-.2 1.5-2.3 1.5-2.6 0-2.9.4-3.4 3.7-.2 2.1 0 4.3.4 4.9 1.4 1.7 3.9 10.6 3.9 13.9.1 1.6 1.1 7.4 2.4 12.8 2.4 10.6 4.5 14.1 15.2 25.5 4.6 4.9 5.2 6.1 5.7 11 .3 3 .3 6.7.1 8.2-.5 2.2.3 3.5 4.9 7.9 5 4.8 5.5 5.6 4.6 7.8-.6 1.7-.6 3 .1 3.8 1.3 1.6.2 2.5-3.1 2.5-4.1 0-4.4 2.7-2.9 21.6.7 8.9.9 16.7.6 17.3-.4.6-.4 5.5 0 10.8l.7 9.7 10.4 10.8c9 9.3 10.3 11 9.3 12.7-1.7 3.2-1.2 5.4 2.5 11.1 1.9 3 3.7 7 4.1 8.8.3 1.8 1.1 3.6 1.8 4 .6.4 1.6 1.6 2.2 2.7.7 1.2 2.4 2.1 4.5 2.3 1.8.2 5 1.7 7 3.3 2 1.6 4.1 2.9 4.6 2.9s1.3 1.9 1.9 4.2l.9 4.3 9.5.7c5.2.4 13.9 1.9 19.2 3.4 8.9 2.5 9.8 3 11.5 6.2 1.4 2.7 3.4 4.2 9.1 6.8 5.7 2.6 7.2 3.8 7.2 5.5 0 1.8.4 2 2.8 1.5 1.5-.3 7.7-.9 13.7-1.2 12-.7 16.2-2.2 22.5-7.8 5.5-4.9 28.7-16.8 34.5-17.7 2.8-.4 9.5-2 15.1-3.5 9.9-2.7 10.2-2.7 15.3-1 5 1.6 5.2 1.6 9.4-.5 2.3-1.2 6.3-3.9 8.9-6 4.2-3.5 5-3.8 6.8-2.7 1.9 1.2 2.4 1 4.6-1.5 1.4-1.6 3.7-3.2 5.2-3.6 1.9-.6 2.7-1.4 2.6-2.9 0-1.2.5-2.2 1.3-2.2s1.3-1.2 1.3-2.9c0-1.6 1.1-4.2 2.3-5.8 1.4-1.6 2.7-4.8 3-7.6.4-2.6 1.6-6.5 2.6-8.6 1.1-2.1 3-7.9 4.2-12.7 1.2-4.9 2.6-9.4 3-9.9 2.5-3.3 8.4-16.5 7.5-16.8-.6-.2-.2-1.3 1-2.3 3.2-3 8.2-15.2 9.3-22.9 1.8-12.5 2.7-15.9 7.2-26 3.2-7.4 4.4-11.4 4.5-15.5.1-3.1.9-7.1 1.9-9 2.1-4.1 4.5-15 6.9-31.5 1-6.6 2.2-12.7 2.6-13.6 1.4-2.7 6-16.5 6-17.9 0-.7 2.7-7 6.1-13.9 3.3-6.9 6.8-15.3 7.6-18.6.8-3.3 1.9-6.8 2.5-7.8.5-.9 1.8-5.2 2.8-9.3 1.1-4.2 2.9-9.1 4-10.9 1.1-1.8 2.4-5.9 2.9-9.1.5-3.2 1.9-9.2 3.1-13.3 1.8-6 2-7.5.8-8.3-1-.7-1-1 .4-1.9 1.9-1.1 4.7-9.5 10.4-31.9 2.3-8.9 5.2-17.5 7.6-22.3 3.8-7.7 9.6-22.2 10.3-26.2.2-1.1 1.2-6.3 2-11.5 1.1-5.9 2.9-12.1 5-16.5 1.9-3.9 3.8-8.9 4.4-11 3-12.7 5.3-19.8 8-25.5 4.4-9.3 7.8-18.2 11.3-28.9 1.6-5.2 4-11.1 5.2-13 1.3-2.1 2.7-6.9 3.4-11.6.8-5.1 1.9-8.6 3.2-10 1.2-1.3 1.6-2.5 1-3.5-1.3-2.3.5-13.6 3.6-22.5 2.6-7.6 2.7-8.3 1.4-14.5-.7-3.6-1.3-7.7-1.3-9.3 0-1.6-.5-2.7-1.3-2.7-.9 0-1.4-1.1-1.4-2.9 0-1.7-.4-3.3-1-3.6-1.9-1.2-1-5.5 2.5-12.5 1.9-3.8 3.5-7.8 3.5-8.8 0-1.1 1.3-4.8 2.9-8.4 3.4-7.3 5.4-8.7 14.4-9.5 6.7-.7 7.3-2.1 2.2-5.3-4-2.5-4.7-6.3-1.5-8 1.1-.6 2-1.7 2-2.4s1.1-2.9 2.3-4.8c2.4-3.5 4.5-13.8 2.9-13.8-1.9 0-2.3-7.8-.6-12 1.9-4.6 1.2-6.1-4-8.7-1.7-.8-3.9-2.5-4.8-3.7-2.2-2.7-2.3-10.4-.2-13.4.8-1.2 1.1-2.2.6-2.2-.6 0-1.3-1.1-1.6-2.4-.3-1.3-1.6-4.6-2.8-7.3-1.1-2.6-2.2-6.2-2.3-7.8-.1-1.7-.5-3.7-.8-4.5-.5-.9.4-3.4 2.2-6.2 2.8-4.4 3.1-4.6 9.1-5.3 3.4-.4 6.4-.4 6.8-.1.3.4.5 3.2.4 6.2-.2 5 0 5.5 2.2 6.4 2.2.8 2.4 1.4 1.9 4.4-.4 2.9-.1 3.9 2.1 5.9 1.9 1.7 2.6 3.4 2.6 6 0 2.8.7 4 3.1 5.9 1.7 1.3 4 3.2 5.2 4.3 3.1 2.9 6.6 2.1 8.3-2 .7-1.9 1.8-3.6 2.3-4 1.2-.7 4.1-6.4 4.1-8.1 0-.7 2-5.5 4.6-10.6 5.2-10.9 7.8-21.2 6.8-27.8-.7-5.4-4.3-12.6-7.8-15.9-1.4-1.4-2.6-3.2-2.6-4.1 0-.9-.9-3.4-2.1-5.5-3.5-6.7-6-14.1-5.3-15.8.3-.9-.4-3.3-1.7-5.4-2.4-3.8-2.8-8.5-1.9-21.5.2-2.9-.2-5.3-1-6.3-.8-.9-1.4-4.9-1.6-9.8-.5-14.7-2-29.2-3.2-31.4-.7-1.2-1.2-3.1-1.2-4.3 0-1.1-.6-3.1-1.4-4.3-.8-1.2-1.9-5.5-2.6-9.6-.8-4.7-1.9-8-3.2-9.3-1.1-1.1-1.7-2.2-1.5-2.5.3-.3-.4-2.6-1.5-5.1-1.5-3.5-1.8-6-1.4-9.5.4-3.7 0-5.8-1.6-9.3-1.2-2.4-2.8-4.4-3.4-4.4-.7 0-1.2-.8-1.2-1.8.1-1.8-6.6-12.2-8.6-13.4-.8-.5-1.7.2-2.4 1.7-1.7 3.7-3.7 3.1-3.8-1 0-2.4-.9-4.4-2.6-6.3-2.7-2.8-5.2-11.2-2.9-9.8 1.4.9 1.5-3.7.2-6.2-.6-.9-1.2-2.9-1.6-4.5-.5-2.4-1-2.7-4.3-2.7-3.7 0-3.9-.2-5.3-4.7-1.5-5-4.9-7.4-4.9-3.4 0 2.5-2 3.8-3.1 2-.6-1.1-1.1-1.1-2.1-.1-1.4 1.4-4.8 1.6-4.8.2 0-.6.9-1 1.9-1 2.7 0 3.7-2.1 1.8-3.5-1.8-1.3-2.3-4.5-.8-4.5.5 0 1.4.7 2.1 1.5 1 1.2 1.5 1.3 2.1.3.6-.9 1.3-.8 3 .7l2.2 2-.8-3c-.5-1.7-.8-4.2-.7-5.7.1-1.5-.5-2.9-1.3-3.2-.8-.3-1.5-1.5-1.5-2.6 0-2.1-3.3-6-5-6-.6 0-1.8 1.3-2.7 2.8zm-1.8 6.3c1.1 1.7-.1 2.1-1.5.4-.8-.9-.8-1.5-.2-1.5.6 0 1.4.5 1.7 1.1zM335.5 994c1.8 1.9 1.7 2-.2 2-1.2 0-2.3-.8-2.6-2-.3-1.1-.2-2 .2-2 .5 0 1.6.9 2.6 2z"/><path d="M613 96.6c0 2.3-.3 2.6-3 2.2-2.9-.4-3-.3-3 3.4 0 5.1 2.7 7.8 8 7.8h4.1l-.5-3.8C617 94.7 616.8 94 614.9 94c-1.4 0-1.9.7-1.9 2.6zM617 114c0 .5 1 1.4 2.2 2.1 1.8 1 2 .9 1.5-.6-.4-.9-.7-1.9-.7-2.1 0-.2-.7-.4-1.5-.4s-1.5.4-1.5 1zM735.1 362.5c-1.2 3.1-2.1 5.9-2.1 6.4 0 .4-1.1 1.8-2.5 3.1s-2.5 3.5-2.5 5c0 1.4-.4 3-.9 3.5-1.8 1.8-4.1 8.4-3.2 9 1.8 1 15.1-25.3 15.1-29.9 0-3.7-2-2.2-3.9 2.9z"/></svg>
