<svg version="1.0" xmlns="http://www.w3.org/2000/svg" width="1365.333" height="1365.333" viewBox="0 0 1024 1024"><path d="M713.8 115.3c-9.8 4.5-10.8 5.2-10.8 7.7 0 4.5-3.7 7-10.5 7-5.9 0-6 .1-11.6 5.6-5.5 5.5-5.8 5.6-9 4.5-3.5-1.2-5.4-.4-6.4 3-.5 1.6-1.3 1.8-6.3 1.3-4.8-.5-6.9-.1-13.4 2.4-6.8 2.6-8.2 2.9-12.7 2-4-.7-5.7-.6-8.2.8l-3.2 1.6-6.6-6.5c-5.5-5.4-7.3-6.6-10.8-7-2.8-.3-6.2-2-10.5-5.1-5.5-3.9-6.9-4.4-9.4-3.7-2.9.7-2.9.9-3 8.1l-.1 7.3-4.4 2.3c-5.1 2.7-6.9 2.9-6.9 1 0-1.5-4.3-2.6-10.6-2.6-3.4 0-4.4-.4-4.9-2-.8-2.6-6.4-5-8.7-3.8-1 .5-2.1 2.1-2.4 3.6-.4 1.5-1.7 4.6-3.1 6.9-2.3 4.2-2.6 4.3-7.3 4.3-4 0-5 .3-5 1.6 0 .9-2 3.4-4.5 5.6-3.8 3.3-4.5 4.6-4.5 7.6 0 5.8-1.1 6.8-5.8 5.4-6.5-2-11.4-1.5-14.5 1.3-1.5 1.4-2.7 3.1-2.7 3.7 0 .7-1.2 2.4-2.6 3.9l-2.6 2.7-4.6-2.9c-3.1-1.9-5.9-2.9-8.6-2.9-2.3-.1-5.2-.7-6.6-1.5-1.4-.8-4-1.4-5.8-1.5-1.9 0-3.5-.6-3.8-1.5-.4-.9-1.9-1.5-3.8-1.5-1.7 0-4-.7-5-1.5-2.7-2.1-4.1-1.9-8.4 1-3.1 2-4.3 2.3-6.8 1.6-2.1-.6-3.6-.5-4.9.5-1 .8-3.6 1.4-5.7 1.4-3.3 0-3.8-.3-3.8-2.3 0-3.7-4.8-7.2-13.6-10.1-6.5-2.1-8.6-2.5-10.8-1.6-1.5.5-3.8 1-5.2 1-2 0-2.4.5-2.4 3.3 0 1.8-.7 4.3-1.6 5.5-1.5 2.2-1.4 2.6 1.1 6.3 1.4 2.3 2.4 4.3 2.1 4.7-.6.6-4-.4-11.7-3.3-3-1.2-5.7-1.6-8-1.1-2.9.5-3.9 1.5-6.7 6.6-1.9 3.3-4 6-4.8 6-.8 0-2.4 1.9-3.5 4.3-1.9 3.9-2.4 4.3-5.2 3.9l-3-.5.6 4.9c.5 4.4.2 5.3-3.3 10.2-3 4.2-3.7 5.8-3.1 7.5.7 1.8-.2 3.8-4.6 10l-5.4 7.8 1.5 4.7c1.6 4.4 1.5 4.6-.6 6.9-1.2 1.3-2.7 2.3-3.3 2.3-.7 0-2 1-3.1 2.1-1.8 2-2.6 2.1-10.7 1.5-12.2-.8-12.3-.9-13-10.5-.6-8-.7-8.2-9.7-22.9-4.9-8.2-9-15.8-9-16.8 0-1.5-2-2.6-9-5.1-8.7-3.1-9.2-3.1-12.8-1.7-2 .9-4.9 2.7-6.3 4-1.4 1.3-5.2 3.4-8.4 4.7-5.3 2.1-6 2.6-7.3 6.5-1.9 5.7-7.6 9.5-24.5 16.2-10.9 4.3-13.4 4.9-16.1 4.2-2.6-.8-3.8-.5-6.6 1.4-1.9 1.3-4 2.4-4.7 2.4-.7 0-1.3 1-1.3 2.2-.1 1.3-2 4.4-4.3 7l-4.2 4.7-10.5 1.6c-9.2 1.4-10.9 1.9-13.6 4.6-2.5 2.4-4.8 3.4-11.5 4.7-7.2 1.5-8.4 2-8.7 3.9-.2 1.2-2.4 4.1-5 6.4-3.9 3.7-4.5 4.8-4.3 7.8.1 2.7-.5 4.1-3 6.7l-3.2 3.3.5 11.7c.5 11.3.7 11.9 3.2 13.9 1.5 1.2 3 3.5 3.5 5.1 1 3.7-.3 9.5-2.4 10.6-1.3.8-1 1.6 2.1 5.4 3.2 3.8 3.5 4.8 3 7.9-.4 2-1.4 3.9-2.2 4.2-.7.3-1.4 1.5-1.4 2.7 0 2.7-.8 3.7-4.6 6.3-2 1.5-3.9 4.3-5.5 8.4-2.5 6.4-2.8 6.6-11.5 9.3-2.7.8-5.7 1.8-6.6 2.1-1.2.5-1.9-.3-2.8-3.2-.7-2.1-1.5-4.1-1.9-4.5-.3-.3-3-.2-6 .4-4.7 1-5.7 1.6-8.8 6-2 2.7-4.3 4.8-5.3 4.8-1.2 0-3-2-5.1-5.6l-3.2-5.6-5.1.6c-2.8.3-6.3.6-7.7.6-1.9 0-3.4 1.1-5.6 4.2-2.9 4.2-3 4.6-2.8 14.3.3 8.4.8 11.2 3.3 17.5l3 7.5-2.1 2.2c-1.1 1.3-3.5 2.5-5.2 2.9-1.8.3-4.7 1.4-6.4 2.5-2.8 1.7-3.1 2.4-3.1 6.5 0 3.7-.7 5.6-3.5 9.5-2.2 2.9-4 6.9-4.7 10.3-1.1 5.2-1 5.6 1.5 9.5 2.4 3.7 2.7 4.9 2.7 13.2 0 6.9-.4 9.7-1.5 10.9-1.4 1.6-1.4 2.2.5 6.9 1.1 2.8 2 6.2 2 7.5 0 1.2 1.1 3.3 2.5 4.6 2.5 2.4 3.6 5.3 5.5 14.6.5 2.7 1.2 5.8 1.5 6.9.5 1.7-.9 3.2-7.5 8.3-5.4 4.2-9 6.2-10.8 6.2-1.6 0-3.7.7-4.8 1.5-1 .8-4 1.5-6.5 1.5-4.1 0-4.8.3-5.3 2.3-.3 1.3-.1 3.9.4 5.8 1.5 5 1.3 5.5-2.6 7.8-2.9 1.7-3.5 2.6-3.2 4.8.2 2 1 2.9 2.8 3.3 1.5.3 3 1.8 3.9 3.7 1 2.2 2.3 3.4 4.3 3.8 4.3 1 9.8 9.6 9.8 15.5 0 2.5.7 5.4 1.5 6.4.8 1.1 1.5 3 1.5 4.3 0 3.5 2.9 7.3 5.5 7.3 1.6 0 3.9 1.9 7.3 5.8C43 621 44 624 41.1 627.6c-1.3 1.6-2.1 4.1-2.1 6.4 0 4.7-2.6 10.6-6.3 14.2-1.5 1.5-2.7 3.8-2.7 5.2 0 1.5-.8 3-2.1 3.7-1.8.9-2.5.7-4.8-1.5-3.4-3.2-5.4-2.7-6.8 1.9-1 3-.8 3.6 1.8 6.1 2.6 2.5 2.9 3.4 2.9 9.6 0 4 .7 8.4 1.6 10.6 1.3 3.2 1.4 4.5.3 9-1.2 5.1-1.2 5.3 1.6 8.2 2.8 2.9 2.8 2.9 1.5 9l-1.3 6.1 3.2 3.2c2.7 2.9 3.1 4 3.1 8.9v5.7l5.4 2.4c4 1.9 5.5 3.1 6 5.2.4 1.5 2 4.4 3.6 6.4s3.3 5.2 3.6 7.1c.4 1.9 2 6.1 3.5 9.2l2.9 5.7-2 4.7c-2.4 5.4-2.1 6.5 2.4 11.7 2.8 3.4 4.3 4.1 11.2 5.8 4.3 1 8.3 1.8 8.7 1.9.5 0 .6-2.8.3-6.3-.5-5.3-.2-6.8 1.9-10.7 5.2-9.6 6.6-13.2 6.3-16.3-.3-2.7.2-3.4 3.7-5.5 3.6-2.1 4.9-2.3 13.6-1.9 6.8.3 10.4.9 12.5 2.1 3.1 1.9 13.9 17.7 15 22 .6 2.4 4.6 4.6 8.3 4.6 3.4 0 3.8 1.9 2 7.3-2.4 7-2.4 13.2 0 16.6 1.7 2.4 2.1 5.2 2.7 19.4l.7 16.7-3.1 6.8c-1.8 3.7-3.6 9-4.1 11.8-.5 2.7-1.7 6.6-2.5 8.6-.9 2.1-1.6 5.1-1.6 6.8 0 4.5-2.7 9-6.1 10.2-1.6.5-2.9 1.3-2.9 1.7 0 .4 3.6 1.6 8 2.8l8 2.1 4.4-3.9c2.5-2.2 4.8-5 5.2-6.2.3-1.2 2.6-4.3 5.1-6.8l4.5-4.7 10.4 5.8 10.3 5.8 2.6-2c1.8-1.4 3.4-1.8 5.1-1.4 1.3.4 3.3.2 4.3-.3 1.6-.9 3.3.5 11.6 9 10.2 10.5 12.9 12.4 15.9 10.7 1.6-.9 1.5-1.2-1.1-3.5l-2.7-2.6 2.2-.8c1.2-.5 2.2-1.2 2.2-1.7 0-1.6-3.5-4.1-7.5-5.4-3-1-4.1-2-4.7-4.3-1-3.9-3.7-5.5-11-6.5-5.7-.8-9.7-3.5-9.8-6.7 0-2.1 4.1-10.8 6.1-12.6 1.1-1 4.4-5.4 7.5-9.8 5.7-8.1 6.9-8.8 11.7-7 2 .8 2.9.5 4.8-1.5 3.1-3.3 4.3-3 6.5 1.8s3.9 5.8 4.7 2.8c1-4 3.6-3.5 8.8 1.6 3.6 3.5 4.9 5.6 4.9 7.7 0 3.7 2.4 8.4 6.8 12.9 2.9 3.1 3.7 4.8 4.4 9.9.9 7 3.3 12.5 8 18.7 2.7 3.6 3.2 5.1 3 9-.1 3.3.5 5.9 2.1 8.7l2.3 4 5.9-.3c5.5-.4 6.4-.7 10.5-4.8 3.5-3.4 5.3-4.4 7.9-4.4 1.8 0 4-.4 5-.9 2.6-1.4 15.2 2.8 20.1 6.8l4 3.2 3.9-2c2.1-1.1 11.5-3.9 20.8-6.2l16.8-4.2 11.7-9.3 11.6-9.3 9.2 3c8.5 2.9 9.2 3 10.9 1.5 1.6-1.5 3.3-1.6 11.9-1l10 .7 7.8 10.5 7.8 10.5 6.7-.6c6.4-.5 7.2-.9 17.3-8.1 7.5-5.3 11.6-7.6 13.6-7.6 3.7 0 5.4-2.9 4.6-8-.5-3.2-.1-4.4 2.8-8.2 1.9-2.5 4.9-5.1 6.6-5.8 2.8-1.2 3.7-1.1 7.8 1 2.6 1.2 7.2 3.3 10.2 4.5 5.3 2 5.8 2.1 12.4.6l6.9-1.4 3.3-7.3c2.3-4.8 3.4-8.8 3.4-11.8 0-2.4.3-5.2.6-6.1.4-.9 4.2-3.6 8.5-6.1 6.8-3.9 7.9-5 7.9-7.3 0-2.1 1.3-3.6 6.8-7.6 5.9-4.4 6.7-5.4 7-8.6.3-3.2.7-3.7 3.5-4.3 1.7-.3 4.2-1.3 5.5-2.2 2.3-1.5 2.4-1.9 1.7-10-.7-8.2-.6-8.6 2-12 1.5-2 7.5-7.4 13.3-11.9 9.1-7.2 11.2-8.5 15.6-9 5-.7 23.9-7.7 26.4-9.7.6-.6 1.2-2.1 1.2-3.3 0-5.1.9-5.6 5.1-2.8 2.1 1.4 4.1 3.3 4.4 4.2.3.9 4.2 3.7 8.6 6.3 6.3 3.8 9 4.8 12.4 4.8 4.3 0 4.6-.2 11.5-8.5 3.9-4.7 7.2-8.5 7.3-8.5.1 0 3.4-.9 7.2-2 3.9-1.1 10.7-2.4 15.2-3l8.2-.9 12.8 5.8 12.8 5.8.7 4.3c1.2 6.9 4.1 7.7 11.2 3.1 3.5-2.2 6.3-3 12.2-3.5l7.7-.7 5.3 5.2 5.2 5.1 10.8-1c6-.6 15.9-2.1 21.9-3.5 6.1-1.4 13.8-2.8 17.1-3.1l6.1-.5 1.8 4.4c.9 2.5 1.9 4.5 2.2 4.5.3 0 3.5-1.7 7.2-3.7 6.4-3.4 7.1-4.3 13.4-14.4 3.7-5.9 6.7-11.8 6.7-13.2 0-2.1.8-2.8 4.4-4l4.3-1.5 8.4 10.5 8.4 10.5 4-.6c5-.8 10.5-6.4 10.5-10.8 0-1.5 0-3.1.1-3.6.1-.9-1.9-1.9-5.1-2.6-1.9-.4-3-1.7-4.4-5.3-1-2.6-3.1-7.3-4.6-10.3-1.6-3.1-3.1-7.2-3.5-9.2-.7-3.5-.4-3.9 5.7-9.8 6.4-6.2 6.6-6.3 12.5-4.5 2.6.8 2.7.4 4.3-13.4.8-6.8.8-9.7 0-10.7-1.4-1.6.6-11.9 2.7-14 .8-.7 3-1.6 4.9-2 2.9-.5 3.8-1.3 5.1-4.5 2.1-5.3 5.4-6.1 9.3-2.4 2.9 2.7 3 2.8 4.9 1.1 3.1-2.8 9.4-3.7 26.7-4l16.2-.2 5.2-4.5 5.3-4.6-.2-10.8c-.2-8.8-.7-11.9-2.6-16.7l-2.4-5.8 5-5.4c5.6-6.2 6.1-8.8 2.5-14.4-1.5-2.3-2.9-6.7-3.7-11.4-1.3-7.6-1.2-7.8 1-10.2l2.3-2.5-2.7-8.2c-2.7-8.1-2.7-8.3-1-11.6 1.5-2.7 1.7-4.7 1.2-11.5-.6-7.8-.8-8.3-4.2-11l-3.5-2.9v-13.4c0-13 0-13.3 2.5-14.9 1.3-.9 3.8-1.6 5.5-1.6 3 0 3.4-.5 9.2-12.8 4.4-9.4 7.3-14 11-17.8l4.9-5.1-6.8-14.9-6.9-14.9-7.2-.9c-6.9-.8-7.2-1-7.2-3.6 0-1.7-2.3-6-6.5-11.8-5-7-6.5-9.9-6.5-12.5 0-2-2.2-8.6-4.8-14.9-4.9-11.3-4.9-11.3-8.5-11.6l-3.7-.3v-7c0-6.5-.3-7.6-4.2-14.2l-4.3-7.2-.5-17c-.4-9.4-1.1-18.4-1.8-20-.6-1.7-1.4-4.7-1.7-6.8l-.6-3.7h-15.7l-4.7-5.5-4.7-5.5-2.8 2.4-2.9 2.3-9.5-2.2c-8.4-2-10.3-2.8-14.9-6.8s-5.9-4.5-11.7-5.1c-9.8-1.1-12.9-2.4-20.4-8.7-5.4-4.6-7.9-6-11.5-6.5-3.8-.6-6.3-2.2-15.6-9.9-6-5-12.6-10.1-14.6-11.3-2-1.2-5.6-4.3-8-6.9-3.9-4.3-4.6-5.8-6.3-13.6l-1.9-8.9-6.1-3-6.1-3-5.9-12.5c-5.2-10.7-6.4-12.6-9.3-13.8-2.6-1.1-4.1-3-7.4-9.7-3.9-7.9-4.6-8.7-11.6-13.2-5.6-3.7-30.7-23.3-36.6-28.6-.4-.3 0-2.4.8-4.5 1.4-3.1 1.4-4 .3-5-1-1-3.4-.3-12 3.8z"/></svg>
