<svg version="1.0" xmlns="http://www.w3.org/2000/svg" width="1365.333" height="1365.333" viewBox="0 0 1024 1024"><path d="M103.7 67.7c-.4.3-.7 1.4-.7 2.4s-.9 2.3-1.9 2.9c-2.5 1.3-9.8 1.3-10.6 0-.8-1.3-15.7-.3-24.3 1.6-7.8 1.7-14.8 5.2-21.9 11.1-4.9 3.9-6 4.4-8.7 3.8-4.8-1.2-7.5-.9-9.7 1.1-1.5 1.4-2.3 1.5-4.2.6-1.2-.6-5.2-1-9-.9-8.9.4-10.2 1.7-11.6 12.1-1 6.7-.9 8.3.4 10.2 1.6 2.5 2 6.4.6 6.4-.4 0-.6 1.1-.3 2.5.3 1.7 1.1 2.5 2.6 2.5 1.1 0 3 .7 4 1.5 1.1.8 2.7 1.3 3.6 1 1-.3 2.9.9 4.9 2.9 3 3.1 3.3 3.9 2.8 7.3-.4 2-.1 5.4.5 7.4.9 3.3.8 4.1-1.2 7.1-1.3 1.8-3.4 4.3-4.7 5.6-2.9 2.9-3.1 8.2-.3 10.7 1.2 1.1 2 3.1 2 5.1 0 3 .3 3.3 4.1 3.9 3.8.7 4 .9 3.7 3.8-.3 3-.6 3.2-4.6 3.5l-4.2.3v7.5c0 8.1-1.6 12.5-6.4 17.7-1.4 1.5-2.6 3.3-2.6 3.9 0 .5 1.4 2.8 3.1 4.9 2.6 3.4 3.6 3.9 7 3.9 2.6 0 5.1.8 7 2.2 2.9 2.2 3.1 2.2 4.3.5 1-1.3 2.8-1.7 8.3-1.7 5.1 0 7.4-.4 8.3-1.5 1.6-1.9 5.9-1.9 8 0 .9.8 4 1.8 7 2.2 4.5.7 5.6 1.3 7 3.8 1.2 2.2 2.7 3.2 5.8 3.8 2.7.5 4.2 1.4 4.2 2.3 0 2.5 2.8 2.7 6.5.5 4.8-2.8 6.7-2.6 3.4.3-1.5 1.3-3 3.3-3.4 4.5-.5 1.6-1.4 2.1-4.1 2.1-3.8 0-4.2.8-1.6 3.1.9.9 3 3.7 4.5 6.4 2.5 4.2 3.1 4.7 5.7 4.3 3.3-.5 3.9.4 3.3 4.8-.6 3.7.8 4.9 3.7 3.4 1.6-.9 2.2-.8 2.6.4.8 2.1 4.2 3 5.8 1.7.8-.7 4.4-1.8 8-2.5 7-1.5 8.8-1.2 17.4 2.5 2.3 1.1 5.1 1.9 6 1.9 1 0 2.3.5 2.9 1.1.6.6 5.6 1.5 11 1.9 5.4.4 11.3 1.3 13.1 1.9 2.3.7 5 .7 8.3.1 3.9-.8 5.8-.6 8.8.6 3.7 1.4 4 1.9 4.6 6.5.6 4.1 1.2 5.2 3.5 6.4 1.6.8 4.7 1.5 6.9 1.5 3.4 0 4.4.6 7.4 4.2l3.5 4.2 3.9-4.2c2.5-2.7 5-4.4 7.3-4.8 1.9-.4 6.5-2.5 10.2-4.8l6.7-4.1-.3-4.3c-.2-2.3-1.1-5.1-2.1-6.2-1-1.1-1.4-2-.8-2 .6 0 2.1 2.1 3.5 4.7 2 3.9 3.1 4.9 6.4 5.9 2.2.7 5.5 1.9 7.3 2.9 3.6 1.8 6.1.8 6.1-2.6 0-2.8 1.4-3.1 8.4-1.8l6.5 1.2 5.1-4.6c4.9-4.4 8-5.9 8-3.8 0 .6-.4 1.3-1 1.6-1.4.9-1.2 2.5.3 2.5.6 0 3.8-1.8 7-4 3.1-2.2 6.6-4 7.7-4 1.1 0 2-.5 2-1 0-.6 1.1-1.6 2.5-2.2 2.9-1.3 3.8-3.6 2.9-7.2-.5-2-1.1-2.5-2.5-2.1-4 1.3-1.4-4.7 2.8-6.4 2.9-1.1 12-1.1 13.9.2 1 .6 10.9.9 28.9 1 3.3 0 5.4.5 6.1 1.5 1 1.4 1.7 1.4 5.4.3 3.2-.9 4.5-2 5.3-4.2 1.1-2.9 1.2-2.9 7.3-2.3 6.1.6 6.2.6 9.5-2.8 5-5.1 10-7.9 12.2-6.7 1.3.8 1.7.6 1.7-.4 0-.8 1.4-2 3.1-2.7 2.9-1.2 3-1.5 2.4-5.4-.7-4.6-7.3-18.6-9.3-19.9-.7-.5-2.9-2.4-5-4.4-2-1.9-6.2-5.9-9.2-8.7-3-2.9-7.1-6.5-9-8.1-1.9-1.5-4.6-5.1-6-7.9-2.2-4.4-3-5.1-5.8-5.4-1.9-.2-4.4.4-5.9 1.3-2.5 1.7-2.6 1.7-6.2-2.2-2-2.2-4.5-4.3-5.6-4.7-1.6-.4-2.1-1.5-2.2-4.4-.1-2-.2-4.4-.4-5.2-.1-.9.1-2.8.5-4.4.6-2.4.1-3.3-3-6.3-3.4-3.2-4.2-3.5-8.3-3-2.5.3-5 1.2-5.6 2.1-.7.9-2 1.6-2.9 1.6-.9 0-3.4.9-5.6 2-4.7 2.4-5 2.4-5 .6 0-.8-1.6-3.1-3.5-5.2-1.9-2-3.5-4.1-3.5-4.5 0-.5-.9-.9-1.9-.9-1.1 0-3.5-.9-5.4-2-3.4-2-4.6-4.3-4.7-8.5-.1-2.5-5.9-5.4-9.5-4.7-2 .3-3.3 1.9-5.5 6.2-2.7 5.3-3.2 5.8-7 6.4-3.5.6-4.9.2-8.6-2.1-2.4-1.5-4.4-3.3-4.4-3.9 0-1.9-4.5-5.4-9.1-6.9-4.5-1.5-9.9-5.7-9.9-7.6 0-.6-.9-3.2-2.1-5.9-1.4-3.3-3-5.2-4.9-6-1.6-.7-3.6-2-4.6-3.1-.9-1-2.8-1.9-4.1-1.9-1.3 0-3.4-.7-4.7-1.5-3-2-5-1.1-7.5 3.1-4.2 7.1-7.9 5.3-8.3-3.9-.3-6.1-.4-6.2-4-8-3-1.3-4.7-1.5-7.8-.8-3.5.8-4.2.6-5-.9-1.3-2.4-1.3-5.7 0-6.5.6-.3 1-1.5 1-2.6 0-2.9-5.1-2.5-8 .6l-2.3 2.4-1.6-2.1c-1.7-2.1-6-3.2-17.1-4.4-3-.3-6.7-1-8.1-1.5-1.7-.7-3.5-.6-5.4.1-2.2.8-3.1.7-4.5-.5-2.2-2-6.4-1.9-8.5.1-2.3 2.4-10.4 2.5-13.4.2-2.5-1.9-4.3-2.3-5.4-1.1zM401.7 270.4c.7 6.7-.7 7.8-4.8 3.7-1.7-1.7-3.7-3.1-4.5-3.1-.8 0-1.7-.7-2-1.5-.4-.8-1.6-1.5-2.9-1.5-1.7 0-2.7 1-3.9 4-.9 2.2-2.3 4-3.1 4-1.1 0-1.5-1.1-1.5-4 0-4.7-1.5-5.2-6-1.9-2.2 1.7-3.6 2-6.3 1.5-2.9-.5-3.5-.3-4 1.4-.3 1.1.4 3.6 1.4 5.7 1 2 1.9 5.1 1.9 6.9 0 2.4.8 3.8 3.4 5.8 1.9 1.4 3.6 3.6 3.8 4.8.2 1.5 1 2.3 2.3 2.4 1.1.1 2.7.4 3.7.8 2.7 1.2.5 6.4-5.4 12.3-2.8 2.9-4.9 5.5-4.5 5.9.3.3 2.8.1 5.5-.6 2.7-.6 7.6-1 10.8-.8 3.3.1 6.6-.2 7.4-.7.8-.6 5.4-1 10.2-1.1 4.7 0 9.2-.5 10-1.1 2.1-1.6 10.6-3.4 13.2-2.7 3.7.9 6.6-.4 6.6-3 0-1.2 1.1-3.3 2.5-4.6 2.4-2.3 3.5-7 1.5-7-1.3 0-6-5.2-6-6.7 0-1.9-9.3-9.3-11.8-9.3-3.6 0-8.2-2.8-8.2-5 0-2.3-6.6-10-8.5-10-1 0-1.2 1.3-.8 5.4zM351.4 284.1c-.3.6-1.5.9-2.5.6-3-.8-2.5 3.9.6 5.9 2.4 1.6 2.7 1.5 4.4 0 1.8-1.6 2.2-1.6 5-.2 3.7 2 4.1 2 4.1.1 0-.8-.9-2-2-2.7-1.1-.7-2-1.8-2-2.4 0-2.3-6.3-3.3-7.6-1.3z"/><path d="M366 296.6c0 .9.7 1.4 1.7 1.2 2.5-.5 2.8-2.8.4-2.8-1.2 0-2.1.6-2.1 1.6zM476.2 336.2c-.7.7-1.2 2.1-1.2 3.1 0 1.4-.4 1.7-1.7 1.2-4.5-2-6.8-1.6-9.6 1.3-2.8 2.9-2.8 2.9-1.1 6.5 1.4 3 2.3 3.6 5.3 3.9 2.8.2 3.6.7 3.6 2.3 0 1.1-.7 2.1-1.5 2.2-.8.1-3.7.5-6.3.8-4.2.6-5 1-5.9 3.6-.8 2.4-1.5 2.9-4.4 2.9-3 0-3.7-.5-4.5-2.9-1.2-3.5-3-4.4-6.3-3.1-2.6.9-4.6 5.9-4.6 11.1 0 3.5-.7 3.9-3.8 2.3-1.5-.8-4.6-1.4-6.9-1.4-3.5 0-4.3.3-4.3 1.8 0 1.7-.5 1.7-6.4.9-5.7-.9-6.8-.8-10 1.1l-3.6 2.1-2.9-2.4c-3.1-2.7-10.7-3.5-12.7-1.5-1.7 1.7-7.6-3-8.6-6.8-.9-3.3-2.8-3.6-2.8-.4 0 .9-.7 3-1.5 4.6-2 3.8-1 4.8 6.6 7 7.5 2.1 9.5 4.3 7.9 9-1 3.1-1.4 3.5-3.1 2.5-3.2-1.7-5.5-.2-10.4 6.7-3.8 5.2-5.1 6.4-7.4 6.4-2 0-3.1.7-3.9 2.5-.6 1.4-1.7 2.5-2.3 2.5-.6 0-.9.7-.6 1.5.4.8.2 1.7-.3 2-.6.4-1 1.4-1 2.4s-.7 2.4-1.5 3.1c-1.1.9-1.2 1.6-.5 2.5.8.9.4 1.7-1.5 2.9-1.4.9-2.5 2.4-2.5 3.4 0 1.9 6.1 8.2 9.7 10.1 3.7 1.9 8.9 1.3 12.1-1.4 2.8-2.3 3.1-2.4 11.8-1.5 4.9.5 9 1 9.2 1 .1 0 .2 1.1.2 2.4 0 1.3 1.1 4 2.5 6 3.1 4.6 3.5 10.6.6 10.6-3.2 0-3.4 1.9-.6 5.6 2.5 3.3 3 3.5 6.9 2.9 3.8-.6 4-.5 2.1 1-4.9 3.7-6.7 5.9-5.4 6.3 3.3 1 3.9 2.3 2.3 4.7-1.9 2.9-.5 6.1 3.2 7.5 1.3.5 2.4 1.8 2.4 2.8 0 2-2.9 5.2-4.8 5.2-2.1 0-4.2 3.2-4.2 6.4 0 1.8-.9 4.5-2 5.9-1.3 1.7-1.9 3.7-1.7 6.3l.2 3.9H394c-2.5.1-6 .9-7.7 1.8-3.5 1.8-6.6 6.7-6.1 9.5.1.9-.1 2.2-.5 2.8-.3.6.4 2.7 1.6 4.5 1.9 2.8 2.9 3.4 6.2 3.5 2.2.1 6.5.9 9.6 1.8 4.7 1.4 5.8 2.2 7.2 5.1 1.5 3.1 3.2 4.1 6.1 3.6.5-.1 2.7.1 4.7.4 4.7.8 5.5 2.8 3.3 8.1-1.6 3.8-1.6 3.8 1.1 6 2.3 1.8 2.5 2.4 1.6 4.3-1.3 2.4-2.9 2.6-6.5 1-2.9-1.4-7.6-.4-7.6 1.5 0 .7.9 2.5 2 3.9 1.7 2.2 2.6 2.5 5.7 2l3.6-.6-.6 4.3c-.4 3.2 0 5.4 1.4 8.2 2.4 4.6 1.9 5.8-2.5 5.8-2.4 0-4.3-.9-7-3.6-2.7-2.6-4.4-3.5-6.4-3.3-1.5.2-3.3 0-3.9-.4-.8-.5-2.7.2-4.6 1.8-3.4 2.5-3.4 2.6-4.1 13-.7 11.5-.1 13.9 3.9 14.9 1.5.4 2.5 1.3 2.5 2.4 0 1.1 1.4 2.5 3.5 3.5 2.3 1.1 3.5 2.4 3.5 3.7 0 2.8 2.8 8.2 5.1 9.8 2.6 1.8 2.4 3.8-.3 4.6-3.6.9-11.9.7-16.3-.5-7.1-1.9-10.5-2.2-12-.9-2.2 1.8-.9 5.9 3.3 10.2l3.5 3.7-3 4.8c-1.7 2.6-3.4 5.8-3.8 7.1-1.1 3.9 1.2 8.6 6.1 12.3 5.1 3.8 9.2 10.8 12.6 21.7 1.9 6.2 2.2 9.7 1.9 20.6-.1 2.9.5 4.6 2.3 6.5 1.3 1.4 4.5 5.9 7.1 9.9 2.8 4.5 6.2 8.2 8.6 9.7 2.1 1.4 3.9 3.2 3.9 3.9 0 3.1 6.4 5.6 15.9 6.3 5.9.4 9.1 1 9.1 1.8 0 .6-1.3 2.4-3 4l-3 2.9 2.8 1.8c1.5 1 4 1.8 5.6 1.8 2 0 4.4 1.5 8.5 5.2 6 5.4 8.4 8.7 9.4 12.9.4 1.7 2.7 3.9 6.9 6.7 3.5 2.2 8.8 6.5 11.8 9.6 3 3.1 7.9 6.7 10.9 8.1 2.9 1.5 7.8 5.1 10.7 8.1 4.4 4.4 6.3 5.6 10.6 6.6 2.9.7 5.6 1.8 6.1 2.4.4.7 4.9 3.3 10 5.7 5 2.4 10 5.3 11.1 6.5 1 1.2 3.4 2.6 5.2 3.2 3.7 1.3 4.4 3.7 2.3 8.3-.9 2.1-.7 3 1.2 5.6 1.9 2.5 3 3.1 6.1 3.1 3.2 0 4.5.7 7.1 3.5 3 3.3 3.7 3.6 8.2 3.4 3.9-.2 7.6.8 16.5 4.3 11.1 4.3 11.5 4.6 11.3 7.4-.1 1.7.5 3.7 1.7 4.9 1 1.1 2 3.6 2.2 5.5.3 3.4.4 3.5 6.2 4.7 3.2.6 7.2 2.1 8.7 3.2 2.3 1.7 3.3 1.9 4.8 1.1 2.9-1.5 10.9-1.3 11.8.4 1 1.8 8.6 2.4 10.5.9 2.4-2 6.8-.3 8.6 3.3.8 1.9 2.1 3.4 2.9 3.4.7 0 1.7.9 2.3 2 1.2 2.2 4 2.6 5.7.9.9-.9 2.5-.5 6.6 1.4 3 1.4 6.3 2.3 7.4 2.1 1.3-.4 2.3.2 3.1 1.8 1.9 3.4 10.3 7.9 12.6 6.6 1.3-.7 2.5-.6 4.1.2 3.3 1.8 6.8.6 9.9-3.5 3.2-4.1 5-4.4 7.2-1 1.5 2.2 2.3 2.5 7.9 2.5 6.2 0 6.4.1 9.6 4.1 4.2 5.4 13.3 11.3 16.2 10.5 1.5-.4 3 .3 4.8 2 2.5 2.4 3.2 2.5 10 2.1 4.1-.3 8.8-.8 10.4-1.2 2.4-.5 3.5-.2 4.9 1.4 1.8 1.9 2.6 2 14.3 1.4 7.9-.4 13.1-.2 14.6.4 1.2.6 5.7 2.3 10.1 3.8 4.3 1.4 12.1 5.1 17.4 8.1 5.3 3 10.2 5.4 10.8 5.4.6 0 1.9.9 2.8 1.9 2.6 2.9 11.5 4 34.3 4.3 18.7.2 20.3.1 22.3-1.7 1.4-1.2 3.3-1.8 5.3-1.7 4.2.4 11.7-5.1 11.7-8.5 0-2.5 1-2.9 2.7-1.2 1.4 1.4 7.3-1.8 7.3-4.1 0-.8 4.1-5.6 9-10.5 5-4.9 9-9.3 9-9.7 0-1.8-2.1-.3-10.8 7.8-7 6.5-9.2 8.1-9.2 6.6 0-1.1.3-2.2.8-2.4 1.6-.7 10.2-10.8 10.2-12 0-2.1-8.9-11.7-10.8-11.6-.9 0-2.9-.3-4.4-.7-5.1-1.4-4.5 1.9 1.6 8.7 3.1 3.4 5.6 6.4 5.6 6.7 0 .4-.9 1.2-1.9 1.8-1.8 1.1-3.1.2-12.3-8.1-8.6-8-10.5-9.3-12.1-8.4-1.2.6-1.7 1.7-1.4 2.9.4 1.3 0 1.9-1.1 1.9-2.8 0-4.5-1.7-4-3.8.3-1.2-.3-3.4-1.6-5.3-4.5-6.9-4.6-7.3-3.1-8.9 1.3-1.2 1.7-1.2 2.9.5 1.3 1.9 1.5 1.8 5.1-.9 3.2-2.5 3.6-3.2 3.1-5.9-.8-4.1-3.3-7.7-5.2-7.7-1.2 0-1.5-.6-1-2.3.3-1.2.6-3 .6-4.1 0-1.6.5-1.7 4.4-1.2 3.2.5 5.4.3 7.5-.8 4.8-2.5 7.4-2 9.2 1.7.9 2 3.2 4 5.9 5.4 5.3 2.8 7.8 2.9 8.7.5.4-.9 1.5-2.8 2.5-4.1 1.7-2.2 1.7-2.6.3-4.7-.8-1.3-1.5-3.4-1.5-4.6 0-1.3-.7-5.2-1.4-8.8-1.2-5.5-1.2-7 0-9.7 1.5-3.8 2-3.9 5.3-1.6 2.3 1.6 2.3 1.7.5 2.3-1.7.6-1.6.9 1.1 2.3 5.8 3.2 11.3 9.1 13.6 14.7 1.2 3 2.9 6.1 3.7 6.7 1.1.9 1.5 2.8 1.3 6.7-.2 5.3-.2 5.5 2.6 5.8 2.4.3 2.8.8 3.1 3.6.2 1.9-.1 4.6-.6 6.2-.9 2.4-.7 3.1 1.3 5 1.7 1.6 2.5 3.7 2.9 8.4 1 8.5 1.2 8.8 6.9 6.9 3.8-1.2 4.7-1.9 4.1-3.2-.4-.9-.8-2.7-.9-4.1-.1-1.5-1-2.9-2.3-3.5-2.5-1.1-3.1-4.1-.6-3.1 3 1.1 5.1-1.1 5.8-6.1.3-2.6 1.3-6.1 2.1-7.7 1.7-3.2 1.6-3.4-1.7-5-1.6-.9-2.2-1.9-2-3.7.2-1.3.4-3.6.4-5.1.1-1.8.5-2.5 1.4-2.1 1 .4 1.4-.6 1.4-3.6 0-3.9-.2-4.1-3-4.1-3.8 0-7-3.4-7-7.6 0-4.6 2.2-4.9 7.1-.9 4.8 4.1 6.3 4.4 5.4 1.2-.9-2.8-5.3-8.7-6.6-8.7-.5 0-.9-1.3-.9-2.9 0-2.2.6-3.1 2.9-4.1 2.5-1 3.6-.9 7.4.8 2.4 1.1 5.4 3.4 6.6 5.1 2.1 2.9 5.1 4.2 5.1 2.2 0-.5.9-1.1 2-1.4 2.5-.6 3.6-3.5 2.3-5.6-.5-.8-2.7-2.5-4.9-3.6-5.2-2.7-6.1-5.6-4-12.9 1.4-4.8 2.2-6 4.7-6.9 6.1-2.3 2.1-4.4-7.7-4.1-6.8.3-7.1.2-8.7-2.5-3.3-5.6-1.1-12.1 4.1-12.1 3.6 0 4.9-1 5.3-4 .3-2.1 1-2.6 4.7-3 4-.5 4.5-.8 5.7-4.3 1.8-5.2 4.1-7.5 7.9-7.9 3.7-.4 4.3-3.1.8-3.6-1.2-.2-2.8-1.2-3.5-2.3-.7-1.1-3.4-3.6-6.1-5.5-5-3.7-8-3.9-11.5-1.1-1.3 1.1-12.2 3.8-12.9 3.2-.2-.2.4-1.7 1.3-3.4 1.3-2.6 2-3 4-2.5 1.8.4 3.5-.1 6-2 1.9-1.5 4.7-2.6 6.2-2.6 4.9 0 15.3-1.2 15.8-1.9.2-.4-1.2-2.7-3.2-5.1-1.9-2.5-4.7-6.5-6.1-9-3.4-5.9-11.6-15.3-14.7-17-1.5-.8-2.5-2.2-2.5-3.5 0-1.2-.8-2.9-1.7-3.7-1.8-1.5-13.4-7.2-16.5-8.2-.9-.3-2.6-2.5-3.7-5-1.5-3.4-2.6-4.7-4.8-5.1-4.9-1.1-5.3-1.4-5.3-3.6 0-3.5-3.8-7.8-8.2-9.1-2.5-.7-6.2-3.3-9.7-6.6-3.1-3-7.9-6.9-10.6-8.7-2.8-1.8-5.7-4-6.4-4.9-1.6-1.9-2.8-2-6.2-.2-2.3 1.2-2.7 1.1-3.7-.4-.6-1-2.8-2.3-4.9-3-2.1-.6-8-3.2-13.1-5.6-8.6-4.1-13.2-5.4-13.2-3.7 0 1.2 3.3 6.4 7.4 11.7 4.3 5.6 4.4 6.6 1.1 6.6-1.4 0-2.5-.5-2.5-1 0-2.2-3.2-2.2-5.5 0l-2.4 2.2 5 6.5c2.7 3.5 4.9 6.8 4.9 7.3 0 .4-1.5.3-3.2-.2-7.4-2.4-8.6-3.4-14.9-11.1-3.2-3.8-5.6-4.6-7.7-2.5-.9.9-.2 2.1 3.1 5.3 3.6 3.4 4.7 5.3 6 10.8 1.9 7.5 2.1 11.5.7 13.7-.7 1.1-1 0-1-3.7 0-4.3-.6-5.9-3.3-9.5-1.8-2.4-3.6-5-3.9-5.9-.4-.9-2.7-2.4-5.2-3.2-4.6-1.6-4.6-1.6-4.6.7 0 1.3 1.1 3.9 2.4 5.8 1.3 1.9 2.6 5.1 3 7 .4 2 1.5 4.7 2.6 6.1 2.4 3 2.6 8.9.5 10.7-1.3 1.1-1.5.6-1.5-3.5 0-3.8-.6-5.5-3.1-8.6-2.6-3.3-3.7-3.9-6.7-3.9-2.1 0-5.5 1-7.7 2.1-3.2 1.7-4.3 1.9-5.8.9-2.2-1.4-3.7 0-3.7 3.5 0 1.2-1.3 2.7-3 3.7-2.7 1.5-3 2.2-3 6.8 0 3.6-.4 5-1.4 5-.7 0-2.5.9-4 2.1-2 1.6-2.6 1.7-2.6.6 0-.9.6-1.8 1.3-2.1.8-.3.6-.9-.7-2-2.7-2.2-5.6-2-8.3.6-2.4 2.3-3.1 1.1-1.3-2.3 1.2-2.2 5.9-2.6 9.1-.7 1.7 1.1 2.2 1 3.5-.7 1.3-1.7 1.2-2.1-1.1-4.3-1.4-1.2-2.5-2.9-2.5-3.6 0-.7-1.1-1.8-2.5-2.4-2.8-1.3-3.5-3.8-.8-2.8 3.9 1.5 10.6-.6 15.1-4.7 4-3.8 11.9-14.8 13.5-19 .3-.9 1.8-2.2 3.2-2.7 1.4-.5 3.7-3 5.2-5.4 2.2-3.6 3.8-4.9 7.8-6.4 4.6-1.8 5-2.2 5.6-5.8.3-2.1 1.5-5.8 2.7-8.1 2.8-5.3 2.8-7.9.1-9.4-2.6-1.3-6.5.4-7.5 3.3-.7 2.3-4.6 3.3-7.2 1.9-2.7-1.4-2.4-1.5-6.7 1.9-2.1 1.6-4.9 3-6.2 3-1.5 0-3.9 1.4-6 3.5-1.9 1.9-3.9 3.5-4.4 3.5-.5 0-.9.4-.9.8 0 1.6-10.5 12.2-11.9 12.2-.8 0-2.7 1.2-4.2 2.6l-2.7 2.6.1-4.8.2-4.9-5.8.3c-3.3.1-6.9.9-8.3 1.9-2.5 1.6-2.6 1.6-2.2-.7.4-3.4 8.5-6.3 14.9-5.5 6.4.8 9.5-.6 10.1-4.4.5-3.7-1.6-6.1-8.5-9.1-4.7-2.1-5.2-2.6-4.2-5.3.5-1.2 1.4-1.1 6 .4 2.9.9 6.4 2.5 7.8 3.4 3.6 2.3 8.1 3.4 10 2.3 1-.5 2.6-2.7 3.8-4.9 1.9-3.8 1.9-4.2.4-6.5-1.4-2.2-2.2-2.4-9.6-2.4-4.7 0-9.4.6-11.4 1.4-4.4 1.9-5.3.5-2.5-3.4 2.4-3.3 4.5-4.6 13.7-7.9l6.2-2.3 6.6 5.6c6.9 5.8 11.7 7.6 15.4 5.7 1.4-.8 2.1-2.1 2.1-3.9 0-2.3-.6-3-3.2-3.7-2.2-.7-4-2.3-5.8-5.4-2.7-4.7-3.9-5.6-8.4-6.6-2.6-.5-2.8-.9-2.2-3.8 1.3-6.9 1.2-7.1-2-8.2-1.7-.5-3.7-1.5-4.5-2.1-.8-.6-3.1-1.5-5.3-1.8-2.4-.5-4.9-1.9-6.8-3.9-2.9-3.1-2.9-3.2-4.4-1.2-.8 1.1-1.7 3.1-2 4.5-1 4.5-1.3 5-3.4 5-1.2 0-3.1.5-4.2 1.1-1.9 1-2 .9-1.6-3.2.3-3.7 0-4.6-3-7.5-1.9-1.8-4.1-3.5-5-3.7-1-.2-.7-.3.6-.1 1.2.2 3.3.7 4.5 1 3.4.8 5.3-1.6 6.1-7.8.6-4.9.4-5.5-2.1-7.6l-2.8-2.3 3.5-3c2.8-2.4 3.2-3.1 2-3.9-.8-.5-1.9-.5-2.5-.1-.5.5-3.5 1.1-6.5 1.4-3 .3-6.5.8-7.7 1.2-4 1.3-2.5-.9 2.4-3.5 5.8-3.1 7.7-6.8 4.8-10-1.1-1.2-3.1-2-5-2-2 0-3.5-.6-3.9-1.5-.3-.8-1.4-1.5-2.5-1.5-1 0-4.4-2.1-7.5-4.7-4.3-3.6-5.6-5.4-5.6-7.5 0-2.4-.6-2.9-5.2-4.2-12.6-3.5-15.4-3.7-22-1.5-5.1 1.8-7.5 2.1-14.2 1.5-4.5-.3-10.2-1.3-12.8-2.3-3.9-1.4-4.8-2.1-4.8-4.1 0-2.9-3-8.2-4.7-8.2-.6 0-1.6.6-2 1.3-.4.8-1.6 1.7-2.6 2-1.7.6-1.8 0-1.7-6.6.1-9-.8-13.8-2.8-15.5-2.1-1.6-2.7-1.5-4.6.4-1 .9-1.6 3.3-1.6 5.8 0 3.6-.4 4.5-2.5 5.4-2.4 1.1-2.5 1-2.5-1.8 0-1.6-.4-3.2-1-3.5-.5-.3-1-1.4-1-2.5 0-1-1.5-2.7-3.5-3.9-3.5-2.1-4.3-3.5-2.5-4.6 1.6-1 1.2-4.5-.5-4.5-.8 0-2.9-1.4-4.7-3-3.2-3.1-5.2-3.7-6.3-2-.4.6-3.1-.7-6.5-3-3.2-2.2-7.1-4-8.5-4-1.4 0-3.9-1-5.5-2.2-2.9-2.1-3-2.1-5-.3-1.1 1-2 2.9-2 4.1 0 2.7-10.8 14.4-13.2 14.4-.8 0-2.9 1.9-4.6 4.2-1.8 2.4-4.7 6.1-6.7 8.3l-3.5 4 2.6-7.5c1.5-4.1 3.4-8.2 4.3-9.1 3.5-3.3 4.4-7.3 2.7-11.4-2.2-5.2-2-9.8.4-12 1.3-1.2 2-3.1 2-5.7 0-4.3 1.8-5.7 5.3-4.1 3 1.4 4.7.6 4.7-2.3 0-2.2-.4-2.4-4.3-2.4-8 0-28 11.9-29.1 17.3-.8 3.9-6.8 9.7-8.9 8.6-.8-.5-3.9-.6-6.9-.1-4.7.6-5.4 1.1-6.3 3.7-1.5 4.4-2.4 5.5-4.5 5.5-1 0-2 .5-2.2 1.1-.3.9-1.9.7-5.7-.6-2.9-.9-6.1-1.5-7.2-1.2-1.2.3-1.9 0-1.9-.9 0-1.7.1-1.7-3.9-.3-1.7.6-3.1 1.5-3.1 1.9 0 1.2-6.9 5-9.1 5-2.3 0-9.9 4.6-9.9 6 0 .6-1.4 1-3 1-1.7 0-4.5.7-6.1 1.6-2.8 1.4-3.2 1.4-5-.2-1-.9-1.9-2.8-1.9-4.1 0-2.6 6.5-10.3 8.6-10.3 2 0 5.7-6.2 4.2-7.1-.8-.5.1-2.1 2.5-4.8 4-4.5 4.9-8.9 2.2-11.1-2-1.6-1.6-4.9.7-6.4 1.5-.9 2.3-.5 4.7 2.2 3.7 4 6.2 4.1 8.5.1 1.7-2.9 1.7-3.1.1-4.9-1.6-1.8-1.6-2.2.5-6.6l2.3-4.7-2.4-4.4c-2.2-4.1-2.3-4.5-.6-5.4 4.2-2.4-1.1-5.6-6.3-3.7-2.5.8-3.4.7-4.9-.6-2-1.8-4.4-2-7-.6-1.4.7-2.3.4-3.7-1.1-1.1-1.2-3.1-2.7-4.5-3.5-2.2-1.1-2.9-1.1-4.8.2-1.1.8-2.1 2.1-2.1 2.8 0 .8-1 1.6-2.2 2-1.8.5-3.1-.2-5.5-2.9-1.8-1.9-3.3-4.4-3.3-5.5 0-3.2-2.8-3.6-5.8-.8-1.9 1.8-5.9 3.4-13.1 5.2-5.7 1.4-11.8 3.5-13.5 4.5-1.9 1.2-5.9 2.2-10.6 2.6-4.1.4-9.2 1.3-11.3 2.1-6.6 2.5-10.3 1.9-14-2.3-4.5-5.1-7.4-10.2-8.2-14.4-.6-3.4-.4-3.8 2.9-5.8 1.9-1.2 3.8-3.1 4.1-4.1.4-1.3 1.4-1.9 2.8-1.8 2.7.2 8.7-3.2 8.7-4.9 0-.8 1.3-1.6 2.9-1.9 1.9-.4 3.9-2 5.6-4.3 1.4-2.1 4.3-4.8 6.5-6 3.4-1.9 4-2.7 4-5.6 0-4.4 2.5-6 10.5-6.9 3.9-.4 7.2-1.5 9.6-3.1 1.9-1.4 4.2-2.5 5.1-2.5 1.6 0 5-4.8 6.3-8.9.5-1.7.1-2.3-2.2-3.2-1.5-.6-3.6-1.8-4.6-2.7-1.9-1.7-8.7-15.6-8.7-17.8 0-.7-.9-1.6-2-1.9-1.1-.4-3.3-1.7-4.8-3-2.2-1.8-3.2-2.1-4-1.3zm348.9 390.5c-1.2 2-1.4 1.4-.5-1.2.4-.9.9-1.4 1.1-1.1.3.2 0 1.3-.6 2.3z"/></svg>
