<svg version="1.0" xmlns="http://www.w3.org/2000/svg" width="1365.333" height="1365.333" viewBox="0 0 1024 1024"><path d="M195.5 1.2c-2.2 6.8-3.7 15.8-3.1 20.2.5 4.3.2 5.4-1.6 7.3-2 2.1-2.1 2.7-1 6.7 1.4 5.3-.1 11.2-3.5 13.9-2 1.6-2.3 2.7-2.3 9.5 0 7.5.2 8 5.1 16.2 2.8 4.7 5.9 9.4 7 10.5 1 1.2 2.8 4.7 3.9 7.9s4.1 9 6.8 13c5.5 8 11.4 22.2 13 31.1.6 3.3 1.6 11.2 2.2 17.5.9 9.6.9 12.8-.4 19.5-2 10.3-2 13.9.1 16.1 1.7 1.7 1.6 1.7-1.6 1.1l-3.4-.7.7 8.7c.5 6.2 1.4 10.3 3.2 14.3 2.9 6 4.1 15.8 3 23.3-.7 4.9-1.8 5.6-6.8 4.9-2.3-.4-3-1.2-4-4.6-2.2-7.9-4.3-8.9-22.9-11l-4.6-.5.4 7.7c.2 4.2.8 9.6 1.3 11.9.6 2.3 1 6.1 1 8.5 0 5.2 1.8 8 7.2 11.4 3 1.9 4.8 2.4 7.2 2 2.8-.5 3.7-1.6 7.4-9.1 4-8.1 4.4-8.5 7.4-8.5 1.8 0 5.7 1.4 8.6 3l5.2 3v15.3c0 16.7-.8 20.9-6.1 30.7-2.2 4.2-2.9 6.5-2.3 8.2 1.1 3.5 3.7 6.7 5.5 6.8 1.1 0 1.8 1.3 2.3 4.1 1.5 9.3 5.2 13.5 8.5 9.5 1.8-2.1 5.2-.8 11 4.3l5.5 4.8-2.3 6.1-2.3 6 2.3 3.1c2.2 3 2.6 3.1 9.3 3.1h7l-2 2.1c-1.8 1.8-2.4 1.9-4.1.8-3.2-2-4.9-.5-6.7 6-1.5 5.2-1.5 6.4-.3 9.3.8 1.8 2.4 4.2 3.6 5.2 2.1 1.9 2.1 1.9 2.1-.7 0-3.1.2-3.2 4-1.2 3.3 1.7 5 4.3 5 7.7v2.2l-1.6-2.2c-1-1.5-2.5-2.2-4.8-2.2-4.4 0-6 2.1-5.3 6.7.8 4.5 3.4 7.3 7.7 8.2l3.2.6-3 3.8c-1.8 2.2-3.3 5.6-3.7 8-1.3 8.9-1.6 9.7-4 10.3-2.3.6-2.3.8-2.3 13.9.1 12.1-.1 13.5-2.1 16.4-1.2 1.7-2.7 3.1-3.2 3.1s-.9 2.6-.9 5.9c0 5.2.2 5.9 2.3 6.5 1.2.3 2.5.6 2.9.6.3 0 1.2-2.4 1.9-5.3 1.3-5.7 3.8-8.6 5.2-6.1 1.1 1.9 3.6 1.8 5.9-.3 1.3-1.2 2.1-1.4 2.9-.6.8.8-.1 1.7-3.2 3.4-2.4 1.2-4.7 2.7-5.1 3.3-1.1 1.6-1 6 .2 9.2.8 2.1 1.4 2.4 2.2 1.6 2.8-2.8 11.7.5 19.1 7.1 4.1 3.8 4.5 5.7 2.5 13.5-1.6 6.7-3.5 9.2-6.8 9.2-2.3 0-3 .5-3.5 3-1.1 5 .5 13 3.6 18.1 3.3 5.2 3.6 5.4 10.3 6.4 3.8.6 4.7 1.2 5.2 3.1.4 1.4.4 3.3.1 4.3-.3 1.3.7 3 3.2 5.4 4 3.8 14 10.7 15.6 10.7.5 0 1.8 2 2.8 4.5 1.4 3.2 2.5 4.5 3.9 4.5 2.3 0 12.1 9 15.4 14.2 1.3 2 4 7.8 6 12.9 2.1 5 6.1 12.7 9.1 17 2.9 4.4 5.3 9 5.3 10.4 0 1.9.7 2.6 2.8 3.1 5.6 1.4 11.7 7.1 17.3 16 1.1 1.8 2.9 3.6 4 3.9 2.9 1 4.9 6.4 4.9 13.3 0 8.9.9 11.8 4.9 16.5 2 2.3 4.2 5.9 4.8 8 1 3.4.9 4-1 6.1-2.9 3.1-9.3 4.2-10.7 1.8-2.4-4.3-2.4-4.3-7.3-2.6l-4.7 1.6 2.5 3c3 3.6 3.1 4.4.5 8.3-2.8 4.2-2.8 12.5 0 15 1.1 1 3.3 3.8 4.8 6.2 2.9 4.6 8.8 8.3 13.4 8.3 1.4 0 4.6.9 7.1 2 3.7 1.7 4.7 2.6 5.2 5.3 1.6 8.2 3.3 10.3 14.4 17.4 8 5.2 13.1 7.7 20.8 10.1 5.6 1.8 10.5 3.7 10.9 4.3 1 1.7 9.3 4.9 12.6 4.9 2 0 4 1 6 3 2.7 2.7 3 3.6 2.4 7-.5 3.4-.3 4.1 1.6 5.1 4 2 8.8 7.2 8.8 9.5 0 1.2.9 4.3 2 6.8l1.9 4.6h6.6c6.4 0 6.7.1 10.5 4 3.2 3.3 4.6 4 7.7 4 3.5.1 4.1.5 8.2 6.5 7.4 11.1 18.2 21 22 20.3 1-.2 2.6.4 3.5 1.1 1.9 1.6 11.1 5.1 13.3 5.1.7 0 3.4 1.4 6 3 2.6 1.7 5.3 3 6 3 .7 0 3.6 1.4 6.4 3.1 4.8 3 5.4 3.1 12.4 2.6 6.5-.6 7.4-.4 9.1 1.4 1 1.2 3.1 2.7 4.6 3.5 1.9 1 3 2.7 3.8 5.7 1.6 6.6 4 10.5 11.1 18.3 3.7 4.1 8.8 10 11.4 13.2l4.8 5.9 8.1.6c10.7.8 14.7 2.1 19.6 6.2 2.2 1.8 4.9 3.7 6 4 1.1.4 2 1.5 2 2.5 0 2.5 8.7 9.4 13.7 11.1 2.1.6 5.5 2.7 7.6 4.5 2 1.9 4.5 3.4 5.6 3.4 1 0 2.9.8 4.2 1.9 1.3 1 6.7 3.7 12 6 6 2.6 10.8 5.5 13 7.7 3.9 4.1 9.4 6.7 12.1 5.8 1.2-.4 2.6.4 4.5 2.6 1.4 1.7 5 4.2 8 5.5 4.4 2 5.7 3.2 7.3 6.7 1.1 2.4 2 5.2 2 6.3 0 1.1 1.5 3.2 3.3 4.6 4.7 3.8 9.2 15.3 8.2 21.4-.5 3.9-.3 4.9 2.1 8 1.5 2 4 4.5 5.6 5.6 2.7 2 3 2 4.8.4 1.4-1.3 3.5-1.6 9.4-1.4l7.5.2 3.9-5.9c2.1-3.2 6.3-9.8 9.4-14.5l5.7-8.7 8.3.5c7.3.5 9.1.2 14.4-2l6.2-2.5 4.5 5.2 4.4 5.1 13.4-.3c15.1-.3 18.2.6 18.7 5.1.2 2 1 2.9 3 3.3 1.5.4 4 1.8 5.5 3.1 2.2 1.8 4 2.3 8.4 2.3 5 0 5.9-.3 8.7-3.2 1.7-1.8 3.7-4.5 4.3-6.1.9-1.9 2-2.7 3.8-2.7 1.6 0 2.5-.6 2.5-1.5s.7-1.8 1.5-2.1c2.3-.9 1.8-7.2-1.1-14.5-1.4-3.5-3.3-11.1-4.4-16.9-1.7-9.9-6.6-24.5-12.4-37-1.4-3-2.6-6.3-2.6-7.2 0-1.1-1.4-2.4-3.4-3.2-4.5-1.9-5.6-4.2-5.6-11.4 0-7-3.3-15.3-14.2-35.2-4.6-8.6-8.4-14.2-10.9-16.4-4.4-3.7-4.7-5.1-1.9-8.1 2-2.2 2-2.2.1-4.7-1.3-1.6-2.1-4.4-2.3-7.9-.2-4.5-.6-5.5-2.3-5.7-2.4-.4-9.3-8.9-12.8-15.8-1.4-2.8-3.2-5.6-4.1-6.3-2-1.7-3-6.9-1.7-8.5.7-.9.5-2.6-.9-6.2-3.7-9.8-5.5-11.9-15.3-17.3-5-2.8-10.9-5.6-13.1-6.2-5.1-1.4-18.6-11.7-22.7-17.3-1.7-2.5-4.9-5.9-7-7.6-2.2-1.7-3.9-3.9-3.9-4.8 0-.9-1.4-4.6-3.1-8.2l-3.1-6.5L781 711c1.4-14.1.8-43.2-1.3-62.5l-1.3-12 3.2-12.2c1.8-6.7 3.7-12.9 4.2-13.9 1.5-2.8-1.8-8.3-7.5-12.5-3.4-2.6-6.4-6.2-10.4-13-7.3-12.4-9.3-18.2-7.5-21.8.8-1.4 3.2-8.2 5.4-15.1 4.9-15.3 8.2-21.5 12.2-22.9l3-1-1.9-4.3c-1-2.4-3-6.8-4.3-9.8l-2.5-5.5 2.7-8.2c1.5-4.5 3.4-9.3 4.3-10.7 1-1.4 1.7-4.5 1.7-7.1 0-4.2.2-4.5 2.3-4 3.7 1 5.7-1.6 8.2-10.4l2.5-8.5-2.5-5.4c-1.4-3-2.5-6.8-2.5-8.4 0-1.6-.7-4.3-1.6-6-1.9-3.6-1.2-8.5 1.6-12.1 2.8-3.5 2.6-9.3-.5-15.2-2.4-4.4-2.6-5.7-2.4-15.4.2-5.9 0-11.1-.3-11.7-.4-.5-1.1-4.5-1.7-8.8-1-7.3-1.8-9-8.5-20-4.1-6.7-12.6-22.5-18.9-35.1-6.3-12.7-14.2-28.1-17.6-34.4-3.3-6.2-6.8-13.7-7.7-16.5-2.6-7.8-6.6-12.9-16.7-21-5.1-4-10.5-8.8-12.2-10.5-1.6-1.8-8.2-5.9-14.5-9.2-9.8-5.1-13.8-8-26.5-19.2-8.4-7.5-17.5-16.6-21-21-3.6-4.7-7.8-8.8-10.5-10.4-2.5-1.4-7.7-5.5-11.6-8.9-6.4-5.7-7.4-7.1-9.7-13.6-1.4-4-3.1-10-3.7-13.3-1.6-8.5-3.1-12.1-8.9-20.5-6.7-9.7-14.6-14.6-24.9-15.6-6.6-.6-18.6-3.8-20.9-5.6-.6-.5-1.5-2.3-1.8-3.9-.4-1.6-1-2.9-1.5-2.9-1.3 0-9 8.4-9 9.8 0 .7.7 4.2 1.6 7.7l1.6 6.4-4.9 6c-2.6 3.3-7 7.6-9.6 9.7-2.6 2-4.7 4.1-4.7 4.7 0 .6-2.7 4.5-6 8.8-6.8 8.7-7.4 11.8-3.5 15.9l2.4 2.6-1.9 3.2c-1.2 1.9-2.8 3.2-4 3.2-3.3 0-16.7 13.6-17.5 17.6-.9 5-3.4 4.3-7.5-2.1-2.9-4.6-4-5.5-6.4-5.5-1.6 0-4.4.9-6.3 2.1l-3.3 2.1.2-2.9c.1-1.9-1-4.7-3.4-8.3-2-3-4.4-7.4-5.3-9.8-1.1-2.8-2.3-4.2-3.5-4.2-1.2 0-2.3-1.2-3-3.3-.6-1.7-2.6-4.9-4.4-7-3.2-3.6-3.5-3.7-4.8-1.9-.7 1-4.7 4.1-8.8 6.7-7 4.5-7.9 4.8-15.7 5.3l-8.3.5-2.5 4.3c-2.6 4.4-7.4 7-14 7.6-2.1.2-3.7 1.4-5.9 4.5-2.8 4-2.9 4.4-1.7 8.4 1.6 5.4.2 8.9-4.8 11.7-2.1 1.2-6.3 4.2-9.3 6.7-6.5 5.3-9.8 5.9-9.8 1.7 0-4.1-5.2-14.3-9.1-17.7-1.9-1.7-5.3-3.8-7.5-4.8-5.6-2.5-7.3-5.7-5-9.2 1.1-1.7 1.5-3.6 1.1-5.4-.3-1.6-.1-4.8.5-7.3 1-3.7 1.7-4.7 4.4-5.6 1.8-.7 4.4-1.2 5.8-1.2 1.6 0 2.9-.8 3.6-2.3.7-1.2 2.1-3.4 3.2-4.8 2.1-2.5 2.1-2.6.4-8.7l-1.7-6.2 2.6-5.3c1.5-2.9 2.7-5.8 2.7-6.4 0-1.8-3.4-3.3-7.3-3.3-4.8 0-6.6-2.3-4.5-5.8.9-1.5 2.6-3.2 3.9-3.9 3.2-1.7 5-5.5 4.3-9.3-1-4.8-3.5-5.9-11.9-5.3-6.6.5-7.5.4-11.1-2.1l-3.9-2.7-3.3 3.6c-2.9 3.2-3.7 3.5-6.5 2.9-1.8-.3-3.8-1.1-4.5-1.7-.9-.7-2.1-.6-3.9.2-3.5 1.6-4.5.3-3.2-4.3 1.4-4.9.6-7.7-3.3-12.1-2.9-3.4-3-3.9-2.5-9.5.8-7.5-.4-11-3.7-11-3 0-4.6-2.5-4.6-7.4s-1.8-4.7-9.2.9c-6.6 5-9.6 5.5-13.8 2.5-5.1-3.7-12-6-17.6-6-5.2 0-5.5-.1-6-2.9-.7-3.2-2.5-4.1-9.1-4.1-5.4 0-8.8-1.4-13.3-5.3-2-1.8-5.1-4-6.9-5-2.5-1.3-3.1-2.1-2.5-3.5 2.1-4.7 1.5-9.7-1.9-15.7-3.6-6.3-5.5-7.5-9.2-5.5-1.9 1-3.2.9-7.1-.4-5.7-1.9-5.4-1.9-5.9-.4zM124.7 43.5c-.8.7-1.8 3-2.1 5-.7 3.4-.8 3.5-5.4 3.5-2.6 0-7.2-.6-10.2-1.4-3-.7-7.4-1.6-9.7-1.9l-4.3-.5v4.9c0 4.7.2 4.9 4 6.9 2.1 1.1 4.8 2 6 2 1.5 0 2 .7 2.2 2.7.1 1.6.3 5.3.5 8.3.3 6.5.8 14.5 1.1 18l.3 2.5 1.9-2.4c1.3-1.5 2-3.8 2-6.6 0-3.8.4-4.5 4-6.9 2.2-1.4 4.7-3.7 5.6-5.1 2.1-3.2 5.1-3.2 8.5.1 2.5 2.4 3.1 2.6 8.8 1.9 3.4-.4 6.1-.9 6.1-1.1 0-.3-.9-2.2-2-4.4-2.2-4.4-2.5-8.7-.9-12.4.6-1.3.9-3.6.5-5-.5-2.1-1.3-2.5-4.9-2.8-3.9-.3-4.2-.5-4.5-3.6-.3-2.8-.7-3.2-3.2-3.2-1.6 0-3.5.7-4.3 1.5z"/><path d="M123.8 79.2c-3.8 2.2-5.8 6.9-5.8 13.7 0 2.6.4 3.1 2.5 3.1 2 0 3-1.1 5.5-6 2.7-5.4 4.1-13 2.3-13-.5 0-2.5 1-4.5 2.2z"/></svg>
