<svg version="1.0" xmlns="http://www.w3.org/2000/svg" width="1365.333" height="1365.333" viewBox="0 0 1024 1024"><path d="M823.1 4.2C821 6.6 818.9 8 817.4 8c-3.7 0-8.6 2.4-11.2 5.4-2.4 2.9-11 8.4-15.7 10.2-15.9 6.1-19.9 7.4-21.9 7.4-1.2 0-3.3 1.1-4.6 2.5-1.3 1.3-4.6 3.7-7.4 5.2-4.7 2.6-6 2.8-16.7 2.8-11 0-11.8.2-15.6 2.8-2.1 1.5-5.1 2.7-6.7 2.7-3.7 0-7.8 2.3-11 6.1-3.8 4.5-8.4 4.3-13-.6-4.1-4.4-7.9-5.5-19.6-6-10.2-.4-11.3.2-15 8.5-2.4 5.5-3.4 6.6-8.6 9.6-5.6 3.2-6.4 3.4-14.9 3.2-5.9 0-9.8-.6-11.4-1.5-1.5-1-3.5-1.3-5.7-.8-1.9.3-4.3.1-5.4-.5-1.5-.8-2.5-.8-3.4-.1-1.3 1.1-4.9.9-8.6-.7-2.2-.9-2.9-.6-5.7 2.4-5.4 5.8-13.6 8.2-16.4 4.8-1.1-1.4-2.7-1.5-10.6-.9l-9.3.7v-2.5c0-3.5-1.7-7.7-3.1-7.7-.7 0-2.1-.8-3.1-1.7-1.1-1-3.1-1.8-4.6-1.9-1.8-.1-2.6-.6-2.4-1.6.3-2.1-1.6-3.4-6-4.2-3.1-.6-3.9-.3-4.8 1.4-.6 1.1-2.1 2.2-3.3 2.5-1.3.4-2.7 1.6-3.2 2.8-1.7 3.8-6.1 5.2-12.5 3.9-3.1-.7-11.7-1.2-19.2-1.2h-13.6l-.7 6.7c-.7 7.9-2.4 15.2-3.8 17.1-.6.8-1.3 3.2-1.6 5.5-.4 2.8-1.3 4.5-2.6 5.2-1.1.5-3 1.9-4.1 3-1.1 1.1-2.9 2.5-3.9 3-1.5.9-1.6 1.4-.6 3.3.8 1.6.9 2.8.1 4.1-.5 1.1-1 3.3-1 4.8 0 1.6-.5 3.4-1.1 4-.9.9-.5 2 1.5 4.3 1.4 1.7 2.6 4 2.6 5 0 1.1.5 3 1.2 4.4.9 2.1.7 4.1-1.1 10.6-1.9 7.2-2 8.3-.7 11.4 1 2.5 1.3 5.7.9 11.6-.5 7.2-.4 8.4 1.6 11 1.1 1.6 2.1 3.8 2.1 5 0 1.1 7.3 11.3 16.2 22.7 8.9 11.5 17.5 23.2 19.1 26.2 1.5 3 6.8 10.6 11.8 16.9l8.9 11.6v6.3c0 3.6.5 7.3 1 8.3.8 1.5.3 3.4-2.3 8.7l-3.4 6.8 1.4 6.5c1.7 7.7 1.1 18.6-1.3 25-1.1 2.9-1.8 8.1-2 14.5l-.2 10-5.7 2.9c-4.8 2.5-6.9 3-13.6 3.1-4.3.1-8.3.5-8.7 1.1-1.4 1.5-3 6.4-4.7 14.6-1 4.7-2.2 7.8-2.9 7.8-.7 0-2 .8-2.8 1.7-1.9 2.2-1 5.2 2.5 8 3.2 2.4 4.3 7.9 2.7 12.8-.8 2.5-.9 4-.1 4.8.6.8.6 1.8.1 2.7-.6.8-1 3-1 4.7 0 3.6-1.3 4-7.8 2.7-2.4-.5-3.1-1.3-3.6-3.7-.5-2.6-.1-3.6 2.9-6.7 1.9-2 3.5-4.1 3.5-4.8 0-1.5-4.6-4.5-5.9-3.8-1.4.9-4.1-.4-4.1-2 0-.8-1.1-1.9-2.4-2.4-2.7-1-5.6-4.6-5.6-7 0-.8-3.2-4.7-7-8.7-3.9-4-7-7.9-7-8.6 0-1.9-3-4.5-6.7-5.8-2.6-.9-3.3-1.8-4.3-5.9-1-4.1-.9-5.2.4-7.3 2.1-3.1 1.5-4.5-3.9-8.6-3.7-2.7-4.5-3.9-4.5-6.5s.7-3.5 4.1-5.4c4.9-2.8 8.5-9.7 7.5-14.4-.6-3.3.7-6.6 3.6-8.6 1-.7 1.8-1.9 1.8-2.6 0-.7.9-2.1 2.1-3.2 1.6-1.5 2-2.7 1.6-5.9-.2-2.2 0-6.6.6-9.8.6-3.8.6-6.1-.1-7-.9-1.1-1.4-6.4-1.4-16.8 0-4.2-.5-5.1-6.2-11.4-6.1-6.7-6.4-6.9-9-5.7-1.5.6-4.6 1.2-7 1.2-2.6 0-4.8.6-5.6 1.5-.8 1-1.7 1.2-2.9.6-1.9-1.1-8.3.9-11 3.3-1.7 1.5-1.9 1.5-2.4.1-1.1-2.7-4.3-1.8-5.3 1.7-1.1 3.9-3 4.7-3.9 1.6-.4-1.3-2.6-4.3-5-6.8-2.3-2.5-5-6.8-6-9.5-1-2.8-3.1-6.5-4.7-8.3-1.5-1.8-2.8-4.3-2.8-5.6 0-1.3-.9-3.1-2-4.1-2.1-1.9-6.6-1.6-12.4 1.1-1.7.7-18.9 5.4-38.3 10.4-27.6 7.1-36.3 9.7-40 12-2.6 1.7-5.8 3-7.2 3-2.9 0-5.1 1.1-10.8 5.2-3.2 2.3-7.1 3.4-23.3 6.4-19.4 3.6-19.6 3.7-38.2 12.1-18.3 8.3-18.8 8.6-19.4 11.9-.7 4 .6 7.8 5.4 15 2.7 4.2 3.2 5.8 2.7 8.5-.3 1.9-.6 4.3-.5 5.4.1 1.1.4 8.1.8 15.5l.7 13.5 13.6.3c11.9.2 13.9.5 15.3 2.1 1.7 1.9 1.8 1.9 5.3-.5 2.5-1.7 5-2.4 8.3-2.4 4.3 0 5.2.4 10.2 5.3 4.7 4.5 6.5 5.5 12.7 7.1 5.6 1.5 8.5 2.9 12.4 6.3 2.9 2.4 5.5 5.3 5.9 6.4 1.2 3.1 8.4 5.6 18.3 6.4 7.7.5 10.5 1.3 19.3 5.2l10.2 4.6v3.7c0 3.7.1 3.7 4.6 4.4 2.6.3 6.2.6 8 .6 1.9 0 3.4.2 3.4.5 0 1.9-5.8 11.6-7.2 12.1-1.8.5-1.8.7.2 3.9 1.1 1.8 2.7 7 3.5 11.4.8 4.4 1.9 9 2.5 10.2.9 1.6.8 2.4-.3 3.7-3 3.7-3.9 7.6-2.3 11.2 1.7 4.3.2 14.8-2.5 16.7-1.3.9-1.5 2.3-1.2 5.5.3 2.4 0 5.4-.5 6.8-.7 1.9-.5 3.7.9 7.3 1.1 2.6 1.9 5.8 1.9 7 0 1.2.7 3.5 1.5 5 1.3 2.6 1.3 3.1 0 5-.8 1.2-1.5 3-1.5 4s-.5 1.5-1.1 1.2c-1.3-.9-6.6 1.3-7.3 3-.2.7.7 3.5 2.1 6.2 2.6 4.8 2.6 4.9.8 7.6-1.3 2-2.5 2.7-5.1 2.7-4.9 0-8.6 1.9-8.2 4.4.2 1.2-.4 2.6-1.2 3.3-2.4 1.9.1 4.9 3.9 4.5 2.7-.2 3.1.1 3.1 2.2 0 1.4.4 2.7 1 3.1.5.3.6 1.5.1 2.8-.5 1.2-1.2 4.5-1.6 7.4-.4 3-1.4 5.8-2.5 6.8-1 .9-2.2 3.1-2.5 4.7-.6 2.4-.2 3.5 2 5.8s2.5 3.4 2 6.1c-.5 3.2-.3 3.6 4.9 7.1 5.4 3.7 5.4 3.8 4.5 7.5-.4 2.1-1.1 5.9-1.4 8.5-.4 3.2-1.2 4.9-2.3 5.3-3.9 1.3-8.4 6.2-8.8 9.5-.2 1.9-.8 3.6-1.2 3.9-.5.3-3.4 4-6.5 8.3-4.1 5.5-6.4 7.8-8.5 8.3-1.6.3-4.1 1.9-5.6 3.4l-2.7 2.8 1.1 8.2 1.1 8.1-5.1 6.2c-2.7 3.5-5 6.9-5 7.6 0 .7 1.1 3.5 2.5 6.2 2.4 4.8 2.5 5 .5 5-1.2 0-9.1 6.7-20.2 17.2-10.1 9.5-26.7 25.1-37.1 34.7-21.6 20-19.7 15.4-17.2 40.1 1.7 17.2 1.9 31.1.5 36.2-1 3.4-.7 4.6 2.3 11.1 2.5 5.4 3.6 9.5 4.2 15.3.7 7.7.8 8 5.1 11.9l4.4 4.1v8.2c0 5.9.5 9.2 1.7 11.5 2.1 4 1.9 10.9-.7 30.7-1.1 8-2.9 22.6-4 32.5-1.2 9.9-3 20.4-4.1 23.5-2.6 7.4-1.8 13.1 2.4 16.6l3 2.5-.8 8.7c-.9 9.8-.9 13.6.2 31.1 1 15.7-.1 15 23.4 15.7l15.6.4 3.2-7c1.8-4.1 3.1-8.7 3.1-11.1 0-6.4 3.8-26.9 6-32.1 2.5-5.8 2.5-5.8 0-5.8-2.6 0-5.4 4.5-5.3 8.6.1 4.2-.7 4.3-2.9.4-1.1-1.9-2.8-3.3-4.7-3.6-2.4-.5-3-1.2-3.5-4.6-.4-2.2-1.3-5-2.2-6.3-1.4-2.2-1.3-2.5 2-5.8 2.4-2.4 3.3-4.1 2.9-5.5-.3-1.1-.1-2.8.5-3.8.9-1.5 1.1-1.4 2.5 1.2l1.5 2.9.7-3c2.3-11.1 4.2-13.6 14.7-19.9 12.4-7.2 43.9-19.9 64.8-26 34.8-10.2 58.7-18.2 66.5-22.4 5.6-3 8-5.1 12.5-10.9 3-3.9 6.7-8.1 8.3-9.3 3.9-3.1 8.7-10.4 8.7-13.5 0-1.5 1.2-4.6 2.6-7 1.7-2.9 2.4-5.5 2.2-7.7-.4-4.1-3.3-5.1-4.2-1.4-.8 3.1-2.3 3.4-2.8.6-.5-3.5-2.2-2.7-3 1.5-1.1 5.6-1.6 6.7-2.7 6.1-.5-.4-.3-2.8.6-5.9.8-2.8 1.8-6.8 2.3-8.7.5-2.5.8-2.8.9-1.2.2 4.5 2.1 1 2.1-3.9 0-3.6 1-7.4 3.5-13 2.1-4.9 3.5-9.6 3.5-12.1 0-3.2 1-5.4 4.5-10.5 5.1-7.2 5.8-8.9 3.4-8.5-2.3.3-2.9-2.6-2.9-13.4 0-5.9.5-10.4 1.5-12.8.8-2 1.8-6.9 2.1-10.9.5-5.9.3-8-1.1-10.7l-1.8-3.4-2.8 3.2c-4.8 5.4-5.6 4.5-5.5-6.6 0-5.3-.1-11.7-.3-14.2-.1-2.5 0-6.2.4-8.2.6-3 .2-4.7-2-8.5-2.5-4.5-2.6-5.4-2.1-13.8l.5-9-1.5 4.8c-.8 2.6-1.9 4.5-2.5 4.2-1.3-.8-1.1-3.5.2-3.5s.2-6.2-1.3-7.1c-.5-.3.4-2 2.1-3.7 3.7-3.6 4.1-5.7.9-4.8-1.3.3-4.1.8-6.3 1.1l-4 .6 4.2-1.8c2.3-1 4.7-2.3 5.2-2.8 1.5-1.6-1.6-16.6-3.9-19-2-1.9-2-1.9-2 .2 0 1.2-.8 2.3-2 2.6-1.6.4-2 0-2-2.2 0-1.7-1.1-3.9-3-5.7-1.6-1.6-3-3.9-3-5.2 0-1.3-.4-2.1-.9-1.8-1.3.8-2.3-2.4-1.2-3.8.5-.6 1.8-3.4 2.9-6.2 1.9-4.8 2-5.2.4-6.9-1.6-1.6-1.5-1.7 1.5-1 2.6.5 3.3.3 3.3-.9 0-.8-.5-1.8-1.1-2.2-.7-.4-.8-2.1-.5-4.3.4-2 .8-4.6 1-5.8.1-1.3 1-3.1 2-4.2 1.6-1.8 1.6-2-.9-4.9-3.8-4.5-3-4.9 1.6-.7 3.7 3.3 4.5 3.6 7.8 3 4.7-.9 15.4-6.8 21-11.7 2.4-2.1 4.7-3.8 5.2-3.8.4 0 1.1-.9 1.4-2 .3-1.1 1.2-2 2-2 .7 0 5.8-4.5 11.2-10 5.4-5.6 12.2-11.7 15.1-13.7 2.8-2 5.2-3.9 5.2-4.3 0-.4 2.6-1.5 5.8-2.5 3.1-1.1 6.5-2.8 7.4-4 1.2-1.3 1.8-1.5 1.8-.6 0 1 .9 1.2 3.5.8 3.9-.6 4.3-.2 1.8 2.6-1.7 1.8-1.7 1.9.7 1.6 1.7-.3 2.6-1.1 2.8-2.7.4-2.4 2.2-3.1 2.2-.7 0 2.4 1.4 1.7 3.4-1.5.9-1.7 1.6-4.3 1.5-5.8-.3-2.6 2.5-8.2 4.1-8.2 1.3 0 31-28.4 31-29.6 0-.3-1-.3-2.2.1-2.3.6-2.3.6.1-1.3 1.3-1.1 3.1-1.8 4-1.5.9.2 2.3-.8 3.3-2.4 8.2-13.1 10.9-16.8 13.2-18 2.5-1.3 2.9-2.1 2.7-5.3 0-1 .1-1.1.5-.3.7 1.7 3.1 1.7 4.1 0 .4-.6 3.5-2.5 6.8-4.1 3.3-1.6 6.7-3.3 7.5-3.7.8-.5 2.2-1.2 3-1.5 4.8-2 12-5.8 14.9-7.9 1.9-1.4 4.4-2.5 5.6-2.5 1.2 0 4.5-.7 7.3-1.5 4.6-1.4 5.2-1.9 5.2-4.3 0-3.8 1.6-6 2.3-3.3.6 2.5 2.9 2.7 10 .7 2.9-.8 6.4-1.7 7.9-2 1.6-.4 2.7-1.2 2.5-1.8-.1-.8 1.7-1.3 5.3-1.5 3.6-.2 5.9-.8 6.7-1.8.7-1.1 1.3-1.2 1.8-.6.9 1.6 7.6 1.3 10.5-.4 1.4-.8 4.3-1.5 6.5-1.5 5 0 7.5-1.4 5.8-3.1-1-1-.9-1.7.4-3.1.9-1 2-1.8 2.5-1.8s2.2-1 3.8-2.1c2.3-1.8 2.6-2.5 1.8-3.9-1.2-1.9-.3-7 1.2-7 .5 0 .7 1.3.4 2.9-.3 1.6-.2 3.1.3 3.4 1.3.8 14.3-4.9 17.2-7.6 1.4-1.3 5.8-4.1 9.6-6.1 8.5-4.6 9.1-5.1 7.8-6.8-.6-.7-1.3-3.2-1.6-5.6-.5-3.9-.4-4.2 1.9-4.2 1.4 0 2.7-.7 3-1.5.8-1.9 1.9-1.9 3.8 0 2.1 2.1 3.7 1.1 6.9-4.3 1.5-2.6 3.7-6.2 4.9-8.1 2.2-3.4 1.3-3.5-2.4-.3-1 .8-1.8 1-1.8.4 0-.5 1.7-2.3 3.9-3.9 6.3-4.7 17.2-14.6 18.4-16.9.7-1.2 3.6-4 6.5-6.3 3.6-2.9 5.2-4.9 5.2-6.5 0-1.4 1-3 2.5-4 4.5-2.9 6.3-11.3 3.2-14.4-1-.9-1.7-1.1-1.7-.5 0 1.4-2.6 2.4-4.4 1.7-.8-.3-1.2-1.2-.9-2 .6-1.7 8-5 10.1-4.6 1.7.4 1.5-3.9-.4-6.6-.8-1.2-1.1-2.2-.6-2.2.6 0 1.2.6 1.5 1.4.4 1.1 6.7 3 6.7 2 0-1.8-2.7-5.4-4.1-5.4-3.5 0-2.8-1.8 1-2.4 5.5-.9 8-3.3 8.3-8.1.1-2.2-.4-5-1-6.1-.9-1.8-.9-2.4.3-3.4 1.5-1.2 2.1-5 .8-5-.3 0-1.5.7-2.5 1.7-1.1 1-1.8 1.2-1.8.4 0-.6 1.1-1.7 2.5-2.3 2.1-.9 2.5-1.8 2.3-4.2-.4-4.2-3.9-4.8-6.5-1.1-1 1.4-2.6 3.6-3.6 4.8-1.8 2.2-1.8 2.2-1.1-1.3.4-1.9.7-4.6.6-5.8-.2-1.8.6-2.7 2.8-3.5 3-1.1 3.5-2.3 3-7.7-.3-3.6-2.1-4.2-4.7-1.8-2 1.8-2.3 1.9-2.3.5 0-.9-.7-1.7-1.5-1.7-2.2 0-1.8-2.7.5-4 1.1-.6 1.9-1.4 1.8-1.8-.1-.4.4-2 1.1-3.6.8-1.9.8-3.3.2-3.9-.6-.6-.4-1.8.6-3.3 1.2-1.9 1.3-3 .5-5.2-.6-1.5-1.4-5.9-1.7-9.8-.6-6.5-.5-7.3 1.4-8.6 2-1.4 2-1.5-1.4-2.8-1.9-.8-3.5-1.5-3.5-1.7 0-.1 1.4-2.5 3-5.1 2.7-4.5 3-5.7 3-13.4 0-5.3.6-9.9 1.5-12.1 2.3-5.7 2-6.9-1.7-6.5-2.6.2-3.2.7-3 2.2.2 1-.2 2.2-.9 2.7-2.3 1.4-3.9-.2-3.9-4.2s0-4 5.5-4.3c1.1-.1 2.1-.9 2.3-2 .5-2.5 2.4-4.4 3.8-3.9 1.7.6 3.5-2.2 2.8-4.1-.4-1-1.3-1.5-2-1.2-.9.3-1.4-.2-1.4-1.3 0-1 .8-2.2 1.7-2.5 1.3-.6 1.4-.9.5-1.5-.7-.4-1.4-2.5-1.5-4.5-.2-3.5-.4-3.7-2.8-3.2-2.1.4-2.8.1-3.2-1.5-.4-1.6.3-2.5 2.9-4.1 3.6-2.1 4.4-3.8 1.9-3.8-1 0-1.5-1-1.5-3 0-1.7-.7-3.3-1.7-3.9-1-.5-1.4-1.3-1-1.7.5-.5 1.2-.2 1.6.5 1 1.6 1.7.5 1.9-2.9.2-2.5 1.7-13.4 2.9-19.8.3-1.9 0-4.4-.6-5.6-.7-1.2-1.1-2.6-1-3.2.1-.5-.1-1.6-.5-2.6-.4-.9-.3-3.1.2-5 .6-2.2.5-3.9-.2-5-.7-1.2-.6-2.4.3-4.5 3.1-6.4 3.3-7.2 2.7-8.8-.3-.9-1-1.4-1.5-1-.6.3-1.9-.2-3.1-1.2-2.1-1.9-2.6-3.3-1-3.3.5 0 2-1.1 3.4-2.5s3.3-2.5 4.2-2.5c1.2 0 1.5-.6 1.2-2.4-.3-1.6.3-3.4 1.8-5.3 2.7-3.2 3.1-6.3.8-6.3-1.1 0-1.4-.8-1.2-3.2.2-2.4 1.2-3.8 3.5-5.3 1.8-1.1 3.2-2.5 3.3-3.1 0-1.1-4.5-2.9-6.2-2.6-.5.1-.8-.6-.8-1.6 0-2.2 3.9-4.2 8.3-4.2l3.2-.1-2.8-2c-1.9-1.5-2.6-2.7-2.2-4 .5-1.4.1-1.9-1.4-1.9-1.1 0-2.3-.5-2.6-1-.3-.6-.1-1 .4-1 .6 0 1.1-1.1 1.1-2.5 0-1.5-.6-2.5-1.4-2.5-.8 0-1.6-.3-1.8-.8-.1-.4-1.8.9-3.7 3z"/></svg>
