<svg version="1.0" xmlns="http://www.w3.org/2000/svg" width="1365.333" height="1365.333" viewBox="0 0 1024 1024"><path d="M474.2 1.6c-3.1 2.1-1.4 5 3.8 6.5 3.5 1.1 4.2 1 6-.6 2.5-2.2 2.5-3.7.2-5.8-2.3-2.1-7.1-2.2-10-.1zM460.6 19.6c-.7 2.8.9 6.4 2.8 6.4 1.6 0 2.6-3.2 1.9-5.9-.8-3-4-3.3-4.7-.5zM505 31.7c-2.4 3-2.3 6.1.2 7.7 2.1 1.2 4.9-1 7.2-5.7 1.1-2.4 1.2-3.3.3-3.9-2.4-1.5-5.6-.7-7.7 1.9zM469.4 34.1c-1.6 1.7-1.6 2.2-.4 2.9 2.9 1.8 5.7 1.1 6.2-1.5.3-1.3.3-2.7 0-3-1.2-1.1-4-.4-5.8 1.6zM431 56.4c-3.1 3.2-5.2 4.6-7.1 4.6-3.3 0-3.7 1-4.4 11.3-.9 11.5-2.2 16.8-6.6 26.2-2.1 4.5-4.5 10.7-5.3 13.7-.8 3.1-2.1 7-3 8.6-2.3 4.4-2 8.7.9 14.1 3.2 6 4.5 14 4.5 27.4v10.9l-3.4 3.9-3.3 3.9.4 18.8c.5 18.4.5 18.8 3.3 23.4 2.9 4.7 2.6 6.8-1 6.8-.9 0-3.1 1.3-5 3-5.4 4.5-13 3.7-13-1.5 0-2.8-2.4-5.3-9.2-9.7-3.8-2.4-4.8-3.6-4.8-5.7 0-1.5-.6-3.5-1.3-4.4-1.1-1.6-1.4-1.6-3.3-.2-1.9 1.3-2.2 2.7-2.7 12.2-.3 6-.8 12-1.2 13.4-.6 2.1-.1 2.9 2.9 5 4.1 2.8 4.5 4.7 5 24.9.3 13.7.5 14.5 7.1 23 3.7 4.9 4.3 6.3 4.9 12.5 1.2 12.8 1.8 16 3.4 17.7 1.9 2.2 5.1 2.3 8.1.2 2.9-2.1 4.8-.6 3.1 2.6-1.9 3.5-.4 7.8 3 8.5 2.2.5 3.7 1.9 5.7 5.7 3.5 6.2 8.1 9.4 10.8 7.4 2.6-1.9 3.3-11.8 1.1-17-1.6-3.8-1.6-4 .5-6.2l2.2-2.3 4.1 2.9c2.3 1.6 7.6 3.9 11.9 5.1 6.6 1.9 8 2.7 9.8 5.6 1.8 2.8 2 3.9 1 5.9-1.1 2.5-5.4 3.4-6.6 1.4-1.3-2.1-3.4-.9-4.1 2.4-.4 2.5-2.6 5.4-8.1 10.7l-7.5 7.3 1.5 13.4c.9 7.4 1.8 13.6 2.1 14 .8.8 5.6-3.9 5.6-5.5 0-2.2 4.6-1.5 7.8 1.2 1.9 1.6 3.4 4.1 4.1 7.1.9 3.5 1.5 4.4 2.4 3.5 1.9-1.9 4.3-1.3 8.6 2.3 4.6 3.8 12.5 6.2 17.4 5.1 1.8-.3 5.6-.9 8.5-1.2 4.6-.4 5.2-.7 5.2-2.8 0-1.3-1-3.2-2.3-4.2-3.6-2.9-2.3-5 4-6.4 3.1-.7 6.9-2.4 8.5-3.7 2.6-2.2 3.5-2.4 8.6-1.8 7.5.9 17.3 6.7 24.4 14.5 4.6 5.1 6.2 6.1 12.5 8.1 9.6 3 12.4 6.4 13.5 16.4.8 7.8 2.9 10.5 8 10.6 3.9 0 5.2-2.9 4.3-9.9-.8-6.8-2.5-10.6-7.1-16-3.2-3.7-3.5-4.5-3.3-9.8.1-3.9-.5-7.5-2-11.1-1.1-2.9-2.1-5.9-2.1-6.7 0-3.2 4.2-1.2 11.3 5.4 4.1 3.8 8.4 7.4 9.6 8.1 1.2.6 3.3 3.6 4.6 6.6 2.1 4.8 2.7 5.4 5.4 5.4 1.7 0 4.3 1.1 6.3 2.7 6 4.9 18.3 16.7 20.4 19.8 2 2.7 2.1 3.2.7 5.8-.8 1.6-1.3 4.2-1.1 5.9.3 2.9.7 3.3 5.4 4.3 2.8.6 6.6 2.3 8.5 3.7 1.9 1.4 5.1 2.8 7.2 3.1 2 .3 4.9 1.5 6.4 2.6l2.6 2.1 5.1-4.3c6.8-5.8 7-5.9 11.1-5.1 5.6 1 4.2 6.4-1.6 6.4-5 0-5.9.9-5.9 5.9 0 5.9 1.1 7.5 5.2 7.5 2.7.1 3.4.5 3.6 2.5.4 2.7 3 7.1 4.2 7.1.4 0 2.4-2.6 4.5-5.7 4.3-6.4 5.6-13.2 3.5-18.2-.9-2.4-.9-3.4.5-6.1.9-1.7 1.5-4.8 1.3-6.8-.2-3-.8-3.8-2.5-4-1.7-.3-2.3.2-2.3 1.7 0 1.1-.7 2.7-1.6 3.5-1.4 1.5-1.8 1.4-4.5-1.5-2.6-2.8-3.4-3.1-8.1-2.9-10 .4-10.7-.4-6.7-8.1 1.1-2.3 1.9-4.2 1.7-4.3-.2-.1-1.5-1-3-1.9-1.9-1.2-2.8-2.6-2.8-4.3 0-3.7-5.5-10.4-8.6-10.4-1.6 0-2.8-.9-3.9-3-3.5-6.8-.9-8.5 13.4-8.5h10.5l1.8-3.1 1.9-3.2-13.5-6.6c-7.4-3.6-14-6.6-14.7-6.6-.7 0-2 .7-2.9 1.5-1.4 1.2-2.3 1.3-5.1.3-4-1.3-4.9-2.4-4.9-6.1 0-3.3-1.6-3.5-7.7-1-4.4 1.8-5.8 4.3-2.4 4.3 2.6 0 2.9 1.4 2.2 9.8-.9 9.6-3.2 11.3-9.9 7.2-3.1-1.9-3.3-2.3-2.7-6.3 1.1-7-1.6-15-6.8-20.5-3.2-3.5-4.6-5.9-5.1-9.1-.5-3.6-.9-4.2-2.4-3.5-.9.5-7.8.8-15.2.9h-13.5l-4.7 3.4c-3.9 2.8-4.8 4-4.8 6.5 0 3.6-2.2 7.3-6.6 11-4.7 3.9-13.2 3.7-21.7-.5-7.4-3.7-11.7-7.5-11.7-10.3 0-1.2-1.1-4.4-2.3-7.1-1.3-2.8-2.7-6.6-3.1-8.5-.3-1.9-1.7-5-3.1-7-3-4.4-2.4-8 1.6-10.4 3.4-2 3.5-2.6.9-4.9-1.1-.9-2-2.6-2-3.7 0-1-1.3-3.4-2.9-5.2-1.5-1.8-3.4-5.1-4.1-7.3-.7-2.2-1.8-4.7-2.5-5.5-.7-.8-1.6-2.9-1.9-4.6-.4-1.7-2.1-4.4-3.7-6-5-4.7-7.4-10.4-4.4-10.4.8 0 2.6-1.7 3.9-3.8 1.3-2 3.2-4.5 4.2-5.4 6.9-6.1 7.3-6.7 7.9-11.2.6-3.6.4-5.1-.9-6.5-2.3-2.6-2-5.8 1.3-12.6 4.2-8.4 6.2-10.4 12.9-12.4 3.2-1 7.8-3.2 10.2-5 5.1-3.7 6-2.9 3.1 2.8-4.6 9-1.4 9.5 6.2 1 4.7-5.2 5.6-6.7 5.9-10.7.9-9.7 4.9-21.9 9-27 4.8-5.9 9.7-17.7 10.4-24.7.6-5.7.4-6.6-2-10.1-1.4-2.1-2.6-4.7-2.6-5.7 0-3-5-8.7-7.6-8.7-4 0-9.3-9.3-10.5-18.5-.4-3.3-1.1-7.3-1.5-8.8-.3-1.6-.2-4.5.4-6.5.6-2.1 1.5-7.1 2.1-11.2.9-5.9 1.8-8.1 4-10.5 6.5-6.9 7-9.8 2.9-15.7-1-1.5-2.5-4.3-3.3-6.2-2.4-5.7-6.5-4.5-6.5 1.8 0 3.2-7 9.6-11.6 10.7-6.5 1.5-10.2 1-16.2-2-3.1-1.5-8.8-3.9-12.7-5.1-3.8-1.3-11.3-5-16.5-8.3l-9.5-5.9-8.5-.3c-4.7-.1-10.1-.5-12-.9-3.2-.7-3.8-.4-8 3.8z"/><path d="M512.4 303.5c-1.2.8-2.4 1.2-2.6.9-.3-.2-1.1.2-1.7 1-1.5 1.8.5 7.1 3.8 10 1.4 1.3 2.1 3.1 2.1 5.6 0 3.4 1.2 5 3.7 5 .3 0 .3-2.4 0-5.3-.2-2.8 0-7.6.6-10.5 1.1-4.9 1-5.5-.8-6.8-2.3-1.7-2.6-1.7-5.1.1zM668.8 364.2c-1.5 1.1-1.5 2.4-.7 10.4l1 9.2-3.6 7.1c-1.9 4-3.3 7.6-3 8.1.8 1.3 5.1 1.3 7.5 0 1.3-.7 2.8-.7 4.6.1 1.6.5 4.5.7 6.6.4 3.3-.6 4-1.2 5.8-5.2 1.1-2.5 2-6.4 2-8.6 0-3.4-.7-4.8-5-9.3-2.7-2.9-5-6.1-5-7.2 0-2.4-4-6.2-6.6-6.2-1.1 0-2.7.6-3.6 1.2zM510.6 404.6c-.3.9-.6 2.3-.6 3.3 0 .9-1.3 3-3 4.6-1.6 1.6-3 3.2-3 3.7 0 .4 2.9 2.7 6.4 5 3.8 2.6 6.7 5.3 7.4 7 .6 1.5 1.4 2.8 1.9 2.8.4 0 2.5-1.5 4.5-3.4 6.8-6.3 7.3-15.9.8-17.2-2.3-.5-3-1.2-3-3 0-2.6-1.1-3-4.1-1.4-1.6.9-1.9.7-1.9-1 0-2.5-4.5-2.8-5.4-.4zM440.7 410c-3.1 2.5-9.7 2.6-21.7.5-13.4-2.4-13.2-2.4-15 5.3-.9 3.5-.4 3.8 6.5 4.4 2.4.2 3.1.8 3.3 2.8.2 1.9 2.6 4.2 9.2 9 4.8 3.6 9.1 7.4 9.4 8.5.3 1.1 1.1 6 1.8 10.9l1.2 8.9 5.8 5.5c4.8 4.6 5.8 6.1 5.8 8.8 0 4.4 7.7 14.7 12 16.3 1.7.5 3.4 2.1 3.9 3.4.5 1.3 2.3 3 4.1 3.7 2.8 1.1 3.3 1.1 5.3-.8 1.2-1.1 3.8-2.4 5.7-2.9 2.9-.8 3.7-1.6 4.7-4.9.6-2.1 1.2-5.3 1.2-7.1.1-2 1.2-4.5 3-6.5 1.5-1.8 3.4-4.3 4-5.6 1.5-2.9.5-8.1-2-10.5-2.7-2.6-2.6-13 .1-17.5 2.9-4.7 2.6-8-.7-9.3-6.8-2.7-9.1-4.3-10.6-7.4-2.1-4.4-10.7-9.5-16-9.5-3.7 0-9.6-2.4-14.9-6.1-3.2-2.3-3-2.3-6.1.1zM586.4 434.5c-.8 2.1.2 3.2 3.4 3.8 2 .4 4.1 2.2 6.4 5.4 4.1 5.7 9.3 8.9 13.1 7.9 3.5-.8 3.4-2-.5-4.8-1.8-1.2-5.8-4.8-8.8-8-4.8-5.1-6-5.8-9.3-5.8-2.4 0-4 .5-4.3 1.5zM633.1 461.6l-3.5 1.5 3.7 3.7c2 2 4.5 5.8 5.6 8.4 1.7 4 4.4 6.8 6.5 6.8.3 0 .6-1.8.6-4 0-2.8-.5-4.2-1.9-5-1.1-.5-2.8-3.5-3.8-6.7-1.1-3.1-2.3-5.8-2.9-5.9-.5-.2-2.4.4-4.3 1.2zM720.3 467.7c-.4 1-1.1 2.1-1.5 2.4-1.2.8-29.5.3-33-.6-1.4-.4-3.6-.2-4.8.5-2.2 1.2-2.2 1.2-.2 3.3 2.9 3.2 4.9 7.7 5.5 12.6.8 6.7 8.5 13.4 18.3 16 3.2.9 4.4 1.8 5.8 4.8 3.1 6.5 7.6 11.3 13.5 14.2 3.1 1.5 6.3 2.6 7.1 2.4 1.3-.3 1.5.7 1 6.1-.5 5.7-1 7-3.9 10l-3.3 3.4 3.1 1.6c1.7.9 3.5 2.5 4.1 3.6.6 1.1 3.1 4.4 5.6 7.3 10.8 12.7 12 13.2 27.1 12.4l11.3-.6 6.2 3.9c3.3 2.2 7 4 8.2 4 1.6 0 .5-1.4-4.7-6.4-3.7-3.5-6.7-6.9-6.7-7.4 0-.6-1-1.2-2.2-1.4-1.7-.2-2.2-.9-2-2.3 1.6-9.3 1.7-8.6-2.7-12.4l-4.2-3.6-1.6-12.5c-1.5-11.8-1.8-16.2-1.3-22 .1-1.4-.2-5.3-.6-8.8-.6-5.7-1-6.6-4.7-9.7-2.2-1.9-4.4-3.5-4.9-3.5-.4 0-.8-1.5-.8-3.4 0-2.5-1-4.5-3.7-7.5-3.5-3.9-4.4-4.3-10.3-5.1-3.6-.4-7.8-1.3-9.3-1.9-4.4-1.7-9.7-1.4-10.4.6zM525.3 471.4c-2.8 1.8-3.2 2.7-3.3 6.4 0 2.4-.8 5.7-1.7 7.3-1.5 2.5-1.6 3.5-.5 7.4.7 2.5 1.2 5.8 1.2 7.3 0 1.7 1 3.8 2.4 5.1l2.4 2.3.7-8.9c.4-4.8 1.4-12.2 2.3-16.3 2.7-13 2.2-14.5-3.5-10.6zM611 471c-2.1 1.3-1.6 21.9.6 23.6.8.6 1.4 1.5 1.4 2 0 .8-3.1 5.8-7.3 11.7-1.7 2.4-1.7 2.8-.2 5.6.8 1.7 1.7 3.1 2 3.1 1.4 0 9.7-10.3 11.6-14.3 2-4.1 2.6-4.7 5.4-4.7 2.3 0 4 1 6.6 3.6 4.5 4.8 16.5 12.8 33.1 22.2l5.7 3.3-.8-2.8c-.5-1.6-1.8-4.7-3-7-1.1-2.3-2.1-5.3-2.1-6.6 0-1.3-1.2-3.4-2.6-4.8-1.4-1.3-3.3-4.1-4.1-6.2-1.2-3-2.7-4.4-7.3-6.7-3.2-1.6-6.9-4.3-8.3-6-1.5-1.7-6.3-5-10.8-7.4l-8.2-4.4-3.8 2.4c-3.8 2.4-3.8 2.4-4.9.3-.6-1.1-.8-3.3-.5-5 .7-3 0-3.5-2.5-1.9zM553.6 478.9c-1.9 2.1-1.9 2.2.4 4.6 1.3 1.4 2.8 2.5 3.4 2.5.6 0 2.8 1.1 4.8 2.5 4.3 2.9 6.3 3.1 7.6.9 1.2-2.2.4-5.6-2.1-8.8-3.1-3.8-11.3-4.8-14.1-1.7zM373.2 496.3l-2.2 2.3 2.5 2.4c1.4 1.3 2.5 3.3 2.5 4.4 0 1.2 1.7 4.1 3.8 6.5 3.8 4.4 3.9 4.4 6.2 2.8 2.6-1.8 6.5-2.3 7.4-.8 1.8 2.9 13.6 1.6 13.6-1.5 0-.8-1.8-3.3-4-5.5-3.3-3.4-4.9-4.2-8.7-4.7-3.1-.3-6.7-1.8-10.7-4.4-3.2-2.1-6.4-3.8-7.1-3.8-.6 0-2.1 1-3.3 2.3zM371.2 516.7c2 4.5 7 13.3 7.8 13.8.5.3.7 2.5.3 5.2l-.6 4.6 3.2-1.9c4-2.3 4.7-3.6 5.6-9.5.7-4.5.6-4.6-2.2-5.2-1.7-.3-4.9-2.2-7.2-4.1-3.8-3.2-7.8-4.8-6.9-2.9zM518.2 518.2c-.5.7-1.3 3.4-1.7 5.9-.7 4.6-.6 4.7 4.5 9.5l5.2 4.8-.7 14.7c-.5 10.3-.4 17.3.6 23.4l1.3 8.8-3.2 2.6c-4.7 3.9-5.4 6.9-4 16.7.9 6.6.9 9.7 0 14.1-.6 3.1-1 5.8-.8 6.1.3.2 1.8.1 3.5-.3 2.4-.5 2.9-1.1 2.8-3.2-.2-2.1 1-3.6 5.6-7.4 6.4-5.2 12.5-7.7 26.7-10.8 12.4-2.8 18.5-6.6 20.1-12.4 1.5-6 9.5-13.8 17.5-17.2 4.3-1.8 6.4-3.3 6.4-4.4 0-6.9 2.4-24 3.7-25.9.8-1.3 1.2-2.6.8-3-1.1-1.1-9.9 1.9-14.5 4.9l-4.5 3-.3-2.5c-.2-1.7-1.7-3.5-4-5.1-4.3-3-5.9-3.1-8.5-.8-1.4 1.3-3.6 1.8-8.2 1.8-5.5 0-6.8-.4-9.2-2.6-3.2-3-15.7-10.2-25.3-14.6-3.6-1.7-7.4-4-8.4-5.1-2.2-2.5-3.9-2.8-5.4-1zM691.5 532.9c-1.6 5.2 4.1 11.9 9.1 10.7 2.2-.6 2.5-1.1 2.2-4.4-.2-2.9-1-4.1-3.7-5.9-4.1-2.8-6.8-2.9-7.6-.4z"/><path d="M684.3 543.7c.3 1 1 4 1.7 6.8.7 2.7 2.1 7.1 3.2 9.7 1.5 3.3 1.9 5.6 1.4 8.2-.7 3.7 1.8 15.1 3.6 16.2.5.3 2.2.9 3.8 1.4 2.9.8 3.1.7 5.6-4.1l2.5-5 4.5 3.3c5.9 4.2 5.8 4 8.6 13.9l2.5 8.6-2.4 2.7c-2.7 3.2-2.8 4.8-.8 10.6.8 2.3 1.5 7.5 1.5 11.4 0 9 1.7 12 6.4 11.3 2.5-.4 3.6.1 5.7 2.6 1.5 1.8 3 2.7 3.7 2.3 1.9-1.1 1.4-7.8-.8-11.1-2.5-3.8-2.5-4.6.1-7.9l2.1-2.7 2.5 3.5c2.8 4.2 6 4.7 11 1.6l3.3-2-2.2-5.2c-1.1-2.9-2.9-8.1-3.9-11.6-1.3-4.7-3-7.7-6.8-11.9-5.4-6.1-5.6-6.7-6.6-20.3-.8-11.6-3.1-20.9-6-24.5-2.2-2.8-2.4-2.9-3.7-1.2-.8 1-4.5 2.7-8.3 3.8-11.1 3.1-15.5 2.3-15.5-2.6 0-3.1-1.9-4.6-4.3-3.4-1.6.9-2.4.5-4.9-2.5-2-2.4-3.8-3.6-5.5-3.6-1.9 0-2.4.4-2 1.7zM364.8 552.8c-5.1 3.1-3.2 4.5 4.6 3.6 5-.6 5.6-.9 5.6-3s-.5-2.4-3.7-2.4c-2.1 0-5 .8-6.5 1.8zM343 559.5c0 1.8-.5 2.5-2 2.5-2.3 0-3.8 5.8-2.2 8.5 1.1 2-.5 7.5-2.5 8.8-2.4 1.5-1.3 5.6 3.3 12.2 3.8 5.4 4.5 7.1 3.9 9.3l-.7 2.7-2.1-2.6c-1.2-1.4-3-2.9-3.9-3.2-.9-.3-2.2-2.4-2.9-4.6-1.1-3.7-2.6-5-4.1-3.6-.5.6 2 9.9 4.6 17l1.4 4-4.7 5c-2.5 2.7-5.6 6.3-6.9 7.9-1.8 2.3-2.5 2.6-3.6 1.7-2.5-2.1-9.1 3.2-12 9.5-1.7 3.8-3.6 6.1-6.1 7.5-2.2 1.4-3.4 2.7-3.1 3.5.3.8.8 2 1.1 2.6.3.7.1 2-.5 2.8-.7 1.2-1.2 1.2-2.2.2-2.2-2.2-3.5-1.3-7.7 5.2-2.5 3.8-9.7 11.6-17.7 19.2-8.9 8.3-14.3 14.3-15.9 17.4-1.3 2.5-3.1 5.2-3.9 5.9-.9.8-1.6 2.4-1.6 3.7 0 2.3-.3 2.4-6.3 2.4-5.6 0-6.7.3-8.8 2.6-1.3 1.4-3.4 3-4.6 3.5-1.2.4-3.1 2.5-4.1 4.5-1.2 2.2-3.1 4.1-4.9 4.8-3 1.1-24.9 24-29.6 31.1-1.7 2.4-2.7 5.3-2.7 7.5 0 1.9-.9 5-2 6.8-2.1 3.3-2.6 6.2-1.2 6.2.4 0 2.8-2 5.2-4.5 4-4 4.9-4.5 9-4.5 5.5 0 9.1-3.1 11.3-9.5 1.3-3.7 2.3-4.5 13.6-10.7 14.8-8.1 17.5-10.3 22.3-18.2 4.8-7.8 6-8.6 12.6-8.6 5.2 0 5.5-.2 11.2-5.8 3.2-3.2 6.9-6.6 8.2-7.4 1.4-.9 4.1-4.7 6.1-8.5 2.1-4.1 4.7-7.5 6.4-8.5 2.8-1.6 2.9-1.9 2.5-8-.4-5.5-.3-6.1 1-5 1.4 1.1 1.7.5 2.3-4.3.6-5.4.8-5.6 6.7-9.7 3.8-2.5 8.6-4.7 12.7-5.7l6.6-1.7 4.5-8.6c6.6-12.7 8.6-14.4 17.1-15 7.5-.6 9.4-1.7 12.4-7.1 1.7-3.3 1.7-3.3-1.4-8.4-2.1-3.4-3.1-6.3-3.1-8.9 0-2.5-.9-5.2-2.5-7.6-2.7-4-3.1-7.5-1.3-12.4.8-2.3.8-4.3 0-7.5-.9-3.5-.8-4.8.5-6.9 1.5-2.6 1.4-3-1.2-7.4-3.1-5.2-6.5-6.4-6.5-2.1zM663.4 558.7c-.4 1-1.7 4.3-3.1 7.3-1.5 3.3-2.7 8.3-3 12.5-.4 5.9-1.3 8.5-5.5 16.5-2.8 5.2-7.3 15.1-10.2 22-2.8 6.9-8.7 18.3-13 25.5-10 16.4-12.1 25.1-10 40.9l.7 4.7 3.8-3.7c3.1-3 3.9-4.5 3.9-7.4 0-2.6 1.1-5.3 4-9.3 2.7-3.9 5.1-9.4 7.6-17.4 4.7-15 9.6-21.9 18.1-25.4 3.8-1.5 6.4-3.4 8.3-6l2.7-3.8-1.4-8.8c-1.2-7.6-1.2-9.5.2-15.5.8-3.7 1.5-10.4 1.5-15 .1-4.6.5-10.3 1-12.8.4-2.5.8-4.5.7-4.6-.1-.1-1.4-.4-3-.8-2.1-.5-2.9-.2-3.3 1.1z"/><path d="M607.5 584.1c-2.8 1-6.7 1.8-8.7 1.9-2.7 0-4.4.7-6.3 2.7-2.4 2.5-2.6 3.4-2.1 8.2.5 5.2.4 5.4-4 10.1-2.4 2.6-4.4 5.6-4.4 6.6 0 1.1.9 5 2 8.8 1 3.8 2.2 9.5 2.6 12.6.6 5.1.3 6.3-1.5 8.9-1.4 2-3.1 3.1-4.6 3.1-1.6 0-3 1-4.1 2.9-1.5 2.6-2.6 3-9.1 4-4.1.6-8.5 1.1-9.8 1.1-1.9 0-2.6.7-3.4 3.7-.6 2.1-1.1 6.1-1.1 8.9 0 5 .2 5.3 9.1 15.5 6.5 7.5 9.8 10.5 11.7 10.7 5.6.7 10.6 5.7 16.3 16.1 2.4 4.5 4.2 6.7 5.6 6.9 6.4.9 17.3-5.6 17.3-10.4 0-1.3.9-3.8 2-5.6 3.7-6 2-11-6.2-18.6l-4.3-4.1 1.8-4.9c1-3.1 1.7-7.9 1.7-12.8 0-8.6 1-11.4 7.4-21.8 2.7-4.5 3.6-7.1 3.6-10.3 0-4.5 1.8-9 4.3-11.2.9-.6 3.3-5.8 5.5-11.4 7.6-19.4 6.7-22.2-7.8-22.9-6.5-.3-9.8 0-13.5 1.3zM565.1 606.2c-6 7.3-6.8 9.6-4.9 13.5 1.2 2.4 1.9 2.8 4.8 2.5 3.6-.2 7-3.2 7-6 0-.9 1-3.6 2.1-6 1.7-3.4 2-5.1 1.3-7.1-1.7-4.7-4.6-3.8-10.3 3.1zM778.2 616.3c-3.6 1.7-6 7.4-6.3 15.3-.3 5.5 0 7.5 1.3 8.7.8.9 1.9 3.8 2.3 6.4.8 5.8 2.9 9.3 5.4 9.3 2.6 0 3.1-1.9 3.1-11.4 0-7-.3-8.6-2-10.1-2.3-2.1-2.6-6.2-.5-8.9 1.5-2 2-6.3.9-9-.7-1.8-1.1-1.9-4.2-.3zM679.5 637.4c-1.1.7-3.6 1.8-5.6 2.5-3.2 1-3.7 1.7-4.3 5-.8 5.4-3.4 8.1-11.2 12.1-3.8 1.9-7.1 3.6-7.3 3.7-.2.2.4 2.3 1.4 4.8 1.8 4.9 1.5 5.9-3 9.7l-2 1.8h2.2c1.2 0 3.4-.5 5-1.1 1.5-.6 9.9-1.1 18.5-1.2l15.7-.2 4.8-4.6c3.3-3.3 6-4.9 8.6-5.3 3.5-.7 3.8-1 3.1-2.9-.4-1.2-.9-5-1-8.5-.2-7.8-1.5-9.5-6.4-8.7-3.5.6-3.8.4-5-2.6-2.1-4.9-9.4-7.4-13.5-4.5zM747 639.5c0 3.4 2.6 7.2 6.2 9.1 3.8 2 4.4 1.3 3-3.4-1.3-4.2-3.4-6.6-6.9-7.6-2-.6-2.3-.4-2.3 1.9zM808.3 645.7c-3.8 3.6-6.3 7.1-6.3 9 0 1.4 10.8 8.3 13.3 8.6 1.8.2 2.3-.4 2.5-3.1.2-2.4-.1-3.2-1.2-3.2-2 0-2-.4-.1-4 1.4-2.7 1.4-3.3.1-5.8-2.8-5.4-3.9-5.6-8.3-1.5zM764.2 658.6c-2.2 1.5-2.3 2.1-1.6 8.2.4 4.1 1.9 9.3 4.1 14 4.3 9.4 7.3 20.3 7.3 26.3 0 3.5-.5 5.1-2.3 6.7-4.3 4-13.4 2.3-17-3.1-1.1-1.7-2.8-2.6-5.1-2.9l-3.6-.4v4.2c0 7.2-1.2 13.4-2.6 13.4-3 0-6.3-2.4-8.3-6.1-1.9-3.4-2.7-3.9-5.8-3.9-4.9 0-11.3 2-11.3 3.6 0 .7.5 2.5 1.2 3.9.9 1.9.8 3.4-.2 6.6-1.2 3.5-1.2 5 .1 9.9 1.8 6.9.9 9.5-3.3 10.4-6.4 1.3-10.4.7-12.8-1.9-2.9-3.1-7-3.2-9.8-.3-1.1 1.3-3.5 5.4-5.2 9.3-3 6.6-3.1 7.2-1.6 10.2l1.5 3.1-8.7 1.2c-13.5 1.8-14.1 1.9-14.8 4.3-.3 1.5-2.4 3-6.1 4.6-3.1 1.4-7 4-8.6 5.8-1.7 1.8-3.4 3.3-3.9 3.3-1.9 0-.5-3 2.8-6 3.2-2.8 3.9-4.2 5.8-12.8l2.3-9.7-2.1-6.2c-2.1-6.7-4.2-8.4-10.1-8.2-4 .1-10.1-1.4-15.5-3.9-5.1-2.4-6-2.1-6.1 1.6 0 2-1.2 3.6-4.9 6.4-4.4 3.4-5.6 3.8-10.7 3.8-6.5 0-12.3 2.7-12.3 5.7-.1 1-.7 3.6-1.5 5.7-1 2.9-1.1 4.5-.3 6 1.7 3.1-2.6 6.1-10.9 7.6-3.7.7-13 3.7-20.5 6.7-7.5 2.9-15 5.6-16.7 5.9-2.1.5-4.2 2.2-7 5.9l-3.9 5.2 2 8.3c2.3 8.9 2.4 8.4-2.8 11.5-1.2.8-1.8 2.8-2.2 7-.3 3.3-1.1 6.9-1.8 8-.8 1.1-1.4 2.7-1.4 3.6 0 .9-1.4 2.2-3.1 2.9-4.1 1.7-5.3 5.2-3.9 11 1.9 7.5 4.4 9.7 12.7 11 4 .6 7.7.9 8.2.6.5-.3 1.2-2.2 1.6-4.3.4-2 1.5-5.4 2.6-7.5 1-2 1.9-5.3 1.9-7.1 0-1.9.7-4 1.5-4.7.8-.7 2.2-3.7 3.1-6.6 1.2-4.4 2.3-6 6-8.6 3.5-2.5 4.4-3.7 4.4-6.1 0-2.1-.6-3-2.1-3.4-2-.6-2-.6.2-2.9 1.2-1.3 2.8-2.4 3.4-2.4.6 0 2.2-1.1 3.4-2.4 2.5-2.6 9.4-4 12.3-2.5 1.4.8 1.8 2.2 1.8 6.8 0 5.4.3 6.2 3 8.5 2.6 2.2 3.4 2.4 5.6 1.4 1.8-.9 2.7-.9 3.6 0 .8.8 1.9.5 4-1.3 1.6-1.4 3.4-2.5 3.9-2.5s.9-1.3.9-2.8c0-2.7 3.4-7.2 4.5-6 .3.2.8 1.8 1.1 3.5.5 2.6.2 3.2-1.6 3.8-2 .6-2 .8-.5 2.5 1.3 1.5 2.7 1.7 6.8 1.3l5.2-.4 1.8 4c1 2.2 3.2 5 4.8 6.2 2.9 2 3.1 2 5 .4 2.6-2.5 2.5-3-2.1-8.2l-4-4.6 3.5-3.8c1.9-2.2 3.5-4.1 3.5-4.4 0-.3-.7-2.2-1.5-4.2-2.7-6.4-2.5-6.6 6.8-5.8 6.8.6 8.8 1.2 11.7 3.5 4.1 3.3 12.2 7.1 20.4 9.6 5.3 1.6 6.3 2.5 10.5 8.1 3.7 5.1 5.1 6.2 7.5 6.3 2.6 0 2.8.2 2.1 2.7-.3 1.6-3.8 7-7.7 12.1-3.8 5.2-7.6 10.9-8.4 12.7-.7 1.9-1.8 3.6-2.4 4-.6.4-1.7 2.3-2.6 4.3l-1.5 3.7 3.8 3.2 3.9 3.2-1 7.5-.9 7.5 4.1 6.8c2.2 3.7 6.9 9.5 10.4 12.9 6.1 5.9 7 6.4 28.1 14.7 26 10.3 29.7 10.9 35.3 5.3 2.3-2.3 3.4-4.3 3.4-6.3 0-3.8 4-6.4 6.5-4.3 3 2.5 3.6 4.7 2 7.7-.8 1.5-1.5 3.2-1.5 3.6 0 .5-1 1.7-2.2 2.6-2.7 2.3-2 5.2 2.6 11.3 2 2.6 3.6 5.9 3.8 7.9.5 5.5 3.2 5 10.5-2.3 4.4-4.4 6.7-7.5 7.4-10.3.6-2.2 2.8-5.8 4.9-8.1 2.5-2.7 4.1-5.7 5-9.3 1.3-5.5 1.1-7.2-2.2-22.3l-2.1-9.8-6.2-3.9c-6.7-4.1-10.8-8.9-11.9-13.5-1.2-5 8-20.5 12.2-20.6 2.8 0 6.2-4.8 6.2-8.7 0-3.4.7-4.6 5.5-9.3l5.5-5.4v4.1c0 3.6.5 4.5 4.5 7.7 2.5 2.1 4.5 4.5 4.5 5.4 0 .9.9 4.9 2.1 8.8 1.7 5.6 2.7 7.4 5 8.8 2.8 1.7 2.9 2 2.9 9.5 0 9.4 2.1 16.3 6.6 21.3 3 3.4 3.3 3.5 3.8 1.5.3-1.2.6-7.9.6-14.8 0-9.9-.3-12.9-1.5-13.9-1.6-1.3-3.1-7.7-2.1-8.7.3-.4 2.2 1.2 4.2 3.5 5 5.9 7.1 5.5 6.4-1.3-.1-1.1-.6-2.4-1.1-2.9-1.5-1.7-1-2.6 1.5-2.6 3.6 0 7.1-3.4 9.1-8.7 1-2.6 3.5-7.4 5.7-10.5 4.7-7 5.1-12.1 1.3-16.6-2.2-2.6-2.5-3.9-2.5-10.9v-8l-3.9-1.8c-2.2-.9-5.4-3.2-7.1-5l-3.2-3.3 2.1-6.4c1.2-3.5 2.5-9.1 2.8-12.6l.6-6.2h-3.7c-4.5 0-5.6-2.1-3.2-6 2-3.6 2-5.5-.1-9.2-2.4-4-7.8-7.1-13.3-7.8-5.1-.6-6.8-3.3-2.8-4.6 1.3-.4 4.4-2.8 6.9-5.4 2.5-2.6 5.2-4.9 5.9-5.2 1-.3-.4-3.5-5-11.4-5.4-9.2-6.5-11.8-6.8-16.7-.4-5.4-.6-5.7-3.1-5.7-1.4-.1-3.8-.6-5.3-1.3-3.3-1.5-7.8-7.9-7.8-11.2 0-1.9-1.3-3.1-6.3-6-3.5-1.9-6.9-3.5-7.5-3.5-.5 0-5.5-3.4-11-7.5s-10.4-7.5-10.9-7.5-1.9.7-3.1 1.6z"/><path d="M714.3 699.2c-.6.7-1.4 2.9-1.8 4.9-.6 3.1-.3 3.9 1.6 5.3 4.8 3.3 8.9 1.2 8.9-4.6 0-1.3-.6-3.2-1.2-4.1-1.8-2.2-6.2-3.1-7.5-1.5zM634.7 703.5c-2.7 3.3-2.8 3.5-1.1 6 1.3 1.9 2.5 2.5 5.4 2.5 2.1 0 4.7-.8 5.9-1.8l2.2-1.7-4.2-4.3c-2.3-2.3-4.4-4.2-4.8-4.1-.3 0-1.9 1.6-3.4 3.4zM194 777.1c-.9 1.6-.9 2.4-.1 3.2 1.2 1.2 3.1-.6 3.1-3 0-2.2-1.9-2.4-3-.2zM172.4 793c-4.9 1.9-3.2 10.1 2.3 11.5 3 .7 2.6 1 4-3.8 2-6.7-.7-10-6.3-7.7zM524.7 880c-2.6 1.6-6 3-7.6 3-1.5 0-3.5.8-4.4 1.8-1.6 1.7-1.4 2 2.9 5.6l4.5 3.8-4.7 5c-4.1 4.4-4.5 5.2-3.2 6.5 1.4 1.3 2.9.8 13.6-4.4 8.3-4 12.5-6.6 13.6-8.5 1.2-1.9 3.1-3.1 6.2-3.9 6.3-1.6 5.6-3.5-1.8-4.8-5-.9-6.7-1.6-8.6-4.1-2.9-3.8-4.6-3.8-10.5 0zM454.6 928.7c-3.4 2.5-3.7 3.1-3.2 6.2.6 4.2.6 4.1 5.7 5.2 3.2.8 5.3.6 9.1-.7 3.5-1.1 6.5-1.4 10-1 2.8.4 6.4.2 8.2-.4 2.8-.9 3.2-1.4 2.8-3.9-.4-3.2-1.1-3.5-10.5-4.7-3.5-.4-6.1-1.2-6.4-2-.3-1-2.3-1.4-6.2-1.4-4.5 0-6.4.5-9.5 2.7zM389.3 982.6c-6.5 3.2-16.3 11.7-16.3 14.2 0 1.8 14.2-2.6 16.9-5.2 2-2 3.8-2.6 6.9-2.6 4.9 0 5.9-1.4 4.5-6.3-1.2-4.3-3.3-4.3-12-.1zM349.3 1015.7c0 3.8.5 7.1 1.1 7.5 2.3 1.6 3.4.6 4-3.8.4-3.4.2-5.3-1.1-7.5-2.8-4.8-4.1-3.6-4 3.8z"/></svg>
