<svg version="1.0" xmlns="http://www.w3.org/2000/svg" width="1365.333" height="1365.333" viewBox="0 0 1024 1024"><path d="m219.9 78.5-4.4 4.4L169 96.5c-25.6 7.5-47.5 13.9-48.8 14.3-2.2.7-.7 2.7 20.5 26.8 12.5 14.3 23.4 26.7 24.1 27.6 1.1 1.4.3 2.2-6.6 6.4-7.9 4.7-7.9 4.7-11.7 13.3-2.1 4.7-4.2 9-4.7 9.6-.5.5-8.8 2.6-18.4 4.6-9.6 2-17.6 3.8-17.8 4-.2.2-3.2 4.7-6.7 10-4.5 6.8-9.2 12.1-16 18.2l-9.7 8.7-27.1-4.3-27.2-4.4-1.4 2.7c-1.8 3.5-5.4 22.7-6.4 34.7-.9 9.8-4.8 21.5-9.5 28.8-1.7 2.5-1.6 2.7.3 5.8l2.1 3.2v-2.6c0-3.6 2.2-5.4 4.8-4 2.4 1.3 9.9 1.7 12.8.7 4.5-1.6 19.9 16.9 22.8 27.3 1.4 5 2.7 7.2 7.6 12.1 3.3 3.4 6.3 7.3 6.6 8.8 1.2 5.7 2.8 8.4 7.6 12.7 3.2 2.9 5.3 5.7 6 8.1.5 2.1 2.8 5.9 5.1 8.5 2.3 2.7 6.9 10.4 10.2 17.1 5.9 12.1 6.6 12.9 14.1 17.4 1.7 1 1.8 1.5.6 4.8-2.2 5.9.8 10.9 6.5 11.1 1.6 0 8.9 8.8 11.4 13.7 1 2 1.9 4.8 1.9 6.1 0 1.4 1.7 4 4.5 6.7 4.4 4.3 4.5 4.6 4.5 10.5 0 7.9-.8 10.5-3.1 10.5-2.5 0-2.4.6 1 4.9 4.8 6.1 11.1 16.7 11.1 18.7.1 4.6 5.7 7.9 10.2 6 1.1-.5 2.3-.1 3.5 1.4 2 2.4 12.4 8 14.8 8 .8 0 3.2 1.5 5.2 3.3 2.1 1.9 5.9 4.8 8.5 6.6 2.9 1.9 5 4.2 5.3 5.6.3 1.4.7 3.6 1 4.8.2 1.3 2.9 5.7 5.9 9.8 4.1 5.7 5.7 8.9 6.9 14.2.9 4.3 2.5 8 4.4 10.2 6.3 7.7 7.5 9.5 6.1 9.5-.8 0-2-.6-2.7-1.3-1.6-1.4-1.6-1.6 3.3 8.8 2.1 4.4 4.4 8.8 5.3 9.7.8.9 1.9 3.4 2.3 5.5.8 3.1.6 4.1-1.1 5.9-2.1 2.2-4.9 13.5-4.9 19.9 0 2.4.8 5.2 2.1 7 1.1 1.6 3.2 5.5 4.5 8.5 2.7 5.8 2.7 12 .2 17.5-.9 2-.3 3.8 4.3 12.5 4.4 8.4 6 10.5 8.7 11.7 2.7 1.1 3.1 1.7 2.2 2.8-.8 1-.6 1.6.9 2.7 1.1.8 3.7 4.6 5.8 8.5 2.7 4.9 5.5 8.5 9 11.2 4.6 3.7 5.7 4.1 10.6 4.1 5.1 0 5.9.3 10.3 4.4 2.7 2.4 7.6 5.7 10.9 7.4 5 2.5 6.4 3.8 8.2 7.6 2 4 2.7 4.6 5.3 4.6 1.6 0 3 .1 3 .2 0 .2.7 2.1 1.4 4.3 1.2 3.4 1.2 4.1-.1 5-1.2.9-.6 1.9 3.5 5.7 4 3.8 5.1 5.7 6.6 11.1 1.8 6.7 3.6 9.2 7.1 9.9 2 .4 2.1.8.8 6.8-.3 1.8.2 3.1 1.6 4.4 1.3 1.2 2.1 3.1 2.1 5.2 0 4.6 1.5 8.1 3.8 8.8 2.5.8 6.8 7.2 7.5 11.2.3 1.8 2 5.3 3.7 8 1.6 2.6 3 5.5 3 6.5 0 .9.7 2.2 1.5 2.9.8.6 2.6 3.2 4 5.7 1.9 3.2 3.9 5 6.9 6.3 2.4 1 5.3 3.2 6.5 4.9 1.2 1.7 4.2 4.4 6.5 6.1 4.8 3.2 7.6 8.9 9.6 19.1 1 5.2 1.3 5.6 3.5 5.1 3.1-.5 7.5 4 7.5 7.8 0 1.8 1 3.3 3 4.8 3.6 2.7 6.3 8.6 5.5 12.2-.4 1.9.1 3.2 2 5 1.4 1.3 2.5 3.2 2.5 4.2 0 2.3.1 2.3 5.9-.6 5.3-2.7 8.1-6.2 8.1-10.1 0-2.1.5-2.5 3.1-2.5 3.3 0 3.3-.4.3-7.9-1.7-4.1-1.7-6-.3-17.3l1.2-8.8 4.7-3.5c6.7-4.9 12.3-4.9 18.7 0 6.2 4.7 11.5 6.1 17.3 4.6 2.5-.7 5.2-1.9 6.1-2.7 1-.9 3.8-1.4 8-1.4 6.6 0 13.5 2.6 86.7 32.6l11.2 4.6v26.5c0 14.6.4 26.3.9 26.1.4-.2 27.2-30.1 59.5-66.5 32.3-36.5 59-66.3 59.3-66.3.4 0 35.1-8.1 77.2-18l76.6-18.1 74.1-26.1 74.1-26 15.7-51.4c8.6-28.3 15.4-52 15-52.7-2-3.5-20.8-33.3-21.6-34.2-.6-.6-1.4-.3-2.3.9-1.3 1.8-3.4 1.6-60.7-6.3-32.6-4.5-60.5-8.4-61.9-8.7-2-.4-8.4-7.8-26.7-30.8-21-26.4-24.1-30.8-24.4-34.2-.3-3.4-.8-4.1-4.2-5.8-3.2-1.6-4.2-1.7-5.9-.7-1.3.9-2.3.9-2.9.3-1.7-1.7.1-6.1 4.3-10.7 3.3-3.6 3.8-4.6 2.5-5.1-.8-.3-2.7.3-4.2 1.5-2.7 2.1-2.7 2.1-4.1.1-1.2-1.7-2.1-1.9-7.5-1.3l-6.2.6-3.8-4.4c-2.6-3-4.6-4.4-6.5-4.5-2.1 0-2.9-.8-3.9-3.5-.7-1.9-1.3-4.4-1.3-5.6-.1-1.2-1.4-3.6-3.1-5.3-3.3-3.4-3.8-4.7-4.8-14-.7-6.2-.9-6.6-4.5-8.5-3.3-1.8-13.7-12.3-13.7-13.9 0-.4 1.4 0 3 .9 1.7.9 3 1.3 3 .9 0-.3-1.3-2.2-3-4.1-1.6-1.8-3-4.3-3-5.5 0-1.1-1.6-3.8-3.5-5.9-2.6-2.9-3.5-4.8-3.5-7.3 0-4.4 1.1-5.1 4.3-2.6l2.5 2 1.6-2.5c.9-1.4 1.6-4.5 1.6-7.2 0-4.3-.4-5.1-4.4-8.8-4.7-4.3-6.2-7.9-5.2-12 .6-2.4.7-2.5 3.2-.9 4.1 2.8 3.8.8-.6-4-3.4-3.7-4.9-4.6-7.6-4.6-1.8 0-3.9-.7-4.6-1.6-.7-.9-3.4-3.9-5.9-6.8-2.5-2.8-5.2-6.1-5.8-7.4-.9-1.6-1.8-2.1-2.9-1.7-4.4 1.8-4.8 1.6-7.2-3.5-1.3-2.8-3.9-6.5-5.7-8.1l-3.4-2.9h3c3.7 0 4.4-1.1 2.5-3.8-1.2-1.8-2.5-2.2-6.9-2.2s-5.6-.4-6.5-2c-.8-1.4-2.1-2-4.6-2-2.8 0-3.6-.5-4.4-2.6-1.3-3.3-1.3-7.7 0-6.9.6.3 1 1.6 1.1 2.8 0 1.9.2 1.8 1.1-.6 1.2-3.4-.3-6.1-6.3-10.9-5.6-4.5-9.5-12.5-10.4-21.3-1.1-10.7-.6-10.5-22-10.5h-18.3l-2.6-3.4c-1.4-1.9-2.6-4.7-2.6-6.2s-1.6-5.5-3.5-8.9l-3.4-6.2-21.9-3.2c-16.9-2.6-22.4-3.1-24-2.2-1.1.6-3.8 1.1-5.9 1.1-4.7 0-80.2-7.8-81.1-8.4-.4-.2-29.2-24-64-52.8L365 133.4l-16.3-7.2c-14.5-6.4-19.2-9.2-39.8-23.4-12.9-8.8-24.3-16.4-25.4-16.9-1.1-.4-14.4-3.1-29.5-5.9-15.1-2.8-28-5.3-28.6-5.5-.6-.2-3.1 1.6-5.5 4zM352 879.6c0 .4.8 1.2 1.7 1.9 1.4 1.1 1.5 1.5.4 2.8-1 1.3-1 2.1.1 4.4.7 1.5 2.1 2.9 3.1 3.1 1.4.3 1.7-.4 1.7-3.5 0-5-2-8.7-4.8-9.1-1.2-.2-2.2 0-2.2.4z"/><path d="M348.7 887.6c-.9 1 1.7 5.5 5.1 8.8 2.7 2.5 3.4 2.7 5.9 1.9 3.3-1.1 5.3-.7 5.3 1.2 0 .7.7 1.6 1.6 1.9 4.5 1.7 4.7-4.4.3-8.5-3.7-3.4-4.9-3.6-4.9-.9 0 3.3-5.5 2.7-7.7-.8-2.5-3.8-4.2-5-5.6-3.6z"/></svg>
