<svg version="1.0" xmlns="http://www.w3.org/2000/svg" width="1365.333" height="1365.333" viewBox="0 0 1024 1024"><path d="M129.7 115.8c-2.4 2.5-2.6 3.2-2 8.2.9 8.3 4.3 13.9 8.4 14 2 0 4.9 3.1 4.9 5.3 0 .9 1.2 2.3 2.8 3.1 1.5.8 3.6 2.3 4.6 3.5 1.1 1.2 2.9 2.1 4.2 2.1 3 0 13.6 10 17.1 16 1.4 2.5 3.6 5.6 4.9 7 1.2 1.4 2.7 3.7 3.3 5.2.6 1.5 2.5 3.7 4.4 5 1.9 1.2 4.5 4.2 5.8 6.7 4 7.6 12.7 15.1 18.4 16.1 3.1.5 3.7 2.3 2 6.2-.5 1.3-.3 1.8.8 1.8.8 0 1.7-.7 2.1-1.5.7-2 7-2 9 0 .8.9 1.8 3.8 2.2 6.5.7 5.5 1.9 6.3 3.6 2.5.6-1.4 1.6-2.4 2.2-2.2.6.2 5.3 1.7 10.3 3.2 8.7 2.6 9.4 2.7 11.1 1.2 2.6-2.4 3.2-2.1 3.2 1.2 0 4.5 1 4.9 17.7 6.8 4.5.5 5.5.2 8.7-2.2 2-1.5 4-2.4 4.4-2 .4.4.1 1-.5 1.2-.7.3-1.3 1.3-1.3 2.4 0 1.3.7 1.9 2.3 1.9 1.2 0 3.3.8 4.6 1.7 1.5 1 4.5 1.7 7.6 1.7l5.1.1-2.4-4.3-2.4-4.2-4.8.6c-3 .4-5 .2-5.4-.5-.4-.6-.1-1.1.7-1.1 3.4 0 2.8-4.8-1.1-9.3-1.9-2.1-6.3-2.2-10.3-.2-3.3 1.7-4.9 1.3-4.9-1.3-.1-1.4-.4-1.3-2 .7l-2 2.3-3.6-3.2c-2-1.7-5.6-4.1-8-5.3-3.2-1.5-4.8-3-5.6-5.4-.7-1.8-1.9-3.3-2.8-3.3-3.2-.1-9.7-4-15.2-9.3l-5.8-5.5v-6.7c0-5.7-.6-7.9-3.6-14-2.5-5.2-4.3-7.7-6.2-8.5-4.6-1.8-6.9-3.4-9.7-6.8-2-2.4-3.5-3.2-6-3.2-3.2 0-13.6-6-16.5-9.5-.7-.8-3.7-2.2-6.6-3.1-3-.8-5.6-2-5.9-2.5-.4-.5-1.8-.9-3.3-.9-2.3 0-3.5-1.1-7-6.5-3.5-5.2-5-6.6-8-7.5-2-.5-4.2-1-4.7-1-.6 0-2.6-1.3-4.5-3-4.8-4-10.5-4.1-14.3-.2zM70.8 142.1c-1.8 1-2.5 5.9-.9 5.9 1 0 4.1-4.5 4.1-6 0-1.3-1-1.2-3.2.1zM78.3 145.2c-2.6 3.4-3.2 9-1.1 11.5.5.7.7 1.7.3 2.3-.4.7-.9 2.8-1 4.8-.2 2-.7 4.9-1.1 6.4-.4 1.8-.2 2.8.5 2.8.6 0 1.1-.6 1.1-1.4 0-2.3 2.4-2.5 3.7-.2 1 1.9 1.2 1.7 2.3-2.2.6-2.4 1.8-4.6 2.6-4.9 2-.7 1.8-2.9-.6-5.3-1.1-1.1-2-2.7-2-3.5 0-.9-.9-1.5-2.4-1.5-3.5 0-3.9-1.4-1.6-5.2 1.1-1.8 2-3.6 2-4.1 0-1.1-1.7-.8-2.7.5zM29 171.6c-.6 1.4-1 2.8-1 3.1 0 .3-1.1 2.1-2.5 3.9-3.4 4.4-3.2 7.4.8 11.1 2.9 2.8 4 3.1 11.9 3.7l8.7.6 2.6-3.4c2.4-3.1 2.5-3.8 1.5-7.5s-1.4-4-5.3-4.6c-3.2-.5-4.8-1.5-6.7-4-2.3-3.1-5.8-5.5-8.1-5.5-.5 0-1.4 1.2-1.9 2.6zM.8 224.4c-1.9 4.3-.5 5.6 6.1 5.6 4.8 0 6.2-.4 7-1.8 1.5-2.8-2.7-6.2-7.8-6.2-3.4 0-4.3.4-5.3 2.4zM390.3 233.2c-4 2.4-4.2 4.5-.7 5.8 3.5 1.4 4.4 1.3 4.4-.4 0-.8 1-2.2 2.1-3 2.5-1.7 1.9-4.6-.8-4.5-1 0-3.3 1-5 2.1zM396.8 240.7c-4 1-1.7 3.9 6.7 8.3 4.7 2.5 8.5 4.8 8.5 5.2 0 .3.3 1.3.6 2.2.5 1.2-.6 1.6-5.8 1.8l-6.3.3 4.8 2.4c2.6 1.4 4.7 3 4.7 3.6 0 1.7 3.4 4.5 5.3 4.5.9 0 1.7-.7 1.7-1.5 0-2.3 6.8-.9 10.1 2.1 2.9 2.8 6.9 3.2 6.9.7 0-.9-1.8-3.3-4-5.5-3.2-2.9-4.9-3.8-7.7-3.8-3.4 0-3.5-.1-2.9-3.3.4-2.3 0-4.1-1.4-6.5-2.2-3.5-2.5-3.7-8.3-4.7-2-.3-5.3-1.9-7.1-3.5-1.9-1.7-3.5-2.9-3.7-2.9-.2.1-1.2.3-2.1.6z"/><path d="M424 253.9c0 2.9 3.9 7 11.4 12.1 6.7 4.6 8.6 7.4 8.6 13 0 1.7-.7 3-1.6 3.4-1.4.5-1 1.3 2.2 4.1 2.1 1.9 4.7 3.4 5.7 3.5 3.7 0 6.7 3.1 6.7 6.6 0 3.3.1 3.4 4.1 3.4 3.2 0 4.2.4 4.6 2 .4 1.4 1.4 2 3.3 2 2.2 0 3 .7 4.5 4 1.3 2.8 2.4 4 3.9 4 1.2 0 2.7.9 3.3 1.9.8 1.3 1.9 1.8 3.3 1.4 1.7-.5 2-.1 2 2.6 0 2.5.5 3.2 2.8 3.7 4 .8 7.1 2.5 10.5 5.6 1.6 1.6 3.5 2.8 4.3 2.8.8 0 3.6 1.6 6.3 3.5 3.5 2.5 5.9 3.5 8.6 3.5 3.6 0 3.7.1 3.2 3l-.6 3h5.2c2.8.1 6.3.7 7.7 1.5 1.4.8 3.4 1.4 4.6 1.5 1.2 0 2.5 1 3.2 2.4.7 1.6 2.7 2.9 6.2 4.1 4.4 1.4 4.9 1.9 3.8 3.2-1 1.2-.9 1.8.7 2.9 1.7 1.3 2.1 1.3 3.2-.1 1-1.5 1.4-1.5 4.1-.1 2.1 1.1 3.2 2.5 3.4 4.3.2 2.3.8 2.8 3 2.9 1.5.1 3.3.6 4 1.1.7.6 2.8 1.4 4.7 1.8 1.9.4 5.7 2.2 8.6 4 6.1 4 11.4 6.2 17.5 7.6 6.5 1.5 15.8 7.7 16.2 10.9.2 1.7 1.8 3.5 4.9 5.5 2.5 1.6 7.2 5.4 10.5 8.4 7.5 6.8 9.9 8 12.1 5.8 1.6-1.6 1.5-1.9-1-4.5-1.9-2-2.7-3.9-2.7-6.4 0-3-.4-3.7-2.5-4.2s-2.4-1-1.6-2.5c1.4-2.5.5-3.1-4.1-3.1-3.4 0-7.8-2.3-7.8-4.1 0-.3 1.7-.6 3.7-.5 3.2.1 4.1-.4 7-4.3l3.4-4.4-3.7-1.3c-2-.7-4.1-1.9-4.5-2.6-.5-.7-2.7-3.9-5-7.1-3.1-4.3-4.8-5.7-6.6-5.7-1.4 0-3.8-1.1-5.5-2.5-1.6-1.4-3.5-2.5-4.1-2.5-.7 0-3.8-2.4-6.9-5.4-4.2-3.8-5.8-6-5.8-7.9 0-2.2-1.1-3.2-6.3-6.2-3.5-1.9-7.1-3.5-8-3.5-.8 0-3.4-1.6-5.7-3.5-4.9-4.1-10.6-5.9-17.6-5.7-3.7.1-5.9-.4-7.5-1.7-3.6-2.8-10.6-6.1-12.8-6.1-1.7 0-2-.5-1.4-3 .5-2.9.4-3-3.1-3-2 0-3.6.4-3.6 1 0 1.6-2.7 1.2-7-1-2.8-1.4-4-2.7-4-4.2 0-2.7-2.7-4.7-6.3-4.8-3.5 0-8.7-2.6-8.7-4.4 0-2.2-8.8-9.6-12.2-10.3-2-.4-5.4-2.7-8.9-6.2-12.6-12.2-16.5-15.1-20.4-15.1-2.8 0-4.7-.9-7.8-3.5-4.9-4.2-8.4-4.6-9.3-1l-.6 2.5-3-2.5c-1.6-1.4-4.1-2.5-5.4-2.5-1.4 0-4.7-1.1-7.4-2.5-5.9-3-6-3-6-.6zM141.8 261.7c-3.7 4.8-3.7 10.5-.2 18.4 2.5 5.4 3 6 7.3 7.2 4.5 1.2 4.6 1.4 5.5 6.2.6 3.5.6 5-.3 5.3-.6.2-1.1 1.7-1.1 3.4 0 2.9.1 3 4 2.6l4-.4v3.7c0 3.7 2.9 7.7 3.7 5.2.2-.6 1.7-3 3.3-5.2 1.7-2.2 3.2-5.8 3.6-8 .4-2.8 1.3-4.2 3-5 3.5-1.5 6.4-6.9 6.4-11.7 0-4.7-.9-5.4-7.1-5.4-5.7 0-7.4-1.2-11.1-8.1-2.3-4.5-4.4-6.9-7.8-9-6.3-4-9.8-3.8-13.2.8z"/><path d="M144.4 293.5c-.8 1.3-1.4 3.2-1.2 4.2.4 2.4 3.9 2.9 5.4.8 1.1-1.4 1-2.3-.2-4.6-1.8-3.5-1.9-3.5-4-.4zM221.4 300.9c-2.2.4-5.3 1.7-6.9 2.9-1.5 1.2-3.3 2.2-4 2.2-.7 0-2 2.1-3 4.6-2.1 5.5-1.6 15.2.9 18.7.9 1.2 2.6 3.6 3.7 5.4 2.1 3.3 5.1 4.4 17.4 6.4 2.8.4 6.4 1.1 8 1.4 2.8.6 3.2.4 5.6-4.7 2.4-4.8 2.5-5.6 1.3-8.8-.7-1.9-1.3-5.4-1.3-7.8-.1-2.9-.7-4.7-2.1-5.9-1.1-1-2-2.2-2-2.9 0-.6-1.8-3.6-4.1-6.7-4.3-6.1-4.6-6.2-13.5-4.8zM144 312.9c-1.4 2.8-1.3 4.2.7 5.6 2.1 1.5 3.5 14 1.9 16.7-.8 1.3-.2 2.5 2.7 5.8 2.1 2.2 4 5.4 4.4 7 .7 4 2 3.8 3.8-.6 2.1-5.1 1.9-9.1-1-14.9-1.3-2.8-2.5-5.9-2.5-7 0-1-.8-4-1.7-6.5-2.8-7.6-6.1-10.1-8.3-6.1zM280.5 317.7c-1.1.2-3 .6-4.1.8-1.3.3-2.7 1.8-3.4 3.7-.7 1.8-2.4 4.4-3.6 5.8-1.3 1.4-3.2 5-4.3 8-4.3 12.3-8 18.5-9.6 16-.3-.5-1.9-1-3.4-1-2.7 0-5.1 3-5.1 6.4 0 2.8 6.3 13.8 8.6 14.8 2.7 1.3 6.6-.7 8.5-4.4 1.7-3.3 2.5-3.6 10.9-4.4 4.1-.3 8.5-1 9.7-1.5 1.5-.5 2.5-.3 3.4.7.9 1 2.2 1.4 4.1 1 3.2-.6 5.2 1.6 6.8 7.4.7 2.5 2.2 4.4 5.5 6.5 2.4 1.6 4.5 3.6 4.5 4.3 0 1.7-3 2.8-3.9 1.3-1.4-2.2-11.1-4.1-11.1-2.2 0 1.6 6.4 7.8 8.5 8.2 1.3.3 2.2 1.5 2.5 3.4.3 1.7 1.4 3.4 2.8 4.1 1.2.6 3.3 2 4.5 3.1 4 3.6 5.3 3.5 9.6-.9 3.5-3.5 4.3-3.9 5.7-2.7 1.4 1.1 1.3 1.5-.7 3-2.3 1.7-2.3 1.8-.4 3.9 3.1 3.4 5.6 4.4 11.3 4.6 4.6.2 5.4-.1 7.1-2.5 1-1.4 2.3-4.1 3-6 1-3 .9-3.7-.9-5.6-1.1-1.2-2-3.1-2-4.2 0-2.6-4.3-7.9-7-8.8-1.5-.5-2-1.5-2-4.5 0-3.2-.6-4.4-3-6.2-1.6-1.2-3-3-3-4.1 0-5.7-5.8-9.2-13.8-8.3-5.8.7-9.2-.9-9.2-4.3 0-.9-.7-2.5-1.5-3.5-1-1.4-1.5-4.5-1.5-10.1 0-7.7-.2-8.3-2.9-10.9-1.6-1.6-3.5-4.2-4.2-5.8-2-4.8-8.4-6.8-16.4-5.1zM228 348c0 1.1 4 5 5.1 5 .4 0 1 1.3 1.4 3 1 4.6 4.2 8 7.6 8 2.4 0 2.9-.4 2.9-2.4 0-1.4-.4-2.8-1-3.1-.5-.3-1-2.1-1-3.8-.1-5.4-2.9-7.7-9.4-7.7-3.1 0-5.6.4-5.6 1zM218 352.6c0 .9 1.4 2.8 3 4.2 1.7 1.5 3 3.3 3 4.2 0 2.6 9.8 12 12.5 12 2.7 0 3.3-1.4 1.2-2.7-2.7-1.7-5.7-6.7-5.7-9.5 0-4.5-5.7-9.8-10.4-9.8-2.6 0-3.6.4-3.6 1.6zM747.6 374.2c-3.7 5.3-1.4 10.2 8.9 18.7 5.7 4.7 8.3 7.8 10.5 12.2 3.5 6.9 3.5 6.9 1.2 6.9-1 0-3 1.3-4.5 2.8-3.4 3.5-3.7 8.6-.6 10.2 1.7 1 1.9 1.7 1.4 5-1 6 1.7 13.5 7.7 21.5l5.3 6.9.3 10.5c.4 10.3.5 10.6 3.8 14.5 1.9 2.2 3.4 4.5 3.4 5.2 0 .8.9 1.8 2 2.4 1.2.6 3.1 3.5 4.4 6.4 2 4.5 3 5.6 6 6.6 2.1.7 5 2.9 6.9 5.2 1.7 2.2 4 4.8 5 5.7.9.9 3.9 3.7 6.6 6.3 3.3 3.3 5.7 4.8 7.5 4.8 1.5 0 2.9.6 3.2 1.4.3.8 2.2 2.1 4.2 2.9 2 .8 4.8 2.7 6.1 4.1 1.4 1.4 3.3 2.6 4.3 2.6s2.2.8 2.5 1.7c.4 1 1.7 3.2 3 4.9 1.3 1.7 2.3 3.9 2.3 4.8 0 3 2.7 6.9 8.5 12.6 3.1 3 6.6 7.4 7.6 9.8 1.4 3.1 2.4 4.2 3.6 4 1.5-.3 1.8-1.4 1.7-6.8-.1-3.6-.9-8.5-1.9-11-.9-2.5-2.2-5.9-2.9-7.6-.6-1.8-1.7-3.9-2.5-4.7-.7-.9-2.2-3.4-3.4-5.6-1.2-2.2-3.5-6.1-5.2-8.7-1.9-3.2-2.5-4.9-1.7-5.2 1.9-.6 1.4-7.4-.8-10.2-2.5-3.2-2.5-4.8.1-7.6l2-2.2-4.4-1.7-4.4-1.7.5-4.3c.4-4 .2-4.4-1.9-4.7-2.1-.3-2.5-1.1-3.4-6.3-.9-4.9-1.5-6.2-3.8-7.5-2.9-1.6-3.6-4-1.1-4 1.1 0 1.4-.6.9-2.3-.8-2.6-4.5-6-9.5-8.6-1.9-1.1-5.5-3.8-8-6-2.5-2.3-5.6-4.4-7-4.7-1.4-.3-4.2-.9-6.2-1.5l-3.8-1v-5.5c0-4.1.5-6.3 2.1-8.2 1.3-1.7 1.8-3.4 1.4-4.9-.4-1.9 0-2.4 2.2-2.9 1.6-.3 3.3-.7 3.9-.9.7-.2 1.4-2 1.6-4.1.4-3.2-.1-4.5-3.7-8.8-2.2-2.8-5.8-6-7.8-7.1-2.9-1.5-3.7-2.6-3.7-4.7s-1-3.4-4.4-5.7c-4.6-3.2-8.1-8-10.6-14.6-1.2-3.2-2.1-4.1-4.4-4.3-1.6-.2-3.9-1.6-5.3-3.3-1.8-2.1-3.4-2.9-5.9-2.9-2.8 0-3.2.3-2.7 1.7.4 1 1.8 2.9 3.2 4.2 3.2 3 1.4 4-3.2 1.8-1.8-.9-4.5-1.9-6.1-2.2-1.6-.3-4.2-1.9-5.8-3.6-1.6-1.6-3.1-2.9-3.3-2.9-.2 0-1.1 1-1.9 2.2zM262.1 387.5c-1.7 2-3.1 4-3.1 4.5s-3.4 4.5-7.5 9l-7.5 8 1.5 3c.8 1.6 3.4 3.9 5.6 5.1 2.6 1.3 5.1 3.8 7.1 6.9 2.3 3.7 3.8 5.1 6.2 5.6 1.7.3 4.1 1.5 5.3 2.6 1.7 1.6 2.7 1.8 5 1.1 4.3-1.5 3.4-3.6-2.2-5.4l-5-1.6v-15.8h2.8c2.2.1 2.9-.5 3.3-2.5.3-1.4 1.3-4.6 2.1-7.1 1.9-5.6 1.4-8.2-2.7-13.2-4-4.8-6.8-4.8-10.9-.2zM595 385.8c-1.9.4-3.5 1.3-3.4 1.9.1.7.2 2.4.3 3.8.2 3.5 6.7 10.5 9.7 10.5 1.7 0 2.4.6 2.4 1.8 0 3.6 9.5 5.6 13.3 2.8 3.1-2.4 2.1-4.9-2.8-6.9l-4.5-1.9v-5.3c0-3.6-.4-5.5-1.4-5.8-2.6-1-10.1-1.5-13.6-.9zM370.1 402.1c-1.1 1.9-1.9 2.1-7.1 1.6-5.5-.6-8.4.3-6 1.8.5.3 1 2.3.9 4.3 0 3.2-.1 3.4-.9 1.4-1-2.3-2.5-2.9-3.5-1.2-.3.5-1.9 1-3.5 1-3.3 0-3.7.9-4.6 9.3-.5 5.5-.3 6.6 1.8 9.7 3 4.5 12.5 10.9 16 11 5.5 0 16.3-12.5 17-19.7l.3-3.8-4.4-.5c-5.8-.6-6.2-2.3-1.1-3.9 4.2-1.2 8-5.7 8-9.4 0-3.8-10.6-5.2-12.9-1.6zM288.3 429.7c-4.4.3-5.1.7-4.6 2.1.9 2.7 3.4 4.2 6.8 4.2 3.6 0 12 2.8 18 5.9 2.1 1.2 4.5 2.1 5.2 2.1 2.2 0 1.4-4.5-1.2-7-1.4-1.3-2.5-2.9-2.5-3.6 0-3.1-9.6-4.7-21.7-3.7zM395.4 431.3c-.5.8-2.8 2.9-5.1 4.6-5.2 3.8-5.6 7-1.4 11.9 2.3 2.7 3.3 3.2 5.4 2.7 1.5-.4 3.1-1.3 3.8-2.1.6-.8 1.7-1.4 2.5-1.4 2.1 0 2.7-3.8 1-6.2-.9-1.2-1.6-3.2-1.6-4.4 0-1.2-.8-3.2-1.9-4.5-1.6-2-1.9-2.1-2.7-.6zM409.1 438.4c-.8 1-.8 1.6.2 2.5 1.6 1.3 2.7.5 2.7-2.1 0-2.1-1.3-2.3-2.9-.4zM528.2 480.5c-1.7 2-3.2 4-3.2 4.5 0 .6-.6 1-1.4 1-1.9 0-.8 4 1.3 4.7.9.3 2.6.9 3.7 1.5 1.5.7 2.8.7 4.2-.1 3.5-1.8 6.2-1.3 7.2 1.4.5 1.4 1.6 2.5 2.3 2.5 2.2 0 5.5-4.3 6.2-8.1.6-3.1.3-3.9-2-5.7-1.5-1.2-4.2-2.4-6.1-2.8-1.9-.3-3.7-1-4-1.5-1.2-2-5.1-.7-8.2 2.6zM678.8 482.6c-5.3 3.4-5.6 3.8-4.6 6 1 2 1.8 2.4 5.8 2.4 3.8 0 5.1.5 7.5 3 3.2 3.4 6.6 3.8 11.8 1.6 4.5-1.9 6.9-4.8 6-7.3-1.2-3.1-6.8-7.3-9.4-7.2-1.3.1-3.7-.3-5.2-1-4.2-1.7-5.7-1.4-11.9 2.5zM709.3 487.7c-.7.2-1.3 1.4-1.3 2.5s-1.1 3.3-2.5 5c-1.4 1.6-2.5 3.5-2.5 4.2 0 2.1 3.3 4.4 8.2 5.7 3.9 1.1 5.2 1 7.3-.1 2.2-1.2 2.6-2 2.3-5.4-.2-3.3-.7-4.2-2.5-4.4-1.1-.2-3.3-2.1-4.7-4.3-1.5-2.1-2.7-3.9-2.9-3.8-.1 0-.8.3-1.4.6zM694.3 501.7c-3.3.6-3.3 5.3 0 5.3 1.3 0 3.2-.6 4.2-1.4 1.6-1.2 1.7-1.6.6-3-.7-.9-1.6-1.5-2-1.5-.3.1-1.6.4-2.8.6zM611.8 519.1c-3.6 2.3-4.8 3.8-4.8 5.6 0 1.3-1 3.7-2.2 5.3-1.7 2.3-1.9 3.3-1 4.2.7.7 1.2 3.6 1.2 6.5 0 3.9.6 6.2 2.1 8.3l2.2 2.8-2.2 2.8c-1.1 1.4-2.1 3.3-2.1 4 0 .7 2.5 3.4 5.5 6.1l5.6 4.8-.7 5.1-.6 5.2 5.6 1.3c5.4 1.2 5.7 1.4 5.1 3.9-.5 2.2.3 3.3 6 8 8.7 7.2 9.7 7.6 13.9 5.6 4.5-2.1 6.5-2 9.1.4 1.4 1.3 4.1 2.3 7.6 2.6 3 .3 7.1 1.3 9.2 2.1 3.1 1.4 4.6 1.4 8.6.5 3.4-.8 6.7-.8 10.8-.2 3.2.6 11.1 1 17.5 1s11.9.4 12.3.9c.3.6 3.2 3 6.4 5.4 5.2 4 6.6 4.5 12.8 5.2 5.8.5 7.9 1.3 11.9 4.1 5.4 3.8 8.9 3.9 15.3.2 1.8-1 6.6-2.5 10.6-3.3 9.2-1.7 11.3-3 13.5-8l1.7-4-3.1-2.7-3.1-2.7 1.8-3.2c1-1.7 1.6-3.3 1.5-3.4-.2-.2-3.2-2.1-6.7-4.4-5.7-3.7-7.1-4.1-12.5-4.1h-6.1l-1.8-6.3c-1.5-5.1-2.9-7.3-8-12.5-3.9-3.9-7-6.2-8.4-6.2-4.2 0-9.2-3.1-9.8-6.2-.7-3.1-3.4-5.3-7.7-6.3-1.4-.4-3.6-1.8-4.9-3.1-1.8-1.9-3.3-2.4-7-2.4-2.6 0-5.9-.4-7.3-1-4.7-1.7-20.6-1.5-26 .3-4.7 1.7-5 1.7-8.2-.2l-3.4-2-3.5 2.1c-2.8 1.6-4.7 1.9-8.2 1.5-4-.4-5.3-1.2-9.2-5.5-6.7-7.2-14.7-13.4-18.4-14.1-2.1-.5-3.9-1.8-5.2-3.9-1.8-2.7-2.5-3.1-6.5-3.1-3.4-.1-5.7.7-9.2 3z"/><path d="M866.5 532c-.9 1.4 3.7 14.1 5.8 16.3 1.8 1.8 1.8 2 .2 3.7-1.6 1.8-1.6 2.2-.1 6 2.1 5.2 2 12-.1 16.4-1.3 2.9-1.4 3.9-.4 6.5 1.5 3.4 9.4 9.3 8.9 6.5-.2-.9.7-2.3 1.8-3 2.1-1.4 2.3-1.2 5.3 4.1 3.7 6.5 9 10.5 10.4 7.9.5-.9.6-3.7.3-6.3-3-20-4.8-24.9-11.9-31.7-3.9-3.7-5.6-6.3-6.1-8.8-.9-4.7-5.8-11.9-9-13.4-1.6-.7-2.6-2-2.6-3.2 0-2.1-1.4-2.7-2.5-1zM954 582.9c-2.3.7-2.5 1.1-2.4 6.7 0 8.8 5.3 17.9 8.4 14.8.8-.8.5-2.7-1-6.8l-2.2-5.6 2.6-4.4c2.2-3.8 2.3-4.5 1-5-1.8-.7-3-.6-6.4.3zM866.2 661c-.7 1.1-2.3 2-3.7 2-1.4 0-2.6.3-2.6.7-.6 3.1-.7 10.7-.3 15l.5 5.3h9.6c10 0 13.2.9 18.7 5.3 2.8 2.2 2.8 2.5 1.6 6.1-1 3.2-1 4 .6 5.7.9 1 2.6 1.9 3.7 1.9 1.4 0 1.7.4 1.2 1.7-1.7 4-2.8 9.1-2.2 10.5.3 1 2.5 1.8 6.1 2.2 3.7.5 5.6 1.2 5.6 2.1 0 1.6 6.9 7.5 8.8 7.5 2.8 0 7 3 9.5 6.9 2.3 3.4 4.8 5.1 16.9 11.1 13.8 6.8 14.6 7.1 23.3 7.6 5 .3 10.2 1 11.6 1.5 1.5.6 5.4 1.6 8.8 2.3 5.4 1.1 6.3 1.1 7.6-.4 1.4-1.6 1.9-1.5 6.7.9 4.3 2.1 7 2.6 15.5 2.9 9 .4 10.3.2 10.3-1.2 0-2.4-4.2-3.6-12.6-3.6-6.7 0-7.4-.2-7.4-2 0-1.2.7-2 1.6-2 2.5 0 4.3-3 4.4-7.2 0-6.4-1.3-8.4-6.1-9.2-5.9-.9-7-2-5.6-5.6 1.2-3.3-.3-6-3.4-6-1.6 0-1.9-.8-1.9-4.6s-.6-5.3-3.9-9.2c-2.2-2.6-4.3-6-4.7-7.5-.6-2.5-.9-2.7-3.8-2.1-1.7.3-4.9 1.5-7 2.6l-3.9 2-6.8-2.7c-4.7-1.8-9.5-2.8-15.8-3.2-8.6-.6-9.1-.7-12.2-3.9-2.8-2.9-4-3.4-8-3.4-3.9 0-4.9-.4-6.3-2.5-.9-1.4-2.2-2.5-3-2.5-.7 0-5.7-3.8-11.1-8.5-6.8-5.9-10.7-8.5-12.4-8.5-1.4 0-4.9-1.6-7.8-3.6-2.8-1.9-7.8-4.2-11-4.9-7.5-1.8-7.6-1.8-9.1.5zM925.8 661.7c-2 .5-2.6 6.7-.8 7.8.6.3 1 1.5 1 2.6s.7 2.2 1.5 2.5c2.2.9 6.5-2.3 6.5-4.6 0-2.8-6-8.8-8.2-8.3zM662 881.5l-2.1 3.4 4.1 5.4 4 5.4 8.3.6c4.5.4 11 .9 14.3 1.3 6 .6 6.3.5 10.9-3 5.2-3.9 6-4.1 10-2.6 2 .8 2.6 1.5 2.2 3-.4 1.8 0 2 3.5 2s4.8.7 9.4 5c4.8 4.5 5.7 5 9.9 5 2.6 0 6.3.9 8.5 2 5.7 2.9 8 2.7 8-.9 0-2.6.4-3 4-3.6 3.5-.6 6-2.7 6-5 0-.3-2.4-1.7-5.2-3-3.7-1.8-6.9-2.5-10.8-2.4l-5.5.1 4.8 1.3c2.6.7 5.5 1.9 6.3 2.6 2.5 2.1-3.8 4.8-11.1 4.9-6 0-6 0-9.8-4.7-3.4-4.2-3.6-4.8-2-5.4 1-.4 3.2-.8 4.8-.9 2.7-.1 2.8-.2 1-1.2-1-.6-7.1-1.5-13.5-1.9-12.3-.7-34.4-5.6-41.2-9-2.5-1.3-5.8-1.9-10.2-1.9-6.3 0-6.5.1-8.6 3.5z"/></svg>
