<svg version="1.0" xmlns="http://www.w3.org/2000/svg" width="1365.333" height="1365.333" viewBox="0 0 1024 1024"><path d="M619.6 97.9c-1.4 2.2 1.4 5.8 6.3 8.1 5 2.3 5.4 2.3 9.4.9 3.2-1.2 4.3-2.2 4.5-4 .2-2.2-.3-2.5-7.1-4.2-8.1-1.9-12.3-2.2-13.1-.8zM710.6 190.6c-2.1 1.2-3.4 1.3-5.1.6-2.6-1.2-10.7-.4-11.7 1.2-1.5 2.1-.8 4.4 2.5 8.4 1.7 2.2 3.9 5.3 4.8 6.9 1.2 2.2 3.1 3.4 7.9 5.1l6.4 2.1 3.3-2c3.8-2.4 4.1-3.7 1.3-7.2-2.5-3.2-1.2-4.4 5.4-5.3 4.5-.7 13.5-5.9 12.2-7.1-.3-.3-4.3-.5-8.7-.4-6.6.1-8.9-.3-11.6-1.9-1.9-1.1-3.5-2-3.6-2-.1.1-1.5.8-3.1 1.6zM881.5 200.9c-1.3 4.3 5.4 14 9.8 14.1 1.3 0 1.7-.8 1.7-4 0-2.1-.6-4.4-1.2-4.9-.7-.6-2.9-2.4-4.9-4.1-4.3-3.5-4.6-3.6-5.4-1.1zM901.5 203c-1.7 1.9-1.6 2.2 2.5 9.1 4.8 7.8 8.3 11 10.3 9 .8-.8.8-1.9-.2-4.4-.7-1.7-1.5-4.3-1.8-5.7-.2-1.4-.6-3.5-.9-4.7-.3-1.5-1.8-2.8-4-3.8-4.4-1.8-3.7-1.9-5.9.5zM675.2 210c-3.5 5.6-4.7 6-12.8 3.5-7.5-2.3-11.7-1.9-15.4 1.2-3 2.5-3.1 2.9-2.5 7.7.4 2.8 2.7 9.3 5.1 14.5 4.9 10.4 5 11.2 2.9 14.5-2 3-.9 5.9 3.9 10.6l3.7 3.5 14.2.6c13.4.5 14.6.8 20.5 3.8l6.2 3.1v5.1c0 6.4 2.6 11.3 8.4 15.6 5.2 4 7.5 4.1 10.6.8 2.9-3.1 5.4-2.6 9.2 2 1.5 1.8 5.1 4.9 8 6.9 2.9 2.1 6.8 4.8 8.6 6.1 2.6 1.8 4 2.2 7.5 1.8 5.3-.7 6.7-1.8 6.7-5.3 0-3.8.8-4.2 3.9-1.9 1.5 1.1 3.9 2.1 5.5 2.2 2.6.2 2.9-.2 4.7-5.8 2.8-8.7 1.5-12.5-4.3-12.5-3.3 0-7.5-4.7-8.3-9.4-.9-4.5 1.5-9.7 6-13.2l3.7-2.8 2.4 2.9c6 7.4 10.8 10.5 16.1 10.5 2.6 0 13.3-4.7 13.3-5.8 0-.4-2.4-2.3-5.2-4.2-9.6-6.5-10.8-7.8-10.8-12.1 0-5.2-2.8-6.9-13.6-8.3-7.4-.9-8.7-.8-9.5.5-2.5 4.6-4.5 6-9.6 6.6l-5.2.6-5.9-5.7c-3.3-3.1-7.1-7.8-8.4-10.4-3-5.9-6.5-6.8-10.9-2.6-2.4 2.3-3.9 2.8-10.2 3.2-9.1.6-11.1-.4-12.5-6.1-1.7-6.6-10.1-18.7-15.9-23-2.8-2-5.5-3.7-6-3.7-.6 0-2.4 2.2-4.1 5zM901.7 247.8c-2.4 2.7-2.1 7 .8 10.8 1.3 1.7 3.4 5.6 4.6 8.6 3.2 8.2 5.5 11.3 9.8 13.3 4.8 2.1 8.4 1.5 12.4-2.3 3.3-3.1 3.4-4.3.6-6.8s-5-6.7-6.9-12.9c-1.4-4.4-1.9-5-5.3-5.8-2.1-.5-4.7-2.2-6.1-3.8-2.9-3.4-7.4-3.9-9.9-1.1zM627 262.7c-2.6.9-6 4.6-6 6.4 0 2.3 2.5 4.1 5.2 3.7 3-.4 5.3-4.7 4.4-8.1-.7-2.8-1-2.9-3.6-2zM977.4 273.7c-1.4 2-1.9 4.5-1.9 8.8.1 8.6 1.1 11.5 3.8 11.5 1.7 0 2.9-1.5 5.4-6.6l3.3-6.6-2.1-4.9c-2.5-5.8-5.5-6.6-8.5-2.2zM855.8 275.1c-1 .5-1.8 1.6-1.8 2.3 0 .8-.7 1.6-1.5 2-1.2.4-1.4 1.5-.9 4.5.5 3 .1 5.1-1.4 8.3-1.2 2.4-2.9 8.5-3.8 13.6-1.5 8.4-1.5 9.7-.1 14.6 1.7 6.2 8 14.9 11.8 16.6 1.5.6 4.1 2.7 6 4.6 1.8 1.9 3.8 3.4 4.5 3.4 1.4 0 2.4-2.3 2.4-5.6 0-1.8.5-2.4 2.1-2.4 1.9 0 2.1-.4 1.5-4.3-.6-4-.4-4.4 2.6-6.7 1.8-1.4 4.2-2.7 5.2-3 1.1-.3 2.4-1.4 3-2.5.6-1.1 1.8-2.5 2.6-3.1 2.3-1.9 1.5-7.5-2.1-13.4-1.8-3-5.3-8.9-7.7-13-6-10-8.6-12.6-14.9-15-3-1.1-5.5-2-5.6-2-.1 0-1 .5-1.9 1.1zM798 281.9c0 1.8.6 3.1 1.6 3.5 2.1.8 5.4-2 5.4-4.6 0-1.4-.8-1.8-3.5-1.8-3.2 0-3.5.3-3.5 2.9zM598.4 290.4c-.9 2.4 1.8 6.8 5.4 8.9 1.8 1.1 3.6 1.7 3.9 1.4 1-1.1-.7-5.5-3.3-8.6-2.8-3.3-5.1-4-6-1.7zM21.2 455c-2.5 1.6-6.1 2.9-9.2 3.3-6.1.7-7.4 1.7-10.2 7.1-1.8 3.5-2 5.1-1.4 12.4.5 7.4 1.1 9.1 4.7 15.2 3.1 5.2 5 7.2 7.3 8 3.5 1.1 11.5 10.5 13.9 16.1l1.4 3.5 10 1.3c9.5 1.2 10.2 1.2 14.1-.8 3.4-1.7 4.2-2.7 4.8-5.8.6-3.6 3.1-9 8.9-19.3 4.3-7.7 3.1-11.7-5.5-17.3-1.9-1.3-3-3.6-4.5-9.5l-2-7.7-6-2.1c-3.3-1.1-7.8-3-10-4.1-6.7-3.4-11.5-3.5-16.3-.3zM306.8 588.3c-4.9 3.8-6.3 8.1-4.2 13.5 1.9 4.8 2 10.3.1 13.9-2.1 3.9-2.4 11.1-.8 14.2.9 1.6 1.1 5.1.5 12.2-.6 9.7-.8 10.1-3.8 12.4-1.9 1.5-5.2 2.6-8.6 3.1-7.2.8-21.5 4.9-24.3 6.9-1.2.8-3.8 1.5-5.8 1.5-2.2 0-7.5 1.8-14 4.9-5.7 2.7-12 5.4-14 6.1-2.5.9-4.2 2.4-5.3 4.7-1.5 3.1-1.5 3.6 0 6.6.9 1.8 2.3 4 3.2 4.9 1.3 1.6 1.2 1.8-1.2 2.8-2.1.8-3.2.7-4.9-.5-7-4.9-11 1.7-5.3 8.8 2 2.5 3.3 3 10.5 3.9 7.7 1 8.3 1 10.5-1.1 3.3-3.1 6.1-2.6 10.9 1.9 3 2.9 3.7 4 2.5 4-1.4 0-1.8.8-1.8 3.5 0 2.8.6 3.7 2.8 4.9 1.5.8 3.5 2.3 4.5 3.4s3.2 2.6 4.9 3.3c2.8 1.1 3.3 1.1 4.9-1 2.3-2.9 6.3-2.5 6.7.6.4 2.8 7.6 11 10.5 11.8 1.2.4 5.8 2.4 10.2 4.5 6.9 3.2 9.8 4 21 5.3 10.3 1.1 13.2 1.8 14 3.2.5 1 2.1 3.1 3.3 4.6 2.1 2.5 2.2 3.3 1.3 6-1 2.9-.8 3.4 3.8 8.2 10.7 11.4 13.1 14.4 13.1 17 0 5 6.1 6.2 10.9 2.1 2.9-2.4 3.4-2.5 6.1-1.4 3.9 1.6 3.8 4.1-.1 7.4-1.9 1.6-3.2 3.9-3.6 5.9-.5 3.3-.3 3.6 5.5 7.1 10.5 6.4 15.8 14.2 11.8 17.5-1.9 1.6-13.6 6.1-15.8 6.1-.9 0-3.3-.7-5.2-1.6-3.3-1.6-3.5-1.6-6.4.5-1.6 1.1-4.4 4.3-6.2 7.1-3 4.6-3.2 5.5-2.5 10.5.4 3.9 1.7 7.1 4.2 10.8 5.9 8.8 6.1 8.9 9.5 6.9 1.6-.9 3.4-2.6 4-3.7 1.9-3.7 5.1-6.5 6.2-5.6.6.5 3 1.4 5.4 2 2.3.7 4.2 1.5 4.2 1.9 0 .4-.9 2.5-2 4.7-2.9 5.8-2.6 9.9.9 12.4 1.6 1.2 4.4 2.4 6.1 2.7 1.7.4 3.8 1.8 4.7 3.1 1.5 2.3 1.5 2.5-1.6 5.7-3.8 3.9-3.4 6.6 1.1 6.6 1.7 0 4.8.5 7 1.2 3.7 1.1 3.9 1.3 3.3 4.2-2 9.8-1.9 10.3 1.7 11.4 1.8.6 4.4 1.2 5.8 1.4 1.9.2 2.6 1 2.8 3 .3 2.9 1.1 3.3 8.3 4.3 2.6.3 5.4 1.4 6.4 2.5 2 2.2 4.2 1.6 6.8-1.7 2.3-2.9 4.6-2.9 10-.1 6.2 3.1 11.6 3.9 14.4 2.1 3.1-2.1 3.3-10.2.3-14-1.1-1.4-2-4-2-5.8 0-2.9-.5-3.5-4.7-5.3-2.7-1.1-6.4-2.5-8.5-3.1-4.4-1.4-5.3-3.9-4.9-13.4.2-4.9-.1-7.4-1.3-9.2-.9-1.3-1.6-3.5-1.6-4.9 0-1.3-1.6-7.4-3.6-13.6-3.5-10.9-3.6-11.5-2.4-17.4 1.4-7.3 2.7-8.9 10.3-12.7l5.7-2.9-1.7-3.2c-1-1.7-2.3-3.9-2.9-5-.6-1.1-1.5-7.4-1.9-14.1-.4-6.7-1.3-13.7-2.1-15.6-.8-1.8-1.4-4.8-1.4-6.6 0-3.8 7-17.5 11.6-22.7 3.2-3.6 4.9-8.7 4.2-12.5-.3-1.4-1.6-1.9-6.4-2.4-8-.7-14.6-4.1-21.3-10.6l-5.4-5.4-2.4 2.3c-1.6 1.5-2.3 3.1-2 4.5.5 2.8-1.3 3-3.7.4-.9-1-3.4-2.1-5.5-2.5-2.1-.3-4.4-1.3-5.1-2.1-.7-.8-1.8-1.5-2.5-1.5-2.5 0-7.5-6.9-7.5-10.3 0-4.3-.8-5.2-5.6-7.2-2.3-.9-5.8-3.4-7.7-5.6-2.1-2.2-4.9-4.2-6.6-4.5-1.6-.4-4-1.7-5.2-3-2.2-2.3-2.2-2.4-.4-4.4 1.7-1.8 1.7-2.1.1-4.5-1.7-2.5-1.8-2.6-4.2-1L355 687v-4.4c0-3.9-.4-4.9-3-6.8-2-1.5-3-3-3-4.8 0-2.8-2.1-5.2-5.4-6.4-1.6-.6-1.8-1.2-1-5.9.5-2.8.9-9.9.9-15.7 0-8.6.3-10.5 1.5-10.8.9-.1 2.1-1.6 2.7-3.1.7-1.9 1.9-3 3.4-3.3 2.1-.3 2.4-.9 2.7-5.5.3-4.5-.3-6.4-4.6-14.9-4.4-8.6-5.5-9.9-9.8-12.3-2.7-1.5-6.4-3.6-8.1-4.7-2.7-1.6-3.6-1.7-5.3-.7-2.7 1.8-4.3 1.6-7.3-.7-3.6-2.8-6.9-2.5-11.9 1.3zM765.6 605.9c-1.7 1.8-2 3.9-1 6.5.5 1.3 1 1.2 3.5-.6 3.3-2.5 3.8-5.3 1-6.7-1.4-.8-2.2-.6-3.5.8zM1001.2 607.7c-3.5.8-6.6 2.1-6.9 2.9-1.3 3.4.9 8.6 5.7 13.5l4.8 5.1 5.8-.7c3.3-.4 7.6-1.6 9.7-2.6 3.2-1.7 3.7-2.4 3.7-5.4 0-2.8-.7-4-4.2-6.8-4.2-3.3-11.2-7.8-11.9-7.6-.2 0-3.2.7-6.7 1.6zM953.1 635.9c-2 1.3-.4 5.1 2.2 5.1 2.8 0 6.7-2.7 6.7-4.6 0-1.6-6.5-2-8.9-.5zM399.8 637.4c-1.5 1.1-1.8 3-1.8 12V660h2.6c3.2 0 14-6.4 15.5-9.2 2.9-5.4 3-8 .3-11.5-2.4-3.1-2.8-3.3-8.7-3.3-3.6.1-6.9.6-7.9 1.4z"/><path d="M391.7 679.6c-3.2 2.9-3.2 2.8-1.1 6.4 1.1 1.8 3.2 3.2 5.8 4 2.2.7 5.4 2.3 7 3.7 1.6 1.3 3.6 2.3 4.5 2.1 2.3-.4 2.5-5.6.4-9.8-1.4-2.7-2.6-3.6-5.8-4.3-2.1-.4-4.9-1.6-6-2.7-2.1-1.9-2.1-1.9-4.8.6zM432.1 715.4c-.7.8-1.1 3-.9 4.8.3 2.9.6 3.3 3.3 3.3 5.4 0 6.2-8.5.8-9.3-1.1-.2-2.5.4-3.2 1.2zM213 723.5c-1.5 1.8.6 5.6 4.3 7.9 3.2 2 10.4 2.9 11 1.3.7-2-1.1-5.7-2.8-5.7-.9 0-3.3-1.1-5.3-2.5-4.2-2.9-5.5-3.1-7.2-1zM260.8 736.1c-2.7 1.5-2.2 3.5 2.2 7.8 2.2 2.2 4 4.4 4 5 0 .6.9 1.5 2.1 2.1 2.7 1.5 5.9-1.2 5.9-4.9 0-4.1-4.4-9.7-8.1-10.5-4-.8-4-.8-6.1.5zM311 761.4c-1.8 3.5-.6 5.8 2.7 5.4 3.5-.4 4.5-4.5 1.7-6.5-2.4-1.8-2.9-1.7-4.4 1.1z"/></svg>
