<svg version="1.0" xmlns="http://www.w3.org/2000/svg" width="1365.333" height="1365.333" viewBox="0 0 1024 1024"><path d="m742 7.6-9.4 7.6-6.6-.6-6.5-.7-4.8 13.8-4.8 13.8-12 5.4c-6.6 3-12.4 6.2-12.8 7-.5.9-1.2 5.2-1.5 9.6-.4 4.4-.9 8.7-1.2 9.6-.6 2.2-11.2 4.3-16.7 3.4-5.1-.9-14.6-5.4-18.7-8.9-3-2.5-3.6-2.6-10.8-2.1-17.6 1.3-118.6 4.8-253.6 9-79.1 2.4-144 4.5-144.1 4.7-.2.2.2 23.1.9 50.8.7 29.1.8 50.8.3 51.1-.5.3-11.3.9-24 1.3-12.8.4-23.5 1.1-23.9 1.4-.3.4.4 39.6 1.7 87.2 1.3 47.6 2.5 96.5 2.8 108.7l.5 22.3-6.8-.6c-5.4-.5-8.2-.2-13.8 1.5-4.3 1.3-9.7 2.1-14 2.1-5.4 0-7.9.5-10.7 2.1-4.7 2.8-6.8 6.9-5.5 10.4 1.3 3.4 1.3 9.2 0 10-.5.3-1 2.3-1 4.5 0 3.1-.6 4.4-3.8 7.1-6 5.2-7.6 8.6-6.3 13 .6 2 1.1 3.9 1.1 4.1 0 .3-2.8.9-6.2 1.2-9 1-10.7 1.6-11.4 3.8-.4 1.4.4 3.2 2.5 5.8 2.1 2.6 3.1 5 3.1 7.2s.7 3.7 2 4.6c2.9 1.8 2.6 5.6-.5 7-1.4.7-4 2.5-5.8 4.2-1.7 1.6-5.6 4.8-8.4 7.2-6.1 4.8-6.7 7.3-2.9 12.9 3.3 4.9 4.3 12.3 2.2 17.2-1.2 3-2.6 4.3-6.8 6.2-8 3.6-10.4 6.3-11.3 13-.6 5.1-.4 5.9 2 9.1 2.6 3.3 2.7 3.4 10 3.4 6.5 0 7.4-.2 8-2 .3-1.1 1.1-2 1.6-2 .9 0 8.8 3.7 9.8 4.6.2.1-.3 2.5-1 5.3-1.2 4.7-1.1 5.4 1.5 11.6 1.6 3.6 4.2 8.2 5.8 10.3 2.4 3 2.9 4.4 2.4 7.2-.3 1.9-.8 6.3-1.2 9.6l-.6 6.1 6.5 6.7c5.5 5.6 7 6.6 9.9 6.6 1.9 0 3.9.5 4.6 1.2 1.8 1.8 1.4 7.7-1 13.5l-2.1 5.2 3.4 7.7c3.2 7.1 3.7 7.8 8.1 9.7 4.5 1.8 5.7 3.3 18.3 21.7l13.5 19.8v24.9l-3.9 5.4c-5.7 8-6.2 9.4-5.1 12.3.6 1.6 1.7 2.6 2.9 2.6 1.7 0 2 .6 1.8 3.7-.2 3.3.2 3.9 3.6 5.8 3 1.7 6.2 2.4 14.7 2.9 15.2.9 17 1.3 17 4.2 0 1.2-1.1 4.4-2.5 7-3.6 6.8-3.3 10.5 1.2 14.4 3.9 3.5 3.8 3.5 21.8 1.4 5-.6 5.2-.5 9.1 3.8 5.4 5.8 12.3 10.8 15 10.8 2.5 0 7.4 5.8 7.4 8.8 0 1.1-.7 2.5-1.6 3.2-4.2 3.6-3.2 9.8 2.1 12.2 1.4.6 2.5 1.9 2.5 2.8 0 1 1.3 2.3 3 3 1.7.7 3.7 2.2 4.5 3.3 1 1.4 2.9 2.1 6.7 2.5 3.8.3 6.3 1.3 8.9 3.3 1.9 1.5 5.4 3.5 7.7 4.4 3.2 1.3 4.8 2.8 7 6.6 2.4 4.4 3.3 5.1 7.9 6.5 3.3 1 6.1 2.6 7.7 4.5l2.6 3-2.6 3.8c-2.5 3.9-2.5 3.9-.7 7.7 1.3 2.9 3.2 4.7 7.1 6.7l5.3 2.9-4.3 3.8c-3.7 3.3-4 3.9-2.5 4.5 1.1.5 2.5.1 3.6-.9 2.3-2.1 2.8-2 3.4.4.3 1.1 1.3 2 2.4 2 2.4.1 10.3 3.7 11.7 5.4.6.8 4.6 2.9 8.9 4.7 6.6 2.7 8.1 3.8 9.7 6.9 1 2 2.5 4.2 3.4 4.9 1 .8 1.3 2.3.9 4.5-.3 1.8 0 5.8.7 8.9 1 5.1 1.4 5.7 4.6 6.9 3.2 1.1 3.4 1.5 3.4 5.8 0 6.3 1.8 7.7 11.5 9.1 9.1 1.2 14.6 4.4 16.4 9.5.7 2 2.3 3.6 4.2 4.4 2 .9 3.8 2.8 5.2 5.7l2.1 4.3h5.9c4.8 0 6.4.5 8.9 2.5 3 2.6 5.5 2.9 12.2 1.8 3.3-.5 4.1-1.2 5.5-4.4 1.3-3.1 2.1-3.9 4.2-3.9 1.5 0 3.2.6 3.9 1.4 1.4 1.8 14.7 6.2 21.2 7.2l4.7.6 3.8-6.1 3.8-6.2 6 .7c9.1.9 10.8 2 12.4 8.4 1.3 4.9 2.6 6.7 12.1 16.2 9.9 10.1 10.9 10.8 14.6 10.8 3.2 0 4.4.6 6.7 3.4 1.6 2.1 2.7 4.7 2.7 6.5 0 2.4.8 3.4 4.4 5.5 2.5 1.4 4.7 2.6 4.9 2.6.3 0 1.8-2 3.4-4.5 1.8-3 3.5-4.5 4.9-4.5 1.1 0 2.9-.9 3.9-2 2.7-3 9.3-2.6 16.3.8 5.6 2.8 5.8 2.8 9.7 1.3 2.2-.9 5.6-2.6 7.5-3.8 4.1-2.7 6-1.9 9.9 4 1.3 2.1 3 3.7 3.7 3.7.8 0 1.6 1.1 2 2.5.5 2.1 1.2 2.5 4.5 2.5 3.4 0 3.9-.3 3.9-2.4 0-3.6 9.6-9.6 15.4-9.6 7.9 0 20.7-3 24.1-5.6l3.3-2.5 3 2.6c2.8 2.3 3.7 2.5 14 2.5h11l23.7-24.4 23.7-24.4 17.8-7.6c9.9-4.2 18.9-7.6 20.1-7.6 1.1 0 3.4-1 5.1-2.1 3.6-2.6 5.4-1.5 3.9 2.4-1.1 2.7 0 3.7 4.1 3.7 1.8 0 2 .4 1.4 3.1-.3 1.7 0 4.5.9 6.5 1.2 3 1.8 3.4 4.9 3.4 2 0 3.6-.4 3.6-.9 0-1.7 3.3-2.1 5-.6 3.6 3.3 6.2.7 3.3-3.3-2.9-3.9-4-19.7-1.7-22.3 1.3-1.4 1.5-3 1.1-6.6-.7-6.2-2.4-7.4-9.7-6.6-5.2.5-5.9.3-6.9-1.6-1.5-2.6-3.3-2.7-5.6-.1-2.5 2.8-5.5 1-5.5-3.4 0-2.6-.8-3.9-3.8-6.3-2.1-1.7-5.3-5.9-7.1-9.3-2.9-5.4-3.3-6.9-2.8-11.4.4-4.5.2-5.4-2.1-7.8-3.3-3.6-5.1-8.7-5.9-17.1-.5-5.2-.9-6.7-2.2-6.7-.9 0-2.6-1.1-3.8-2.4-1.2-1.2-4.3-3.1-6.8-4-3.4-1.3-4.5-2.3-4.5-3.9 0-3.3-1.1-4.4-6.2-6.6-5-2.1-7.8-5.3-7.8-8.8 0-1.7-1.1-2.7-4.5-4.2s-4.5-2.5-4.5-4.2c0-1.2-2-4.5-4.3-7.3-2.4-2.8-5.1-6.3-6.1-7.8-1.9-2.9-8.1-5.8-12.5-5.8-1.6 0-3.4-.7-4.2-1.6-.9-1.1-2.2-1.4-4.6-.9-2.5.4-4.3.1-6.8-1.5-1.9-1.2-5.6-2.5-8.3-2.9l-4.7-.6v-6c.1-3.2.5-6 1-6.2.6-.2 2.5-1.2 4.3-2.3 2.7-1.7 3.2-2.6 3.2-5.7 0-5.1 1.8-11.3 3.3-11.4 3.5-.5 13-.9 19.2-.9 3.9 0 9-.6 11.4-1.3 3.6-1.1 4.7-2 5.6-4.6.6-1.8 2-4 3.2-4.9l2.2-1.7-1.3-24.5-1.4-24.5 3.9-5.7c3.5-5.2 3.9-6.3 3.9-12.2 0-5.6.3-6.5 2.1-7.1 3-1 4.2-5 2.5-8.3-.8-1.5-1.5-5-1.7-7.8-.4-4.6.1-5.8 5.1-14.2 5.1-8.5 5.7-9.2 8.8-9.2 2.6 0 3.7.7 6 4 1.5 2.2 3.5 3.9 4.6 4 2.5 0 4.5-2.8 4.6-6.3 0-1.5 1.1-5 2.5-7.7 2.9-5.7 3.1-7.3 1-9-2.5-2.1-1.8-7.3 1.5-11.5 1.7-2.1 3-4.1 3-4.4.1-.3.5-2.5.9-4.8.7-3.5.5-4.5-1-5.9-1.7-1.5-1.7-1.8-.1-4.3.9-1.4 4-5.2 6.9-8.4 2.9-3.2 5.6-7 5.9-8.5 1.6-7.3 3.7-11.7 9.9-20.1 3.6-5.1 6.8-9.8 7.1-10.6.3-.7 3.8-1.8 8.5-2.5 7.3-1.2 8.1-1.1 10 .6 2.9 2.6 3.9.6 3.9-8.7 0-6.5 1-10.8 6.5-29 3.6-11.8 6.5-22.9 6.5-24.8 0-2.1 1-4.7 2.5-6.7 1.4-1.8 2.5-4.6 2.5-6.1 0-1.6-2-13-4.5-25.3-3.7-18.6-4.3-22.5-3.1-23.4 1.8-1.5 3.6-7.1 3.6-11.5 0-3.7 5.3-21 7.6-24.6.6-1.1 1.7-6 2.4-11 .6-4.9 1.6-9.2 2.1-9.6.6-.3 1.3-3 1.6-6 .5-5.1.4-5.5-2.2-6.9-2.5-1.3-2.7-1.8-2.3-6.6.4-4.1 1.2-6 3.6-8.9 1.8-1.9 3.2-3.8 3.2-4.1 0-.3-.9-2.2-2-4.4s-2-5.3-2-7c0-3.1.1-3.2 3.8-2.6 2 .3 6.1.7 9.1.8l5.4.3 1.3-4.5c.8-2.5 1.4-5.7 1.4-7.2 0-3.1 6.4-8.8 9.9-8.8 1.4 0 2.1-.6 2.1-1.8 0-1 .7-2.7 1.5-3.8 1.4-1.8 1.6-1.8 2.9-.2 1.8 2.4 4.6 2.3 4.6-.1 0-1 .8-2.9 1.9-4.2l1.8-2.3.7 2.2c1 2.9 2.4 2.8 3.8-.3.9-2.1 1.6-2.5 3.8-2 2.3.5 2.9.1 4.4-3.2 2.2-4.9 6.7-9.9 9.7-10.8 3.6-1.1 4.9-2.5 4.9-5.1 0-2.3-2.5-3.4-3.2-1.5-.6 1.8-6.8-1.7-6.8-3.8 0-2.7-1.5-3.4-3.9-1.9-2.3 1.4-4 .3-2.3-1.4.7-.7 1.2-1.6 1.2-2 0-1.4-3-.9-3.6.6-.9 2.3-6.4-.3-7-3.4-1.2-5.1-1.6-6-2.7-6-.7-.1-2.4-1.9-3.9-4-2.2-3.2-3.6-4.1-6.8-4.6-2.9-.5-4.6-1.5-6.1-3.5-1.9-2.8-2.3-2.9-7.4-2.3-5.8.7-5.7.8-7-4.9-.5-2.4-.8-2.7-2-1.7-.8.7-1.5 1.1-1.5.9-.9-8.4-.8-12.4.3-13.1.9-.6.3-1.6-2.1-3.6-2.3-1.9-3.2-3.5-3.2-5.6 0-1.6-.9-4.3-1.9-6-2.5-4.1-3.6-10.5-3.2-19.4.3-6.2.1-7.2-1.4-7.2-.9 0-1.3-.5-1-1 .4-.6-.3-2.5-1.4-4.3-1.4-2.3-1.7-3.7-1-5 .6-.9.7-2.3.2-3-.7-1.1-2.1-9.5-2.6-15.7-.1-1.4.4-3.1 1.1-3.8 1.6-1.8 1.5-5.4-.3-7.8-.8-1-1.5-3.3-1.5-5.1 0-3.7-3.6-14-5.7-16.4-.7-.9-1.1-2.3-.8-3.2.4-.8-.1-2.9-1-4.6-1.9-3.8-1.6-3.8 3.5-.6 4 2.5 5.3 4.2 2.5 3.1-1.4-.5-1.3-.1.2 2.4 1.8 3.1 5.3 4.1 5.3 1.6 0-3.8-2.4-6.8-9-11.2-8.1-5.4-10.6-8.1-11.9-13.2-.6-1.9-2.3-5.1-3.9-7.1-2.4-3-3-4.9-3.6-11.4-.9-9.8-1.1-10.3-4.9-11.8-4.6-1.7-9.7-5.2-9.7-6.6 0-.6-2-1.5-4.5-1.9-4.7-.7-7.5-3.2-7.5-6.6 0-1-1.6-2.6-3.9-3.8-2.2-1.1-4.6-2.9-5.3-3.9-1.8-2.5-5.9-4.1-10.7-4.1-2.5 0-4.4-.7-5.6-2-.9-1-3.4-2.5-5.4-3.1-4.7-1.5-6.1-2.7-7.8-6.7-1.5-3.7-3-4.1-4.2-1-.6 1.8-1.1 1.1-3.2-4.6l-2.5-6.7-9.4 7.7z"/></svg>
