<svg version="1.0" xmlns="http://www.w3.org/2000/svg" width="1365.333" height="1365.333" viewBox="0 0 1024 1024"><path d="M622 1c0 .6-1.1 2.2-2.5 3.5-1.8 1.9-3.5 2.5-6.8 2.5h-4.5l2.9 7.4 2.9 7.4-3 7.1c-1.6 3.9-4.1 8.7-5.6 10.6-1.5 2-2.5 3.7-2.3 3.8.2.2 1.9 1.2 3.7 2.3l3.2 2-3.1 4.2c-1.7 2.3-3.3 4.2-3.5 4.2-.2 0-4.9-2.2-10.3-4.9l-9.8-5-12.4-.2c-7.5-.1-13.5.2-15.1.9-2.6 1.1-2.8 1.6-2.8 6.4 0 2.9.7 8.1 1.5 11.6l1.5 6.3-4 7.9-4 7.9-8.4-4-8.5-4.1-2.8 2c-1.5 1.1-4.9 4.2-7.5 6.9-4.6 4.7-5.9 8-11.4 27.3-.2.9-1.9 2.3-3.7 3.3-2.6 1.4-3.7 3-5 6.9l-1.6 5.1 3 4.4c3 4.3 3 4.4 2.3 13.9l-.7 9.5-5.7 5.2c-4.6 4.2-6.4 6.7-8.6 12.2-1.7 4.3-5.3 10.1-9.2 15l-6.3 8 .5 6.3c.7 8.5-.3 10.3-7.7 13.5-5.1 2.2-7.7 2.7-14.3 2.7h-8.1l.8 4.2c3.2 16.9 3.2 17.4 0 33.2-1.7 8.2-3.1 17.4-3.1 20.4 0 3.8-.6 6.2-2 8.2-1.1 1.6-2.3 4.3-2.7 6.1-.3 1.8-6.4 12-13.5 22.6-7 10.6-12.8 19.5-12.8 19.6 0 .2 2.9 2.5 6.5 5.2 7.1 5.4 6.8 4.6 7.9 20.1.7 8.7-1.7 15.5-6.4 17.9-2.9 1.5-3.3 1.4-12.9-3.5-10.6-5.3-12.9-5.6-19.3-2.3-5.2 2.6-13.3 10.7-17.9 17.8-2.6 4-6.3 9.1-8.4 11.4-3.9 4.3-3.9 4.5-2 12.2.4 1.8-.6 4.1-4.4 9.2l-4.9 6.8 3 9.2 3.1 9.2-3.1 5.1c-2.9 4.7-3.1 5.4-2.3 10.4.8 4.8.6 6-1.7 10.8l-2.7 5.3 2.8 10.7 2.7 10.7-2.5 20c-1.3 11-2.5 21.6-2.5 23.6 0 4.7 4.7 11.4 8.7 12.2 2.3.5 3.7 2.1 7.5 9l4.7 8.4-1.4 5.8c-.7 3.2-2 6.2-2.9 6.7-.9.5-2.5 2.6-3.6 4.7-1.9 3.7-2 3.8-8.6 4.4-4 .3-7.2 1.1-8.1 2-1.4 1.4-1.3 1.8.6 4.3 1.1 1.4 2.1 3.8 2.1 5.1 0 3.6 4.9 22.5 6.5 24.9 2.1 3.3.8 11.2-2.7 15.7-2.8 3.6-3 4.3-2.4 9.7l.7 5.9-8.3 8c-8 7.8-8.4 8.1-12.1 7.5-5.7-.9-7.7 1.3-6.4 7.1 1.3 5.6-.5 10.5-3.8 10.5-2.8 0-5.5 3.9-5.5 7.7 0 1.5.7 5.3 1.5 8.3 1.8 6.7 2.1 13.9.8 16.5-.6 1.1-1.3 3.6-1.7 5.5-.3 1.9-1.5 5.3-2.5 7.5-1.1 2.2-2.4 5.2-3 6.7-.6 1.7-1.9 2.9-3.1 3-5.5.4-5.5.4-5.2-2.8.5-4.6-3.5-14.4-5.8-14.4-3.2 0-7.1 4.2-7 7.5.1 1.6.3 10.3.6 19.3.2 9 .8 17.2 1.4 18.2 1.5 2.8 1.2 4-1 4-3.3 0-2.4 3.4 1.3 5.1 2 .9 3.3 2.2 3.5 3.6.2 1.3.7 2.3 1.2 2.3 1.4 0 5 4.2 5 5.8 0 1-.7 1.2-2.4.8-1.8-.4-2.9-.1-4 1.5-1.3 1.9-1.3 2.3.5 4.3 1.8 1.8 4.8 2.7 10.2 2.7.9 0 1.7.4 1.7 1 0 .5-1 .9-2.3.9-1.2 0-3.9 1.1-6 2.5-3.6 2.5-3.7 2.6-2.1 5 1.7 2.7 2.9 3.1 3.9 1.5.3-.6 1.9-1.7 3.5-2.5l2.9-1.5-.6 3.8c-.3 2-1.4 4.7-2.5 5.8-1.7 1.9-1.8 2.5-.7 4.3.8 1.1 2 2.2 2.9 2.4 1 .2.6.8-1.3 1.7-3.8 1.8-3.1 4.4 1.3 5 2.3.3 3.1.8 2.3 1.3-1.8 1.1-1.6 3.2.3 5.1.8.9 1.2 2.1.9 2.7-2.2 3.4-1.3 18.9 1 18.9.7 0 2.3-2.1 3.5-4.8 2.5-5.2 3.7-4.4 2.1 1.3-.7 2.6-.7 4.2.1 5.5.9 1.4.9 2.2-.2 3.5-1.1 1.3-1.1 1.8-.1 2.5.9.5 1 .9.2 1.4-.8.5-.5 1.6.9 3.4 1.3 1.6 1.9 3.4 1.6 4.8-.4 1.5.3 3.2 2.1 5.3 1.5 1.7 2.7 4.3 2.8 5.8 0 2.2.7 3.1 3.2 4.2 3.9 1.7 7.1 7.6 7.5 13.8.2 2.4.8 4.3 1.4 4.3.7 0 1.4 1 1.7 2.1.5 1.7 1.2 2.1 3.7 1.7 2.6-.4 3.1-.1 3.7 2 .9 3.5-1.9 11.6-4.1 12-1 .2-2.2-.2-2.6-.8-.6-1-1.5-1-3.9.1-3.6 1.6-3.9 2.9-1.1 5.4 1.1 1 2 2.4 2 3.2 0 .7.7 1.6 1.5 1.9.8.4 1.5 1.7 1.5 3 0 3.5-3.9 3.2-7.5-.6-3-3.2-6.5-4-6.5-1.5 0 2.1 3 9.6 5.2 12.7 1 1.5 2.7 5.3 3.8 8.4 1.8 5.7 1.8 5.7-.2 7.4-2.6 2.1-1.9 3.4 3.3 6 3.4 1.8 3.9 2.4 3.7 5.2-.3 2.6.2 3.5 2.5 4.6 4.9 2.4 2.5 7.5-4.1 8.8-3.7.8-4.2 3.2-1.2 5.9 2.7 2.5 2.5 4.9-.5 6.3-2.9 1.3-3.3 3.2-.7 3.2.9 0 2.9.6 4.3 1.4 1.4.7 4.3 1.6 6.5 2 2.1.4 5.4 1.6 7.3 2.7l3.4 2 4.5-3.2c3.4-2.5 5.7-3.3 9.1-3.4 2.5-.1 5.6-.5 6.9-.9 1.6-.5 3.5 0 6.7 1.8 5.3 3.2 10.5 3.5 10.5.7 0-1 .7-2.1 1.5-2.4.8-.4 2.4-2.5 3.5-4.8 2.2-4.3 2.1-5.4-1.1-10.9-2.3-3.9-2.7-5.9-1.8-10.3.9-5.1 4.2-10.3 7.1-11.3.9-.3 2.5-1.8 3.5-3.5 2-3.4 3.2-3.6 6.4-1 3.4 2.6 7.4 1.2 6.5-2.4-2-8.1-2.1-7.5 1.5-7.7 1.9 0 4.1 0 4.9.1 5.5.7 9.1.7 9.6 0 .9-1.5 4.4-1 4.4.5 0 2.4 1.9 2.9 4.5 1.2 1.3-.9 3.1-1.3 4-1 .8.4 2.1.2 2.8-.3 3-2.1 11.7.8 11.7 3.9 0 2.3 2.5 2.3 4.9-.1 2.6-2.6 6.7-10.7 8.6-17.1.9-3 2.5-7.5 3.5-10s2.1-5.8 2.5-7.3c.3-1.6 1.5-3.1 2.8-3.6 2.9-1.1 4.2-5.4 5.8-18.6.7-6.3 1.7-10.3 2.5-10.8 1.9-1.1 1.8-7.2-.1-9.1-1.7-1.7-2-4.2-.5-5.1.6-.3 1-1.7 1-3.1 0-1.3.5-2.4 1-2.4.6 0 1-.6 1-1.4 0-.8.8-2.1 1.9-2.8 1-.7 2.4-3.1 3-5.3.7-2.2 1.7-5.4 2.3-7 1.7-5.1 1.5-6-.9-5.8-3.3.4-3-3.5.4-6.3l2.7-2.1-3.7-5c-4.8-6.6-4.8-7.7.2-6.9 3.5.5 3.9.4 4.5-1.8.3-1.4.1-3.7-.6-5.1-.9-2.1-.9-2.8.1-3.5.8-.5 1.2-1.8.9-3.3-.3-1.7 0-2.8 1-3.2.8-.3 1.2-1.1.9-1.9-.3-.7 0-1.9.6-2.5.8-.8.5-1.9-1.1-4-1.5-2.1-1.8-3.1-.9-3.4.8-.3.4-1.2-1.1-3-1.6-1.7-2-2.6-1.1-2.9 2.1-.7.2-3.7-3.4-5.2-1.9-.8-3.8-1.9-4.1-2.5-.9-1.5-.4-1.4 4.5.5 3.5 1.4 4.6 1.5 8 .4 3-1 3.9-1.8 3.9-3.5s-.7-2.4-2.9-2.8c-2.3-.5-2.8-1-2.4-2.6.4-1.6-.2-2.2-2.8-3-3.3-1-3.2-1 1.1-.6 9.5 1 11.6.2 10.4-3.9-.5-1.6-.2-1.8 2-1.2 1.9.5 2.9.1 3.8-1.4.9-1.3 2.4-2 4.5-2 2.6 0 3.4-.5 3.9-2.5.3-1.4 1.2-2.5 2-2.5s1.4-1 1.4-2.6c0-1.4.4-2.3 1-1.9.6.3 1-.1 1-.9 0-.9.6-1.5 1.3-1.4.7.2 1.1-.7 1-2.5-.2-2.9.6-3.4 2.4-1.6.7.7 1.3-.3 1.8-3.7.4-2.7 1.3-5.6 1.9-6.6 1.1-1.6 1.2-1.1.8 3.1-.3 4 .1 6 2.4 10.8l2.8 5.8.6-3.2c1.2-5.5 5.8-12.2 9.9-14.3 2.1-1 4.1-2.6 4.4-3.5.4-.8 1.8-2 3.2-2.7 3.3-1.5 4.1-4.4 1.9-6.9-1.9-2.1-1.3-2.4 1.6-.9 1.6.8 2.6.4 5.4-2.4 3.2-3.3 3.4-3.7 2.3-6.6-1.3-3.6-3.5-4.5-10.2-4.5-5.1 0-7.5-1.7-3.3-2.4 1.3-.1 3.9-2.1 5.9-4.2 2-2.2 4.5-3.9 5.7-3.9 1.3 0 2.2-.6 2.2-1.5s.8-1.9 1.8-2.2c2.3-.9 3.3-2.5 2.6-4.6-.5-1.5-.2-1.6 2.2-.7 3.4 1.3 4.2.6 1.9-2-2-2.2-1-3 3.5-2.7 2.2.2 2.5-.2 2.6-3.3.1-1.9.4-4.3.8-5.2.9-1.9-2.5-5.8-4.9-5.8-.8 0-1.5-.8-1.5-1.8 0-2-2-7.7-3.8-10.8-1-1.9-1.8-2.1-5.7-1.7-4.3.5-4.5.5-4.5-2 0-1.5.8-3.4 1.9-4.4 2.7-2.6 3.7-6.3 1.7-6.3-.9 0-1.8-1.1-2.2-2.5-.3-1.3-1.2-2.9-2-3.6-.8-.6-1.4-2.4-1.4-3.9 0-3.4-2.5-5.9-4.2-4.2-.9.9-.8 2.1.5 4.7.9 2 1.7 4 1.7 4.5 0 1.8-4 1-5.7-1-1-1.1-2.1-2-2.6-2-1.2 0-4.6-4.2-4.7-5.8 0-.6-.7-1.2-1.5-1.2-1.1 0-1.5-1.1-1.5-4 0-3.7-.2-4-2.8-4-1.5 0-4.4 1.1-6.5 2.5-2 1.4-4.2 2.3-4.7 2-.6-.3-1-2.4-1-4.6V633h-5.5c-4.8 0-5.5-.2-5.5-2 0-1.2-.7-2-1.7-2-1.5 0-1.4-.2.3-1.4 2.2-1.7 2.7-6.6.6-6.6-.8 0-1.3-.9-1.1-2.3.1-1.2-.3-3.5-.9-5-1.5-3.6-1.5-3.7.5-5.9 1.5-1.7 1.5-1.8 0-1.8-1.9 0-1.8.2-2.3-6.5-.2-3.4.1-5.4 1.2-6.6 1-1.1 1.3-2.6.8-4.3-.4-1.6-.2-2.6.5-2.6 1.6 0 1.3-3-.4-3.6-2.1-.8-2.7-3.8-1.4-6.8.9-1.9.9-3.2.1-4.9-2.2-4.5-2.4-6.8-.7-9.3 1-1.6 1.4-3.5 1.1-5-.7-2.8-.4-2.8 4-1.2 2.2.8 3.7 2.2 4.3 4 1.7 4.9 3.1 3.7 4.6-3.9.6-2.9.5-3.1-2.3-2.9-2.8.2-2.9 0-2.2-2.6.7-2.2.5-2.8-.9-3.3-1.5-.4-1.7-1.4-1.4-4.8.2-2.3.9-5.4 1.5-6.9.5-1.5.8-3.1.5-3.5-.3-.5.5-3.1 1.8-5.8 1.5-3.1 2.2-5.8 1.8-7.3-.5-2.2-.4-2.3 1.5-1.1 1.7 1.1 2.4 1.1 3.4.1.9-.9.3-1.5-2.6-2.7-2-.9-4-2.3-4.3-3.3-.4-.9-1.3-2.2-2-2.7-1.1-.8-1.2-1.7-.3-4 .6-1.6.9-3.8.6-5-.3-1.1-.1-2.7.4-3.4.7-1.2 1.1-1.2 2.4-.2.9.8 1.6 1.9 1.6 2.7 0 1.6 3.6 3.7 5 2.9.5-.3.7-1.2.3-2-.9-2.4.5-4.9 2-3.6 1.5 1.2 3.7-.3 3.7-2.5 0-.6.9-1.4 2-1.7 2.6-.7 3.8-3.7 1.8-4.8-2-1.1-2-6.7 0-10.1 1.8-3.1 3.2-3.6 3.2-1.3 0 2.1.8 1.9 3.5-1.3 1.3-1.5 2.2-3.4 1.9-4.4-.6-2.1 1.4-3.4 2.2-1.4.7 1.9 2.4 2 4.7.3 1.5-1.1 1.5-1.5.3-3.9-1.3-2.5-1.3-2.7.7-3 1.2-.2 2.2-1 2.2-1.8 0-1.1-1.2-1.5-4-1.6-5.8-.2-6-.3-4.9-1.4.6-.6 2.8-1.1 4.9-1.2 4.6-.2 7.6-2.7 6.8-5.8-.4-1.7.5-3.2 4.2-6.8l4.8-4.6 1.9 2.4c1.8 2.2 1.9 2.2 3.8.5 1.1-1 2.2-2.7 2.6-3.9.3-1.1 1.4-3 2.4-4.1 1-1.1 2-3.3 2.2-4.9.2-2.4.9-3.1 3.7-3.8 3.4-.9 3.5-1.4 1.6-6.1-.4-.9-.3-1.7.3-1.7 1.1 0 6.2 6.4 6.2 7.8 0 .6.9.8 2 .5 1.4-.4 2-1.4 2-3.5 0-3.7 3.5-8.3 6.3-8.3 1.8 0 2.1-.5 1.9-2.9-.3-2.5-.1-2.8 1.8-2.3 2.8.7 5-.1 5-2 0-.8.5-2.4 1.1-3.5 1.1-2 1.2-2 2.7 1.3l1.5 3.4.9-3.8c.6-2 1.6-3.7 2.4-3.7.8 0 1.4-.6 1.4-1.4 0-.8 1-1.6 2.1-1.8 1.6-.2 2.5-1.5 3.5-4.6.7-2.4 1.9-5.1 2.7-6 1.6-1.8 5.7-12.6 5.7-15.1 0-.8 2.9-4.2 6.4-7.5 3.5-3.4 7.5-8.4 9-11.3 2.8-5.6 3.6-9.7 1.4-7.5-1.6 1.6-2.8 1.5-2.8-.3 0-.8-.5-1.5-1-1.5-.6 0-.8-1-.4-2.4.4-1.8.1-2.7-1.4-3.5-1.1-.6-2.2-.8-2.4-.5-.3.2-1.2-.6-2.1-2-1.5-2.2-1.5-2.5 0-3 1.4-.6 1.4-.8-.1-2.4-.9-1-1.6-2.3-1.6-2.8s-.9-1.7-2-2.7c-2.4-2-2.5-3.1-.5-5.1.8-.8 1.5-2.2 1.5-3.1 0-1.1.5-1.5 1.5-1.2 1.1.5 1.3 0 .8-2.3-.5-2.6-.3-3 1.6-3 1.2 0 2-.4 1.7-.9-.8-1.2 3.2-6.1 5-6.1 1.1 0 1.3-.6.8-2.3-.4-1.2-.7-3-.6-4 0-1-1-4.1-2.4-7-1.3-2.9-2.4-6.1-2.4-7.3 0-2.3 3.2-5.8 4.3-4.7.4.3.7.2.7-.4 0-.7 1.5-.9 3.9-.6 6.2.8 10.6-4.1 6.1-6.9-2.9-1.9-2.4-2.8 1.4-2.8 1.9 0 3.8-.5 4.1-1 .3-.6 2.1-1 3.9-1h3.3l-1.1-3.5c-.7-2.2-1.4-3.1-2-2.5-.6.6-1.4 1-1.8 1-1.2 0-1-4.8.2-5.5.6-.3 1-.1 1 .5s.4.9.8.6c.5-.3.9-2.5.9-5 .1-5.6.9-7.1 2.9-5.5.8.6 1.4 1.7 1.4 2.5 0 1.5 3.5 2.8 5.1 1.8.7-.4.9-2.4.6-5-.2-2.4-.2-4.6.1-4.9.9-.9 4.2 2.7 4.2 4.6 0 1 .5 2.1 1 2.4.6.3 1 1.7 1 2.9 0 2.7 2.9 5.9 3.1 3.5.1-.8.1-1.7 0-2.2 0-.4.6-.7 1.4-.7.9 0 1.5.9 1.5 2.2 0 2.3 0 2.3 2-.2 1.1-1.4 2-4 2-5.8 0-2.9.3-3.3 2-2.8 1.1.3 2.9.9 4 1.2 2.8.8 15.7-1.5 19.3-3.3 2.1-1.1 2.7-1.9 2.1-3.1-.4-.9-1.4-3.7-2.3-6.2-.9-2.5-2.2-5.5-2.9-6.7-.7-1.2-1.2-3.1-1.2-4.3 0-1.3-1.2-2.6-3.5-3.7-4-1.9-6.8-6.9-8.2-14.8-.8-4.5-.6-5.6 2-11 2.7-5.5 2.9-6.5 2.4-13.7-.4-4.8-.3-7.8.3-7.8 1.5 0 1.1-3.1-.8-6.6-.9-1.7-2.8-5.1-4.1-7.5-1.3-2.4-2.6-4.6-3-4.9-1.6-1.3-5.1-9.1-5.1-11.4 0-1.9.7-2.9 2.6-3.7 2.6-.9 2.6-1.2 2-6.6-.8-6.9-1.5-7.9-6.7-8.7-3.9-.6-4-.7-3.4-3.9.3-1.7 1.1-4.2 1.8-5.5.9-1.8.8-3-.4-5.5-3.8-7.8-3.9-11-.2-17.9 1.2-2.4 1.2-3.1-.1-5.5-.8-1.5-2.6-3.8-4-5-1.4-1.3-2.6-3.2-2.6-4.3 0-2-.9-2.4-4.1-2.1-1.2.1-1.9-.9-2.4-3.6-1-5.5-3.2-9.2-6.3-10.6-1.5-.6-2.9-1.4-3.2-1.8-1.2-1.5-9.1-4.9-11.5-4.9-1.4 0-2.5-.5-2.5-1 0-.6-1.1-1-2.5-1-3.8 0-8.3-2.6-9.9-5.9-.9-1.6-2.6-3.1-4-3.5-1.4-.3-2.7-1.5-3.1-2.5-.3-1.1-2.1-2.9-4-4s-3.5-2.7-3.5-3.6c0-.8-1.7-2.5-3.8-3.9-2-1.3-4.3-3.1-5.1-4-.8-.9-2.8-1.6-4.8-1.6-3 0-3.4-.3-2.8-1.8 1.6-3.9 1.7-5.3.1-7.7-.9-1.3-1.6-3.3-1.6-4.3 0-1.8-1.8-4.2-3.2-4.2-.4 0-.8.5-.8 1zM597.7 833c-2.1 2.4-3.4 3-6.5 3s-4.1.4-4.5 2c-.3 1.1-1 2-1.6 2-.6 0-1.1-.9-1.1-2 0-2.6-3.4-2.7-5.2-.1-.7 1-2.8 2.6-4.6 3.5-2.4 1.2-4 3.3-6.2 8.2-1.9 4.2-4.5 8-7.2 10.4-4.3 3.8-4.3 3.8-2.9 7.1 2.2 5.4 2.6 13 .7 14.1-2 1.1-2.1 3.4-.2 4.5 1.2.7 2.3 4.4 3 10.3.1 1.4 1 2.6 1.9 2.8 1.8.4 2.4 2.2.6 2.2-.5 0-1.6 1.5-2.4 3.4-.8 1.9-1.9 3.8-2.5 4.1-1.9 1.2.1 2.5 3.9 2.5 4.4 0 6.1-2.5 5.4-7.7-.4-2.2.1-3.7 1.4-5 1.1-1.1 1.8-2.4 1.6-2.9-.5-1.5 7.2-7.4 9.6-7.4 3 0 3.7-2.1 1.1-4-2.1-1.5-2.1-1.8-.5-3.3.9-.9 3.6-2.9 6.1-4.3 2.4-1.4 4.4-3 4.4-3.5s-1.3-1.5-2.8-2.3c-4.2-2.2-5.7-4.3-4.3-6 .7-.8 1.1-2.9 1-4.8-.5-6.5 0-8.8 1.9-8.8 2.1 0 4.2-1.8 4.2-3.7 0-.8 1.6-2.7 3.5-4.4 1.9-1.7 3.5-3.7 3.5-4.5 0-.8 1.1-2.4 2.4-3.5 2.5-2.1 2.5-4.9.1-4.9-.7 0-2.5 1.3-3.8 3zM511.2 880.2c-1.1 2.4-3 7.9-4.2 12.3-2.2 8.2-8.1 20.1-11 22.2-1.5 1.1-2.3 2.7-8.4 16.7-2.7 6.2-3.5 14.3-1.5 16.3.7.7 1 3.8.7 8.2-.4 6.9-.3 7 1.7 5.7 2.9-1.9 5.4-7.5 5.5-12.2 0-3.8 1.4-8.6 5.4-18.9.8-2.2 1.5-4.9 1.6-6.1 0-1.2 1-3.6 2.3-5.5 2.8-4.2 4.4-8.3 5-13.1.3-2.1 1.9-6.6 3.6-10.2 1.7-3.5 3.1-7.5 3.1-8.9 0-1.3.9-3.6 2-4.9 1.9-2.4 1.9-2.6.1-4.2-2.7-2.4-3.6-2-5.9 2.6z"/></svg>
