<svg version="1.0" xmlns="http://www.w3.org/2000/svg" width="1365.333" height="1365.333" viewBox="0 0 1024 1024"><path d="M476.6.9c-2.6.5-3.2 1.4-5.3 8.1-1.3 4.1-2.1 8.7-1.9 10.1.5 2.6.5 2.6-34.1 12.9-38.8 11.7-33.4 11.1-51.8 5.5-9.9-3-14.4-5.7-15.8-9.5-.6-1.6-2-3.1-3.2-3.4-2-.5-25.9 5.4-44.4 10.9-4.6 1.4-9.8 2.5-11.7 2.5-5.1 0-14.5 3.9-18.4 7.6-2 1.9-4.3 3.4-5.3 3.4-.9 0-3.5.7-5.8 1.7-4 1.6-4.1 1.7-3.6 5.4.6 4.8-2.6 15.7-7.6 25.6-4.8 9.5-8.8 13.9-13.3 14.7-2.9.6-3.4 1-2.9 2.7.4 1.2.4 3.6.1 5.4-.5 2.7-1.4 3.6-4.7 4.9-4 1.6-4.1 1.8-3.4 5.2.3 2 .3 6 0 8.9-.7 5.2-.7 5.3-4.9 6.1-3.7.8-4.4 1.5-6.8 6.2-1.9 3.8-2.5 6.2-2.1 8.6.5 3.1.2 3.5-3.3 5.2-4.4 2.1-5.3 4.8-3.4 9.5 1.1 2.4 1 3.3-.2 4.7-4 4.5-8.6 14.9-9.1 20.4-.7 6.9-1.1 7.8-4.2 7.8-1.6 0-2.6.7-3.1 2.2-1.4 4.7-3.3 5.8-9.9 5.8-5.5 0-6.3.3-7.5 2.4-1 1.9-1 3.4 0 7.5.6 2.7.9 5.4.6 5.9-.3.6-2.2 1.3-4.1 1.6-3.1.6-3.5 1.1-3.5 3.6 0 1.9-.7 3.4-2 4.2-1.3.8-1.8 1.9-1.4 3.3.4 1.7-.4 2.5-4.5 4.4-4.5 2.2-5.8 2.3-14.4 1.7l-9.5-.7-4.6 4c-5.3 4.6-5.3 4.6-9.2 2.6-3.4-1.8-5.8-1.9-8.5-.5-1.5.8-1.9 2.1-1.9 5.7 0 3.7-.6 5.3-2.7 7.5l-2.7 2.8 1.8 8.5c.9 4.7 1.5 8.9 1.1 9.4-.3.5-1.8 1.2-3.4 1.6-3.2.7-6.3 5.5-8.1 12.7-.9 3.4-2.3 5.7-4.9 7.9-5.7 4.8-15.7 10.9-17.9 10.9-1.2 0-3.7 2-6.1 4.9-3.7 4.4-4.5 4.9-9.7 5.5-6.6.8-11-1.3-14.2-6.9-2.3-3.8-5.9-6-11.6-7-3.2-.6-4.1-.4-6.4 1.8-1.6 1.4-7.3 4.1-13.7 6.2-6 2.1-12.2 4.4-13.7 5.2-3.9 1.9-4.4 5.3-1.8 11.8 1.9 4.6 2 6 1.1 8.6-1.2 3.5-1.5 10.8-.5 13.3 1 2.6 5.3 1.9 8.5-1.3 2.3-2.4 2.9-3.8 2.9-7.5 0-2.4.5-4.8 1.1-5.2.9-.5 1 1.1.5 5.9-.8 7.4.1 8.8 4.1 6.2 1.7-1.2 3.6-1.5 6.2-1.1 2 .3 4.2.7 4.9.8 2 .2 1.4 1.8-1.1 2.7-1.7.7-2.4.5-3.1-1-1.1-2.3-2.5-2.4-3.2-.4-.9 2.2 9.2 11.1 15.3 13.4 5.9 2.3 7.5 2 11.8-1.9 2.2-2 4.9-3 10.5-4 9.2-1.5 10-1.8 10-3.6 0-.8.7-1.4 1.5-1.4 1.9 0 1.9.9-.1 3.1-1.4 1.6-1.4 1.8.5 2.9 3.1 1.6 13.9.2 17.6-2.3 1.7-1.1 4.5-3.4 6.3-5.1 2.9-2.7 3.2-2.8 3.2-.9 0 1.4-2.1 3.4-6.9 6.6l-7 4.6-9.8-.9c-5.4-.5-10.5-1.1-11.4-1.2-1.9-.3-16.9 13.6-16.9 15.6 0 1.8 3.7 6.4 6.2 7.7 1.7.9 7.4 1.5 21.3 2.1 1.7.1 6.5-.4 10.9-1.1 8.3-1.3 14.3-.8 18.9 1.6 4.6 2.3 2.5 2.4-4.1.2l-6.2-2.1-12.4 2.1c-6.8 1.2-13.7 2.2-15.3 2.2-6.6.2-26.6-2.2-29.9-3.6-2-.8-4.2-1.5-4.9-1.5-2.1 0-15.2 10.9-15.9 13.2-1.6 6.1.6 22.9 4 30 1 2.2 1.4 4.3.9 5.5-.7 1.7-.8 1.7-1.5-.2-.6-1.7-.8-1.5-1.5 1.5-.4 1.9-.8 6.2-.8 9.5 0 6.6 2.8 13.6 6.3 15.5 2.9 1.6 5.6 7.4 7.6 16.8 1.6 7.5 2.2 8.8 6.8 13.8 6.1 6.7 10.3 8.1 17.2 5.7 3.4-1.1 5.5-2.9 8.8-7.2 6.3-8.1 6.8-8.5 11-7.1 4.8 1.6 5.8 3 4.1 6-.8 1.4-2.1 4-3 5.8-1 2.1-4.1 5-8.8 8-14.9 9.9-16.7 11.4-16.7 14.3 0 1.5.4 3.9 1 5.3.5 1.4.6 2.6.3 2.6-.4 0-3.6-3-7.2-6.6-8.9-8.9-15-11.4-28.1-11.4-7.4 0-10.4-.4-13.3-1.9-2-1-3.7-1.7-3.7-1.5 0 .3.9 2.3 2.1 4.5 1.8 3.6 1.9 5.1 1.3 13.3-.5 7.3-.3 9.8.9 12.2 2.5 4.9 9.4 12 16.7 17.4 7.5 5.4 11.5 10.6 12.5 16.3.4 2.1 2.1 5 4.3 7.1 6.4 6.4 9.4 19.4 7.2 31.1-.7 3.6-1 6.9-.6 7.2.3.3 3.2-1.2 6.3-3.4 3.2-2.2 8.6-5.4 11.9-7.1 3.4-1.7 7-4.3 8-5.7 1.1-1.4 3.7-3.2 5.9-4 4.6-1.6 13.3-1.9 16.8-.6 1.8.7 3 .6 4.3-.4 1.1-.8 2.2-1.5 2.7-1.5 1 0 .9 4.4-.3 7.4-.8 2.2 0 3.7 7.7 13.8 4.7 6.2 10.1 12.9 11.9 14.9 1.7 2 3.5 4.7 3.9 6 1.2 3.9 3.6 5.9 7.7 6.5 4.6.8 4.8 1.7.6 2.9-2.7.8-3.4 1.7-4.2 4.9-1.2 5.2.9 17 3.9 22.2 1.3 2.3 2.2 4.4 1.8 4.7-.3.3-.2 2.7.1 5.2l.7 4.5 9.2 4.4c5.1 2.5 11 5.6 13.2 7.1l4 2.5-4-.6c-2.2-.3-5.2-1.4-6.6-2.4-1.5-1-5.5-3.1-8.9-4.5-7.5-3.2-11-2.8-16.5 1.5-2.1 1.7-6 3.8-8.6 4.7-4.1 1.5-4.8 2.1-4.3 3.8 1 3 9.2 11.8 12.8 13.7 3 1.6 7.9 6.5 15.8 16 3.1 3.8 4.9 4.9 12.3 7.4 9.6 3.2 8.9 3.4 12.7-3.5 2.1-3.8 7.5-5.4 13.3-4.1 2.2.5 5.4 1 7 1 3.6 0 6 1.4 5.1 2.9-.5.8-1.6.7-3.6-.4-4.3-2.2-14.2-2-16.4.4-2 2.2-3.9 12.7-2.7 15 1.3 2.4 5.2 5.6 8.8 7.5 1.7.9 4.1 3.3 5.3 5.4 1.7 3.1 3.2 4.2 7.4 5.6 3.6 1.3 6.6 1.6 9.2 1.2 2.3-.4 5.3-.2 6.9.4 7.5 2.9 20.4 6.2 24.6 6.3 4.3.1 5.1-.4 13.4-7.4 4.8-4.1 10.8-8.9 13.3-10.8 4.1-3 7.5-6.5 10.7-10.8.7-1 2-1.2 3.8-.8 3.2.8 3.6 2.5.7 2.5-1.5 0-2.6 1.3-3.9 4.4-1.2 2.6-2.7 4.5-4 4.9-2.1.5-4.5 4.9-5.6 10-.3 1.8-1.7 3.5-3.7 4.5-5.4 3-8.8 6.3-8.8 8.7 0 2.5 4 6.9 8.3 9.2 3.1 1.6 2.7 1.7 9.8-3.8 1.9-1.4 5.2-3.7 7.4-5l4-2.3-1.6 2.4c-.9 1.4-3.6 4-6 5.9-2.4 1.8-4.5 4-4.7 4.8-.2.7 1.2 3.2 3.2 5.3 2 2.2 3.6 4.5 3.6 5.1 0 .6.9 4.2 2.1 8 2.5 8.3 4.8 9.9 13.6 9.9 3.1 0 7.7.7 10.1 1.7 3.4 1.3 5.2 1.4 8.7.6 3.5-.8 4.2-.7 3.8.4-.9 2.2-5.9 4.3-10.4 4.3-4.7 0-15.6 1.8-17.9 3-.8.4-3.1 3.7-5.1 7.4-2 3.7-4.8 7.9-6.3 9.4-3.2 3.4-3.2 5.5-.3 10.7 2.2 3.9 2.4 4 8.1 4.3 3.3.2 7.2-.2 8.8-.9 2.4-1 3.2-.9 4.9.7 1.9 1.7 1.9 1.9.3 2.4-1.9.7.7 2.4 14.5 9.6 9.5 4.9 7.5 5.7-2.7 1-8.4-3.9-16.8-5.6-27.6-5.6-5.8 0-7.6.4-11.2 2.7-2.4 1.6-4.4 3.1-4.4 3.5 0 .9 3.1 1.8 25 6.9 18.5 4.4 48.7 15 86 30.2 10.7 4.3 20.7 8 22.1 8 1.5.1 3.6 1 4.7 2 1 1 7.7 4 14.8 6.8 7.1 2.8 15 6 17.7 7 2.6 1 5.5 1.9 6.5 1.9s4.1 1.1 6.8 2.5 9.2 4.4 14.4 6.6c5.2 2.3 12.7 6.2 16.5 8.8 3.9 2.6 17.6 9.9 30.5 16.1 13.3 6.5 24.7 12.6 26.2 14.2 1.5 1.5 3.4 2.8 4.4 2.8.9 0 3.2 1.3 5.1 3 1.8 1.6 4 3 4.7 3 .7 0 2.1 1.9 3 4.2 1 2.7 3.3 5.7 6.2 8l4.6 3.8 4.2-3c2.2-1.6 5.7-3.3 7.6-3.6l3.5-.7-2.4 2.6c-1.3 1.5-3.4 4.3-4.6 6.4l-2.3 3.7 5.2 2.2c2.8 1.2 8.9 3.8 13.5 5.8 11.3 4.9 15.9 5.5 20.6 2.6 3.2-2 4.1-2.1 8-1.1 6.1 1.5 6.4 1.5 7.6-1.5.7-2.1.6-3.1-.8-4.6-1.6-1.8-1.5-1.9.5-3.4 1.2-.8 2.2-1.9 2.2-2.3 0-.9 4.9-6.5 11.4-13.1 3-3 3.5-4.4 3.7-8.5.1-2.8-.1-6.5-.6-8.3l-.8-3.4 5.3.3c4.8.3 5.4.1 6.2-2.2 1.3-3.2.1-14.4-1.8-18.1l-1.6-3 4.2.7 4.2.7-1.7-3c-1.7-2.7-1.7-3.1-.1-5.3.9-1.3 1.6-3.9 1.7-5.9.1-4.2 2.1-10.2 3.7-10.8.6-.2 1.4 1.3 1.8 3.2.3 2 .9 3.6 1.3 3.6s1.9-2.5 3.4-5.5c2.4-5 3-5.5 6.7-6.1 2.8-.5 4.7-1.5 5.7-3 .9-1.4 3.2-2.8 5.7-3.4 9.6-2.5 14.7-5.2 18.2-9.8 1.9-2.5 3.4-4.9 3.4-5.4 0-.6 2-3.3 4.5-6.1 2.5-2.9 4.5-6.2 4.5-7.4 0-2.1 3.6-5.7 6.8-6.8 1-.2 2.8-2.4 4.1-4.8 1.7-3.1 3.9-5.2 7.5-7.2 2.8-1.5 7.8-5.4 11.1-8.6 3.3-3.2 8.1-6.7 10.7-7.9 2.6-1.1 5-2.9 5.3-4.1.4-1.1 5.4-5.5 11.2-9.9 8.7-6.5 11-7.8 13.2-7.4 2.1.4 3.7-.2 7.2-3 2.4-2 8.5-6.3 13.4-9.7 10.9-7.4 13-9.3 15.8-14.1 1.5-2.8 2.5-3.7 3.9-3.2 1 .3 3.1-.3 4.8-1.3 2.2-1.3 3-2.5 3-4.6 0-6 2.4-11 7.7-16.3 2.9-2.9 6.3-5.4 7.5-5.6 1.7-.2 3.4-2.6 6.8-9 4.5-8.5 8-12.2 14-14.8 1.4-.6 3.4-2 4.6-3.1 1.2-1.1 4.9-2.5 8.2-3.1 10.2-1.9 9.6.9 10.2-49.8l.5-43.4 6.3-1.9c4.6-1.4 6.2-2.3 6.2-3.7 0-1 1.7-4 3.8-6.7 2.1-2.6 5.7-8.3 8-12.5 4.3-7.6 4.3-7.7 10.8-9.8 5.9-2 7.7-2.1 18.8-1.5 11.9.7 12.5.6 15.5-1.6s3.2-2.2 6.8-.5c2.9 1.4 3.8 1.5 4.2.5.7-2.1 8.2-9.8 13.1-13.4 6.1-4.4 6.9-7.3 3.7-12.8-1.6-2.8-2.6-6.5-3-11-.6-6.1-.4-7.4 1.8-11.5 1.4-2.6 2.5-5.7 2.5-6.8 0-1.2.9-4.1 2-6.5 1.1-2.4 2-5.9 2-7.7 0-1.8 1.2-5.1 2.7-7.5 2.4-3.8 2.7-5.3 3.1-16.9l.5-12.6 3.8-1.8c2.2-.9 3.9-2 3.9-2.4 0-1.3-13-6.2-19.5-7.5-5.3-1-6.5-.9-10.3.7-2.4 1-5.9 1.8-7.8 1.8-6 0-10 3.7-15 13.9-4.9 10-5.1 10.3-17.6 20.3-4.8 3.9-10.7 9.6-13.1 12.8-6.1 8.2-15.2 15.6-20.4 16.4-4.1.7-4.2.7-6.8-3.8l-2.7-4.6h-8.3c-7.9 0-8.4-.1-10.4-2.7l-2-2.8-3.9 8.5c-5.5 11.7-11.2 17.6-11.2 11.5 0-1.3-.5-3.5-1.1-4.8-.9-2-.6-3.2 2-7.4 1.9-3 3.1-6.4 3.1-8.4 0-4.9 2.1-7.3 9.4-10.7l6.4-3v-5.1c0-6 2.8-18.2 5.3-23.3 1.1-2.1 1.9-5.3 1.9-7.1 0-2.3 1-4.7 3.1-7.3 5.5-6.8 11.9-17.2 11.9-19.3 0-1.5.6-2.1 2.3-2.1 1.2 0 3.9-1.1 5.9-2.5 2.5-1.7 5.1-2.5 8-2.5 3.8 0 5.1-.7 10.8-5.6 7.3-6.2 7.8-7.1 7.9-13.4.1-6.5-1.3-10.7-4.7-13.5-3.4-2.8-5.6-9.8-4.1-12.6 1.3-2.6 1.2-2.9-1.7-2.9-2.2 0-3.1-1.1-7-9.4-3.7-7.9-4.8-9.4-7.2-9.9-2.7-.6-2.8-.7-4.5-13.3-1-7.5-2.8-15.6-4.4-19.8-2.3-6.2-2.7-8.9-3.1-20.8-.3-13.1-.2-13.9 2.3-18.8l2.6-5-9.3-6c-7.7-5-10-6-13.6-6-2.3 0-5.3-.7-6.5-1.5-1.8-1.2-3.8-1.3-11.2-.5-12.3 1.3-13.3 1.3-13.9-.8-.3-.9.8-6.7 2.4-12.7 3.6-13.1 3.7-15.5 1-16.2-1.1-.3-2-1.1-2-1.8 0-2.3 3-3.8 7.8-4 3.6-.1 5.8-.9 9.5-3.5 5.6-4 5.9-5.9 2-13l-2.8-5 2.3-3.9c3.3-5.9 2.9-9.3-1.5-14.2-2.1-2.3-5.5-5.3-7.6-6.6-2-1.3-5.3-4.6-7.3-7.3-2-2.8-4.2-5-5-5-.7 0-2-1.4-2.9-3-1.8-3.6-2.2-3.6-5.1-.9-2.1 2-2.4 2-5.3.4-1.7-.8-5-1.6-7.4-1.7h-4.2l.3-5.3.4-5.2-6.4-4.6c-10.1-7.5-12.4-9.7-9.8-9.7.6 0 2.1-.7 3.4-1.5 2.2-1.4 2.3-1.9 1.2-4.6-1-2.7-.8-3.7 1.7-8.1 1.6-2.8 2.7-5.1 2.5-5.3-.2-.1-3.2-1.7-6.8-3.5-3.6-1.8-6.7-3.4-6.9-3.6-.2-.2.2-1.7.9-3.3 1.1-2.8.9-3.3-2.4-7.7-2-2.6-3.6-5.3-3.6-6 0-.8-1.7-2.5-3.8-3.8-3.5-2.2-4-3.1-5.1-8.8-.7-3.4-1.5-6.9-1.7-7.6-.2-.8-2.5-1.2-6.8-1.2-5.7 0-6.5-.3-8-2.5-.9-1.3-1.6-4.4-1.6-6.8 0-4.3-4.3-18.6-7.3-24.2-.9-1.7-4.5-5.6-8.1-8.8-3.6-3.2-6.6-6.4-6.6-7.1 0-1.9-11.7-12.8-17.1-15.9-2.5-1.5-6.8-3-9.5-3.3-5.2-.7-9.2-2.4-11.7-4.8-.9-1-1.7-4.8-2.2-10.8-1.1-14-6.3-22.8-13.6-22.8-3.5 0-3.7-.2-4.3-3.8l-.6-3.9-39.7-.6C607.6-.1 480.6 0 476.6.9z"/><path d="M261.2 762.3c-2.3 2.4-2.9 5.7-1.2 5.7 2.4 0 6-3.4 6-5.6 0-3-2-3.1-4.8-.1zM92 781.5c-1.9 1.9-4.2 3.5-5.2 3.5-4 0-.2 4.4 4.5 5.2 3.1.6 3.3.1 1.2-2.6-2-2.7-1.9-3.3.8-4.2 2.9-.8 5.8-3.4 5.1-4.5-1-1.7-3-.9-6.4 2.6zM254 780.4c0 .3 1 2.6 2.2 5.1 2.3 4.6 3.5 5.3 6.8 3.5 2.3-1.2 1.6-4-1-4-1 0-3.2-1.2-4.9-2.6-1.7-1.4-3.1-2.3-3.1-2zM208.5 785.2c-1.6.6-3.9 1.8-5 2.8-3 2.5-5.6 3.2-7.3 1.8-2.1-1.8-21.7-2.4-23.7-.8-1.4 1.1-1.4 1.5.1 3.1 2.3 2.5 1 3.7-1.5 1.5-1.4-1.3-2.1-1.4-2.7-.5-.5.9-1 .7-2-.6-1.1-1.4-2-1.6-5.1-.9-2.1.4-6.5.7-9.9.5-4.5-.2-6.3.1-7.3 1.3-.8.9-2 1.6-2.7 1.6-.8 0-3 1-4.9 2.2-3.8 2.5-4.7 5.8-1.6 5.8 1 0 2.2.7 2.5 1.6.9 2.2.8 2.6-.5 1.9-.6-.4-3.9-.9-7.4-1.1-4.6-.2-6.7.1-7.5 1.1-1.6 1.9-.3 4 1.5 2.5 1.6-1.4 9.3.7 14.5 3.9 2.2 1.3 5.2 2.1 8.1 2.1 2.9 0 5.1.6 5.9 1.5.9 1.1 3.5 1.5 10.6 1.5 8.9 0 9.5.1 12.7 3 2.6 2.3 4.4 3 7.5 3 2.3 0 4.5.6 5.2 1.5.9 1.1 2.3 1.3 5.1.9 5.1-.8 8.2.1 12.1 3.5 3.9 3.3 8.7 5.1 13.8 5.1 2.3 0 4.8.9 7 2.5 1.9 1.4 4.1 2.5 5.1 2.5.9 0 2.2.7 2.9 1.5.7.8 2.3 1.5 3.7 1.5 1.7 0 4.2 1.8 7.9 5.7 5.9 6.2 5.9 6.1 4.2 16.7-.5 2.9 2.2 4 6.9 2.7 4.9-1.3 5.3-2.3 5.3-14.8v-9.2l5-6.2c4.4-5.5 5-6.8 5-10.9 0-3.7-.5-5.1-2.5-7-2.8-2.6-3.5-6.6-1-5.6 1.8.7 3.5-2.3 3.5-6.2 0-2.8-1.4-4.6-5.5-6.8-1.1-.6-4.2-2.3-6.8-3.7-5.5-3.1-7.4-3.3-12.2-1.2-4.3 1.7-5.3 4-3 6.5 2.1 2.3 1.5 3.5-1.3 2.6-3.9-1.3-4.3-8.7-.6-10.6 6.2-3.4 4.7-6.7-4.4-9.4-5.3-1.5-14.7-1.2-15.8.5-.9 1.5-5.4 1-6-.6-.7-1.7-3.5-1.8-7.9-.3zM269 793.5c0 1.4 6.7 5.5 9 5.5 2.2 0 .8-2.6-2.6-4.8-4.1-2.6-6.4-2.8-6.4-.7zM111 802c0 .5.5 1.2 1 1.5.6.3 1 1 1 1.6 0 1.5-1.9 1-3.9-1-1.8-1.8-3.1-1.8-3.1 0 0 1.2 6.6 4.9 8.8 4.9 1.3 0 2.2-.9 2.6-2.6.4-1.5.6-2.7.4-2.9-1.3-1-6.8-2.2-6.8-1.5zM273 820c0 1 .9 2.4 2 3 2.3 1.2 2.7.1 1-3.1-1.4-2.5-3-2.4-3 .1zM279.7 819.9c-.7 2.9 2.7 5.8 4.8 4.1.8-.7 1.5-2.3 1.5-3.6 0-2-.5-2.4-2.9-2.4-2 0-3 .6-3.4 1.9z"/></svg>
