<svg version="1.0" xmlns="http://www.w3.org/2000/svg" width="1365.333" height="1365.333" viewBox="0 0 1024 1024"><path d="M68.4 37.7c-3.2.6-13.8 10.5-20.6 19C34.1 74.1 21 89 11.3 98.5S1.1 108.8.5 113.6c-.7 4.9-.5 5.4 4.7 13.5 3.2 4.9 6.9 12.7 9.1 18.8 3.5 9.7 3.8 11.5 4.7 27.5 1.4 24 1.9 28.3 4.6 34.7 1.2 3 3.4 9.6 4.8 14.6 1.4 4.9 4.2 13.6 6.2 19.2l3.7 10.3 11.6 10.2c11.2 9.8 12.1 10.3 26 16.1l14.4 6 8.1 8.8c10.2 11.1 30.5 27.2 50.6 40 12.1 7.7 17.7 12 25.5 19.8l10 9.9h19.7c34.3 0 51 3.7 99.3 21.7 20.5 7.7 24 9.3 31.8 15 4.9 3.5 13.1 8.5 18.3 11.1 7.4 3.6 9.6 5.2 10.6 7.7.7 1.6 1.2 3.2 1.2 3.5-.1.3-.4 1.7-.8 3.1-.4 2 .5 4.1 4.1 9.5 2.7 4 5 8.8 5.5 11.4.7 3.7 1.8 5.3 6.3 9.3 3 2.6 5.2 5.3 5 6-.2.7-.6 3.3-.9 5.9l-.6 4.8 5.5 4 5.4 4-1.5 3.6-1.6 3.7 6.3 6.3c5.7 5.7 7.2 6.6 15.3 9.4 6.7 2.2 14.7 6.4 30.6 16 29.7 17.9 43.4 22.6 71.9 24.7l8.8.6 9.9-7.7c16.2-12.4 32.5-33.4 40.7-52.5l5-11.6-.6-13c-.3-7.1-1.5-17.4-2.6-22.7-1.9-8.9-2.5-10.4-7.2-16.4l-5.2-6.5.7-7.6c.4-5.6 1.3-8.8 3.3-12.2 5.3-9.1 20.8-31.8 32.4-47.3 6.6-8.7 11.9-16.7 11.9-17.6 0-2.4 5.2-13.1 9.4-19.4 3.1-4.5 4.5-5.6 10.3-8 3.8-1.5 7.8-2.8 9.1-2.8 1.8 0 2.7-.9 3.9-3.9 1.8-4.5 2.4-4.9 10.1-5.7 3.2-.3 8.9-1.6 12.7-2.9 3.9-1.2 10.2-2.8 14.2-3.5 5.5-.9 8.3-2 11.5-4.4 2.4-1.8 6.8-4 9.8-4.9 5.6-1.7 10.6-4.9 19.8-12.5l5.2-4.4v-7.5c0-9.1-1.2-11.4-8.5-16.6-4.6-3.2-5.7-4.6-7.6-9.8-2.1-5.6-2.8-6.4-9.5-10.9-5.9-4.1-7.9-6.1-11.1-11.7-3.6-6.3-4.1-6.8-8.3-7.6-2.5-.5-11-2.3-19-4.2-8-1.9-18-3.9-22.3-4.5-5.7-.9-11.9-2.9-23-7.7l-15.2-6.6-13.3.1h-13.3l-7 4.3c-6.3 3.8-8.5 4.5-22.6 7-8.6 1.6-19.3 3.3-23.7 3.9-7.1.9-8.8 1.6-15.1 5.7-4 2.7-9.8 7.7-12.9 11.3-6 6.7-8.2 7.8-16.3 7.9-2.7.1-3.3-.3-3.3-2 0-1.5-.5-1.9-1.5-1.5-.9.3-10.8 3.5-22.1 7.1L433 220h-34.1l-17.7-6.4c-25-9.1-24-8.6-27.1-14.1-2.6-4.8-2.7-4.9-17.1-10.6-12.5-5-15.4-5.8-21.3-5.9-8.5 0-14.2-2.7-23-10.9-8.2-7.8-26.3-17.6-35.9-19.6-3.8-.8-10-1.5-13.7-1.5h-6.7l-2.8 5.7-2.8 5.8-1.4-2.8c-1.7-3.1-2.6-3.3-4.4-1.2-2.5 3-13.5 7.3-20.5 8-6.6.7-7.3 1-12 5.5-4.3 4.2-5.8 4.9-10.5 5.5-3 .4-7.1 1.8-9.2 3.1-2.9 1.9-5.1 2.4-10 2.4-5.6 0-6.8-.4-10.9-3.4-3.2-2.4-4.8-4.4-5.2-6.5l-.6-3.1h-8.3c-4.6-.1-15.5-.7-24.3-1.4-15.2-1.3-16.4-1.6-24.1-5.2-6.6-3.2-9.2-5.2-14-10.6-3.3-3.7-9.1-9.2-12.9-12.1-8.4-6.6-14-15.6-14.9-24-.3-2.8-1-9.7-1.6-15.2-1.1-9.8-1-10.2 1.8-18.5l2.8-8.5 9.7-7.5c7.1-5.5 11.1-9.5 14.8-14.8l5.1-7.4-3-3.6c-2.9-3.6-4.7-4.4-8.8-3.5zM984.3 565.7c-3.9 1.1-7.3 3.4-14 9.2-14.2 12.4-16.3 15.7-22.6 36.1-3.1 9.6-5.8 20.6-6.2 24.5-.7 6.6-1.1 7.5-7 15.5-8.5 11.6-9.2 12.8-9.9 18-.7 4.1-1.3 5-8.3 10.5-4.1 3.3-13.4 12.2-20.6 19.8l-13.1 13.8-4.7 13.2c-2.6 7.3-7.2 20.3-10.3 29-3.8 10.7-5.6 17.4-5.6 20.6 0 2.7-1.2 8.1-3 12.8-2.9 8-2.9 8.4-2 18.5.9 10.5 3.1 20.4 9.4 43.3 5.2 19 6 20.2 17.6 26.3 5.3 2.9 10.3 6 11.2 6.9 4.2 5.1 13.7 21.4 15 25.8l1.4 5 5.7-.3 5.7-.4 7.2 6.4c4 3.5 9.6 8.2 12.3 10.5 2.8 2.2 11.3 11.6 19 20.8 13.9 16.5 14.1 16.7 23 21.2 5.6 2.8 11 6.4 14.3 9.6l5.2 5.1 3.2-3.9c1.8-2.2 5.4-6.3 8-9.1 4.7-5 4.8-5.2 5.4-13 .3-4.3 1.2-10.9 2-14.6 1.9-9.3 1.8-17.4-.6-24.2-4.5-13.2-5-19.7-4-47.9.6-14.4 1.2-27.4 1.5-28.9.2-1.5-2-12.6-5.1-24.7l-5.5-22 2.5-8.3c1.6-5.3 2.9-13.4 3.7-22.3l1.3-14-3.2-8.8c-2.6-7.3-3.2-10.3-3.2-17.2 0-7.5-.3-9-2.9-13.3l-2.8-4.8 3-7.5 2.9-7.4-1.6-10.5c-.9-5.8-1.6-12.7-1.6-15.3 0-3.3-.9-6.5-2.9-10.5-6.8-13.4-11.1-25.3-11.1-30.6 0-4.2-.5-5.8-2.8-8.6-2.6-3-2.8-3.8-2-7.2.4-2.2 2.3-6.4 4.1-9.6 3-5.4 3.2-6.2 3.1-15.2-.1-7.5-.7-10.9-2.6-16.3-1.4-3.7-2.7-6.9-2.9-7.1-.2-.2-2.7.3-5.6 1.1z"/></svg>
