<svg version="1.0" xmlns="http://www.w3.org/2000/svg" width="1365.333" height="1365.333" viewBox="0 0 1024 1024"><path d="m779 41.5-43.5 41.4-30.5-.6-30.5-.6-14.7-11.4c-8-6.2-15.1-11.3-15.7-11.3-.5 0-5.6 3.3-11.3 7.4-10.1 7.2-10.6 7.5-26.3 11.9l-16 4.5-29.4.7-29.4.7L513 95.8l-18.7 11.7-.7 8.4c-.3 4.7-.7 8.6-.9 8.7-.1.1-3.9-.2-8.5-.8l-8.2-1.1-3.1-5.3-3-5.3-9.3.6c-11 .7-10.8.8-12.7-10.6-.9-5.4-1.8-7.7-3.4-9-1.3-.9-3.9-4.2-5.8-7.2s-6.2-8.1-9.5-11.3l-6.1-5.9-5.2 4.7c-5.9 5.3-9.1 9.3-10.9 13.6-1.2 3-1.9 3.1-21.9 5.6-3.9.5-6.3 1.5-8.7 3.7l-3.4 2.9-8.3-4.3c-4.5-2.3-14.5-7.6-22.1-11.6l-14-7.4-11.2-.6-11.2-.6-6 4.7c-3.3 2.6-7.7 5.2-9.8 5.8-2.2.5-6 2.5-8.5 4.4-2.8 2-5.8 3.4-7.6 3.4-3.4 0-7.3 3.6-7.3 6.8 0 1.4-1.3 2.8-4 4.3-4.7 2.7-10.2 10.6-12.4 17.9-.9 3-1.6 5.7-1.6 6.1 0 1.3 6.4-1.2 7.8-3 1.2-1.5 1.4-1.4 2.5.4.7 1.1 1.7 5.1 2.2 9 1 6.9 1 7.1-2.4 13.5-3.6 6.8-7.6 12.5-12.2 17.5-2 2.1-3.8 6.5-6.2 14.5-1.9 6.3-4.6 14.6-6 18.5-4.3 12.1-4.3 12.2.2 16.3 13.7 12.8 13.6 12.7 14.9 18.1 2.6 11.5.5 22.4-5.1 26-2.5 1.6-3.4 3.1-4.8 8.8-.9 3.7-3.3 10.6-5.3 15.3-2.5 6.1-3.6 10-3.6 13.8 0 4.2-.6 6-3 9.4-2.3 3.2-3 5.1-2.8 7.8l.3 3.5 9 1.2c5 .6 9.1 1.2 9.1 1.2.1.1.5 1.8.8 3.8.4 2.1 1.5 5.7 2.4 8.1 1.4 3.4 2.4 4.4 5.2 5.2 1.9.5 4 1 4.6 1 1.2 0 4.3-4 6.8-8.8 2.8-5.4 6.5-4.5 17.4 4.1 5.3 4.2 6.2 5.4 5.8 7.3-.5 1.9.1 2.7 4 5 4.4 2.6 4.8 2.7 10.9 1.6 9.6-1.8 9.2-2 11.5 6 1.3 4.1 3.1 7.9 4.3 8.9 2 1.6 8.9 3.9 11.6 3.9.6 0 3.1-2.8 5.6-6.2 4.2-5.9 4.5-6 5.3-3.7.5 1.3 1.9 5 3.1 8.2 1.2 3.2 2.3 8.5 2.4 11.8.2 4.3.9 6.7 2.6 9 2.3 3.1 2.3 3.2.6 8.8-1.5 5-1.5 6.7-.5 13.5l1.2 7.8-7 10.7c-3.9 6.2-7.2 12.5-7.6 14.7-1 5.4-4.6 10.6-10.8 15.5-2.9 2.2-6.9 6-9 8.4-6.8 7.7-9.4 8.8-21.8 8.7h-10.9l-1.5 3.9c-1.3 3.1-2.7 4.4-7.5 6.8-3.6 1.9-7.1 4.6-9.2 7.3-1.8 2.4-5.8 7.2-8.9 10.8-3.1 3.6-7.1 9-8.8 12-1.7 3-7.4 9.8-12.7 15-7.5 7.5-9.5 10.1-9.5 12.3 0 4-4.4 12.1-7.7 14.2-1.5 1-6 4.9-9.9 8.7l-7.1 6.8-6.8-.9c-3.7-.5-6.9-1.2-7.2-1.5-.3-.3 0-2.6.6-5.1 1-3.8.9-5-.4-6.8-.8-1.2-1.5-3.7-1.6-5.7 0-1.9-.4-4.4-.8-5.5-.6-1.4-.2-2.8 1-4.7l1.9-2.6-3.9-.7c-2.9-.5-4.9-.1-7.8 1.3-2.1 1-5.8 2.2-8.3 2.5-2.5.4-6.2 1.1-8.3 1.7-3.2 1-3.7 1.5-3.7 4.1 0 2.9 0 3-3 1.4-4-2.1-4.5-2-8.9 2.1-6.3 5.6-9.9 12.1-11.6 21-2.8 13.6-4 16.5-9.3 21.1-2.8 2.3-6.8 4.6-9.3 5.3-2.4.6-9.2 3.7-15.1 6.8-10.4 5.5-10.7 5.7-11.8 10.1-.7 2.7-.8 7.4-.4 12.2.6 6.7.4 8.2-1.4 11.1-1.8 3-1.9 4.1-1 11.3.5 4.4 1.6 8.7 2.4 9.6.9 1 1.4 3.8 1.4 7.7v6.1l-8.3 9.4c-8.1 9.3-8.3 9.6-11.5 20.5-2.4 8.5-3.2 12.9-3.2 19.2v8.1l-5.5-.6-5.5-.7v3c0 2.3-.6 3.2-2.9 4.2-2.1.8-3.6 2.7-5.1 6.3-2.1 4.9-2.2 5.3-.6 10.2 1.4 4.5 1.4 5.6.1 10.5-2.1 7.9-2 8.7 2 10 1.9.6 5 2.9 6.9 5.2 1.9 2.2 5.2 5.5 7.4 7.4 3.9 3.3 4.1 3.4 7.6 1.9 1.9-.8 4.8-1.5 6.2-1.5h2.7l-2 2.2c-1.6 1.8-2.2 4.1-2.6 9.8-1 14.5-8 30-13.6 30-1.6 0-5.1 1.7-8.4 4-3 2.2-6.4 4-7.5 4-3 0-10.5 8.6-9.9 11.3.3 1.2.9 5.4 1.2 9.2.7 6.8.6 7.1-1.6 8.1-1.7.8-2.4 2-2.5 4 0 1.6-.9 5.6-1.8 8.9-1 3.3-2.1 12.1-2.6 19.5l-.8 13.5 2.9 4.2c1.6 2.3 2.9 4.4 2.9 4.7 0 .3-2.7.6-6 .6h-5.9l-1 3.7c-.6 2.1-1.1 5.4-1.2 7.3 0 1.9-.8 6-1.8 9-1.7 5.3-1.7 5.6.2 10 1.4 3.2 2 7.1 2.1 13.5.2 7.5.6 9.7 2.6 12.9 2 3.3 2.2 4.4 1.4 7.5-.6 2.1-.7 5-.2 6.7.5 1.6 1.2 6 1.7 9.8.5 3.8 1.5 7.2 2.2 7.7.7.4 3.2 1 5.7 1.4 3.8.6 4.8.3 7.1-1.7 5.8-5.3 7.7-6 13.8-4.8 7.3 1.3 6.8 1.4 8.1-1.5.9-1.9 1.9-2.5 4.4-2.5 4.2 0 9.2 5.7 10.1 11.4.8 4.9 5.7 13 8.1 13.4 1 .2 5.4-1.5 9.7-3.7 5.5-2.9 8.6-4 10.2-3.6 1.9.5 2.8 0 4.2-2.2 2.7-4.2 7.7-8.2 10.3-8.3 3.9 0 7.9-2.8 9.1-6.2 2.9-8.3 4.6-10.7 8.1-11.9 1.9-.6 4.7-2.7 6.3-4.5 1.5-1.8 3.6-3.6 4.7-3.9 1.1-.3 4.2-4.3 6.9-8.8 3.7-6.2 5.1-9.6 5.6-13.9l.7-5.7h12.1c10 .1 12.8.4 16 2.1l3.9 1.9 2.2-2c2.7-2.5 6.9-2.7 14.6-.6 3 .8 5.5 1.5 5.5 1.5.1 0 1.8-2.3 3.9-5 3.2-4.2 4.7-5.3 9.5-6.6 3.1-.9 6-2.3 6.4-3 1.1-1.8 5.9-1.8 10.4.1 3.1 1.3 15.5 1.5 90.9 1.5 95.2 0 89.4.4 86.2-5.3-.8-1.4-1.1-5.2-.9-10.5.4-10.2-.9-12.2-7.4-12.2-4.5 0-5.5-1-5.5-5.5 0-3.8 4.6-12.8 8.5-16.5 2-1.9 4.2-4.9 5-6.6.7-1.8 2.5-3.6 4.4-4.3 3.8-1.6 3.8-2 .5-4.6-2.5-2-2.5-2-1.3-9.3.7-3.9 1.7-7.2 2.3-7.2.6 0 2.6-2.8 4.5-6.3 5.2-9.3 8.1-12.7 11.3-12.7 2.4 0 6.8-3.3 6.8-5 0-1.2 10.9-15.2 12.9-16.6 1.6-1.2 2.1-1.1 3.1.1.7.8 1.6 1.5 2.1 1.5 1.4 0 1.1-2.4-1.2-7.8-1.6-3.8-2.9-5.3-5-6.1-2.4-.8-2.9-1.6-2.9-4.1 0-4.9-1.6-7-5.4-7h-3.3l.5-5.8c.3-4.4 1-6.3 3-8.5 2.5-2.6 3-2.7 12.5-2.7h9.9l-1.4-2.2c-.9-1.4-2.8-2.4-4.6-2.6-2.6-.3-5-2.7-3.9-3.9.3-.2 3-1.1 6.1-2 5.5-1.5 5.7-1.5 7.9.4 3 2.8 9.4 5.9 13.7 6.7 3.2.5 3.7.3 4.7-2.1.7-1.6 1.8-3.6 2.5-4.5 1-1.4.8-2.1-1.2-4.3-3.6-3.9 0-3.3 5.5 1 4 3 4.9 3.3 7 2.3 3.5-1.6 3.5-7.1 0-9.4-1.4-.9-2.5-2.2-2.5-3 0-1 1.7-.7 6.8 1.2 8.1 3.1 9.2 3.9 9.2 7s1.5 3.1 3.6 0c1-1.6 1.6-4.6 1.5-8.6 0-6 .1-6.2 3.4-7.6 1.8-.7 3.6-2.3 4-3.4.4-1.4 1.5-2 3.6-2 1.6 0 2.9.4 2.9.9s-1.5 3.2-3.4 6c-2.7 4-3.1 5.2-2.1 6.1 1.8 1.5 6.2.2 6.8-2 .5-1.8 6.4-3.4 7.3-1.9.7 1.2 12.3.9 13-.3.4-.6-.5-2.2-2-3.5-2-1.7-2.6-2.9-2.1-4.4.4-1.2 1.2-1.8 2.1-1.5.8.3 2.1.9 3 1.2 1.2.5 1.4.1.8-2-.4-1.9-.2-2.7 1-3.2 1.3-.5 1.2-.9-1-2.6-3.6-2.9-3.1-7.8 1.1-9.1 1.7-.5 3.8-1.6 4.7-2.4.9-.9 3.8-1.8 6.3-2 4-.5 4.5-.3 4.5 1.4 0 1.2-.7 2.6-1.6 3.3-.8.8-1.4 2.5-1.2 3.9.4 3.8 4 3.9 9.1.1l4.2-3.1 1.7 2.2c1.7 2 1.7 2.2-.5 3.9-1.3 1-4.1 2.1-6.3 2.5-7.2 1.2-7.4 1.4-7.4 5.2v3.6l6.3-.7c3.4-.4 7-1.5 8-2.3 1.4-1.4 2.3-1.4 5.4-.5 2 .6 3.7 1 3.7.9.6-2.2 3.4-4.7 8.4-7.2 3.3-1.7 6.8-3.7 7.6-4.4 1.3-1.1 1.7-.6 2.6 3 1 3.8 1 4.4-.6 5.6-1.7 1.3-1.7 1.5-.1 4.2.9 1.6 1.7 3.6 1.7 4.5 0 1.9 2.2 1.6 11.8-2 7-2.6 12.4-6.2 19.5-12.7 5.3-5.1 5.8-6.9 2.2-9.3-3.3-2.1-1.7-4.4 3.1-4.4 2.7 0 3.4.4 3.4 2 0 1.1.4 2 .9 2 2 0 4.1-1.3 4.1-2.5 0-.7 1-1.9 2.2-2.7 2-1.3 2.1-1.8.9-4.4-1.2-3.2-.1-8.4 1.8-8.4 1.2 0 17.9-9.8 18.5-10.9.3-.5-1.2-2.1-3.3-3.5l-3.8-2.7 1.8-3.7c1.1-2 1.9-4.2 1.9-4.9 0-1.8.7-1.7 5.7 1.3 3.9 2.2 4.8 2.4 7.6 1.4 1.7-.6 4.4-2.4 6-4.1 2.2-2.5 3-2.9 4.2-1.9 1.2 1 1.1 1.7-1 4.4-1.5 1.9-2.5 4.6-2.5 6.5 0 2.6-.3 3.1-1.7 2.7-6.9-2-7.1-2-7.8 1.7-1 5.2-.1 6 5.8 5.4 4.9-.6 4.9-.6 3.2 1.3-4 4.4 5 7.1 10.2 3 3.3-2.5 5.9-2.5 7.5 0 .8 1.2 2.4 2 4 2 2.3 0 2.8.4 2.8 2.5 0 1.4.6 2.8 1.4 3.1.8.3 1.2 1.2.9 2-.6 1.6-4.4 1.9-5.9.4-.6-.6-2.5-.5-5.2.2-3.4.8-4 1.3-3.1 2.4.9 1.1.7 2-.6 4-1 1.5-1.3 3-.8 3.5 1.5 1.5 13.6 5.9 16.2 5.9 1.4 0 3.9.7 5.5 1.5 2.8 1.5 3.1 1.4 5.6-1 1.4-1.4 3.3-2.5 4.2-2.5 1.7 0 3.3-3.5 4.3-9.5.3-2.2 1.1-5.5 1.8-7.3 1-2.9 1.4-3.2 4.3-2.6 2.1.4 4.7-.1 7.6-1.4 3.2-1.4 4.9-1.6 6.5-.9l2.2 1-2.9 3.7c-3.9 4.9-3.9 7 0 7h3l-2 4c-1.1 2.1-2 5.1-2 6.5 0 2.4.2 2.5 6.5 2.5 6.4 0 6.5 0 6.5-2.8.1-2.6.1-2.6 1.5-.8.8 1.1 1.5 3.9 1.5 6.3 0 3.6.3 4.3 1.9 4.3 1.4 0 2.1-1 2.6-3.2 1.1-4.8 1.3-4.9 4.8-2.8 4 2.5 6.4 2.5 7.2.1.3-1.1 1.2-2.2 2-2.5.8-.3 1.5-1.4 1.5-2.5 0-1.3.9-2.1 2.9-2.6 1.6-.3 4-1.9 5.5-3.6 1.4-1.6 3-2.9 3.5-2.9.4 0 .4 2.6-.1 5.7-1.3 8.3-.7 9.5 2.4 4.3 1.4-2.5 4.9-6.4 7.6-8.7 2.9-2.5 6.5-7 8.6-10.7 3-5.4 3.6-7.4 3.6-12.6 0-3.9.7-7.4 1.9-9.8 2.2-4.4 7.5-19 9-24.8 1.1-4 1.3-4.2 9.7-7.5l8.6-3.4 3.5-7c2-3.9 4.1-9.3 4.7-12l1.1-5 4.8-.5c6.5-.7 11.7-4.8 11.7-9.3 0-2.5 1-4.2 4.1-7.2 2.2-2.2 5.3-6.1 7-8.6 2.5-3.9 2.9-5.5 2.9-11.5 0-7.3 1.7-13.1 5.9-19.7 1.5-2.5 2.8-3.6 4-3.3 7 2.1 6.7 2.3 9.1-4.8l2.2-6.6h4.5c3.6 0 5.4-.7 8.5-3.2 3-2.3 5.9-3.5 11.2-4.5 3.9-.7 9.5-1.8 12.4-2.4l5.2-1v-5.5c0-3-.7-7.1-1.6-9.2-.8-2-1.9-5.5-2.4-7.7s-1.2-5-1.5-6.2c-.7-2 0-2.6 5.6-5.1 6.9-3.1 9.8-7 10-13.5.2-7.1 1-8.1 7.4-9.2 5.7-1 6-1.2 7.3-5 .8-2.2 2.7-7.5 4.3-11.8 2.8-7.5 2.9-8.5 2.9-25 0-15.5.2-17.5 2-20.2 2.7-4.1 2.5-5.4-1.2-9.2-2.8-2.9-3.4-4.4-4.3-11.6-1-7.3-1-8.6.7-11.9l1.8-3.8-3-5.9c-4.6-9.2-10.5-24.6-14.6-38-4.1-13.7-4.1-13.7 3.4-18.3 3.2-2 3.4-2.3 2.8-6.4-.3-2.3-1.9-6.4-3.6-9-1.6-2.6-3-6-3-7.5 0-1.4-.3-4-.6-5.6l-.6-3-3.9 2.1c-4.6 2.4-3.7 3.2-10.1-8.7-3.2-5.7-3.8-7.8-3.8-12.7 0-6.2-4.3-19.9-6.4-20.5-.6-.2-2.2-.6-3.6-.9-1.8-.4-3.2-1.9-4.8-5.2l-2.3-4.7-3 2.9-3.1 2.9-4.9-5.5c-2.8-3-5.7-6.9-6.6-8.5-2.3-4.2-4.3-12.3-4.3-17.2 0-2.6-1.3-7.1-3.6-12.1l-3.6-7.9-5.4-1.2c-4.8-1.1-5.7-1.7-7.4-5.1-1.1-2.2-2-5-2-6.4 0-1.4-.9-4.8-2-7.6s-2-6.9-2-9.2c0-2.8-1.1-6-3.5-10.3l-3.4-6.2 1.6-5.1c1.6-4.8 1.6-5.4 0-8.6l-1.6-3.5 3.2-.3c3.1-.3 3.2-.5 3.8-5.8.4-3 1.3-8 2-11 1.6-6.3 1.4-13.9-.4-14.5-.7-.2-2.4-.6-3.9-.9-2.6-.6-2.8-1-2.8-5.6v-5h-7.1c-5.5 0-7.9.5-10.5 2.1l-3.4 2.1-1.1-2.8c-.5-1.6-1.5-5.1-2.1-7.9-.6-2.7-1.1-5.1-1.2-5.2-.1-.2-3.7.4-8 1.2-10.2 2-10.4 1.9-7.6-1 1.3-1.4 2.2-2.6 1.9-2.8-.2-.1-2-1-3.9-1.8l-3.5-1.6 5.8-1.7c3.1-.9 5.7-1.9 5.7-2.2 0-.2-.6-2-1.4-3.9-1.3-3-1.9-3.4-5.8-3.7-2.4-.2-6.7.5-9.7 1.4l-5.3 1.8.7-8c.7-7.9.7-8-2.5-12l-3.3-4.1 2.2-2.3c1.1-1.2 2.4-4.2 2.7-6.7.6-4.2.5-4.5-3.6-7.8-3.4-2.7-4.1-3.8-3.6-5.7.3-1.3.9-3.4 1.2-4.7.4-2-.4-3.1-5-6.6-3.1-2.3-6.2-4.3-6.8-4.6-.7-.2-20.9 18.2-44.8 41z"/><path d="M685 707.7c-1.5.4-8.5 9.2-7.8 9.8.1.2 2.6 1.4 5.3 2.7 4 1.8 5.1 2.9 5.3 5.1.3 2.4 0 2.7-2.5 2.7-4.6 0-6 1.6-2.5 2.8 1.6.5 4.6 3.1 6.7 5.6 3.3 3.9 4 4.3 5 3 .9-1.4 1.3-1 2.3 2.3 1.1 3.6 1.4 3.9 4.2 3.5 3.5-.5 3.5-.4 1.4-4.3-.9-1.9-1.3-4.1-.9-6 .6-2.5.4-2.9-1.4-2.9-2.9 0-2.8-4 .3-6.9 1.6-1.6 3-2 4.8-1.6 3 .8 5.7-2 6.4-6.7.5-2.9.2-3.7-2-5.1-2.5-1.7-2.6-1.7-4 1.2-2.2 4.1-4.1 4.4-7.7 1.2-2.7-2.5-2.9-3.2-2-5 1.1-2 1-2.1-4.1-2-2.9.1-6 .3-6.8.6zM743.7 736.3l-2.9 1.2 2.6 2.8c3.2 3.4 7.1 3.8 6.2.4-.3-1.2-.6-3-.6-4 0-2-1.4-2.1-5.3-.4zM782.2 742.8c-.9.6-1.1 1.8-.6 3.5.6 2.6.8 2.7 8.5 2.7 6.9 0 8-.2 9.3-2.2 1.5-2.1 1.5-2.3-.5-3-3.4-1.3-15.3-2-16.7-1zM601.2 757.2c-2.5.9-3.4 1.9-4.2 4.8-1.1 4.2-5.4 10.5-11.4 16.9l-4.1 4.3 4.8-.7c3.7-.5 5.4-.3 7.4 1.1 2.5 1.6 2.8 1.6 6.9-.6 2.3-1.3 4.9-3.6 5.8-5.2 1.9-3.1 1.6-3.2-3.2-1.9-2.8.9-3.2.7-3.2-1 0-2.1 2.7-6.5 6.9-11.1 2.3-2.6 2.3-2.8.7-5.3-1.8-2.8-1.7-2.7-6.4-1.3zM470.7 804.8c-2.3 2.5-2.2 2.8 2.2 5.2 2.1 1.2 4.5 3.6 5.2 5.3 1.2 2.5 2.6 3.5 8.3 5.4 3.9 1.3 8 2.3 9.3 2.3 2.8 0 5.3 4.4 5.3 9.5 0 2.9-.3 3.5-2.2 3.5-2.2 0-10.8 8.1-14.3 13.3-1.6 2.5-1.6 2.8.5 6.2l2.2 3.5 4.4-4.5c2.4-2.5 4.4-5.5 4.4-6.6 0-1.9.4-2 3.8-1.4 2 .4 4 1.3 4.4 2 .4.7 1.8 1 3.2.8 1.7-.4 2.6-1.4 3-3.5 1-5 .7-9.3-.9-13.1-.8-2-1.5-4.1-1.5-4.6s2.2-2.2 5-3.8c4.9-2.8 4.9-2.9 3.4-5.2-1.4-2-2.2-2.2-5.8-1.6-6.3 1.1-19.5 1-20.7-.2-.6-.6-1.3-2.8-1.6-5-.5-3.6-.2-4.1 2.7-6l3.1-2-6.8-.6c-11.4-1.1-14.8-.9-16.6 1.1z"/></svg>
