<svg version="1.0" xmlns="http://www.w3.org/2000/svg" width="1365.333" height="1365.333" viewBox="0 0 1024 1024"><path d="M285.5 2c-1.4 1.5-3.1 2-7.2 2-2.9 0-5.3.4-5.3 1 0 .5-1.6 1.7-3.5 2.6-1.9.9-3.5 2.2-3.5 2.8 0 .6-1.5 4.3-3.3 8.1-2.5 5.3-3.1 7.7-2.6 10 1.3 5.6 1 6.3-2.3 7-1.7.4-4.7 2.4-6.7 4.4l-3.5 3.6-.4-2.5c-.2-1.4-.9-2.8-1.6-3.2-1.8-1.2-3.6-.9-3.6.6 0 .8-.8 2.4-1.8 3.6-2 2.4-4.8 1.9-5.7-1.1-.6-1.7-.8-1.8-3.1-.3-1.8 1.2-3.6 1.5-6.9 1-4.2-.7-4.5-.6-5.1 1.8-.8 3.2-1.1 3.2-3.6.1-1.7-2.1-2.8-2.5-7.7-2.5-3.7 0-6.5.6-8.1 1.7-1.7 1.2-2.5 1.3-2.8.5-.2-.7-1.5-2.6-2.8-4.1-1.9-2.3-2.3-3.6-1.8-6 .6-2.6.2-3.7-2.1-6.1-2.1-2.2-3.9-3-8.7-3.5-3.2-.4-6.1-.5-6.4-.3-.2.3.3 2.1 1.1 4.1.9 2.3 1.5 6.8 1.5 11.9 0 7.5-.3 8.7-3 12.8-1.6 2.5-10.1 11.5-18.9 20l-15.9 15.5L139 94c-1.7 10.1.4 18.6 6.6 26 4.3 5.1 6.3 14.1 5.7 25.7-.6 10.8.8 20.7 3.3 23.4 1.2 1.4 1.3 2.2.4 3.8-.6 1.2-.8 2.5-.5 3 .3.5 3.9 3 7.9 5.4l7.5 4.5 2.2-2.4c1.3-1.4 3.4-2.4 5-2.4 1.5 0 3.1-.5 3.4-1 1.1-1.8 2.5-1 2.5 1.4 0 2-1.1 2.7-8.6 5.5-4.8 1.7-8.8 3-8.9 2.9 0-.2-.6-1.4-1.1-2.7-.8-2-2.6-2.8-9.1-4.6-7.4-1.9-8.5-2-12.8-.7l-4.7 1.3 2.4 2.7c1.9 2.1 2.7 4.6 3.6 11.2.7 4.7 1.5 9.5 1.8 10.7.5 1.8 0 2.5-2.1 3.5-1.7.7-3.5 2.9-4.6 5.2-1.5 3.5-1.6 4.3-.3 7.9.8 2.2 2.3 5.4 3.3 7.1 2 3.2 4.7 12.3 3.9 13.2-.3.2-2.2-1-4.4-2.6l-3.8-3.1-1.8 2.3c-1 1.3-2.3 4.2-2.9 6.5-1 3.6-1.8 4.6-5.6 6.4-5.1 2.5-8.2 7.8-8.3 14.1 0 5.3-3.3 11.9-7.4 14.8-5.2 3.6-6.3 8.4-3.5 14.4 1.6 3.2 3.3 4.9 6 6.1 5.8 2.7 6.4 7.2 3.5 26.1-2.1 14.1-2.5 15.4-7.7 25.4l-5.4 10.5-5.7 2c-7.7 2.8-10.5 5.6-11.3 11.5-.6 4.4-.3 5.4 2.3 9.2 1.6 2.4 3.5 6.1 4.1 8.3 1.4 5.1 1.4 14.4 0 19.9-.9 3.6-.8 4.9.6 7.5.8 1.7 2 5.7 2.6 8.8.6 3.3 2.2 7.1 3.7 9.1 2.4 3.2 2.7 4.5 3 13.5.5 14-1 20.8-6.3 28.3-2.4 3.3-5.4 8.7-6.7 12l-2.4 5.9 4.3 13.2c3.8 11.8 4.4 14.7 5.3 28 1.9 28.9 1.8 28.3 11.4 39.2 7.4 8.3 7.6 10.4 2.5 26-4.9 15.5-8.9 21.8-15.3 24.4-4.1 1.7-14.3 3.4-22.6 3.9-3.9.3-4.7.7-6.5 3.8-1.8 3.1-2 5.2-2 20-.1 17.4-.3 18.6-5.3 24.5l-2.4 2.9 2.8 2.3 2.9 2.3h-3.7c-4.5 0-4.7.8-1.3 4.8 3.2 3.8 3.2 7.2-.1 15.2-2.4 6-2.5 7-2.5 28.4-.1 12.1.5 27.7 1.2 34.6.7 6.9 1.2 15.2 1.1 18.5-.3 9.9 1.8 14.5 9.7 20.9 5.6 4.5 7 6.2 7.6 9.3.4 2.5 2.5 5.8 6.2 10.1l5.5 6.2.5 8.1c.7 9.2 2 10.9 8.8 10.9 2.2 0 6.3.3 9.1.6 4.7.6 5.3 1 8.5 5.8 4.6 7 11.9 15.7 20.3 24.4l7.1 7.2.4 8.1.3 8 5.2 2.9c5.8 3.4 12.4 3.9 18.1 1.6 1.9-.8 5.6-1.8 8.2-2.2 2.6-.3 7.1-1.5 9.8-2.5 6-2.3 12.3-2.4 14.9-.4 2.8 2.1 5.9 1.9 9.1-.6 2.5-2 3.1-2.1 8-1 4.2.9 5.9 1 7.6 0 1.5-.8 4.2-.9 8.3-.4 3.4.4 10.9.6 16.7.5 19.8-.3 28.1 2.8 32.3 12.1 2 4.4 13.2 15.2 24.6 23.8 2.5 1.9 6.5 5.3 9 7.6s6.1 5.1 8.1 6.2c4.2 2.4 21.2 8.5 28.4 10.2 2.8.7 7.6 2.5 10.8 4.2 5.3 2.7 6.6 2.9 16.4 2.9 10.3 0 11 .2 18.6 3.7l7.9 3.7-3.6 1.1c-2.1.6-4.6 2.4-6.1 4.5l-2.5 3.4 2.2.9c1.3.4 3.4 1.8 4.8 3.1s4.1 2.9 6 3.6c1.9.7 4.6 2.4 6.1 3.7 1.9 1.8 3.7 2.3 7.6 2.3 4.8 0 5.2-.2 6.2-3.1l1-3 3.1 1.7c2.1 1.3 3 2.6 3 4.5 0 1.8.9 3.2 2.7 4.4 3.9 2.6 6.9 2.2 10.2-1.4 2.3-2.5 3.7-3.1 6.9-3.1 3.1 0 5.1-.8 8.4-3.4 8.7-7 42-23.6 47.4-23.7 1.6 0 4.9-.8 7.4-1.8l4.5-1.9 3.8 3.5c3.2 2.8 4.1 3.2 5.3 2.2 1.2-1 2.2-1 4.8-.1 9 3.3 20 4.7 28.8 3.8 9.7-1 11.8-.6 11.8 2.4 0 1.7.6 2 4.8 2 5.3 0 9.2 2.6 9.2 6.1 0 2.5 2.6 7.7 5.3 10.6 2.4 2.7 5.1 2.9 10 .8 2.5-1 7.1-1.5 14.1-1.5 12.2 0 14 .4 12.6 3-.8 1.6-.3 2 4.3 3 8.4 2 11.3 3.5 13.6 7.4l2.3 3.6 5.1-4.4c6.6-5.5 4.6-4.6 37.4-18.2 19.5-8.1 33-14.5 45.3-21.3 19.6-11 29.9-14.9 42.1-15.9l8.3-.7 1.6-5.3c2.7-9.2 15.9-23.2 28.5-30.2 3.3-1.8 10.7-6.1 16.5-9.5 5.8-3.5 12.4-6.9 14.8-7.6 3.6-1.1 4.2-1.6 4.2-4 0-1.8.7-3.2 2-3.9 2.6-1.4 2.5-2.4-.6-6.6-2.1-2.7-2.5-4.1-2.1-7 1.2-7.2 3.9-11.2 18.3-27.5 1.2-1.3 7.6-7.5 14.2-13.6 11.1-10.4 12-11.6 12.5-15.5.7-6.1 2.2-11.9 3.5-14.5.7-1.2 1.2-5 1.2-8.5v-6.3l7-7.4c6.9-7.3 16-19.3 16-21.1 0-.6-1.5-1-3.4-1-3.6 0-4.6-1.5-4.6-7.2 0-2.3-.5-2.7-4.2-3.3-12.3-1.8-12.3-1.8-12.4-14.4 0-6.8-.6-10.8-1.8-13.6l-1.7-4-1.3 2.4-1.4 2.4-.7-2.2c-.5-1.8 0-3 2.4-5.5l3.2-3.3-2.5-1.1c-2.1-.9-2.6-2.3-4.1-10.7-1.9-10.3-1.3-15.8 2-18.5 2.2-1.8 1.9-2.6-1.6-4.1l-3.1-1.2.6-6.1c.5-4.7 1.2-6.6 3.4-8.9l2.7-2.8-2.9 1.1c-1.6.6-3.2.7-3.5.2-.3-.4-2.5-3.3-4.8-6.3-4.3-5.5-4.8-7.3-3.7-11.6.5-1.7 1.4-2.3 3.5-2.3 3.3 0 3.4-.5 1.4-4-2.5-4.4-1.9-7.6 2-10l3.5-2.1-2-3.9c-2.5-4.9-2.5-6 0-6 1.1 0 2 .7 2 1.5 0 2.4 2.9 1.7 5.6-1.3 1.3-1.5 3.8-5.3 5.6-8.5 4.2-7.8 8.8-11.7 13.7-11.7 2.1 0 7.2-.3 11.4-.6 7.3-.7 7.7-.8 7.7-3.1 0-3.4 1.7-6.3 6.1-10.4 3.5-3.3 3.9-4.2 3.9-8.5 0-2.7.3-5.9.6-7.1.5-2 0-2.4-5.5-4-4.5-1.3-6.1-2.3-6.1-3.6 0-2.1 3.1-2.3 6.3-.4 1.4.9 4 1.2 7 .9 3.9-.3 5-.9 6.4-3.2 1.8-3.1 4.3-4.5 9.7-5.5 3.8-.8 3.9-1 1.4-10.8-1.4-5.6-9.8-13.3-15.4-14.1-3.6-.4-20-8.5-24-11.7-.6-.5-1.7-2.8-2.5-5.1-.9-2.8-2.3-4.7-4.3-5.7-1.6-.9-4.5-3-6.5-4.7-2-1.7-6.2-4-9.5-5-3.9-1.2-6.4-2.7-7.4-4.4-.9-1.4-3-4.1-4.8-6.1-3.1-3.5-3.2-3.9-2.7-10.2.5-6 .2-7.3-3-14.4-2-4.3-4.1-11-4.8-14.8-.9-5.6-1.8-7.7-4.4-10.5-3.2-3.4-7.5-10.9-7.5-13 0-.5 1.1-1 2.4-1 5.3 0 5.7-.8 2.8-5.5-2.4-4-3-4.4-7.7-5.1-2.7-.3-6.7-1.6-8.7-2.8-3.1-1.7-3.8-2.7-3.8-5.3 0-2.9-.5-3.4-7.2-6.7-3.9-2-9.2-5.6-11.7-7.9-5-4.7-15.4-12.7-16.4-12.7-.4 0-2.5 2-4.8 4.5l-4.2 4.5-1.7-3.9c-1.4-2.9-3.4-4.8-8.3-7.8-4.4-2.6-8.3-6.1-11.7-10.3-2.8-3.5-7.9-8.3-11.3-10.6-3.4-2.3-12.1-10.2-19.3-17.6-12.8-13-13.2-13.4-14.3-19.2-1.5-8-7.4-20-11.1-22.6-1.7-1.2-3.9-3.9-5-6.1l-2-3.9h-7.1c-5.2 0-8-.5-11.2-2.2-3.4-1.8-6.4-2.2-16.2-2.6l-12-.4-5.1-5.4c-4.3-4.6-5.5-5.4-8.7-5.4-3 0-3.7-.4-3.7-1.9 0-1-1.1-2.6-2.5-3.5-2-1.3-2.5-2.5-2.5-6 0-2.9-.7-5.3-2.2-7.2-1.2-1.6-2.2-3-2.3-3.1-.1-.1-1.8-.9-3.8-1.8L645 250l-2.5 5c-2.3 4.5-2.8 5-6 5-2.4 0-3.7-.6-4.5-2-.6-1.1-3.4-3.8-6.1-6-4.3-3.4-5.8-4-9.7-4-4.4 0-4.8-.2-6.4-3.8-5-10.6-10.5-18.8-14.1-20.7-2-1.1-3.7-2.8-3.7-3.7 0-4.6-4.6-13.6-9.7-18.9-2.9-3.1-5.9-7.2-6.5-9.1-1.5-4.3-9.5-12.9-17.8-19.3-3.2-2.5-7.5-6.6-9.6-9-4.3-5.3-7.6-5.9-12.3-2-2.4 2.1-3.1 3.6-3.7 8.3-.3 3.1-1.3 7.4-2.1 9.4-1.4 3.6-1.8 3.8-5.9 3.8-3.7 0-4.5.4-5.8 2.8-1 1.9-3.3 3.5-7.1 5.1-5.2 2.2-5.8 2.2-6.7.7-.5-.9-1.9-1.6-3.1-1.6-1.2 0-6.7-3.2-12.2-7.1-12-8.5-11.1-7.5-9.5-9.4 1.2-1.4.8-2.2-2.8-5.5-2.3-2.1-4.2-4.4-4.2-5.1 0-.8-1.4-4.3-3-7.7-2.9-6.1-6.9-10.5-20.9-22.8-2.9-2.6-3.2-3.3-2.3-5.1 1-1.8.6-2.3-2.5-4.4-2.1-1.3-6.1-5.8-9-9.9-4.3-6-6.3-7.9-10.3-9.7-3.7-1.7-5-2.8-5-4.3 0-4.1-8.1-9.5-17.2-11.4-2.1-.5-2.8-1.2-2.8-3 0-3.2-3.2-6.9-11.7-13.5-3.9-3-9.9-9.1-13.4-13.7-5.7-7.3-7-8.4-11.6-9.9l-5.1-1.6.1-4.2c.1-5.5-3.1-12.1-6.1-12.5-1.2-.2-2.2-.9-2.2-1.6 0-2.3-2.9-4.1-4.2-2.8-1.8 1.8-2.6 1.4-3.3-1.7-.6-3-2.6-4.1-7.7-4.1-4.9 0-5.8-.9-5.8-5.5 0-3.9-.4-4.7-4.4-7.9-3.4-2.9-5.2-3.6-8.5-3.6-2.3 0-5.4.6-6.9 1.4-5.8 2.9-9.2 2.8-14.8-.4-6.4-3.6-6.6-3.6-8.9-1z"/></svg>
