<svg version="1.0" xmlns="http://www.w3.org/2000/svg" width="1365.333" height="1365.333" viewBox="0 0 1024 1024"><path d="M655.5 1.4c-1.1.8-3.6 1.6-5.6 1.6-1.9 0-5.8.7-8.6 1.5-4 1.2-5.4 2.2-6.9 5-1.8 3.4-2.1 3.5-7.6 3.5-4 0-5.8.4-5.8 1.2 0 .7-1.6 2.4-3.5 3.7-1.9 1.3-3.5 3-3.5 3.8 0 3.6-6.3 20-8.7 22.5-1.7 1.7-2.3 3.2-1.9 4.6.5 1.4-.5 3-3.9 6-5.4 5-7.3 8.6-8.2 14.9-.9 7.3-4.6 13.7-9.9 17.3l-4.5 3.2.6 11.1.6 11.2-3.9 2.7c-3.5 2.4-4.1 2.6-5.8 1.3-2.8-2.1-6.1-1.9-6.7.5-.3 1.1-1.6 2.4-3 2.9s-2.8 1.5-3.2 2.1c-.4.6-1.6.8-2.7.5-1-.4-3-.4-4.3-.1-3 .8-5.1 6.5-3.6 9.4.8 1.6.5 3-1.4 6.6-3.3 6.2-3.3 8.6 0 8.6 3.5 0 3.1 2.1-1 4.9-2 1.3-4.3 3.7-5.2 5.3-1.1 1.7-2.6 2.8-4 2.8-2.7 0-3.9 3.3-2.5 7 1.3 3.7.4 6-2.3 6-2 0-2.5.6-3 4.5-.5 3-.2 5.9.9 9.1 2.1 6.2 2 11.8-.1 15.2-1 1.4-1.9 4.4-2.1 6.7-.1 2.2-.5 7.8-.8 12.4l-.6 8.4 2.4-.6c2.8-.7 5.1 2.4 6.2 8.6.5 2.4 1.7 4.4 3.6 5.8l2.9 2.2-2 4.9c-2.4 6.2-2.4 6.8.5 6.8 3.4 0 5.6 1 5.6 2.5 0 .8 1.4 1.5 3.3 1.7 2.8.3 3.2.7 3.5 3.5.4 4.1 3.4 6.3 7.6 5.6 5.3-.8 6.8 1.3 7 9.6.2 5.6-.1 7.4-1.3 8.1-1.4.9-1.4 1.1-.1 2 1.4 1 3.1.9 14.5-.6 3.9-.5 5.2-.2 9.5 2.6 5.6 3.6 5.7 4.3 1.8 13.3l-2.1 4.7 2.3 2.5 2.3 2.5 3.2-2c4.2-2.6 10.5-2.6 15.2 0 2.1 1.1 5.3 2.3 7.1 2.6 2.3.5 4 1.7 5.5 4 1.2 1.9 3 3.4 3.9 3.4.9 0 3.1.8 5 1.7 1.8 1 3.4 1.9 3.6 2 .2.1-.4 1.3-1.4 2.8-1.6 2.4-1.6 2.7-.1 4.3 1.5 1.5 1.8 1.4 4.1-.7 2.7-2.5 7.6-3 15.2-1.6 3.2.6 4.9.3 7-1 2.9-1.7 9.4-11.6 9.4-14.1 0-.8.6-1.4 1.3-1.4.6 0 2.8-2.7 4.9-5.9 2.8-4.7 4.2-6 6.5-6.3 2.2-.2 3.3-1.3 5.1-4.8 1.3-2.5 2.9-5.2 3.7-6 3.4-4 4-6.8 4.5-21.1.5-13.9.6-14.8 3.2-18.5 1.5-2.2 3.2-6.2 3.7-8.8.5-2.7 2.3-6.8 4-9.3 1.7-2.4 3.1-5.1 3.1-6.1 0-.9.9-3.2 2-5 1.1-1.8 2-4.5 2-6s1.3-7 2.9-12.3c2.2-7.8 3.7-10.8 7.4-15.4 2.6-3.1 5.2-7.3 5.8-9.4 1-3.4.8-4.3-2-9.9-3.4-6.7-3.8-10.1-1.7-13.5 2.7-4.3 3.9-58.4 1.4-64.6-.6-1.4-1.3-8-1.6-14.6-.5-11.5-.6-12.1-3.3-14.8-1.8-1.7-2.9-3.9-2.9-5.5 0-1.5-1.1-4.4-2.5-6.4s-2.5-4.3-2.5-5.1c0-.8-1.1-3.4-2.4-5.8-1.9-3.3-2.2-4.7-1.5-6.2.6-1 .9-2 .7-2.1-.2-.1-1.5-1-3-1.9-3.3-2-3.7-4.7-.8-4.7 1.6 0 2-.7 2-3.3 0-4.7-2.8-7-7.2-6.2-2.6.5-3.8.2-5.2-1.4-1.8-2-1.8-2.1.8-3.2 3.2-1.5 2.9-2.8-1.2-5.2-3.1-1.8-3.2-1.8-6.4.7-3.6 2.6-5.6 2.3-8.8-1.6-1.6-1.9-8-3.6-17-4.4-4.1-.4-6-.2-7.5 1zM614.9 430c-.9.5-2 2.1-2.3 3.6-.4 1.4-1.8 4.4-3.2 6.6-2.2 3.4-2.9 3.9-5 3.4-1.7-.5-3.5 0-5.6 1.6-1.8 1.3-5.5 3.6-8.4 5.3-9.5 5.5-14.3 9-15.5 11.2-.9 1.7-2.1 2.3-4.9 2.3-3.3 0-3.8.4-5.7 4.4l-2.2 4.4 2.3 2.1c1.7 1.6 3.5 2.1 7.4 2.1 5.1 0 5.2.1 5.2 2.9 0 4-9.1 14.1-12.7 14.1-1.3 0-3.4.5-4.6 1.2-1.3.7-7.7 1.3-16.2 1.5-12.1.3-14.4.6-16.7 2.3-1.5 1.1-3.4 2-4.3 2-1.5 0-7.5 2.7-7.5 3.4 0 .2 7.8.3 17.4.3 17 0 17.6.1 22.1 2.7 6.9 3.8 16.5 3.3 16.5-1 0-1.8 4-3.4 8.6-3.4 2.7 0 3.4.4 3.4 2 0 1.1.4 2 .9 2 1.2 0 5.1-4.9 5.1-6.4 0-.7 2.5-3.6 5.5-6.6 3.5-3.4 5.5-6.3 5.5-7.7 0-1.3.6-2.3 1.4-2.3 2.7 0 4-2.8 2.9-6.4-.7-2.2-.7-3.9 0-5.1 1.2-2.2-.6-3.5-4.9-3.5-2.8 0-3.1-.3-2.7-2.4.3-1.6 1.4-2.7 3.2-3.1 1.4-.3 3.5-1.5 4.6-2.5 5.5-5.2 6.7-6 8.6-6 5 0 7.1-3.1 4.7-7-1-1.5-.9-2.6.5-5.5 2-4.1 2.2-10.6.5-12.3-1.4-1.4-1.8-1.4-3.9-.2zM566.7 521.6c-1.5.8-2.7 2.3-2.7 3.2 0 1-.5 2.3-1.2 3-1.6 1.6 1.3 2.6 5.7 1.8 4.9-1 6.4-4 3.3-7.1-2.2-2.1-2.5-2.2-5.1-.9zM556.8 540.2c-2.7 2.8-4.8 5.5-4.8 5.9 0 .5-1.3.9-2.8.9-3.1 0-9.2 5.4-9.2 8.2 0 2.3 3.4 3.1 7.5 1.8 2.5-.8 3.9-.8 5.5 0 1.2.6 3.4.8 5 .5 2.6-.6 3-1.2 3.6-5.3.4-2.6 1.5-6.4 2.6-8.4 2.1-4.3 1.6-8.8-1.1-8.7-.9 0-3.7 2.3-6.3 5.1zM708 537.5c0 1.4-.3 2.5-.7 2.5-.5 0-1.4.4-2.1.9-1.1.6-1 1.5.4 4.4 1.4 2.8 2 3.4 3.1 2.6.7-.6 2-.9 2.8-.5 1 .3 1.8-.1 2.2-1.2.3-.9 1.4-2.6 2.5-3.8 1.9-2.1 1.8-2.1-.7-3.8-1.4-.9-3.6-2.1-5-2.6-2.2-.9-2.5-.7-2.5 1.5zM688.6 547.2c-.9 1.2-1.6 3.9-1.6 6 0 3.2.4 3.9 2.6 4.4 2.2.6 2.5 1.1 2.1 3.3-1.3 6.3-1.3 6.6.8 6.4 2.7-.2 9.5-2 10.2-2.6.7-.8-1.7-4.9-4.4-7.4-1.8-1.7-2.2-2.9-1.7-4.9.5-2.1.1-3.1-2.2-5-3.6-2.9-3.9-2.9-5.8-.2zM654.6 627.7c-4.8 3.4-7.2 3.8-11.7 1.9-1.3-.5-2 .3-3.3 3.3-.9 2.3-2.1 4.1-2.7 4.1-.7 0-.9.9-.4 2.7 1.2 4.5.6 8.3-2.2 13-2.3 4-2.5 4.9-1.5 7.7.7 1.8 1.2 4 1.2 4.9 0 .9 1.4 2.4 3 3.2 1.7.9 3.9 3 5 4.7l1.9 3.1.7-2.9c.4-1.6 1.3-3.7 2.1-4.6.8-.9 1.7-3.6 2-6 .3-2.4 1.9-8.4 3.5-13.5 2.9-8.8 3.1-9.2 6.2-9.5 2.3-.2 3.2-.8 3.4-2.6.2-1.2-.2-2.2-.9-2.2-.9 0-.9-.3.1-1.5 1.2-1.5.5-9.6-.8-9.4-.4 0-2.9 1.6-5.6 3.6zM627.5 696c-2.4 2.6-1.3 4.7 2.8 5.2 2.5.3 3.7-.1 5-1.8 1.5-2 1.4-2.2-1.9-3.7-4.2-2.1-3.7-2.1-5.9.3zM610.6 739.2c.8 2.9 1 3.1 2.3 2.3 2-1.2 1.3-4.5-1-4.5-1.6 0-1.9.4-1.3 2.2zM456 831c-.6 1.1-1.4 4.3-1.7 6.9-.5 4.7-.4 5 2.6 6.5 3 1.6 3.3 2.3 4.6 10.1.4 2.2.9 5.2 1.2 6.7 1.5 8.1-2.8 13.3-9.9 12.2-3-.5-3.6-.3-4.1 1.5-.8 3.2-6.3 2.8-11.3-.8-2.2-1.6-5.3-3.1-6.9-3.3-2.5-.2-3.1.1-3.3 1.9-.3 1.9.1 2.3 2.3 2.3 2.8 0 8.5 2.6 9.8 4.4.4.6 1.2 2.8 1.8 5l1 3.9 3.8-3.7c4.1-4 8.8-4.8 11.2-2 .7.9 2.2 2 3.4 2.4 1.7.6 2.3 0 4.4-4.9 3.1-7.6 4.3-12.7 4.2-18.2-.1-4.1.1-4.7 2.1-5.2 1.3-.3 5.1-1.5 8.6-2.8 6.8-2.4 7.2-3.2 4.8-9-.9-2.2-1.2-5.2-.9-8.5.5-4.6.3-5.3-1.6-6.4-1.8-.9-2.6-.7-5.2 1.4-2.9 2.5-9.3 3.6-10.1 1.8-.3-.8-7.4-4.2-8.8-4.2-.5 0-1.4.9-2 2zM382 944.7c0 2.5-.1 2.5-1.8 1-2.1-1.9-3.2-1.3-3.2 1.5 0 1-1.2 3.6-2.6 5.8-2.2 3.3-2.4 4.2-1.4 5.5 1 1.2 1 2.1.1 4.1-1.6 3.5-.5 6.4 2.3 6.4s3.9-1.3 5.5-6.1c1-3.2 1.9-3.9 7.1-5.8 3.5-1.3 6-2.8 6-3.6 0-.8-1.8-2.6-4-4-2.3-1.5-4-3.3-4-4.4 0-1-.9-2.1-2-2.4-1.6-.4-2 0-2 2zM316.3 988.1c-.5 1.6-1.2 2-3.2 1.6-3-.6-9.1 1.7-9.1 3.3 0 .7 1.4 2.5 3 4 1.7 1.5 3 3.7 3 4.9 0 2.9-5.4 7.4-10.3 8.6-4.1 1.1-4.2 1.2-4.5 5.7-.3 5.2-1.1 4.8 10.3 6.2 2.2.3 5 .8 6.2 1.2 1.8.5 2.5.1 3.3-2 .7-1.9 1.7-2.6 3.8-2.6 2 0 3.2-.8 4.5-3 2.2-3.6 2.8-3.7 6.3-.5 2.9 2.7 4 3 4.9 1.5.3-.5 2.7-1 5.3-1 5.6 0 6.7-.6 8.1-4.4.7-1.6 2.3-3.2 4.1-3.9 2.3-.9 3-1.8 3-3.8 0-2.3-.6-2.9-3.2-3.5-1.8-.4-4.5-.6-6-.5-2 .2-2.8-.2-2.8-1.3 0-1.8-2.5-2.2-3.5-.6-.3.5-2.7 1-5.3 1-6.2-.1-10.2-3.4-10.9-9-.5-3.6-.8-4-3.5-4-2.2 0-3.1.6-3.5 2.1z"/></svg>
