<svg version="1.0" xmlns="http://www.w3.org/2000/svg" width="1365.333" height="1365.333" viewBox="0 0 1024 1024"><path d="m814.3 67.9-18.2 2.6-2.9 4c-3.7 5.2-9.8 10.6-15.6 14-3.7 2.2-7.1 3-16.2 4.2-15.3 1.8-18.9 3.4-25.1 10.8-2.7 3.3-5.7 6.6-6.6 7.4-1 .7-1.7 2-1.7 2.8 0 .8-1.1 3.1-2.5 5.1-1.4 2-2.5 4.7-2.5 5.9 0 1.7-.9 2.5-4.2 3.5-2.8.8-4.7 2.2-5.9 4.3-1.4 2.2-3.4 3.6-8.2 5.3-6.2 2.2-6.5 2.4-7.3 6.5l-.9 4.2-7.4.3c-7.1.3-7.6.5-12.5 4.6-2.8 2.4-6.9 5.5-9.1 6.8-5.5 3.4-9.6 11.9-13.5 27.7-1.7 6.8-4.3 15.2-5.7 18.7-2.3 5.8-2.8 6.5-6.3 7.4-4.1 1.1-7.9 4.8-13.7 13.6-4.4 6.7-11.4 11.4-16.9 11.4-3.3 0-18.4 4-24.6 6.5-2.1.8-2.3 2.6-.7 4.2.9.9.8 1.8-.3 3.5-.9 1.3-1.8 6.1-2.3 11.3-.5 7.3-1.1 9.5-2.9 11.5-1.4 1.5-2.7 4.9-3.4 8.7-1.1 6.3-4.4 12.2-11.1 19.8-4.3 4.9-13.7 8.5-22.3 8.5-3.3 0-11.6 1-18.4 2.2l-12.3 2.1-10.7-2.7c-10.5-2.8-17.4-5.8-17.4-7.7 0-.6-1.6-1.7-3.6-2.5-2.7-1.1-5.5-1.3-11.8-.8l-8.3.7-2.7-3.6c-1.7-2.2-8.1-6.7-17.3-12.2l-14.6-8.8-9.6.7c-9.3.7-9.7.8-14.9 4.9-4.6 3.7-5.9 5.5-9.8 14.2-4.1 9.2-4.4 10.6-4.4 18.3v8.4l-9 11.3c-7.4 9.3-10.2 12-16 15.4-7.5 4.5-11.1 8.8-15.4 18.5l-2.5 5.6h-5.2c-3.6 0-6.5.8-9.9 2.6-4.6 2.5-4.8 2.8-5.5 7.9l-.6 5.3-21.8.1c-16.5.1-23.1-.3-26.7-1.4-4.7-1.4-5-1.4-8.7 1.1l-3.9 2.6-2.4-2.3c-2.1-2-2.3-2.8-1.8-7.4.5-4.1.2-6-1.5-9.3-2.4-4.8-2.3-5.2 4.6-13.9 1.9-2.3 4.3-7 5.4-10.5 1.9-5.6 2-7 .9-14-.7-5-2.9-12-6.1-19.7-2.7-6.6-4.9-13.4-4.9-15.1 0-4-1.3-6.6-6-11.5-2.1-2.2-5-6.9-6.4-10.5-6-14.7-10.9-19.7-21.2-21.6-2.7-.5-5.5-2.2-9.1-5.5-2.8-2.7-5.4-4.9-5.6-4.9-.2 0-.3 3-.1 6.7 4.2 73.5 5.7 109 6.9 164.7.8 36.7 1.5 71.2 1.5 76.5v9.7l-7 3.7c-3.9 2-8 3.7-9 3.7-1.1 0-4 1-6.4 2.2-3.8 1.8-4.6 2.7-5.1 5.9-.9 5-2.4 6.1-10.4 7.4l-6.6 1.1v13.7l-4 1.4c-3.8 1.3-4.3 1.2-9.5-1.4-8-3.9-20.2-4.7-28.5-1.7-3.3 1.1-9.7 2.4-14.3 2.7-8.2.6-8.5.6-17.5-3.5-9.7-4.3-11.8-4.7-17.9-3.5-3.4.7-3.8.6-3.8-1.2 0-2.9-6.6-4.8-12.4-3.4l-4.4 1-.6-4c-.4-2.1-1.3-5.2-2.2-6.9-1.2-2.4-1.3-3.6-.3-6.5 1.3-4 .8-8-1.6-13.7l-1.6-3.8-2.9 2.7c-2.5 2.4-3.2 2.6-4.5 1.5-.8-.7-1.5-2.8-1.5-4.7 0-1.9-.4-4.2-1-5.2-1.3-2.5-7-3.4-12.1-2.1-4.1 1.1-5.6 2.4-11.3 9.5-2.7 3.4-2.8 3.6-1.1 6.1 1.5 2.4 1.5 2.8-.1 7.1-2.1 5.5-8.8 12.8-13 14.3-1.6.6-3.8 2.4-4.8 4.1l-1.8 3 3.4 3.7c1.8 2 4.4 5.4 5.6 7.4 1.3 2 3.8 4.6 5.6 5.8 2.2 1.3 3.6 3.1 4 5.1.3 1.7 2 4.7 3.6 6.6 3.9 4.4 11.6 19.8 12.5 24.9.4 2.1 2.7 7 5 10.9 3.2 5.3 4.5 8.5 5 13 .8 6 4.3 16.2 9.2 26.5 1.4 3 3.2 7.7 3.9 10.3.7 2.7 3 7.2 5.1 10 5.6 7.4 9.7 15.2 12.2 22.9 1.7 5.2 4.5 9.8 12.3 20 5.5 7.3 11.5 14.9 13.3 16.8 1.8 1.9 5.4 7.2 7.9 11.8 2.6 4.6 6 9.5 7.7 11 3.8 3.5 9.5 17.6 12 29.6 1.2 6 1.9 13.3 1.9 21.3 0 14.6-1.3 18.9-7.1 23.2-3.5 2.5-4.4 2.8-7.7 2-9.5-2.3-9.1-2.4-10.3.7-.6 1.6-.8 4.7-.4 6.9.3 2.2.8 6.4 1.1 9.3.3 2.9.9 5.2 1.2 5 5-2.6 6.3-3 7.6-2.5 1.8.7 6.6 8 6.6 10.1 0 2.4-4.3.4-5.8-2.7-.8-1.7-2.1-2.7-3.4-2.7h-2.1l2 2.2c1.2 1.3 3.4 4.4 5 6.9 3.6 6 11.1 15.2 13.2 16.3 2.7 1.4 4.1 3.8 4.1 7.1 0 2.1.9 3.9 2.6 5.6 3.5 3.2 6.4 9.5 6.4 14 0 3.2-.4 3.7-3.2 4.5-2.6.8-3.4 1.7-4.1 4.7-.7 3-.6 4.2.7 5.6 1.5 1.6 1.5 1.9.1 3.1-.8.7-1.5 2-1.5 2.9 0 2.2 5 9.9 8.4 13l2.6 2.4v-6.4c0-9.2 1.5-13.9 4.4-13.9 1.3 0 4.3-.3 6.7-.6 4.4-.6 4.4-.5 6.7 3.8 1.6 3.2 2.2 6 2.2 11.1v6.8l3-1.6c4.1-2.1 9.6-1.9 12 .5 1.2 1.2 3.3 2 5.5 2 2.9 0 11.5 4.2 11.5 5.6 0 .2-.9 1.8-2 3.6-3 5-2.7 5.9 2.3 5.2 3.8-.6 4.7-.3 8.6 3 6.4 5.3 7.9 6 15.6 6.7 3.9.4 9.1 1 11.7 1.4 4.3.7 4.8.6 4.8-1.2 0-2.7 3.9-6.1 7.5-6.5 2.1-.2 3.4-1.1 4.3-3.1.7-1.5 3-3.6 5.1-4.7 2.5-1.2 4.1-2.9 4.5-4.5.5-1.9 2-3.2 5.3-4.7 4.6-2 8.6-2.1 18.2-.2 3.2.7 3.3.6 2.1-1.5-2.9-5.4 1.7-6.4 16.9-3.4 8.2 1.5 8.9 1.5 12.4-.2 2.8-1.3 6.6-1.8 15.2-1.9 13-.2 16.7-1.7 17.3-7.2.2-1.9 2.2-4.8 5.9-8.5l5.5-5.6 9.1-1.2c5.1-.7 11.3-2.2 13.9-3.3 5.2-2.3 9.9-2 19.5 1.3 4.2 1.4 8.3 1.9 16.8 1.9 10.1 0 11.4-.2 13.1-2.1 2.5-2.8 8.7-5.9 11.7-5.9 3.4 0 31.4 5.7 36.6 7.5 2.5.8 6.2 1.5 8.4 1.5 2.4 0 5.1.8 7 2.2 2.1 1.5 5.6 2.6 9.7 3.1 3.6.4 8.4 1 10.8 1.3 4 .6 4.2.5 4.2-1.9 0-1.3.7-3 1.5-3.7.8-.7 2-2.9 2.6-5 .7-2.1 2.1-4.2 3.3-4.8 2.5-1.1 10.7-.1 18.5 2.2 3 .9 6.6 1.6 8.1 1.6 1.4 0 3.5.7 4.7 1.5 2 1.4 2.6 1.4 6.3-.1l4-1.6-2.1-3.5c-3.1-5-1.8-9.6 3.8-13.9 5.9-4.5 11.7-5 26.6-2.5 16 2.8 17.9 2.7 25.1-1.3 3.4-1.9 8.7-4.1 11.9-4.9 3.5-.9 8.7-3.5 13.2-6.6 4.1-2.8 9.4-6 11.7-7.2 2.4-1.2 6.6-4.1 9.3-6.4 2.8-2.3 7.4-5.5 10.3-7 2.9-1.6 7.1-4.4 9.4-6.4 2.3-2 7.6-5.9 11.7-8.6 4.7-3.1 9.1-7 11.5-10.2 2.8-3.8 5.5-6.1 9.5-8 13.5-6.6 29.5-20.1 41.3-34.9 3.2-4 6.8-8 8-9 1.3-1.1 3.4-3.5 4.8-5.4 4.7-6.8 24.4-27.1 26.9-27.7 1.4-.3 5.2-3.1 8.5-6.2 3.4-3.1 8.3-6.7 11-8 3.7-1.8 6.9-4.9 13.5-12.9 4.7-5.8 11-13.2 13.9-16.5 2.9-3.3 6.6-8.8 8.2-12.3 1.7-3.5 7.7-12.5 13.4-20.1 5.7-7.6 12-17 13.9-20.9 2-4 4.7-8 5.9-9 3.5-2.8 6.6-7.7 9.4-14.5 1.4-3.4 4.3-8.7 6.4-11.8 2.1-3.1 5.8-8.8 8.2-12.6 4.5-7.4 29.1-33.6 34-36.1 1.5-.8 4.3-1.4 6.3-1.4 5.5 0 8-1.8 21.1-15.2 10.7-10.9 12.3-13 14.4-18.8 1.3-3.6 4.1-9.5 6.2-13.1 3-5.1 4.6-9.9 7.3-21.5 1.9-8.2 3.5-16.1 3.5-17.7 0-1.5 2-6.7 4.5-11.6 6.4-12.8 12.5-31.9 12.5-39.1v-5.7l-17.2-.7c-9.5-.4-20.3-1.2-24.1-1.7-13.1-2-15.7.7-15.7 16.1v8.7l-4.3 1.7c-5.8 2.2-22.3 1.4-32.4-1.6-6.7-2-7.9-2.8-14.7-9.8-7.1-7.3-7.4-7.8-8.1-13.5-.9-8.3-.9-8.3-5.2-8.7l-3.8-.3-.1-9c-.1-5-.6-11.4-1.1-14.3l-1-5.3 7.4-6.6c4.2-3.8 8.1-8.2 8.9-10.2.8-2 2.3-4.5 3.3-5.6 1-1.1 2.1-3.7 2.4-5.9.3-2.1.7-3.9.9-4.1.2-.1 2.9-2.2 6-4.8 4-3.2 7.3-4.9 11-5.7 5.1-1.2 5.7-1.1 10.6 1.4 2.8 1.4 6.2 4 7.4 5.7 2.8 3.8 7 6.4 14.2 8.9l5.6 1.9V338c0-9.8 0-9.9 3-12 3.6-2.6 3.7-3.1.5-7.8-1.6-2.4-2.1-4-1.5-4.6.6-.6 1-2.4 1-4.2 0-1.8.9-6.1 2-9.6 1.8-5.4 2.2-10.5 3-37.2l.9-30.9-3.5-6.8c-3.4-6.5-3.5-6.9-2.5-12.5 1.6-8.3 1.5-8.6-3.3-12.1-5-3.7-7.6-9.6-7.6-17.3 0-4.7-3-10.3-7.3-13.9-2.2-1.8-2.2-9.7-.1-15.1 1.6-3.9 1.5-4.3-.5-9.6-1.1-3.1-2.1-7.4-2.1-9.6 0-3.7-4.9-22.8-8.4-32.7-.9-2.4-1.6-6.2-1.6-8.5 0-9.8-7.4-11.9-43.5-12.1-21.7-.1-23.2-.2-27.3-2.3-14.8-7.8-33.2-14.3-39.7-14.1-1.6.1-11.2 1.3-21.2 2.8z"/></svg>
