<svg version="1.0" xmlns="http://www.w3.org/2000/svg" width="1365.333" height="1365.333" viewBox="0 0 1024 1024"><path d="M680.8 83.9c-43.9 5.4-80 10-80.4 10.3-.3.4.6 2.6 1.9 5 2.4 4 2.5 4.8 1.7 11.5l-.8 7.2-10.3 13c-9.5 11.9-11.5 13.8-23.9 22.7-12.9 9.3-15 11-15 12.6 0 .4 2.4 2.5 5.4 4.7l5.4 4 4.6 13.9c3.9 11.6 4.5 14.4 3.6 16.6-1.3 3.6-1.5 3.3 2.4 4.6l3.4 1.1-2.4 7.1c-1.4 4.1-2.4 9.5-2.4 12.6 0 3-1 9.2-2.2 13.8-1.9 7.1-2 8.9-1 11.7.7 1.8 1.2 4.2 1.2 5.3 0 1 .9 3.2 1.9 4.7 1.5 2.3 1.7 3.6.9 6.9-.7 3.1-.5 4.6.7 6.4.8 1.3 1.5 3.7 1.5 5.3 0 1.7.7 3.4 1.6 3.9 1.5.8 1.5 1.2-.1 4.2-.9 1.8-2.5 3.4-3.5 3.7-3.1.8-9 10.7-9 15.1 0 2.6-.7 4.5-2 5.7-1.4 1.3-2 3.1-2 6.4 0 6.6-4.9 27.8-7.7 33.4-1.3 2.7-2.7 7-3 9.6-.5 4.3-.3 5 2.1 6.8 2.1 1.7 2.6 2.9 2.6 6.6 0 2.9.6 4.9 1.6 5.8 1.5 1.2 1.4 1.5-.5 3-2.6 2.1-1.9 4.4 2 6.4 1.5.8 3 2.4 3.4 3.5.5 1.6 1.5 2 5 2 3.9 0 4.5.4 6.4 3.5 1.6 2.7 2.7 3.5 4.9 3.5 3.8 0 5.1 1.2 10.7 10.2 3.5 5.6 5.4 7.8 6.9 7.8 1.5.1 3.7 2.6 8.1 9.6l5.9 9.5 9.6-.7c9.6-.6 9.6-.6 11.3 2 1.2 1.8 2.6 2.6 4.7 2.6 1.6 0 4.5 1 6.5 2.1l3.6 2.2 3.5-3.4 3.5-3.4-2.6-.8c-2.2-.8-2.5-1.4-2.5-5.3s.3-4.6 2.8-5.6c1.5-.6 4.7-1.2 7.2-1.3 7.1-.3 10.6-1.4 13-4.1 1.3-1.3 3.2-2.4 4.3-2.4 1.9 0 2 .6 1.3 22.7-.3 12.6-.9 37.6-1.2 55.6l-.7 32.9-2.3 1c-3.8 1.8-9.2.1-11.4-3.5l-1.9-3.1 3-5.2 3-5.3-4.3-1.1c-2.4-.6-5-1.3-5.8-1.6-.9-.2-3.7 1.4-6.2 3.5-2.9 2.4-9.1 5.6-16.2 8.4-11.3 4.6-11.4 4.6-15.4 3.1-3.7-1.5-4.2-1.5-8.6.4l-4.6 2.1-3.5-4.6c-2.9-3.9-3.5-5.4-3.5-9.7 0-4.5-.3-5.4-3.2-7.8-3.1-2.5-3.3-3.1-3.6-10.1l-.4-7.5-7.4-7.3-7.4-7.3-3 2.9c-2.9 2.8-3 2.8-5 1-1.1-1-2-2.3-2-2.8 0-.6-1.3-3.1-2.9-5.6-2.5-3.9-2.8-5.2-2.2-8.6.6-3.4.3-4.6-2.1-8.2-2.4-3.5-2.8-5.2-2.8-10.9v-6.7l-8.3.7c-5 .4-9.4.3-11.3-.4-2.2-.8-3.9-.8-6 0-2.5 1-3.1.8-4.5-.9-1.1-1.3-2.9-2.1-4.7-2.1-5.1 0-8.2-1.7-8.2-4.4 0-1.9-1-2.8-5.5-4.6-5.1-2.1-5.7-2.1-7.3-.7-1.6 1.4-2.6 1.5-8 .5-4.8-.9-6.2-1.6-6.2-2.9 0-1-2.1-3-5-4.8-2.8-1.7-5-3.8-5-4.7 0-.9-1.3-3.3-3-5.4-2.1-2.7-3.1-5.3-3.6-9.3-.7-5.6-.7-5.7-8.4-11.7l-7.7-6.1-1.2-8.6c-.6-4.7-1.2-8.7-1.4-8.9-.2-.2-3.9 0-8.2.4l-8 .7.3 4c.2 3-.3 4.8-1.9 6.8-1.8 2.4-2 3.6-1.5 7.6l.6 4.8-5.2 4.4c-9 7.5-8.3 7.2-11.5 5.6-2.5-1.4-3.1-1.3-6.4.4l-3.7 1.8-11.6-4.1-11.6-4.1-3.9 1.7c-3.6 1.7-4.1 1.7-10 0-5.4-1.5-6.7-1.5-10.2-.4-6 2-9.1.6-10.2-4.6-.6-3.5-1.3-4.3-4-5-2.4-.7-3.3-1.6-3.5-3.6-.4-3.2-2.8-4-6.2-2-2.4 1.3-3.1 1.1-9.4-2.4-6.7-3.6-6.9-3.7-11.7-2.5-5.8 1.5-7.9.5-7.9-3.9 0-2.4-.9-3.3-6.3-6.3-4.7-2.7-6.7-4.5-8.1-7.3-1.5-3.3-1.6-3.9-.3-4.9 1.3-.9 1.3-2.4.4-9.8-.8-6.9-.7-9.6.3-12.8 1.2-3.5 1.2-4.2-.1-5-2.1-1.3-3.6-1.1-8.7 1.5-3.4 1.7-7.9 2.7-16.2 3.6-6.7.7-13 1.9-15 3-1.9.9-5.6 2-8.1 2.4-4 .6-5.5 1.5-10.3 6.6-3.3 3.4-7.2 6.4-9.2 7-3.2 1.1-4.1 1-7.5-.9-2.5-1.4-4.7-2-6-1.6-2.8.9-9.9-2.3-9.2-4 .2-.8 2.2-1.6 4.3-2 3.3-.6 4-1.1 5.3-4.8.9-2.4 1.5-7.5 1.5-12V320l-3.8-3c-2.4-1.9-5-3-7.1-3.1-6.9-.2-8.3-1.1-9.1-5.8-.9-5.5-3.2-8.1-7.1-8.1-2.5 0-2.8.2-1.7 1.5 1 1.2 1 2.4 0 6-1 3.4-1 5.5-.1 8.7.6 2.4 1.6 9.6 2.1 16l1.1 11.8-5.8 10.9-5.8 10.9 2.4 5.4c1.4 2.9 2.4 6.6 2.3 8.3-.1 1.6-.5 9.6-.8 17.7l-.5 14.8 4.4 9.4 4.5 9.4-4.4 5c-2.7 3.1-5.9 8.5-8.1 13.7l-3.6 8.7 1.2 7.2c1.8 10.1 1.8 10.1 5.6 12.2 3 1.6 3.5 2.3 3.5 5.6v3.8l-24.2-.5c-13.4-.3-53.6-.7-89.4-1L1.2 485l-.6 2.2c-.3 1.3-.6 67.5-.6 147.2v144.8l4.3 4.7c3.2 3.6 4.7 6.6 6.5 12.4L13 804l7.9 3.9c8.2 4.2 9.1 5.4 9.1 12.8 0 1.8 5 7.6 19.7 22.9 19.3 20 20.4 20.9 43.8 37.6l23.9 17.2 14.1-2.9c7.7-1.5 20.1-4.6 27.5-6.7 7.4-2.1 14.9-3.8 16.7-3.8 1.8 0 8.3 1.8 14.5 4 11.4 4.1 21.9 6.3 35.8 7.6 4.1.3 9.9 1.5 12.7 2.6 7.7 2.8 16.7 9.2 20.7 14.6 2.2 3 6.6 6.7 12.3 10.4l8.9 5.7 13 .7c16.8.8 27.4 3.8 32.5 9l3.4 3.6 7.5-.5c4.1-.3 9.5-1.3 12-2.2 3.5-1.3 6.4-1.5 13-1 15.3 1.1 20.2 2.3 23.1 5.8 2.5 3 2.9 3.1 12.2 3.5 8.5.4 10 .2 13-1.7 1.9-1.1 4.1-2.1 4.9-2.1 2.3 0 10.9-4.9 14.6-8.4 1.8-1.7 4.9-6.3 6.8-10.3 3-6.3 4.7-8.3 13.2-15.6 5.3-4.5 12.8-10.7 16.5-13.7 7.5-6 9.9-9.3 11.7-16 .9-3.1 3.8-7.5 10-15.1l8.9-10.6 12.3-5.6c12-5.5 12.4-5.8 19.4-13.9l7-8.3 22.9-8 23-8.1 1.7-4.6c.9-2.5 1.9-8.5 2.1-13.4.3-4.9 1.2-10.6 2.1-12.6.9-2.1 1.6-5.4 1.6-7.3 0-5 5.2-11.5 9.2-11.5 3.4 0 11.9-5 17.5-10.3 4.5-4.3 11-6.8 27.1-10.8 4.6-1.1 9.6-2.5 11-3 1.5-.6 6.5-1.9 11.1-2.9 8.3-1.8 8.5-1.8 13.5.1 4.2 1.5 6.5 1.8 12.8 1.3 4.2-.4 8.5-.3 9.5.1 1 .5 5.9.9 10.8.9l9.1.1.2-12.2.3-12.2-4.6-6.6c-5.3-7.7-5.7-9.2-5.3-16.9l.3-5.8 24.7-10.3c24.5-10.2 25-10.4 53.9-16.9 29-6.6 29.1-6.6 34.1-10.8 4.2-3.5 6.1-4.3 12.4-5.4 5.2-.9 9.4-2.5 14.1-5.2 6.1-3.6 12.5-5.4 64.8-18.7 31.9-8.1 58.2-14.8 58.3-15 .2-.2-.9-1.9-2.4-3.8-2.4-3.1-3.2-3.5-6.3-3-2 .3-4.5 1.4-5.6 2.4-2.2 1.9-5.5 1-5.5-1.5 0-.8-1.6-4-3.5-7.1-1.9-3.2-3.7-6.6-4-7.6-.4-1.1-2.1-1.9-5-2.4-3-.4-4.9-1.3-5.5-2.6-.6-1-.7-1.9-.3-1.9.4-.1 1.9-1 3.2-2.1l2.4-2-2.7-2.8c-1.5-1.6-4.1-3.1-5.7-3.5-2.1-.4-2.9-1.1-2.9-2.6 0-1.1.7-2 1.5-2 2.9 0 9.2-3.9 11-6.7 1-1.5 2.8-3.9 4-5.3 1.3-1.4 2.6-4.1 3-6 .9-4.5 5.1-12.7 6.7-13.2.9-.3.8-1.3-.4-4.2-1.3-3.5-1.3-4.4.4-10.4 1-3.7 1.8-8.8 1.8-11.3 0-3.8-.4-4.8-2-5.2-1.6-.4-2-1.4-2-4.8 0-3.3.9-5.7 4.1-10.6 3.9-5.9 4.4-6.3 8-6.3 2.1 0 5 .5 6.4 1.2 2.3 1 2.9.8 6.1-2.3 2.5-2.4 5-3.7 8.7-4.4 4.6-.9 5.2-1.3 5.5-3.7.3-2.2 1-2.9 3.8-3.4 1.9-.3 3.4-1.1 3.4-1.7 0-.6.9-2.1 2.1-3.3l2.1-2.2-2.9-1.6c-1.7-.8-5-2-7.5-2.6-3.7-.9-4.8-1.8-6.2-4.6-.9-1.9-1.6-4.2-1.6-5.2-.1-.9-.7-3.4-1.4-5.5-1.2-3.3-1.2-4.2 0-6.5.8-1.5 1.4-3.4 1.4-4.3 0-.9.7-3.3 1.5-5.3 1.1-2.6 1.3-4.6.6-7.5-.7-3.1-.5-4.3.7-5.5 1.4-1.4 1.4-1.9 0-5.4-1.2-3.1-1.3-4.5-.3-7.9 1.1-3.8 1.1-4.3-1.1-6.6-1.3-1.4-3.3-2.8-4.4-3.2-2.1-.7-2.4-1.8-1.1-5 .5-1.1.5-3 0-4.1-.4-1.2-.5-3.1-.2-4.2.5-1.9.7-2 2.7-.7 2.3 1.6 3.6 1.1 3.6-1.1 0-.7 2.5-5.4 5.5-10.4s5.5-9.6 5.5-10.3c0-.7-1.8-3.9-4-7.2-2.8-4.2-4-7.1-4-9.6 0-2.1-.7-4.2-1.6-4.9-.8-.8-2-2.2-2.6-3.3-.9-1.7-.8-1.9.7-1.3 1.1.4 2.5 0 3.5-.9 1.1-1 4.5-1.8 8.7-2.2 6.5-.5 7.2-.8 8.8-3.7 1-1.7 4.9-6.3 8.7-10.1l6.7-7.1-5.6-8.4-5.6-8.3.6-7.4.6-7.4-9.5-7.5c-5.2-4.2-9.4-7.9-9.4-8.3.1-.3.9-4.2 2-8.6 1-4.4 1.6-8.4 1.2-9-.3-.5-2.7-3.7-5.3-7-3.8-5-4.6-6.5-4.2-9.1.8-5-1.1-7.4-5.7-7.4-3.3 0-4 .3-4 2 0 2.4-.9 2.5-5.5.6-2.9-1.3-3.5-2-3.5-4.6 0-1.7.4-4 1-5 .8-1.5.4-2.2-2.5-3.9-2.4-1.4-3.5-2.8-3.5-4.4 0-2.9-1.6-4.4-10.3-9.2-4.5-2.5-7.7-5.1-9.4-7.6-2.7-4.1-3.1-4.3-16.6-7.4-7.2-1.8-7.5-1.9-9.6-6.2L917 159h-9.6c-8.5 0-9.9-.3-12.7-2.4-5.4-4-10.7-5.8-15.7-5.2-4.3.5-4.6.3-7.2-3.1-1.6-2-2.8-4.6-2.8-5.9 0-2.2-2.1-3.3-12-6.6-.8-.3-3.3.4-5.4 1.4l-3.9 2-5.1-5.1c-4.9-4.9-5-5.2-5.1-10.8v-5.8l-3.5-.3c-2.2-.2-5.5-1.9-8.8-4.5-5-3.8-5.6-4-9.1-3.1-3.2.9-4.2.7-7.2-1.2-2.7-1.9-4.9-2.3-11-2.3l-7.6-.1-12.2-16c-10.6-14-12.5-16-14.9-15.9-1.5.1-38.6 4.5-82.4 9.8z"/></svg>
