<svg version="1.0" xmlns="http://www.w3.org/2000/svg" width="1365.333" height="1365.333" viewBox="0 0 1024 1024"><path d="M748.3 106c-10.2 3.6-14 7.4-9.7 9.8 1.3.7 1.4 1.5.5 4.8-1.4 5-1.4 5.4.3 5.4.8 0 1.7-1.2 2.1-2.8l.7-2.7 1.1 2.5c1.5 3.5 1.7 3.6 2.7 2 .7-1.1 1.1-1.1 2.4-.1.8.7 2 1 2.6.6 1.4-.8 1.3-3.2-.1-3.7-.9-.3-.8-1.1.2-2.8.7-1.4 1.5-4.3 1.8-6.5.5-3.5 1-4 3.4-4.3 2.4-.3 2.7 0 2.7 2.5 0 1.5-.9 4.1-2 5.8-1.3 2-2 4.7-2 8.2v5.1l-4.6 1.6c-3.9 1.3-5 1.3-7.3.2-2.8-1.4-9.3-.6-9.9 1.3-.2.7-3.3 1.1-7.7 1.1-6.2 0-7.3.3-7.8 1.9-.2 1 0 2.6.5 3.5.7 1.2.3 2.4-1.5 4.5-2.4 2.8-2.4 3.1-1.2 9.8.9 5 2.3 8.6 5.4 13.5l4.3 6.7-3.2 5.6-3.2 5.7 3.1 3.2c3.1 3.2 3.4 3.3 7.6 2.3 4.4-1 4.6-.9 10.2 3.5 3.2 2.5 5.9 5.5 6.1 6.7.2 1.1 1.6 3 3.2 4.1 1.6 1.1 3.9 3.7 5.1 5.7 2.2 3.6 2.3 3.6 3.3 1.4.7-1.5.6-5.5-.1-12.3-.6-5.5-.9-10.7-.6-11.5.8-2 7.2 4.3 13.3 13.2 2.6 3.8 7.3 9.2 10.4 11.8 5.2 4.5 5.9 4.8 8.6 3.9 2.8-1 2.9-.9 4.4 3.6 1.8 5.2 2.1 11.8.6 12.7-.5.3-1-.1-1-.9 0-1.8-.8-2-3-.6-1.3.8-1.3 1.6.1 6.7 1.5 5.7 1.5 6-1 13.5-2.2 6.4-3.2 8.1-6.3 10.2l-3.8 2.5-4.1-5.4c-3.6-4.7-6.9-7.1-6.9-4.8 0 .3 2.4 5.2 5.3 10.7 3 5.6 6 11.8 6.6 13.9.8 2.3 2.3 4.3 3.7 4.9 1.9.9 2.4 1.9 2.4 4.9 0 2.8.5 4.1 2 4.9 1.2.6 2.5 2.2 3 3.5.7 1.8 1.4 2.3 2.6 1.8 1.4-.5 1.6-.2 1 2.1-.5 2 0 3.5 1.9 6 3.1 4.1 3.1 6 .3 8.8-1.3 1.2-3.6 4.9-5.3 8.2-2.1 4.3-3.6 6.2-5.2 6.4-1.6.2-2.3 1.2-2.8 4.2-.4 2.2-1.5 5-2.5 6.3-1.9 2.4-1.9 2.4.5 3.5 4.5 2.1 5.2 4.7 5.8 20.4.4 11.5.2 15.1-.9 16.5-.7 1-1.4 2.9-1.4 4.3 0 1.6-1.2 3.4-3.3 5.2-3.1 2.4-3.7 2.5-8.1 1.5l-4.7-1.1-4.7 4.7-4.7 4.6-7-.7-6.9-.7-3-4.8-2.9-4.7 1.2-8.8c.9-6.1 2.2-10.3 4.3-14.2 2.5-4.4 3.1-6.9 3.5-13.5.4-7-.2-11.1-5.1-33.5-6.1-27.4-6.5-33.4-2.5-38.4 1.8-2.3 1.8-2.3-.5-3.4-2.7-1.2-8.1-7.6-12.6-15-3.1-5.1-3.3-5.7-2.7-12.8l.6-7.5-2.7.3c-2.2.3-3.1-.5-5.9-5.2-2.9-4.9-3.1-5.5-1.5-6.4 2.6-1.4 2.6-1.5.7-3.6-2.3-2.5-6.5-2.7-6.5-.3 0 1-2.4-2.3-5.4-7.2-4.9-8-5.4-9.4-4.9-13.1.5-4.1.5-4.1-2.8-4.7-1.9-.2-3.8-.1-4.3.4-1.5 1.3-2.8 1.1-5.3-1-1.9-1.6-2.6-3.8-3.8-13-.9-6.1-1.3-11.6-1-12.1.3-.6 1.4-1 2.5-1s2.2-1.1 2.8-2.9c.7-1.9 1.8-3.1 3.4-3.3 3.2-.4 3.9-5.3.9-6.3-1.4-.4-2.1-1.5-2.1-3.1 0-3.6 3.4-3.1 6.6 1.1 1.7 2.3 3.5 3.5 5 3.5 1.8 0 2.5.7 3.2 3.2l.8 3.3-5.5.5c-6.2.6-8.1 1.4-8.1 3.6 0 1.1 1.5 1.4 6.5 1.4 6 0 6.5.2 7.1 2.4.3 1.4.3 3.4-.1 4.5-.6 2.1-.7 2.1-5.6-.4-4.7-2.5-6.6-2.1-3.3.6 1.1.9 1.4 2.3 1.1 4.5-.4 2.6 0 3.7 2.4 6 2.3 2.2 2.9 3.6 3 7.3 0 2.5 1 7.3 2.2 10.5 2.1 5.8 2.4 6.1 8.2 8.3 4.1 1.6 6.7 2.1 8.3 1.5 2.2-.7 1.9-1.2-5.7-8.1l-8.1-7.3v-8.6c0-6.2.4-9 1.5-10.2.8-.9 3.1-5.5 4.9-10.1l3.4-8.4-2.9-3c-1.6-1.7-2.9-3.5-2.9-4 0-.6-.4-1.6-.9-2.3-.7-1.2-1.4-1.1-3.8.2-3.4 1.7-4.3 1.3-4.3-1.9 0-1.9.7-2.3 4.1-2.8 2.2-.3 4.2-.7 4.4-.9.1-.1.6-2.9.9-6l.7-5.6-5.9-4.1-5.9-4-6 6.2c-4.4 4.6-7 8.4-9.9 14.7-2.1 4.7-4.2 9.1-4.7 9.8-.5.7-4.7 3.5-9.4 6.3-6.3 3.9-8.8 6-10.3 8.9-1.1 2.2-2 4.3-2 4.7 0 .5 5.1 3.9 11.3 7.6 13.3 7.9 16.2 10.8 25 24.8 7.8 12.3 10.4 19.2 11.8 30.6 1.2 10.9 2.9 14.1 11 20.7 10.1 8.4 13.6 14.8 16.9 31.3 2.2 10.8 2.6 15.1 2.2 22.4-.4 8.4-.3 9.3 2.3 14.1 2.7 5 2.8 5.2 2.1 17.7-.7 11.1-1.6 15.9-7.7 39.4-3.8 14.7-6.9 28.6-6.9 30.8 0 2.7-1.4 6.8-4.6 13-4.5 9-4.5 9.1-3.8 16.2.6 5.8 1.4 8.2 4.1 12.3l3.4 5.2 4.2-1c2.3-.5 4.2-1 4.3-1.1 0-.1 1.5-2.7 3.2-5.7 4.3-7.5 8.4-10.6 26-19.4 14.3-7.1 15.6-7.6 21.7-7.6 5.1 0 8 .6 13.2 3 4.9 2.2 8.1 3 12.4 3 4.9 0 6 .4 7.6 2.4 1 1.3 7.4 5.4 14.2 9.1 13.7 7.3 23.3 14.6 29.6 22.7 2.6 3.4 6.7 6.9 10.9 9.4l6.7 4 7.9-.8c7.7-.8 8-.8 13.7 2.3 3.2 1.8 9.5 5.9 14.1 9.2 8.7 6.2 11.6 9.8 20.6 25.5 5.8 10.2 6.5 14.8 4.1 26.1-1 4.5-1.5 8.4-1.1 8.8 1.6 1.7 8.5-7.2 11.3-14.5 2.8-7.5 2.8-7.5 9.1-10.5 5.2-2.4 7.1-2.8 11-2.4 9.9 1.2 19.1 3.9 28.8 8.3 9.6 4.3 10.3 4.9 13.9 10.5 3.2 4.9 4.4 5.9 6.7 5.9 3.2 0 3.8-2.1 1.2-4.2-7.8-6.2-8.4-7.2-8.4-14.8 0-3.9.5-8 1.1-9.2.9-1.6.6-2.5-1.4-4.7-3.8-3.9-4.9-7.8-4.2-14.2.6-5.1 1-5.7 3.8-7 4.7-2 4.6-5.5-.3-18.4-4-10.5-4.1-10.9-2.9-16.3 1.1-4.5 1.9-5.8 4.5-7.4 3.2-1.9 4.4-5.1 4.4-12.2 0-1.6 1.2-4.5 2.7-6.4l2.6-3.5-.1-19.3c-.1-17.5-.3-19.6-2-22.1-1.6-2.2-2.1-5.2-2.6-14.7-.5-10.1-1-12.6-3-16-2.9-5-6.6-17.8-6.6-23.2-.1-2.4-1-5.5-2.5-7.9-1.4-2.3-2.5-5.5-2.5-7.6 0-2.2-.7-4.2-1.9-5.3-1-.9-2.2-3.1-2.5-4.8-1.8-9-2.7-10.9-5.7-12-1.6-.5-2.9-1.6-2.9-2.3 0-.8-1.1-2.7-2.4-4.3-1.5-1.7-2.3-3.6-2-4.8.5-1.9-4.6-7.1-16.3-16.4-2.4-1.8-4.3-3.7-4.3-4.2s-3-4.4-6.8-8.8c-5.6-6.6-8.5-9-17.2-14.1-11.8-6.9-13-8-13-12.4 0-2.6-.7-3.5-5.4-6.3-7.5-4.4-17.6-19-17.6-25.4 0-3.3-.8-4.1-7.6-7.7-4.7-2.5-6.3-3.9-6.7-5.9-.4-1.6-2-3.6-4.2-5-2.8-1.8-3.5-2.8-3.5-5.5 0-4.6-6.2-10.7-11.1-10.9-1.9 0-4.3.4-5.4.9-1.1.6-3.4.8-5.1.6-3.9-.6-7.4 1.1-7.4 3.6 0 1.7-1.8 3.1-4.1 3.1-.5 0-.9-.7-.9-1.5s-2.5-3.4-5.5-5.8c-3-2.3-5.5-4.9-5.5-5.8 0-.8-.5-2-1.2-2.7-1.5-1.5-6.5-1.6-7.4-.1-.4.8-2.6.9-6.5.5-5.4-.6-5.9-.5-5.9 1.3 0 1.1.5 2.3 1 2.6.6.3 1 1.7 1 2.9 0 1.7.9 2.7 3 3.6 2.6 1.1 3 1.8 3 4.9 0 6.4-.9 8-5.2 9.3-3.6 1.1-10.8 7.7-10.8 10 0 .4 1.4.8 3 .8 2.3 0 3.3-.6 4-2.5.7-1.9 1.7-2.5 3.9-2.5 1.9 0 4.8-1.5 8.7-4.5 6.1-4.8 7-5.2 7.6-3.4.6 1.9 6.5-1.7 7.2-4.3l.6-2.3 2 2.5c1.1 1.4 2 3 2 3.5 0 1.8-5.8 7.5-7.7 7.5-1.1 0-3.4 1.1-5.3 2.5s-4 2.5-4.7 2.5c-.7 0-1.8 2-2.4 4.5-1.3 5.1-3.5 6-4.5 1.7-1-4.8-1.3-5.2-3.5-5.2-1.8 0-2 .5-1.6 2.6.6 3.5-2.1 4.4-13.9 4.4-8.4 0-10.4-.4-16.7-3-4-1.7-8.6-4.3-10.3-5.8-4.4-3.8-9.5-14.4-10.6-22.2-.5-3.6-1.2-8-1.5-9.8-.5-3.2-.4-3.3 2.1-2.6 1.6.4 4.4 0 7-1 5.9-2.2 9.4-7.4 10.4-15.2l.8-5.9 2.9 4.5c2.4 3.7 2.9 5.6 2.9 11 .1 4.5.7 7.4 1.9 9.3l1.8 2.7-3.4 1.6c-3.3 1.6-3.4 1.8-2.6 5.3.5 2 .6 4.4.3 5.5-.6 1.7-.2 1.8 4.2 1.2 2.7-.4 7.2-1.8 9.9-3.1 2.8-1.2 6.7-3.1 8.8-4l3.9-1.7-2.5-2.6c-1.4-1.5-3.6-5-5-7.8s-4.2-6.5-6.2-8.2c-1.9-1.8-6.2-7.6-9.4-12.9-3.3-5.4-7.3-10.8-8.9-12-1.8-1.3-3.3-3.6-3.7-5.5-.5-2.2-3.7-6.2-10.4-13-9-9.2-9.8-9.8-13.6-9.7-2.2 0-6.4.9-9.2 1.9zM173 497.5c-.7.8-2.1 1.5-3.1 1.5s-2.3.9-2.8 1.9c-1.3 2.3-10.6 7.1-13.7 7.1-1.2 0-2.4.7-2.8 1.5-.3.9-1.8 1.5-3.4 1.5-1.6 0-3.7.9-4.7 2-1.6 1.7-1.6 2.3-.2 6.3l1.5 4.3-4.2 5.7c-2.2 3.1-6.3 7-8.9 8.7-2.6 1.7-4.5 3.5-4.2 4 .4.7 1.3.7 2.5 0 3.3-1.8 3.7-1.1 4.3 6.8.6 10.1-.1 17.2-1.9 17.2-.7 0-3.1.9-5.4 2.1-2.2 1.1-5.9 2.3-8.2 2.6l-4.3.6 2.4-2.7c1.4-1.4 3.5-2.6 4.7-2.6 2.5 0 4.5-2.1 2.6-2.8-.7-.2-1.2-.9-1.2-1.6 0-2 4.6-5.8 6.6-5.4 1.5.2 2-.4 2.2-2.9.3-2.5-.3-3.6-2.7-5.4-1.6-1.2-3.2-3-3.4-4-.6-2.2-3.4-3.6-4.8-2.2-.6.6-.1 1.8 1.2 3.1 3.2 3.5 1.8 8.6-5.2 18.7-5.9 8.3-6 8.7-5.9 14.8.1 3.4-.1 7.1-.5 8.2-.4 1.4 0 2.7 1.4 3.9 1.2 1.1 2.1 2.3 2.1 2.8 0 1.6-3.9.8-5.8-1.3l-2-2-1.8 2.3c-1.1 1.3-2.6 2.7-3.5 3-1.2.5-1.5 1.4-1.2 3.2.6 3.1 2.2 3.3 5.6.6 2.9-2.3 4.8-2.5 6.5-.8.7.7 3.9 1.3 7.3 1.4 5.1.2 6 0 5.7-1.4-.2-1-1.9-2-4.1-2.5-2.7-.7-3.7-1.4-3.5-2.6.5-2.5 5.4-2.6 8.4-.2 1.5 1.2 3.5 2.1 4.6 2.1 1.2 0 2.4 1.2 3.3 3.2 1.5 3.7.5 5.9-2.5 5.1-1.2-.3-2.2.2-2.9 1.6-1 1.7-2.1 2.1-6.6 2.1-4.7 0-5.5.3-5.5 1.9 0 2.6 7.7 4.7 11.9 3.3 2.5-.9 3.1-.8 3.1.2 0 .8 2.3 2.8 5 4.6 3 1.9 5 3.9 5 5s1.6 2.8 4 4.1c4.5 2.5 4.7 3 2.3 5.5-1.4 1.3-2.9 1.6-8.4 1.1-10-.8-13-2.5-15.8-8.6l-2.5-5.1-2.3 2.2c-1.7 1.6-3.8 2.3-8.1 2.5-13 .6-15 .1-18.9-5.6-3.5-5-9.4-7-15.2-5.2-2.1.6-4 1.1-4.3 1.1-.2 0-1.5-2.3-2.8-5-2.5-5.4-3.1-5.8-5-3.6-1.4 1.8-3.6 1.1-7-2-1.5-1.3-3.7-2.5-5-2.5-3.6-.3-14.4 3.1-13.3 4.1.4.5 3.5 1 6.8 1.2l6 .3.3 3.7.3 3.8h-4c-2.7 0-4.9.8-6.8 2.3-1.5 1.3-4.7 3.4-7 4.7-6.5 3.6-5.6 5.4 1.2 2.6 2.8-1.2 3.5-1.2 3.5-.2 0 2-3.3 4.5-6.8 5.2-2.6.5-3.5.2-5.6-2.2-1.3-1.6-2.7-2.6-3.1-2.2-.3.3-.7 4-.8 8.2-.1 4.4-.6 7.6-1.2 7.6s-1.9 1.7-3 3.7-3.5 5.5-5.2 7.7c-3.8 4.8-4 5.7-1.3 8.1 2.7 2.4 2.5 4.3-.5 5.7-1.4.6-2.8 2.1-3.1 3.4-.4 1.5-1.1 2-2.5 1.7-2.2-.6-2.3-.4-.9 3.1.5 1.4 1.6 2.6 2.5 2.6.8 0 1.5.7 1.5 1.6 0 1.2.6 1.5 2.3 1 1.2-.3 3.2-.6 4.3-.6 1.4 0 3.1-1.5 4.8-4 3.5-5.3 7-6.7 11.5-4.5 3.2 1.5 3.5 1.5 5.5-.5 1.3-1.1 3.6-2 5.3-2 1.7 0 5-.7 7.3-1.5 2.6-.9 5.7-1.3 7.6-.9 2.5.5 4 .1 6-1.5 1.5-1.2 3.6-2.1 4.8-2.1 2.6.1 5.6 2.2 5.6 4 0 .8.8 2.2 1.7 3.2 1.5 1.7 1.5 2.3.4 5.1-.8 1.8-1.4 4.1-1.5 5.3-.3 2.6-2.6 5.8-4.8 6.7-1 .3-1.8 1.6-1.8 2.7 0 1.2-1.1 3.6-2.5 5.4-1.4 1.8-2.5 4.2-2.5 5.3 0 2.5-4 6.3-6.7 6.3-1.1 0-4-.7-6.3-1.5s-6.2-1.5-8.7-1.5c-3.8 0-5 .6-9.2 4.5-5.2 4.8-7.3 5.4-11 2.9-1.9-1.4-2.7-1.4-4.9-.4-1.5.7-3.6 1.3-4.7 1.4-2.9.1-10.5 8.7-10.5 11.9 0 1.4.7 2.8 1.6 3.1 1.9.7 1.8.8 3.2-2 .9-1.7 2.5-2.3 7.2-2.9 5.8-.7 6.2-.6 9.6 2.5 2.6 2.2 4 2.8 4.7 2.1 1.5-1.5 7.8-1.3 10 .3 2.7 2.1 2.4 9.9-.5 11.8-1.7 1.1-2.7 1.2-4 .5-1.3-.9-2.2-.7-3.7.7-3.8 3.4-2.2 6.5 2.3 4.5 5.8-2.7 9.1 2.9 11.2 18.9.6 4.6.4 5.6-1.5 7.6-1.5 1.6-2.4 4.1-2.8 7.9-.5 4.5-1 5.7-2.9 6.6-1.5.6-2.5.7-2.9.1-1.1-1.9-4.2-1-5.3 1.5-.6 1.3-2.5 3.1-4.2 4-3.2 1.7-3.9 3.9-1.6 4.8.8.3 2.2 1.8 3.2 3.2 1.4 2.1 1.5 3 .5 5.1-1 2.2-.9 2.6.7 3.1 2.4.6 6.2 18.1 4.2 19.3-1 .6-.1 2.4 3.2 7.2 5 7 7.1 12.8 5.9 16.1-.7 1.8 0 3 3.2 6.4 3.7 3.9 4.4 4.3 7.6 3.7 2.6-.5 3.7-.3 4.7 1.1 1 1.4 2 1.6 4.6 1 9.1-2.2 28.5.3 37.6 4.8 4.1 2 4.4 2 5.3.4 1.2-2 5.6-2.2 9.3-.6 1.9.9 2.7 2.2 3.2 5.4.5 3.6 1 4.4 3.2 4.8 1.5.3 4.3.1 6.3-.5 2.7-.8 4.6-.6 8.2.6 2.6.9 6.8 1.6 9.3 1.6 7.2 0 11.1 3.4 6.7 5.9-2.9 1.6-.3 3.4 3.1 2.1 3.9-1.4 5.3-1.3 7.4 1 1.7 1.9 1.9 1.9 5.2.2 2.1-1 3.7-2.7 4-4.2.8-3.4 3.1-3.6 6-.5 2 2.1 2.2 2.8 1.2 5-.7 1.4-1.2 5.3-1.2 8.5s-.5 7.1-1.2 8.5c-1.3 2.9-1.2 3.1 2.5 4 2.3.6 2.7.4 2.7-1.4 0-1.7.6-2.1 3.4-2.1 1.8 0 3.9-.7 4.6-1.5.9-1.1 3.2-1.5 7.9-1.5 5.9 0 6.7-.2 7.6-2.2 1-2.4 1.7-2.5 9.1-1.3 3.6.6 4.2.5 4.6-1.2.7-2.6 5.5-3.6 6.7-1.5.6 1 1.6 1.3 3.6.8 2.6-.7 2.7-.9 2.2-5.1-.4-2.3-.8-4.9-.9-5.6-.2-.7 1.2-1.7 3-2.2 2.6-.8 3.6-.7 5.3.9 1.6 1.4 2.4 1.6 3.7.7 1-.6 4.1-1.4 6.9-1.8 4.5-.6 5.2-.4 5.7 1.3 1.2 3.6 4 5.1 11.1 5.8 6.2.6 7.4 1 11 4.4 5.6 5.2 9.5 8 11.1 8 2.2 0 1.7-1.6-1.6-5.3-1.6-1.9-3-4.4-3-5.5 0-3.4 1.9-7.2 3.5-7.2.9 0 1.5-.6 1.4-1.3-.3-2.6.2-3.6 1.9-3.9 1.1-.2 1.7-1.3 1.7-3.2 0-2.8 1-3.8 4.8-5 .9-.3 1.7-1.4 1.7-2.5 0-3.3 5.3-5.5 9.6-4.1 1.9.6 4.9 1 6.7.9 4.8-.4 10.6 1.1 11.7 3.1.6 1.2.3 3.4-1.1 7.1-1.9 5-2 5.6-.5 8.6 1.5 3.2 1.5 3.4-.7 4.3-1.2.5-5.5 1.4-9.4 2-6.6 1.1-7.3 1.4-7.3 3.5 0 1.6-.7 2.5-2.5 2.9-4.8 1.2-1.6 7.6 3.8 7.6 4.7 0 5.9 1.2 5.5 5.5-.3 4.1-.6 3.9 7.5 5.9 2.5.6 2.7.4 2.7-2.2 0-2.4.8-3.2 5.5-5.5 3.1-1.5 6.4-2.7 7.4-2.7 2.6 0 3.2-1 1.6-2.6-.7-.8-1.1-2.2-.8-3.3.3-1.3-.2-2-1.9-2.4-1.8-.5-2.3-1.3-2.4-4.2-.1-4.5 1.3-4.4 6.1.5 3.5 3.6 3.7 4 1.7 4-3.4 0-2.6 1.6 2.3 4.7 3.7 2.4 4.4 3.3 4.5 6 0 3-.3 3.3-3 3.3-1.8 0-3 .5-3 1.3 0 2.1 2.2 3.7 4.9 3.7 2.9 0 9.1 3.4 9.1 5 0 .5 1.1 1 2.5 1s2.5-.5 2.5-1c0-.6.9-1 1.9-1 1.1 0 2.3-.5 2.6-1.1.4-.6 1.4-.8 2.2-.5.9.4 2.2.1 2.9-.5 1.1-.9 1.5-.7 2 .6 1.1 2.9 6.3 1 11.2-4 2.7-2.9 5.2-4.5 6.7-4.5 1.4 0 2.9-.9 3.5-2 .9-1.7.7-2-1.5-2.6-1.4-.4-2.9-.4-3.2 0-1.2 1.2-3.3-1.7-3.3-4.7v-3l2.5 2.3c1.4 1.3 2.5 1.8 2.5 1.2 0-.7 1.1-1.2 2.4-1.2 3.7 0 7.5 5.5 6.9 9.8-.5 3.2-.4 3.3 2.3 2.7 1.6-.4 3.5-.8 4.2-1.1.8-.2 1.2-2.4 1.2-6.3 0-5.7-.2-6.2-5.5-12.6-4.5-5.5-5.5-7.4-5.5-10.5 0-4.1 1.3-5 7.7-5 3.1 0 3.2.1 2.6 3.2-.3 1.8-.6 3.5-.5 3.8.1 4.4.1 4.4 2.7 2 1.4-1.3 2.5-3.4 2.5-4.7 0-1.3.9-3.2 2-4.3 1.2-1.2 2-3.3 2-5.5 0-3-.9-4.5-5-8.5-2.7-2.8-5.3-5-5.8-5-.6 0-1.2-.7-1.6-1.5-.3-.9-1.8-1.5-3.5-1.5-5.7 0-6.1-.6-6.1-8.5 0-6.7-.2-7.5-2.5-9.2-1.7-1.2-2.8-3.3-3.4-6.5-.4-2.6-2-6.1-3.5-7.9-1.7-2-2.5-3.8-2.1-4.8.4-.9 1.2-2.8 1.7-4.4 1.2-3.2 1.7-3.3 6.9-.6 4.1 2 4.1 2 6.3.1 1.1-1.1 2.8-2.2 3.6-2.3 3.1-.6 7.8 1.3 10.5 4.1 1.5 1.6 4.2 3.2 5.9 3.6 1.7.4 4.5 2.1 6.1 3.9 1.8 2 4.8 3.7 7.5 4.5 2.5.6 6.1 2.7 8 4.5 2 1.9 7.2 4.8 12.2 6.8l8.8 3.5 20.7-.8c20.4-.8 20.8-.8 23.1 1.3 2.2 2 2.3 2 4 .3 1.2-1.4 1.4-2 .5-2.3-.7-.3-1.3-1.3-1.3-2.4 0-1.5.4-1.7 2.4-.9 1.8.7 2.8.5 3.7-.6.9-1.1 2.2-1.4 4.6-.9 3.6.7 7.3-.8 7.3-3 0-1-.9-1.2-3.7-.8-2.1.3-4 .7-4.2.9-.7.6-4.1-5-4.1-6.7 0-2 3.1-4.9 5.3-4.9.9 0 1.7.7 1.7 1.5 0 2.3 1.3 1.8 4.9-1.9 3-3.1 3.2-3.8 2.6-7.4-.6-3.5-.4-4.2 1.5-5.2 1.5-.8 2.6-.8 3.2-.2.6.6 2.2.7 4 .2 2.6-.8 2.8-.7 2.2 1.2-1.2 4 1.7 3.8 7.2-.5 5.6-4.5 6.3-6.4 2.2-5.9-3.1.3-6.7-4.1-4.5-5.5 1.2-.8 5.7-9.1 5.7-10.5 0-.4-1.2-.8-2.7-1-2.3-.3-2.8-.9-3.5-4.3-.4-2.2-1.5-5.2-2.3-6.8-1.5-2.4-1.5-2.7-.1-2.7 2.5 0 1.9-4.9-.9-8.6-2.6-3.4-3.2-5.4-1.6-5.4.5 0 2.2-.5 3.6-1 2.2-.8 2.5-1.3 1.5-2.5-.8-.9-2.2-1.2-4.1-.8-2.2.4-2.9.2-2.9-1 0-.8.9-1.7 2-2 2.7-.7 2.8-7.2.2-8.6-2.4-1.3-4.2.4-4.2 3.6 0 1.6-.6 2.3-2 2.3-1.1 0-2 .4-2 .9 0 .6-1.9 1.1-4.2 1.3-4 .3-4.3.5-4.6 3.5-.3 3.5-1.6 4.3-2.6 1.8-.6-1.7-4.7-2-6.2-.5-.6.6-2.5.7-4.9.3l-3.8-.8 2.8-3.3 2.8-3.3-5.4.3c-4.8.3-5.4.6-5.7 2.6-.3 1.6-.8 2.2-1.9 1.8-.8-.3-1.6-.6-1.7-.6-.2 0-.1-1.1.1-2.5.4-1.9 0-2.5-2.1-3.1-1.9-.4-2.6-1.3-2.6-2.9 0-1.3.5-2.5 1.1-2.7.6-.2-.9-1.4-3.2-2.7-3.9-2.2-4.3-2.3-5.4-.8-.7 1-2.2 1.7-3.4 1.7-1.6 0-2.6.9-3.4 3-.9 2.4-2.4 3.5-7.9 5.6l-6.7 2.5-3.6-2.8-3.5-2.8 3.1-.8c2-.5 3.6-.4 4.5.4 1.1.9 2.3.3 6.2-3.3 2.6-2.5 5.9-5.2 7.4-6.2 3.3-2.2 4.4-6.2 2.3-8.6-2.1-2.4-.4-3.7 7-5.2 4.6-.9 5.8-.9 6.5.2.6 1 1.7.6 4.6-1.8 2.1-1.8 4.6-3.2 5.5-3.2.9 0 2.2-.7 2.9-1.5 1.6-1.9.5-4.9-1.5-4.1-4.3 1.7-4.7 1.5-1.7-1.1 2.4-2.1 3.2-3.6 3.2-6.1 0-1.7.4-3.2.9-3.2 1.2 0 4.1 4.6 4.1 6.4 0 .9 1.2 2.2 2.7 2.9l2.7 1.4-2.2 1.2c-1.2.6-2.2 1.8-2.2 2.7 0 2.2 2.8 2.8 4.9 1 2.2-2 3.2-2 7.6.1 4.3 2 5.4 1.1 3.3-2.5-2.6-4.3-1.3-10.9 2.3-12.8 2-1 2.9-2.2 2.9-3.8 0-5.4-2.4-7.4-4-3.4-.6 1.7-.9 1.8-.9.6-.1-.9-1.1-1.8-2.3-2-1.3-.2-2.4-1.1-2.6-2.1-.3-1.4.5-1.7 5.2-1.7 6 0 7.6-1.3 7.6-6.4 0-1.8.4-2.4 1.5-2 1 .4 1.5 0 1.5-1.3 0-1.1.9-2.8 2-3.8 2.5-2.2 2.5-2.7 0-4.2-2.8-1.8-5-.6-5 2.8 0 1.8-.5 2.9-1.3 2.9s-2.2.9-3.2 2-2.9 2-4.2 2c-1.3 0-3.3.5-4.4 1-2.9 1.6-4.1.3-2.3-2.4.9-1.4 2.9-2.7 5-3.1 3.4-.6 6.7-4.6 5.1-6.1-1.2-1.3-12.9 3.1-14.4 5.3-1.8 2.7-7.3 3.3-7.3.8 0-2-2.9-1.9-5.1.1-2 1.8-3.9 1.1-3.9-1.4-.1-2.2-8.4-7.2-11.8-7.1-1.5 0-3.7-.2-4.8-.6-1.7-.5-2.3-.2-2.7 1.7-.4 1.4-1.8 3-3.2 3.8-1.4.7-2.5 1.7-2.5 2.1 0 1.2 3.8 2.1 6 1.4 1.1-.4 2-.2 2 .4 0 1.5-3.5 3.1-7 3.1h-3l1.6 2.6c1.5 2.2 1.5 2.7.3 3.5-2.5 1.6-5.7 1-6.4-1.1-1.2-3.8-3.1-2-4.4 4.1-1.1 5.6-1.4 6-2.8 4.7-1.3-1.4-1.3-2.1.6-6.3 2.5-5.7 2.5-5.5.4-5.5-1 0-3.1 1.8-4.7 4-1.8 2.4-3.8 4-5.1 4-1.1 0-3 .7-4.1 1.5-1.8 1.2-2.4 1.2-4.2-.1-3-2.1-2.8-5.2.3-6 1.3-.3 2.7-1.5 3-2.5.4-1 1.7-2.2 3.1-2.5 1.8-.5 2.4-1.3 2.4-3.3-.1-2.5-.1-2.5-1.5-.7-.8 1.1-2 1.6-3 1.2-1-.4-2.3.2-3.3 1.3-1.2 1.3-4.8 2.4-11.2 3.6-13.1 2.5-13.3 2.5-15.3 8.2-1 2.8-3.2 6.3-4.9 7.9l-3.1 2.9.8-3.5c.4-1.9.9-6.9 1-11 .3-6.6.6-7.7 2.9-9.5 1.5-1.2 2.6-3.1 2.6-4.5 0-5.5 1-6.8 5.6-7.5 3.7-.5 4.4-1 4.4-2.8 0-2.4-5.9-7.7-8.5-7.7-1.1 0-1.5-.7-1.3-2.3.2-1.8.8-2.1 3.3-1.9 2.8.3 2.9.2 1.3-1.4-1.5-1.5-2.3-1.6-5.5-.6-3.1.9-4.1.9-6.1-.4-2.2-1.4-2.5-1.4-4.2.1-1.4 1.3-3.4 1.5-9.4 1.2-4.2-.2-8.2-.9-8.8-1.5-.7-.7-2-1.2-2.9-1.2-1 0-2.2-1.3-2.8-3.2-1.9-5.3-3.8-6.8-7.4-5.7-1.8.5-3.3.9-3.5.9-1 0-3.2-7.6-3.2-11 0-3.6-.3-4-2.5-4-1.7 0-2.9-.9-4-3-1.4-2.7-1.4-3 .5-4 1.1-.6 2-1.7 2-2.6 0-.8.8-1.7 1.8-2.1 2.9-1 10.2-7.4 10.2-8.9 0-.9 1.1-1.4 3-1.4 3 0 3.1-.1 2.4-3.8-.9-4.8-1.1-5.2-3.4-5.2-1 0-2.2-.5-2.5-1-.3-.6.1-1 1.1-1 1.2 0 1.5-.6 1-2.3-.3-1.2-.6-3-.6-4s-.8-1.7-2-1.7-2 .7-2 1.6c0 1.3-.7 1.5-3.4 1.1-4.5-.7-5.1.1-2.1 2.9 1.4 1.3 2.5 3.1 2.5 4.1-.1 1.1-4 4.7-10.3 9.3-5.6 4.1-12.3 9.4-15 11.7-2.6 2.4-5.1 4.3-5.5 4.3-.4 0-1.4.5-2.2 1-1.3.8-1.2 1.1.5 2.3 1.5 1.1 2.3 1.2 3.8.3 1.5-.9 2.2-.7 3.8 1.3 1.5 1.8 1.9 3.9 1.9 10.1 0 4.3-.4 9-1 10.4-1.2 3.2-4.6 3.5-5.5.5-.6-1.9-.8-1.9-2.4-.5-1 .9-2.5 1.6-3.3 1.6-.9 0-2.1.7-2.8 1.5-.7.9-2.9 1.5-5.2 1.5-3.6 0-3.8-.1-2.8-2.1.7-1.1 2.7-2.7 4.5-3.5 4.7-1.9 5-3.1 1.4-4.9l-3.1-1.7-4.2 4.1c-3.2 3.1-5 4.1-7.5 4.1-1.8 0-4 .7-4.8 1.6-1.9 1.8-2.6 1-3.8-4.3-.6-2.8-.1-3.9 3.1-7.8l3.7-4.6-3.1-3.2c-2.4-2.5-3.2-4.2-3.2-7 0-3.1-.3-3.7-2.1-3.7-2.9 0-12.9 5.7-15.6 8.9-1.8 2-2.2 2.2-2.3.9 0-.9.5-2 1-2.3 1.8-1.1 1.1-2.5-1.1-2.2-1.8.2-2.5-.7-4-5l-1.8-5.3 4.1-3.5c3.2-2.7 5.1-3.5 8-3.5 4.1 0 5.9-2 3.9-4.3-1.4-1.8.5-3.7 3.6-3.7 1.4 0 2.3-.6 2.3-1.5 0-.8-.9-1.5-2-1.5-2.9 0-3.8-3-1.5-4.6 1.6-1.2 2.2-1.2 3.9.1 5.2 3.8 6.2 3.9 10 1 3.3-2.5 3.6-3.2 3.6-7.9 0-5.1 0-5.1-4.9-7.9-2.7-1.5-6.3-2.7-7.9-2.7-1.7 0-3.4-.5-3.7-1-.3-.6-1.7-1-3-1-1.5 0-3.2-1.1-4.5-3-1.2-1.7-3.7-3.7-5.5-4.4-4.1-1.7-5.1-4.6-3.1-8.5 1.8-3.4.9-4.5-2.8-3.5-2.2.5-2.5.2-3.4-3.8-.6-2.9-.6-4.9.2-6.3.6-1.1 1-3.3.8-4.9-.4-2.8-.4-2.8-5.6-2.2l-5.2.7-5.8-6.6c-5.6-6.4-7.6-10.4-7.6-15.6 0-1.4-.9-3.4-2-4.4-1.8-1.6-2.4-1.7-13.2 0-6.2.9-12.3 2.1-13.6 2.6-1.3.5-3.3.9-4.6.9-1.2 0-4.4.7-7 1.6-4.6 1.6-4.8 1.6-11.7-1.2-4.7-1.9-7.4-3.6-7.9-5-.6-1.4-2.1-2.4-4.5-2.8-2-.4-5.1-1.6-6.8-2.7-3.8-2.3-4.1-2.3-5.7-.4zm152.4 395.1c.4 1 .1 1.4-.6 1.2-1.5-.5-2.3-2.8-1-2.8.5 0 1.3.7 1.6 1.6zM346.4 526.6c-.4 2.1-1.8 4.7-3.2 5.9-2.2 1.9-2.4 2.5-1.4 5.3.8 2.5.8 3.3-.5 4.3-.8.7-1.9 2.5-2.5 3.8-.8 2.2-.5 2.9 1.9 4.8 3.6 2.9 4.4 2.9 7.7-.2 3.8-3.5 5.1-3.1 7.1 1.7l1.8 4.3.7-3.1c1-4.4 1.4-4.9 5.9-6.4 2.3-.7 4.8-2.1 5.7-3.2 1.1-1.1 3.1-1.8 5.6-1.8 2.1 0 3.8-.3 3.8-.8 0-.4-1-2.5-2.3-4.7-2.1-3.7-2.6-4-7.2-4.3-3.7-.2-5.4-.9-6.7-2.5l-1.6-2.1-1.9 2.3c-2.5 3.1-5 2.3-9-3l-3.2-4.1-.7 3.8z"/><path d="M332.1 559.5c.2 8.1 1.1 11 3.7 11.3 1.8.3 2.2-.1 2.2-2.5 0-1.6.7-3.9 1.6-5.1 1.4-2.1 1.4-2.2-1-2.2-1.4 0-2.6-.3-2.6-.8 0-.4-.9-1.8-2-3.2l-2-2.5.1 5zM425.6 594.4c-.3 1.4-1.9 3.4-3.5 4.5-2 1.5-3 3.2-3.5 6.1-.6 3.6-.9 4-3.6 4-2 0-3 .5-3 1.5 0 2.1-2.7 3-4.4 1.6-1.1-1-2.3-.2-5.7 3.9l-4.2 5H391c-4.8 0-7.1.4-8 1.5-1.6 2-4 1.9-4-.1 0-1-.7-1.4-2.2-1.2-2 .3-2.3.9-2.4 4.8-.1 2.5-.4 5.5-.9 6.7-.5 1.6-.3 2.3.6 2.3.7 0 2.1.8 3.1 1.7 1.8 1.6 2.4 1.4 11.1-3 6.9-3.4 10.8-4.8 15.6-5.3 3.6-.3 7.1-1.3 7.8-2 1.2-1.2 1.8-1.1 3.8.2 3 2 4.4.1 1.9-2.7-1.5-1.7-1.5-1.9-.1-1.9.9 0 1.9.4 2.2 1 1.2 1.9 2.3 1 2.9-2.5.5-2.7 1.3-3.6 3.4-4.1 1.5-.4 3.8-1.5 5.1-2.6 1.3-1 3.3-1.8 4.5-1.8 5-.1 7.5-4.9 4.7-8.9-1.6-2.2-2.6-2.7-5.1-2.3-4 .6-6-1.3-6-5.4 0-4-2.5-4.7-3.4-1z"/></svg>
