<svg version="1.0" xmlns="http://www.w3.org/2000/svg" width="1365.333" height="1365.333" viewBox="0 0 1024 1024"><path d="M437.6 3.2c-2.2 2.9-2.3 3.4-1.1 5.8 1.2 2.2 1.1 2.9-.5 5-1.8 2.3-1.7 2.4 2.2 7.9 5.3 7.3 5.3 7.3 15.8 11 8.6 3.1 9 3.4 9 6.3 0 2.2-.4 2.9-1.5 2.5-5.4-2.2-24.8-7.6-28.6-8.1-4.1-.6-13 1.4-22.5 5.1-.8.3-1.4-.6-1.6-2.4-.3-2.8-.4-2.8-6.3-2.5-5.6.3-6.2.2-7.4-2.2-1.3-2.3-1.8-2.5-8.5-2.3-3.9 0-8-.2-9.2-.7-1.9-.7-2.1-.2-3.2 7-.7 4.3-1.8 8.2-2.5 8.6-1.9 1.2-3.7.9-3.7-.5 0-.7-.6-2.1-1.3-3.1-1.2-1.6-1.6-1.5-5.7 1.8-6 4.7-8 3.7-8-4 0-3.1-.4-5.4-.9-5.2-.5.1-3.3 3.4-6.3 7.3l-5.4 7-7.1.3c-4.7.2-9.4-.4-14.2-1.7-6.7-1.9-7.9-2.7-16.2-10.6-7-6.6-9.6-8.5-11.8-8.5-3 0-4.1 1.8-4.1 7.2 0 3.8-1.3 4.2-6.7 1.8-4.1-1.9-5.9-2.1-12.5-1.5l-7.8.6v-3.5c0-2.5-.7-4-2.6-5.5-2.4-1.9-2.8-1.9-6.1-.6-4.7 2-6.6 1.9-8.8-.5-1.7-1.9-1.9-1.9-3.7-.4-1.3 1.3-1.8 3.1-1.8 7.3 0 5-.4 6.1-3.7 10.3-3 3.6-4.3 4.5-6 4.1-1.2-.3-6.4-.6-11.5-.6-12.8-.2-32.3 4.6-40.2 9.9-4.9 3.2-5.8 3.5-8.8 2.6-1.8-.6-10.4-1.2-19-1.5l-15.7-.5-11.8 7.5c-6.5 4.2-14 9.7-16.8 12.4l-5 4.8-11.3-5.8L76 69.3l-4.3 2c-2.3 1.1-6.2 2.3-8.7 2.7-4.3.8-4.7.6-10.9-4.1-6.2-4.8-6.5-4.9-13.3-4.9-5.7 0-7.9.5-12.9 3-4.1 2.1-7.1 3-9.6 2.8-3.4-.3-3.8 0-8.6 6.8-4.9 7-4.9 7.2-3.7 11 .7 2.2 2.5 5.2 4.1 6.9l2.8 3-1.4 6.5c-.8 3.6-1.1 6.8-.7 7.1.4.3 2.7 1.4 5.2 2.4s8.8 4.3 14.1 7.2c7.6 4.2 10.5 5.3 14.1 5.3 4.3 0 5.1.5 19.4 12.6 8.2 7 15 12.7 15.1 12.8.2.1-.2 1.8-.7 3.6-.8 2.9-.7 3.7 1.2 5.7l2.1 2.2-2.6 6c-2.1 4.9-2.4 6.6-1.6 9.3.5 1.8.9 5.3.9 7.8 0 4.2.4 5 5.4 9.9 4.8 4.7 6.3 7.4 12.2 20.7l6.7 15.3-2.8 6.8-2.7 6.8 2.6 2c2.2 1.8 2.5 2.6 2 6-.3 2.2-2.3 7.4-4.4 11.5-2.1 4.1-6.3 13.2-9.3 20.2-6.6 15.4-12.5 23.2-16.7 22.3-2.5-.6-2.8-.3-3.4 3.2-.3 2.1-.6 5.2-.6 7 0 3.9-1.7 5.2-2.9 2.1-.8-2.1-1-1.9-3.7 3s-3.3 5.4-8.7 7c-4.9 1.4-6.4 2.4-9.2 6.2-2.1 2.8-3.4 6-3.6 8.4l-.4 4 4.6 1c5.8 1.4 11 5.9 14.3 12.5 2.7 5.3 3.5 13.4 1.5 14.7-1.9 1.2-4.6 8.8-5.2 15.2-.7 6.2-.6 6.5 5.2 18 3.2 6.4 5.6 12.3 5.4 13-.3.7.2 2.4 1.1 3.7 1.3 2 2.5 2.5 6 2.5 2.9 0 5.2.7 7 2.1 2.4 1.9 2.6 2.6 2.6 9.4v7.3l-3.6-1c-4.3-1.2-4.8-.8-3.9 3 .4 2.2 2.1 4 6 6.6 5.3 3.5 10.5 11 10.5 15.1 0 1.9-3 3.2-9.1 4-7 .9-10.2 4.7-10.7 12.8l-.4 6.3 6.8 2.7c3.8 1.6 10 4.7 13.8 6.9 6.3 3.7 7.3 4 11.8 3.5 4.5-.6 5.9-.2 14.1 4 5.1 2.5 11.9 6.5 15.2 8.8 3.3 2.3 9 5.9 12.6 7.9l6.6 3.6h28.5l7-4.2 7-4.2 8.8 1.3c4.9.7 11.9 2 15.7 2.8 3.7.9 8.7 1.7 10.9 1.7 2.6.1 5 .8 6.3 2 2.2 2 2.2 2 6.9-2.6l4.7-4.6 12.5-.5c11.4-.6 12.8-.5 15.5 1.3 1.9 1.2 4.7 2 7.5 2 4.1 0 5.2.6 12 6.5l7.5 6.5 8 .1h8l8.5 6.3c6.9 5 9.6 7.9 14.5 15.1 5.2 7.6 6.6 9.1 10.5 10.5 5.5 2.1 9.6 7.6 10.6 14 .4 3 1.7 5.7 4 8.2 4.1 4.6 4.8 6.1 6.4 12.6.9 4.1 1.6 5.2 2.9 4.8.9-.2 2.6-.7 3.9-1.1 1.9-.5 2.3-.2 2.8 2.2.8 4 17.4 15.6 21 14.7 2.1-.5 2.4-.3 2.4 1.9 0 1.3.3 3.9.6 5.6.6 2.7 1 3.1 4 3.1 3.1 0 3.4.3 3.4 3 0 2.4.7 3.5 3.5 5.1 2.6 1.6 3.6 2.9 4.1 5.7 1.1 6.6 1.4 7.2 3.7 6.8 1.2-.2 10.1-1.8 19.7-3.6 9.6-1.7 19.5-3.6 22-4.1 4.3-1 4.5-.9 7.5 2.6l3 3.5 8.3-1 8.3-.9 7.2-6.4c4-3.5 10.4-8.9 14.4-12.1l7.2-5.7 7.2.7c7.1.7 7.2.7 10.3 5.2 1.7 2.5 7.8 10.8 13.5 18.4l10.3 13.9-1.2 9.2c-1.1 8.1-1.1 10.8.5 21.5 1 6.7 2.1 12.2 2.4 12.2.3 0 2.2.4 4.3.9l3.6.8 4.7-6.8c2.7-4 5.4-6.9 6.4-6.8.9 0 4.8 1.2 8.6 2.7l7 2.7 4.2 8c2.3 4.4 5 8.5 6 9.2 3 2 26.2 10.3 28.8 10.3 1.7 0 3.5 1.7 7 6.6l4.7 6.6 5.7-.7c3.1-.3 6.3-.8 7.1-1.1.8-.3 4.4-4.2 8-8.8l6.5-8.4 10.5-3.5c5.8-1.9 13.9-4.5 18-5.7 6.7-2.1 8.2-3 13.5-8.6l6.1-6.4 5.2 3.6c4 2.6 7.3 3.9 13.4 4.9 4.4.8 8.2 1.6 8.3 1.7.1.2 2.9 3.9 6.2 8.3l6 8.1.5 9.9c.3 7.4 1 11.4 2.7 15.5l2.2 5.5-5 9.2c-2.8 5-6.3 12.3-7.7 16.2l-2.6 7.1 3.2 4.9c1.7 2.8 3.9 5.2 4.8 5.5.9.2 5.3 1.2 9.7 2.2 7.2 1.5 10.1 3 29.3 14.8l21.4 13.1-.6 3.5c-.4 1.9-.9 12.2-1.2 22.7l-.6 19.3 3 1.7 3 1.7-2.2 4.4-2.1 4.4 3.8 3 3.7 3v9c0 4.9.4 9.7.9 10.6.5 1 4.1 3.3 8 5.1 6.9 3.4 7 3.5 8.1 8.3.5 2.7 1 5.5 1 6.2 0 .7 1.6 3.5 3.5 6.2 3 4.2 3.5 5.7 3.5 10.4 0 4.2 1.7 10.7 7.1 26.9l7.2 21.5-1.8 9.3c-.9 5.1-1.5 10-1.1 10.8.4 1.1 2.3 1.5 7.8 1.5 9.2 0 13.3-1.2 17.2-4.9 1.7-1.6 4.2-3.2 5.6-3.6 1.4-.4 6.1-3.4 10.4-6.6 6.6-4.9 8.7-5.9 12-5.9 3 0 5.6-1 10.4-4.2l6.4-4.2 11.5 5.8c10.8 5.3 11.7 5.6 14.8 4.5 2.8-1.1 3.7-1 6 .5s4 1.7 12 1.1l9.2-.7.7 2.6c.3 1.4 1 2.6 1.5 2.6 1.9 0 4.4-4.3 4.8-8.4.5-4 .1-5.4-3.7-11.7-2.3-4-4.8-9.3-5.5-12-1.2-4.5-1.2-4.9 1.1-7 2.6-2.4 3-4.9 1.3-8-.8-1.6-.1-4.7 3.5-15 2.5-7.2 4.6-13.2 4.6-13.4 0-.2-1.4-.6-3-1-1.8-.4-3.6-1.7-4.4-3.3-1.3-2.4-1.2-3 .6-5.5l2.1-2.9-4.2-4.2c-3.2-3.3-4.1-4.9-4.1-7.7 0-2.6-.8-4.3-3-6.4-2.6-2.4-2.9-3.4-2.4-6.2.6-3.2.5-3.3-2.3-2.7-2 .4-3.3.1-4.2-1-.8-1-2.9-1.6-5.2-1.6-4.3 0-4.3 0-5.4-10.6-.5-5.1-.3-6.3 1-6.8 2.9-1.1 4.9-.6 9.5 2.3l4.5 2.9 5-5.4c2.8-2.9 6.2-5.6 7.6-5.9l2.6-.7.9 9.4.9 9.4 8.5-9.4c4.7-5.3 9.2-9.8 10-10.2.8-.4 3.8-1.8 6.5-3.1l5-2.4-4.5-.3c-7.5-.4-8.7-1-11.4-5.6-2.2-3.7-3.2-4.5-6.6-5.1-3.9-.7-4.2-1-8.1-8.6l-4-8 2.7-3.4 2.6-3.5-6.2-7c-3.4-3.8-6.4-7-6.7-7-.2 0-2 1.1-4 2.4-4.1 2.8-2.9 3.4-15.1-6.4l-8.1-6.5-4.7-11.8c-4.5-11.6-4.6-11.9-3-15 .8-1.8 2-5.1 2.6-7.5.9-3.6 1.4-4.2 3.3-3.8 1.2.3 5.9.8 10.3 1.1l8.2.6 2.2-5.4c1.9-4.6 2.8-5.6 5.2-5.9 2-.3 3.2 0 3.8 1.2.8 1.5 12.7 5.6 13.7 4.6.2-.2-2.5-3.7-6.1-7.7-5.1-5.8-6.6-8.1-6.6-10.5 0-2.6.6-3.4 3.2-4.5 1.8-.7 4.9-2.8 6.8-4.5 2.2-2 5.1-3.4 7.8-3.9 2.3-.4 4.2-.8 4.2-1 0-.1-.7-1.8-1.5-3.8-1.2-2.9-3.1-4.4-10.9-8.6-7.7-4.2-10.4-5.1-14.4-5.1-3.6 0-5.4.5-6.7 2-1.2 1.3-2.5 1.7-4.5 1.4-1.5-.4-3.7-.1-4.8.5-1.7.9-2 .7-2.6-2.7-.3-2-.6-5.4-.6-7.4 0-2.4-.8-4.6-2.3-6.4l-2.4-2.7-3.1 2.3c-2.7 2-3.5 2.2-5.7 1.2-1.4-.6-3.7-3-5.2-5.2-2.7-3.8-3-4-6.8-3.4-2.2.4-12 4.6-21.7 9.5-14.8 7.4-18.6 8.9-22.5 8.9-2.7.1-5.9.7-7.3 1.5-1.4.8-2.8 1.4-3.1 1.5-.4 0-1-3.3-1.3-7.3-1.5-15.4-.8-14.1-12-22.9-9.9-7.8-10.1-7.9-14.6-7.3-4.3.5-4.6.4-6.8-3-1.8-2.9-2-3.9-1.1-5.6.6-1.2.7-2.4.2-2.8-.4-.4-2.7-2.2-5.1-4.1-4.5-3.4-12-13.7-16.5-22.6l-2.6-5.1-18.4-7.6c-10.1-4.2-21.6-8.4-25.5-9.4-8-1.9-7.4-.9-8.7-13.8-.4-4-1.8-8.2-4.2-12.8-3.2-6.3-3.4-7-1.9-8.6 1-1.1 1.6-3.6 1.6-6.9V568l-7.7-5c-7.7-4.9-7.9-5-15.9-5-6.4 0-10.6-.8-19.7-3.5-6.3-1.9-13.3-3.5-15.4-3.5-3.2 0-4.6-.7-7.6-3.8l-3.7-3.8 2.2-5.1 2.1-5.1 11.1-2.1c21.8-4 48.9-3.2 52.3 1.5.7 1.1 3.4 4 6 6.7l4.8 4.7 2-4.1c1.8-3.6 2.8-4.4 9-6.8l7-2.6.3-6.5c.3-5.6.8-7.1 3.8-10.9 4-5.2 4-5.6 1.4-9.6-1.1-1.7-2-3.5-2-4.1 0-1.4 8-5.7 14.8-7.9 2.8-.9 5.2-1.7 5.2-1.8 0-.1-.6-2.5-1.4-5.4-1.4-5.1-1.4-5.2 1.4-7.8 2.4-2.3 2.9-3.8 3.9-12.6 1.7-15.5 2-14.7-5.8-20.7-8.7-6.7-10.7-11.6-3.2-7.7 2.8 1.4 2.9 1.4 3.5-1.7 1.3-6.5.8-7.7-3.3-9.4-2.7-1.1-4.3-2.5-5.2-4.7-.7-1.8-1.4-3.3-1.5-3.5-.1-.2-1.3.3-2.6 1.1-1.2.9-3.9 1.8-5.8 2.2-3.2.6-4.2.2-9.1-3.9-3.1-2.5-6.5-4.6-7.5-4.6-2.5 0-18.5-6.7-39.1-16.4-15.7-7.3-16.6-7.6-23.7-7.6h-7.4l-11.9-12.5c-10.1-10.8-12.3-13.7-15.5-20.8-5.1-11.4-5-11.3-10.5-12.1-2.6-.3-8.1-1.8-12.1-3.2-6-2.2-8-3.5-11.4-7.6l-4.1-4.9 1.3-5.3c.7-3 1-6.9.6-8.8-.5-2.7 0-4.5 2-8.2l2.7-4.8-5.9-6c-5.7-5.7-6.1-5.9-10.1-5.5-5.6.6-9.3-2.9-9.3-8.9 0-2.6-.9-5.3-2.9-8.3-4.4-6.6-3.6-9.9 5.1-18.7 6.3-6.4 7.2-7.8 8.2-12.9 1.1-5.5 1.3-5.8 5.6-7.4 2.5-1 14.4-9 26.5-18l22-16.2 3.7-10 3.7-10-1.7-4.7c-1.6-4.2-2.1-4.7-4.5-4.4-1.9.2-2.7-.2-2.7-1.2s-1.3-1.7-3.5-2.1c-1.9-.3-5.1-.7-7-1.1-2.8-.4-3.9-1.2-5.2-4-1.4-2.9-2.2-3.4-5-3.4-3 0-3.3-.3-3.3-2.9 0-2-1-3.8-3.4-5.9-2.4-2-3.7-4.3-4.2-6.9-1.2-6.8-5.3-9.3-8.9-5.3-2.4 2.7-3 2.6-5.5-1.5l-2.2-3.5 3.1-5.6 3.2-5.5-5.6-2.4c-6.9-3.1-7.5-3.1-7.5-.1 0 2.4-1.6 3.6-4.9 3.6-1 0-3 .9-4.3 2-2.2 1.7-3.5 1.9-9.2 1.3l-6.6-.6-3.7-6.1c-2-3.4-3.7-6.2-3.8-6.4-.1-.1-2.7.7-5.9 1.9-3.6 1.4-5.6 2.8-5.6 3.8-.1 3.7-1.5 4.4-6.7 3.2-3.9-1-5.3-1.9-6.8-4.4-1-1.8-3.4-4.9-5.3-7-3.2-3.3-4.2-3.7-8.3-3.7h-4.8l-.6-5.8c-.3-3.1-.8-7.4-1.1-9.5l-.6-3.8-6.1.3c-5.1.2-6.2.6-6.5 2.1-.2 1 .4 2.7 1.3 3.7 1.9 2 1.6 5.2-.7 8.3-1 1.4-3.4 2-9.2 2.6l-7.8.7.6-9c.9-11.4 2.2-13.4 10.2-15.9 4.8-1.4 7-1.6 11.9-.8 5.5.9 6.7.7 14.3-2.2l8.2-3v-18l-3.1.7c-2.2.4-3.9 0-5.8-1.3-1.5-1.1-4-2.1-5.6-2.3-2.6-.3-3-.8-3.3-3.7-.4-3.5-.7-3.9-7.4-8.7l-3.6-2.6-6.2 4.5-6.1 4.5-10.2-.5c-5.6-.3-10.2-.6-10.3-.7-.1 0-.4-1.5-.7-3.2-.6-3-.2-3.5 5.2-7.3 4.8-3.3 6-4.7 6.6-7.7.6-3.5.3-4-4.5-8.9-4.9-5-5.1-5.4-4.8-10.1l.3-4.9-4.2-.3c-3.7-.3-5 .3-11.2 4.9-4.3 3.2-7.4 6.4-8 8.1-.8 2.3-1.5 2.8-3.3 2.3-8.8-2.1-12.3-2.3-13.7-1-1.2 1.2-2 .9-5.1-1.9-2.6-2.4-5.3-3.6-9.6-4.5-5.5-1-6.2-1.5-8.3-5.1-1.2-2.2-2.4-4-2.6-4-.2 0-1.5 1.4-2.9 3.2z"/><path d="M656.3 263.6c-3.1 2.4-3.3 2.9-3.3 8.7 0 5.3.3 6.4 2.1 7.5 1.9 1.2 2.1 2 1.6 6.2-.5 4.3-.3 4.9 1.8 6 2.2 1.2 2.9.9 8-3.1 3.1-2.4 6.3-4.9 7.1-5.5.9-.7 1.4-3.1 1.4-6.8 0-4.7-.5-6.4-2.7-9.3-2.7-3.6-7.6-6.3-11-6.3-1 0-3.3 1.2-5 2.6z"/></svg>
