<svg width="1980" height="1013" xmlns="http://www.w3.org/2000/svg"><path d="m874.11 402.498-1.981-12.742-21.004-22.373-3.463-18.688 4.703-2.111 10.91-9.02 10.166-5.334 4.594-14.001 12.242-1.612 10.391-4.574 13.225-14.707 28.652-8.408 7.557-6.928 28.078-1.48 20.595-12.721 13.965-15.447 10.133-26.819v-12.742l1.852-14.205-1.483-16.207 16.93-10.871 14.111 5.703 12.244 2.482 5.575 5.075 7.168 8.039 11.63 3.463 7.426-14.225 7.057-2.48 5.687-4.946 1.98-10.28 6.298-6.427-3.092-26.652 3.463-4.094-7.537-8.166 9.63-15.818 17.206 4.463 12.353 7.91 10.13 6.797 3.466 6.056 6.185 9.149-4.408 15.459 14.39 11.787 39.813 1 32.04 14.8 11.786-13.072 8.291.522 7.815-22.358 13.287 6.73 10.877 4.995 12.592-5.016 5.361 4.688 7.64 1.043 5.21 10.203 7.383-1 1.54-39.27 3.606-9.14 17.475-7.64 8.334-20.1 30.65 3.994.37-27.84 9.66-25.074-5.884-25.657L1416.97.895l35.275 3.236 1.563 11.75 4.84 10.765 14.892-4.513h9.793l5.188-16.086 3.757 5.146 12.44-.5 17.717 10.897 15.35-.52 6.902 10.375 17.67 7.967 14.564 1.736 10.203 13.329 24.4 1.388 6.446-8.619 11.57 2.238 63.383 46.041 56.955.11 12.611-1.541 15.893-3.82 4.861-21.448 15.043.348 6.71-2.432 22.6 11.266 9.682-1.604 7.946 7.535.867 7.577h11.96l12.071 4.146 14.76-.52 13.287 2.256 6.228 10.377 7.815 32.54 3.646 16.26.348 7.36-12.96 17.413-8.161 14.392-2.78 10.701.522 9.184-1.021 10.375 3.125 8.14 11.529 12.94 3.646 12.46 10.204 8.661 1.543 10.682 4.86 14.738 2.259 11.399 9.33 4.238 14.892 13.676 7.62 9.947v10.855l.693 15.217 15.045 1.215 3.082 8.945-9.897 11.266-1.04 6.209-3.647 14.76.867 10.703-8.445 7.056-7.23 3.625 5.36 11.204 3.128 8.64-.543 7.229 1.562 3.257 1.736 10.008v7.815l4.69 9.877-10.53 2.758-26.44 8.486-11.593.521-7.035-3.798-12.46 9.896-17.628-1.041-5.668-15.76-10.529-4.146-8.467-1.737-6.535-3.584-9.334 2.084-8.64.868-4.84 7.1-5.73 4.124-9.704 11.225-9.771 2.736-2.41 7.729 12.466 8.425 12.828-3.127 16.524 7.926 9.527-1.91 10.002 6.408 1.043 16.086 10.396 11.114v4.687l-4.34 6.578-5.952 3.106.521 12.111-7.813 9.203-8.466 8.945-4.28 7.168h-15.064l-4.889 3.932-10.744-7.12-1.369 14.938-5.035 11.246 8.793 5.21 4.168 11.181.52 7.23 1.146 10.833-9.71 5.34-.52 8.966-3.909 4.778 2.43 9.14 5.105 7.668 1.563 12.244 14.023-8.14 3.299 9.529-4.168 7.1-7.578 3.103-.867 6.21 4.258 8.146h8.986l-.152 7.035-14.002 5.904v5.32l7.75 4.82-6.188 4.43-42.137.5-14.44 11.899-14.501 20.19-15.738 16.28-11.418 10.12-12.75 9.851-10.139.695-.5 36.555 3.584 6.492 5.666 3.127 3.625 6.23 1 13.466-12.111-10.07-7.467-2.952-10.399-5.209-14.912-4.863-15.605 3.127-10.03 3.299-8.988 4.84h-10.527l-7.19-1.39-11.07 6.946-15.545 3.647-6.513 4.841v9.965l-12.809 2.78-5.818 3.084-8.315-7.293-7.293-3.3-18.515 3.473-16.149-1.216-10.877 4.168-14.197-2.952-14.85-1.543-18.69 2.237-8.16.869-10.355 13.05-9.119-6.404-8.814 5.014-17.242 6.242-6.016 16.022-6.076 18.365-21.885 8.967-11.072 11.459-10.987 7.904-10.14 3.951-.694 7.057-6.578 9.314-6.494-2.453-9.486-10.53-7.1.522-15.133-2.431-3.994-6.21-27.156 6.21-40.832-3.278-18.065-15.738-14.87-.869-10.745 1.043-21.615-13.024-15.39 3.995h-15.413l-14.37-6.772h-20.386l-14.543-8.681-13.502 1.04-7.078-3.82-13.502-.521h-14.695l-9.467-5.362-18.17 6.252-11.377.5-12.828-3.127-19.21-7.271-12.633-6.23-30.668-1.563-42.637-1.91-6.426-9.875-11.875-6.211-7.945 6.404-12.551-10.445-31.52 1.736-10.66-7.097-18.322-4.168-12.46-8.141-4.974-8.682-6.25-13.176-9.834-4.125-8.335-4.341-2.256-6.862v-7.535l4.818-6.013-12.021-21.524-11.573 5.535-6.34-8.19L684.084 814l3.43-10.16-5.729-8.315-1.39-24.466 19.71-2.258 5.864-16.828-5.035-5.016-22.88 2.084-16.626 8.314-15.934 4.647-16.3 2.603-10.51 9.336-16.147 5.903-15.607 2.084-2.778 9.377-6.425-2.084-13.44-7.75-16.105-2.065-7.21-2.603-18.712 5.73-11.592-10.51-15.37 17.956-21.558-9.663-43.416 9.01-11.045 10.96-11.808 10.55-.522 11.07-6.054 11.877-3.647 9.53-11.246 17.501-8.813-1.043h-18.732l-11.725.522-15.084-4.514-11.287-7.119-9.834 1.041 9.55-15.697-12.981 1.217-9.14-13.483-11.593 1.565-17.496 5.883-21.69-3.954-6.812-14.507 8.14-15.543-10.18-9.489-9.99-8.966-4.798-3.758-7.945-3.973-15.627 22.205-7.535 5.147h-8.446l-2.953 10.029-6.424 7.771-23.12 9.856-13.329-3.992-9.078-7.883-8.293-9.336-9.53-4.34-9.16-1.369-11.05-6.057-2.604-8.855 4.473-12.111v-4.647l-4.82-8.773-8.856-.5-12.918-9.12-9.877-1.04-19.537-8.793-15.433 2.95 6.078-31.712-13.266-13.133-3.41-17.719-6.342-6.209 9.856-7.445L.93 655.8l19.6-19.925 3.82-18.344 12.114 2.237 7.771-6.75-6.83-17.223-1.388-9.21-15.196-6.751-2.584-8.486 10.897-4.69 11.03 1.696 12.265-4.668 7.945-11.202 12.96-12.398h7.099l2.431 9.682 4.514 3.125 7.445 3.974 13.371-2.084 8.508 8.313 6.752 6.252 1.889 9.812 10.765 1 5.883 9.377 10.723 4.69-.5 9.834-7.25 3.798 3.103 7.036.348 11.224 16.781-3.125 18.19-3.127v6.016l-6.078 13.717v10.355l-7.791 7.23-.522 7.967 17.322-.521 38.596-30.887 3.973-8.598 11.418-10.01 11.787-13.695-1.543-11.05-10.897-19.6 4.494-11.05-6.382-8.62 17.168-3.994v12.482l19.927 7.25 13.829-12.459 9.876 2.778 11.918-1.041 3.973 5.709 10.16 2.95 1.848 8.362 8.814-1.04 24.573-6.946 2.431 8.098-9.355 12.05 14.98 1.541 14.196 18.711-5.34 15.176 39.443 1.389 18.363-13.348 15.37 1.041-4.667 11.488 16.975-.347 16.627-20.143h16.844l-5.147-6.494 11.418-13.959 35.164-2.78 1.563-15.757 17.697-12.92 8.795 4.146 25.83-1.04 16.106 4.687 5.404-10.113 34.455-4.34 52.918 3.758-2.43-8.793-2.062-26.352 20.967-10.703-2.584 14.635 20.058-3.453 18.844 3.646 11.744-1.93v9.965l14.809 16.282 15.351-6.481 13.244-12.918 34.123 1.37 7.426 8.792 11.049 13.154-5.146 10.16-.52 9.163 2.93 6.73 12.113.5 25.295 29.113 10.648-2.707 4.8 3.647 13.368-9.725-8.076-10.896 7.383-11.203-2.953-9.14 6.19-6.015.52-8.119 7.272-7.445.52-16.066-21.662-16.106-7.598 3.125-20.322 1.543-2.584-10.684 11.181-13.937v-8.14l17.782-20.233-1.37-9.66-9.14-9.662-9.334-19.668-8.078-7.037-7.598-1.89-1.97-6.38Zm0 0" fill="#000" fill-rule="evenodd"/></svg>
