<svg version="1.0" xmlns="http://www.w3.org/2000/svg" width="1365.333" height="1365.333" viewBox="0 0 1024 1024"><path d="m307.6 2.7-4.9 2.8-.3 8.4c-.2 4.7-.8 8.9-1.4 9.5-.7.7-8.9 1-24.5.9-25.4-.3-26.4-.4-33.1-6.2-1.7-1.6-5.4-3.2-8.7-4-5.5-1.2-5.8-1.2-11.4 1.9-3.2 1.7-7.9 4.6-10.4 6.4-4.1 3.1-4.7 4-5.9 9.6-1 4.8-1.9 6.5-3.9 7.7-15.9 9.6-15.9 9.7-21.6 21.6-3.6 7.3-5.6 13-6.1 16.6-.3 3.1-1.7 8.1-3.1 11.2l-2.4 5.5-6.7 1.7c-3.7.9-10.8 1.9-15.9 2.2l-9.2.6-1.6-3.7c-.8-2-4.4-7.6-8-12.4-6-8-7.4-9.3-18.7-16.3-6.8-4.2-12.9-8-13.6-8.5-1.1-.7-1.1-2.1-.2-7.3l1.2-6.4-6.5-6C82.1 30.7 75.2 21.6 74 16.6c-1.5-5.9-3.8-12-5.4-14.1-1.3-1.8-1.7-1.8-9.7-.2C54.3 3.3 46.6 4 41.8 4h-8.6l-8.6 7.2c-5.5 4.6-8.4 7.8-8.2 8.8.3.8 1.2 5 2.2 9.2 1.7 7.6 1.7 7.7-.3 9.5-1.8 1.6-1.9 2.6-1.3 10.3.5 6.3.3 9.5-.8 12.3-1 2.6-1.1 4.1-.4 5 1.7 2 1.8 13.8.2 17.6l-1.4 3.4 5.3 4.7c3 2.6 4.9 5 4.4 5.3-.6.4-2.3 5.1-3.8 10.6l-2.8 9.9-8.9.7c-10.3.8-10-.2-3.7 13.4 2.1 4.6 3.9 8.5 3.9 8.7 0 .2-2 .4-4.5.4s-4.5.3-4.5.6 1.4 3.9 3.1 8c2.2 5.3 3 8.4 2.5 10.5-.4 2 .1 4.3 1.4 7 1.8 3.4 1.9 4.2.6 6.2-.7 1.2-1.6 4.5-1.9 7.3-.5 4.8-.2 5.7 5.6 16.4 5 9 6.9 11.6 9.9 13.3l3.8 2.1 4.9-2.4c4.9-2.3 5.3-2.3 17.3-1.1 18.4 1.8 16.6.9 22.2 11.4 6.9 12.9 14.8 23.9 21.6 29.9 5.6 4.9 5.9 5.4 8.1 13.8 2 8.1 2.5 8.9 6.1 11.1 4.3 2.6 4.3 3 1.2 11.1l-1.8 4.8 2.9 3c3.1 3.3 3.1 3.2-1.1 14.3l-1.8 4.7 8.2 8c4.5 4.3 8.2 8.6 8.2 9.5 0 .9-1.1 3.6-2.5 5.9-3.3 5.7-2.3 9.3 2.7 9.8l3.3.3 1 10c.6 5.9.7 11 .2 12.5-.6 1.6-.4 8 .6 17.1l1.5 14.6 16.9 23.1 16.8 23.1 6.1.1c3.5 0 6.8-.6 7.9-1.4 1-.7 2.6-1.2 3.4-1 .9.2 3.2.6 5.2.9 3.7.5 3.7.6 4.9 7.3.6 3.7 2.6 9.5 4.2 12.9 3.4 6.6 4.6 7.3 13.3 7.3 7.9 0 10.5 1 10.6 3.9 0 1.4 1.7 7.3 3.7 13.1l3.7 10.5 5.1.8c4.8.8 5.1 1 6 4.5l.9 3.7 7.9 1.2c7.4 1.1 8.2 1.5 12.6 5.8l4.7 4.6.6 12.8c.4 7 1 14.8 1.3 17.4l.7 4.6 20.2 14 20.2 14 7 15.1 7 15.2 28.2 25.9 28.3 25.9h5.3c3 0 5.6-.4 6-.9.3-.5 2.5-1.7 4.9-2.6 3.7-1.4 5.2-1.5 9.8-.6 4.8 1 5.8 1.7 9.6 6.6l4.3 5.5-4.2 5c-4.1 4.8-4.1 5-2.5 7.5 1.2 1.9 2.5 2.5 5.1 2.5 3 0 3.5.3 3.5 2.3 0 1.2-2.3 5-5.1 8.5-5 6.1-5.1 6.3-3.5 8.7 1.2 1.8 2.5 2.5 5 2.5h3.4l3.6 19.2c2 10.6 3.9 20.5 4.2 21.9.3 1.5 1.6 4.1 2.9 5.9l2.4 3.3 2.3-4.8 2.3-4.7 6 .6c5.4.5 6.3 1 9.1 4.3 2.8 3.4 3.3 4.8 4.3 14.3.7 5.8 1.5 11.9 1.8 13.6l.5 3.2 9.1.7 9 .7 22.7 19.3c21.8 18.6 22.7 19.5 24.5 24.9 1 3 1.6 5.8 1.3 6.1-.3.3-5 2.2-10.4 4.1-9.3 3.3-10.2 3.5-15.3 2.5-3-.6-5.6-.9-5.8-.7-.2.2 4.7 3.3 10.9 7l11.2 6.8 6.1-1.5c5.9-1.4 11.3-.8 10.1 1.2-.3.5-6.6 3-14 5.6-12.9 4.5-13.6 4.7-18.7 3.6-2.8-.6-5.4-1-5.6-.8-.2.2 4.7 3.4 10.9 7.1l11.2 6.8 6.1-1.5c6-1.5 6-1.5 15.5 1.9l9.5 3.4 9-2.5c5-1.4 9.3-2.5 9.7-2.5 1.4 0 7.9 12.3 9.5 18 1.2 4.3 3 7.5 7 12.2 8.8 10.2 10 11.4 19.4 19.3 8.9 7.5 9 7.5 14.8 7.5h5.8l23.9 18.4c23.3 18 24 18.6 29.3 27 3 4.7 5.9 8.6 6.5 8.6.5 0 5.8-1.2 11.7-2.6l10.8-2.5 12.5 8.1 12.6 8.2 14.4-6.3c14-6 14.4-6.3 13.5-8.6-.5-1.3-.9-3.9-.9-5.8 0-3.3.1-3.4 5.5-4.5 3-.6 5.5-1.4 5.5-1.7 0-.3-1.2-4.8-2.6-10-2.6-9.8-2.5-11.2 1.4-11.3 1.6 0 1.7.9-3.1-17.6l-4.2-16.2-10-11.2c-5.6-6.3-10.3-12.4-10.6-14-.5-2.5-.1-3.2 3.7-6 2.4-1.7 4.5-3.4 4.8-3.9.3-.4-.5-4.5-1.8-9.2l-2.3-8.4 2.4-3c1.3-1.7 6.3-7.9 11.1-14l8.8-11 6.9-1.8c3.9-1 8.7-2.3 10.7-2.8l3.8-1-.1-16.7c-.1-14 .2-17.4 1.7-20.5 1.4-2.9 1.5-4.3.7-7-1-3.3-.7-3.8 5.8-12.8l6.8-9.4.1-11.5.1-11.5 15.4-14.2c8.5-7.9 16.9-15 18.8-15.9 3.4-1.6 3.5-1.6 10.4 2.5l7 4.2 1.3 7.5 1.2 7.6 8.2 3.8c6.8 3.1 9.6 3.8 15.7 4 14.1.6 13.5.8 14.8-6 1.1-5.6 1-6.2-1.4-11-1.9-3.7-2.2-5-1.1-5 .8 0 1.8-2.1 2.5-5.9l1.2-6-4.9-9.8c-3.6-7.2-5.1-11.4-5.5-15.9-.6-5.5-4.9-19.4-6.8-21.9-.4-.6-5.5-2.6-11.3-4.5l-10.6-3.4V647.3l8.5-1.8c4.7-1 8.8-1.6 9.1-1.2.3.3.8 3.3 1.1 6.6.3 3.4.9 6.1 1.2 6.1.3-.1 3.5-.7 7.1-1.5 3.6-.8 8.7-1.4 11.5-1.5 4.1 0 5.3-.4 7.1-2.7l2.1-2.7 8.9 1c7.1.8 10.3.7 15.8-.5l6.8-1.5-.7-3.5c-2.1-11.5-2.3-10.4 4.5-16.8 7.3-6.8 8-7.2 8-4.3 0 2.4.3 2.4 9.7-1.5 3.2-1.3 5.9-2.2 6-2.1.1.1-.1 4.2-.5 9l-.8 8.9 3 1.8c3.9 2.4 5.3 2.4 6.1.1.3-.9 2.5-3.8 4.8-6.3 3.8-4.2 5-4.8 11.6-6.3 7.7-1.7 14.1-4.9 14.1-7 0-.7-.7-3.5-1.5-6.2-1.9-6.3-1.9-9.9.1-12.9 1.2-1.9 1.4-4 1-9.7-.7-9.2-.7-10.7 0-19.1.5-5.8.2-7.7-2.1-13.6l-2.7-6.9-6.4-1.2-6.3-1.2-.6-5.7c-.3-3.1-1.1-8.5-1.8-12.1l-1.2-6.5-11.3-4c-13.1-4.6-12.1-3.5-22.3-26-6.5-14.2-6.9-17.1-1.7-13.2 1.8 1.4 4.9 2.8 6.8 3.2 1.9.3 11 2.4 20.3 4.7 16.6 4 16.8 4 25.2 2.8 9.7-1.4 9.1-.4 7.5-12.9-.7-5.5-.7-7.7.2-8.2.6-.4 5.5-1 11-1.4 5.4-.4 10.1-1.1 10.4-1.6.3-.5.2-5-.2-10.1l-.7-9.1-11.1.6c-13.5.7-12.2-.8 1.6-1.8 5.4-.4 10.1-1.1 10.4-1.6.3-.5.2-5.1-.2-10.1l-.7-9.1-12.1.7-12.2.6-9.4-8.7c-5.2-4.7-9.5-9.3-9.4-10.2 0-.9.3-4 .7-6.9l.6-5.2h-15.1l-9.7-8.9-9.6-8.9-1.9-10.4c-1.7-9.9-2-10.6-5-12.4-6-3.6-19.7-7.4-26.8-7.4h-6.6l-7.5-6.3c-10.1-8.3-11.2-13-4.3-17.8 3-2 3.5-3 4.5-9.3.8-4.8.9-8.9.2-12.6-.6-3.6-.5-7.3.2-10.9.9-4.5 1.4-5.5 3.8-6.3 1.8-.6 3.8-2.7 5.4-5.5l2.5-4.5-3-3.8-3-3.8 5.7-.8 5.7-.9 1.9-7c1.6-5.9 2.5-7.5 5.3-9.4l3.4-2.4v-23.1l3.6-3.7c3.4-3.5 3.7-4.4 4.7-12.9.8-6.7.8-9.7 0-11-1.8-2.8.3-16.1 2.9-18.1 1.2-1 2.5-3.8 3.3-7.8 1.1-5.4 1.1-7-.1-10.5-1.3-3.6-1.3-5.1 0-10.9 1.3-6.4 1.2-7.1-.9-14l-2.3-7.2-10.9-4.1c-5.9-2.2-12.3-4.8-14-5.7-4.4-2.3-11.4-1.5-27.3 3.3-6.9 2.1-15.4 4.6-19 5.6-4.7 1.2-9.2 3.6-16 8.4-5.2 3.6-10 6.9-10.7 7.3-.7.4-4.3 1.1-8 1.6l-6.8.8-6.8-6.4c-7.5-7-9.9-8.3-15.6-8.3-2 0-4.4-.6-5.3-1.3-4.2-3.4-6.5-10.7-3.3-10.7.8 0 1.9-1.7 2.7-4.1 1.1-3.9 1-4.5-1.6-9.4-2.3-4.2-2.7-5.9-2.2-8.9.4-2.1.4-5.1.1-6.8l-.7-3-8.8.6-8.8.7.8-3.6c.7-3 .5-3.7-1.1-4.6-3.1-1.6-7.1-10.6-6.4-14.1 1.1-4.8-.4-13-2.9-16.1l-2.2-2.8-2.9 7.3c-1.6 4-3.5 8.8-4.2 10.7l-1.4 3.4-1.9-3.1c-1.7-2.7-2.5-3.1-8.2-3.7-5.7-.6-7-.4-13.3 2.5-6.8 3.1-7.1 3.1-13 1.9-4.3-.9-7-2.2-10-4.9-9.7-8.7-10.5-9-20.8-9-9 0-9.6-.1-13.3-3.1-2.1-1.7-7.6-5.1-12.2-7.6l-8.4-4.6-3.9 3.9-3.9 3.9 1.6 5.8c1.1 4.5 1.3 6.6.4 9.1-1 3.1-1.3 3.3-8.8 4.4-4.2.7-11.8 1.2-16.9 1.2-8.8 0-9.2-.1-11.3-2.7-1.4-1.8-1.9-3.4-1.4-4.8.3-1.1.8-3.6 1.1-5.6.4-3.3.1-3.8-3-5.8-3.2-2-3.7-2-7.1-.6-2.7 1.2-5.3 1.4-9.6.9-5.7-.6-6-.5-10.3 3-5.3 4.3-8.2 10.4-9.2 19.3-.7 6.2-.8 6.3-4.3 7.3-5 1.4-5.7 1.3-13.8-1.1-5.7-1.7-9.5-3.8-17.8-10-5.9-4.4-11.2-9-11.8-10.4-1.3-2.9-6.6-6.5-9.4-6.5-1.1 0-6.9 1.4-13.1 3.1l-11.2 3.1-2.9-2.1c-1.6-1.1-5-2.6-7.7-3.3l-4.7-1.3L471 52c-2.1 2.5-4 4.3-4.3 4-.3-.3-2.1-2.4-4-4.7l-3.5-4.2-2.9 4.4c-3.3 5.1-5.1 4.8-5.9-1.1-1-6.7-1-6.7-5.5-3.7-4 2.6-4.3 2.6-10.7 1.5-6.6-1.1-6.7-1.2-14-9.1-8.9-9.7-10.6-10.1-16.4-3.9l-4 4.3-11-.2-11-.3-10.2-9.3c-12.2-11.2-21.9-18.8-26-20.3-2.3-.8-4.2-.7-7.5.3-2.4.7-4.8 1.3-5.2 1.3-.4 0-2-2.4-3.6-5.3-2.8-5.1-2.9-5.2-7.8-5.5-3.9-.1-6.1.4-9.9 2.5z"/></svg>
