<svg version="1.0" xmlns="http://www.w3.org/2000/svg" width="1365.333" height="1365.333" viewBox="0 0 1024 1024"><path d="M203.5 1.2c-6.3.9-7.7 1.6-14 6.3-5.3 4.1-9.6 6.3-17.8 9.2l-10.8 3.8-6 10.2-6.1 10.3h-23.6l-10.1 20.7c-5.6 11.5-15 29.7-20.8 40.7l-10.5 19.8 3.7 16.2 3.7 16.1-2.5 6.2-2.5 6.1 2 8.4c1.5 6.2 1.8 10.1 1.3 15.3l-.6 7 9 23 9.1 23 5.9 3.4c6.6 3.8 6.7 3.9 7.7 16.9.5 7 .2 8.6-2.9 17.9l-3.5 10.2 2.3 10.8c3.7 17.9 3.9 28.9 1 52.7l-2.5 20.7 2 23.7c1.2 13 2.3 24.6 2.6 25.7.3 1.1 3 7.3 6.1 13.7l5.6 11.6-3.7 14.7-3.6 14.6 4.1 13.4 4.2 13.3 10.3 8.6 10.3 8.7-1.9 6.7c-1 3.7-3.2 12.2-5 18.9l-3.1 12.2 4.9 8.9 4.9 8.9 1.2 17.4c.6 9.6 1.4 19.9 1.7 22.9l.5 5.5-6 6.7-6.1 6.6v25.6l7.2 23.5 7.1 23.5-1.3 9c-.7 5-1.4 9.5-1.7 10.1-.2.6 5.6 4.3 12.9 8.2l13.3 7.1 3.8 9.5c4.6 11.8 12.8 37.5 12.9 40.3 0 1.1-1.9 7.9-4.3 15.1l-4.3 13.1 4 7.9 3.9 7.8 24.9.5 24.8.5 3.8 9.5c2 5.2 4.8 13.8 6 19l2.3 9.5-3.7 7.4c-2.1 4-3.4 7.7-2.9 8.1.4.4 6.7 5 13.8 10.1l13 9.4 14.5 2.8 14.5 2.8 12.4-5c6.9-2.8 13.2-5.1 14-5.1 3.9 0 34 14 48.9 22.7l16.3 9.6 14.6 1.3c15.8 1.3 16 1.3 49.3-6.2l7.5-1.6 12.5 7.5c6.9 4.2 23.3 15.1 36.6 24.4l24.1 16.8 17.8 20.2 17.8 20.3h11.1l11.1-.1 6.3-7.8c6.2-7.6 6.4-7.8 14-10l7.7-2.2 10.4-12.9 10.3-12.8 5.4 2.4c3 1.3 5.6 2.4 5.8 2.4 1.6 0 8.1-11.2 10.5-18.1 1.7-4.6 5-12.7 7.5-18.1l4.5-9.6 9.3-4.9 9.3-4.9 9 2.3c5 1.2 9.3 2.3 9.6 2.3.4 0 1.2-2 1.9-4.5 1.4-5 3.7-8.2 13-18.2l6.2-6.6 10.6-1.3c6.5-.7 10.8-1.8 11.3-2.6.5-.7 3.9-6.6 7.6-13.2l6.8-11.8 8.2-3.3c9.4-3.8 19.5-11.5 28.6-21.8 5.7-6.5 5.8-6.6 17.5-10.4l11.7-3.9 3.2-8c2.2-5.3 3.2-9.7 3.3-13.4.1-5 .4-5.9 4.3-10.1 2.8-3 5.5-4.9 7.8-5.4 5.9-1.3 6.9-2.2 6.9-6.4 0-2.6 1.4-6.4 4.7-12.3 4.5-8.3 5-8.8 16.9-17.4l12.2-8.9 5-20.3c4.8-20 4.9-20.5 3.6-26.5-2-9.5-2-9.5 2.9-9.9l4.2-.3.3-6.2c.3-6.2.3-6.2 6-11.1 5.6-4.8 5.8-5.3 9.6-16.9l3.9-11.9-2.1-17.3-2.2-17.3-8.2-9.1c-4.5-5.1-9.3-10.4-10.6-11.9-1.3-1.5-2.8-4.8-3.3-7.5-.8-4-2-5.8-7.6-11.5-3.7-3.8-7.2-6.8-7.8-6.8-.6 0-2.5 2.9-4.2 6.4l-3.2 6.4-6.4.7c-6.1.7-6.6.5-15.4-3.9-17-8.5-26.2-14.4-28-18.1-1-1.9-10.1-10.8-20.3-19.9-17.4-15.5-18.9-16.7-25.3-18.6l-6.8-2.1-5.4 4.5-5.3 4.6h-16l-14.9-12c-14.1-11.3-15.2-12-22.8-14-4.4-1.2-10.7-2.9-14-3.9l-5.9-1.7-6.6-10.9-6.6-10.9-5.3-1.3-5.3-1.4-5.5 4.8c-3 2.6-6 5.2-6.7 5.7-.9.6-5.9-1.6-15.6-7l-14.4-7.9-4.8-7.6-4.9-7.6-11.7-2.7c-8.3-1.9-20.5-6.2-41.9-14.8l-30.1-12.2-1.2-6.2c-.7-3.5-1.7-7-2.4-7.8-.6-.9-10.3-6.7-21.6-13l-20.5-11.4-20.2-28.9c-18.2-25.9-20.8-29.1-25.3-31.6l-5-2.9-.1-7.6c-.1-4.3-.4-10.9-.8-14.9l-.6-7.1-12.7-11.1c-12.1-10.6-13.2-11.8-27.3-32.3l-14.7-21.2 1.6-13.6c.9-7.4 1.6-13.8 1.6-14.1 0-.3-3.2-1.8-7.1-3.5-7-2.8-7.1-3-10.6-9.9-2-3.9-7.8-17.3-13-29.9-8.9-21.9-9.3-23.2-9.3-30.4 0-5.6-.9-10.5-3.7-20.1-2-6.9-3.8-12.8-3.9-13-.2-.2-2.2.4-4.6 1.3-4.2 1.6-4.5 1.5-19.3-2.7l-15-4.4L298 69.6c-11-15.9-11.8-16.8-18-20.2-3.6-2-8.7-5.5-11.5-7.9-2.7-2.3-15.8-12.6-28.9-22.9C221.7 4.6 215.1 0 213.1.1c-1.4.1-5.7.6-9.6 1.1z"/></svg>
