<svg version="1.0" xmlns="http://www.w3.org/2000/svg" width="1365.333" height="1365.333" viewBox="0 0 1024 1024"><path d="M728.1 8.2c-1.7 4.6-3.5 9.1-3.9 10-.4.9-3.9 4.6-7.9 8.2-8.4 7.5-10.3 8-29.4 7.4-10.9-.3-11.7-.5-19-4.2l-7.6-3.8-4.6 2c-4 1.8-5 2.8-7.2 7.7-2.1 4.8-3.1 5.9-6.5 7.2-3.9 1.5-4 1.8-4 6.2 0 8.2-.5 8.9-8 11.1-3.8 1.1-9.3 2.5-12.2 3.1-5.1 1-5.8.9-10.9-1.6-3-1.5-7.6-4.9-10.4-7.4-2.7-2.6-7.8-6.7-11.3-9.1-4.8-3.4-7.5-6.3-11.2-12.2-5.5-8.6-7.1-9.7-26.6-17.8-5.4-2.2-10.2-4.4-10.6-4.8-.4-.4-3-.5-5.7-.4l-5.1.4v6.1c0 5.2-.4 6.5-2.6 8.8l-2.7 2.8 4.1 8.3c5.5 11.1 8.7 26.9 7.8 38.3-.5 7.7-.7 8.1-4.2 11-2.1 1.6-5.3 3.4-7.2 4-3 .9-3.7 1.8-5.9 7.5-1.3 3.6-3 9.5-3.7 13.1-.7 3.7-2 7.7-2.9 8.9-1.5 2.1-1.4 2.6.4 6.1 1.7 3.5 1.9 6 1.9 30.1v26.3l-3.1 7.7c-2.9 7.2-3.5 7.9-8.7 11-5.3 3.2-5.7 3.7-7.5 9.8-1.1 3.6-2.3 6.8-2.8 7.1-.5.3-3.8 1.1-7.3 1.8-3.8.8-7.2 2.1-8.2 3.2-1 1.1-3 1.9-5.1 1.9-2.6 0-3.3.4-3.3 2 0 1.7-.7 2-3.9 2-3.4 0-4-.4-5.1-3-.7-1.7-2.2-3.5-3.2-4.1-3.2-1.7-11.7-.1-14.6 2.8-1.3 1.3-4.1 3.1-6.3 4-3.6 1.4-3.9 1.8-3.9 5.2 0 5.1-1.5 6.7-8 8.5-7.9 2.2-11 2.2-15.5-.1-2.2-1.1-7.3-3-11.3-4.2l-7.2-2.2-8.1 2.6c-5.9 1.8-10.2 2.5-16.3 2.5-12.8 0-19.5 1.6-23.6 5.5-7.4 7-13.4 8.1-20.3 3.8-2.3-1.4-7.5-4.1-11.5-6-9-4.1-14.2-4.2-28.1-.9-5.5 1.3-12.4 2.7-15.5 3.1l-5.5.7-1.1 4.9c-1 4.2-1.6 4.9-3.6 4.9-3.6 0-6.4-6.3-6.4-14.4 0-4.8-.7-8.1-2.5-12.2-2.9-6.5-3.2-13.4-1-18.7 2.1-5.2 1.9-6-2.1-8.2l-3.6-1.9 3.3-2.6 3.2-2.7-4.2-1.7c-5.7-2.2-8.3-7.9-8-17.4l.3-6.7-3.7-.3c-3.3-.3-4.1-1-7.1-5.6-1.8-2.9-5.2-6.7-7.5-8.5l-4.2-3.4-8.2 2.2c-10.6 2.8-14.8 2.7-19.5-.3-3.6-2.4-18.7-7.6-21.9-7.6-.8 0-3.1-1.4-5-3-4.2-3.7-10.5-4.2-12.5-1s-7.9 2.7-10.6-.9c-1.3-1.8-3.3-3-5.4-3.4-3.2-.5-5.4.6-24.4 11.9-1.2.7-2.6 3.1-3.2 5.4-1.1 4.5-1.7 3.8 6.5 7l2.6 1.1-3.9 2.6c-2.1 1.4-4.3 2.9-4.7 3.3-.4.4-.1 4.9.8 10.1.8 5.2 1.5 10.8 1.5 12.6 0 3.4-6.4 15.1-8.8 16-1 .4-1.2 1.7-.7 5.4.6 4.2.4 5-1.2 5.6-1 .3-4.2 2.5-7 4.7l-5.3 4.1v5.8c0 10.1 6.4 15.6 18.2 15.7 5.5 0 5.8.1 6.3 2.7.3 1.6 1.2 3.9 2 5.3s2.4 4.4 3.5 6.6c2 4.2 3.6 5.4 6.9 5.4 3 0 5.1 7.4 4.1 14-.5 3-.9 7.1-.9 9.1l-.1 3.6 8.7 2c8.3 1.8 8.7 2.1 9.5 5.1.8 3 1.2 3.2 5.1 3.2 2.5 0 5.8.9 8.2 2.3 3.6 2.1 4 2.7 4 6.2 0 2.2-.4 6.4-.7 9.4l-.7 5.4 4.2-.6c4.2-.6 4.2-.5 8.6 5.3 6.3 8.3 9.1 10.2 14 9.4 3.9-.6 4-.6 5.6 3.4 1.1 2.6 2.8 4.6 5 5.8 2.9 1.6 3.5 2.5 4 6.4.4 2.5 1.3 6.1 2.1 8.1 1 2.4 1.3 4.8.9 7.3-.6 2.8-.3 4.1.9 5.5 1.6 1.8 1.4 2.4-2.8 10.5-2.5 4.8-6.1 10.7-8.1 13.3-2.7 3.6-3.5 5.5-3.5 8.8 0 2.3-.7 6.3-1.7 9l-1.6 4.9 3.4 2.8 3.4 2.9-2.7 4.9-2.7 4.8 2.5 9.3 2.4 9.2-2 2.2c-1.1 1.1-2.5 3.5-3.1 5.3-1 2.9-1.5 3.2-5 3.2-4.5 0-4.3-1.2-2.8 14.9 1.5 16.6 1.4 16.1 5.3 16.1 1.8 0 8 1.2 13.7 2.6l10.3 2.6 3.8-4.1 3.9-4.1h18.5l4.2 5.7c4.4 6 4.8 7.3 3.2 10.3-.7 1.2-.6 3.6.1 7.2 1.7 8.6 1.2 23.6-1 27.2-1.6 2.7-1.8 5.2-1.6 20.6.2 16.3.4 18 3 25l2.8 7.5-2.7 8c-1.8 5.7-2.6 10.3-2.6 15.2 0 5.5-.7 8.9-3 14.9-1.6 4.2-3.6 8.4-4.5 9.4-.8.9-2.7 5-4.1 9.1-2.2 6.5-2.4 8.4-1.8 15.6.6 7.5 1 8.7 4.4 13.3 2.1 2.8 4.1 6.7 4.5 8.7.3 2 3.1 8.5 6.1 14.5 4.3 8.6 5.4 11.7 5.4 15.5-.1 4.6.2 5 5.5 9.8 5.4 4.8 5.6 5.3 6.6 12 1 6.2 1.6 7.4 4.8 10.5 4.4 4.1 5.1 6.8 6 22l.6 10.5 6.3 1.5c3.5.8 6.3 1.9 6.3 2.5 0 .5-.5 2.9-1.1 5.1-1.1 3.8-.9 4.7 2.3 11.5 1.8 4.1 5.2 9.6 7.4 12.2 3.2 3.9 4.3 6.2 5.3 11.8 1.3 6.6 1.6 7.2 5.9 10.4 2.5 1.8 6.5 5.3 8.9 7.8 5.8 5.9 7.6 13.2 6.8 26.9l-.6 9.6 7.3 3.9 7.2 4 .1 4.9c.1 8.5 1.4 14.1 5.9 24.8 2.8 6.8 4.8 13.4 5.6 18.8.7 4.5 2.6 12.5 4.3 17.8l3.1 9.5 15.2 7.5 15.1 7.5 2.1 7.6c1.2 4.4 2.1 10.6 2.1 14.7 0 8.4-.2 8.3 12.9 8.2 7.4-.1 11 .3 15.5 1.9 6.6 2.3 14.8 2.8 16.3.8.6-.6 1.3-3 1.7-5.2 1.1-6.5 1.6-7.5 3.7-7.5 1 0 4.7-1.1 8.2-2.5l6.4-2.6 3.7-9.2c2-5.1 4.9-10.7 6.4-12.5l2.8-3.3 2.7 2.5c1.5 1.4 2.7 3.4 2.7 4.4 0 2.8 1.7 3.8 8.2 4.9 5.6 1 5.8.9 8.8-2.2 2-2.1 3-4.1 3-6.2 0-4.5 4.7-7.9 12.5-8.8 6.4-.8 13.8-4 16.9-7.4 1-1.1 3.3-2.5 5.1-3.1 1.8-.6 4.5-2.9 6.5-5.5 3.1-4.2 3.6-4.4 8.9-4.7l5.5-.3 1.1-4.5c1-4.1 1.4-4.5 4.4-4.8 3.3-.3 11.7-4.8 15.8-8.5 1.4-1.2 3.3-5.5 4.9-10.6 6.7-22 22-43.5 34.3-48.1 4.9-1.8 6.1-2.8 9.5-8.1 3-4.7 5-6.6 8.3-8 3-1.3 4.3-2.4 4.3-3.8 0-1.1 1.6-3.3 3.5-4.8 2.9-2.3 3.5-3.4 3.5-6.7 0-2.6 1.1-5.6 3.5-9.6 2.8-4.6 4.2-5.9 7.4-6.8 2.8-.9 4.1-1.9 4.5-3.7.4-1.4 2.2-3.5 4.1-4.8 3.1-1.9 3.5-2.7 3.5-6.5 0-2.3-.4-4.2-.8-4.2-1.4 0-5.2-4-5.2-5.6 0-.8 1.1-1.9 2.5-2.4 2.1-.8 2.4-1.4 1.9-3.9s.2-4.3 3.9-9.8c2.6-3.8 6.7-11.7 9.3-17.8 2.6-6.2 5.6-11.6 6.8-12.4 1.1-.8 6-5.3 10.9-10 8.7-8.4 8.7-8.5 8.7-13.5 0-4 .7-6.1 3-9.6 1.6-2.5 3.5-7.1 4.1-10.2l1.1-5.7 7.7-2.6c4.4-1.4 9.9-2.5 13-2.5 4.7 0 6 .5 9.7 3.5 4.3 3.5 4.4 3.6 7 1.8l2.7-1.7-.7-10.4c-.6-10.6-1.2-12.7-5.2-17.5-3.3-4-3.3-10 0-11.5 1.8-.8 2.5-2.1 3-5.7.4-2.5 1.8-6.9 3.2-9.8 1.3-2.9 2.4-6.2 2.4-7.5 0-1.6 1.3-3 4.4-4.9 4.3-2.6 5.6-4.6 5.6-8.8 0-1.2 1.8-3.9 4.1-6l4.1-4-.4-8.6-.3-8.7 5.5-5.8c3.1-3.3 6.3-6.9 7.1-8.1 1.4-2.1 1.7-2.1 7.4-.7 8.2 1.9 8.1 1.9 9.5-3 .8-2.9 2.7-5.8 5.8-8.9 4.2-4 5.7-4.7 13.9-6.7 9.2-2.2 9.2-2.2 12.4-7.1l3.1-4.9h11.5l7.2-8.1c10.8-12.2 14.6-17.8 17-24.8 1.1-3.6 2.1-7 2.1-7.7 0-1.1-10.6-6.4-12.8-6.4-1.5 0-3.2-3.3-3.2-6.2 0-1.6 1.1-2.9 3.8-4.5 3.4-1.9 4-2.8 5.1-8 .7-3.2 2.2-7.2 3.2-8.9 1.8-2.9 2.4-3.2 11-4.4 8.2-1.1 9.5-1.6 12.9-4.7 3.3-2.9 4-4.2 4.6-8.9.5-4.7 1.1-5.7 3.5-6.9 1.5-.8 3.2-1.5 3.6-1.5.5 0 2.1 2.5 3.6 5.5 2.6 5.4 2.8 5.5 6.9 5.5 3.4 0 5.1-.7 8.7-3.8 3.8-3.1 5.9-4 12.1-5 4.3-.7 8.2-2 9.2-3 1.6-1.6 1.6-2.1.1-7.9-2.1-8.7-1.3-12.8 3.1-14.3 4-1.3 4.6-3.3 4.6-15.6 0-7.7-.3-8.8-3.2-13.6-2.9-4.7-3.3-6.2-3.4-12.8-.1-13-.2-13.1-4.2-16.9-5.3-5-10.2-12.5-10.2-15.4 0-1.8 2-4.5 6.5-9 3.6-3.6 6.5-7.2 6.5-8.1 0-.9 1.7-3.5 3.8-5.9 5.1-5.5 10.3-14.3 8-13.4-.9.3-5.6.9-10.5 1.3-6.2.4-10.1 1.3-13.3 3-9.5 4.8-33.3 3-41.8-3.3-2.7-2.1-3.9-2.3-7.8-1.7-3.9.6-4.8 1.1-6.2 4.1-1.4 3-1.9 3.3-4.7 2.7-2.7-.5-8.4-5.7-8.5-7.7 0-.5-1.7-4.7-3.7-9.4-3.4-8-3.9-8.7-8.3-10.7-8.8-4.1-14.8-8.6-18.1-13.7-3-4.8-3.3-4.9-6.8-4.3-2 .4-5 2-6.8 3.7-2.7 2.5-3.3 3.9-3.3 7.2v4.1l-5.7 1.8c-3.9 1.2-7.4 3.3-10.5 6.2-6.5 6-9.3 6-13.3-.3-5.6-8.9-12.4-16.3-14.9-16.3-1.8 0-2.7-.8-3.5-3.2-.7-1.8-3-5.2-5.3-7.5-3.3-3.3-5-4.3-7.5-4.3-1.8 0-3.3-.1-3.3-.3 0-.2-1.1-3-2.4-6.4l-2.3-6 4.3-3.4c3.6-2.8 4.3-4 4.4-6.9 0-2.9.9-4.5 4.9-8.4 6.8-6.7 7.7-10.1 5.3-20.1l-1.9-8 3.5-4.3c1.9-2.4 4.4-4.8 5.4-5.3 1.5-.8 1.7-1.7 1.3-4.3l-.7-3.3 6.7-.6c7.4-.5 11-2.5 13.5-7.3 2.1-4 2.8-4.4 8.2-4.4 4.5 0 4.8-.2 5.6-3.3.7-2.4.4-4.4-1-8.2-1.1-2.8-2.1-5.1-2.2-5.2-.1-.2-2.9.2-6.2.7-3.7.6-6.3 1.6-6.9 2.6-1.9 3.3-4.5 5.4-6.5 5.4-1.1 0-3.9 1.2-6.1 2.7-3.7 2.5-4.2 2.5-5 1-.7-1.2-2.3-1.7-5.8-1.7h-4.8l-2.2-5.6c-2.9-7.7-2.7-9.7 1.7-15.7 2.2-2.9 4.9-8.1 6.1-11.7 1.2-3.6 4.2-9.2 6.6-12.4 5-6.6 5-6.5 3.1-15.3l-1.3-6.3 4.4-2.7c6.4-4.1 15.4-19.9 16.5-29.2.7-5.8 1.2-6.9 4.2-9.6 5.6-4.8 7.6-9.1 7.6-16 0-6.8-1.1-8.5-7.7-13.2-2.3-1.7-8.2-6.8-13.1-11.4-8.8-8.3-8.9-8.5-9.7-14.3-.9-7.8-1.9-10.3-4.5-11.1-1.5-.5-2.9 0-4.4 1.4-3.8 3.6-8.7 2.8-18.1-2.9-4.6-2.8-8.5-5-8.7-5-.3 0-1.9 3.7-3.7 8.2z"/></svg>
