<svg version="1.0" xmlns="http://www.w3.org/2000/svg" width="1365.333" height="1365.333" viewBox="0 0 1024 1024"><path d="M591.1 1.1c-2.5.5-5.6 2-7.2 3.5-2.3 2.2-3.1 2.5-4.3 1.5-1.2-1-2.1-.4-5.3 3.9-3.1 4.1-4.2 5-6 4.5-1.3-.3-3.1 0-4.1.6-1.5.9-2.7.9-5.2 0-3-1-3.6-.9-5.6 1-2.1 1.9-2.8 2.1-6.5 1.1-3.5-.9-4.8-.8-7.3.5-1.7.9-6.2 2.4-10.1 3.3-8.2 2-7.9-.2-3 20.9 3.2 13.9 4.2 16.1 7.6 16.1 1 0 2 1.5 2.7 3.9 1.6 5.3 1.6 5.7-1.5 9.7-2.3 2.8-3.5 3.4-6.6 3.4h-3.8l.6 5.4c.6 4.8.5 5.5-1.3 6.5-1.3.7-2.1 2.5-2.6 5.7-.5 3.9-1.3 5.3-5.4 9-4.7 4.1-4.9 4.6-5.5 10.9-.4 3.6-.9 7-1.2 7.6-.4.5-3 2.1-5.8 3.5-6.3 3.3-14.7 10-30.2 24.3-11.9 11-12 11.1-17 11.1-2.7 0-6.7-.5-8.7-1-2.7-.8-6.4-.7-13.9.5-5.6.8-13.1 1.5-16.6 1.5-4.8 0-7.6.6-11.3 2.5-2.7 1.4-6.6 2.5-8.7 2.5-3.4 0-4.1-.5-6.7-4.6-3.5-5.6-5.5-6.4-15.9-6.4-7.2 0-8.7.3-12 2.5-3 2.1-3.7 3.2-3.7 5.8 0 2.5-.7 3.6-2.9 4.9-4.5 2.5-6.6 6.3-5.2 9.4 1.7 3.8 1.4 4.5-1.5 3.4-1.5-.6-4.2-.7-6.1-.4-3.4.6-3.5.8-3 4.5.4 3.3.2 3.8-1.8 4.3-1.3.3-4.2-.1-6.5-.9-4.5-1.6-14-2.1-14-.7 0 .4.4 1.2.9 1.7.5.6 1.2 4.1 1.6 8l.8 7-2.1-1.9c-2.1-1.8-2.2-1.8-5.7 1.3-2 1.7-3.9 3.1-4.3 3.1-.4 0-1.3.4-2 .9-1.1.6-.6 2.3 2.2 7.9 2 3.9 3.6 7.3 3.6 7.5 0 1.3-10.7-1.6-15.9-4.2L291 215l-1 2.5c-1.3 3.4-1.3 7.1.1 9.7 1.5 2.8.8 3.1-3.4 1.3l-3.6-1.5-2 5.6c-1.2 3-2.1 7.1-2.1 9.2 0 2-.6 7.7-1.4 12.5l-1.3 8.9-7.7 7.7-7.7 7.8.7 13.6c.6 12.1.5 13.9-1 15.6-1.4 1.5-1.7 4.2-1.9 13.9l-.2 12 48.5 31.9 48.5 31.8.7 32 .8 32-2.6 4.9-2.5 5 2.2 5.3c1.5 3.6 2.6 5.2 3.7 5.1 1.3-.2 2 2 3.8 12 1.3 6.8 2.9 13.1 3.6 14 13.2 16 16.6 19.6 20.2 21.4 2.3 1.1 5.8 3.6 7.9 5.6 3.3 3.2 3.7 4.1 3.7 8.7 0 2.7.7 10.4 1.5 17 1 8.1 1.5 22.4 1.5 43.9v31.9l3.1 5.3 3 5.4-2.5 3.3c-1.7 2.2-2.6 4.7-2.6 6.9 0 2-.7 4.1-1.5 4.8-2 1.6-1.9 2.6.4 5.8 1.7 2.5 1.9 7 3.2 58.7.8 30.8 1.4 68.4 1.4 83.5.1 15.1.5 40.7.9 56.7l.9 29.3-8.3-.7c-7-.5-8.2-.4-7.8.8.3.8 1.4 4 2.4 7.2 1.2 3.8 2.9 6.8 4.9 8.6 3 2.6 3.1 2.8 2.9 11.6-.3 9.1-1.8 15.1-5.3 20.9-1.7 2.7-1.8 3.3-.5 5 .8 1.1 1.4 3.2 1.4 4.6 0 3.1 3.7 6.9 9.6 9.8 6 3 7.6 6 6.8 12.7l-.7 5.5h4.3c3.8 0 4.8.5 8.1 4.1 4 4.3 4.4 5.9 5.5 18.5l.6 8.1-2.9 1.1c-1.7.5-7.6 1.8-13.2 2.8-9.3 1.6-10.1 1.9-10.1 4 0 3.3 1.5 3.7 6.8 2 6-2 25.5-4.6 34.7-4.6 4.4 0 18-2.1 36.5-5.6 24.2-4.6 31.8-5.7 42-6 6.9-.1 15.4-.7 19-1.3 3.6-.6 8.8-1.1 11.6-1.1 2.8 0 10.6-1.1 17.4-2.5 6.8-1.4 12.4-2.5 12.5-2.5.1 0 .5-3.5.8-7.8.3-4.2 1.7-11.9 3.2-17.1 2.7-8.9 2.7-9.5 1.2-12.1-2.5-4.1-1.2-8.5 3.5-12.3 3.6-2.9 3.9-3.4 3.6-7.7-.3-3.9-.6-4.5-2.6-4.8-1.7-.3-2.9-1.6-4.3-4.6-1.7-3.9-1.7-4.6-.4-9.1.8-2.6 1.5-6.9 1.5-9.4 0-3.7-.6-5.1-3.1-7.7l-3-3.1 1.7-4.1c1.2-3.3 2.8-4.8 7-7.3 3-1.7 5.4-3.2 5.4-3.4 0-.3-1.3-1.1-2.8-1.9-1.7-.9-3.5-3-4.4-5.3-1.4-3.7-1.4-4.1.7-7.1l2.2-3.2-1.9-10.3c-2.2-12-2.3-12.9-2-26.9l.2-10.7 3.4.6 3.4.5.7-6.2c.7-5.7.5-6.3-1.5-7.7-10.7-7.5-12-11.2-12-33.9v-17l-3.6-3.5c-2-1.8-4.4-4.6-5.5-6l-1.9-2.7 3.5-4.5c1.9-2.5 3.5-5.6 3.5-6.9-.1-7.1 3.4-28.8 5.2-32.5 2.4-5 1.9-9.3-1.7-16.3-1.3-2.5-3-7-3.8-10.1-1.3-5.1-1.3-5.9.4-9 1-1.9 1.8-4.6 1.9-6 0-1.4.8-3.3 1.8-4.3 2.9-2.5 4.5-8.7 3.8-13.7-.4-2.4-1-11.8-1.4-20.9-.5-9.6-1.3-17.8-2-19.5-1.2-2.8-1.1-3.1 1.2-5 1.7-1.4 2.6-3.1 2.6-4.9 0-1.5.7-5.3 1.6-8.4 1.6-5.5 1.6-5.6-.4-7-1.7-1.1-1.9-1.8-1.2-3.2 1.3-2.4 4-15.3 4-19 0-1.6.3-3.1.8-3.3.4-.3 3.5 0 7 .6 5.8.9 6.4.8 8.5-1.2 3.4-3.1 12.9-3 15.1.1l1.5 2.1 8.9-3.8 8.9-3.8 3.8-11.6c2-6.4 4.8-13.7 6.1-16.2l2.3-4.7-2.1-12.4c-2.4-14.1-1.9-17.7 3.3-20.3 3.4-1.8 11.5-14.6 12.4-19.7.9-5 3.6-7.4 6.5-5.8 2 1.1 2.7.7 6.9-3.4l4.6-4.7-3.3-6-3.3-6 1.5-4.7 1.6-4.8 11.5-3.8 11.5-3.7 3.5 2.1c4.1 2.5 5.1 2.1 8.6-3.9 1.2-2 3.7-5 5.5-6.6 3.1-2.8 3.4-3.7 4.4-12.2 1.3-11.9 2.2-14 5.8-14.8 2.5-.5 3.1-1.2 3.6-4.3 1.3-8.3.8-10.3-3.6-14.7-2.4-2.3-5.8-7.1-7.7-10.6l-3.4-6.5 3.7-7.8c2-4.3 3.6-9.4 3.6-11.3 0-3.1.4-3.6 4.6-5.3 2.5-1.1 5.2-2 6.1-2 .8 0 4.5 1.8 8.3 4 3.8 2.2 7.1 4 7.3 4 .9 0 3-6.4 3.8-11.5.4-2.8 1.4-7.4 2.3-10.2.8-2.9 1.8-10.7 2.2-17.3l.7-12H758l-4.1-8.8c-3.9-8.4-4-8.8-2.5-11.5 3.2-5.7 1.2-22.3-3.1-26.9-2.6-2.7-2.6-2.8-1.3-10 .7-4 1.3-7.7 1.4-8.2.1-.5-1.8-1.5-4.1-2.3-3.7-1.3-5.9-3.7-20.4-22.5-8.9-11.5-17.3-23-18.7-25.5l-2.4-4.4 2.2-8.4c1.2-4.6 1.9-8.8 1.6-9.4-.4-.6 1-1.5 3.2-2.2 3.6-1 4-1.5 5.1-6.2.6-2.8 2.3-7.7 3.8-10.9l2.6-5.9-2.6-2.7c-1.5-1.6-2.7-4.1-2.9-6.2-.2-2.8-.8-3.6-2.6-3.8-1.8-.3-2.3-.9-2-2.7.2-1.7-1-3.3-5.4-6.9-3.1-2.5-6.6-4.6-7.7-4.6-1.2 0-3.9-1.6-6.1-3.6-3.8-3.4-4.4-3.6-9.1-3.2-2.9.3-6.6.1-8.5-.5-2.9-.9-3.6-1.9-7.3-10.8-2.2-5.4-4.3-10.9-4.7-12.4-.9-3.7-10.8-11.5-14.5-11.5-2.4 0-3.2-.6-4-2.9-.7-1.9-2.7-3.7-6-5.5-4.3-2.4-5.4-3.7-8.9-10.6-3.9-7.8-4-7.9-8.6-8.6-3.8-.5-5-1.3-7.3-4.5C609 8.4 599.5 0 597.4.1c-1.1.1-3.9.5-6.3 1z"/></svg>
