<svg version="1.0" xmlns="http://www.w3.org/2000/svg" width="1365.333" height="1365.333" viewBox="0 0 1024 1024"><path d="M315.6 252.5c-1.1 1.9-2.7 3.5-3.6 3.5-1.5 0-1.7.7-1.3 4.4.5 3.9.3 4.5-2.6 6.5-2.4 1.8-3.4 2-5.1 1.1-2.2-1.2-4-.6-4 1.4 0 .7-.6 2-1.3 3-1.3 1.7-1.5 1.7-4.5.2-4.5-2.3-8.9-2-12.3.8-2.6 2.2-3.6 2.4-11 2-8.2-.3-12.9 1.1-12.9 4 0 .7-1.4 3.8-3 6.8-2 3.7-3.8 5.8-5.5 6.2-1.3.3-3.7 2.5-5.2 4.9-2.4 3.4-3.5 4.2-5.9 4.1-1.6 0-3.6-.4-4.6-.8-1.2-.6-1.8-.1-2.3 2.2-.3 1.6-2 4.2-3.6 5.8-1.7 1.6-3.9 4.5-4.9 6.5-1.1 2-2.6 3.9-3.5 4.2-1.6.7-2.1 3.3-.6 3.9.4.1 1.1 1.2 1.5 2.3.4 1.5-.2 2.4-2.4 3.7-2.5 1.4-2.9 2.2-2.4 4.3 1 4-.4 9.3-2.6 10-1.2.4-2 1.5-2 2.8 0 2.8-.8 3.9-4.5 5.7-2.3 1.2-2.9 2.2-2.7 4.2.2 1.9-.2 2.7-1.7 3.1-2.2.5-4.1 4.3-4.1 8.2 0 1.8-.7 2.6-2.4 3.1-1.4.3-2.9 1.8-3.6 3.4-.8 2-2.2 3.1-4.3 3.6-1.8.3-4 1.4-5.1 2.3-1.1 1-3.8 1.7-7.4 1.8-5.3.1-5.8.3-7.9 3.7-1.3 1.9-3.1 4-4.2 4.5-1 .6-2.4 2.4-3.1 4.1-.8 1.8-3 4.1-5.6 5.6-2.4 1.4-4.4 3.2-4.4 4 0 .8-.7 1.4-1.5 1.4-2.7 0-3.9 5-2.1 8.8.9 1.8 1.6 4.1 1.6 5 0 2.4-3 5.6-6.7 7.1-3.1 1.3-7.7 9-8.9 14.9-.4 2.1-1.9 3.9-4.6 5.7-2.1 1.4-5.5 5.1-7.5 8.3-2 3.1-3.7 5.9-3.9 6-.1.2-2.4-.1-4.9-.6-4-.9-5.5-.7-10.8 1.4-7 2.7-10.1 5.3-12.8 10.6-1.5 2.9-2.6 3.8-4.4 3.8-1.8 0-3.1 1-4.5 3.2-1.1 1.9-1.5 3.5-1 3.8.5.3-1 2.6-3.5 5-4.8 4.7-6 9.5-3 12 2.1 1.7 1.9 2.5-1.6 6.5-2.1 2.4-3 4.2-2.6 5.6.3 1.1-.3 3.5-1.3 5.2-1.5 2.5-1.7 4-1.1 6.9.7 3.2.6 3.9-1.1 5-2 1.3-1.9 1.5 2 6 4.1 4.8 5.8 9.3 4.8 12.6-.7 2.1 1.6 4.6 5.2 5.6 1.8.6 2.2 1.5 2.2 4.6 0 3.1-.4 4-2.2 4.5-1.3.4-3.6 1.9-5.1 3.3l-2.8 2.7-2.3-3c-1.3-1.7-3.2-4.1-4.3-5.4l-2-2.4-4.6 3.2c-2.6 1.8-4.7 3.8-4.7 4.6 0 .8-.5 3.7-1.1 6.5-.9 4.4-1.6 5.3-4.9 7-2.2 1.1-5.6 2-7.7 2-2.1 0-5.6.5-7.8 1.1-4.7 1.3-10.8 5.6-9.9 7 .3.6-.2 5.3-1.2 10.5l-1.8 9.4h-3.4c-1.9 0-4.7.9-6.3 2.1-2.3 1.6-2.9 2.8-2.9 5.9 0 2.1-.5 4.2-1.2 4.6-1.7 1.1 7 4.3 11.8 4.3 3.1.1 5 .9 8 3.5 2.5 2.1 6.1 4 9.4 4.8l5.3 1.3 1.9 6.9c1.6 6 1.7 8.1.8 16.8-1.4 14.4-1.3 29.8.3 29.8.6 0 3.8-3.2 7-7l5.9-7 4.5 3.7 4.5 3.7-.6 6.1-.6 6 5.4 2.9 5.3 2.9 5.5-3.2c6.5-3.7 7.4-3.8 8.3-1.1.4 1.3 1.9 2.3 3.6 2.7 2.9.5 3 .7 2.3 4.9l-.6 4.4 3.6-1.5c3.2-1.3 4-1.4 7.1-.1 3.1 1.3 3.5 1.9 3.5 5.3 0 2.1.7 4.7 1.5 5.7.8 1.1 1.5 3.3 1.5 4.8 0 1.6.6 4.1 1.4 5.7 1.5 2.8 9 10.1 10.4 10.1.5 0 3-.7 5.6-1.6 3.8-1.3 5.6-1.4 8.2-.6 2.5.7 4.7.7 8.5-.3 2.9-.8 7.2-1.1 10.4-.8 4.4.5 5.6.3 6.1-1 .3-.9 4.1-3.7 8.4-6.2 6.4-3.8 8.2-4.4 9.7-3.5 1.4.9 3.1.7 7.3-.8 9.5-3.3 11-3.3 11 .2 0 2.9 1.7 3.6 10 4 7.2.4 10 2.3 10 7.2 0 4.8 3.2 6.7 8.5 5.3 2.2-.6 4.4-1.5 4.9-2 .6-.5 4.9-.9 9.7-.9 8.1 0 8.8.2 10.3 2.5 1.8 2.7 8.4 6.5 11.4 6.5 1 0 2.4.6 3 1.2.7.7 3.5 1.3 6.3 1.4 5.8.1 7.3 1.2 6.4 4.6-.6 2.3-4.7 5.6-7 5.6-1.3.1-3 6.5-2.2 8.5.4 1.2 1.5 1.4 4 1 2-.3 3.7-.1 4.1.6 1.1 1.7 4.3-.4 6.1-3.9 1.3-2.6 1.9-2.9 3.6-2 1.1.6 2.8.8 3.9.5 1-.3 2.1-.1 2.5.5.3.5 1.5 1 2.6 1s2.3 1 2.8 2.2c.8 2 1 2.1 1.6.6.7-1.8 7.1-4.1 8.7-3.1.6.3.8 1.4.5 2.4-.3 1.3.6 3 2.5 5l3.1 3 5.7-2.1 5.8-2.2 7.7 2.2c7.8 2.2 9.7 2.1 7.6-.3-1.6-2 .1-9.3 2-8.8 9.3 2.6 12.8 3.1 23 3.1 7.7 0 12.8-.5 15-1.4 2.2-.9 5.8-1.2 11.3-.9 8.5.5 10.7-.1 46.2-13.2l4-1.5-1-5.9c-1.2-7.2.6-12.1 6.8-18.8 3.5-4 4.3-4.3 8.8-4.3 2.7 0 7.8.8 11.3 1.7l6.4 1.7 7-4.7c5.4-3.6 7.1-5.3 7.1-7 0-4.6 1.9-5.6 12-6.2l9.5-.7 19.4 14.6c12.9 9.7 20.8 15 23.5 15.7 20.3 5.3 21.9 5.8 24.6 9 2.5 3.1 2.7 3.1 6.3 2 3.5-1.2 4-1.1 7.9 1.8 4.7 3.5 7.2 3.8 12.5 1.6 5.1-2.2 67.4-6.9 68.5-5.2.5.8 2.1.7 6.1-.7 5.2-1.8 5.5-1.8 14.8.3l9.4 2.1 7.2-7.4 7.2-7.4 4.9 1.8c4 1.5 7.6 1.8 21.8 1.8 18.6 0 23.7.9 29.4 5.3 5.3 4.1 15.6 4.9 22.8 1.7 4.4-2 6-3.5 10-9.6l4.8-7.2 7.6 5.8c5 3.9 9.5 6.4 13.6 7.6 6 1.9 6.1 1.9 21.2-.8 11.6-2 15.9-3.2 18.8-5.1 4.4-3 4.7-3 13.6-.4 11 3.3 16.9 1.8 37.1-9.3l16-8.8 4.9-8.4c4.9-8.3 5-8.4 10-9.4l5.1-1 10.2 5.9c5.7 3.3 12.4 8.1 15.1 10.8 4.5 4.5 5.2 4.8 11.7 5.5 9.3 1 13.2.8 15.8-.9 1.2-.7 4.1-1.8 6.5-2.5 3.8-1 4.2-1.4 4.2-4.1 0-1.9 1-4.3 2.5-6.1 2.4-2.8 2.5-3.6 2.5-15.3 0-11.4-.2-12.5-2-13.5-1.4-.8-2-2.1-2-4.8 0-4-2.1-7.3-5.7-9.1-1.8-.9-2.1-1.7-1.7-4.1.8-3.7-3.1-7.6-8.6-8.5-3.8-.6-3.9-.8-5-6.3-.7-3.1-1.8-7.2-2.6-9-1.8-4.2-1.8-7.1.1-7.8 2.3-.9 2.9-6.8 1.1-12l-1.6-4.6 3.5-3.5c1.9-1.9 3.5-4.2 3.5-5 0-.8.9-2.7 1.9-4.2 3.3-4.5 3.5-7.3.9-11.1-1.6-2.3-3.3-3.6-5.1-3.8-2.4-.3-2.7-.7-2.1-2.5.4-1.2 1.2-2.5 1.8-2.9 2.3-1.5 7.9-2.1 9.7-.9 2.7 1.6 11.8 1.4 12.5-.3 1.3-3.4-5.7-10.6-10.4-10.6-1.6 0-8.2-9.2-8.2-11.4 0-1.1-1.2-3.3-2.7-4.8l-2.8-2.9 2.2-5.8 2.1-5.9-2.4-2.8c-1.3-1.6-2.3-4.3-2.4-5.9 0-2.1-.9-3.7-3.1-5.5-2.3-1.9-3.2-3.6-3.6-7-.3-2.5-1-5.3-1.5-6.3-1.3-2.6-4.7-2.1-7.7 1.2-2.2 2.3-3.8 3-9 3.6-5.7.6-6.4.5-8.3-1.5-1.8-1.9-2.8-2.1-6.6-1.6-2.8.4-5 .2-5.9-.5-1-.9-2-.9-3.8-.1-2.1 1-2.6.8-3.6-.9-.6-1.1-1.6-1.8-2.4-1.6-.7.3-1.8 0-2.5-.6-.9-.9-1.7-.5-3.5 1.7-1.7 2.1-3 2.8-5.1 2.6-5.8-.4-10.8 0-11.8 1-1.5 1.5-4.6 1.2-5.2-.4-.7-1.9-3.4-2.9-4.8-1.8-4.7 3.7-13.6 3-11.6-.9 1.4-2.6 1.2-3.9-.7-4.6-1-.4-2.5-1.6-3.5-2.7-1.5-2-1.7-2-3.5-.3-1.1.9-2.4 1.7-2.9 1.7-.6 0-2.5 1.1-4.4 2.5-3.8 2.8-6 2-6-2.2 0-1.6-1-3-3.4-4.4-2.3-1.3-3.9-3.4-5.1-6.4-1.1-3-2.3-4.5-3.4-4.5-2.2 0-6.1-4.1-6.1-6.4 0-1-1.1-3.1-2.5-4.8-3-3.5-3.1-4.5-.5-7.8s2.5-3.9-.6-7.1c-2.3-2.5-2.6-3.3-2-7.3.5-3.3 1.5-5.2 3.7-7.1 1.7-1.4 3.4-2.5 3.8-2.5.4 0 1.5-1.6 2.4-3.5 1-2 2.4-3.5 3.4-3.5 4.4-.1 7.3-6.7 7.3-16.9 0-2 .7-4.6 1.5-5.9 1.4-1.9 1.4-2.4 0-5.1-.8-1.7-1.5-4.1-1.5-5.4 0-4.4-2.7-9.2-6.4-11.2-2.5-1.4-3.8-1.6-4.8-.8-.7.6-3.2 1.4-5.5 1.8l-4.1.6-2.1-5.6c-2.7-7.1-2.6-7.7.5-6.9 2 .5 2.6.2 3.1-1.5.6-2.3 2.3-2.7 4.1-.9.8.8 1.5.8 2.6-.1.8-.7 2-1 2.6-.6.5.3 2 .3 3.1 0 2.8-.9 1.9-4.4-2.8-10.8-3.8-5.1-5-5.5-11.9-3.2-1.7.5-2.5 0-4.2-2.9-1.2-2-2.7-3.6-3.4-3.6-.7 0-4-1.4-7.3-3s-6.5-3-7.1-3c-2.3 0-3.6-2.7-2.3-4.8 1.7-2.7.3-7-2.6-8.4-1.4-.6-2.5-1.7-2.5-2.4 0-.6-.6-1.4-1.4-1.7-.8-.3-1.6-1.5-1.8-2.7-.2-1.6-1.9-2.8-6.1-4.5-3.2-1.3-6.5-2.1-7.3-1.8-.8.3-2.2-.1-3.2-1-.9-.8-4-2.3-6.9-3.2-2.8-.9-6.1-2.8-7.4-4.1-1.2-1.3-2.8-2.4-3.4-2.4-.7 0-3.4-.9-6-2.1-3.8-1.7-5.8-1.9-10.5-1.4-5.3.6-5.9.5-7.7-1.9-1.7-2.1-2.3-2.3-3.2-1.2-.7.8-2.3 1.7-3.6 2-2.2.6-2.5 1.2-2.5 5.1 0 3.5-.6 5.1-2.9 7.8-2 2.2-3.1 4.6-3.3 7.2-.4 5-3.8 6.7-8.4 4.2-6.9-3.8-7.4-3.8-10.2-1.6-2.3 1.7-3.5 2-8.2 1.4-3-.3-7.6-1.1-10.2-1.7-4.2-1-5-.9-6.7.6-2.4 2.2-5.1 1.5-5.1-1.3 0-1.3-.9-2.1-3-2.6-1.7-.4-3.5-1.5-4-2.5-.8-1.5-1.7-1.8-4.8-1.3-5.5.9-8.2 2.1-8.2 3.7 0 1.8-3.7 2.8-4.4 1.1-.3-.8-1.5-1.5-2.8-1.7-1.6-.2-2.4-1.1-2.6-2.8-.5-3.2-3-6-5.3-6-1 0-2.1-.5-2.4-1-1-1.6-2.6 0-2 2 .4 1.3-.2 1.9-2.6 2.4-1.7.3-4.1.6-5.3.5-1.9 0-1.9-.1-.4-1.2 1.5-1 .9-1.6-4.5-4.4-6.2-3.3-8.7-4-8.7-2.4 0 2.2-18.6 3.2-25 1.3-16-4.8-15.5-4.7-19.9-2.7-3.5 1.5-4.7 1.6-8.1.6-2.8-.8-4.6-.9-5.9-.1-1.1.5-9.1 1.1-17.8 1.3-14.8.2-16.2 0-21.6-2.3-3.9-1.6-6.2-2.1-7.1-1.5-5.1 3.8-6.8 4.7-10.1 5.2-3.2.5-3.9.2-6.3-2.5-3.3-3.8-12.9-6.2-14.8-3.6-.6.8-2.6 1.4-4.5 1.4-3.2 0-3.5-.3-5.8-6.1-1.3-3.3-2.9-6.3-3.7-6.6-.8-.3-1.4-1.1-1.4-1.7 0-2-5.3-6.4-8.5-7.2-3.8-.8-6.5-3.2-6.5-5.5 0-3.7-1.2-4.9-4.9-4.9-2.7 0-4.4.7-6.1 2.5-2.7 2.9-4.7 3.1-12 .9-5.9-1.8-11-5.1-10.4-6.8.8-2.5-4.4-5.9-13.2-8.6-6.1-1.8-8-1.2-7.6 2.8.2 1.8-.2 4-.9 4.8-1 1.2-.8 2 .9 4.4 1.2 1.6 2.2 3.6 2.2 4.3 0 2.1-4.1 2.9-6.5 1.2-1.1-.8-2.9-2.1-4-2.9-1.1-.8-4.1-1.8-6.7-2.1-4.3-.7-4.8-.5-4.8 1.2 0 5.3-7.4 4.3-8.8-1.2-.6-2-1.9-3.5-4.2-4.6-1.8-.9-3.8-2.3-4.4-3.1-3.3-4.4-10.5-4.6-12.4-.3-1.6 3.4-3.2 3.1-3.2-.5 0-2.8-.3-3-3.5-3-2 0-4.6.7-5.9 1.5-2.2 1.5-2.5 1.4-5.7-2.4-1.9-2.1-4.7-5.7-6.2-8-2.9-4.3-4.5-4.9-7.5-3-1.5 1-2.3.7-4.5-1.5-1.4-1.4-3.6-2.6-4.8-2.6-1.3 0-3.2-.9-4.4-2l-2.1-1.9-1.8 3.4z"/></svg>
