<svg version="1.0" xmlns="http://www.w3.org/2000/svg" width="1365.333" height="1365.333" viewBox="0 0 1024 1024"><path d="m708.9 2.2-4.6 1-1.8 7.9c-1.8 7.7-1.9 7.9-4.8 7.9-1.6 0-4.3 1-6 2.2-1.7 1.3-6.5 3-10.7 3.8l-7.5 1.6-9.8-3.8c-5.4-2.1-10.4-3.8-11.1-3.8-.8 0-1.9 1.3-2.5 2.8-.9 2.1-2.6 3.4-6.9 4.9-3.1 1.2-14.2 5.3-24.7 9.2-10.4 3.9-19.6 7.1-20.4 7.1-.8 0-2.4-.9-3.5-1.9-1.2-1.1-6.5-3.1-11.8-4.4l-9.8-2.5-5 4.1c-3.1 2.5-5.3 5.2-5.8 7.1-.7 2.5-1.4 3.2-4 3.4-2.9.3-3.2.6-3.2 3.9 0 1.9-.7 5.9-1.6 8.9-1.4 4.8-1.9 5.4-4.8 5.9-3.7.7-11-.4-28.4-4.6L507.9 60l-3.9 2-3.8 2-5.6-2.5c-3.6-1.6-7.5-2.5-10.7-2.5-3.7 0-6.7-.9-12.2-3.6l-7.2-3.7-6.5 1.6c-6.1 1.4-6.6 1.4-10.1-.4-2.1-1-4-2.7-4.2-3.6-.3-1-.8-2.9-1.1-4.3-.9-3.6-4.7-7.6-8.2-8.4-5.3-1.4-19.8-10.8-24.9-16.2l-5-5.3-5.5.9c-3 .6-12.5 3.6-21 6.9l-15.5 5.9-1.8 5.2c-1 3-3.2 6.5-5.1 8.3-2.6 2.5-3.5 4.3-4 8.3-.7 5-.9 5.2-5.7 7.5-2.7 1.2-5.4 2.8-5.9 3.4-.6.8-.7 7.6-.2 18.6.9 16.9 1 17.5 3.9 22.5l3.1 5.1-1.9 9.4c-2.6 12.6-5.8 20.5-13.4 32.4-7.4 11.7-16.5 31.8-16.5 36.6 0 1.9 1 7.7 2.1 13.1l2.2 9.6-3.8 5.1c-3 4.2-3.9 6.4-4.5 11.8-.5 3.7-1.3 6.9-1.8 7.1-2.6.8-4.6 3.3-6.3 7.7-1.8 4.7-1.8 4.8.2 7.7 1.7 2.3 1.9 3.7 1.4 8.1-.6 4.7-.4 5.4 1.8 7.5 2.4 2.3 2.4 2.3.9 8.7-1.3 5.4-2 6.6-4.2 7.4-2.3.7-3.2 2.6-6.8 12.8l-4.2 11.8 2.2 6.2 2.3 6.2-3.2 6.5c-2.9 5.9-3.5 6.5-7 7.1-5.5.9-6.4 1.7-7 6.5l-.6 4.3-10.2 4.8c-14.6 6.9-20.2 13.1-30 33.4l-7.3 15-8.5 6.8-8.5 6.7-.8 9.8c-.4 5.3-.4 20 0 32.5l.6 22.9-4.7 6.6c-2.6 3.7-6.3 11-8.3 16.2l-3.6 9.5-5.4.8c-3 .4-7.8 1.8-10.7 3.1-4.3 2-5.4 3-6.1 5.8-.8 3.1-1.1 3.3-5.5 3.6-4.4.3-5 .7-7.4 4.5-1.4 2.3-6.3 8.2-10.8 13.2-4.5 4.9-10 11.8-12.3 15.2l-4.1 6.1-6.8-1.5c-8.8-1.9-12.7-5.7-13.8-13-.5-4.1-.3-5.9 1.5-9.3l2.1-4.1-2.6-4.5c-1.4-2.4-2.9-4.4-3.3-4.4-.4 0-4.9 2.7-10.1 5.9-9.4 5.9-9.5 5.9-13.5 4.7-7.2-2.2-8.8-1.1-10.9 7.5l-1.8 7.5-7.5 2.2L61 551l-7-3.5c-3.8-1.9-7.6-3.5-8.3-3.5-.8 0-5.6 2.2-10.8 5-6.4 3.3-11.3 6.8-15.3 10.8l-5.8 6 .1 19.6.2 19.6H9.3c-2.6 0-5.8.3-7.1.6-2.2.6-2.3 1-1.7 5.8.4 2.8.9 5.4 1.1 5.7.8 1.4 10.5-.9 12.7-2.9 1.4-1.3 3.6-2.2 5.5-2.2 2 0 3.5-.6 3.8-1.5.4-.8 1.8-1.5 3.3-1.5 1.4 0 4.8-.7 7.5-1.5 4.2-1.3 17.7-1.5 91.6-1.5h86.7l2.2 2.4 2.3 2.5 2.8-2.1c2.2-1.6 3.6-1.9 6.2-1.4 2.9.6 3.7 1.5 7.1 8.5 3.6 7.4 3.7 8.1 3.1 14.7-.9 9.4 3.3 25.4 7.5 29 3.4 2.8 5.5 9.3 4.6 14.3-.6 3.4-.2 4.3 3.8 9.2 2.4 3 4.9 6.9 5.5 8.7 1.3 3.7 6.8 11.8 11.7 17.2 2.1 2.2 4 6 5.3 10.5 2.7 9.1 4.3 10.1 12.6 8.4 4.4-.8 8.1-.9 12.9-.2 3.7.5 6.9.7 7.2.5.3-.3.5-2.3.5-4.4 0-3.3.3-3.8 2.3-3.8 1.2 0 3.8.5 5.7 1.1 2.1.6 7.2.7 12.8.4 8-.6 9.2-.9 8.8-2.3-.2-1-.7-3.2-1.1-4.9l-.7-3.3h10.8l2.3 4.6 2.2 4.7 11.7-.7c6.4-.4 14.1-.9 17.1-1.3l5.3-.6-.5-7.6c-.2-4.2-.8-8.4-1.2-9.3-.5-1.3.2-1.9 3.5-2.9l4.1-1.3-.6-9.5c-.4-6.7-.2-11.1.8-14.6l1.3-5 17 .3c9.3.2 18.1.6 19.6.8 2.3.5 2.8.1 3.4-2 .6-2.5.9-2.6 8.1-2.6h7.5l-.6 4.7c-.3 2.7-.7 7-.8 9.8l-.2 5 23.9-.3c13.2-.1 27.4-.5 31.7-.8l7.6-.6 1.3 5.6c1 4.8 1 6.8-.6 14l-1.7 8.4 2.6 7.9c1.4 4.3 3.5 12.5 4.6 18.2 1.8 9.7 1.8 11.1.5 20.5-.7 5.6-1.7 14.1-2 19.1-.4 4.9-1.3 11.8-2.1 15.2l-1.4 6.1 3.6 9.3c3.9 10.5 4.8 11.6 11.4 15.9l4.6 3 3.2 14.2c2 8.9 3.2 17 3.2 21.4v7l-3.5 1.7c-3.6 1.7-3.6 1.7-2.9 7 .3 2.8 1.6 8.3 2.7 12.1l2.2 6.8 5-.6c4.8-.5 6.3-1.5 9-6.1 1-1.7 1.3-1.6 5.3.4l4.2 2.2 3.3-2.5c3-2.3 3.9-2.4 10.7-1.9 7.5.5 7.5.5 11.6-3.1l4.2-3.6 16.3.9c15.9.9 16.5.8 21.6-1.5l5.3-2.3 1.5 3c1.3 2.5 2.1 2.9 5.8 2.9 5.9.1 10.5 4.3 11.4 10.6.6 4.2.4 4.8-3.2 8.4l-3.7 3.8 3.8.6c9.3 1.4 11.1 1.1 15.6-2.1 2.8-1.9 9.1-4.5 17.7-7.1 12.8-3.9 13.5-4 15.8-2.4 2.3 1.6 2.4 2 1.8 11.3l-.6 9.6 2.9 2.5c1.6 1.3 3.5 3.4 4.1 4.6 1 1.8 1.5 2 4.2 1 2.5-.9 4.5-.5 13.5 2.7 9.1 3.3 10.5 4 11 6.4 1.1 5.2 1.3 5.3 4.7 4.7 10.7-1.9 16.3-1.7 27 .8l10.8 2.6 4.4-2.5c5.1-3 5.4-3.6 6.2-13.1l.6-7.2 3.6.5c5.7.8 5.8.9 6.6 6.8.6 5.1.9 5.7 4.1 7.2 2.7 1.3 3.7 2.6 4.5 5.7.6 2.3 2.8 7.1 5 10.8l4 6.8h6.7c5.6 0 6.9.3 8 2 .6 1.1 3.5 3.1 6.4 4.6 5.3 2.7 8.8 2.8 20.4.8 2.9-.5 3.1-.4 4.2 4.6.7 2.8 1.2 7 1.2 9.2 0 4.1 4.1 12.8 6 12.8.5 0 2-.4 3.4-1 2.3-.8 2.8-.5 5.4 3.3 1.6 2.3 3.3 5.3 3.7 6.7.4 1.4 2.7 6.7 5.2 11.8 4.4 9.1 4.6 9.3 7.4 8.7 2.3-.5 3.3-.2 4.7 1.5l1.7 2.1 9.8-6.1c8.9-5.5 10.1-6 13.8-5.4 3 .5 3.9 1.1 3.5 2.1-1.7 4.3-1.6 6 .2 7.6 1.6 1.5 2.4 1.6 4.5.6 1.4-.6 2.8-2.1 3.1-3.3.3-1.1.6-16 .6-33v-30.9l-4.2.7c-2.4.4-6.4 1.3-9 2.2-4.6 1.5-4.6 1.5-3.7 4.7 1.6 5.5 1.4 5.7-5.3 3.6-3.5-1-8.3-1.9-10.8-1.9-4.4 0-4.7-.2-15-10.8-5.8-6-13.2-12.8-16.6-15l-6-4.2-2.3-9.5-2.3-9.4 3-7.8c1.6-4.3 4.2-13.3 5.7-20 2.4-10.4 3.1-12.3 5.1-13.2 3-1.3 3-2.5.4-19.1-2-12.8-2-13-.1-22.9l2-10.1-7-14.6c-3.8-8-6.9-14.9-6.9-15.3 0-.5 4-3.5 8.8-6.7 7.1-4.6 10.1-7.4 15-13.9l6.2-8.1-.9-7c-.5-3.8-.8-7-.7-7 0-.1 22.2-3.2 49.1-7 27-3.7 49.1-6.8 49.3-7 .2-.1-3.8-12.4-8.8-27.3-8.7-25.5-9.6-27.5-15.2-35.3-4.8-6.5-7.8-9.5-14.2-13.8l-8-5.5-6.8-15.7-6.7-15.7 1.9-6.6c1.7-5.9 1.7-7 .5-10.6-.8-2.2-2.2-9.9-3-17-1.4-11.2-2.2-14.2-6.1-22.9-3.9-9-4.4-10.8-4.4-17.7 0-5.2.7-9.4 2.1-13.3l2.1-5.7-4.6-16.9c-4.5-16.6-4.6-17.2-5.2-37.3l-.7-20.4-7.4-8.1c-4.7-5.1-8.9-11-11.4-16-2.2-4.3-3.9-7.9-3.7-8 .2-.2 1.9-1.2 4-2.4 2-1.3 6.1-5.3 9.2-9.1l5.6-6.8v-14.5l6.7-8.2c3.7-4.4 9.4-11.1 12.5-14.7l5.8-6.6-1.6-3.9c-1.1-2.6-1.4-5.3-1-8.4.3-2.5 1.1-10.4 1.6-17.5.5-7.2 1.9-20.7 3.2-30.2l2.2-17.1 3.5-1.5c3.4-1.3 3.8-2 6.9-11.4 2.9-8.7 3.3-11 3-18.1l-.3-8.2h8.3l2.6-6.8c2.6-6.7 2.7-6.9 7.9-8.7 6.6-2.3 9.2-4.1 19.6-13.4 20.6-18.5 26.9-25.1 31.2-32.8 5.4-10 4.9-12.4-3.6-17-5.1-2.8-7-3.2-13.1-3.3h-7.1l-.5-5.1c-.4-4.3.1-6.6 2.9-13.6l3.4-8.5-2.8-3.5c-1.5-1.9-3.2-4-3.7-4.7-.5-.7 1-5.1 3.8-11.4 2.5-5.6 4.6-10.6 4.6-11 0-.4-2.1-3.1-4.6-6-2.5-2.9-6.2-8.2-8.2-11.9l-3.7-6.7-4.6.2c-4.1.3-4.8 0-6.4-2.5-1-1.5-4.6-5.7-8-9.3-3.7-3.8-8.2-10.1-10.9-15.2-2.6-4.8-5.5-8.9-6.4-9.2-.9-.2-5.5-.6-10.2-.8l-8.4-.3-2.9 6c-1.6 3.3-3 6.1-3.1 6.2-.1.2-5.7-.8-12.4-2-10.3-2-12.4-2.7-14.1-4.9-2.8-3.5-6.7-2.7-8.9 1.8l-1.6 3.4-8-.5c-4.5-.3-11.9-1.6-16.5-2.7l-8.4-2.2-2.1-4.9c-1.9-4.5-2.9-5.3-12.6-11.1-5.8-3.5-17.8-10.1-26.7-14.6l-16.1-8.4L793 13l-6.1 5.3-4-2.2c-3.5-2-4.9-2.2-10.8-1.6-6.1.6-8 .3-18.3-2.9-8.7-2.7-13.2-3.6-18.7-3.6-6.5 0-7.7-.3-12.7-3.5-5.8-3.7-6.3-3.8-13.5-2.3z"/></svg>
