<svg version="1.0" xmlns="http://www.w3.org/2000/svg" width="1365.333" height="1365.333" viewBox="0 0 1024 1024"><path d="m810.1 6.4-6.3 6.4-4.9-1.6-4.9-1.6-3.3 3.2c-2.9 2.8-4.3 3.3-13.7 4.7-5.8.8-12.2 2.2-14.3 3.2-3.6 1.6-3.9 1.5-11.9-1.6-4.5-1.7-8.4-2.8-8.7-2.3-.3.4-1.6 2.5-2.9 4.5-2.7 4.2-2.6 4.1-8.5 2.5-4.1-1-5-.9-12.4 2.1l-8 3.2-2.8 10.2c-1.5 5.6-5.2 15-8.2 21L694 71l3 6c1.6 3.3 3 6.2 3 6.5 0 .3-1.3.5-3 .5-2.9 0-3 .2-3 4.2 0 2.4.7 7.5 1.7 11.5l1.6 7.2-15.3 35.3c-8.4 19.4-15.6 36-16.1 36.9-.8 1.5-1.5 1.5-7.1.3-10.7-2.3-9.8-3.6-9.8 14.6v16l4.9 12.9 4.8 12.9-6.1 4.5-6.1 4.5-.3-7.9-.3-7.9h-9.7c-8.5-.1-10-.3-12.3-2.3-1.5-1.2-6.6-5.5-11.3-9.6l-8.6-7.3-12.9-3.3-12.8-3.2-6.4 4.8c-5.5 4.2-7.1 4.9-11.1 4.9-4.5 0-4.7-.1-5-3.2-.2-2.5-1.3-3.9-5-6.5l-4.7-3.4-6.1 3.1c-3.4 1.7-6.8 2.9-7.6 2.6-.8-.3-3.9-2.4-6.9-4.7l-5.5-4.1-4.5 1.5-4.5 1.6v-6c0-3.2-.4-5.9-.8-5.9s-2.6 1.8-4.7 4-4.2 4-4.6 4c-.3 0-1.2-2-1.9-4.5l-1.3-4.5h-13.3l-5.9-6c-3.3-3.3-6.3-6-6.7-6-.4 0-3.5 4-6.8 9-3.3 4.9-6.2 9-6.4 9-.2 0-1.7-2-3.3-4.5l-2.8-4.5h-64.7c-60.7 0-64.7.1-65.2 1.7-.3 1-1 4.6-1.7 8.1-1.3 6.7-.4 5.7-13.8 15.8-.2.2.4 3.3 1.3 6.9l1.6 6.5-3.5 5.3c-3.4 5-3.5 5.6-3.5 14.1v8.9l5 6.7c4.8 6.5 5 7 5 13.4 0 6.5-.2 7-4.6 12.8-5.2 6.7-5.2 6.9 3.1 8.7 4.9 1.1 6.1 1 15.8-1.8 5.9-1.8 12.8-3.1 15.9-3.1 4.4 0 6.2-.6 10.3-3.4 4-2.6 6.7-3.5 13.5-4.5 15-2.1 14-1.6 14-7.1v-4.8l6.5-1.6 6.5-1.6 9.9 6.5 9.8 6.6 6.5-3.2 6.6-3.2 6.1 4.7c3.3 2.6 6.1 5 6.1 5.4 0 .4-.7 5-1.5 10.2-.8 5.2-1.5 10-1.5 10.7 0 .6 2.4 1.7 5.3 2.3 2.8.7 5.9 1.6 6.8 2.1.9.4 4.3 5 7.7 10.1l6.2 9.4v15.2l-6.5 5.1c-6.4 5.1-6.5 5.2-6.5 10s0 4.8-7.7 10.9c-8.5 6.8-8.8 6.8-20.2 4.8l-7.3-1.3.6 3.3c.3 1.9.9 4.9 1.2 6.7.6 3.2.3 3.6-5.6 8-4.6 3.4-8 7.1-12.6 14.1-3.5 5.3-6.4 9.8-6.4 10.1 0 .3 2.1 5.5 4.7 11.6l4.6 10.9-3.1 4c-10.5 13.2-9.6 11.4-8.2 16.4.7 2.5 1.8 4.9 2.4 5.4.6.5 7.8 2.8 15.9 5.2 8.9 2.6 15.2 5 15.6 5.9.5.9 1.4 4.6 2.1 8.3l1.2 6.8H442.5l12.8 11.1c7 6.1 12.5 11.4 12.3 11.8-.2.3-2.2 3.9-4.6 7.9-4.1 7-4.2 7.4-3 11.1 1.1 3.6 1 4.1-3.4 13l-4.7 9.2 6.6 14.6c3.6 8.1 6.1 14.9 5.7 15.2-.5.3-2.5 1.6-4.5 2.9-2 1.3-3.7 2.7-3.7 3.1 0 .4 2.7 2.7 6 5.1 3.3 2.4 6 4.5 6 4.6 0 .1-2 1.5-4.5 3.1-5 3.1-5.1 3.5-3.1 11l1.4 5.1-4.9 4.8-4.9 4.8 4.7 4.8 4.7 4.8H455v22.8l-9.4 3.2c-10.6 3.5-9.7 2.2-11.6 16.7-1.2 9-1.3 9.2-6.1 13.9l-4.9 4.8 6.2 6.3 6.2 6.3h-4.1c-4.8 0-5.2.4-8.7 9.5l-2.7 7-15.7-1.6c-8.6-.9-15.8-1.7-15.9-1.8-.1 0 1.1-3.3 2.8-7.2 1.6-4 2.9-7.6 2.9-8.1 0-.8-13.4-20.2-15.7-22.8-.2-.2-8.4 7.6-18.2 17.4l-17.8 17.7-21.3-3c-11.7-1.7-24.7-3.1-28.8-3.1h-7.6l4.8-4.9 4.8-4.9-8-6.3-8.1-6.4v-4.9c-.1-2.8-1.6-9.5-3.3-14.9l-3.3-10-9.9-4.8c-9-4.5-10.6-4.9-17-4.9-3.9 0-10.4.7-14.4 1.7l-7.2 1.7v16.5l4.5 3.1c2.5 1.7 4.5 3.6 4.5 4.1 0 .6-2.1 7.9-4.6 16.2l-4.6 15.2-24.1 3.2-24.2 3.2-3.3-3.2-3.2-3.1-14.5 4.8-14.5 4.7-7.4-6c-4.1-3.4-7.7-6.1-8-6.1-.3 0-.6 5-.6 11.2v11.1l4.6 7.9c2.6 4.4 4.3 8.3 3.8 8.7-.5.4-4.2 3.4-8.2 6.6-7.2 5.7-7.2 5.7-7.2 10.6 0 2.7.2 4.9.5 4.9s3.3-1.4 6.6-3.1c3.4-1.7 6.2-2.9 6.4-2.7.1.2 3.7 6.4 7.8 13.8l7.5 13.5-4.4.3c-5.4.4-5.3-.1-1.9 14.9.3 1.1 3.6 4.4 7.4 7.2 6 4.5 7.4 5.1 11.8 5.1 4.5 0 5.3.4 9.2 4.4l4.3 4.4-4.8 3.3c-4.1 2.7-16 15.9-17.3 19.2-.2.5 2.5 3.7 5.9 7.2l6.2 6.3-3.2 4.7c-2.7 4-3.6 4.5-5.8 4.1-1.5-.3-6.4-1.1-11-1.7l-8.3-1.1-4.9-9.8c-4.1-8.3-5.5-10.1-9.7-12.8-2.6-1.7-5.1-2.8-5.4-2.4-.3.4-1.9 4-3.4 7.9-1.6 4-3 7.3-3.3 7.3-.2 0-3.1-.7-6.4-1.5l-5.9-1.6-6.7 5c-6.7 4.9-6.7 5-12.9 19.1-3.5 7.9-6 14.6-5.8 15.1.3.4 5.5 4.3 11.4 8.5 10 7 11 8 12.2 12.1 1.2 4.6 8.2 15.1 12.3 18.8 1.3 1.1 10.9 9.3 21.5 18.3 10.5 9 19.1 16.6 19.1 17 0 .4-.7 3.1-1.5 6.1-.8 3-1.2 5.8-1 6.2.3.4 2.5 2 4.9 3.5l4.3 2.7-1.5 4.9-1.6 4.9 13 13 13 13 8.2-6.6c4.5-3.6 8.2-6.7 8.2-6.8 0-.1.7-4 1.5-8.7.8-4.7 1.5-8.7 1.5-8.9 0-.3 1.3.8 3 2.4 2.9 2.8 3 2.8 8.8 1.5 7.4-1.5 7.6-1.6 8.9-6.5.6-2.2 2.1-7.2 3.2-11.1l2.1-7 13.2-2.9c7.3-1.5 14.2-3.3 15.3-4 1.1-.7 4.5-4.4 7.5-8.3l5.5-7.1 6.6-.1h6.6l1.2 4.2c.9 3.2 3.5 6.5 9.8 13l8.6 8.6 4-1.4c2.2-.8 4.3-1.4 4.8-1.4.4 0 4.3 4.9 8.6 11l7.8 11h13.1l3.3 6.7 3.3 6.7 3.1-5.2c1.8-2.8 4-6.5 4.9-8.2l1.8-3.1 4.4 3c2.5 1.7 4.7 3.1 4.9 3.1.3 0 2.1-2.2 4-4.9 2.5-3.5 4.7-5.2 7.4-6.1 2.1-.7 4.1-1.5 4.5-1.9.4-.3 0-7.1-.9-14.9l-1.6-14.4 4.6-4.6c2.6-2.5 4.8-4.4 5-4.2.2.3 2.5 3.3 5.1 6.8l4.7 6.2h12.7l3.2-5 3.2-5h9.7c9.3 0 9.9-.1 12.2-2.6 2.2-2.5 6.7-5.6 16.1-11.3l3.7-2.2-1.6 4.6-1.6 4.7 6.4 6.4 6.3 6.4-6.4 6.5-6.4 6.5 3.3 6.8 3.3 6.9-1.6 12.3c-.9 6.8-1.4 12.5-1.3 12.7.2.2 3.8-1.1 8.1-2.9l7.7-3.1 6.4 6.3 6.4 6.4 6.3-3c3.4-1.6 8.7-4.5 11.7-6.5 5.1-3.2 6-4.5 10.5-13.5 4.7-9.6 5.2-10.2 16.1-19.4 9.2-7.8 11.8-10.6 14.6-16 3.3-6.1 3.7-6.5 10.4-9.3 4.5-1.9 9.6-3.2 14.4-3.6l7.5-.6 4.7-7.9c3.5-5.8 5.1-9.8 6-14.8.7-3.8 1.7-7.5 2.3-8.2 2-2.5 17-7.3 26.6-8.5 9.2-1.2 18.4-3.5 20.5-5.2.6-.4 2.4-4.9 4-10 2.6-8.1 3.3-9.3 6.2-10.7 3.7-1.8 3.7-1.8 5.4-12.7 1.4-9.2 5.8-18.9 12.7-27.9 4.4-5.7 4.5-6 3.1-9-1-2.4-1.4-9.6-1.7-30.3l-.3-27.2 3.6-12.3c1.9-6.7 3.5-14.1 3.5-16.3 0-2.3-1.6-8.8-3.5-14.5-3.3-9.7-3.5-11.3-3.5-22.8v-12.4l6.6-8.3c3.6-4.6 13-14 21.1-21.1 13.7-12.1 15.2-13.8 24.3-27.4l9.6-14.5 1.6-9.7 1.7-9.8 9.8-11.4c5.4-6.3 14.8-15.8 21-21l11.1-9.6h9.6c9 0 10.1-.2 16.4-3.4 5.3-2.7 7.9-4.8 12.2-10.2 3-3.8 10.9-12.5 17.6-19.4 7.9-8.1 13.9-15.3 17-20.4l4.8-7.9-1.7-14.1c-1-7.8-1.7-17.8-1.7-22.4 0-7.8.2-8.7 4.8-18 3.4-6.7 5.9-13.8 8.1-22.7l3.2-13 6.6-6.7c6.3-6.4 6.6-6.9 7.9-14 2.2-12.2 2.2-12-4.6-15.3l-6-2.9v-9.5c0-5.3.7-12 1.4-14.9 1.2-4.4 1.2-6 0-10.5-.7-2.8-1.4-9.5-1.4-14.7v-9.4l6.2-6.3 6.2-6.2-1.6-11.3-1.6-11.3 4.9-5 4.8-5 1.6-12.8c1.5-11.8 1.6-13.5.1-22.5l-1.7-9.7 3.1-8.9c2.9-8.6 3-9.7 3-25.5v-16.6l6.9-7c5.6-5.7 7.4-8.4 9.7-14.5 1.6-4.1 4.5-10 6.5-13 4.9-7.6 9.9-20.9 9.9-26.3v-4.4l7.8-3 7.7-3 .3-8.4.3-8.4 7.9-8 8-8 1.5-14.4c.8-7.9 1.5-15.2 1.5-16.2 0-1.4-1.9-2.8-6.3-5-5.8-2.9-6.8-3.8-11.1-11-2.6-4.4-5-7.9-5.4-7.9-.4 0-2.7 1.4-5.2 3-4.1 2.7-5.3 3-12.6 3h-8.1l-1.4 6.2c-1.5 6.4-2.3 7.4-8.6 9.3-2.2.6-2.3.4-2.3-6 0-5.8-.2-6.6-1.7-6.1-1 .3-5.5 1-10.1 1.7l-8.2 1.3-3.3-3.2-3.2-3.1-5.5 1.4c-3 .8-5.8 1.5-6.2 1.5-.5 0-.8-2-.8-4.5 0-4.2-.2-4.5-2.7-4.5-2.9 0-18.6 1.7-23.5 2.5-2.4.4-3.3-.4-7.4-6-2.6-3.6-5-6.5-5.4-6.5-.3 0-3.4 2.9-6.9 6.4z"/></svg>
