<svg version="1.0" xmlns="http://www.w3.org/2000/svg" width="1365.333" height="1365.333" viewBox="0 0 1024 1024"><path d="M392.3 2.7c-5.1 2.6-5.3 2.7-8.8 1-5.1-2.4-8.2-.8-9 4.7-.3 2.2-.9 5.4-1.1 6.9-.5 2.3-.2 2.9 1.5 3.4 2.6.7 2.6.7-.6 5-2.6 3.3-2.9 3.5-7.3 2.9-2.5-.3-8.4-2.5-13.2-4.8-7.3-3.4-8.8-4.5-9.3-6.9-.5-2.4-5-6.7-6-5.7-.2.2-1.5 3-2.9 6.2-2.1 4.6-2.8 8.2-3.2 16l-.6 10.1 4.6 3c2.5 1.6 4.6 3.2 4.6 3.5 0 .3-2.7 3.5-5.9 7.2l-5.9 6.7-3.8-3.3-3.8-3.3-8 2c-6.1 1.4-10 1.7-15.8 1.3l-7.7-.6-4 5.4-4 5.4 2.9 7.1 2.9 7.1-5.9 4c-3.3 2.2-6.5 4.3-7.3 4.5-.7.3-2.6-1.3-4.3-3.8-1.8-2.5-5.7-5.9-9.5-8.2-6.3-3.8-6.5-3.9-15.1-3.6l-8.8.3v-2.7c0-2.4-.3-2.6-2.2-2-1.3.3-4.4.9-7 1.2-5.1.6-5.6.1-3.7-4 .8-1.7.8-3.5 0-6.4-1-3.7-1.6-4.3-6.1-5.9l-5-1.8v-5.1c0-4.3-.5-5.6-2.7-7.8l-2.8-2.6-8.2 2.9c-9.4 3.3-12.8 2.9-17.1-2.2l-2.4-2.8-7.9 6.1c-8.8 6.7-9.5 8.5-5.9 14.5l2.1 3.3-3.4.6c-2.9.6-4.1 2-10.2 11.5-6.5 10.2-7.2 10.9-10.8 11.4-2.2.4-5.3 1.7-7.1 3-2.3 1.7-3.7 2.1-5.6 1.5-1.4-.4-3-.7-3.7-.8-.6-.1-3.5 3.7-6.4 8.4-4.7 7.7-5.9 9-11.6 12.2-6.2 3.4-6.6 3.9-10.4 12.1-2.1 4.6-3.9 8.9-3.9 9.3 0 .5.9.9 1.9.9 1.1 0 2.7.3 3.6.6 1.4.6 1.4.8-.2 2.6-1.7 2-1.7 2.1 2 5.2 3.8 3.2 3.8 3.4 2.8 7.2-.5 2.1-1.7 8.9-2.5 14.9-.9 6.1-2.2 12.8-3.1 14.8-.8 2-1.8 6.3-2.1 9.5-.5 5.6-.4 5.9 5.5 15.8l6 10.1 7.3 1.4c5.9 1.2 8.1 1.3 11.3.3 2.2-.7 5.9-1.3 8.1-1.3 3.3-.1 4.3-.5 4.7-2.1.3-1.2 1.4-2 2.6-2 2.9 0 2.7 4.4-.4 9.5-1.7 2.6-2.5 5.5-2.5 8.4 0 3.2-.9 5.9-3.5 10.2-3.1 4.9-3.5 6.3-2.7 9 .4 1.8 1.9 4.1 3.3 5.1 2.3 1.7 2.7 1.8 6.2.3 5.1-2.1 5.8-2 4.7 1-.8 2.1-.4 2.8 2.8 5.4 2.1 1.6 5.9 3.9 8.5 5.2 2.6 1.3 4.7 2.6 4.7 2.9 0 .4-1.5 1.3-3.3 2.2-3 1.5-3.5 1.4-7.1-.4l-3.8-2-3.7 3.5c-2.3 2.3-5.4 4-8.3 4.8-5.1 1.2-5.3 1.6-3.9 6.6.8 2.6.6 3.7-1 5.7-1.1 1.3-2.8 6.7-3.9 12.1l-2 9.8 3.2 3.7c3 3.5 3.6 3.8 6.8 3.2 1.9-.4 5.3-.5 7.5-.3 2.2.3 5.9.5 8.2.5 4.2 0 4.2.1 6.7 6.1 1.4 3.3 4.2 11.4 6.2 18 2.4 7.7 4.7 13.3 6.6 15.7l2.9 3.7-3 4.8-3 4.8 5.2 5.4 5.2 5.4-4-.7c-2.2-.3-6.6-.6-9.7-.6h-5.7l-1.6-5.8c-.9-3.1-1.8-6.4-2.1-7.3-.4-1.3-6.2-3.9-8.8-3.9-.3 0-.6 2.1-.6 4.6 0 4.5-.1 4.6-2.6 4-1.5-.4-3.9-.9-5.4-1.3-2.2-.4-3.3-1.6-4.9-5.5l-2.1-5-4.2.8c-5.3 1-4.9 1-24.4.1l-16.2-.8-2.3 4.8c-2.1 4.2-2.4 6.1-2.2 14.7.1 5.5-.2 11.9-.7 14.2-1.4 5.9.3 9.8 5.6 13.5 3.8 2.6 5 2.9 8.7 2.4 3.9-.6 4.3-.4 5.9 2.3 2.6 4.4 7.1 4.8 10.1 1 1.9-2.5 2.6-2.8 4.7-2 2.2.8 2.4 1.4 2.5 7.5 0 6.6 0 6.6 5.2 11.9 4.2 4.3 5 5.6 4.2 7.1-1 1.7-1.2 1.6-3.9-.3-2.1-1.5-4.4-2-8.9-2-3.4 0-6.1.2-6.1.4 0 .3.4 1.6 1 3 .8 2.2.1 4.2-5 13.9-3.3 6.3-6 11.9-6 12.5 0 .6 1.6 2 3.6 3.2 2.9 1.9 3.4 2.7 3 4.9-.3 1.4-.7 4.6-1.1 7.2-.4 3.6-1.2 4.9-3.4 6.2-2.3 1.3-3.2 3.2-5.1 9.7-1.6 5.7-3.5 9.6-6.2 13.1-2.2 2.7-4.4 4.9-4.9 4.9s-3.5-2-6.6-4.4l-5.8-4.4-6.4 1c-5.7.9-6.6.8-9.1-1l-2.7-2-5.1 3.9c-6.2 4.8-6.7 7.4-1.9 10.5 2.7 1.8 3.5 3.2 5.1 9.5 1.1 4.1 2.1 10.4 2.3 14 .4 5.8.8 7 3.4 9.5 2.4 2.3 2.9 3.6 2.9 7.7 0 6.9 2.7 10.4 8.5 11.3 2.5.3 4.5.9 4.5 1.3 0 .3-1.2 3.8-2.6 7.8l-2.6 7.2 2.7 8.1c2.9 8.7 2.6 9.9-1.8 10-2.4 0-2.8 1.7-1.9 7 .6 3.6.4 5.1-1.1 7.8-1.6 2.8-1.8 4-.9 8.9l1 5.7-6.2 6.8c-3.6 3.9-6.5 8.3-7.2 10.5-.8 3-1.7 3.9-4 4.4-1.7.3-6.2 2.5-10.2 4.8-6.3 3.8-7.2 4.7-7.2 7.2 0 1.8-.9 3.6-2.2 4.8-6.1 5.1-7.7 6.8-8.2 8.7-.6 2-.3 2.1 4.2 1.6l4.9-.4 4.3 6.6 4.3 6.6 2.7-1.7c1.6-.9 3.2-2.9 3.7-4.5l.8-2.9 4.1 3.5c5.3 4.5 6.3 8 3.3 11.2-2.3 2.5-2 5.4.6 5.4.9 0 3.4-.9 5.6-2.1l4.1-2 4.4 3.6c2.4 2 7.1 4.5 10.4 5.7 3.4 1.1 6.8 3 7.9 4.4 2.6 3.3 9.9 3.2 20.7-.3 7.8-2.5 8.4-2.6 10.2-1 1.2 1.1 3.5 1.7 6.4 1.7 3.8 0 5.3.7 10.4 4.7 3.3 2.7 7 5.5 8.3 6.3l2.3 1.6-2.1 7c-2.2 7.3-2.8 16.4-1.2 16.4.6 0 2.6-.9 4.5-2.1l3.6-2.1.9 2.5c.5 1.4 1.5 5.4 2.1 8.9.9 5.1 1.9 7 4.8 10.1 3.5 3.7 9.9 7.7 12.2 7.7.5 0 1-.7 1-1.6 0-1.3.7-1.1 3.6 1.1 1.9 1.5 4.7 3 6.2 3.4 1.8.5 2.8 1.5 3 3.2.2 1.3 1.3 3.4 2.4 4.6l2.1 2.2 2.5-2 2.6-2 3.8 3.7 3.8 3.8 1.5-3.7c1.4-3.3 1.8-3.7 4.3-3.1 3.9.9 4.6 1.9 3.1 4.5-.9 1.6-1.2 5.5-1 11.3.2 8.8.3 8.9 5.1 16.1l4.9 7.2-3 2.9-2.9 2.9 2.9 3.6 3 3.6-5 3.7c-2.7 2.1-4.9 4.2-4.9 4.8 0 .5.7 2.2 1.5 3.8 1.5 2.8 1.4 3-.5 3-2.4 0-2.5 1.1-.3 6.8 1.6 4.4 2.1 4.6 6.4 2.8 1.3-.6 1.8.1 2.3 3.4.7 4.4-.7 8.2-4.3 11.4-2.1 1.9-2.1 1.9-2.1-.2 0-2.6.4-2.6-5.3-.6l-4.7 1.6.1 9.1c0 11.2-1.7 17-5.2 17.5-1.3.2-3.8 1.4-5.5 2.8-3.1 2.2-3.1 2.5-2.2 6.8.7 3.3.6 5.2-.5 7.9-1.4 3.2-1.3 3.7.9 7.5l2.4 4-5 1.7-5 1.7v8.8c0 8.4.1 8.8 2.4 9.4 1.3.3 2.6 1.6 3 2.8 1 3.9.6 17-.8 24.1-1.1 5.6-1.1 7 0 8.5 1.7 2.1 1.8 11.2.2 16.3-1 3.5-.9 4.2 1 6.2 2 2.1 2.1 2.4.6 4.6-1.5 2.1-1.5 2.4 1.2 5.3 2.7 2.8 3.2 3 9 2.5 7.5-.6 12.9-2.9 22-9.5 5.2-3.8 8.6-5.5 12.7-6.3 4.5-.9 5.7-1.6 5.7-3 0-1.3 1.9-2.8 5.8-4.8 4.7-2.4 7.5-3 16.3-3.6 5.9-.4 11-1 11.5-1.4.5-.3 3.3-3.4 6.2-6.7 4.3-5.1 6-6.3 9.2-6.8 3.5-.5 4-1 4.5-3.9l.7-3.3 15.1-1.8c9.3-1.1 16.6-2.5 18.7-3.6 1.9-1 5.4-2.1 7.7-2.5 3.1-.5 5.1-1.6 7-4 2.6-3.1 3.4-3.4 12.3-4.4 12.9-1.6 13.7-1.8 14.2-3.9.4-1.2 3.1-2.8 8.4-4.7 4.3-1.5 25.2-9.7 46.4-18.1 37.8-15 38.8-15.4 54-17.9 46-7.8 52.4-8.5 108.5-12 45-2.9 57.2-3.9 67-6 6.6-1.3 24.3-3.6 39.5-5 15.1-1.3 38-3.7 50.8-5.1l23.3-2.7 14.7 3.6c16.3 4.1 19.7 4.6 80 12.1 41.2 5.1 42.6 5.2 49.9 3.8l7.5-1.4 3.2 3.1c4.2 4.1 8 4.1 12.9 0l3.7-3.1 9.3 1.1c5 .6 10.4 1.3 11.9 1.6 2.2.3 3.1-.2 4.7-2.8 1.9-3.1 1.9-3.3.2-10.7-1-4.1-2.8-9.5-3.9-12-1.2-2.5-2.2-6.2-2.2-8.3 0-3.5.1-3.7 3.3-3.7 4.9 0 6-2.9 3.5-10-1-3-2.7-11.8-3.8-19.5-1.2-8.2-2.5-14.2-3.2-14.7-.7-.4-3.8-2.5-6.8-4.6l-5.4-4-5.8 3.9c-5.6 3.8-5.9 3.9-8.3 2.3-2.2-1.4-2.5-2.3-2.5-7.5V806h-10.3l.7-12.4.7-12.5-3.9-6.8c-3-5.1-4.6-9.8-6.6-18.6-2.8-12.4-8.1-32.1-9.1-33.7-.3-.6-1.7-1-3-1-2 0-2.6-.7-3.5-3.9-2.3-8.5-6-24.4-9.6-40.7l-3.7-17.1 5.2-7.6 5.3-7.6-3.1-7.5c-1.7-4.1-3.1-8.1-3.1-8.8.2-3.6 12.3-21.5 21.2-31.3 7.5-8.2 9.9-11.5 10.3-14.3 1.1-6.6 2.3-9.2 7.1-15.2 4.4-5.7 4.6-6.1 3.1-7.8-2.4-2.6-2.2-4.9 1.8-23.2 2.7-12.6 3.5-18.4 3.5-26.4v-10.4l7.7-16.3c4.2-9 8.3-16.8 9.1-17.3 4-2.4 4.9-4.4 5.6-12.6l.8-8.2 2.8 2.7 2.8 2.6 5.6-7.9c5.7-8.2 7.2-9.2 13.7-9.2 3.1 0 3.8-.5 5.2-3.5l1.7-3.6-3.9-5.7-3.9-5.8 2.3-2.8c2.1-2.6 2.5-2.7 6-1.7 3.5.9 4.3.8 8.4-1.8l4.6-2.8-.3-9.4c-.2-6.7-2.2-18.6-6.7-40.9-9.6-47.2-8-42-12.3-42h-3.6l2.8-2.9 2.8-2.9-2.1-4c-1.2-2.3-2.1-5.7-2.1-7.7 0-2.3-.9-4.8-2.5-6.9-1.7-2.3-2.5-4.6-2.5-7.4 0-3.8-.3-4.3-4.2-6.6-2.4-1.3-6.4-2.7-9-3.1l-4.6-.7-.5-6.2c-.2-3.3-.6-7-.8-8.1-.3-1.6.2-2.1 2.8-2.3 2.6-.3 4.1-1.6 8.7-7.7 3.1-4.1 5.6-7.8 5.6-8.2 0-.5-1.8-3-4-5.7-2.2-2.6-4-5-4-5.2 0-.3 1.4-3.1 3-6.4 3.3-6.5 3.5-8.7 1.7-17.4l-1.2-5.8-5.4 6.3c-3 3.5-5.8 6.8-6.3 7.4-.5.5-4.7-2.9-10.4-8.5-8.7-8.7-10.4-11-19.6-27.3-5.5-9.7-10.4-18-10.9-18.2-.5-.3-2.2.1-4 1-1.7.9-3.3 1.4-3.6 1.1-.3-.2-2.6-4.7-5.1-9.8l-4.7-9.3-4.7-.3-4.6-.3-.7-5c-.4-2.7-1-4.9-1.4-4.9-.4 0-2.7 2-5.1 4.5-3.5 3.5-5.1 4.5-7.7 4.5-2.8 0-3.3-.4-3.3-2.3 0-2.1-.8-2.4-10.2-4-5.7-.9-16.1-2.2-23.3-2.7-12.9-1.1-13-1.1-16.5-4.5l-3.5-3.4-2.5 1.9c-1.8 1.4-4.1 2-8.4 2-5.3 0-6.2.3-10.5 3.9l-4.7 4-7.2-1.1-7.2-1-7.6 4.3c-4.1 2.4-9.4 6-11.6 8.1l-4.1 3.8-7.8-1.3-7.8-1.4-3.5 3.6c-2.3 2.3-5.9 4.4-9.8 5.7l-6.3 2.1-4.1 10.4-4.2 10.4-4.1.3c-3.4.3-4.2.7-4.7 2.8-.3 1.3-.8 2.4-1.1 2.4-1.8 0-4.5-2.6-5.7-5.4-1.7-4-5.5-5.3-11.2-3.7-2.1.6-3.8.9-3.9.8 0-.1-.8-1.9-1.8-4.1-1.7-3.7-1.7-3.9.3-7.3 1.1-1.9 1.8-3.9 1.5-4.4-.4-.5-2.4-.9-4.6-.9-3.6 0-3.9.2-3.4 2.2.7 3.3-3.6 6.4-6.4 4.6-1.6-.9-3.3-.8-9.2 1l-7.4 2.2-1.7-2.2c-1-1.3-2.3-3.6-2.9-5.1-1.2-2.9-2.3-3-7.3-1.1-1.4.5-1.6-.4-1.6-6.4 0-4.8-.4-7.3-1.4-8.1-3.1-2.6-20.9-11.1-23.2-11.1-2.3 0-2.4-.3-2.4-5.7 0-4.5-.5-6.2-2.2-8.1l-2.3-2.4 2.3-1.5c1.2-.9 2.2-1.9 2.2-2.3 0-.5-2-2.1-4.6-3.7-4.6-2.8-4.9-3.8-2.9-8.5.7-1.7.5-1.7-2.9-.3-3.5 1.5-3.6 1.5-3.6-.8 0-1.3-.9-3.2-2.1-4.3-3-2.7-4.9-6.8-4.9-10.4 0-2.9-.1-3-4.8-3-3.6 0-5.4-.5-6.7-2-1.7-1.8-1.6-2.1.5-5.5 1.9-3.1 2.1-3.9 1-6.5-1.4-3.4-2.2-3.7-4-1.5-1.6 1.9-3.3 1.9-7.1-.1-2.8-1.4-4-1.3-15.7.6l-12.7 2.2-3.6-2.1c-2-1.2-6.3-6-10-11-7.8-10.9-12.6-13.9-19.8-12.2-3.5.8-4.9.6-6.8-.6-2.2-1.4-2.8-1.4-8.6 1.2-3.9 1.8-7.7 2.7-10.3 2.6-4-.2-4.5.2-12.7 8.9-7.1 7.6-8.6 9.8-8.9 12.8l-.3 3.7H446l-3.4 6-3.3 6h-9.4c-13.1 0-16.4-.8-17.9-4.5-.7-1.7-2.3-3.3-3.5-3.6-1.2-.3-2.9-2.1-3.8-3.9l-1.6-3.4 3.4-1.1c4.1-1.3 9.5-8.2 9.5-12 0-1.5-.7-4.8-1.6-7.4-1.3-3.8-1.4-5.3-.5-7.3 1.3-2.9.9-3.8-2.8-5.8-1.9-.9-4.2-1.2-6.6-.8-3.4.5-3.8.4-3.2-1.1.4-1 .7-2.7.7-3.7 0-1.3 1-2.4 2.9-3 2.3-.8 3.1-1.8 3.6-4.7.4-2 1.3-4.4 2.1-5.3 1.4-1.5 1.2-1.9-1.6-3.9-3-2.1-3.1-2.6-2.5-6.6.6-4.1.4-4.5-2-5.4-5.2-2-7.1-1.9-12.2.7z"/></svg>
