<svg version="1.0" xmlns="http://www.w3.org/2000/svg" width="1365.333" height="1365.333" viewBox="0 0 1024 1024"><path d="M336.6 355c-7.1 3.3-14 6-15.3 6-1.8 0-2.3.5-2.3 2.6 0 4-2.4 2.4-3.4-2.3-.8-3.5-1.5-4.3-4.7-5.3-2.6-.9-5.6-1-9.6-.5-7.8 1.1-27 .6-31-.7-2.4-.9-4.2-.9-7.1 0-2.2.7-7.6 1.2-12.2 1.2h-8.2l-12.2 7.2c-11.3 6.7-12.6 7.3-19.4 7.9-4.7.4-7.7 1.1-8.3 2-.7 1.1-1.1 1.2-1.7.1-1.3-1.9-16.5-.5-15.8 1.4.3.8-.3 1.8-1.4 2.4-2.6 1.4-2.8 1.3-2.3-1.3l.5-2.4-7.8 1.7c-5.7 1.2-8.1 2.2-9.2 3.8-1.8 2.7-3.2 2.8-3.2.2 0-2.3 0-2.3-5.4-.8-2.4.7-6 3-8.9 5.7-3.2 3-5.5 4.5-6.8 4.3-1.2-.2-3.2.6-4.4 1.8-1.7 1.6-3.1 2.1-4.9 1.6-1.9-.5-2.8-.1-3.6 1.4-.7 1.3-2.1 2-4 2s-3 .5-3 1.4c0 1.7-2.1 2.6-6 2.6-1.5 0-3.3.6-3.9 1.4-.7.8-3.5 1.7-6.2 2.1-2.8.4-5.3 1.3-5.6 2.1-.5 1.4-9.6 6-15.1 7.6-2 .5-3.6 1.8-4.2 3.2-1 2.8-6.1 6.6-8.7 6.6-1 0-2.6 1.3-3.6 2.9-.9 1.5-3 3.4-4.7 4.1-2.5 1-3 1.8-3 4.6 0 2.6-.7 3.9-3.1 5.6-3.9 2.9-6.9 8.6-6.9 13.1 0 1.9-.7 4-1.5 4.7-1.9 1.6-1.9 3 0 3 .8 0 1.7 1.4 2.1 3.4.4 2.5 1.6 4.2 4.5 6 2.1 1.5 3.9 3.4 3.9 4.4 0 1 .6 2.4 1.3 3.1 1 1.1.6 1.2-2.3.6-1.9-.3-4.8-.6-6.5-.6-1.6.1-5 .1-7.4.1-3 0-5.1.6-6.5 1.9-1.2 1.1-4.4 2.9-7.3 4-2.9 1.1-8.8 3.8-13.2 6.1-7.9 3.9-8 3.9-12.2 2.5-2.3-.8-4.3-1.5-4.5-1.5-.2 0-.4 1.5-.4 3.4 0 3.2.3 3.5 4.7 5 7.5 2.6 9.5 2.1 17-3.6 6.5-5.1 7.1-5.3 14-5.6 7.1-.4 7.2-.4 7.9 2.3.5 1.9.1 3.4-1.3 5.3-2.6 3.6-3.8 8.2-2.1 8.2 2.8-.1 9.5-4 12.8-7.5 4.6-4.8 7.2-6.1 17.6-8.6 6.8-1.6 9.2-1.8 11.7-.9 3.8 1.3 5.6-.2 8.1-7.2 1.4-3.7 1.5-5.1.6-6.8-1.6-3-.6-6 2.9-9.4 3-2.9 3.4-2.9 14.7-2.4 2.7.2 5.7-.6 9-2.3 7.3-3.9 9.8-4.2 11.9-1.9 3.1 3.5 16.5 2.2 16.5-1.5 0-1.7 1.1-2 2.6-.5 1.2 1.2 6.4-5.5 6.4-8.3 0-2 4.4-5.1 6.3-4.4.7.3 2.6-.1 4.3-.8 2.2-.9 3.8-3.1 6.8-9.2l3.9-8 7.4-2.4c4.5-1.4 8.2-3.2 9.2-4.6 1-1.2 3.6-2.9 5.8-3.8 3.2-1.3 4.4-2.5 5.6-5.6l1.5-3.9h6.8c4.6 0 7.3.5 8.4 1.5 1.2 1.1 2.4 1.2 5 .5 1.8-.5 9.6-1.2 17.3-1.5 11.7-.5 14.2-.4 15.6.9 1.3 1.2 2.5 1.4 5 .6 1.8-.5 7.7-1.2 13-1.6 12-.8 16.5.7 29.9 10.1.1.1-.5 1.8-1.3 3.8-1.2 2.9-2.8 4.3-7.3 6.6-5.3 2.6-6.8 2.9-20.2 3.4-8 .3-15.3.8-16.2 1.2-1.2.5-1.8 1.8-1.8 3.7 0 2.5.6 3.2 4.6 5 2.6 1.1 6.7 3.3 9.1 4.8 2.5 1.6 6.2 3.1 8.4 3.5 3.3.6 3.9 1.1 3.9 3.1 0 1.9.8 2.9 3.5 4 3.9 1.6 13.5 1.9 13.5.4 0-1.1 16.4-.7 22 .5 1.9.5 4.1 1.7 4.8 2.7 3.2 4.5 12.2 6.5 12.2 2.8 0-2.5 2.2-2.6 4.4-.1 1.3 1.4 1.4 2.4.7 4.5-1.2 3.1-.1 3.4 2.4.6 1.4-1.6 1.6-2.9 1.1-7.1-.4-2.9-1.3-6.9-2-9-1.2-3.4-1.1-3.8.5-4.2 2.1-.6 5.9 4.7 5.9 8.1 0 6.8 5.8 10.9 17.4 12.3 6.1.8 8 .6 13.5-1.2 5.6-1.9 7.8-2.1 16.7-1.6 12.1.8 15.9-.1 14.9-3.6-.4-1.2-2.2-3.5-4.1-5-3.9-3.3-3.6-4.7 1-4.7 5.5 0 9.5 1.1 10 2.9 1.7 6.2 1.7 8.1.1 8.1-2.7 0-1.1 6 2.1 8.4 1.5 1.1 4.9 3.9 7.7 6.2 2.9 2.5 8.8 5.9 14 8.1 7.6 3.2 9.4 4.5 11.9 8.1 2.6 3.8 3.1 4.1 4.2 2.7 1-1.4 2.1-1.5 5.9-1 4.1.6 4.7 1 4.7 3.1 0 2 .5 2.4 3 2.4 1.6 0 3.3-.7 3.8-1.6.8-1.5 1.2-1.5 4 0 1.7.9 4.2 1.6 5.5 1.6 3.6 0 11.9 3 14.4 5.2 1.5 1.4 2.6 1.7 3.8 1.1 1.6-1 15.4 1.4 20.8 3.6 4.4 1.7 8.9 1.3 14.2-1.3 2.7-1.4 7.3-2.8 10.4-3.1 9.2-1 18.4-2.7 21.1-3.9 2.3-1.1 7-1.1 7 0 0 .3-.5 1.4-1 2.4-.9 1.7-.5 2 2.8 2.9 2.1.6 4.7 2.1 5.8 3.3 4 4.5 8.4 12.5 8.4 15.4 0 2.2.9 3.5 3.8 5.4 2.8 1.8 3.3 2.5 2 2.8-2.2.4-2.2.8-.4 6 .8 2.2 1.7 6.6 2.1 9.8 1 8.5 1.2 9 4.8 10.5 1.8.7 5.4 2.9 8 5 2.6 2.1 6.1 4 7.6 4.4 2.2.5 3.1 1.5 4 4.5.9 3 1.5 3.7 3 3.3 1.2-.3 3.5 1.2 7.2 4.9 5.7 5.8 8.3 6.8 16.9 6.8 3.2 0 5.5-.6 7.2-2 2.3-1.8 2.9-1.8 7.7-.5 6.1 1.6 36.2 1.2 40.7-.6 3.4-1.2 8.4-.2 10.7 2.2 1 1.1 2.7 1.9 3.7 1.9 2.7 0 4 4.9 1.6 6.2-2.7 1.5-1.9 2.5 4.5 4.8 3.5 1.3 6.7 3.3 7.6 4.7 2.1 3.1 1.1 8.8-2.1 12.2-1.3 1.4-2.7 3.6-3.1 4.8-.5 1.7-1.4 2.3-3.5 2.3-1.9 0-3.3.8-4.4 2.6-1 1.4-3.8 3.4-6.3 4.5-2.5 1-7 4.2-10.1 7-3.2 2.8-7.1 5.7-8.9 6.5-2.2.9-3.5 2.4-4.3 5-.7 2-2.7 5.3-4.4 7.3-3.2 3.6-10 14.1-9.4 14.5.2.2 2.2 1 4.4 1.9 3.7 1.4 4.3 1.4 6.3 0 1.2-.8 4.1-1.6 6.4-1.8 2.3-.1 7.6-.8 11.7-1.5 6.1-.9 7.9-1.6 9.7-3.8 2.1-2.6 3.5-3 13.3-3.3.8-.1 4.1.4 7.4 1 4.7.8 6.5.7 9.3-.4 2-.8 4.7-1.5 6.2-1.5 1.4 0 3.9-1.1 5.6-2.4 2.3-1.8 3.4-2.2 4.8-1.4 1.2.6 2.9.6 5-.2 1.8-.7 7.7-1.6 13.2-2 14.2-1.2 25.3-2.8 30.1-4.4 3-1 8.1-1.2 19.5-.9 14 .4 15.7.3 19.2-1.5 3.8-2 3.9-2 5.8-.1 1.4 1.4 3.3 1.9 7.4 1.9 3.1 0 7.9.9 11.2 2.2 4.1 1.5 7.8 2.1 12.8 2 12.6-.2 22.8-1.4 27.2-3.3 4-1.7 4.3-2.1 4.3-5.6 0-4.8 2.4-8.5 5.3-8.1 3.1.4 3.2 3.6.3 9.1-2.5 4.7-2.5 4.7-.4 4.7 1.2 0 5-.5 8.5-1.1 5.5-1 6.6-1.5 7.9-4 .8-1.6 2-2.9 2.6-2.9.6 0 3.7-2.2 6.9-5 3.2-2.7 6.3-4.8 7.1-4.5 2.2.9 21-2.2 27.3-4.5 4.5-1.7 8.1-2.2 14-2.1 4.4.1 8.5-.2 9.1-.6.6-.5 1.9-2.3 2.8-4 .9-1.8 2.8-4 4.1-4.9 3.9-2.6 3.4-7.1-1.3-11.7-4-3.9-6.9-4.6-10.5-2.3-3.8 2.4-9.2 2.9-10.8 1-.8-1-3.8-2.8-6.7-4.1-3.4-1.5-7.3-4.4-10.7-8.1-2.9-3.1-7.6-7.1-10.3-8.7-3.1-1.8-5.7-4.3-6.7-6.4-1.5-3.1-1.8-3.3-5.1-2.7-2.6.5-4.3.2-6.7-1.3-5.1-3.1-15-4.7-20.6-3.2-3.4.8-5.5.9-7.5.1-1.5-.5-5.6-1-9.2-1-5 0-6.4.3-6.4 1.5 0 .8-.9 1.5-2 1.5-1.5 0-2-.7-2-2.5 0-2.4-.3-2.5-5.5-2.5-4.8 0-5.5.2-5.5 2 0 1.3-.9 2.2-2.7 2.6-1.6.3-3.3.7-4 .9-.6.2-1.4-.3-1.7-1.2-.5-1.2-.9-1.3-2-.4-1.2 1-1.5.6-2.1-1.9-.4-1.6-1.1-3-1.7-3-2 0-7.8 4.2-7.8 5.6 0 1.7-.1 1.7-3.4.4-2.3-.8-2.6-1.5-2.6-6.1v-5.1l8.8.3c7.2.3 8.7.1 8.7-1.1 0-.8-1.5-2.3-3.4-3.2-3-1.5-3.8-1.5-6.6-.4-3.9 1.7-6.5.5-6.5-2.9 0-2.7 2.7-3.4 4.7-1.4s5.6.6 6.5-2.6c.5-1.7 1.4-4 2-5.2.8-1.7.6-2.8-1.1-5.2-1.2-1.7-2.8-3.1-3.5-3.1-.7 0-2.7-1.1-4.6-2.5-3.7-2.7-8.9-3.3-13.7-1.4-1.5.6-4.5 1.1-6.5 1-2.1 0-4 .5-4.5 1.3-1 1.6-8 2.6-10.8 1.6-1.1-.4-2.7-.4-3.6.1-1.3.6-2 0-3.2-3.1-1.1-3-2.1-4-3.7-4-1.3 0-6-2.3-10.6-5.1l-8.3-5.1-6.6.7-6.5.7v4.4c0 3.2-.4 4.4-1.5 4.4-.8 0-1.5-.9-1.5-2 0-4-2.9-8-5.6-8-1.9 0-2.5.4-2 1.5.8 2.3-5.6 2-7.7-.3-2.2-2.4-2.1-3 .6-3.4 1.2-.2 2.2-1 2.2-1.8 0-1-1.9-1.9-6-2.8-3.3-.7-7.3-2-9-2.8-5.4-2.6-9.4-3.4-10.2-2-1.2 2-5 3.7-6.7 3-1.2-.5-1.1-.9.5-2.5 1-1 1.9-2.5 1.9-3.3 0-1.8-7.5-11.2-9.6-12-2.2-.8-2.4-.8-2.4.7 0 .8-.9 2.2-2 3.2s-2 2.8-2 4c0 2.5-1.7 3.5-6.1 3.5-2.3 0-2.9-.4-2.9-2.1 0-1.2.7-2.7 1.6-3.3 2.1-1.6.8-4.6-2.1-4.6-5 0-8.3-1.3-9.4-3.6-.5-1.3-2.6-3-4.5-3.8-4-1.7-5.8-4.4-4.5-6.8.7-1.3.3-1.8-1.9-2.6-1.6-.5-3.7-.6-5-.1-1.4.5-3.1.5-4.2-.1-1-.6-3.9-1-6.3-1-6.5 0-10.3-1.7-11.7-5.1-.7-1.6-1.7-2.9-2.2-2.9-1.9 0-5.8-5-5.8-7.5 0-2-.5-2.5-2.5-2.5s-2.5.5-2.6 2.7c0 1.6-.4 3.6-.8 4.7-.6 1.6-1.1 1.3-3.6-2-1.6-2.2-5.8-6.9-9.4-10.7-4.7-4.9-7.1-6.7-9-6.7-1.4 0-3.9-.9-5.6-2-1.6-1.1-5.5-2.5-8.5-3.1-4.1-.9-6.5-2.2-9.5-5-3.4-3.2-4.9-3.9-9.9-4.5-3.3-.4-7.3-1.6-9-2.6-6.8-4.3-14.9-8.8-15.7-8.8-.4 0-.9 1.7-1.1 3.7l-.3 3.8-3.5-3.6c-1.9-2-4.8-3.9-6.4-4.3-1.5-.4-11.2.1-21.5 1l-18.6 1.7-9.3-6.1c-5.1-3.3-10.1-6.3-11.1-6.7-1-.3-3.7-3.2-5.9-6.4-2.3-3.2-4.8-6.3-5.6-7.1-.9-.7-1.6-2.1-1.6-3.1s-1.1-3.1-2.4-4.6c-1.9-2.1-2.7-2.5-3.6-1.6-.9.8-2.4.5-5.9-1.3-3.8-2-5.3-2.3-7.3-1.5-2.2.8-2.7.6-3.7-1.7-1.1-2.4-1-2.8 2.6-5.8l3.8-3.2-4.3.8c-2.3.4-5.1 1.5-6.1 2.4-1.7 1.5-2.1 1.5-6.2-.9-2.4-1.3-5.2-2.5-6.1-2.5-1 0-1.8-.7-1.8-1.6 0-1.1-.6-1.3-2-.9-1 .3-3.1 0-4.6-.8-2.5-1.3-3-1.2-6.2.9-5.1 3.5-9.2 3.9-13.9 1.5-2.2-1.1-4.9-1.8-5.9-1.5-2.8.7-13-4.1-15-7.1-.9-1.3-3.2-3.4-5.1-4.6-3.4-2.1-3.5-2.1-14-.5-5.8.9-11.4 2.1-12.4 2.6-1.9 1.1-8.9 1.4-8.9.4 0-.3.4-1.4 1-2.4.9-1.6.6-1.8-3.3-1.3-6 .7-6.6 1-7.7 3.7-.6 1.6-2.1 2.8-4.2 3.4-3.1.9-3.6.6-7.8-3.7l-4.6-4.6 4.1-2.1c4.7-2.6 8.6-6.4 6.4-6.4-.8 0-7.2 2.7-14.3 6zM601 403c-2.6 2.1-6.4 2.4-14.1 1.4-4.2-.5-4.7-.4-5.2 1.7-.8 3.1-.1 3.9 3.6 3.9 1.8 0 5 .9 7.2 1.9 2.5 1.1 5.4 1.6 7.3 1.3 1.8-.2 5.3.1 7.7.8 3.7 1 4.7 1 6.6-.4 1.3-.9 3.2-1.6 4.2-1.6 2.2 0 1.3-1.9-3.7-7.3-2.9-3-4.2-3.7-7.3-3.6-2.2 0-4.9.8-6.3 1.9z"/><path d="M623 414.9c-1.9.4-4.4 1.2-5.5 1.9-1.8 1-1.5 1.1 2.2 1.2 3.3 0 4.1.3 3.7 1.5-.9 2.3 2.6 3.2 4.2 1 1.3-1.8 1.4-1.8 1.4.4 0 1.4 1.6 4 3.9 6.2 3.6 3.7 3.9 3.8 4.4 1.7.6-2 .8-2 2.9-.6 1.3.9 2.4 2.8 2.6 4.4.2 1.6 1 3.3 1.8 3.7.9.5 1.2 1.6.9 2.6-.7 2.2 1.1 3.8 4.5 4.3 1.9.2 2.6 1 2.8 3 .6 4.7 10.2 11.6 10.2 7.3 0-2.1 1.9-1.9 2.7.2 1.1 3.3 3.6 5.3 6.3 5.3 2.2 0 2.9.6 3.5 2.7.6 2.5 2.1 4.2 3.6 4.3.3 0 .4-1.4.1-3-.3-2.4.2-3.6 2.2-5.5 2.1-1.9 2.7-3.3 2.4-5.8-.3-3.1-.5-3.2-4.8-3.3-2.5 0-5.8-.8-7.5-1.7-1.6-.9-3.6-1.7-4.2-1.7-.7 0-1.3-1.1-1.3-2.3 0-2.4-2.8-5.7-4.8-5.7-.6 0-1.4-.9-1.7-2-.3-1.1-1.3-2-2.2-2-2.9 0-7.3-3.4-7.3-5.7 0-1.8-.6-2.2-3.7-2.5-2.9-.2-3.9-.8-4.1-2.3-.8-5.4-1.3-6.4-4.3-7.4-3.5-1.2-9.4-1.3-14.9-.2zM688.1 462.9c-1.9 1.2-.2 6 3.1 8.4 2 1.5 3.5 1.8 6.2 1.3l3.6-.7-4.2-4.9c-4.3-5-6-5.8-8.7-4.1zM705.2 473.8c.2.4 1.1 2.8 2.1 5.3 1.1 2.6 2.9 5.2 4.2 5.9 1.3.7 2.9 2.6 3.4 4.1.9 2.7 1.4 2.9 6.4 2.9 4.1 0 5.8.5 7.2 2 2.6 2.9 4.7.8 4.3-4.4-.3-4-.4-4.1-4.3-4.7-5.1-.7-10.2-3.4-11-5.8-.3-1-2.8-2.8-5.7-4-5.3-2.2-7.2-2.6-6.6-1.3zM184.3 482.3c.3.9-.1 2.1-1 2.9-5.2 4.2-9.3 15.5-6.3 17.3 2.1 1.3 11 12.7 11 14 0 2-5.2 4.5-9.4 4.5-2.6 0-4-.6-5.1-2.3-1.4-2.2-6.3-5.2-7.1-4.5-.1.2 1.6 3.3 3.8 7 4.9 7.7 8.3 9.8 16.5 9.8 3 0 7.3.5 9.3 1.1 3.6 1.1 4.2.9 16.4-5.7 11.9-6.5 12.6-7.1 12.6-10 0-1.7-1-4.3-2.1-5.8-1.8-2.3-2-3.1-1-5.2 1.5-3.4.2-5.6-4.9-7.9-4-1.8-5.8-4.9-4.7-7.9.8-2-7.4-5.3-16.3-6.5-4.1-.6-8.6-1.4-9.9-1.8-2-.5-2.3-.3-1.8 1zM526 554c0 1.4 4.6 6 6 6 .6 0 1-.8.8-1.7-.4-2-6.8-6.1-6.8-4.3zM541.8 563.3c-1.6 1.3-1.3 1.8 3.3 6.6 4.7 4.9 6.9 5.7 6.9 2.6 0-.7-1.9-3.4-4.2-5.9-3.8-4-4.5-4.4-6-3.3zM555.6 574.6c1.3 3.4 2.6 4.4 6.1 4.4 3 0 3.3-.2 2.4-1.9-.6-1-2.1-2.1-3.3-2.3-1.3-.3-3.1-.9-4.1-1.3-1.4-.6-1.6-.4-1.1 1.1zM567 582c0 1.9 1.9 3 5.1 3 3.7 0 1.6-3.2-2.8-4.3-1.8-.4-2.3-.1-2.3 1.3zM580.2 589.6c.9.9 2.1 1.3 2.7.9 1.6-1 .3-2.5-2.2-2.5-2 0-2 .1-.5 1.6zM615.7 603.6c2.2 3.5 8.2 6.1 9.4 4.2 1.4-2.1 1.1-2.4-4.2-4.7-6.7-2.7-7.3-2.7-5.2.5z"/></svg>
