<svg version="1.0" xmlns="http://www.w3.org/2000/svg" width="1365.333" height="1365.333" viewBox="0 0 1024 1024"><path d="M546.4 1.9c-4.2 1.9-15 10.8-26.9 22.1-8.3 7.9-16.9 15-18.2 15-.5 0-3.1 1.4-5.9 3.2-12.3 8-30.5 12.5-42.8 10.7-13.9-2.1-14.5-2-19.3 4.9-2.2 3.1-5.4 8.4-7.1 11.7-1.7 3.3-6.5 9.6-10.6 14s-8.3 9.8-9.2 12c-12.6 29.8-29.3 60-41.7 75.5-5.6 6.9-23.3 22.3-28.1 24.4-1.2.5-4.5 1.2-7.4 1.6-2.9.5-7.4 1.9-10 3.1-4.1 2-6.3 2.3-17.2 2.4-7.3 0-13.5-.4-15-1.1-1.4-.6-4.3-1.5-6.5-1.8-2.2-.4-5.1-1.4-6.4-2.3-1.5-1-2.7-1.1-3.3-.5-.5.5-2.7.8-4.8.5-3.3-.5-4.7.1-11.3 4.6-16.6 11.4-29.6 15.2-39.3 11.6-2.7-1-5.3-2.2-5.9-2.6-.5-.4-3.4-1.4-6.3-2.3-6.7-1.9-8.1-1.2-12.4 6.4-8.1 14.2-13.1 19.9-16.4 18.6-.9-.3-2.7 1.8-5.5 6.7-4.6 8-12.6 19.7-14.5 21.2-1.8 1.4-11 17.7-15 26.3-9.3 20.3-15.3 48.6-11 52.1.9.7 1.6 2.4 1.6 3.7 0 2.8 1.5 3.2 2.5.6.4-.9 1-6.1 1.3-11.5.2-5.3.7-9.7.9-9.7.3 0 1.8.9 3.4 2.1 2.2 1.5 2.9 2.8 2.9 5.3 0 3.5 3.3 12.1 5 13.1 1.3.8 5 8.9 5 10.9 0 1 .9 1.6 2.3 1.6 5.9 0 10.2 2.3 16.3 8.7 4.7 5 6.3 7.4 6.8 10.4.3 2.1 1.1 3.9 1.6 3.9.6 0 1 .6 1 1.3 0 1.8 4.8 6.7 6.5 6.7 1.9 0 1.9 1.1-.1 5.4-.9 1.9-2.8 3.9-4.3 4.6-2.3 1-2.8.9-5.2-1.8-1.4-1.6-5.6-4.3-9.3-6.1-6.5-3.1-10.3-3.4-21.8-2.2-.4.1-1.3 2-1.9 4.3l-1.2 4.3-.8-3c-1.2-5.4-1-8.5.6-8.5.8 0 1.5-.9 1.5-2 0-1.7-.7-2-4.4-2-5.3 0-9.9-3-7.8-5.1 2.2-2.3 1.3-3.7-3.8-5.5-2.7-1-5-2.1-5-2.5 0-1.9 1.4-3.9 2.7-3.9 1.1 0 1.3-.7.9-2.5-.4-1.7 0-3.4 1.4-5.3 1.8-2.5 1.9-3.1.7-7.1l-1.4-4.4-1.9 2.9c-4.4 6.4-7.1 12.2-8.3 17.9-.7 3.3-2.6 11.4-4.1 18l-2.9 12 .3 39.5c.2 21.7.7 45.6 1.1 53 .6 12 .4 15.6-1.9 31.5-1.5 9.9-3 23.2-3.3 29.6-.5 10.1-.3 12.8 1.7 20 1.2 4.6 3 10.5 4 13 1.1 2.7 2.5 11 3.4 20 .8 8.5 2 17.7 2.5 20.4 4.1 20.9 1.1 42.7-10 72.4-2.8 7.4-5.4 14.2-5.9 15.1-1 1.9 1.3 6 3.4 6 2.7 0 17.3 8 20.1 11 1.7 1.8 5.6 5 8.8 7.1 3.1 2.2 5.7 4.4 5.7 4.9 0 .6.9 1 2 1 1.6 0 2-.7 2-3.3 0-3.3-1.2-5-6.4-9.5-2.6-2.2-2.7-2.5-1.2-4.1 1.5-1.6 1.4-1.9-1.3-3.9-3.8-2.8-4.4-6.5-1.7-11.6 1.8-3.5 2.6-4.1 5.7-4.4 5-.4 6.8 1.9 3.8 4.7-2.2 2-2.2 2.2-.7 5.3 1.3 2.8 5.3 7.6 16.6 20.4 1 1.1 2.6 2.5 3.7 3.1 2.9 1.6 1.2 4.3-2.8 4.3-3.5 0-5.7 1.3-7.6 4.5-1.1 1.8-1.2 1.7-.6-.7.7-3.4-.8-3.6-2.9-.6-2.2 3-2.1 3.3 1.9 7.5 4.6 4.8 11.6 19.2 12.3 24.9.6 5.3 3.6 8 7.7 7 2.8-.7 4.9-4.5 3.4-6-.5-.6-.9-1.8-.9-2.8 0-.9-.8-3.3-1.7-5.3-1.4-2.9-1.4-3.9-.4-5.8 1-2 1-3.2-.2-6.8-1.5-4.5-4.2-6.3-5.3-3.4-1 2.6-3.4-.3-3.4-4.2 0-4.1 2-5.2 5.6-2.8 2.3 1.5 2.8 1.5 4 .3 2.3-2.3 15-.3 19.4 3 1.9 1.5 4.5 3.2 5.9 3.7 2.1.9 3 3.2 6.8 16 5.2 18 5.1 20.6-.6 22.4-2.1.6-4.4 1.8-5.1 2.6-.7.9-2.9 1.5-5.4 1.5-6.8 0-10.6 4.3-7.7 8.8 1.5 2.4 6 .3 7.6-3.4.8-1.9 1.9-3.4 2.4-3.4.6 0 2.7-1.1 4.7-2.5s4.2-2.5 4.8-2.5c1.3 0 1.5 7.9.2 9.9-.5.8-.4 1.6.2 2 2.2 1.3 3.1 5.7 2.1 10.1-.6 2.6-.6 4.6-.1 4.9.7.5 4.2 16.5 4.2 19.3 0 .5-.9.8-2 .8-2.5 0-2.6 1.6-.3 2.9 1.7.9 1.7 1.3-.1 6.8-1.1 3.2-2.5 6.7-3.1 7.8-.7 1.1-2 5.7-3 10.1l-1.7 8.1 2.6 8.9c3 10.2 3.1 12.8 1.1 20.4-.8 3-1.5 7-1.5 8.7 0 3.4.5 3.7 6 3.4 1.4-.1 4 .9 5.9 2.3 2.9 2.1 4.1 2.4 7.9 1.9 2.5-.3 5.7-1.2 7.2-2 3.4-1.7 7-1.6 9.1.3 1.5 1.4 2.2 1.4 6.1.1 7.3-2.5 21 .9 28.2 7 2.8 2.3 3.4 2.4 12 1.8 8.6-.6 9.3-.5 12.7 1.8 2 1.4 5.2 2.8 7 3.2 4.8 1 5.9 2.2 5.3 5.4-.8 3.9 2 9.1 4.9 9.1 1.3 0 2.8.5 3.5 1.2.7.7 1.2.8 1.2.2 0-.5 1.5-.8 3.4-.6 4.9.6 9.3-2.1 11.2-6.8 1.4-3.4 2.1-4 4.5-4 1.9 0 2.9.5 2.9 1.5 0 .9.9 1.5 2.5 1.5 1.4 0 2.5-.3 2.5-.8 0-.4 1.4-1.3 3.2-2.1 3.4-1.5 7.7-5.8 7.8-7.7 0-1.4 6.7-4.7 7.9-4 1.1.7 7.7-2 8.6-3.5.4-.6-.2-1.3-1.4-1.6-3.3-.9-2.6-3 .9-2.5 2 .3 3.6 1.4 4.7 3.3 1 1.7 2.6 2.9 3.8 2.9 1.9.1 1.9.1.3 1.4-2.3 1.7-2.3 3.1.2 5.6 1.2 1.2 3.3 2 5.5 2 2.4 0 3.7.6 4.5 1.9 1.5 2.8 6.7 3.7 9.1 1.5 2.4-2.2 2.4-4.9-.1-7.4-1.1-1.1-2-2.9-2-4 0-2.1-2.7-4-4.7-3.3-.8.3-1.3-.4-1.3-1.6 0-2.4.3-2.5 4.8-1.2 2.1.6 4.3.6 6.1 0 2.3-.8 3.5-.6 6.2 1 4.6 2.8 7 2.6 11.3-.8 4.1-3.3 6.3-3.2 11.3.5 1.7 1.3 3.6 2.4 4.2 2.4 1.5 0 5.1 4.1 6.5 7.3l1.2 2.8 2.6-2.1c1.5-1.1 3.7-2 5.1-2 6 0 7.1-2.2 3.8-7.5-1-1.7-2-5.3-2.3-8.1-.4-4-1.9-7.5-6.8-15.8-7.2-12.2-10.8-15.6-16.6-15.6-3.5 0-4.6-.7-10.9-7.1-9.1-9.3-15-12.4-22.2-11.5-5.3.6-13.3 4.6-13.3 6.6 0 .6-.7 1-1.5 1-1 0-1.5 1-1.5 3 0 2.7.3 3 3.1 3 1.7 0 3.9-.5 5.1-1.1 1.1-.6 2.2-.8 2.5-.6.3.3-1.3 1.5-3.6 2.7-2.3 1.1-4.1 2.4-4.1 2.8.1.4 1.7 1.7 3.6 3 3 1.8 4.9 2.2 12 2.2 8.5 0 9.6.4 6.8 2.4-2.6 1.9-.2 6.6 3.4 6.6s7.4 3.6 5.2 5c-1.2.7-1.1 1 .4 1.6 1.8.7 1.7.8-.5 1.6-2 .8-2.8.4-4.9-2.2-1.4-1.6-3-3-3.6-3-.6 0-1.7-.7-2.4-1.5-2.1-2.5-3.2-1.7-2.5 1.6 1.3 5.9 2.2 13.9 1.5 13.9-.4 0-1-2.8-1.4-6.1-.3-3.4-1-6.7-1.5-7.3-.5-.6-1.1-2.2-1.3-3.6-.2-2-1.1-2.7-4.8-3.5-2.5-.5-5.6-1.8-7-2.7-1.4-.9-3.8-2.2-5.3-2.9-1.6-.7-3.7-3-4.8-5.1-2.4-4.6-6.5-7-8.3-4.7-.6.8-3.5 2.7-6.4 4.2-8.3 4.2-17.5 3.4-18.8-1.8-1.1-4.3 1.1-5.8 7.7-5 5.6.7 5.7.7 9.8-3.5 4.3-4.3 5.2-7.7 2.8-10.6-3.2-4.1-7.3-7.4-9.2-7.4-1.1 0-2.6-.4-3.4-.9-2.1-1.3.4-2.4 3.9-1.6 3.1.7 6-.3 4.3-1.4-1.5-1-4.1-6.8-3.4-7.7.6-.9 2.4-2.1 7.5-5.2 1.6-.9 4.1-2.7 5.6-3.9 3.7-3 6.7-2.9 8.2.2 1.4 3.1 2.6 3.1 6.8 0 1.9-1.4 4.2-2.5 5.3-2.5 1.6 0 1.7-.5 1.1-4.6-.6-4-.4-4.8 2-7.3 2.2-2.3 2.7-3.6 2.4-6.6-.3-3.3-1-4.3-5.2-7.2-5.7-3.9-10.9-4.5-12.6-1.3-.6 1.1-1.7 2-2.5 2s-2 1.2-2.7 2.7c-.8 1.8-2.2 2.9-3.8 3.1l-2.5.2 2.6-1.4c1.5-.9 2.9-2.4 3.2-3.6.3-1.2 1.3-2 2.6-2 1.2 0 2.1-.4 2.1-.8 0-.5 1-1.8 2.1-3.1 1.5-1.6 2.4-2 3.2-1.2.6.6 2.1 1.1 3.4 1.1h2.3l-2.6-4c-1.5-2.2-3.2-4-3.8-4-.6 0-.3-.5.7-1.1 1.1-.6 1.7-2.2 1.7-4.5 0-4.7-1.3-6.9-5-8.4-3.4-1.4-3.5-1.7-1.5-4.4 2.3-3 1.8-7.1-1.1-10.6-2.3-2.7-2.5-3.4-1.5-5.6.8-1.9 1.6-2.4 3.1-1.9 1 .3 3 .1 4.2-.6 2.9-1.5 8.8-7.5 8.8-8.9 0-.6-2.4-3.5-5.3-6.5-3.8-3.9-6.1-5.5-8-5.5-1.4 0-2.8.4-3.1.9-.7 1.1-12.6 1.1-12.6-.1 0-.4 2.3-.8 5-.8 4.4 0 5-.3 5-2.1 0-1.1-.5-2.9-1.1-4.1-.6-1.1-.9-2.2-.6-2.4 1-1 5.5.9 6 2.5.6 2.6 7.6 2.1 9.5-.7 1-1.5 2.5-2.2 4.8-2.2 4.4 0 5.3 1.8 1.2 2.2-3.3.3-3.3.3-3.3 5.6.1 5.9 2.5 9.6 4.7 7.4 1-1 1-1.7 0-3.3-.8-1.2-1.1-2.3-.9-2.5 1-1 5.6 2 6.1 4.1.5 2.1 4.3 4.5 7.1 4.5.7 0 1.5 1 1.7 2.2.2 1.5 1.5 2.8 3.6 3.7 3.8 1.7 4.2 4.1.6 4.1-1.7 0-4.1-1.6-7.4-5-2.7-2.8-5.6-5-6.4-5-2.2 0-2 1.2.6 4 1.3 1.3 2.1 3.4 2 4.6-.2 1.6.4 2.3 2.3 2.8 1.5.4 3.5.4 4.6.1 1-.4 3.2.2 4.9 1.2 3.5 2 4.1 4.8.9 4-2.4-.6-4.9.1-4.9 1.4 0 .5.7.9 1.6.9.9 0 2.9.8 4.5 1.7 4.6 2.7 3.7 6.3-2 8.3-2.4.8-4.6 2.1-4.9 2.8-.4 1.4 6.4 4.7 11.9 5.7 3.4.6 3.9 1.1 5.8 6.4 2.2 6.1 2.1 13.1-.2 17.9-.9 1.9-.7 2.5 1.1 3.8 3 2.1 2.8 3.6-.4 2.8-4.2-1.1-2.5 1.8 2.4 4 2.7 1.2 4.2 2.6 4.2 3.7 0 1.3 1.2 2.1 4.3 2.9 6.6 1.7 6.7 1.8 6.7 4.7 0 1.5.5 3.5 1 4.3.8 1.3 1.1 1.3 2.2.1 1-1.1 1-1.4.1-1.8-.7-.3-1.3-.9-1.3-1.4 0-1.8 2.9.4 4 3.1 1.9 4.5 10.6 5.6 14.6 1.9l2.3-2.1 2 4.1c1.2 2.2 2.1 4.7 2.1 5.5 0 .8.3 1.6.8 1.8 1.5.7 5.3 6.9 4.7 7.8-.3.6-2.5 1.3-4.7 1.7-5.7.9-10.7 5.6-11.5 10.7-.6 3.5-.4 3.9 1.3 3.3 9.5-3 10.3-3.1 13.9-1.4 2 .9 4.2 1.7 4.9 1.7.8 0 1.6.9 1.9 2 .8 3.1 3.2 2.4 5-1.5 1.5-3.1 2.1-3.5 5.7-3.5 2.9 0 4 .4 4 1.5 0 1.9 3.1 5.5 4.7 5.5.6 0 1.6.6 2 1.4 1.3 2.2 6.3 2.6 8.2.7 2.1-2.1 4.1-1.6 4.1 1 0 2.7 5 4.9 11.2 4.9 3.1.1 6.1.7 7.2 1.5 2.7 2.1 5.1 1.9 11-.9 5.2-2.4 11.6-4.2 11.6-3.2 0 .3-1.6 1.3-3.5 2.2-1.9.9-3.5 2.3-3.5 3.1 0 .8-1.5 2-3.2 2.8-6.2 2.7-6.9 3.7-6.2 9.1.4 2.7 1.4 5.8 2.4 6.9 1 1.1 2 3.2 2.4 4.8.6 2.4 1 2.6 3.4 2.1 1.5-.4 3-1.2 3.4-1.8.5-.8 1.3-.7 2.8.2 2.6 1.6 4 1.5 4-.1 0-2.1 4.3-5.6 7.8-6.3 2-.4 3.2-1.3 3.2-2.3 0-.9.3-2.6.6-3.9 1-3.4-2.7-2.8-4.8.8-1.9 3.3-5.2 4-6.2 1.4-.4-.9 0-2.4.9-3.4.8-.9 1.5-2.8 1.5-4.2 0-1.4.7-3.1 1.5-3.8 2-1.6 1.9-3-.2-4.6-2.4-1.7-1.5-2.1 3.2-1.3 2.2.3 3 .7 1.7.8-4.1.2-1.3 2 2.9 1.8 3.6-.1 4-.3 3.7-2.7-.2-1.6-1.3-3-3.1-3.8-2.1-1-2.6-1.7-1.8-2.5s1.4-.8 2.2 0c.7.7 2.1.5 4.8-.8 3.2-1.5 4-2.6 5-6.3.6-2.5 1.7-4.9 2.5-5.3.8-.5 1.8-4.3 2.5-9.8.8-5.6 2-10.3 3.3-12.5 2.9-4.8 3.2-15.3.6-24-1-3.6-1.8-7.7-1.6-9.2.2-1.8-.4-3.2-1.7-4.1-1.8-1.4-1.8-1.5.7-4.6 1.5-1.7 3-4 3.3-5.2 1-3.2-1.5-11-4.7-14.7-1.5-1.8-2.8-3.7-2.8-4.3 0-2-7.5-10.8-9.3-10.9-.9 0-2.3-1.2-2.9-2.8-.7-1.5-2.3-3.6-3.6-4.7-4.3-3.7-.1-9.1 7.7-9.7 4.5-.4 6-2.8 3.7-5.9-.9-1.3-2.8-3.9-4.1-5.8-1.5-2-2.5-4.8-2.5-6.8 0-1.9-.8-4.6-1.8-6.1-6.4-9.5-9.3-14.2-11.1-18.2-1.1-2.5-2.1-3.9-2.1-3.2 0 1-.8 1.2-3 .7-3.5-.8-4.1.8-1 2.5 1.1.6 2 1.7 2 2.4 0 .8.7 1.9 1.5 2.6 1 .8 1.5 2.9 1.5 5.9l-.1 4.6-2.5-4.5-2.5-4.5.6 3.5c.4 1.9 1 4.4 1.4 5.5 1.4 3.3 3.2 12.8 2.5 13.4-.3.3-1.6-.6-2.8-2.2-2.3-2.9-4.5-3.4-6.4-1.5-1.7 1.7.3 4.5 4.1 5.7 3.8 1.3 6.3 5.1 4.4 7-.6.6-2.7 1.1-4.7 1.1-1.9 0-4.4.7-5.4 1.5s-2.2 1.2-2.7 1c-.4-.3-1-.1-1.4.5-.3.5-2.7 1-5.2 1h-4.5l.6 3.1c.8 3.9-.9 5.6-6 6.1-3.1.2-3.8 0-3.5-1.2.2-.8.6-3.1.9-5 .5-4.3 2.8-7 5.9-7 1.2 0 2.3-.5 2.3-1.1 0-.7.8-1.8 1.8-2.5 1.6-1.3 1.6-1.5 0-2.8-1-.7-1.8-2-1.8-2.8 0-.8-.5-1.9-1.1-2.5-.7-.7-.6-1.5.5-2.6.9-.9 1.6-2 1.6-2.6 0-.6.6-1.1 1.3-1.1 1.5 0 3.6 2 6.8 6.2 2.2 3 3.9 3.6 3.9 1.5-.1-1.8-4-5.9-9-9.4-2.5-1.7-7.2-5.5-10.5-8.5-6.1-5.5-22.2-15.8-24.6-15.8-2.7 0-4.4 1.7-3.2 3.2.6.7 1.3 3.1 1.5 5.3.2 3-.1 4-1.2 4-1 0-1.6-1.2-1.8-3.9l-.3-3.8-5.1.6c-2.8.4-6.1 1.2-7.2 1.9-1.2.6-2.5 1-3 .9-.5-.2-1.2.2-1.7.9-.7 1.2-6.9 3.9-9.9 4.3-.9.1-2.7 1-4 1.9-1.4.9-3.2 1.7-4.1 1.7-1.7 0-10.7 5.8-19.2 12.3-5.1 3.9-10.1 5.7-15.9 5.7-4.6 0-6.8-2.8-6.8-8.7 0-3.8-.3-4.3-2.7-4.9-1.9-.5-3.8-.1-6.4 1.4-2.1 1.2-4.7 2.2-5.8 2.2-1.7 0-2 .5-1.4 3 .4 2.3.2 3-1 3-2.3 0-4.7-3.9-4.7-7.7 0-2.9.4-3.3 3.6-3.9 3.1-.6 3.8-1.3 5.9-6 1.3-3 2.8-5.4 3.4-5.4 1 0 9.4-6.8 9.9-8 .6-1.6-10.6-2.3-13.9-1-4 1.7-5.6.2-6.8-6.3-1-5.3-3.4-8.7-6.3-8.7-1 0-2.9-1.2-4.2-2.6-2-2.4-3.2-2.7-9.9-3.2-4.7-.3-8.1-1-8.8-1.8-1.5-1.8-.5-2.1 8.9-3.2 5.5-.6 8-.5 9.9.5 1.4.7 3 1.3 3.7 1.3.6 0 2.2 1.8 3.6 4 2.4 3.8 2.7 4 7.7 4 3.3 0 5.7.5 6.7 1.5 1.7 1.7 6.4 1.1 8.1-1 1.8-2.1 21.6-6.9 28.7-6.9 2 0 3.5-.4 3.2-.8-.3-.4 0-1.6.6-2.7.9-1.8.6-2-2.2-2.3-5-.5-4.6-3 .7-5.1 2.5-1.1 4.5-2.3 4.5-2.9 0-.5.8-.7 1.8-.4 2.4.8 4.6-.9 3.9-2.8-.4-1.1-1.9-1.6-4.6-1.6-3 0-4.3-.5-5.1-1.9-1.7-3.3-1.1-5.4 2.8-10 3.5-4.1 3.8-4.8 2.8-7.3-.7-1.9-1.7-2.8-3.3-2.8-2.4 0-2.7-.9-1.7-4.8.6-1.9 1.3-2.2 6.1-2.2 5.9 0 9.3-1.3 9.3-3.4 0-2.9-10.3-3.5-13.7-.8-1.2.9-2.8 3.4-3.7 5.5-.8 2-2.2 4-3 4.3-.8.3-5.4-.4-10.3-1.6-12.5-3.1-14.4-5-6.9-6.9 3.1-.8 5.3-.8 7.2-.1 3.1 1.2 2.8 1.4 4.1-2.5.9-2.9 1.2-3 8.9-3.8 11.3-1.1 15.3-1 16.8.2.7.6 2 .9 2.8.6 1.2-.5 1.7.4 2.2 3.4.7 4.4 4.7 8.1 8.6 8.1 1.8 0 2.1-.4 1.7-2.2-.4-1.2-.2-2.7.3-3.3.6-.7.5-2.6-.3-5-.9-3.1-.9-3.9.2-4.3.7-.2 2.7-1.8 4.5-3.6 1.8-1.7 4-3.6 4.9-4.1 1.3-.8 1.6-2.8 1.7-9.5.1-4.7-.2-10.5-.5-12.8-.5-2.8-.3-4.8.4-5.5.6-.6 1.1-1.9 1.1-2.9 0-.9.7-2.1 1.6-2.6 1.3-.7 1.4-1.3.5-3-.6-1.1-1.1-3.7-1.1-5.7s-.5-4.6-1.1-5.8c-.7-1.1-2-5.4-3-9.4s-2.8-9.1-3.9-11.3c-1.9-3.7-2-4.6-.9-10.3 1.2-6.3 4.3-11.1 8.1-12.3 1-.3 3-2.8 4.3-5.5 1.7-3.2 3.2-4.9 4.4-4.9 2.7 0 4.2-2.3 4.9-7.7.6-4.1 1.1-4.9 3.7-5.8 3.6-1.2 4.4-2.1 3.8-4.5-.4-1.4.4-1.8 3.6-2.3 5.6-.7 7.8 0 8.5 2.9.7 2.5 2.5 3.1 4.2 1.4.7-.7 1.8-.3 3.4 1.2l2.5 2.3-2.3.3c-1.2.2-2.2 1-2.2 1.8s-1.6 3.1-3.5 5.3c-4 4.4-4.2 5.1-1.6 5.1 1.3 0 2 1 2.5 3.2.9 4.5-2.1 6.2-5.9 3.4-1.6-1.2-1.7-1.6-.6-3 2.3-2.8-2.8-2-5.5.9-1.3 1.4-3.3 2.6-4.6 2.7-1.3 0-3 .1-3.8.2-2.3.2-2.4 3.3-.1 4.1 1.3.4 2.3 1.8 2.7 4 .9 4.9 2.4 5.8 7.4 4.5 2.2-.6 4.3-1.7 4.6-2.5 1-2.5 4.3-2.7 7.9-.5 1.9 1.2 3.9 1.9 4.5 1.5 1.8-1.1 2.8.5 2.1 3.3-.5 2-1.5 2.8-3.7 3.2-1.7.3-3 1.2-3.2 2.3-.4 1.8 5.2 14.7 6.3 14.7 2.2 0 6.6-3.5 7.1-5.6.9-3.5-.3-11.3-2.1-14.1-2-3-1.1-6.7 2.9-11.8 1.8-2.2 3.9-5.2 4.8-6.6 3.1-5 14.8-4.1 14.8 1 0 1.1-1.4 3.3-3.1 5-3.4 3.4-3.3 5.5.5 10.3 1.1 1.5 2.9 3.9 3.9 5.3 1.4 1.9 2.6 2.5 4.4 2.3 2.2-.2 2.9-1.2 4.4-5.8 1-3 1.9-8.4 1.9-12 0-5.8.4-7 3-10.2 1.7-2.1 4.3-4.3 5.7-5 1.5-.8 3.8-3.8 5.8-7.5 1.7-3.5 4.3-7.5 5.8-9 1.5-1.6 4.6-5.4 7-8.5l4.4-5.8.7-12.6c.8-13.6 1.6-17.1 4.3-18.1 5-1.8 3-6.7-5.6-13.7-5.6-4.6-7-6.3-8.2-10.3-1.3-4.4-1.9-5-7.4-7.7l-6-2.9-6.5 1.7c-3.6.9-9 1.6-12 1.6s-9.5 1.1-14.3 2.5c-10.7 2.9-17.2 3.3-21.2 1.3-1.6-.8-5-1.8-7.5-2.1-3.8-.5-5.2-1.3-9.4-5.9-6-6.6-8.6-10.6-8.6-13.5 0-2.6-3.6-6.3-6.2-6.3-1.2 0-1.8.7-1.8 2.3 0 1.3-1.8 4.3-4 6.7-2.2 2.4-4 4.9-4 5.5 0 .5-1.1 2-2.5 3.3-1.4 1.4-2.5 3.8-2.8 6-.3 2.7-.4 2.1-.5-2.1-.1-3.1.2-5.7.8-5.7.5 0 1.3-1.6 1.9-3.5 1.1-4 12.1-15.2 15.8-16.1 3.4-.9 6.6-6.7 5.8-10.4-.4-1.7-.2-3.6.3-4.3.6-.8.4-3.1-.6-6.5-1.8-6.5-4.8-8.2-9.7-5.9-2 .9-3.8 1.1-5.3.6-2.5-.9-6 .1-10.3 3.2-2.8 2-2.8 2-4.5.1-5.6-6.6-6.4-7.2-9.6-7.2-2.7 0-3.7.6-5.1 3-2.5 4.2-5 5.3-8.3 3.8-2.3-1.1-2.8-1-4 .7-.8 1-1.4 2.5-1.4 3.2 0 .7-.8 1.3-1.7 1.3-2.7 0-8 3.6-8.7 5.8-.6 1.8-1.8 2.1-10.7 2.4-7.4.2-10.2.7-10.9 1.8-.5.8-1.2 1.1-1.6.7-1.5-1.5 1.3-2.7 9.9-4 7.5-1.2 9.3-1.9 12.1-4.6 1.7-1.7 4-3.1 5-3.1 1.1 0 3.5-1.6 5.4-3.6 3.1-3.2 3.9-3.5 7.3-3s4 .3 5.9-2.4c1.8-2.5 2.8-3 6.4-3 2.3 0 5.1.7 6.2 1.5 2.8 2.1 4.6 1.8 7-1.2 1.9-2.4 2.5-2.6 4.5-1.6 1.3.6 4.4 1.4 6.9 1.7 2.5.3 6 .8 7.8 1.2 2.9.6 3.2.5 3.2-1.9 0-1.4-1.1-4.2-2.4-6.2-3.9-5.7-6.5-15-8.1-28.9-1.9-16.1-1.4-36.6 1-40.2.9-1.4 1.3-3.3 1-4.3-.3-1.2 0-2.1 1-2.5.8-.3 1.5-1.7 1.5-3.1 0-2.4-.2-2.5-6.5-2.5-3.6 0-8.1-.6-9.9-1.4-3.9-1.6-15.6-9.5-15.6-10.5 0-.4-3.2-3.3-7.1-6.5-3.9-3.2-7.8-7.4-8.7-9.2-2.1-4.6-6.3-4.7-10.9-.2-1.8 1.7-3.5 2.9-3.8 2.6-1.2-1.1.9-4 5-6.8 4.7-3.3 4.8-3.2 11.9 3.4 2.1 2 5.5 4.5 7.5 5.5 2 1.1 5.5 3.9 7.7 6.3 12.7 13.2 18 16.7 23.1 15.2 1.6-.4 5.5-.8 8.7-.8l5.9-.1 3.3-10c1.9-5.4 3.4-11.1 3.4-12.5 0-4.2 6.9-26.9 10.2-33.3 3.3-6.7 9.6-14.7 11.4-14.7.6 0 2.8-1.8 4.8-4 3.3-3.7 3.6-4.5 3.6-10 0-3.3-1.3-14.5-3-25-2.1-13.9-2.7-19.7-2-21.6.6-1.4 1-4 1-5.9 0-3.3.8-5.8 3.4-10.3 1.5-2.7.4-8.8-1.9-10.7-.7-.5-2.1-2.5-3.1-4.4-1.1-1.9-4-6.4-6.6-9.9C523 69.7 520 59.5 522 50.8c1.3-5.3 7.9-16 16.4-26.3 2.3-2.8 5.7-7.1 7.6-9.7 1.9-2.6 4.6-5.2 6-5.7 1.4-.6 3.9-2.2 5.5-3.6 2.9-2.5 2.9-2.6 1.1-4-2.7-2-7.2-1.8-12.2.4zm-59.8 413.7c-.3.8-1.1 1.4-1.7 1.4-.8 0-.9-1.2-.5-3.8 1.3-6.9 2.1-8.1 2.4-3.3.2 2.4.1 5-.2 5.7zM644.3 143.1c-3.5 1.6-5.2 1.8-9.7 1.1-4.8-.8-5.5-.7-5.9.9-.3 1.2-1.9 1.9-5.3 2.4-11.3 1.4-14.6 2.7-17.1 7-3.9 6.5-5.4 10.5-4.8 12.4.7 2.4 5.4 4.6 6.9 3.1.5-.5 1.7-1 2.6-1 2.1 0 8 6.1 8 8.3 0 2.3.6 2.2 8.7-1.8 8.5-4.2 12.3-8.6 12.3-14.2 0-2.2-.5-4.4-1.2-5.1-1.8-1.8-.1-2.9 7.1-4.7 6-1.6 7.5-1.6 11.2 0 1.3.5 2-.2 2.8-2.8 1.6-4.9.7-6.3-4.6-7.1-5.9-.8-6.1-.8-11 1.5zM624.8 179.6c-3.1 1.6-2.8 4.4.4 4.4 4.6 0 7.8-4 4.2-5.4-1.9-.7-1.3-.8-4.6 1zM842.5 534.4c-7.3 2.3-12.1 5.6-35.5 24.1-15.1 12-23 17.3-30.8 20.6-5.2 2.1-6 2.8-4.4 3.3 1.1.4 2.6 2 3.2 3.7 1.5 3.5 5.2 5.3 8.9 4.4 1.3-.3 5.7-2.2 9.8-4.1 4.1-2 8.1-3.4 9-3.2 1.6.3 5 9.5 7.4 20.1.7 3.2 1.6 6 2.1 6.3 1.4.9.9 5.4-.7 6-2.1.8-1.9 2.5 1.5 12.3 1.6 4.7 3.4 11.1 3.9 14.1s1.5 7.5 2.1 10c1.3 5.2 1.2 5.1.7 11-.6 5.1-1.5 8-2.7 8-1.4 0-2 3.1-.9 5.1 1.2 2.3.2 6.2-1.4 5.6-.6-.2-1.4-1.4-1.7-2.8-.8-3.1-4-3.9-4-.9 0 1.6-.5 2.1-2.2 1.8-1.7-.2-2.4-1.1-2.6-3.2-.3-2.7-.2-2.9 2.8-2.3 2.3.5 3.2.3 3.7-.9.7-2-1.3-3.4-5-3.4-2.4 0-2.7-.3-2.2-2.1.6-1.7.3-2-1.2-1.7-1.2.2-1.8 1.2-1.9 2.9-.2 4.6-1.2 5.9-4.4 5.9-2.3 0-3 .4-3 1.9 0 2.6-1 5.1-2.1 5.1-1.7 0 .5-6.6 4.3-12.4 2.1-3.2 3.8-6.7 3.8-7.7 0-2.8 1.1-4.9 2.6-4.9.8 0 1.4.9 1.4 1.9 0 2.7 2.5 3.3 4.5 1.1.9-1 2.7-2 3.9-2.2 1.3-.2 2-.9 1.7-1.8-.2-.8-.4-6.3-.5-12.1-.1-6.5-.6-11.1-1.3-12-.6-.8-1.5-3.8-1.9-6.7-.5-3.9-1.2-5.6-2.8-6.4-1.1-.6-2.4-1.6-2.8-2.2-1.3-2-.8-6.6 1.1-10.4 2.4-4.6 1.3-7.2-2.9-7.2-1.9 0-3.3-.7-4-1.9-1.1-2.1-2.3-2.6-8.6-3.6l-4.1-.6-.6 3.8c-.5 3.1-.2 4.2 1.8 6.3 1.7 1.8 2.5 3.7 2.5 6.3 0 2.6.4 3.7 1.5 3.7 2.5 0 4.5 4.2 3.9 8.2-.8 4.5-4.5 8.1-10.1 9.7-3.1.8-4.3 1.7-4.3 3.1 0 1-.4 2.1-.9 2.4-.5.4-1.2 4.1-1.6 8.4-1.2 15.5-6.3 31.7-8.7 28-.4-.7-.8-2.3-.8-3.4 0-1.2-.7-2.4-1.5-2.8-.8-.3-1.5-1.6-1.5-2.8 0-4.8-1.1-5.3-9.7-4-4.3.7-9.3 1.2-11.1 1.2-5.2 0-3.4-2.4 2.4-3.1 2.7-.4 6.2-1.2 7.7-1.8 1.6-.6 3.9-1.1 5.3-1.1 3.1 0 3.4-3.5.3-4.3-1.7-.5-2-1.1-1.5-3.1.6-2.5-1.9-10.6-3.4-10.6-.4 0-3.7 1.6-7.4 3.5-7.3 3.8-11.6 4.4-13.7 1.9-1-1.3-1-1.7.2-2.5.8-.5 1.9-.9 2.6-.9.7 0 1.8-1.8 2.4-3.9 1.4-4.6 3.4-5.8 5.9-3.6 2.4 2.1 6.7 1.9 8-.4 2.6-4.9-.6-13.8-7.2-20-3.6-3.3-3.8-8.3-.6-10.5 2.9-2.1 5-2 4.6.1-.2 1.1.7 2.1 2.3 2.7 4.4 1.5 5.9.3 5.9-5.1.1-5.3 1.3-7.6 4.8-8.7 1.8-.6 2.2-1.5 2.2-5.1 0-3-.5-4.5-1.6-4.9-1.9-.7-2-.6-10.1 5.2-7.6 5.7-14.3 7.6-19.1 5.6-1.9-.7-3.6-2.3-3.9-3.4-.6-2.3-.9-2.4-6.7-.8-3.6.9-5.7.9-11.7-.5-4.1-.9-9.8-1.9-12.6-2.2-6.9-.8-17.9-5.7-22.7-10.3-2.1-2-3.5-3-3.1-2.2.5.8 1.1 3 1.5 5 .4 2.9 1.3 3.9 5.2 6 2.5 1.4 6.1 3.3 7.9 4.4 1.9 1.1 6 2.1 9.9 2.3 7.8.6 14.1 2.7 17 5.8 2 2.1 2.2 3.2 1.9 10.9-.4 8.1-.5 8.6-3.8 12-2.8 2.9-4.2 3.6-7.3 3.6-2.2 0-5.7.9-7.9 2.1-3.7 1.9-4.2 1.9-5.8.5-1-.9-2.6-1.6-3.6-1.6-1.7 0-1.7.1 0 2 2.3 2.5 3.2 14.3 1.5 19.4-1.2 3.9-5.1 6.6-9.3 6.6-1.2 0-2.8.5-3.5 1.2-.7.7-1.2.8-1.2.3 0-.6-.9.5-2 2.3-1.8 2.9-2.5 3.3-4.8 2.8-1.5-.4-3.4-1.6-4.4-2.6-2.1-2.6-2.5-2.5-3.2.5-.8 3.2-3.4 3.2-4.6.1-1.6-4.4-12.7-4.8-16.5-.6-2.2 2.4-5.6 2.5-15.5.4-7.2-1.5-19.5-1.5-22 .1-.6.4-.1 1.5 1.4 2.6 1.8 1.4 4 1.9 8.6 1.9 6.4 0 10 1.2 10 3.3 0 2.1 9.2 10.4 13.3 12.1 4.2 1.7 4.7 3 1.6 4.7-2.3 1.2-4.4 1-16.9-1.6-9.3-1.9-9-1.9-9 .4 0 2.7 1.5 3.4 8.3 4.2 9 1.1 23.7 9.2 26.6 14.7 2 3.8 4.1 12.1 4.1 16.3 0 4.6-1.7 6-7.4 6.2-3.6.2-4.6.6-4.6 1.9 0 .9-.3 2.3-.6 3.2-.4 1.1.3 1.9 2.2 2.6 2.3.9 3.1.8 4.1-.5.6-.9.9-2.4.6-3.2-.3-.8 1.7.9 4.4 3.9 3.1 3.3 5.3 6.6 5.8 8.8.4 1.9 1.6 5.2 2.7 7.3 1.4 2.9 1.7 4.9 1.3 8.2-.4 2.6-.2 5.7.5 7.8.7 1.8 1 4.5.7 5.8-.7 2.8-7.8 6.9-12 6.9-7.2 0-9.3 6-3.6 10 1.7 1.3 3.4 3.2 3.9 4.5.8 2.1 8.9 8.1 14.5 10.7 2.6 1.1 2.7 1.5 2.2 6-.3 2.6 0 7 .7 9.7.8 3.1.9 5.4.3 6-1.4 1.4 1 5 4.1 5.7 1.5.4 3.2 1 3.7 1.5 1.8 1.4 13.7 3 22.5 3 8.3 0 13.2-1 14.4-2.9.7-1.1 4.4-.5 6.3 1.1.7.5 3.6 1.1 6.5 1.2 6.4.4 14.3 3.6 15.8 6.4 1.1 2.1 5 3 5 1.2 0-2.1-1.3-4.1-2.6-4.1-.8 0-1.4-.2-1.4-.5 0-1.6 3.1-6.3 4.5-6.9 2.7-1 7.3-.7 8.1.5.5.8-.1 1-1.8.6-2.1-.6-2.6-.2-3.6 2.6-1.6 4.5-1.6 4.7 1.3 4.7 1.4 0 2.5-.5 2.5-1 0-.6.7-1 1.5-1 2.1 0 1.9 1.3-.5 2.8-2.3 1.4-2.6 3.5-.7 5 .6.6 3.9 1.2 7.2 1.5 6.4.6 9.5 1.4 9.5 2.7 0 2.5-1.3 3.6-3.8 3.2-1.8-.2-3.6.4-5.1 1.7-2.6 2.2-4.1 2.7-4.1 1.2 0-2.2-3.1-1.9-4.2.4-1 2.1-.7 3 2.4 6.7 1.9 2.4 4 5.3 4.7 6.5.6 1.3 1.9 2.3 2.8 2.3 1.3 0 1.3-.3.3-1.5-2.7-3.2 1-1.3 5.4 2.8 5.4 5 6.5 9.3 1.8 6.8-9.5-5-28.7-11.6-31.8-10.9-1.3.3-.4.9 2.6 1.7 2.5.7 5.2 1.9 6 2.6.8.7 4.1 2.2 7.2 3.3 9.5 3.5 16.7 8.1 19.4 12.4 1.4 2.2 3.8 4.4 5.5 5 2.1.7 2.9 1.6 2.9 3.3 0 1.3.6 2.5 1.3 2.8.8.3 1.3-.4 1.2-2.2 0-2.1.5-2.7 2.9-2.9 4.6-.6 7.5.6 9.1 3.8 1.8 3.4 9 7 14.1 7 2.5 0 4.5-1 7.4-3.6l4-3.6V897.5l2.6-3.2c2.9-3.7 5.3-4.2 7.7-1.5 2.2 2.4 2.1 3.2-.2 3.2-1.1 0-3.2 1-4.7 2.3-2.2 1.9-2.6 2.9-2 5 .4 1.6 1.4 2.7 2.4 2.8 1 0 .6.4-1 1.1-2.3.8-2.8 1.6-2.8 4.3 0 2-.6 3.5-1.5 3.9-3 1.1-1.4 2.6 2.8 2.6 2.9 0 3.8.3 2.8.9-1.2.8-1.3 1.4-.3 3.6 1.2 2.6 1.6 2.7 6.7 2.3 2.9-.3 6.1-1.1 7-1.8.9-.8 4.5-5.3 8.1-10 4.8-6.5 7.7-9.4 11.5-11.4 4.7-2.6 5.6-2.8 12.7-2.1 4.7.4 9.8 1.6 13.1 3.1 6.6 3 12.6 3.2 14.1.5 1.7-3.3 1.1-7.5-1.7-13.1-2.3-4.4-3.4-5.6-6.2-6.3-1.8-.4-4.4-1.5-5.7-2.4-1.7-1.1-6.7-1.8-16.2-2.5l-13.7-.9-4-4.5-4-4.5-2.4 2.5c-2.7 2.9-2.2 4.1 2.5 6.1 2.7 1.1 3.4 1.9 3.4 4.2 0 1.6-.5 3.4-1 3.9-.8.8-.7 1.9.1 3.8 1.4 3.1 1.8 2.8-5 4.8-4.7 1.5-5.7 1.5-8.1.3-4-2.1-6.2-4.5-5.6-6.2.3-.8-.5-4.1-1.9-7.3-1.4-3.3-2.5-6.6-2.5-7.5 0-.8-.6-1.5-1.4-1.5-2.4 0-3.5-6-1.7-8.9.6-1 1.3-1 2.8-.2 2.6 1.3 5.3-1.3 5.3-5.2 0-1.5.5-2.7 1-2.7.6 0 1-.8 1-1.8 0-3.9-8.7-8.6-11.5-6.2-2.2 1.8-13.5.3-14.2-1.9-.4-.9-1.2-2-2-2.4-1.7-1.1-1.6-3.8.3-6.5 1.2-1.8 2.5-2.2 6.4-2.2h5l-1.6 4.1c-2.1 5.2-1 8.1 2.5 6.8 2.2-.9 2.3-1.3 1.6-6.5l-.7-5.6 7.7-7.4c4.2-4.1 8.4-7.4 9.3-7.4.9 0 3.6-1.1 5.9-2.4 3.9-2.3 5-2.4 13.3-1.9 7.6.5 9 .4 9-.9 0-2.1 3.2-4.8 5.7-4.8 1.1 0 2.8-1 3.9-2.1 1-1.2 2.9-2.5 4.2-3 3-1.1 4.4-5.1 3.1-8.6-.5-1.4-.7-4.5-.4-6.7.8-5.4-.4-8.4-7-16.5-5.7-7-9.4-9.1-16.3-9.1-1.7 0-3.3-.4-3.6-.9-.3-.4-2.6-1.4-5-2.1-2.5-.7-6.3-2.8-8.5-4.6-3.4-3-4-4-4.3-8.6-.6-6.5 3.7-21.2 8.1-27.7 2.7-4.1 14.3-14.1 16.3-14.1.5 0 2.9-1.9 5.3-4.1 4.3-3.9 4.8-4.1 9.5-3.7 2.8.3 5.8 1.2 6.8 2.2 1 .9 3 1.6 4.5 1.6 2.4 0 2.6-.4 2.5-3.4-.2-4.7 2.5-8.6 5.9-8.6h2.7l-2.8 2.9c-1.9 2-2.8 4-2.8 6.3 0 4.5 2.6 10.5 4.9 11.2 1 .3 2.3 1.6 2.8 2.8 1.5 3.4 8.2 2.9 11.1-.8 1.2-1.4 3.9-3.4 6.1-4.4 3.4-1.5 4.1-2.3 4.6-5.6 1.1-6.5.8-8-2.3-11-2.2-2.2-3-3.8-3-6.6 0-5.1-4.2-12.8-6.2-11.7-3.7 2.1-6.3-8.9-3.8-15.7 1.4-3.6 1.5-11.8.1-18.5-.5-3-1.5-8.3-2.2-11.9-.6-3.5-3-10.6-5.4-15.6-4.1-8.7-4.3-9.6-3.8-16.1.8-9.5 4.7-17.7 10.6-22.3 4.6-3.6 5.7-5.4 5.7-10.2 0-2-1.5-4-6.4-8.3-6.6-5.8-11.3-7.8-27.9-12-3.8-1-8.1-2.8-9.6-4.1-1.6-1.3-4-2.8-5.5-3.4-4.4-1.6-13.5-1-21.1 1.4z"/><path d="M541.7 576.2c-3.7 3.6-3.8 3.9-3.5 10l.3 6.3 3.5.5c1.9.3 5 1.6 6.8 2.9 3.7 2.8 4 5.1 1.7 12.8-1.2 4.2-2.1 5.4-5 6.7-6.6 3.2-8.1 10.5-4.7 24.3l1.7 7.3 5.3.2c2.8.1 5.9.2 6.9.2 2.5.1 5.8-11.8 4.3-16.1-.9-2.7-.8-3.9 1.1-7.5 1.2-2.4 3.5-5.9 5-7.9 3.8-4.9 3.8-7 0-6.3-3.5.7-8.6-1.8-9.4-4.4-.6-2.5.2-3.8 3.1-4.6 3.3-1.1 2.7-2.3-2.5-4.8-5.9-2.8-8.9-7.8-10-16.8l-.9-6.5-3.7 3.7zM638 600.4c0 .8 1.8 2.8 3.9 4.6 2.2 1.7 4.3 4 4.6 5 .4 1.1 1.2 2 1.8 2 .7 0 3.9 1.4 7.1 3 3.2 1.6 6.3 2.7 6.8 2.4 1.4-.9.9-2.2-1.2-2.9-1.2-.4-4.2-2.6-6.8-5.1-2.6-2.4-6.1-5.7-7.9-7.4-3.4-3.1-8.3-4.1-8.3-1.6zM498.9 643.9c-1.9 3.5-2.7 4-6.2 4.3-3.9.3-7 2.8-5.4 4.5.5.4 2.8.8 5.2.8 2.4 0 4.7.3 5.1.7 1.9 2 4.1.6 5.2-3.1 1.5-4.9 1.5-7.2-.2-9.4-1.3-1.7-1.6-1.5-3.7 2.2zM176.7 824c-2.7 2.1-3.7 5.4-4.2 13.3-.1 2.3-.6 7.8-1 12.2-.7 7.5-.6 8.4 1.9 13.3 1.5 2.9 3.3 5.5 4.2 5.9 1.9.7 7.4-1.6 7.4-3.1 0-.6.9-1.9 2-2.9 2.1-1.8 2.7-6.1 1-7.2-.6-.4-.7-2.3-.4-4.4.4-2.2.1-4.8-.6-6-.9-1.8-.9-2.6.3-3.9 2.5-2.9 5.8-11.6 5.3-13.7-.4-1.5-2.1-2.6-6.1-3.8-6.9-2.1-6.7-2.1-9.8.3zM608.9 840.8c-1.5 2.1-3.2 5.5-3.8 7.5-.7 2-1.7 3.9-2.2 4.2-.5.4-.9 2.7-.9 5.2 0 3.4-1.1 6.8-4.3 13.2-2.4 4.7-4.9 10.7-5.6 13.3-1 3.6-2.2 5.3-5.2 7.2-2.1 1.4-4.3 2.6-4.8 2.6-.8 0-3.6 3-9.1 10.1-3.1 4-7 11.5-7 13.5 0 .9 1.1 1.4 3 1.4 2 0 3.3.6 3.7 1.7.4 1 1.1 2.1 1.7 2.5 1.4.9-1.2 3.8-3.5 3.8-1 0-2.1-.5-2.4-1-1.4-2.2-3.3-.8-3.9 2.7-.4 2.1-1.2 5.3-1.8 7.2-1 3.3-1.1 3.3-5.4 2.7-2.6-.3-4.4-.2-4.4.4 0 1 .7 1.7 6.3 6.8 4.2 3.7 6 10.8 5.1 20.2l-.7 8h4c2.7 0 4.6-.6 5.8-2 2-2.3 7.5-18 7.5-21.7 0-2.5 3.4-11.3 7.9-20.3 1.8-3.6 3.2-8.5 3.9-14 1.2-9.6 3.7-16.2 8.8-23.3 2.3-3.2 3.9-6.8 4.6-10.6.5-3.1 2.1-9 3.4-13.1 1.3-4.1 2.4-8.9 2.4-10.7 0-1.7.9-5.3 2-7.9 1.6-3.7 1.9-5.6 1.2-8.8-1-5.3-3-5.5-6.3-.8zM713.5 892c-1.7 1.9-1.7 2.1-.2 3.3 1 .6 2.8 3 4.1 5.2l2.4 4 .7-2.8c.4-1.5 1.9-3.7 3.4-4.8l2.6-2.1-2.8-2.4c-3.4-2.9-7.8-3.1-10.2-.4zM481 897.9c0 1.4 6 10.1 7 10.1.5 0 1 .8 1 1.8 0 3 8 13.2 11.8 15 2.3 1.1 3.9 2.8 4.6 4.9 1 2.7 14.2 16.2 15 15.2.1-.2 1.2-1.8 2.4-3.5 1.9-2.7 2.9-3.2 8.2-3.7 7.2-.8 8-1.2 8-3.8 0-2.7-9.3-11.9-12.1-11.9h-2.2l2.3 2.5c1.9 2.1 2.1 2.5.7 2.5-.9 0-1.7.4-1.7 1 0 2.5-3 .7-4-2.4-.6-1.9-1.7-3.7-2.5-4-.8-.3-1.5-1.2-1.5-1.9 0-.8-.9-2.2-1.9-3.1-1.9-1.7-1.9-1.7-1.4.3.3 1.1.3 2.8-.1 3.7-.5 1.4-.9 1.3-3.5-.5-1.6-1.2-3.6-2.1-4.4-2.1-.9 0-1.8-.8-2.1-1.8-.3-.9-2.4-2.7-4.6-4-2.5-1.4-4-3-4-4.2 0-1.3-.7-2-1.9-2-1.9 0-8.1-5.3-8.1-7 0-.4-1.1-1-2.5-1.2-1.4-.3-2.5-.2-2.5.1zM696.4 899.9c-.4 1.7-1 2.8-1.4 2.6-.5-.3-2.3-.7-4-.9-2.9-.3-3.1-.2-2.5 2.1.5 2.1 6.1 8.3 7.5 8.2.3 0 1.4-1.4 2.5-3.2 1.6-2.5 2.8-3.3 5.8-3.5 2.8-.2 3.7-.8 3.7-2.1 0-2.5-3.6-5.5-5.5-4.7-.9.3-2.5.1-3.6-.4-1.7-1-2-.7-2.5 1.9z"/><path d="M756.8 899.1c-1 .5-1.8 2.1-1.8 3.4 0 1.4-.6 2.5-1.3 2.5-.8 0-2.2.9-3.1 1.9-1.7 1.9-1.7 2 2.1 2.3l3.8.3v6.1c0 3.4.6 6.7 1.2 7.6 1.7 2 .7 2.8-3.4 2.8-3.5 0-9.2-3.7-13.9-9-1.7-1.9-2.5-2.2-3.4-1.4-.8.8-.9 1.8-.2 3 .5 1.1 1.2 4.2 1.6 7 .6 4.7.5 5.1-1.9 6.2-1.5.7-4.4.9-7 .5-5.4-.7-6.6 1-3.9 5.3l1.8 2.7-7.4-.7c-4.1-.4-7.7-1.1-8-1.5-.3-.5-1.5-1.2-2.8-1.6-1.8-.5-2.2-1.3-2-3.3.3-2.3-.1-2.7-2.6-3-1.6-.2-3.8-1.3-5-2.4-1.1-1.1-3.5-2.6-5.2-3.4-3.9-1.6-5.5-3.6-6.3-7.6-.5-2.3-1.7-3.7-4.6-5.3-2.2-1.3-5-3.8-6.3-5.6-2.8-4-4.9-4.7-16.3-5.4-7.7-.4-8.9-.3-11.3 1.6-1.4 1.1-2.6 1.6-2.6 1 0-.6-.7-.8-1.5-.5-.8.4-1.5 1.2-1.5 2 0 .9-1.2 1.4-3.4 1.4-2.6 0-4.5 1-8.5 4.6-4.8 4.3-5.1 4.9-5.1 9.3 0 5 2 8.1 5.2 8.1 1.1 0 1.4.6 1.1 1.9-.3 1.4.2 2 2.2 2.5 2.1.5 2.5 1.1 2 2.7-.9 2.6 1.2 5.1 3.6 4.4 2.6-.8 2.5 1.7-.1 4-1.7 1.5-2.2 1.6-3.6.4-1.5-1.2-1.6-1.1-1 1.9.7 3 .6 3.2-1.8 3.2-1.7 0-2.6-.6-2.6-1.5 0-1.7-3.8-3.5-7.2-3.5-1.8 0-1.9.2-.7 1.6 1.1 1.4 1 1.8-.6 3-1 .8-2.4 1.4-3.1 1.4-1.4 0-3.6-7.8-2.3-8.6 1.7-1 .9-3.4-1.1-3.4-3.4 0-2.5 5.8 2.2 15 5 9.6 7.3 11.2 22.5 15.9 5.6 1.7 13.5 4.7 17.5 6.6 4 1.9 8 3.5 9 3.5s2.5 1.1 3.4 2.6c.9 1.4 2.9 3.1 4.5 3.9 1.5.8 3.7 3 4.9 4.9 1.2 2.1 4.5 4.9 7.8 6.7 3.1 1.8 7.4 4.7 9.5 6.6 2 1.8 4.1 3.3 4.6 3.3.4 0 2.5 1.3 4.6 3 2.7 2.1 4.8 3 7.4 2.9h3.6l-4.7-1.5c-7.3-2.2-6.1-7 2.7-10.9 2.9-1.3 5.5-2.7 5.6-3.2.2-.4 2.2-1.7 4.4-2.8 3.1-1.5 5.2-1.9 9.2-1.5 2.9.3 5.4.2 5.6-.3.1-.5 2.9-.3 6.2.3 3.3.7 7.8 1.5 10 1.9 2.2.4 5 1.4 6.2 2.1 1.9 1.2 2.7 1.2 5.8-.3 2-1 3.5-2.3 3.3-2.9-.3-.7.3-2.1 1.3-3.1 1-1.1 1.5-2.5 1.2-3.3-.3-.8 0-1.4.6-1.4 2.3 0 1-3-1.9-4.5-3.9-2-3.8-3.5.8-7.2l3.8-3 3.2 2.6 3.2 2.7-3 4.2c-2 2.6-3.3 5.8-3.6 8.9-.6 4.3-.2 5.7 4 13.5 2.9 5.6 4.6 10 4.6 12.3 0 3.2.4 3.7 4.9 6 3.8 1.9 5 2.1 5.4 1.1.3-.7.1-8-.5-16.2-1.4-21.1-1.1-22.5 5.1-28.8 3.6-3.6 5.6-6.8 6.6-10 1.9-6.2 7.5-13.7 11.9-16.1 2.4-1.3 4-3.1 4.7-5.3.8-2.3 2-3.7 4-4.4 4.1-1.4 3.9-5.3-.6-10.2-1.9-2.1-3.7-4.5-4-5.5-.9-2.9-6-5-13.6-5.7-9.6-.9-10.6-1.5-11.4-6.9-.8-5.2-2-6.4-6.9-7.2-3.1-.5-3.6-.3-3.6 1.4 0 2.5-2.2 4.5-4.2 3.8-.8-.3-2-2.1-2.7-4-1.1-3-7-8.5-9.2-8.5-.4 0-1.7 1.6-2.9 3.7l-2.1 3.6-4.2-4.1c-4.7-4.6-4.5-4.5-6.9-3.1z"/><path d="M809 906c-.8.5-2.7 1-4.2 1-2.1 0-2.8.5-2.8 1.9 0 1.1.6 2.3 1.3 2.8 1.6 1 12 3.2 12.9 2.7 1.4-.9 2-6.5.8-7.9-1.4-1.7-5.8-1.9-8-.5z"/></svg>
