<svg version="1.0" xmlns="http://www.w3.org/2000/svg" width="1365.333" height="1365.333" viewBox="0 0 1024 1024"><path d="M843.9 6.7c2 2.4 2 2.7.5 4.5-1.4 1.5-3.2 1.8-10.8 1.7-14-.1-18.5-1.1-21.9-4.9-2.7-3-3.2-3.2-7.5-2.6-3.7.5-5.4 1.4-8.2 4.3-1.9 2.1-5.3 4.6-7.5 5.6-14 6.5-36.7 12.7-46 12.7H738v-3.9c0-4.2-.1-4.3-6.8-5.6-1.8-.4-15.8-1.7-31.2-2.9l-27.9-2.2-5.2 3.9-5.1 4-14.8-.7-14.8-.7-9.9 6.5c-10.9 7.3-15.5 8.4-20.3 4.6-3.2-2.5-5-2.5-13 .1-3.6 1.1-11.2 2.4-17 3-39.8 3.6-75.1 17.9-88.8 35.9-3 3.8-6 7-6.6 7-2.7 0-8.2-2.4-10.6-4.6-3.5-3.2-8.1-2.1-9.3 2.3-1.1 3.8-5.4 5.3-13.5 4.6-5.7-.5-5.8-.5-14.2 5.4-7 4.8-8.6 6.5-9.5 9.5-.6 2.1-1.5 4.2-2.1 4.8-.5.5-5.7 2.6-11.4 4.5-8.4 2.8-11.9 3.5-18.3 3.5h-7.8l6.3 7.5c11.2 13.3 10.4 11.9 8.3 15.8-1.7 3.3-1.7 3.6 0 8.6l1.9 5.1-2.9 3-2.9 3 2 8.9 2 8.9-2.2 4.4c-1.7 3.2-2.3 6-2.4 10.9 0 5.2-.4 7-2 8.4-1.9 1.7-1.9 1.8 1.7 6.2l3.6 4.4-3.1 7.1-3.1 7 4.4 5.8c4.9 6.4 5 6.9 3.4 11.5-1 2.7-.8 3.9 1.5 9.1 2.4 5.3 3.6 6.6 11.6 12.2 5 3.5 9 6.7 9 7.1 0 .4-2.6 2-5.9 3.5-5.3 2.6-5.9 3.2-6.8 7.1-.9 4-.8 4.6 1.4 6.8l2.4 2.4-2.8 1.8c-2.7 1.8-3.1 1.8-21.8-1.3-15.6-2.7-21.7-3.2-33.7-3.2-11.2 0-14.8.3-14.8 1.2.1.7.7 4.2 1.5 7.8.7 3.6 1.2 6.6 1 6.8-.2.2-7.6 1.8-16.5 3.5l-16.2 3.2-3.2 9.2-3.2 9.1 4.2 4.9 4.2 4.8-1.9 4.8c-1 2.6-1.9 5.8-1.9 7.1 0 2.6-2.9 3.6-10.2 3.6-2.3 0-8.2 1.8-14.6 4.4-9.7 4-11.9 4.5-24.2 5.5l-13.4 1.2-6.6 4.9c-4 2.9-10.4 6.4-15.9 8.4-5 2-14.5 6.7-21.1 10.6-11.9 7-12 7.1-12 10.8 0 3.2-1 4.8-7.6 11.9-4.2 4.6-7.9 8.3-8.2 8.3-.4 0-1.7-1.5-3-3.4-2.1-3.1-2.7-3.4-9.3-4-10.4-.9-43.3 1.1-49.6 3.1l-5.3 1.6-8.7-3.7-8.8-3.7-3 3.7c-1.6 2.1-3.7 4.7-4.6 5.8-1.4 1.7-2.8 1.9-10.7 1.9-8.9-.1-9.2 0-9.2 2.2 0 1.7-1.6 3.3-6.3 6.2-3.4 2.2-11.9 9.4-18.8 16.1-11.7 11.3-13.1 12.3-17.4 12.9-2.6.3-4.8 1.1-5 1.7-.4 1.2-9.5 71.3-9.5 73.2 0 1.6 51.9 48.1 59.5 53.5 6.8 4.7 19.2 14.4 47.5 36.8 10.7 8.6 34.1 26.3 52 39.4 17.9 13.1 84.3 63.1 147.7 111 103.2 78.2 115.2 87.5 115.5 90.2.3 2.6 3.3 5.1 28.3 22.6 31.6 22.2 28.8 18.7 27.2 33l-.7 6.6 11.4 4.7 11.5 4.8 1.3 5c1.1 4.4 2.2 5.9 8.1 10.9 3.7 3.3 7.1 5.9 7.5 5.9.4 0 2.9-.8 5.6-1.7l4.9-1.8 3.6 4.5c7.6 9.5 7.5 9.4 21.6 12 12.1 2.1 13.4 2.6 18.3 6.4 5.8 4.5 5.9 4.9 4.4 18.8-.6 5.1-1.5 7.7-3.9 11-1.6 2.4-3.6 6-4.3 8.2l-1.2 3.8 4.3 3.9c2.4 2 5.3 4.3 6.4 4.9 1.6.8 14.8-1.9 66.3-13.9 55.2-12.8 64.7-15.2 67-17.3 1.5-1.4 20.8-19.2 42.8-39.6l40.1-37.1 115.4-73.2c63.5-40.2 115.6-73.3 115.7-73.4.2-.2-2.7-9.2-6.5-20l-6.8-19.6-4.2.6c-4.1.6-4.5.4-16.9-8.9l-12.7-9.6H967c-5.4 0-11.8-.3-14.3-.6l-4.7-.7-5.5-10.4-5.5-10.4v-21.5l-14.5-24.8c-8-13.7-14.5-25.1-14.5-25.3 0-.3 1.8-2.8 4.1-5.6 3.4-4.3 5.3-5.7 11.7-8.2 7-2.8 7.9-3.5 10.5-8 3.4-6.1 3.2-10-1.3-28.2l-3-12.2 4.2-7.7c2.5-4.7 5.1-11.5 6.4-17.1l2.3-9.4-2.1-9.3-2.2-9.4 3.3-12.2c3.6-13.7 3.7-10.8-.6-41l-2.5-18.5-6.9-13.5c-3.7-7.5-7.1-15.4-7.4-17.5-.6-3.8-.5-4.1 3.4-6.5 2.3-1.4 4.1-2.8 4.1-3.3 0-1.2-13.9-94.9-14.6-97.9-.4-2-4.5-5.7-17.4-15.3-15.6-11.6-17-13-17.5-16.3-.4-2.1-.9-5.1-1.1-6.7-.3-1.7-2.2-6.7-4.2-11.3-3.6-8.2-3.7-8.3-10.8-12.2l-7.1-3.9-4.6-12.3c-7-18.4-8.3-24.7-6.7-31.5 1.8-7.1 4.2-10.1 9.3-11.4 3.5-.9 4.6-1.8 6.9-5.9 2-3.6 4.5-6 9.5-9.3 3.7-2.4 8.6-6.3 10.7-8.5l4-4.1-1.2-5c-1-4.5-.9-5.6.9-9.8 1.1-2.7 3.9-7.2 6.1-10.1l4-5.4-3.3-3.4c-3.3-3.4-3.3-3.5-1.7-6.7 3.6-7.1 3.8-9.3 1.6-15.9-1.9-5.6-2-7-1-14.3.6-5 2.5-11.6 4.7-16.9 2-4.9 3.5-8.9 3.3-9.1-.2-.1-2.5-1.4-5.2-2.7l-4.9-2.5 6.1-4.2c5.1-3.4 6.2-4.7 6.2-6.9 0-2.4.8-3.2 5.5-5.5 5.2-2.5 5.4-2.8 4.3-5.2-1-2.2-1.7-2.5-6.7-2.5-3.1-.1-7.6-.5-10.1-1-4.1-.8-5-.5-10.7 2.6-3.4 1.9-7.4 3.4-9.1 3.4-2.4 0-3.1-.5-3.8-3.3-.9-2.9-1.4-3.3-5.5-3.7-2.4-.3-5.8-1.5-7.5-2.7-1.7-1.2-6-2.7-9.5-3.2-9.2-1.5-9.4-1.5-7 1.6z"/></svg>
