<svg version="1.0" xmlns="http://www.w3.org/2000/svg" width="1365.333" height="1365.333" viewBox="0 0 1024 1024"><path d="M632 1.5c-1.4.8-3.9 1.4-5.6 1.5-1.7 0-3.7.7-4.5 1.6-.7.8-2.6 2.2-4.3 3.1-1.7.8-4.7 3.3-6.7 5.4-4.5 4.8-8.7 5.2-14.3 1.4-5.5-3.7-8.8-3.3-12.9 1.5-1.9 2.3-4.9 6.9-6.8 10.3-1.8 3.4-4.9 7.8-7 9.8-2.8 2.8-3.8 4.7-4.2 8-.7 5.8-3.9 18-8.3 31.3l-3.6 10.9.7 12.7.7 12.7-3.2 5.7c-3 5.2-3.6 5.7-6 5.2-2.3-.4-3.6.3-7.3 3.9-3.8 3.6-5 5.7-6.8 11.7-2.8 9.6-4.3 11.8-7.7 11.8-2.9 0-6.9-3.4-9-7.6-.7-1.4-2.8-2.4-6.4-3.3-8.5-1.9-13.6-4.6-15.9-8.6-1.2-1.9-2.9-4-3.9-4.5-1.5-.8-2.1-.2-3.9 4-1.1 2.7-2.1 5.3-2.1 5.9 0 .6-1 1.1-2.2 1.1-3.5 0-11 3-14.9 6.1-4.1 3.1-4.9 2.9-4.9-1.3 0-2.7-.1-2.8-5.6-2.8-5.9 0-9.1-1.2-11.2-4.2-1-1.4-2.6-1.8-6.8-1.8H432v-4.8c0-2.7-.7-7.1-1.6-9.8-.8-2.7-2.1-7.2-2.9-9.9-1.3-4.9-10-26.9-12.4-31.2-1.9-3.6-8.1-6.3-12.2-5.4-4.5 1-8.9 3.4-11.3 6-1.6 1.7-1.8 3-1.3 8.3 1 9.9-1.1 10.9-7.7 3.9-2.8-2.9-3-2.9-5.7-1.5-2.4 1.2-4.9 4.1-4.9 5.8 0 .2 1.8 1.5 3.9 2.7 4.2 2.4 5.1 4.1 5.1 10.6 0 4.1.1 4.3 3 4.3 4 0 8.7 3.5 10 7.6.6 1.8 2 3.6 3 3.9 1.4.4 2 1.7 2.2 4.8.3 3.6.9 4.6 4.8 7.5 2.6 2 4.8 4.6 5.3 6.3.6 2.4 1.2 2.8 3.1 2.3 2.9-.7 4.4 1.1 4.8 6.1.3 3.5.7 4 3.3 4.6 1.7.3 7.7 2.9 13.5 5.7 8.7 4.2 10.8 5.7 12.4 8.7 1.1 1.9 3.1 4.1 4.5 4.8 4.2 2 7.2 7.4 6.5 11.6-.4 2-.7 4-.8 4.6 0 .5 1.5 1.4 3.4 2.1 3 1 3.6 1.8 4.4 5.3.6 2.8 1.8 4.8 3.8 6.2 2.3 1.7 2.8 2.8 2.8 6.2 0 2.6-.7 4.8-1.9 6.1-2.8 3-4.7 20.9-3 27.8 1.1 4.7 1 5.1-1.4 7.6-1.3 1.5-2.7 3.9-2.9 5.4-.5 2.5-.2 2.8 2 2.8 4 0 9.2 4 9.1 7-.1 1.4.4 3.8 1 5.4 1.5 3.7-.2 6.4-4.9 8-3.3 1-3.5 1.4-3.4 5.1.1 3.6 4.9 18.9 12.4 39.7 1.6 4.4 2.4 8 1.9 8.5s-1.5 3.1-2.3 5.9c-2.6 9.2-6.4 16.6-10.7 21-3.8 3.9-4.2 4.7-3.1 6.4 1.6 2.7 1.5 5-.4 7.1-1.2 1.3-1.3 2.2-.5 3.8.6 1.1 1.1 3.5 1.1 5.4 0 2.7 1.2 4.7 6.5 10.5l6.5 7.3v7.5c0 6.1.4 8.2 2.1 10.5 2 2.8 2 3.4.9 15.7-.6 7-1.5 14.4-1.9 16.6-.5 2.1-.7 6.2-.4 9.2.5 4.9.7 5.3 1.9 3.5 2-2.8 4.4-15.1 4.5-22.9.1-3.7.4-7.7.7-8.9.7-2.1.9-2 6.2 2.4 8.8 7.3 13.7 10.3 16.7 10.3 2.1 0 4.6 1.7 10.1 7.2l7.3 7.2-.5 14c-.3 9.3-1 15.5-2 18.1-2.3 6-2 7.7 2.4 12 4.3 4.2 4.9 6.5 2.5 8.5-1.2 1-2.1 1-4.1.1-3.3-1.5-3.4-1.5-3.4 1.2 0 1.7.9 2.6 3.4 3.5 6.7 2.4 5.6 9.2-1.4 9.2-3.3 0-4-.3-4-2 0-2.9-5.5-3.5-13.1-1.4-7.3 1.9-11.3 5.2-19 15.5-4.4 5.9-4.9 7.2-4.9 11.7 0 6.1-.9 7.1-12.1 13.6-7.8 4.6-7.9 4.7-7.9 8.7 0 4.9-4.4 11.5-10.1 15.3-2.1 1.4-5 4.5-6.4 7-1.4 2.4-3.4 4.6-4.4 4.9-1.2.3-2.3 2.4-3.6 6.9-1.5 5.7-2.2 6.8-5.4 8.6-2 1.1-4.6 3.4-5.9 5.1-1.2 1.7-2.6 3.1-3 3.1-.4 0-1.7-1.8-3-4-2.5-4.5-2.8-4.6-7.9-2.5-1.9.8-4.6 1.5-5.9 1.5-2.1 0-2.4.5-2.4 3.5 0 3.5 0 3.5 4.5 3.5 3.8 0 4.7.4 5.6 2.4.8 1.7.8 2.9 0 4.5-1 1.9-2 2.1-8.7 2.1-7.4 0-7.5.1-8.5 2.9-.6 1.6-2.7 4.2-4.8 5.9-3 2.4-3.7 3.6-3.4 5.5.3 1.7-.4 3.5-2.7 6.1-3.2 3.6-3.2 3.7-2.1 9.5 1.3 6.7.8 8.7-2.8 11.8-3.4 2.9-10.1 3.1-12.5.4-.9-1-3.4-2.1-5.4-2.4-4.7-.8-15.7 1.6-18.2 3.8-1.8 1.6-1.8 2-.5 4.6.8 1.5 1.5 3.9 1.5 5.3 0 3-12.8 25.7-16.9 30.1-1.9 2-3 4.5-3.4 7.4-.3 2.7-1.5 5.3-3.1 7-2.4 2.5-2.5 2.8-.9 4.4 2 2 1.9 8.9-.3 18.4l-1.4 6.2 3 4.3c1.6 2.4 3.6 6.8 4.3 9.8 1.3 5 1.2 6.1-.7 13.6-2.5 9.4-1.9 14.6 2.6 22.4 4.5 7.7 5 13.5 2 25.8-2.2 9.3-2.5 12.5-2.3 24.8l.3 14.1-3.1 5.5c-1.7 3-3.1 6.4-3.1 7.6 0 1.8-.6 2.2-3.4 2.2-3 0-3.5.4-4.1 3-.4 1.6-1.1 3.2-1.6 3.5-1.5 1-1.1 11.8.6 14.1.8 1.2 1.9 4.8 2.4 8l.9 5.9-4.4 4.5c-2.4 2.5-4.4 5.1-4.4 5.6 0 .6 1 2.4 2.1 3.8 1.9 2.4 2 2.9.7 4.2-2.1 2.2-1.1 6.4 1.9 7.5 3.1 1.2 4.3.4 4.3-2.6 0-2.9 1.6-4.1 2.4-1.9.9 2.3 6.8 1.2 11.1-2.1 3-2.2 7.5-3.4 7.5-2 0 .3-.9 2.3-2 4.5-2.5 4.9-2.5 5.1.3 4.1 3-1.2 7.3.7 11.4 5 4.1 4.4 5.5 8.1 4.3 11.5-2.1 5.6-1.3 8.7 3.8 13.7 2.6 2.6 5.5 4.7 6.5 4.7s1.7.8 1.7 2c0 1.3-.7 2-2 2-1.5 0-2 .7-2 2.6 0 4.3 2.2 10.4 4.1 11.5 1 .5 1.6 1.5 1.3 2.2-.2.7 1.5 2.3 4.2 3.7l4.6 2.5 1.7-2.5c3.7-5.5 10.3-13 11.5-13 1.9 0 5.6 4.4 5.6 6.7 0 1.2-1.1 3-2.5 4.1-1.4 1.1-2.5 2.7-2.5 3.6 0 2 3.8 2.2 4.6.2.7-1.8 4.2-.9 5.4 1.5.9 1.5.5 1.9-2.4 2.4-2.8.6-3.6 1.4-4.9 4.6l-1.5 3.9h5.2c4.7 0 5.6-.4 10.1-4.5 2.8-2.5 5.7-4.7 6.5-5 2.8-.8 26.5-5.3 34.5-6.5 4.4-.6 9.6-1.8 11.6-2.5l3.7-1.4.6 3.4c.7 3.4.9 3.5 5.1 3.5 3.5 0 4.5-.4 4.5-1.6 0-.9.8-3.8 1.7-6.4 1.6-4.5 2-4.9 6.7-6.2 3.9-1 5.1-1.8 5.6-3.7l.6-2.4 1.6 2.5c2.6 3.9 7.1 4.5 11.3 1.6 2.2-1.4 3.5-3.1 3.5-4.5 0-2.5 1.4-2.9 15-3.8 8.2-.6 10.3-.4 14.7 1.4 6 2.3 7 1.8 7.5-4.4.2-3.3.7-4.1 2.6-4.3 1.4-.2 2.9.4 3.6 1.3 1.1 1.6 1.5 1.4 3.9-1.4 3.1-3.7 7-4.1 10.3-1 1.8 1.7 2.9 2 5.1 1.3 2.6-.7 2.6-.8.6-1.1-2.7-.5-2.7-.6-.8-4.3 1.4-2.8 1.5-2.8 6.2-1.6 4.7 1.2 5 1.2 15.1-3.6 12-5.6 19.2-6.4 26.2-2.8 3.6 1.8 4.6 1.9 11 .9 3.9-.7 7.2-1 7.4-.8.9.9-3 14.6-5.2 18.5-3.4 5.8-8.3 7.2-28.7 8.3l-11.9.6 2.8 1.9c3.6 2.3 16.1 4 24.6 3.2 6.4-.6 6.5-.6 13.6-7.7 6.1-6 7.5-8.2 9.3-13.5 1.2-3.6 2.1-8.4 2.1-10.8 0-6.5 3-12.4 9.3-18.3 3-2.9 7.2-8.2 9.2-11.9 2-3.6 6.3-9.3 9.4-12.6 5.2-5.6 6.3-6.2 10.7-6.7l4.9-.6.6-4.6c1.4-9.5 7.5-17.9 14.9-20.4 4.8-1.6 10-6.2 10-9 0-1.6 7.9-12.6 13.6-18.7 2.4-2.6 4.4-5.6 4.4-6.7 0-1.1 1.3-3.5 2.9-5.3 1.6-1.8 3.1-4.7 3.5-6.4.4-1.6 2.7-5.3 5.1-8.1 2.8-3.1 4.5-6.1 4.5-7.6 0-1.6 1-3.1 2.8-4.4 6.2-4 15.2-15.2 19.3-24 3.3-6.8 6-10.6 12.4-17.4 7.4-7.8 13.3-15.3 18.9-24 2.1-3.5 9.6-25.1 9.6-28 0-1.1 1.1-5.2 2.5-9.1 1.4-3.9 2.5-7.7 2.5-8.3 0-.7-3.4-4.8-7.5-9.1-6.1-6.4-7.5-8.5-7.5-11.1 0-2.8-1-3.9-8.5-9.8-4.7-3.6-10.6-8.4-13-10.5-2.8-2.4-5.9-4.1-8.3-4.5-9.2-1.5-12.2-2.7-12.2-5 0-1.4-3.1-5.4-8.7-11.1-4.9-5-9.8-10.8-11-13.1l-2.2-4 4.4-3.3c2.8-2.1 4.9-4.6 5.6-6.9.7-2 3.2-7.4 5.6-12.1 4.7-9.2 5.1-11.3 2.8-16.7-.9-2.1-1.3-4.9-1-6.4.6-2.7-1.4-4.7-11.4-11.2-6.4-4.1-9.4-9-10.2-16.5-.5-4.9-.3-7.4.7-9.4 1.8-3.6 2-21.6.2-22.3-.7-.3-4.7-.8-8.8-1.3l-7.5-.7-1.7-7c-3.1-13-2-18.7 4.3-21.2 2.2-.8 3.9-1.8 3.9-2.2-.1-3-3.7-10.1-6.2-12.3l-3.2-2.8 2.2-3.9c1.6-2.7 2.2-5.6 2.2-9.7 0-6.1.9-10.7 3.1-16 1.2-3 1.1-3.3-1.6-5.7l-2.9-2.5 7.3-3.7 7.4-3.7-.6-8.1c-.8-11-7-28.6-12.7-35.8-2.2-2.8-4-5.7-4-6.5 0-.7-1.8-5.5-3.9-10.6-2.4-5.8-4.3-12.3-5-17.3-.9-6.3-1.8-8.9-4.3-12.5-1.8-2.5-5.6-8-8.4-12.3-5-7.6-5.2-8.1-5.9-17.2-.7-9.2-.7-9.3 2.5-14.1 3.7-5.7 14.1-24.4 18.2-32.6 1.8-3.6 4.1-6.6 6.2-8 4-2.6 5.6-7.3 5.6-16 0-5.3 0-5.4-7.9-13.6-7.1-7.3-8.3-9.3-12.4-18.9l-4.5-10.8-9.3-4.7c-5.2-2.6-10.8-5.2-12.6-5.8-4.2-1.4-5.5-3.3-5.8-7.8-.2-2-1-6.9-1.9-10.7-.9-3.9-2.1-9.8-2.7-13.2-1-6-1-6.4 1.9-10.5 1.6-2.4 4.1-7.7 5.6-11.8 1.6-4.1 3.7-9.5 4.7-11.9 1.1-2.4 1.7-4.6 1.4-5-.4-.3-3.1-.6-6-.6s-5.6-.3-6-.6c-1.2-1.2 4.4-8 10-12.2 6.2-4.5 6.5-6.3 2.4-11.6-3.1-3.9-1.8-12.8 2.8-19.3 1.9-2.6 4.1-5.1 4.8-5.6.7-.4 2.6-3.5 4.3-6.8 3.5-6.9 3.5-6.9-1.3-18.4-3.4-8.1-3.8-8.6-8.3-10.1-2-.6-4.6-1.9-5.7-2.9-1.1-.9-4.2-2.5-6.9-3.5-3.6-1.4-7.3-4.4-14.8-11.8-10.6-10.6-10.4-10.1-8.2-18 .6-2-.3-2.1-3.6-.2z"/><path d="M494.6 502.3c-1.6 1.2-1.7 1.8-.7 5 .7 2 2.5 4.5 4 5.6 2.7 2 2.8 2 5.8.1 3.8-2.3 4.9-5.2 3.3-9.1-1.1-2.6-1.7-2.9-5.9-2.9-2.6 0-5.5.6-6.5 1.3zM326.6 673.2c.4 1.9 2.1 4.7 4 6.6 3.4 3.2 5.4 3.5 5.4.7 0-.7 1-1.5 2.3-1.7 1.8-.2 2.3-1 2.5-4.1.3-3.5-.9-4.9-2.3-2.7-1 1.5-5.2 1.2-5.9-.5-.3-.9-1.8-1.5-3.5-1.5-2.9 0-3 .2-2.5 3.2zM235.6 951.3c-.4 2.1-.1 3.6 1 4.8 1.4 1.5 1.4 2.1.4 3.4-.7.8-2.3 1.5-3.6 1.5-1.4 0-5.4.6-8.9 1.2-6 1.2-6.6 1.5-7.6 4.5-1.4 4.5.5 7.7 3.5 5.8 3-1.9 6.6-.3 6.6 2.9 0 3.1 3.4 5.6 7.5 5.6 2.5 0 3.5.8 5.7 4.5 1.8 2.9 4 5 6.4 6 4.6 1.9 4.4 1.9 4.4-.9 0-1.3 1.4-3.9 3-5.6 3.4-3.7 3.6-6.3.4-6.8-1.4-.2-2.4.5-3.2 2.3-1.4 3.1-2.2 3.1-5.6 0-3.1-2.9-3.8-8.2-.8-7 5.9 2.3 7.1 1.9 9.1-2.5 1.1-2.4 1.7-5 1.3-5.9-1.1-3.1-8.7-10.6-13.8-13.8l-5.2-3.1-.6 3.1z"/></svg>
