<svg version="1.0" xmlns="http://www.w3.org/2000/svg" width="1365.333" height="1365.333" viewBox="0 0 1024 1024"><path d="M627 1.8c0 1.3-1.9 3.3-5.4 5.7-5.2 3.6-5.5 3.7-7.7 2.1-1.3-.9-3.8-1.6-5.6-1.6-2.6 0-3.6.6-4.8 3-1.2 2.3-1.3 3.5-.5 5 .9 1.7.5 2.2-2.8 3.9-2.1 1.1-4.4 2.7-5.1 3.5-.9 1.1-3 1.6-6.6 1.6-5.7 0-6.8.8-10.8 8.1l-1.8 3.2-3.4-3.3c-1.9-1.9-3.5-4-3.5-4.7 0-2.5-4.1-3.3-16.5-3.3-10.2 0-12.7.3-13.1 1.5-.9 2.2-3.4 1.8-6.2-.7-2.5-2.5-13.2-4.1-24.2-3.9-50.1 1.2-50.9 1.2-54.2-.6-2.4-1.2-6.5-1.8-15.4-2.1-11.7-.4-12.2-.3-12.9 1.7l-.6 2.1-97.2-.3c-91.7-.2-97.2-.1-97.5 1.5-.2 1 .7 3.2 1.9 4.9 2.1 3 2.1 3.2.5 6.5-.9 1.9-2.7 4-4.1 4.6-1.4.6-2.8 2.2-3 3.5-.3 1.3-.7 3.5-1.1 5-.3 1.6-2.3 6.4-4.6 10.7-3.6 7-3.9 8.1-2.5 9.1s1.4 1.6-.6 6l-2.3 4.8 3.8 10.8c4.4 12.9 4.9 13.9 9.5 19 3.3 3.6 3.8 3.8 7.6 3.2 3.6-.5 4-.4 3.4 1.1-.4 1-.7 2.2-.7 2.7 0 .6-1.3 1.4-2.8 2-2.9 1-6.2 6.2-6.2 9.9 0 2.1 9.2 10 11.6 10 2.1 0-1.8 7.2-5.1 9.4-2.1 1.4-2.3 2-1.5 3.6 1.5 2.8 2.3 13.1 1.2 16-.7 1.9-.3 4 1.9 9.4 2.7 6.4 2.8 7.3 1.9 13.2-1 5.9-.9 6.8 1.5 11.4 1.4 2.7 2.5 5.4 2.5 5.9 0 .6-2 4-4.4 7.6l-4.4 6.6 2 4.7c1.1 2.6 2.9 5.8 3.8 7.2 1.7 2.3 1.7 2.5-.6 6.2-3 4.7-2.4 8.1 2 11 1.7 1.1 4.8 4.2 6.9 6.9 3 3.9 3.8 5.7 3.8 9.1 0 2.4.1 6.6.2 9.5.2 4.7-.2 5.6-3.2 8.7-3.2 3.3-3.3 3.6-2.1 6.6.7 1.8 2.4 3.6 3.7 4.1 3.4 1.3 2.8 4-1.7 8.4-2.2 2.1-4.7 5.8-5.6 8.2-.9 2.4-2.2 4.3-2.9 4.3-.6 0-1.6 2.4-2.2 5.2-.6 2.9-1.3 6-1.7 6.8-1.3 3 1.7 5 10.4 6.9 8.4 1.8 8.5 1.8 8.3 4.7-.4 4.4 2.5 12.4 4.5 12.4 1.3 0 1.7 1 1.9 4.7.1 2.7.3 6.6.4 8.8.1 2.2-.1 4.9-.5 6.1-.6 1.5-.2 2.3 1.6 3.1 2.2 1 2.7 3.3 9.7 46.1 4 24.8 7.1 45.7 6.8 46.5-.6 1.6-9.9 3.9-14 3.5-2.1-.2-3.2.3-4.4 2.4-1.6 2.5-1.6 2.9-.1 4.5 1.5 1.7 5.4 12.2 4.7 12.7-.2.1-4 1.2-8.4 2.5-7.2 2-8.6 2.8-14 8.2-3.6 3.5-6.9 5.9-8.2 5.9-1.9 0-2.2.7-2.8 6.5-.6 5.2-1.2 6.9-3.1 8.4-1.6 1.2-2.4 2.9-2.4 4.9 0 1.6-.7 3.5-1.5 4.2-.8.7-1.5 1.9-1.5 2.7 0 .7-.7 1.6-1.6 2-.9.3-4.2 6.2-7.5 13.1-5.5 11.6-5.9 13-5.9 19.6 0 4.8-1.4 13.4-4.4 26.6l-4.4 19.4 2.3 3 2.3 3-5.9 8.5c-4.9 7.1-5.9 9.1-5.9 12.7v4.2l-4.9.7c-2.8.4-5.4 1.2-5.9 1.8-.6.7-5.1 8.8-10.2 18.2-10.8 20-12.2 24.8-9.7 32.8 2.5 7.9 2.3 10.7-.7 10.7-4.8 0-7.6 6.1-4.1 9 1.1.9 1.5 3.3 1.5 8.6 0 4.7 1.1 11.8 3.1 20.1 1.7 7 3.4 16.4 3.8 20.8.6 7.4.8 8 3.1 8.5 2.1.5 3.2 2.4 7.1 12.3 3.3 8.4 4.8 13.9 5.3 19.1.5 5.7 1.8 9.8 5.5 18.3l4.9 11.1-.9 10.3c-1.4 18.1-1.7 16.9 4.2 16.9h5.1l-.4 4.2c-.3 2.4 0 5.8.4 7.6.9 3.3 1.1 3.4 4.6 2.7 2-.4 4.9-1.3 6.5-2.1 2.6-1.4 3.4-1.3 9.5.7 10.3 3.4 9.6 2.6 10.3 12.5.4 5.8 1.5 11.5 3.3 16.3 1.5 4.2 2.6 9.6 2.6 12.4 0 4.6-.2 4.9-2.3 4.4-1.2-.2-3-.8-3.9-1.2-1.6-.6-1.8-.1-1.8 3.6 0 2.6-.7 5-1.7 6.1-1.5 1.7-1.5 2 .5 4.1 1.4 1.5 2.2 3.6 2.2 5.8 0 1.9 1.2 5.9 2.6 8.9 3.4 7.4 2.8 9.5-3.2 10.4-2.5.3-7.7.3-11.4 0-4.5-.5-6.9-.3-7.4.5-1.2 1.9-12.2 1.3-16.7-.9-3.1-1.6-5.5-2-10.7-1.8-6.4.3-6.7.4-7 2.9-.3 2.5 0 2.7 16 7.2 12.8 3.7 19.6 5 31.8 6.2 13.9 1.5 17.3 2.2 33.7 7.6 10 3.2 21.5 6.4 25.5 7 15.1 2.4 28.1 8 33.1 14.4 1.5 1.9 4.1 4.2 5.7 5 1.6.9 3.2 2.6 3.6 3.9.4 1.8 1.7 2.7 5 3.6 3.2.9 4.9 2.1 6 4.1 1.8 3.5 4.8 3.8 10.4.9 2.2-1.1 5.3-2 7-2 2.5 0 4.1-1.1 8.1-5.4 3.2-3.6 6.6-6 10.1-7.5 2.9-1.2 7-3 9-4.1 2-1.1 4.5-2 5.6-2 2.4 0 5.2-3.1 5.2-5.8 0-3 5-6.1 11.7-7.4 3.2-.6 6.3-1.2 6.9-1.3.6-.2 1.4-2.2 1.8-4.4.6-3.7.9-4.1 3.5-4.1 1.6 0 4.4-.6 6.2-1.4 1.9-.8 6.7-1.9 10.8-2.5 4.1-.7 8.6-2 10.1-3.1 1.6-1.1 4.4-2 6.5-2 2 0 6.7-.9 10.3-1.9 3.7-1.1 10.6-2.6 15.5-3.5 8.9-1.7 19.7-6.2 25.9-10.9 1.9-1.5 5.1-3.4 7.2-4.2 3.5-1.5 3.9-1.5 5.1.1 1.1 1.6 2.1 1.7 10.8.6 5.3-.7 12-1.2 15.1-1.2 5.9 0 6.8-.5 17.2-10.1 7.5-7 19.4-12.2 32.7-14.4 4.4-.7 10.2-5.4 11.1-9 .4-1.5 3.5-4.6 8.1-8 5.8-4.3 8.3-5.5 11.1-5.5 2 0 8.2-1.5 13.9-3.4 5.6-1.9 14.2-4.7 19.1-6.2 4.9-1.4 10.6-3.7 12.7-5.1 2-1.3 5.1-2.6 6.8-3 1.9-.3 4.7-2.5 7.7-5.8 3.1-3.6 5.9-5.6 8.4-6.3 2.1-.6 5-1.9 6.5-2.9 1.5-1.1 8.8-4.3 16-7.1l13.3-5.3 8.7 1.2c8.6 1.1 43.8 1.7 44.7.8.3-.2 0-2.2-.6-4.4-1.5-5.6-2.2-16.9-1-16.1.5.3 1.2 2.5 1.5 4.8.2 2.4 1.9 7.3 3.7 11l3.2 6.8h8.8c5.2 0 10.5-.6 13-1.5 2.3-.8 6.8-1.5 9.9-1.5 4.6 0 6.4-.5 9.2-2.6 1.9-1.4 4-2.9 4.7-3.3.7-.4 2.8-6.5 4.6-13.7 1.9-7.1 3.8-13.9 4.3-15.1.9-2.6 9.9-9.7 18.7-15 9.2-5.5 8.9-5 6.5-9.3-1.9-3.3-2.8-3.9-6.8-4.5-10.8-1.5-11.1-1.6-13.1-5.4-1-2-3.5-5.1-5.4-7-2.2-2-4-5.1-4.9-8l-1.3-4.6-7.9-.3-7.9-.3-5.1-4.8c-2.7-2.6-6.2-5.5-7.7-6.5-3.2-2.1-12.9-13.7-15.2-18.4-1.7-3.3-1.7-3.4.8-6.7 3.9-5 3.5-6.5-1.7-6.5-3.6 0-4.9-.6-7.5-3.3-2.9-3-3.2-3.8-3.3-10.2-.2-10.8-.6-11.8-6.7-13.4-4.7-1.3-5.2-1.7-5.2-4.2 0-2-1-3.6-3.5-5.6-4-3.2-4.2-4.4-1.5-9.7 2.2-4.5 1.4-7.1-2.6-8.6-2-.8-2.5-1.6-2.2-3.7.2-2.3 1-2.9 4.7-4 2.4-.7 5.3-2 6.3-3 3.1-2.8 5-8.3 4.3-12.3-1.8-10.4-1.8-13.1.4-15.4 1.4-1.5 2.4-4.1 2.7-7.7.3-3 1.5-6.7 2.6-8.3 1.9-2.6 1.9-3.3.8-10.6l-1.2-7.9-7.1.2-7 .2-3.6-6c-2.7-4.7-3.6-7.3-3.9-12.2-.7-10 .3-13 4.7-15.3 4.4-2.2 5.1-3.5 5.1-9.1 0-3.6 2.6-7.9 4.8-7.9.4 0 .8-1.9.8-4.3 0-2.3.1-5.6.2-7.2 0-1.7.1-4.4.1-6-.1-1.7.2-5.1.6-7.7.5-3 .3-6.5-.5-9.5-1.8-6.6-2.9-14.1-3.9-25.3-.8-8.5-.7-9.8 1-12.1 1.6-2.4 1.7-2.8.4-3.9-.8-.7-1.5-2-1.5-3 0-2.5 7.3-7.9 13.9-10.1 7.2-2.4 8.1-4.9 4.5-11.3-1.3-2.2-2.4-4.9-2.4-5.8 0-1-1.6-3.3-3.5-5.2-2.6-2.6-3.5-4.4-3.5-6.8 0-5.7-3.2-9.5-9.5-11.3-4.1-1.2-5.9-2.3-6.7-4.1-.6-1.3-2-2.4-3-2.4s-2.6-.9-3.5-2c-1-1.1-2.5-2-3.5-2s-3-1.9-4.5-4.3c-3.1-4.9-12.3-24.6-12.3-26.5 0-1.7 4.5-1.5 6 .3 1.9 2.3 3 1.8 3-1.6 0-3.1.1-3.2 4-2.6 3.7.5 4 .3 4-1.9 0-1.4.9-4.2 2-6.4s2-4.9 2-6.1c0-1.2-2.2-5.7-5-10.1-2.7-4.3-5.1-9.1-5.2-10.6-.1-1.5.8-4.6 2.1-7 1.8-3.5 2-4.9 1.2-7.7s-.6-3.7 1.1-5.2c4-3.6 5.8-8.6 4.7-13.1-.8-3.7-.6-4.6 2.1-8.9 2.7-4.3 3-5.4 3-13.4v-8.7l-3.1-1.1c-2.3-.8-2.9-1.5-2.5-2.9.5-1.5-.3-2.1-4.7-3.5-5.2-1.7-15.1-2.2-19.3-1.1-1.1.3-2.5 1.7-3 3.2-.8 2.1-2.3 3.1-6.8 4.5-7 2.3-10.6 1.7-10.6-1.7 0-1.4-.3-3.1-.6-4-.5-1.3.1-1.6 3.3-1.6 2.9 0 4.6-.7 6.3-2.5l2.3-2.5h-4.4c-4.2 0-4.7-.3-6.2-3.6-1-1.9-1.5-4-1.1-4.5.3-.5 3.8-1 7.7-1h9.9c3.3 0 5.2-2.1 4.3-5-.6-1.9-1.2-2-5.3-1.4-5.5.8-5.1.8-7.9.6-1.4-.1-2.3-.7-2.3-1.8 0-.9-.8-2.5-1.7-3.5-1.5-1.7-1.5-2-.1-3.5 1.3-1.3 2.2-1.4 4.9-.4 1.7.6 4.5 1.1 6 1.1 2.7 0 2.9-.2 2.9-4.3 0-2.4-.7-5.2-1.5-6.3-2.2-2.9-1.9-10 .6-13.4 1.9-2.5 2.1-3.7 1.5-9.5-.6-6.1-.5-6.9 1.9-9.6 3.1-3.7 3.1-4.6.3-7.6-3-3.2-1.6-7.6 2.5-8.1 2.6-.3 2.8-.6 2.2-3.5-.4-1.8-2-4.6-3.6-6.2-1.8-2-2.7-3.7-2.3-5 .2-1.1 1.1-6.7 1.9-12.5.9-5.8 1.8-12 2.2-13.9l.6-3.4-3.9.6c-3.8.5-4 .4-7.3-4.5-2.6-4-3.2-5.8-2.8-8.4.5-2.7.1-3.5-2-4.9-2.3-1.5-2.7-1.5-4.1-.2-1.3 1.4-1.9 1.4-4.3.2-2.3-1.3-2.9-1.3-3.9 0s-1.9.2-5-6.2c-2.1-4.3-4.1-8.6-4.4-9.5-.3-1.2-2-2-4.8-2.4-3.4-.5-5.3-1.7-9-5.5-5.2-5.3-7.7-6.9-10.8-6.9-1.2 0-3.9-1.2-6-2.7-3-2.2-4-3.8-4.9-7.6-1.6-7.2-1.5-7.7 4.1-16.8 5-8.2 5.4-9.4 7.4-23.3.5-3.8 1.4-5.6 3.7-7.5 2.9-2.4 2.9-2.7 2.4-9.4-.5-7.5-.6-7.7-7.5-10.3-4-1.6-4.5-1.6-8.1 0-3.7 1.7-4 1.7-7.8-.3-2.2-1.1-4.3-2.9-4.5-3.9-.4-1.5-1.8-2-7.4-2.6-3.8-.4-8.6-.9-10.6-1.3-3.3-.5-3.8-.3-3.8 1.5z"/></svg>
