<svg version="1.0" xmlns="http://www.w3.org/2000/svg" width="1365.333" height="1365.333" viewBox="0 0 1024 1024"><path d="M205.7 97.7c.3 3.6 2.2 9.6 4.9 15.8l4.3 9.9-2.3 2.1c-1.9 1.7-2.4 3.6-3 10.3-.7 8-.8 8.2-4.8 11.7-2.8 2.4-5.2 3.5-7.3 3.5-1.7 0-3.6.5-4.3 1.2-.9.9-1.2.6-1.2-1.5 0-2.6-.2-2.7-5-2.7-4.7 0-5 .2-5 2.5s-.4 2.5-4.5 2.5c-2.5 0-4.5.3-4.5.7 0 .5-1.1 2.1-2.5 3.7s-2.5 3.7-2.5 4.7c0 .9-.3 2.4-.6 3.3-.5 1.2.5 1.7 4.7 2.2 4.5.6 5.3 1.1 6.3 3.5.9 2.5 1.6 2.9 4.8 2.9 3.6 0 3.8.2 3.8 3.2 0 2.9.8 3.8 7 8.1l7 4.8v12.8c0 7 .3 16.1.6 20.2l.7 7.5-5.9 1.8c-3.3 1-6.4 2.1-7.1 2.3-.6.2-1.4-.5-1.8-1.6-.4-1.4-1.5-2.1-3-2.1s-2.6-.7-3-2c-1.2-3.9-2.9-2.2-5.8 6.2-.6 1.6-.9 1.6-4.1.3-2.9-1.2-3.6-1.2-4.5-.1-1.7 2-9.2 2.6-11.2.9-1.4-1.2-2.3-1.1-6.3.9l-4.7 2.3-1.9-2.5c-1.4-1.9-2.9-2.5-6.2-2.7-2.4-.1-7-.5-10.3-.8l-6-.7-4 5.7c-3.9 5.6-4.4 6-18.3 12.2l-14.3 6.5-8.5-1.2c-8.4-1.2-8.5-1.2-12.2 1.4-7.8 5.4-9.8 8.3-20.6 29.6-6 11.8-12.1 22.9-13.5 24.6-1.4 1.7-5 6.5-7.8 10.7-3.8 5.5-6.5 8.3-9.5 9.8-9 4.6-11.8 7-11.8 10.1 0 3.8 1.4 6.4 5.8 11 2.9 3.1 4.3 3.8 7.4 3.8 2.7 0 4-.5 4.8-2 1-1.8.8-2-2-2-2.3 0-3-.4-3-1.9 0-1.1.5-2.3 1-2.6.6-.3 1-1.5 1-2.6 0-1.2.5-1.9 1.3-1.6.6.2 2.7-.9 4.5-2.6 3.5-3.4 4.5-2 1.5 2.3-3.7 5.2-1.2 11.1 3 7.2 3-2.9 2.9-10.8-.3-15.2-1.4-2-1.9-3.7-1.4-4.8.4-.9 1.5-4 2.5-6.7l1.7-5 .1 5.1c.1 4.7.3 5.2 2.6 5.6 3.3.7 8.9-2.2 9.3-4.7.7-4.7 1.4-5 2.9-1.3 2 5.1 4.6 5 9.5-.4 3.7-4.1 4.8-6.8 2.8-6.8-.5 0-1-1.3-1-2.8v-2.9l4.5 4.3c2.9 2.8 4.3 4.9 3.9 5.9-.3.8-1 1.5-1.4 1.5-.5 0-3.2 2-6.1 4.5-2.9 2.4-6.8 5-8.8 5.6-2 .6-5.2 2.2-7.2 3.6-3.1 2-3.7 3.1-4.2 7.1-.8 7.4 2.7 9.7 6.9 4.4l2.3-2.7-1.1 4.5c-.6 2.5-2.5 6.2-4.1 8.2-2.5 3.1-2.8 4.2-2.3 7.2.5 2.7 1.2 3.6 2.6 3.6 1.1 0 2-.6 2-1.3 0-2 5-6.3 9.3-8.1 2-.8 3.7-1.2 3.7-.9 0 .3-1.8 2.2-4 4.2-3.9 3.5-4 3.8-2.9 6.9.9 2.7.8 3.6-.5 5.1-2 2.2-2.1 5 0 5.8 2.5.9 7.9-5.2 15.1-17 4.2-6.8 7.2-10.7 8.3-10.7.9 0 2.5-.9 3.5-2s3.1-2 4.8-2h3l-3.8 3c-2.1 1.6-4.6 3-5.6 3-2.1 0-3.4 2.3-8.4 14.3-1.9 4.4-4.7 9.3-6.1 10.8-2.6 2.7-2.6 2.9-1 5.4 2 3.1 1.5 4.2-2.7 5.3-3.2.8-3.2.8-3.5 8l-.3 7.2h4.7c3.3 0 5.4-.6 6.8-1.9 1.2-1.1 3.4-2.3 4.9-2.6l2.8-.7-2 3.8c-1 2.2-2.2 5.6-2.5 7.6-.6 3.3-.4 3.9 2.9 6.4 5.4 4.1 6.5 6.9 6.2 16.2-.1 4.4.1 8.3.5 8.7.4.4 1.9 0 3.3-.9 4-2.6 9.6-1.2 16.5 4.4 4.2 3.3 6.6 4.6 8 4.3 2.3-.6 2.5 0 1 2.8-1.6 2.9.4 5.9 4 5.9 1.6 0 3.2-.5 3.5-1 .3-.6 1.6-1 2.7-1 2 0 2 .1.4 1.8-1.5 1.8-1.5 2.1.7 5.3 1.7 2.5 3.1 3.5 5.6 3.7 4.6.5 7.1-2 7.1-7.2 0-3.9.2-4.2 4.7-6.4l4.8-2.3-2.6 2.8c-2.2 2.3-2.8 4.1-3.2 9.6-.2 3.8-.2 7.7 0 8.8.4 1.2 3.2 3.4 7.2 5.4 9 4.6 16 11.7 19.6 19.6 3.5 8 3.3 7.8 5.3 5.1 1-1.3 3.9-2.7 7-3.6 4-1 6.1-2.3 8.3-4.9 2.5-3.1 7-5.6 6.9-3.9-.1.4-1.3 2.5-2.8 4.6-1.8 2.7-4.9 5.1-9.7 7.5-3.8 2-6.2 3.7-5.4 3.9.9.2 2.4 2.1 3.2 4.4 1.6 4 1.7 4.1 5.8 3.4 2.2-.4 5.5-1.4 7.1-2.2 3.7-1.9 5.2-1.4 7.1 2.6 1.5 3 1.5 3.1-.9 4-2.1.8-2.4 1.6-2.4 6.2 0 6.5-1.5 9-10.8 18.7-4 4.1-7 7.6-6.8 7.8.7.7 6.1-2.1 8.7-4.5 1.8-1.6 4.6-2.6 8.5-3.2 3.3-.4 6.2-.6 6.5-.4.3.2.4 1.7.1 3.4-.6 4.1 2 8 4.9 7.3 1.9-.5 2-.3 1.1 1.2-.7 1.3-.6 3 .4 5.8 2 5.5 3.1 6.7 6.8 6.7 3.5 0 5.7-1.4 7.4-4.5 1-1.8 1.1-1.7 1.2 1.1 0 1.9-.8 3.8-2 4.9-1.6 1.4-2 3.1-2 7.6 0 5.2.3 6 2.8 7.7 2.5 1.8 3 1.9 5.5.6 2-1.1 2.7-2.2 2.7-4.4 0-2.6.7-3.3 5.3-5.5l5.2-2.6-3.8 3.3-3.8 3.4.3 12.4c.3 10.9.5 12.5 2 12.8 1.2.2 2.1-.6 2.8-2.3 1.8-4.8 9.3-12.5 12-12.4 2.4 0 2.4 0 .3.9-2.7 1.1-5.1 4.6-5.9 8.8-.6 3-.5 3.2 2.2 3.2 2.6 0 2.4.3-2.5 3-3 1.6-7.3 4.9-9.6 7.2-4.1 4.1-4.2 4.4-2.9 7 .8 1.6 1.6 2.8 1.9 2.8.2 0 4-1.3 8.4-3l8-2.9 2.1 2.9c1.8 2.6 2.8 3 6.6 3 3.1 0 5.6-.8 8.3-2.5 5-3.3 13.3-15.2 12.5-18-.3-1.4.6-3.5 2.8-6.3l3.3-4.3 7.5-.3 7.5-.3 4.3-4.9c2.4-2.7 5-6.4 5.7-8.2.9-2.1 2.1-3.2 3.4-3.2 3.7 0 13.1-13 13.1-18.1 0-1.8 1.8-4.6 5.5-8.8 3-3.4 5.5-7.1 5.5-8.1 0-1.1 1.6-3.7 3.5-5.9 1.9-2.1 5.4-7.9 7.6-12.7 2.3-4.9 4.2-9 4.4-9.2.4-.5 34.9-10.2 36.2-10.2.6 0 1.4.9 1.8 1.9.4 1.3 3.1 2.8 7.9 4.6l7.3 2.7 13.9-3.8c7.6-2.1 14.4-4.1 15-4.6.7-.5 1.5-2.4 1.8-4.3.4-1.9 1-3.6 1.4-3.8.4-.2 20.7.2 45.2.9 24.5.7 46.9 1.3 49.8 1.3 5.2.1 5.3.1 7.1 4.4 1 2.4 2.2 6.1 2.5 8.3.6 3.6 1.2 4.3 5.9 6.6s5.9 3.7 11.5 12.5c3.4 5.5 6.9 12 7.8 14.5 1.1 3.4 2.3 4.9 4.5 5.8 3.2 1.4 4.9 3.7 4.9 6.9 0 1.1.9 2.5 2 3.1 1.5.8 2 2.1 2 5.5 0 4.2.2 4.5 3.2 5.3 3 .8 3.2 1.1 3 4.8-.3 4.7 4.7 16.5 7.5 17.5 1 .4 2.9.8 4.3.9 1.6 0 4.6 2 8.1 5.3l5.5 5.2-.4 7.2-.4 7.2-4.4 1.7c-2.5.9-4.7 2.1-5 2.5-.3.5-1.1 4.3-1.8 8.5-1.5 8.4-1.8 7.9 5.9 8.9 2.8.4 7.1 1.9 9.7 3.3l4.8 2.7v34.3l2.6.9c2.2.7 3.2 2.4 6 10.2 1.9 5.1 3.1 9.8 2.6 10.5-4.5 7.3-8.1 10.6-14.9 13.6-7.1 3.2-7.2 3.2-8.2 8.1-.6 2.8-1.1 5.7-1.1 6.6 0 .9-1.7 4.3-3.9 7.7-7.9 12.5-9.2 16.3-4 11.9 1.5-1.2 2.5-1.2 7.7.1 11.5 3 12.1 2.8 23.7-8.1 12.9-12.1 17.1-14 25.2-11.2 5.1 1.7 5.5 1.7 12.3-.2 6.9-1.9 18-2.6 18-1.2.1.5 1.4 2.3 3 4.2l2.9 3.4 6.5-1.8c3.9-1.1 8.3-1.6 11-1.3 4.3.5 4.6.4 10.2-5.3l5.7-5.7 3.3 1.5c2.9 1.4 3.4 2.4 5 8.7.9 3.9 2.1 7.9 2.6 8.8 1.2 2.4 4.5 2.3 6-.2.7-1.1 2.1-2 3-2 1.6 0 1.6.4.4 4.5l-1.4 4.4 3.3-1.3c3.2-1.4 3.3-1.3 4.9 2 1.1 2.3 2.2 3.4 3.4 3.2 1.5-.3 1.7.9 2 10.9l.3 11.3 4 3.2c4 3.2 4.1 3.4 3.4 8.2-.3 2.7-.9 6.1-1.2 7.7-.4 2.3 0 3 2.8 4.4 1.9 1 3.5 1.8 3.7 2 .1.1-.5 2.4-1.3 5.1-1.1 3.6-1.3 7.5-.8 15.1.5 9 .9 10.5 2.9 12.4 2.2 2 2.4 3.1 2.4 10.8 0 4.8.9 12.6 2 17.5l2 8.9-6.2 11.8c-5.1 9.4-6.9 12.1-9.5 13.3-3.6 1.7-3.9 2.4-2 4.9 1.1 1.5 1.9 1.4 10.1-.6l8.8-2.2 2.2 2.8c1.5 1.9 3.1 2.7 5.4 2.7 1.7 0 4.7.8 6.6 1.7 3 1.4 3.6 2.3 4.2 5.8.5 3.6 1.8 5.5 9.3 12.9l8.8 8.7 8.6-3.6c8.3-3.4 9.1-3.5 16.7-2.9l8 .7v-6.7c0-8.3 2-11.7 11.8-20.1l7.1-6v-8.7c.1-6.3.7-10.1 2.2-14.2l2.2-5.6h8.8c4.9 0 8.9.4 8.9.9s1.5 2.7 3.3 4.9c1.7 2.1 4.1 5.1 5.2 6.5 1.1 1.5 3.2 2.9 4.7 3.3 2.4.5 2.9.1 5.3-4.5l2.5-5.1h5.8c11.5 0 12.7.6 18.3 8.1 2.8 3.8 5.4 6.9 5.8 6.9.3 0 5.5-9.5 11.5-21.2l10.9-21.1-1.2-5.9-1.2-6 6.8-12.6c6.5-12.1 7-12.7 11.3-14.3 5-1.9 5-1.9 1.7-10.4l-2.3-6-11.3-2.6c-6.2-1.5-11.7-3.3-12.2-4-1-1.6-1.6-7.6-2.4-22.5l-.6-11.1 3.6-3.1c2.1-1.9 4.7-3.2 6.3-3.2 1.5-.1 3.8-.7 5.2-1.5 1.5-.9 5.4-1.4 9.7-1.5h7.2l4.1 4.9c2.2 2.7 5.9 6.3 8 8l4 3.2 2.7-4.6c1.6-2.5 3-4.5 3.3-4.5.3 0 2.1 2.7 4.1 5.9l3.7 5.9 7.2 1.2c3.9.7 7.3 1 7.5.8.2-.2.7-5.4 1.1-11.5.6-10.2.5-11.8-1.6-17.2l-2.2-6.1 2.2-3.7 2.2-3.7-3.6-2.9c-1.9-1.5-5.6-5.8-8.2-9.5-5.7-8-5.5-7.8-11-8.6-6-.8-10.7-3.3-10-5.2.3-.9.6-3.9.6-6.9 0-4.3.3-5.4 1.9-5.8 1.5-.4 2.1-1.7 2.6-5.9l.7-5.5 5.6-2.6c3.2-1.5 7.4-4.2 9.6-6.1l3.9-3.3-11.6-8.9-11.5-8.9 2-3.5c9.2-15.5 12.8-25.7 9.7-27.6-.7-.4-6.5-1-12.9-1.4-15.2-.8-19.4-2.6-23.3-10.5-2.5-5.1-2.7-6.5-2.7-17.9 0-14.1 1.5-26.8 4-34.1 1.7-4.9 1.7-5.2-.1-8.6-2.4-4.4-2.3-6.2.1-8.4 1.9-1.7 1.9-1.8.1-5.4-1-2-2.1-5-2.4-6.6-.5-2.9-.2-3.3 8.1-8.6l8.7-5.5 3.1-9c1.8-4.9 4.3-11.9 5.7-15.5l2.5-6.6-7.9-4.7c-6.9-4.1-8-5.2-9.1-8.7-.6-2.3-1.7-4.3-2.2-4.5-.6-.2-4.2.5-7.9 1.5l-6.8 2-1-2.7c-9.1-23.5-9.7-25.9-11-45.3l-1.2-18.5 4.3-7.4 4.3-7.4-1.8-5.3c-1-3-2.4-6.2-3.1-7.1-.6-.9-5.4-2.8-10.5-4.2l-9.4-2.6-10.5 6.5c-16.7 10.3-15.3 9.6-18.7 8.2-3.2-1.3-5.3-4.7-5.3-8.6 0-1.8.8-2.6 3.5-3.5 4.3-1.4 5.9-3.9 4.5-7.4-.9-2.5-.7-2.6 3-3.2l4-.7V335h6c7.5 0 10.7-1.4 11.5-5.1.6-2.6 1.2-2.9 5.8-3.5 6.8-.9 10.1-4.1 9.1-8.7-1.1-5.4-3.3-7.5-10.5-10.3l-6.9-2.7-1.2-5.9c-1.3-6.5-.1-5.7-13.8-9.1l-5.5-1.3-4-11.2-4-11.2h-6c-5.3 0-6.5-.4-9.8-3.1-3.6-2.9-3.6-3.1-2.2-5.9 3.2-6.2 5.8-18.5 5.9-27.7.1-9.2.1-9.2-3.4-12.9-1.9-2-4.9-4.2-6.5-4.9-2.7-1.2-3.3-2.2-4.7-8.2-.9-3.7-1.4-8-1.1-9.5.4-1.9 0-2.9-1.4-3.7-5.8-3.4-5.8-3-.9-14l4.5-10.2-8.1-10.4c-4.5-5.8-8.4-10.5-8.8-10.5-.4 0-9.6-1.4-20.5-3-10.9-1.7-19.9-2.9-20-2.8-.6.9-3.5 9.1-3.3 9.2.2.2 3.2 2.4 6.8 5.1 3.6 2.7 6.6 4.9 6.8 5.1.2.1-1.6 3.3-4 7.2-3.2 5.2-5.3 7.5-8 8.8-3.7 1.7-3.7 1.7-7.9-1.5-3.6-2.6-4.5-2.9-5.8-1.8-.9.7-4.2 3.4-7.4 6.1-4.6 3.8-7.3 5.2-13.8 6.9l-8 2.2-4.6 10.5c-2.5 5.8-4.7 10.6-4.8 10.8-.2.2-4-2.3-8.6-5.6-11.9-8.3-20-11.2-31.5-11.2-7.8 0-9.3-.3-10.9-2-1-1.1-6.3-3.7-11.9-5.8-8.6-3.3-13.7-5-26.8-8.8-1.3-.4-1.6-.1-1.2.9.3 1-1.1 2.4-4.3 4.3-2.6 1.5-6.6 4-8.7 5.6-5.3 3.8-14.5 15-16 19.6-1 2.8-2.9 4.8-8.3 8.5l-7 4.8-3.5-1.6c-2.8-1.4-4.3-3.3-7.6-10.1-3.6-7.3-4.2-9.3-4.2-14.9v-6.4l-14.2-10.2-14.1-10.1-3.1 1.7c-7.3 4.2-9.1 6.2-10.5 11.4-1.1 4.5-2 5.7-6.6 9.1-3.8 2.8-5.4 4.7-5.9 7.1-2.1 10.5-2.2 10.6-7.8 11.1l-5.2.5-4.5-5.1c-12.2-13.8-19.6-20.7-23.4-21.8-4.3-1.3-6.2-4.4-5.4-8.8.3-1.4.1-3.2-.4-4.2-1.1-2 .6-6.6 3.4-8.9 1-.8 1.8-2.6 1.7-4-.5-8.3-.3-12.3.6-12.6.6-.2 2-1 3-1.8 1.8-1.3 1.8-1.4.1-3.2-1.5-1.6-3.3-1.8-13.3-1.6-9.3.2-13.6.8-22.4 3.2-10.1 2.9-11.1 3-14.8 1.7-3-1.1-5.1-1.2-8.3-.5-3.9.9-4.6.7-10.1-2.6l-5.8-3.6-11.2 2.2c-9.6 1.9-11.7 2.6-13.8 5-2.1 2.4-4.9 3.4-17.7 6.7l-15.2 3.8-.7-4.2-.6-4.3-7.2-2.4c-6.3-2.1-8-2.3-13.2-1.5l-5.9.9-3.5-3.9c-3.4-3.9-3.7-4-12-4.6-5.2-.4-8.9-1.2-9.5-2-.6-.7-2-1.6-3.3-2-1.3-.4-5.5-3.7-9.4-7.2-10-9-12.8-8.5-12.8 2.3 0 6.9-.9 7.7-5.6 4.7-1.6-1.1-3.7-1.5-6.3-1.1-3.2.4-4.3.1-6-1.7-2.7-2.8-2.6-3.5.4-9.2 4.3-8.1 2.8-15.4-2.9-14-1.3.3-3.7.1-5.3-.4-2-.7-3.8-.7-5.5-.1-1.9.7-3.1.6-4.5-.4-3.7-2.6-8.5-3.3-12.5-1.8-3.5 1.4-3.9 1.4-7-.9-3-2.1-4.7-2.4-18.8-3-8.5-.3-18.7-.7-22.7-.7l-7.2-.1.6 5.7z"/></svg>
