<svg version="1.0" xmlns="http://www.w3.org/2000/svg" width="1365.333" height="1365.333" viewBox="0 0 1024 1024"><path d="M756.8 2.8c-4.7 2.7-4.8 2.7-4.8 7.9 0 5.1.1 5.3 3.9 7.2 3.9 2.1 5.1 3.7 5.1 7.3 0 1.1.7 3.5 1.6 5.4 1.3 2.8 1.4 3.9.4 6.3-.9 2.4-.9 3.4.4 6 1.5 2.8 1.5 3.4.1 6.1-.8 1.6-1.5 3.6-1.5 4.4 0 2-7.9 6.6-11.4 6.6-1.5 0-4.1.7-5.9 1.7-1.8.9-5.4 2.2-8.2 2.9-4.7 1.3-5.2 1.2-7.9-.7-2.7-2-3-2.1-6.3-.5-1.8.9-4.3 1.6-5.5 1.6-1.2 0-3 .7-3.9 1.6-1.5 1.4-2.3 1.5-4.7.5-2.1-.9-3.6-.9-5.7-.1-2.3.9-3.1.7-4.7-.7-1.9-1.7-2.1-1.7-4.3 1.1-2.2 2.8-2.5 2.9-4.7 1.4s-2.8-1.3-11.2 2.9c-8 4-9.3 4.4-13.6 3.8-3.6-.5-5.1-1.2-6.1-3.1-1.6-3.2-11.6-11.4-13.8-11.4-.9 0-3.6-1.4-6.1-3-2.7-1.8-5.8-3-7.8-3-1.8 0-4.7-.7-6.3-1.6-2.2-1.1-4.3-1.3-7.1-.9-3.2.6-4.2 1.3-5 3.7-.9 2.5-1.4 2.9-3.7 2.3-1.4-.4-2.7-.7-2.7-.8-.1-.1-1.1-2.2-2.4-4.6-2-4-2.4-4.3-5.2-3.7-1.7.3-3.6.2-4.2-.3-.6-.5-2.2-1.1-3.6-1.3-2.2-.3-2.9-1.5-5.6-9.3-3-9-3-9-6.6-9.3-2.8-.2-4 .2-5.1 1.9-1.3 1.8-2.2 2.1-5.9 1.5-2.7-.4-6.1-.1-9 .9l-4.8 1.4v-3c0-2.2-.6-3.2-2.5-4.1-2.2-1-2.8-.9-4.1 1-.8 1.2-2.1 2.2-2.8 2.2-.8 0-1.9.6-2.5 1.4-1.1 1.3-1.8 1.2-5.5-.4l-4.3-1.8-2.7 2.4c-2.1 2-2.6 3.4-2.6 6.9 0 4.6-.7 5.4-2.7 3.4-.9-.9-1.9-.7-3.9.8-2.7 2-2.8 2-6 .1l-3.3-1.9-1.6 2.4c-1.2 1.8-2.7 2.6-6.5 3-2.7.3-6.2 1.5-7.7 2.6-1.6 1-5 2.2-7.8 2.6-2.7.4-5.7 1.3-6.6 2.1-1.3 1.2-2.3 1.1-7.2-.6-8.2-2.9-13.9-2.6-20.3 1l-5.3 3-2.6-2.6c-2.1-2.1-3.2-2.5-5.7-2-1.7.3-3.7.6-4.4.6-.8 0-1.9 2-2.5 4.6l-1.2 4.6-14.1-.6c-22.3-1-32.9-.7-34.7 1-1.1 1-1.8 4.1-2.3 10.7-.7 9.1-2.1 13.7-4.2 14.4-.6.2-2.5-.8-4.2-2.2l-3.1-2.6-1.6 3.7c-2.4 5.8-3.1 6.1-19.3 5.7-14.2-.3-14.6-.3-17.3-2.9-2.3-2.2-3.7-2.7-8.2-2.6-4.7 0-5.8.4-8.5 3.2l-3.1 3.1-3.9-2.6-4-2.6-4.3 2.9c-2.4 1.6-6.3 4-8.6 5.3-2.9 1.6-4.3 3.2-4.7 5.1-.3 1.6-1.2 2.8-2.1 2.8-.8 0-1.7 1-2 2.3-.4 1.3-1.9 3.1-3.5 4-1.8 1.1-3 2.8-3.4 5.1-.9 4.9-2.7 6-9 5.3-5.2-.5-5.5-.4-9.2 3.5-5.8 5.9-7.8 6.4-12.3 2.9-3.1-2.5-4.4-2.9-9.1-2.7-4.3.1-6.3.7-9 2.8-2 1.5-5.4 3.1-7.7 3.6-3.6.8-4.6.7-7.5-1.3l-3.2-2.2-1.8 2.3c-1.1 1.3-3.4 2.5-5.8 2.9-2.3.4-4.6 1.5-5.4 2.7-1.3 1.9-1.3 2.3.5 3.7 1 .9 2.1 2.9 2.4 4.6.5 2.4 0 3.6-2.5 6.2-4.2 4.4-6.4 4.6-3.8.3 1-1.6 1-2.3-.4-3.6-1.6-1.6-1.6-1.9.2-4.4 1.9-2.7 1.9-2.7-.5-5l-2.4-2.3-3.5 2.9c-5.6 4.7-5.6 7.4-.1 15.6l4.7 7-.7 7.7c-.6 6.4-1.2 8.1-3.5 10.6-1.5 1.6-4.2 5.2-6 7.9l-3.3 4.9-5.3-.6c-4.9-.5-5.4-.4-5.4 1.4 0 1-.4 1.9-.9 1.9-1.9 0-4.5 5.6-4.2 9.3.2 3.3-.5 4.7-4.4 9.5-4.6 5.5-4.7 5.8-4 10.8.5 4.2.2 6-1.5 9.4-1.2 2.3-1.9 4.8-1.6 5.5.2.7 0 3.1-.6 5.3-1 3.8-1.2 4-6.8 5.2-3.1.7-6.6.9-7.8.6-1.1-.4-3.1-.1-4.5.5-1.9.8-3.4.9-5.7.1l-3.1-1.1-3.1 6.4-3.2 6.5h-4.4c-3.8 0-4.3.2-3.7 1.7.5 1 1 3.4 1.3 5.3.2 2 2.1 5.8 4.3 8.7 3.9 5.2 5 9.8 2.9 11.9-.6.6-3.3.9-6 .6l-5-.5v3.2c0 1.8.5 4.1 1.1 5.2.8 1.6.5 2.6-1.9 5.4-1.6 1.8-3.2 3.9-3.5 4.7-.4 1.1-.7 1.1-1.8 0-1.1-1-1.5-.8-2.4 1.7l-1 2.9-9-2.9c-4.9-1.5-9.7-2.8-10.5-2.8-1.9-.1 11 8.5 13.6 9.1 1.5.3 1.9 1.1 1.8 4.3-.1 2.3-.8 4.3-1.8 5-.9.7-1.6 2.3-1.6 3.7 0 2.7 4.2 4.8 9.8 4.8 2.2 0 3.2.5 3.2 1.5 0 .9-.9 1.5-2.2 1.5-2.1 0-2.1.1.5 2.8 2.9 3 2.7 4.2-.8 4.2-2 0-2.2.4-1.6 2.9.3 1.6 1.8 3.9 3.3 5.1 1.6 1.2 2.8 3.1 2.8 4.2 0 1.2 1.1 4.1 2.5 6.4 2.7 4.5 2.6 4.5 13.7 5.9 4.7.6 5.8 1.7 5.8 5.8 0 2.4 17.6 21.7 19.7 21.7.7 0 2.6 1.9 4.3 4.2 2.4 3.3 3 5.1 3 9.3 0 3.6.6 6 1.8 7.5 2.1 2.6 4.2 2 4.2-1.1 0-1.9.1-1.9 3.1-.4 1.7.9 3.3 1.4 3.6 1.1 1.1-1-.7-3.7-3.7-5.4-3.6-2-3.7-3.2-.7-6.8 2.3-2.7 2.4-2.7 4.3-.7 1 1.1 3.3 2.3 4.9 2.7 1.7.4 3.7 1.4 4.6 2.2 1.4 1.3 1.8 1.3 2.9-.1 1.6-1.9 3.7-1.9 4.7 0 .5.7 2.7 1.7 5 2.1 4.1.6 4.3.5 6.4-3 1.7-3 2.4-3.4 3.6-2.5 2.6 2.2 3.7 5.3 3.7 11.1.1 4.5.6 6.1 2.4 8.1 1.6 1.7 2.1 3 1.5 4-.6 1.2-1.3.9-3.3-1.9-3.2-4.3-5.8-4.4-6.6-.4-.7 3.2-2.1 3.9-3 1.5-.4-.8-1.2-1.5-2-1.5-1 0-1.3-.7-.8-2.6.6-2.4.4-2.5-1.5-1.9-1.5.4-2.6.2-3.4-.8-1.4-1.9-7.5-2.6-8.5-1.1-.4.6-1.4 1.3-2.4 1.7-1.2.4-1.8-.2-2.3-2.1l-.7-2.7-2.3 2.7c-2.6 3-6.2 3.7-7.1 1.3-.8-2.1-2.1-1.9-3.4.5-.9 1.7-.7 2.8.9 5.4 2.6 4.1 2.6 4.2.1 4.9-1.1.3-2.5 1.9-3.1 3.6-1.2 3.5-2.9 3.2-2.9-.5 0-3.6-1.8-3-6.6 2.2-3.9 4.1-8.4 13.2-8.4 16.8 0 .8-.6 1.9-1.4 2.5-1.1.9-1.4 3.5-1.4 9.7.1 8.3.8 10.1 2.7 6.6 2.7-4.6 2.8-4.6 6-1.1 2.8 3.2 3 3.2 3.1 1.1 0-1.2.6-2.2 1.4-2.2.7 0 1.9-.7 2.6-1.5 1.7-2.1 4.7-1.1 9.1 3.2 3.3 3.2 3.7 3.3 4.2 1.4.3-1.3-.4-2.7-1.9-4.2-2.8-2.6-3-4.7-.9-7.5.8-1 1.5-2.2 1.5-2.6 0-1.2-3.9.4-5.6 2.3-1.7 1.8-1.7 1.8-3-.6-1.1-2.1-1.1-3.2 0-6.3.7-2.1 1-4.8.6-6.3-.6-1.9-.3-2.9 1.1-3.7 1.6-1 1.9-.9 1.9.6 0 1 .3 2.1.6 2.4 1.1 1.2 6.9-1.2 9.1-3.7 1.2-1.4 2.4-2.5 2.6-2.5 1.1 0 3.7 8.4 3.7 11.8.1 5.3 3 8.6 7 7.7 2.7-.6 3-.4 3 1.7.1 1.3.7 3.4 1.5 4.8s1.5 5 1.6 8c0 3 .4 6.6.8 7.9l.7 2.4 3.8-3.4 3.9-3.4-.7 5.7c-.6 4.6-.3 6.9 1.4 11.7 1.8 4.8 2 6.3 1 8.1-.9 1.7-.9 3.2 0 6.5 1.6 5.7 4.2 6.4 8.2 2.4 1.6-1.6 3.6-2.9 4.3-2.9 2.3 0 7.5-3.4 8.1-5.3.3-1 1.5-1.7 3-1.7 2.1 0 2.4-.5 2.4-3.6 0-2.8.3-3.5 1.8-3.2 1 .2 1.8 1.4 2 3.2.3 2.1 1.1 3.1 3.3 3.9 2.3.9 2.9 1.7 2.9 4.2 0 4.7 4.8 8.9 8.9 8 1.7-.4 4.5-1.8 6.2-3.2 3.3-2.8 7.6-3.3 17.1-1.9 5.6.8 5.7.8 6.4-1.8.7-2.9 6.2-6.2 7.7-4.7 1.4 1.4 6.6.2 10-2.2 2.3-1.5 3.3-1.7 5.5-.9 1.5.6 4.1 1.3 5.7 1.7 4.2.9 12.9 5.1 14.5 7 1.8 2.1 3 1.9 6.2-1.2 2.7-2.6 2.9-2.6 5.6-1.1 2.3 1.4 8.9 2.4 13 1.9.8-.1 1.2-1.4 1.1-3.9-.2-2 .4-4.8 1.2-6.2.8-1.4 1.5-2.6 1.5-2.8.1-.2 2 .9 4.2 2.5 4.9 3.5 8.2 8.4 8.2 12.1 0 3.3 2.7 6.2 5.7 6.2 1.7 0 2.2-.9 2.8-4.8.7-5 1.7-6.7 4.7-8.3 1.6-.9 2.1-.4 3.8 3.3 2.2 5 5.3 8.2 9.3 9.7 3 1.2 3.5 3.2 1.1 5.2-1.4 1.1-1.3 1.4.8 2.5 1.3.8 4.4 1.3 6.9 1.4 4.1 0 4.8.3 5.3 2.5.7 2.8 4.6 3.6 4.6 1 0-1.2 1.3-1.5 5.5-1.5 5.2 0 5.5.1 5.5 2.5 0 3.4 4.2 4.4 8.2 2 2.5-1.5 3.2-1.5 3.9-.4.5.8.9 2 .9 2.7 0 .8.8 1 2.5.6 3-.7 7.5 2.4 5.3 3.7-.9.6-.9 1.1 0 2.2s.6 1.9-1.6 3.9c-5.8 5.4-7.7 6.1-15 5.3-3.7-.4-7.8-1.3-9.2-2-2-1-3-1-4.6-.2-3.1 1.9-8.4 6-8.4 6.7 0 .3 2.7 2.1 5.9 4 5.3 3 5.8 3.5 4.9 5.4-2.9 6.6-10.4 5.8-18.6-2-8.9-8.6-19.1-16-27.2-20-6.8-3.3-7.9-3.5-12-2.7-3.9.7-4.9.6-7.5-1.4-1.7-1.2-5.8-2.6-9.4-3.2-3.9-.6-7.2-1.8-8.6-3.1-1.2-1.1-2.7-2-3.3-2-.6 0-1.8-1.3-2.6-2.9-1.9-3.5-5.2-5.7-10.9-7.2-4-1-4.6-1.5-5.1-4.4-.6-2.8-1.2-3.4-4.4-4-2-.4-5.7-.7-8.2-.8-2.5-.1-5.1-.6-5.8-1.1-.9-.5-2.1-.1-3.6 1.3-1.2 1.2-2.9 2.1-3.7 2.1-1.8 0-6.3 6.3-8.6 12.1-2.6 6.5-4.3 8.3-9.6 10.3-5.9 2.2-11.3 1.5-17.5-2.5-4.2-2.7-4.7-2.8-6.9-1.4-2.1 1.4-2.4 1.4-3.5-.5-2.2-3.4-2.8-2.3-2.8 4.9 0 3.9-.4 7.3-1 7.6-.5.3-1 1.4-1 2.3 0 .9-.7 3-1.6 4.7-.9 1.6-2 4.3-2.3 6-.4 1.7-1.7 3.5-3.1 4.2-1.4.7-3.2 2-4 3-2.6 3.2-8.4 7.1-11 7.5-2.1.2-2.7 1.1-3.7 5.3-1.8 8.1-1.9 8 5 9.9 3.4 1 7.7 3 9.6 4.4 1.9 1.5 3.9 3 4.3 3.3 2 1.3 3.6 10.8 2.7 15-1.3 5.5.3 7.5 3 4l1.8-2.4 4.4 3.1c2.4 1.7 7.1 4.7 10.5 6.7 5 3.1 6.6 4.7 8.7 9.1 1.5 3 4.9 9 7.6 13.4 2.8 4.4 5.8 10.8 6.7 14.1 1.7 6.1 1.7 6.2-.6 10.5-1.2 2.4-4.2 5.9-6.5 7.8-5.3 4.4-6.5 8.5-5.5 19.5.4 4.5.9 8.4 1.1 8.6.2.3 1.9 2.2 3.7 4.2 11.8 13.6 11.6 13.3 9.9 14.6-2 1.5-2.4 4.8-1.4 10.7.6 3.6 1.5 5 4.2 6.9 3.4 2.3 3.6 2.3 7.5.7 3-1.2 4-1.3 4-.3 0 .7.9 2.9 2 5 1.1 2 2 4.4 2 5.2 0 2.3 1.3 1.8 4.6-1.8 4-4.2 5.8-8.5 4.4-10.2-.7-.8-1-5.9-.8-13.4l.3-12.2 4.8-3.1c5.4-3.4 13-4.8 16.6-2.9 2.4 1.3 2.7 4.9 1.1 11.6-.8 3.5-.7 4.2 1.2 5.8 1.1.9 2.9 1.5 3.8 1.2 1.3-.4 3.2 1.4 7.4 6.8 3.1 4 5.6 8.3 5.6 9.5 0 3.8 6.2 15.2 8.3 15.2 1.7 0 1.7.2.3 2.2-1.9 2.7-2.1 7.9-.4 12.6 1.1 2.8 1 3.8-.5 6.4-2.2 3.8-2.2 8.2 0 9.9.9.8 1.7 1.2 1.7 1 .1-.2 1.7.6 3.7 1.8 2.7 1.6 3.9 3.1 4.3 5.5.6 3 3.6 7.2 3.6 5 0-.5.5-3.8 1.1-7.4.8-5.4.7-7-.6-10-1.1-2.4-1.5-5.6-1.3-9.5.3-5.8.4-6 3-5.8l2.7.2-1.5-4.1-1.4-4 2.5.6c1.8.5 2.5.2 2.5-.8 0-.8-.5-1.8-1-2.1-1.8-1.1-1-5.1 1.5-7.5 1.4-1.3 2.5-3.4 2.5-4.7 0-1.5 1.2-3.1 3.9-4.9 3.6-2.4 4.3-2.5 7.6-1.4 2 .7 4.9 1 6.4.7 2.4-.5 3.1-.1 4.9 3.2 1.4 2.4 2.2 5.6 2.2 8.4 0 2.5.5 5.8 1.1 7.4l1.1 2.8 1.3-2.4 1.3-2.4.6 2.1c.4 1.2 1.4 2.2 2.2 2.2.9 0 1.4 1.1 1.4 3.4 0 2.9.5 3.6 3 4.5 2.2.7 3 1.6 3 3.4 0 1.3.8 3.2 1.9 4.1 1.8 1.6 1.8 1.8 0 5.4-2.8 5.4-2.5 6.9 1.1 6.4 2.4-.3 3-.9 3-2.8 0-3.4 3.6-5.1 6.1-2.8 1 .9 1.9 2.4 1.9 3.2 0 3 2.3 7.9 4.3 9.1 1.5 1 3 1 6.8.1 5.6-1.4 6.1-2.9 2.4-6.6-3.5-3.5-4.4-5.5-3.8-8.5.4-2.1-.1-3.1-2.2-4.5-10.6-7.5-12.5-11.4-8.4-18l2.1-3.4h-2.6c-2 0-2.6-.5-2.6-2.1 0-2.9 2.9-5 5.2-3.8 1.3.7 1.8.6 1.8-.4 0-.8.6-2 1.4-2.6 1.5-1.3 1.7-.6-3.4-11.1-.9-1.9-2.3-6-3-9-.7-3-1.9-6.9-2.6-8.6-.8-1.8-1.1-4.7-.7-6.7.4-2.7 0-4.3-1.6-6.6-1.2-1.7-2-3.5-1.6-4.1.3-.5-.4-2.7-1.5-5-1.7-3.4-2.5-4-5.2-4h-3.1l.7-5.4c.4-4.1.3-5.7-.7-6.3-.8-.4-1.7-2.3-2-4.1-.4-1.8-1.8-4.8-3.2-6.6-1.4-1.8-2.5-4-2.5-4.8 0-.9-.7-2.1-1.5-2.8-.8-.7-1.5-2.5-1.5-4 0-1.8-.8-3.3-2.3-4.3-2.1-1.3-2.5-2.6-3-9.4-.3-4.4-1.2-10-1.9-12.6-1.3-5.1-.6-6.8 3.8-8.1 1.7-.5 2.3 0 3.2 3.2 1.3 4.1 7.2 10.8 7.2 8 0-2.4 2.4-2.8 8.5-1.5 5.3 1.1 5.5 1.2 5.5 4.3 0 4 1 4.7 4.4 3.4 2-.7 2.6-.6 2.6.4 0 1.6 2.1 2.6 5.5 2.6 1.3 0 3.1 1 3.9 2.2 2.1 3 2 4.1-.4 3.3-1.6-.5-2-.2-2 1.9 0 1.9-.5 2.6-2 2.6-3.6 0-2.3 4 3 9.1 2.8 2.7 5.4 4.9 5.9 4.9 1.7 0 3.2-2.9 2.6-5.2-.9-3.7 3-5.2 6.7-2.6 1.9 1.3 4 1.8 6.5 1.6 5-.4 4.9-2.2-.2-2.6-2.2-.2-4.8-1-5.7-1.9-1.6-1.4-1.6-1.7 0-3.9 1.3-1.9 2.3-2.2 4.5-1.8 1.5.3 3.3.1 4-.4.7-.5 5.2-1.2 10.1-1.5 8.2-.5 10.5-1.3 10.6-3.9 0-.3-1.3-1.9-2.9-3.4-3.1-2.9-3.1-5.4-.1-5.4s3.2-1.6.8-6.1c-2-4-2.2-4.1-3.1-2.1-.6 1.2-1.8 2.4-2.8 2.7-1.1.4-1.9 1.5-1.9 2.6 0 1.4-.5 1.9-1.7 1.7-1.1-.2-1.7-1.1-1.5-2.2.2-1.1-.2-2.2-.8-2.6-.8-.5-.5-2.2 1-5.9 2.5-6.5 2.5-7.7 0-8.4-1.8-.5-9 .9-9 1.7 0 .2.7 2 1.5 3.9.8 2 1.5 4.3 1.5 5.2 0 3.8-7.5 2.9-9-1-.6-1.6-1.7-2.5-3.2-2.5-5.5-.1-8.6-5.9-8.8-16 0-2.4-.6-3.9-2-4.8-2.3-1.4-2.7-4.2-.6-4.2.8 0 2.2-.7 3.1-1.7 2.3-2.2 1.3-6.9-2.3-10.6-2.6-2.7-3-2.8-8.8-2.2l-6.2.6-.4-3.1c-.3-1.7-.1-3.3.4-3.6.4-.3.8-1.7.8-3.1 0-2.8-.7-2.7 8.9-.7 2.3.5 3.6 0 6.7-2.8 7.3-6.5 9.9-7.4 19.9-7.2 7.8.1 9 .3 8.9 1.8-.2 1.4.5 1.6 4.2 1 3.9-.6 4.4-.4 4.4 1.4 0 1.5-1 2.2-4.4 3.1-5.2 1.3-6.1 2.3-4.4 5 1.9 3 4.5 3.2 7.7.5 1.6-1.3 3.6-2.4 4.5-2.4.9 0 1.6-.5 1.6-1.2 0-.6.7-1.9 1.6-2.9 1.4-1.6 1.4-1.8-.5-2.4-1.2-.3-2.1-1.2-2.1-1.9s-1.1-2.6-2.5-4.2c-1.9-2.2-2.7-2.6-3.7-1.6-1.8 1.8-5.2 1.6-4.4-.4.3-.9.6-1.8.6-2 0-.2 1.2-.4 2.8-.4 1.5 0 4.7-.9 7.1-2 6-2.7 7.1-2.6 7.1 1 0 2-.5 3-1.5 3-.8 0-1.5.6-1.5 1.2 0 .7-.3 2.3-.6 3.5-.5 1.9-.2 2.3 1.8 2.3 1.4 0 3.5 1.1 4.8 2.5 1.6 1.7 2.7 2.2 3.4 1.5.5-.5 1.7-1 2.5-1 1.8 0 6.9 8.5 8.8 14.6 1.7 5.6 3.7 7.2 6.1 5 2.4-2.1 2.6-2 6.7.7 3 1.9 3.5 2.8 3.5 6 0 2.7.7 4.5 2.5 6.3 1.4 1.4 2.5 3.5 2.5 4.8 0 3 1.5 4.2 6.6 5 3.6.6 4.3.4 5.7-1.8 1-1.4 1.7-4.4 1.7-6.6 0-2.3.7-5.4 1.5-7.1 1.4-2.6 1.4-3.3.1-6.2-.8-1.7-1.7-4.9-2.1-7.1-.4-2.6-1.2-4-2.6-4.3-2.3-.6-2.5-2.1-.4-2.9 2.1-.9 1.9-3.2-.5-3.9-2.6-.8-2.9-7.5-.4-7.5 1.3 0 1.5-.6.9-2.8-.3-1.5-1.1-2.9-1.6-3-.5-.2-.9-1.9-.9-3.7 0-1.9-.5-4.5-1.1-5.8-1.5-3.3.3-6.5 4.7-8.3 3.1-1.3 3.4-1.8 3.4-5.8 0-3.4-.5-4.9-2.3-6.3-1.2-1-3.6-3.6-5.2-5.9-3-4.2-7.1-6.2-16.8-8.3-2.1-.5-4.8-1.8-6.1-3-1.6-1.5-3.5-2.1-7.2-2.1-5.7 0-6.2-.3-9.3-5-1.3-1.9-3.4-4.4-4.6-5.5-1.3-1.1-2.6-3-3-4.3-1.1-3.9 2.9-2.7 6 1.8 1.7 2.4 3.6 4 4.8 4 1.1 0 4.4.8 7.3 1.7 4.2 1.3 5.9 1.4 7.9.5 1.7-.8 3.3-.8 5.1-.2 4.1 1.6 11.5 1.2 13.6-.7 1.7-1.5 1.9-1.5 3.2.2.7 1 1.8 1.5 2.4 1.1 1.6-.9 1.6 6.6.1 8.1-.8.8.1 1.3 3.1 1.8 2.3.4 4.3 1.2 4.5 1.8.2.7.6 2.4.9 4 .6 2.4.9 2.6 2.6 1.7 2.5-1.3 2.7.5.5 3.4-2.3 3-1.8 4.6 1.3 4.6 5.2 0 8.2 5.5 5.1 9.4-2 2.5-2 2.5 0 6.5 1.9 3.6 2.5 4 6.3 4.3 3.4.2 4.5.8 5.5 2.8 1.1 2.3.9 2.6-3.2 5.3-3.3 2.2-4.5 3.6-4.5 5.4 0 2.1.4 2.4 3.3 2.1 2.7-.2 3.3-.8 3.5-3.1.4-3.6 4.2-3.9 4.2-.4 0 1.6.9 2.8 2.5 3.5 4.3 2 5.8 1.6 5.1-1.3-1.4-5.6 5.9-3.5 8.4 2.4.9 2.2 1.9 3.1 3.5 3.1 2.6 0 5.5-2.4 5.5-4.4 0-.7.8-2.4 1.9-3.7 1.4-1.9 1.9-4.5 2.2-11.9l.4-9.5-7-.1c-4.5 0-8.4-.7-11-1.8-3.1-1.4-4.6-1.6-6.7-.8-2 .7-3 .7-3.8-.3-.8-.9-.8-1.5 0-2 1.7-1.1 1.1-2.5-1.1-2.5-2.3 0-6-1.8-7.1-3.4-.4-.6-.8-3.3-.8-5.9 0-3.4-.6-5.7-2-7.4-1.3-1.7-2-4.1-2-6.9 0-3.2-.4-4.4-1.5-4.4-.8 0-1.5-.9-1.5-2s.5-2 1.2-2c.9 0 .9-.3 0-1.2-1.9-1.9-1.4-9.9.8-13.5l2-3.3-3.8-2.4c-6.7-4.2-8.6-9.7-4.9-14.4 1.2-1.5 1.3-1.4-4.8-4.3-5.3-2.5-14.5-3.3-14.5-1.3 0 2-4.9 2.6-7.3.9-1.2-.8-3-1.5-4.1-1.5-3.9 0-13.6-4.4-13.6-6.2 0-1-1.3-3.2-2.9-5-2.7-3-3.1-3.2-5.4-1.9-2.8 1.5-9.9.9-10.5-.9-.5-1.3-9-7-10.6-7-1.7 0-5.2-3.9-6.5-7.3-.6-1.6-1.1-4.9-1.1-7.5 0-3.9-.4-4.9-2.2-5.7-1.3-.6-3-2.6-3.9-4.5-1-1.9-3.1-4.6-4.9-5.8-3.1-2.4-3.3-2.4-7.6-.7-2.4.9-4.6 2-4.9 2.5-.3.5-2.8.6-5.5.3-3.4-.4-5-.2-5 .6 0 .6-.8 1.1-1.9 1.1-1.3 0-2.2 1.2-3.1 4.4-1 3.6-1.5 4.3-3.2 3.8-1.4-.3-2.1.1-2.5 1.6-.3 1.3-1.9 2.6-4.2 3.3-4.7 1.5-12.7 5.6-16.3 8.2-3.7 2.8-3.8 5.2 0 4.3 1.5-.4 4.5-.9 6.7-1.2 8.3-1.1 8.8-1.3 8.2-3.9-.4-2.2-.1-2.5 2.3-2.5 1.8 0 3.3.8 4.4 2.5 2 3 5.6 4.1 8.5 2.6 3.1-1.7 9.1 1.8 13.6 7.9 2.1 2.8 4.8 5.3 6.2 5.6 1.3.4 4.5 2.8 7 5.5s5.3 4.9 6.2 4.9c2.4 0 4.1 2 4.1 4.7 0 1.3.7 2.6 1.6 3 .9.3 2.4 2.5 3.5 4.9 1.5 3.7 2.3 4.4 4.6 4.4 5 0 7.1 1.1 8.8 4.6 3.6 7.7-.3 13.4-5.5 7.9-2.8-3-4-3.2-4-.5 0 3-1.8 2.7-12.7-2.3-2.1-.9-3.8-.8-7.5.8-1 .4-1.8.3-1.8-.3s1.4-1.3 3.1-1.7c4.1-.9 3.6-3.9-.9-4.3-1.9-.2-3.2-.9-3.2-1.7 0-.7-.7-1.5-1.6-1.7-1.4-.3-1.3-.7.5-3 1.7-2.1 1.9-3.2 1.2-5.1-1-2.6-4.2-4.3-7.3-3.8-.9.1-2.2-.7-2.8-1.8-.7-1.4-2.1-2.1-4.1-2.1-2.6 0-2.9.3-2.4 2 .5 1.5.2 2-1.3 2-1.1 0-2.5.7-3.2 1.5-.7.8-1.6 1.5-1.9 1.5-1.2 0-5.1-7.7-5.1-10 0-1.2-.8-3.5-1.7-5.1-1.5-2.6-2.3-2.9-6.5-2.9-2.7 0-6.5-.7-8.5-1.5-2-.9-4.4-1.3-5.2-1-.8.3-2.5-.5-3.8-1.7-1.7-1.6-3.4-2.2-5.7-2-2.9.3-3.7-.2-6.4-3.9-1.7-2.3-3.3-4.7-3.5-5.2-.2-.7-1.8-.2-3.9 1.1-3.6 2.2-6.5 2.7-10.6 1.6-1.9-.6-2.2-1.1-1.7-3.1.5-2.1.3-2.4-1.5-1.8-3.7 1.2-2-1.2 2.8-3.8 3.8-2.1 5.1-2.3 6.7-1.4 1.1.6 3.8 1.4 6 1.8 2.2.4 5.7 1 7.7 1.4 5.4 1.1 8.4 0 9.6-3.4 1-2.7 1.2-2.8 5.1-2.1 3.6.6 4.5.3 8.8-2.7 3.2-2.3 5.3-4.7 6.5-7.6 2.2-5.5 2.3-8.1.2-7.3-.9.3-2.7.9-4.2 1.3l-2.6.6 2.3-3.1c2.2-3.1 2.2-3.2.5-6.8-1.1-2.3-2.9-4.1-4.6-4.8-2.3-.8-2.8-1.6-2.8-4.3 0-2.7-.5-3.4-2.7-3.9-1.9-.5-3-.2-3.9 1-1.1 1.5-1.4 1-2.9-4-1.9-6.6-1.3-11.9 1.5-13.4 1-.5 3.6-1 5.8-1 4.7 0 5.5-.6 4.1-3.2-.8-1.4-.7-2.8.1-4.8 1.2-2.9 1.2-2.9 4.5-1.3 1.9.9 3.6 2.6 3.9 4 .6 2 1.2 2.3 5.9 2.3 6.1.1 10 2.7 11.1 7.5.4 1.6 1.8 4.4 3.2 6.2 3.4 4.4 3 9.3-.7 9.3-1 0-2.8 1.3-4.1 3-1.2 1.6-2.8 3-3.6 3-1.2 0-1.2-.3-.2-1.6 1.1-1.3.9-1.9-1.3-4.2-3.4-3.3-4.8-2.2-5.5 4.6-.4 4.8-.4 4.9 2.9 6.1 2.9 1 3.7.9 6.1-.9 1.5-1.1 4.1-2 5.7-2 2.1 0 3.2-.6 3.6-2 .3-1.1 1.2-2 1.8-2 .6 0 3.5-1.2 6.4-2.8 5.2-2.7 5.3-2.8 5.3-7.3 0-3.8-.6-5.4-3.5-9-1.9-2.4-3.5-5.5-3.5-6.9 0-1.5-1.6-4-4-6.5-2.2-2.2-4-4.5-4-5.1 0-.7-1.9-3.6-4.3-6.6-2.4-2.9-5.8-7.4-7.5-10-2.2-3.3-4.3-5-6.9-5.9-5.3-1.7-11-5.5-12.4-8.1-.6-1.3-2-3.3-3.1-4.4-1.5-1.7-2.1-4.6-2.9-12.5-.5-5.7-1.1-11.4-1.4-12.5-.3-1.2-3.8-5.3-7.8-9-6.7-6.3-7.4-7.3-8-11.7-.9-6.2-.8-6.1-6.8-9.4-5.5-3-7.3-6-8.4-14-.3-2.6-1.3-6.7-2.1-9-1.4-3.9-1.4-4.4.5-8.2 1.2-2.2 2.1-5.4 2.1-7.1 0-3.6 4.5-12.9 7.1-14.8 2.9-2 2.5-7-.6-8.4-1.4-.6-2.8-2.3-3.2-3.7-.3-1.4-1.5-4.1-2.6-6l-2.1-3.4 4.2.6c3.5.6 4.3.4 5.2-1.2.7-1.3.7-2.2 0-2.6-1.3-.8-1.3-6.5-.1-6.5.6 0 1.2.4 1.5.9.3.5 2.2 1.1 4.1 1.3 3.2.4 3.5.2 3.5-2.3 0-2.8 1.5-3.9 5.3-3.9 1.2 0 4.1-.9 6.4-1.9 3.5-1.6 4.2-2.5 4.5-5.3.3-2.9.7-3.3 3.5-3.6 2.7-.3 3.3.1 3.9 2.2.3 1.3.3 3.4-.1 4.5-.4 1.4.1 3 1.4 4.7 1.9 2.4 1.9 2.9.6 5.4-1.6 3.1-7.1 4.5-13.1 3.4-3-.5-3.4-.4-3.4 1.5 0 1.1.4 2.1.9 2.1 1.7 0 5.4 6.2 6 9.9.5 3.1 1 3.6 3.6 3.9 5.1.5 8.4 2.3 10.6 5.9 2.7 4.4 11.3 10.7 16.4 12.1 2.2.6 7.3 2.3 11.3 3.8l7.2 2.7v6.7c0 3.7-.7 8.4-1.5 10.4-1.5 3.5-1.5 3.6 1.3 5 3.6 1.8 5.7 4.3 7 8.5 1 2.9.9 3.7-.9 5.9l-2 2.6 2.3.9c1.3.5 4 .6 6.1.4 2.8-.4 5.5.2 10.2 2.4 5.8 2.6 7.5 2.9 16.6 2.9 7.6 0 10-.3 9.7-1.3-.3-.6-2-1.4-3.9-1.7-2.6-.4-3.5-1-3.7-2.7-.2-1.6-1.7-2.7-5.6-4.2-10.2-3.8-17.7-9.6-21.8-16.8-1.7-2.9-4.5-6.5-6.3-7.9-5.1-3.9-5.6-9-1.5-15.4l3.2-4.9 4.1 1.6c2.3.9 5.8 3.1 7.7 4.9 3.4 3.1 3.7 3.2 10.6 2.7l7.1-.5 2.3 4.6c1.2 2.6 4.4 6.9 7.1 9.5 2.7 2.7 4.9 5.6 4.9 6.6 0 3.1 5.3 11.5 8.5 13.5 1.8 1.1 4 3.8 5 6 1.2 2.7 2.3 3.9 3.3 3.5.7-.3 2.5-.5 3.9-.5 2.2 0 2.4-.3 1.8-3.1-.5-2.3-.2-3.6 1.3-5.2 3.1-3.6 3.5-5.7 1-6.6-1.3-.5-1.7-1-1-1.5.7-.4.7-1.4-.3-3.3-.9-1.8-1.1-3.2-.4-4.4 1.4-2.8 1.1-3.6-1.8-4.4-1.6-.3-7.2-3.1-12.6-6.2-7.2-4.1-10.5-6.6-12.2-9.4-1.4-2-2.9-4-3.4-4.3-.5-.4-1.5-2.2-2.1-4.1-1-3.1-.9-4 1-6.9 1.9-3.2 2.3-3.4 5-2.4 2.4.8 3.6.6 6.2-1 2.8-1.7 4.1-1.9 8.6-1.2 4.3.7 6.4 1.8 11.3 6.1 5.5 4.8 6.4 5.2 12.3 5.6 7.2.6 9.4 2.5 11.6 9.9.8 2.7 2.6 4.9 5.6 7.2 2.4 1.8 4.7 4.4 5 5.8.4 1.5 1.2 2.3 1.9 2 .7-.2 3.2-1 5.4-1.7 2.9-.9 4-1.7 3.6-2.7-.3-.7-.5-1.7-.5-2.1 0-.5-2.4-3.3-5.3-6.4-3-3-6.7-8.1-8.3-11.2-2.2-4.2-3.6-5.8-5.6-6.2-1.4-.3-2.8-1.3-3.1-2.3-.2-1-3.7-3.3-7.9-5.3-6.6-3.2-7.7-4.1-9.1-7.7-1.1-2.9-2.1-4-3.6-4-1.9 0-2.1.6-2.1 5.5 0 5.2-.1 5.5-2.5 5.5-4 0-9.4-3.2-11.6-6.8-1.1-1.9-2.6-6-3.3-9.2l-1.4-5.8 4.9-.6c3.8-.5 4.9-1.1 4.9-2.5 0-1.2-1.3-2.2-4.2-3.1-6-1.7-7.9-3.3-11.4-9.3-2.5-4.3-3.6-5.3-6.2-5.5-4-.4-4.1-1.9-.2-8.6 2.8-5 3.2-5.2 10.5-7.4l7.6-2.2 4.5 3c5.3 3.7 14.4 7 19.2 7 2.8 0 4.5-.9 8.2-4.4 2.6-2.5 8-6.1 11.9-8l7.1-3.6v-4.5c0-3.8.4-4.7 2.8-6.2 1.5-.9 3.6-2.4 4.7-3.3 1.8-1.5 13.8-6 16.1-6 .5 0 1.8 1.5 2.8 3.2 4.2 7.2 7.7 10.8 10.5 10.8 1.5 0 3.6.7 4.7 1.5 1 .8 3.2 1.5 4.7 1.5 1.6 0 3.7.5 4.7 1 1.6.9 2.5.4 5.2-2.6 9.3-10.4 9.3-10.4 14.2-10.4 3.2 0 4.6-.4 4.6-1.4 0-.7.9-2.5 2-3.9s2-3.2 2-4.1c0-1.3 1.1-1.6 5.5-1.6 5 0 5.7.3 6.7 2.5 2.2 4.8 7.2 6.9 16.2 6.7 6.6 0 8.5.3 10.1 1.8 1.1 1.1 6 3.7 10.7 5.9 7.6 3.5 9.6 4 15.5 4 3.7 0 13.1.3 20.8.8 12.1.8 14.7 1.3 19.1 3.5 5.1 2.7 7.4 5.8 7.4 10.3 0 3 .2 3 6.5.6 3.6-1.4 5.1-2.5 5.3-4 .2-1.4 1.9-2.9 4.6-4.3 3.9-1.9 4.3-2.4 4.2-5.7-.1-2.9.3-3.6 1.7-3.6 1 0 2.5-.8 3.2-1.9.8-1 1.8-1.5 2.4-1.1.6.3 1.1 0 1.1-.9 0-.8 1.5-2.4 3.3-3.5 3.2-1.9 3.3-2.3 3.2-7.5-.1-3-.8-6.8-1.5-8.5-1-2.6-1-3.5.4-5.6 2.2-3.3 2-4.2-1-4.9-2.2-.6-2.4-.9-1.2-2.3.8-1 1.4-4.6 1.4-9.4.1-4.2.5-8.2.9-8.8.3-.6 2-1.1 3.8-1.1 2.5 0 4.4-1.2 8.7-5.4 6.6-6.4 10.3-7.9 14.9-6 3.1 1.3 3.2 1.2 4.3-1.4 1.6-3.9 1.4-10.8-.6-17.2-.9-3-1.8-9.2-1.9-13.7l-.2-8.3h-3.1c-2.3 0-3.4-.6-4.2-2.4-1.1-2.6-11-10.4-15.5-12.4-1.5-.7-5.2-1.2-8.2-1.2-4.4 0-5.7-.4-7-2.2-1-1.5-2.6-2.3-4.8-2.3-1.7 0-4.1-.4-5.2-.7-1.3-.4-3.7.3-6.7 2z"/><path d="M589.3 142.8c-1.5 1.6-3.6 3.1-4.6 3.5-1 .4-2.9 3.2-4.3 6.2-2 4.3-2.4 6.4-1.9 9.4.6 3.6.9 3.9 4.6 4.5 2.1.3 3.9 1 3.9 1.4 0 .4 1.3 2.3 2.9 4.2l2.9 3.5 2.2-2c1.2-1.1 4.3-2.7 6.8-3.6l4.7-1.6.7-6.3c.5-4.2.3-6.8-.4-7.7-.8-1-.6-1.8.7-3.3 1.6-1.8 1.6-2 .2-2-.9 0-2.4-1.1-3.3-2.5-1.1-1.7-2.6-2.5-4.4-2.5-1.5 0-3.5-.9-4.5-2-2.3-2.6-2.8-2.5-6.2.8zM678.5 257c-.3.5-1.7 1-3.1 1-1.8 0-2.4.5-2.4 2.2-.1 2.4-3.1 6.8-4.8 6.8-.5 0-1.5.7-2.3 1.6-1.1 1.4-1.5 1.3-3.1-.8-.9-1.3-1.8-2.8-1.8-3.4 0-.7-1.2-1.9-2.6-2.9-2.2-1.4-3-1.5-5.5-.4-2.5 1-3.2.9-4.2-.4-1.1-1.4-1.7-1.4-6.4.1l-5.3 1.7v4.7c0 3.4.4 4.8 1.4 4.8 1 0 1.2 1.5.8 7-.5 7.4 0 8.1 3.8 6 1.1-.6 3-.8 4.3-.5 1.9.5 2.2 1.1 1.9 3.9-.4 3.8.7 4.6 5.5 3.9 3.2-.5 3.2-.5 1.8-3.4-.8-1.5-1.5-4.9-1.5-7.4 0-3.8.4-4.7 2.3-5.4 3-1.2 3.7-.6 3.7 3.5 0 2.1-.4 3.3-1 2.9-1.7-1.1-1.1.5 1.5 3.9 1.4 1.8 2.5 3.7 2.5 4.3 0 1 4.3 3.3 6.3 3.3.7 0 1.8-.9 2.5-2.1 1.1-1.8 1.1-2.4-.2-3.8-.8-.9-1.8-3.5-2.2-5.7-.6-3.8-.4-4.3 2.5-6.3 1.7-1.2 3.1-2.9 3.1-3.7 0-2.6 3-7.4 4.6-7.4 1.2 0 1.5-.6 1-2.3-.3-1.2-.6-3.2-.6-4.5 0-2.3-1.4-3-2.5-1.2zM49.8 290.6c-1 1.1-4.2 1.8-9.7 2.1-7.5.5-8.3.8-10.2 3.4-1.9 2.6-1.9 3-.4 5.9.8 1.6 2 3 2.5 3s.7.6.4 1.4c-.8 2.1 1.4 5.6 3.5 5.6 1.3 0 2.1 1 2.5 3.4.4 2.2 1.4 3.7 2.6 4.1 1.1.4 2 1.2 2 1.8 0 .7 1.6 2.3 3.5 3.6 2.9 2 3.6 3.2 4.6 8.1 1.5 7.5 4.2 11.9 8.2 13.3 1.8.7 7.5 3.3 12.7 5.9 5.5 2.8 9.8 4.4 10.3 3.9.5-.5-.3-3.4-2-7-2.6-5.3-3.2-6-4.3-4.6-1.6 1.9-6 2-6 .1 0-.7-2-2.1-4.5-3-5-2-5.1-2.2-6.1-12.9-.5-6.7-.4-7.7 1-7.7 2.8 0 1.7-1.7-2.2-3.2-3-1.2-4-2.3-5.1-5.5-1.6-4.8-1.2-5.7 3.9-8.3 5.4-2.8 8-11 3.4-11-.7 0-1.9-.9-2.6-2-1.5-2.4-5.7-2.6-8-.4zM630.2 329.2c-1.3 1.3-1.6 7.5-.6 10.3.6 1.4 1.2 1.1 4-1.6 3.8-3.6 4.3-6.5 1.7-8.5-2.2-1.7-3.6-1.7-5.1-.2zM780 353c-.8.6-3.1.9-5 .8-1.9-.1-5.2.4-7.2 1.1-3.4 1.1-3.8 1.6-3.8 4.6 0 2.8-.5 3.5-3.2 4.4-1.8.7-5.9 1.4-9 1.8-3.7.4-6.3 1.2-7.4 2.4-2 2.3-4.2 2.4-6.9.5-1.8-1.2-2.3-1.1-4.8 1-1.6 1.4-2.7 3.3-2.7 4.9 0 1.4-.7 3.9-1.6 5.6-1.4 2.8-1.4 3.2.6 6.4 1.2 1.9 2.9 3.5 3.7 3.5.9 0 3.7 1.3 6.2 2.9 5.7 3.6 13 4.4 16 1.7 1-1 3.6-4.6 5.7-8.2l3.7-6.4h4.9c6.4 0 8.8 1.3 8.8 4.9 0 2.5-.6 3.1-5.4 5-2.9 1.2-6.4 3-7.7 3.9-1.3.9-4 2.2-5.9 2.7-3.6 1.1-5.5 4.5-2.6 4.5.9 0 2.8 2.1 4.3 4.7l2.6 4.8 6.1.2c4.5.1 7.5.8 11.6 3 4.4 2.3 6.8 2.8 12.2 2.8 6 0 7.1-.3 9.4-2.7l2.7-2.6-3.5-4.9c-5-6.8-5.9-8.9-5.2-11.7.5-2.2.9-2.3 2.9-1.4 1.9.9 2.5 2.1 3.1 6.5.8 6.5 2.7 8.9 7.7 9.7 3.4.6 3.7.5 3.7-1.7 0-1.3-1.3-4.4-3-7-4.5-7.2-7.1-12.7-6.5-13.7.3-.5-.5-1.2-1.9-1.6-1.7-.4-2.9-1.9-4.1-4.9-1.2-3.3-2.7-5-6.1-7-4.8-2.8-5.2-4-2.9-8.6 1.5-2.9 1.5-3-1.4-4.7-2.3-1.3-2.9-2.2-2.5-3.9.4-1.5 0-2.5-1.4-3.2-2.5-1.3-2.3-1.3-4.2-.1zM511 370.9c0 .4-1.6 2.8-3.5 5.2-1.9 2.4-3.5 5.3-3.5 6.3 0 1.1-.7 2.7-1.5 3.6-.9 1-1.3 2.4-.9 3.3.5 1.4 1.2 1.2 5-1.5 2.4-1.7 4.4-3.9 4.4-4.7 0-.9 1.1-3.4 2.5-5.6 3.2-5.3 3.2-7.5 0-7.5-1.4 0-2.5.4-2.5.9zM82 376c0 2.4 2.7 6.3 5.4 7.7 2.7 1.4 3.1 1.4 4.3-.3 1.1-1.5 1-2.1-.5-3.7-3.1-3.4-9.2-5.9-9.2-3.7zM472 380.2c0 .7 1.6 4 3.6 7.2 2 3.3 3.3 6.7 3.1 7.8-.4 1.4.1 1.8 1.9 1.8 1.4 0 3.6.7 4.9 1.6 3.3 2.1 5 1.3 7.5-3.6 1.8-3.6 1.9-4.1.5-4.7-.9-.3-2.1-.1-2.8.6-1.6 1.6-2.2 1.4-3.5-1.4-.6-1.4-1.7-2.5-2.4-2.5-.6 0-3.3-1.8-5.9-4-4.9-4.1-6.9-4.9-6.9-2.8zM457 382.5c-.5 1.4-1.6 2.5-2.4 2.5-1.4 0-4.2 3.8-3.4 4.5.2.1 1.7.6 3.5.9 2.5.6 3.2.4 3.7-1.2.4-1 1.8-2.4 3.3-3.1l2.6-1.2-2.3-2.4c-2.9-3.1-3.8-3.1-5 0zM571.6 417.2c-.3 1.3-.8 3.6-1.1 5.3-1.7 8.4-1.7 8.5-.3 8.5 1.9 0 6.1 5.7 4.8 6.5-.6.3-1 1.6-1 2.8.1 2 .4 1.8 3-1.3 2.4-2.9 3.2-3.3 4.6-2.4 2.6 1.6 2.8 3.1.5 3.9-2 .6-2 .8-.4 3.8 1.5 3.1 1.6 3.1 2.4.9.9-2.3 3.9-2.1 3.9.3 0 .9 1 .9 4.4-.2 3.9-1.3 4.4-1.8 3.7-3.6-.4-1.2-3.3-4.1-6.5-6.5-5-3.9-5.6-4.7-5.6-8 0-2.9-.8-4.5-4.2-7.9-4.7-4.8-7.5-5.5-8.2-2.1zM693.7 470.9c-1.7.6-1.7.8-.3 2 .9.7 1.6 2.6 1.6 4.1 0 2.7 1.5 4 4.5 4 .7 0 1.5-1.7 1.8-3.7 1-5.7-2.4-8.5-7.6-6.4zM736.5 472.7c-6.8.6-11.9 4.4-11 8.2.8 3.3 4.9 7.6 8.7 9.2 4.1 1.7 10.3 14.4 9.4 19.3-.8 4.2-2.7 6.3-6.4 7.3-3.1.7-7.1 3.4-7.2 4.7 0 1.6 10.8 14.1 13.8 15.9l3 1.7.7-3.2c.9-4.3 2.2-5.8 5.1-5.8 2.7 0 3.9-1.6 3.5-4.8-.1-1.4.9-3.6 2.8-5.8 3.4-3.8 5.1-8.6 3.3-9.2-.8-.2-1.2-3.2-1.2-8.2 0-4.4-.5-9.1-1.2-10.5-1-2.3-1-2.8.5-3.6 1.1-.7 1.7-2.3 1.7-4.9 0-4.5-1.1-5.6-4-4-1.8.9-2.3.6-4-2.3-2.1-3.5-5.5-4.9-10.4-4.5-1.1.1-4.3.3-7.1.5zM688.5 479c-.7 1.2.2 3 1.6 3 .5 0 .9-.9.9-2 0-2.1-1.5-2.7-2.5-1zM766 480.9c0 2.4 2 4.1 4.8 4.1 1.3 0 3.2.5 4.3 1 1.4.8 1.9.7 1.9-.3 0-2.1-3.5-4.8-7.4-5.7-3-.7-3.6-.5-3.6.9zM142.3 487.9c.3 1.5.1 2.1-1 2.1-1.2 0-1.4.8-.8 3.7.7 4 2.9 8.8 4.4 9.7.5.4 1.5-1 2.1-2.9 1.1-3.3.5-7.5-1.9-12.4-1.2-2.5-3.5-2.7-2.8-.2zM129.7 493.6c-.2 1.4-.2 5.5.1 9 .4 6.1.3 6.7-2.3 9.4-1.6 1.7-3.4 3-4 3-1.8 0-4.3-3.1-5.1-6.4-.6-2.4-.8-2.6-1.6-1.2-.5.9-1.5 1.6-2.2 1.6-.8 0-1.6 1.7-2 4.2-.4 2.3-1.3 5.6-2 7.2-.7 1.7-1.9 5.5-2.6 8.5-1.2 5.2-1.2 5.5 1.1 7.2 3 2.3 7.5 2.5 8.3.3 1.1-2.8.6-14-.6-15.2-.9-.9-.8-1.2.8-1.2 1.8 0 2.9 2 7 13.5.7 1.8.6 1.9-1.1.5-1.7-1.3-1.8-1.3-1.3 0 .2.8 1.1 3.6 1.8 6.1 1 3.2 2.2 5 4.3 6.3 2.9 1.6 3.1 1.6 5.2-.4 3.1-2.9 5.6-2.5 11 1.6 3.7 2.9 5.8 3.7 9.6 3.9 4.5.2 4.9.1 5.8-2.8 1.6-4.4 1.4-5.4-1.9-9-4.8-5.2-10-12.5-11.6-16.2-1.3-3.1-1.7-3.4-3.4-2.5-1.1.6-2.4.8-2.9.5-1.4-.8-2.4-6.7-1.3-7.4 1.2-.7-1.7-15.2-3.8-19.1-2.4-4.6-4.5-5.1-5.3-1.4zM148 505.6c-1.4 1-2.6 1.8-2.8 1.9-.9.6 3.1 7.5 4.6 7.9 3.7 1.2 7.1-2.1 4.1-3.9-.5-.4-.9-2.1-.7-3.8.4-3.8-1.5-4.5-5.2-2.1zM603 562.6c-5.5 3.6-7.1 5.4-6.6 7.2 2.8 10.9 2.9 11 5 10.2 3-1.1 7.6 2.4 7.6 5.6 0 1.7 1.7 4.3 5.3 7.8 2.9 2.9 6.1 7.2 7.1 9.4 2.1 4.6 3.5 5.2 5.8 2.4 3.8-4.5 4.9-13.2 1.3-10.2-1.3 1-1.5.9-1.5-1.1 0-1.3.5-3.1 1-3.9.7-1.1.2-2.1-1.8-3.7-2.2-1.7-2.5-2.4-1.4-3.4.6-.7 1.2-2.5 1.2-4 0-2.3-.5-2.8-3.7-3.3-9.3-1.6-9.2-1.5-10.3-5.7-.6-2.2-1.8-4.3-2.6-4.6-.7-.3-1.4-1.3-1.4-2.3 0-2.8-1.2-2.9-5-.4zM142.9 573.7c-1.7.4-3.9 7.5-3.9 12.7 0 2.5.6 3.5 2.5 4.4 1.4.6 3.2 2.9 4.1 4.9 3.5 7.9 3.8 8.4 6.7 9 2.1.4 3.4 1.7 5.2 5.3 2.1 4.1 2.7 4.7 4.9 4.3 2.9-.6 4.1-3 2.5-4.9-1.3-1.6.1-4.6 3.2-6.8 2.5-1.7 6.2-.5 9.4 3.2l2 2.4 1.9-2.1c1.8-2 1.8-2.1-1.7-5.3-1.9-1.8-4.3-3.8-5.3-4.4-1-.6-2.3-2.6-2.9-4.4-1-3-1.9-3.6-8.4-5.8-6.4-2.1-7.6-3-11.3-7.8-3.8-5.1-5.1-5.8-8.9-4.7zM824 591c0 .5-.7 1-1.6 1-.9 0-2.9 1.1-4.6 2.5-1.6 1.4-3.5 2.5-4.2 2.5-.7 0-2.2 1.1-3.5 2.3-1.9 2.2-2 2.5-.6 3.7 1.1.9 1.4 2.2 1 4.1-.9 3.9.8 4.3 4 .9 3.6-3.8 8.6-4.8 12-2.6 1.4.9 2.5 2.3 2.5 3.1 0 2.1 7.1 7.5 9.8 7.5 1.5 0 3.9-1.5 6.3-4 2.2-2.2 4.7-4 5.8-4 1 0 2.4-.7 3.1-1.5.7-.8 2.4-1.4 3.9-1.3 2.9.2 7.1-1.7 7.1-3.2 0-.6-.7-1-1.5-1-2 0-1.9-2.9.2-5.2 1.7-1.9 1.6-1.9-.9-1.3-1.6.4-3.8.1-5.6-.9-4.7-2.4-6.5-2.1-5.8.9.4 1.4.4 2.5.2 2.5-1.2 0-10.6-5.4-10.6-6.1 0-.5-3.8-.9-8.5-.9-5 0-8.5.4-8.5 1zM456.8 596.1c-3.6 1.4-3.6 4.3-.2 6.6l2.6 1.7-2.2 1.8-2.2 1.8h2.5c1.4 0 2.7.5 2.9 1.1.6 1.8 5.8-1.2 5.8-3.4 0-1.1.9-3.4 2-5.3 1.2-1.8 1.7-3.5 1.1-3.8-1.9-1.2-9.7-1.5-12.3-.5zM444.4 606.4c-.3.9-.3 2.4.1 3.3.6 1.7.7 1.7 2.1-.2.8-1 1.3-2.4 1.1-2.9-.6-1.7-2.7-1.8-3.3-.2zM776.5 609c-1.1.4-3.3 2.2-4.9 3.8-2.7 2.9-3.2 3-10.8 3-8.2 0-11.8 1.5-11.8 5 0 .8-1.8 3.2-4.1 5.4-2.7 2.7-3.9 4.6-3.7 6.1.3 2 .8 2.2 5.3 1.9 3.5-.2 6.5-1.2 10-3.4 2.9-1.7 6.9-3.3 9.5-3.6 5.4-.6 6.6-1.5 14.2-11.5l5.9-7.7-3.8.1c-2.1 0-4.7.4-5.8.9zM555 610.5c0 .8-.6 1.5-1.3 1.5-.8 0-1.9 1.1-2.5 2.5-1.3 2.8-1.7 16.7-.5 17.9.4.3 3.5-2.4 6.9-6 7.2-7.8 8.5-11.6 5.2-15.1-2.5-2.6-7.8-3.2-7.8-.8zM629 610.9c.1 2.3 1.9 4.3 7.1 7.9 2.6 1.7 5.8 4.5 7.2 6.2 1.4 1.6 3 3 3.6 3 .5 0 1.9 1.3 3 2.9 1.8 2.5 2.5 2.8 5.3 2.2 2.7-.5 3.4-1.2 3.6-3.5.2-1.6 1-3.9 1.8-5.1 1.2-1.8 1.2-2.8.3-4.8-1-2.1-2.3-2.8-6.8-3.7-3.1-.6-6.6-1.5-7.9-2-1.3-.6-3.4-.7-4.7-.4-1.9.5-2.4.1-2.7-1.7-.3-1.9-.9-2.2-5-2.4-3.8-.1-4.8.2-4.8 1.4zM618.5 638.6c1.6 3.9 1.1 7.8-1.3 10.6-.8 1-1 1.8-.4 1.8s1.3 1.3 1.7 3c.8 3.7 1.4 3.7 4.8.2 2.2-2.2 2.7-3.8 2.7-7.6 0-5.8-1.2-8.1-5-10.1-4.1-2.1-4.2-2-2.5 2.1zM667.9 637.6c-1 1.2-1 2-.1 3.5.7 1 1.2 3.5 1.2 5.4v3.5l6.7-2.5c3.6-1.4 7.2-3 8-3.6 1.9-1.7 1.6-3.9-.7-3.9-1 0-3.1-.6-4.6-1.2-2.2-1-2.8-1-3.2 0-.6 2-3.2 1.4-3.2-.8 0-2.4-2.2-2.6-4.1-.4zM565.4 640.8c-2.1 1.3-4.6 7.3-3.6 8.5.6.8.5 4-.3 8.9-1 6.2-1 7.8 0 7.8 1.9 0 7.5-6.8 7.5-9 0-1.1 1.3-3.2 3-4.6 2.7-2.5 2.8-2.8 1.2-4-.9-.7-2.5-1.4-3.4-1.4-1.4 0-1.8-.8-1.8-3.5 0-3.5-.6-4.1-2.6-2.7zM805 662.1c0 5.2.4 7.2 2 9l1.9 2.4.1-2.4c0-1.4-.5-4-1.2-5.8-1-2.9-1-3.6.2-4.3.8-.5 2.3-.7 3.3-.4 2.1.7 2.2-.5.2-3.4-1-1.4-2.5-2.1-4-2-2.4.2-2.5.5-2.5 6.9zM464.5 656.6c-3.8.8-13.3 5.9-14.5 7.8-2 3.1.3 4.3 4.5 2.3 2-.9 4.7-1.7 6.1-1.7 1.7 0 2.8-.7 3.1-1.9.3-1.1 2.2-2.7 4.4-3.5 2.1-.9 3.9-2 3.9-2.6 0-1-3.6-1.2-7.5-.4zM418.9 673.1c3.1 3.3 6.3 3.6 6.9.6.4-1.9-3.2-3.7-7.3-3.7h-2.4l2.8 3.1zM571 681.3c-2.8 2.2-5 6.1-5 8.9 0 3.1 1.1 3.6 3 1.3 1.8-2.2 3.5-1.8 4.8 1 .6 1.4 1.5 2.5 2 2.5 1 0 3.2-6.8 3.2-10 0-4-4.8-6.3-8-3.7zM835.4 681.4c-.3.9-1.4 1.6-2.4 1.6-3.2 0-3.2 1.8 0 3.6 1.6 1 3 2.3 3 2.9 0 1.9 4.9 5.5 7.5 5.5 3 0 3.2-1.4.5-3.7-1.1-1-2.3-3.1-2.6-4.8-.3-1.6-1.7-3.8-3-4.8-2.1-1.6-2.5-1.6-3-.3zM687.8 683.5c-2 1.4-3.9 3.4-4.3 4.5-.3 1.1-1.4 2-2.4 2s-2.4.6-3.1 1.4c-.6.8-2.1 1.6-3.3 1.8-1.4.2-2.3 1.1-2.5 2.5-.2 1.3-.8 2.3-1.4 2.3-.6 0-.4.8.4 1.7.9 1 1.8 3.8 2.1 6.2.4 3 1.5 5.3 3.5 7.5 1.7 1.7 3.2 4.4 3.4 6 .4 4.1 2.2 4.3 5.4.7 1.5-1.7 3.7-3.1 5-3.1 1.9 0 2.6-1.2 5.3-9.3 1.7-5 3.1-10.5 3.1-12.1 0-3.5-4.9-14.6-6.4-14.6-.6 0-2.8 1.1-4.8 2.5zM653 690.7c-5.6 3.3-6.4 4.5-4.4 6 1.4 1 1.3 1.4-1 2.8-2.2 1.5-2.6 2.5-2.6 6.6 0 4.6.2 5 3.8 6.8l3.9 2 5.2-5.3c4.5-4.6 5.1-5.5 4.3-7.7-.7-1.7-.5-3.4.6-5.7 1.4-2.8 1.4-3.4.2-4.2-.8-.5-2.7-.6-4.3-.3-2.7.6-2.9.5-1.8-1.6 1.4-2.6 1.6-2.6-3.9.6zM846.5 701.2c.4 1.3.8 2.3.9 2.3 5.5 2.2 5.8 2.4 3.9 4.9-1.4 1.9-2.1 2.2-3.2 1.3-1.2-1-1.4-.9-.8.5.3.9.9 3.4 1.3 5.5 1 5.8 2.1 7.3 5.4 7.3 2.3 0 3-.5 3-1.9s.8-2.1 2.8-2.3c3.1-.3 4-3.5 2.2-8.2-.8-2.3-1.3-2.6-2.5-1.6s-1.8.6-3.6-2.4c-1.2-2.1-3.9-4.6-6.1-5.7l-4-2 .7 2.3zM592.4 707.1c.3 1.3 1.1 4.6 1.6 7.2.5 2.7 1.6 6.1 2.2 7.5 1.5 2.9 3.8 4.1 3.8 1.9 0-.9 1.1-2.4 2.5-3.5s2.5-2.3 2.5-2.6c0-1.6-6.3-10.4-7.8-10.9-.9-.2-2.6-.8-3.6-1.3-1.7-.6-1.8-.4-1.2 1.7zM637.6 707.1c-3.1 2.4-3.3 5.3-.7 9.2l1.8 2.9.6-2.4c1-4.2 1.9-11.8 1.4-11.8-.2 0-1.6.9-3.1 2.1zM630.4 715.1c-.9 1.5.1 2.1 2.6 1.7 2.1-.3 2.1-.3.1-1.5-1.4-.9-2.2-.9-2.7-.2zM744 722c0 .5-.8 1-1.7 1-1 .1-3 1.8-4.5 3.9-1.6 2.3-4.1 4.4-6.2 5.2-2.2.8-3.7 2.1-4.1 3.6-.4 1.7-1.2 2.3-3.2 2.3-1.5 0-3.7 1-5 2.2-1.3 1.2-2.3 1.6-2.3 1 0-.7-.4-1.2-1-1.2-2.1 0-.9 3.7 1.5 4.8 3.5 1.6 6 1.5 7.5-.3.7-.8 2-1.5 3-1.5s4.3-2.9 7.5-6.5c6.5-7.4 9.8-9.5 15.1-9.5h3.7l-4.4-3c-4.7-3.2-5.9-3.6-5.9-2zM880.1 726.6c-3.8.8-6.9 2-7.4 3-.5.9-2.4 2.2-4.2 3-1.9.8-5.3 3.8-7.7 6.7-3.3 4.1-5.3 5.7-8.5 6.5-4.1 1.1-4.3 1.3-4.3 5.1 0 3.1.6 4.4 2.6 6 3.8 3 4.4 2.7 4.4-2 0-5.5 2.8-7.8 9.4-7.9 4.1 0 6.2-.8 12-4.4 3.9-2.4 9.8-5.5 13.1-6.8 4.5-1.8 6.1-3 6.3-4.6.3-1.6-.2-2.2-1.6-2.2-1 0-2.7-.9-3.7-2-2.1-2.3-1.9-2.3-10.4-.4zM579.9 736c-1.4 1.9-2.6 4.8-2.7 6.4-.3 5.3-4.8 7.8-7.8 4.5-1.9-2.2-4.4-2.5-4.4-.7 0 3.1 1.3 5.4 3.2 6.3 3.5 1.6 3.4 3.5-.1 3.5-2.1 0-3.4-.6-3.8-1.7-.7-1.8-5.3-6.2-6.5-6.3-.9 0-3.1 13.7-2.4 14.9.4.6 1.8.6 3.9 0 1.7-.5 6-.9 9.4-.9 3.4 0 7.3-.4 8.7-1 2.3-.9 2.6-1.5 2.6-6.2 0-6.5.8-9.8 2.4-9.8.7 0 1.8-1.7 2.6-3.8l1.8-4.5c.2-.4-.5-.7-1.6-.7-1.2 0-2.2-.8-2.4-1.7-.3-1.4-.9-1-2.9 1.7zM590.5 742.8c-3.4.7-4 2-2 4.2 2.8 3.1 5.5 2.6 5.5-.9 0-3.4-.6-3.9-3.5-3.3zM662.3 744.2c-2.5 3.2-2.5 9.8.1 9.8.6 0 2.7 2.3 4.6 5 2.8 3.9 4 4.9 6 4.7 2.2-.2 2.6-.8 3.1-5.2.7-5.7.2-7.2-3.2-8.9-1.3-.6-3-2.4-3.7-3.9-1.4-2.9-5.2-3.7-6.9-1.5zM648.5 754c-3.2 1.3-10.5 8.5-10.5 10.3 0 2.1 1.1 2.1 5.8.1 4.9-2 9.2-6.2 9.2-9.1 0-2.4-1.1-2.7-4.5-1.3zM614.3 761.8c-1.6 1-.5 5.2 1.3 5.2.7 0 2.1.8 3.1 1.9 1 1 2.8 2.2 4.1 2.5 1.9.6 2.2.4 2.2-2.2 0-2.2-.9-3.4-4.1-5.5-4.4-2.9-4.8-3-6.6-1.9zM950.4 762.8c-.6.4-2.5 2.8-4.3 5.5-2.7 3.9-2.9 4.8-1.7 5.3.9.3 1.6 1.2 1.6 2s.9 1.4 2 1.4c1.4 0 2 .7 2 2.4 0 1.3.7 2.9 1.5 3.6 1.8 1.5 2.1.8 3-7.8.6-5.7.5-6.2-1.4-6.2-2.7 0-3.8-2-1.7-3.2.9-.5 1.6-1.6 1.6-2.3 0-1.6-.9-1.9-2.6-.7zM786 765.9c0 .5.7 1.4 1.5 2.1 1.8 1.5 2 3.9.3 4.1-.7.1-4.4.1-8.2-.1-6.4-.2-6.8-.1-6.1 1.6.4 1.1 1.3 3.3 1.9 4.9 2.3 6.3 4.2 8.2 7.5 7.7 3.2-.4 3.9-2 2-3.9-.6-.6-.9-2.3-.5-3.6.5-2.1 1.3-2.5 6.6-3.1 3.8-.4 6-1.2 6-1.9 0-1.9-7.3-8.7-9.3-8.7-.9 0-1.7.4-1.7.9zM872.5 770.9c-.3 1-.1 3.1.5 4.5.8 2.2 1.5 2.7 3.6 2.4 3.6-.4 4.8-2.6 3.5-6.1-.8-2.1-1.7-2.7-4-2.7-2 0-3.2.6-3.6 1.9zM674.7 790.1c-1.4.8-1.6 1.4-.6 2.5.6.8 1.9 1.4 2.9 1.4 1.2 0 1.9 1.1 2.4 3.7 1.2 7.6 1 8.3-2.9 8.3-4.6 0-4.4 1.3.6 3.8 3.8 1.9 4.2 1.9 7.2.4 1.8-1 3.3-1.8 3.5-1.9.2 0 0-2.3-.4-4.9-.5-3.8-1.6-5.8-5.2-9.6-4.9-5.2-4.9-5.2-7.5-3.7zM895.5 790.2c-.4 1-1.5 1.8-2.5 1.8-2.1 0-3.4 3.8-1.9 5.6.7.8 1.8 1 3.2.5 1.8-.7 2.4-.3 3.9 3.1 1.7 3.8 1.7 3.8 5 2.5 2-.8 3.4-2.2 3.6-3.4.3-1.7-.1-1.9-2.9-1.5-2.9.4-3 .3-2-1.6 1.6-3 1.4-4-1.1-4.8-1.3-.4-2.8-1.4-3.5-2.3-1.1-1.5-1.2-1.4-1.8.1zM669.2 794.5c.1 1.6.9 3 1.6 3.3 1.8.6 1.5-3.3-.4-4.9-1.4-1.1-1.5-.9-1.2 1.6zM992 795c-1.4 1-4.1 2.2-6 2.5-1.9.4-7.1 2.6-11.5 5s-9.1 4.6-10.5 5c-3.6 1.1-7.9 4.5-10.1 8.2-1.2 1.8-2.7 3.3-3.4 3.3-2.2 0-5.5 5-6.1 9.2-.6 3.7-4.4 7.8-7.2 7.8-3.5 0-.3 8.5 3.6 9.5 1.8.4 2.2 1.2 2.2 4.8 0 2.4-.8 8.1-1.9 12.8-1.8 8.4-1.8 8.6.1 12.2l1.9 3.7 3.7-1.5c4.3-1.8 9.4-7.1 12.8-13.5 3.2-6.1 5.1-8.3 10.3-11.5 3.3-2 4.6-2.4 5.1-1.5.5.7 1.5 1 2.3.7 1.8-.7 2.8-5.6 1.5-7.7-.8-1.2-.4-2.6 1.6-5.5 1.5-2.2 3.2-4.2 3.7-4.6.5-.3 2.1-3.8 3.4-7.7 1.3-3.9 3.2-8.4 4.2-9.8 1-1.5 1.6-3.8 1.5-5-.2-1.2.4-3.6 1.2-5.3 1.7-3.1 2.2-11.6.8-12.5-.4-.2-1.9.4-3.2 1.4zM715.9 804.1c-1.9 2.6-2 3.3-.8 4.5 1.8 1.8 9.9 2.8 11.9 1.5 1.2-.8 1.2-1.3-.4-3-1-1.1-3.4-3-5.2-4l-3.3-2-2.2 3zM397.8 805.2c-.9.7-2.1 3.1-2.7 5.2-.8 3.2-.8 4.3.4 5.6 1.6 1.8 2 8.5.6 9.4-.8.5 1 11.2 2 12 .2.2 2.9 1.3 6.1 2.6 7.4 3 8.8 2.4 8.8-3.9 0-6.2.7-8.1 3.1-8.1 1 0 1.9-.4 1.9-.9s.3-1.6.6-2.5c.4-1-.3-1.9-2-2.7-1.4-.7-2.8-2-3.1-3.1-.4-1-1.4-1.8-2.3-1.8-3-.1-6.3-3.8-6.9-7.7-.8-5.2-3.2-6.6-6.5-4.1zM917.3 826.2c-3.2 1.5-2.9 3.8.4 3.8 3.7 0 9.4-2.2 9-3.5-.5-1.4-6.7-1.6-9.4-.3zM882.5 875.8c-1.9 1.3-4.7 8.1-4.1 9.7.3 1-.2 2.7-1.3 4.1-1 1.3-2.2 4.9-2.6 8-.4 3.2-1.1 6.4-1.5 7.3-.4.9-1.3 3.5-1.9 5.8-.8 2.9-2.3 5.1-4.6 6.9-3.7 2.8-3.6 4.2.5 8.9 2.4 2.7 3.4 12.5 1.6 15.1-1.6 2.2-.5 5.4 1.9 5.4.8 0 1.5.7 1.5 1.5 0 1.8.5 1.8 3 .5 1.2-.7 1.6-1.7 1.3-3.1-.7-2.4 2.9-5.8 6-5.9 2.4 0 2.2-3.5-.4-5.3-1.7-1.3-1.9-1.8-.8-3.5.9-1.5.9-2.3 0-3.3-.6-.8-2.3-3.1-3.7-5.3-2.2-3.4-2.4-4.2-1.4-7.2.6-1.9 1.6-3.6 2.1-3.9.5-.4.9-1.7.9-3.1 0-1.4.7-3.5 1.5-4.8.8-1.2 1.4-3.3 1.4-4.7-.1-1.3.4-5.6 1.1-9.4 1.1-6 1.4-13.4.7-14.2-.2-.1-.7.1-1.2.5zM487.8 910.3c-1.2 2.3-1.5 4.6-1.1 8.2.3 2.7.6 7.5.7 10.5l.1 5.5-3.7.3c-6.3.5-7.4-.7-8.1-8.9-.9-10.5-2.3-10.6-3.6-.2-.6 4.8-1.4 10.1-1.7 11.8-.3 1.6-.5 4.3-.5 6 0 1.6-.7 5.2-1.6 7.8-.8 2.7-1.3 6.5-1.1 8.5.3 2.6 0 4-1.1 4.8-1.4 1.1-1.4 1.5-.1 4 .8 1.5 2.2 2.9 3.1 3.1.9.3 2.1 1.5 2.7 2.8 1 2.2 1.4 2.2 12.4 1.9 6.3-.1 12.6-.8 14.2-1.4 1.5-.5 3.3-.7 3.9-.3 2.5 1.6 10.2 3 13.7 2.6 3.4-.5 3.9-.2 5.6 2.5l1.8 3.1 8.4-.5c7.4-.4 8.7-.2 11.3 1.7 2.7 1.9 3.8 2 9.7 1.4 3.7-.4 7.5-1.1 8.5-1.7 1.4-.7 2.2-.6 3 .5 2.3 2.7 6.2 4.7 9.3 4.7 2.5 0 3.9.8 6.1 3.5 2.7 3.2 3.5 3.6 10.8 4.5 4.4.6 8.7 1.2 9.6 1.5 1.9.6 4.1 5.3 4.1 8.7-.1 5.1-1.5 12.8-2.3 12.8-.5 0-.9.9-.9 2 0 2.6 2.4 2.6 7.3 0 3.2-1.7 4.6-1.9 9.2-1.2 3 .5 5.9.5 6.6.1.7-.4 2-.2 3 .4 1.3.8 2.4.8 4.1-.1 1.3-.6 5.7-1.6 9.8-2.2 8.8-1.1 14.6-2.5 21.5-5.1 7.4-2.8 13.3-3.3 22.6-2 6.4 1 9.1 1 11.4.1 1.7-.7 8-1.2 15-1.1 10.6 0 12.8-.3 18.3-2.5 7.7-3.1 13.4-3.5 16-1.1 1 .9 3.5 1.7 5.5 1.7s3.7.4 3.7 1c0 1.5 3.6 1.2 9.3-.7 4-1.4 5.6-2.7 7.9-6.2 1.5-2.5 2.8-5.5 2.8-6.7 0-1.2.7-2.7 1.5-3.4.9-.8 1.3-2.1.9-3.5-.4-1.7 0-2.6 1.5-3.5 2.5-1.3 1.9-2.7-1.5-4-3.4-1.3-3.3-7.1.1-11.6 2.7-3.6 3.4-7.7 1.1-6.8-.7.3-1.8 1.6-2.4 2.9-.6 1.4-2.3 2.7-3.7 3.1-1.4.3-2.5 1.3-2.5 2.2 0 2.2-7.7 9.2-10.1 9.2-1.2 0-2.3-.8-2.5-1.8-.7-2.3-9.5-2.3-12.2.1-1 .9-2.3 1.7-2.9 1.7-.6 0-1.6.7-2.3 1.5-.7.8-2 1.5-3 1.5-3 0-10.6 4.9-11.9 7.6-1 2.2-1.6 2.5-4.1 2-1.7-.3-4.2-1.3-5.6-2.2-2.4-1.6-2.5-2.1-2-7.6.3-3.2.9-8.5 1.2-11.7.3-3.3 1.2-6.5 2-7.2 2.9-2.4 1.5-3.6-5.2-4.2-7.2-.7-13.7.4-20 3.5-2.3 1-5.5 2-7.2 2-3.6.1-8.2-2.6-8.2-4.7 0-1.2-2-1.5-11.2-1.6-6.2-.1-12.4-.4-13.8-.8-1.3-.4-4.6-.2-7.2.3-4.2.9-5 .8-6.2-.9-.9-1.2-1.2-3.2-.9-5.2.5-2.8.3-3.3-1.5-3.3-1.1 0-2.2-.6-2.4-1.2-.3-.9-1.2-.8-3.1.5-2.4 1.5-3 1.6-5.5.3-2-1-4.2-1.2-8.9-.5-3.9.5-7.2.5-8.8-.1-1.5-.6-5-1-8-1-4.1 0-6 .5-8.2 2.3-4.2 3.5-8.8 4.8-18.5 5.2-4.8.2-9.6.8-10.5 1.3-1 .5-4.1.7-6.9.4l-5.2-.4-1-8c-.5-4.3-1.2-8.2-1.5-8.4-.3-.3-1.8.1-3.4.9-2.5 1.3-3.4 1.3-8.8-.7-3.9-1.4-6.1-2.7-6.3-3.9-.3-1.7.1-1.8 5-1.3 4.9.6 5.4.5 7.1-1.9 1.7-2.3 1.7-3 .5-6.8-1-3.1-2.2-4.6-4.7-5.9-3.1-1.5-3.6-1.5-5.7-.1-1.6 1-2.4 2.5-2.4 4.3 0 1.6-.7 3-1.5 3.4-.8.3-1.5 1.2-1.5 2s-.8 1.7-1.8 2c-3.4 1.1-10.4.9-11.1-.3-.4-.6-1.5-.9-2.5-.5-.9.4-4.4.1-7.7-.6-4.7-1-6-1.7-6.3-3.4-2-10.6-2.4-13.4-2.3-15.5.1-1.4-.6-2.9-1.8-3.7-1.9-1.2-2.2-1.1-3.7 1.9zM852.3 947c-6.1 1.8-11.3 6.3-11.3 9.7 0 1.3.5 2.3 1 2.3 3.1 0 17-9.4 17-11.5 0-2.2-1.2-2.3-6.7-.5z"/></svg>
