<svg version="1.0" xmlns="http://www.w3.org/2000/svg" width="1365.333" height="1365.333" viewBox="0 0 1024 1024"><path d="M753.7 3.5c-1.8 3.8-5.8 5.5-8.2 3.5-2.1-1.7-3.2-.5-2.7 2.8.2 1.6-.3 5-1.2 7.6l-1.6 4.7 3.8 7.7c2.1 4.2 5.4 11.2 7.2 15.5 3.2 7.4 3.3 7.9 2.1 12.6-.9 3.6-1 5.5-.2 7 1.6 2.9 1.4 5.3-.9 10.2-1.6 3.7-2 6.6-2 18.2 0 13.8 0 13.8-2.7 16.2-1.6 1.3-4 2.9-5.5 3.5-1.4.7-3.2 2.5-3.9 4.1-1.7 4.3-.5 17.2 2.1 21.4 4 6.5 2.1 14.1-5.1 19.3-3.9 2.9-4.4 3-6.9 1.7-1.4-.7-3.2-2-3.8-2.8-1.4-1.6-6.6-1.1-8.2.8-1.4 1.6-7.4-1.1-8.8-4.1-1.2-2.5-10-4.8-11.9-3.2-.7.6-1.3.7-1.3.3 0-1.3-3.2 1.9-4 4-.8 2.1 1.3 7.5 2.9 7.5.5 0 2.5 2.3 4.5 5l3.6 5.1-2.6 2.4c-1.4 1.3-3.9 3.6-5.5 5.2-1.7 1.5-3.3 4-3.6 5.5-.5 2.4-1 2.8-3.9 2.8-2.6 0-3.8.6-5.1 2.7-2.3 3.6-3.3 4.3-6.3 4.3-3.6 0-7.7 6.2-6.3 9.3 1.2 2.6.2 10.9-1.6 13.1-1.8 2.1-.3 6.4 3 8.3 1.6 1 3.1 2.5 3.4 3.4.6 1.8 5.8 6.1 8.7 7.2.9.3 2.2 2.5 2.8 4.8 1 3.7.8 5.1-1.9 13.3-1.7 5.1-3.1 10.9-3.1 12.9 0 5.1 2.8 11.7 5 11.7 1 0 3 .3 4.6.6 2.5.5 3 .2 4.1-2.5.7-2 1.8-3.1 3-3.1 3.9 0 5.8-2.6 5.8-7.7 0-4.2.3-4.9 2.8-6.1 1.5-.7 3.7-2.6 4.8-4.2 1.8-2.4 2.5-2.7 4.6-1.9 1.3.5 4.8.9 7.6.9 2.9 0 6 .7 7 1.5 1.7 1.2 2.3 1 5.8-1.3 2.1-1.5 3.8-3.2 3.9-3.8 0-1.6-6.5-6.4-8.7-6.4-2.2 0-9.3-6.5-9.3-8.5 0-.8-.6-1.8-1.3-2.2-.7-.4-2.1-2.1-3.1-3.6-1.6-2.7-1.9-2.7-3.5-1.3-3.7 3.3-8.8 1.5-16.8-5.8-8.8-8 .4-22.5 13.1-20.6 4.6.7 11.5 5.4 16.4 11.2 2.9 3.4 3.9 3.5 4.7.5 1.1-3.4 4.6-6.7 7.1-6.7 1.3 0 2.9-.8 3.6-1.8.7-.9 4.5-3.9 8.3-6.5 6.3-4.2 7.6-4.7 12.6-4.7 3.9 0 6.3.6 8 1.8 1.3 1.1 4.6 2.7 7.3 3.8 2.8 1 8.3 4 12.4 6.6 11 7.3 24.6 13.8 28.6 13.8 5.2 0 12.6 3.6 17.9 8.8l4.7 4.6V231c0-1.9.7-5.8 1.6-8.5.9-3.1 1.3-6.6.9-9.2-1-6.9 1.9-14.6 10.1-27 4.1-6.1 8.7-11.9 10.2-12.9s5.4-4.3 8.7-7.4c4.9-4.7 6.8-5.9 10.6-6.4 2.5-.4 5.7-.2 7.1.3 1.4.5 6 .7 10.2.4l7.6-.6v-3.4c0-2.7.5-3.5 2.6-4.3 3.6-1.4 4.6-1.2 4 .7-.3 1-.1 2.4.3 3.2 1.4 2.1 7.6-2.4 9.6-6.9 1.3-2.8 2.6-3.9 6.8-5.4 2.9-1 6.7-2.1 8.5-2.3 2.7-.4 3.7-1.3 5.7-5.4 1.8-3.5 3.7-5.4 6.5-6.9 4.1-2.1 5-3.5 2.8-4.2-2.7-.9-6.1.6-10.8 4.9-3.9 3.5-5.4 4.3-7.2 3.8-3.4-1.1-5.8-3.5-5.8-5.9 0-1.2-.7-3-1.5-4-.8-1.1-1.8-4.1-2.1-6.7-.5-4-1.1-4.9-3.5-5.9-4.6-2-6.1-5.2-5.3-11.8.3-3.1 1.7-8.3 3-11.4 1.3-3.2 2.4-6.4 2.4-7.1 0-.8.9-2.6 2-4 2.1-2.6 2.6-8.2 1-10.7-.7-1.2-1.2-1.2-2.8.4-1.1.9-2.6 3.2-3.3 4.9-.7 1.8-3.9 6-7.1 9.4-3.2 3.4-5.8 6.6-5.8 7.2 0 .5-1.9 2.3-4.2 3.9-4.2 2.9-4.5 2.9-12.8 2.2-10.3-.9-11.6-1.4-13.6-5.1-1.8-3.5-2.9-3.7-3.9-.7-.8 2.2-.8 2.2-1.2-.4-.5-2.9-.9-3.2-9.7-4.7-8-1.5-8.2-1.4-5.5.9l2.4 1.9-3.6.1c-3.4 0-6.9-2.3-6.9-4.6 0-.5-2.7-1.9-6.1-3.2-10.8-4.2-27.4-15.8-39.1-27.4-6-5.8-10.8-11.2-10.8-12 0-2.5-8.9-14.5-12.3-16.7-1.8-1.1-5.6-4.4-8.4-7.3-2.8-2.9-7.5-7.4-10.5-10L755.3.1l-1.6 3.4zM713.6 9.7c.9 4.9 2.2 7.5 3.7 7 3.1-1 .5-10.7-2.9-10.7-1.2 0-1.4.8-.8 3.7zM723.4 21.1c-1.3 1.5-1.5 2.2-.6 3.1.7.7 1.2 2.2 1.2 3.5 0 3.1 3.9 3.1 6.8 0 2.7-2.8 2.7-3.9.5-5.9-3-2.5-6-2.8-7.9-.7zM653.3 226c-2.8 1.2-3.7 4.3-2 7.5 1.2 2.4 1.5 2.5 2.7 1.1 1.4-1.7 3.2-9.6 2.1-9.5-.3 0-1.6.4-2.8.9zM723.7 276.4c-3.3 7.3-4.6 16.8-2.7 19.1 1.1 1.4 1.8 1.2 5.6-1 2.3-1.4 5.2-2.5 6.4-2.5 1.1 0 3.2-1.1 4.6-2.5 1.4-1.4 2.9-2.5 3.4-2.5s1.9 1.9 3.1 4.2c2.1 4.1 2.1 4.4.6 9.3-.9 2.7-1.8 6.1-2.1 7.5-.3 1.4-1 3.2-1.5 4-.8 1.2-1.2 1.2-2.9-.3-1-.9-2.2-1.7-2.6-1.7-.3 0-2.4-1.2-4.6-2.6-2.2-1.5-4.3-2.5-4.6-2.2-.3.3-1 2.7-1.7 5.4-.7 2.6-1.6 4.9-2.2 5-2.2.7-4.6-2.6-5.5-7.2-2.8-15.2-3.9-16.8-10.1-15.8-2.5.4-3.9.1-4.9-1-1.5-2-3-2.1-3-.2 0 .7-.9 2.5-2.1 3.9l-2 2.6 2.2 3.1c1.3 1.6 2.8 3 3.3 3.1.6 0 0 .5-1.3 1-2.2.9-2.3 1.3-1.7 6.3.6 4.8.5 5.6-1.9 8.5-1.9 2.1-3.9 3.3-6.6 3.7-3.3.6-4.5 1.5-7.9 6.2l-3.9 5.5 2 2.5c1 1.4 1.9 3.8 1.9 5.5 0 1.9 1 4.1 2.5 5.7l2.6 2.7-1.6 7.4c-.8 4.1-1.5 8.3-1.5 9.5 0 2.7-6 8.4-8.8 8.4-1.8 0-2.2.6-2.2 2.8 0 3.2 3.4 5.5 6 4.1.8-.4 2.3-1 3.3-1.3 1.2-.4 1.7-1.6 1.8-4.3 0-2.1.3-3.1.6-2.3.3.8 1.2 2.1 2.1 2.7 1.4 1.2 1.4 1.3-.2 1.3-2.4 0-1.5 4 2 8.5 2 2.7 2.4 4.3 2.4 10.1 0 12.8-1.1 20.1-3.4 22.5-1.9 2.1-6.6 17.9-6.6 22.2 0 3.8-3.4 12.4-6.5 16.2-4 4.9-7 10.9-8 15.5-.4 1.9-1.3 4.4-2 5.6-.9 1.3-1.3 4.7-1.2 9 .2 5-.3 8.2-1.7 11.2-1 2.3-2.2 4.2-2.6 4.2-.4 0-5.5 3.2-11.4 7.1-12.3 8.2-17.6 13.8-17.6 18.4 0 1.8-1.1 4.6-2.6 6.6-1.4 1.9-3.6 5.7-4.9 8.6-1.9 4.2-3.8 6.3-9.4 10.3-3.8 2.8-7.7 6.3-8.6 7.7-1.5 2.2-2.2 2.5-6 2.1-4.1-.5-4.6-.3-9.1 4.3-3.9 4-5.5 4.9-8.2 4.9-1.9 0-5.1 1-7 2.2-1.9 1.2-5.8 2.7-8.6 3.3-4.5 1-5.2 1.5-5.6 4.1-.3 1.8-2.1 4.5-4.7 6.8l-4.2 3.7-6-2.1-6-2.2.1-4.2c.1-2.2.8-4.8 1.5-5.7 1.2-1.4 1.1-2.2-.3-5.3-2-4-2.6-4.3-4.4-2.1-2 2.4-5 .1-5-3.9 0-3.6 2.3-5.4 4.5-3.6 1.4 1.1 4.5.3 4.5-1.1 0-.6 2.3-2.4 5-4.1 4.4-2.7 5-3.5 5-6.5 0-2.6.5-3.6 2-4 2.4-.6 2.8-5.1.5-5.9-2-.8-8.3 1.3-12.8 4.4-2 1.4-6.1 3.1-8.9 3.8-6.4 1.7-8.3 3.4-10.2 9.2-2 5.8-2 8 0 8.4 1.1.2 1.8 1.5 2 3.8.1 1.9.6 6.2.9 9.6.6 5.3.4 6.7-1.8 11-4.2 8.2-17.3 25.9-22.2 30-5.6 4.7-6.4 5.5-11.7 11.9-5.6 6.8-7 10.3-5.2 12.9.8 1.1 1.4 2.8 1.4 3.7 0 .9 1.1 2.4 2.4 3.3 3.3 2.1 4 4.8 2.2 8.8-1.2 2.8-1.4 2.9-1.5 1-.1-2.3-.8-2.6-3.5-1.6-1 .4-1.6 1.8-1.6 4.1v3.6l-4-.6c-3.3-.4-3.9-.3-3 .8 1.6 2-.7 5.4-3.2 4.7-1.4-.3-2.1.2-2.5 1.7-.4 1.4-1.3 2.1-3 2.1-2.1 0-2.2-.3-1.3-2 1.1-2 1-2-2.5-.3-3.1 1.5-3.7 1.5-4.5.3-.6-.8-1-1.1-1-.6 0 .5-1.1-.1-2.5-1.4-2.4-2.2-2.7-2.3-4.2-.7-1.3 1.3-1.4 1.9-.3 3.1 1 1.3 1 1.6-.4 1.6-1.7 0-5.6-3.4-5.6-4.9 0-.5-.6-1.1-1.2-1.4-1-.3-1-.7-.2-1.8 1.4-1.7 2.4-6.8 1.7-8.6-.7-1.8-7.7-1.7-9.3.2-.7.8-1.9 1.5-2.6 1.5-.7 0-2.1 1.1-3 2.5-1.8 2.8-4 3.1-7.7 1.2-1.4-.8-6.1-1.4-10.5-1.5-8.3-.3-15.3 1.9-19.7 5.9-1.5 1.3-4.3 2-9.5 2.4-4.1.3-11 1.1-15.2 1.7-5.9.8-8.5.8-10.7-.2-2.5-1-3.5-.8-6.9.9-4.7 2.4-10.7 3-12.4 1.3-2.1-2.1-3.2-1.3-1.2.9l1.9 2.2-4-.7c-4.7-.9-4.9-1.1-4.1-3.1.5-1.3 1.7-2 7.5-4.1.8-.2 1.1-.8.7-1.1-.9-1-13-2.1-13.6-1.4-1.4 1.6-7.5 4.1-10.1 4.1-1.6 0-5.1 1.2-7.9 2.7-4 2.3-5 3.3-5 5.5 0 3.2-5.5 9-11.3 11.9-2 1.1-3.7 2.3-3.7 2.8 0 2.1-5.3 7-9.6 9-2.5 1.2-8.8 6.2-13.8 11.2-5.1 4.9-10 8.9-10.9 8.9-4.3 0-10.6 4.3-17.5 11.9-7.7 8.6-9.2 9.2-14.3 6.5-4.2-2.1-10.3-1-15.1 2.9-4 3.2-4.8 5.7-2.3 7.7 2.3 1.9 1.9 6.1-.6 6.7-1.8.5-2 1.1-1.5 4.2.3 2 .6 4.4.6 5.3 0 1 .7 1.8 1.5 1.8 3.2 0 .4 3.2-3 3.5-.5 0-1.6.4-2.2.8-.8.5-2 0-3-1.3-2-2.3-4.3-2.6-6.1-.7-.7.6-3.4 1.7-6 2.2-4.5 1-4.7 1.2-5 4.7-.2 2.7-1.2 4.5-3.7 6.7-3 2.6-3.2 3.1-1.9 3.9 2.1 1.2.2 2.5-3.7 2.6-2 .1-3.2-.6-4-2.2-1.6-2.8-2.3-2.8-3.7.3-.6 1.4-1.8 2.5-2.7 2.5-1.9 0-2 1.9 0 2.6 2.4.9 1.8 2.1-1.6 3.3-5 1.7-8 1.4-8.6-.9-.7-2.8-4.1-2.5-5.5.5-.6 1.4-1.7 2.5-2.5 2.5-1.2 0-1.1.4.1 2.2.9 1.2 1.6 3.8 1.6 5.8l-.1 3.5-2.2-2.8c-1.3-1.5-3-2.7-3.9-2.7-.8 0-2.1-.7-2.8-1.5-.7-.8-1.7-1.2-2.2-.9-.9.6-2.8 4.8-3.2 7.1-.1.7-.5 1.6-.9 1.9-1.4 1.5-.6 3.2 1.8 3.8 1.5.4 3 1.7 3.5 3.2.6 1.4 1.4 2.3 1.9 1.9.6-.3 1.5.4 2.1 1.5.6 1.1 2.6 2.6 4.5 3.4 3.9 1.6 6 5.2 6.8 11.4l.5 4.3-2.5-1.6c-1.5-1-3.4-1.4-4.9-1.1-2.6.7-3-.4-1.4-3.3 1.1-2.1-2.7-8.3-6.1-10.2-2.5-1.3-2.3-1.5-3.6 4.5-1.4 6.1-.5 8.5 4.1 12.3 2 1.5 3.6 3.4 3.6 4.1 0 .7.7 1.5 1.5 1.8 1.2.5 1 1.2-1 4.2-2.8 4.1-3.2 7.2-1 7.2.9 0 1.5-.9 1.5-2.4 0-1.8.6-2.5 2.2-2.8 1.3-.2 2.8-1.5 3.5-2.9 1.8-3.7 3.2-4.6 8.3-5.4 3.8-.5 4.7-.3 5.7 1.3.9 1.5.8 2.5-.3 4.7-1.3 2.6-1 7 .4 6.3.4-.2 2.5-1.2 4.7-2.1 3.5-1.6 8.5-7.2 8.5-9.6 0-.5-1-2.1-2.2-3.6-1.9-2.5-2.6-2.7-7-2.2-5.2.7-5.9 0-2.8-2.8 2.4-2.2 2.6-6.5.5-10.6-1.5-2.9-1.5-3.1 1.4-5.9 2.3-2.3 3-2.6 3.5-1.5.3.8 1.4 1.5 2.4 1.5 2.2 0 5.2 5.7 5.2 9.9 0 1.7 1 3.7 2.5 5.1 1.4 1.3 3.9 4.5 5.6 7.1 2.9 4.6 3 4.9 1.4 7.3-.9 1.3-2.7 3.2-4.1 4.1-3.6 2.4-3 3.6 1.6 2.9 2.7-.5 4-.3 4 .5 0 .6-.6 1.4-1.4 1.7-.8.3-1.7 2.6-2.1 5.4-.4 2.7-1.2 5.1-1.9 5.3-.7.3-1.8 2.5-2.5 5-.7 2.4-2.9 6.6-5 9.3-3 3.9-4.3 4.9-6.7 4.9-4.9 0-5.4.9-5.4 9.9 0 6.2-.4 8.7-1.5 9.6-2.1 1.7-2 2.1 2 6.4 2.8 3.1 3.5 4.7 3.5 8 0 2.2.3 5.1.6 6.3.9 3.3-3.5 7.3-8.3 7.4-3.4 0-3.6.1-1.6 1.1 1.5.7 2.1 1.9 2.1 3.9-.1 4.5 1.6 5.6 9.7 6.4 6.4.6 7.5.9 7.5 2.6 0 1.9 2.7 3.9 5.4 3.9.8 0 1.8-1.2 2.4-2.8.7-2.1.3-3.9-2-8.7-3.8-8.2-3.7-12.3.9-19.8 2-3.4 3.8-6.3 3.9-6.5.1-.2 1.8.4 3.8 1.2 3.8 1.6 4.3 3 2.5 6.9-1.1 2.4-1.2 2.4-3.8.9-3.2-1.8-6.4-1-5.4 1.4.4 1 1.4 1.4 2.9 1.1 2.3-.4 2.4-.1 2.4 4.6 0 2.9.6 5.7 1.4 6.6 1.9 2.1 2.3 6.1.8 8.8-.7 1.2-1.2 3.1-1.2 4.3 0 1.2-1.1 3.5-2.5 5.2-1.4 1.6-2.5 3.6-2.5 4.3 0 2.1 1.6 2.6 3 1 .7-.8 3.6-2.2 6.4-3 3.8-1.1 5.5-2.3 6.8-4.5 1-1.7 3.3-3.7 5.2-4.5 3.9-1.6 5.1-3 3.6-4-.6-.4-.7-1.1-.4-1.7.4-.6-.1-1.7-1.1-2.4-1.5-1.2-1.7-1.8-.7-3.9 1.6-3.6 7.3-3.5 9.6.1 1.3 1.8 2.4 2.4 4.3 2.2 2.2-.2 2.8-1.1 4-5.3.8-2.8 2.6-6.5 4.1-8.4 2.3-3 2.6-4.6 3.2-14.6.4-8.9 1-11.8 2.8-14.9 1.2-2 2.2-4.8 2.2-6.2 0-4 6.2-17.6 8.3-18.2 1.1-.3 1.6-1 1.2-2-.3-.8 0-1.9.7-2.3 1-.7 1.1-1.2.1-2.8-1.5-2.3-.7-5.1 1.3-5.1.8 0 1.8-1 2.3-2.3.7-1.8 6.1-7.1 12.9-12.7.6-.6 1.2-2.1 1.2-3.3 0-1.3.5-2.8 1.2-3.5.8-.8.5-1.4-1.6-2.2-1.5-.5-3.2-1-3.7-1-1.6 0-.9-2 1.6-4.6 1.4-1.4 2.5-2.9 2.5-3.3 0-.5-2-1.2-4.5-1.5-5.3-.8-6.2-1.9-4.1-5.1 3.4-5.1 2.5-5.7-7.4-5.3-9.4.3-10 .1-10-4.3 0-1.4.7-1.9 2.5-1.9 1.5 0 4.1-1.5 6.5-3.6 3.7-3.4 4-4 4-9 0-5.2-.1-5.4-4.3-7.9-5.6-3.2-7.2-3.2-11.3.5-4 3.5-9.7 4.8-12.1 2.9-.9-.8-3.4-1.9-5.6-2.4-3.2-.8-4.2-1.6-5-4-.5-1.7-1.6-3.7-2.3-4.6-1.6-1.8-1.9-7.5-.4-8.4 1.4-.9 1.2-5.2-.2-5.8-.9-.3-.7-1.1.8-2.7 2.7-2.7 5.3-2.1 7.7 1.9 1.1 1.9 2.7 3 4.9 3.4 2.8.5 3.7.1 6-2.5 1.4-1.7 3.1-2.7 3.7-2.4.6.4 1.9.2 2.9-.3 1.3-.7 2.2-.7 3 .1.7.7 2.5.5 6.1-.8 6.4-2.3 10.1-1.1 9.4 3-.6 2.9.8 3.4 2.7 1.1 1.8-2.2 2.8-1.9 4.5 1.5.9 1.7 2.2 3 2.9 3 .7 0 3 1.3 5.1 3 2.1 1.6 3.9 3 4 3 .1 0 0-1.2-.3-2.6-.3-1.8.3-3.3 2.3-5.4 1.9-2 2.6-3.5 2.2-5-.3-1.2-.1-3.4.4-4.8.6-1.5 1.1-4.4 1.1-6.5 0-3.2.7-4.3 4-7 3-2.4 5-3.2 7.9-3.2 3.4 0 3.9.3 3.9 2.2 0 1.4-.6 2.3-1.5 2.3-.8 0-1.5.4-1.5 1 0 .5-.7 1-1.6 1-2.2 0-1.3 3.4 1 3.8 1 .2 2.1 0 2.5-.6.4-.6 2.4-.6 5.9.1 5.2 1.1 5.2 1.1 9-2.5 2.8-2.7 5.1-3.8 10-4.8 3.5-.7 6.6-1.8 6.8-2.4.3-.7 3.4-1.2 8.1-1.3 7.4-.2 7.8-.3 10.9-3.7 3.7-4 3.7-4 6.4-2.6 1.4.8 2.8.5 5.7-1.1l3.7-2.1 3.2 3.4c2.6 2.9 3.4 3.3 4.8 2.2.9-.6 2.5-1 3.5-.7 1 .3 3.4-.9 5.9-3 3.2-2.7 3.8-3.7 2.9-4.7-1-1-.8-1.2.6-.6 2.4.8 6.9-.3 6.4-1.7-.4-1.4 3.5-5.1 6.9-6.5 1.6-.6 5.8-1.5 9.4-2 3.6-.5 7.2-1.2 8.1-1.6.9-.4 3.3.5 6 2.4 2.4 1.6 4.9 3 5.6 3 .7 0 2.9 1.2 5 2.6 3.2 2.2 4.5 2.5 8.2 2 2.5-.3 5.4-1.5 6.6-2.6 2.8-2.6 9.2-2.6 12.3-.1 2.3 2 2.9 4.6 1.2 5.6-.5.3-1 1.7-1 3.1 0 1.4-.6 2.4-1.4 2.4-.7 0-2.9 2.2-4.7 5-2.2 3.2-4.1 5-5.5 5-1.1 0-3.5 1.1-5.3 2.4-3.1 2.3-3.2 2.5-1.3 3.5 2.5 1.4 3.3 6.6 1.5 10.2-.8 1.6-1.1 3.8-.8 5 .4 1.2.1 2.7-.7 3.7-2.6 3-1.9 5.9 1.8 8.3 1.9 1.1 4.1 3.4 5 5.1 1.3 2.4 1.8 2.7 3 1.7 1.2-1 1.9-.8 3.7.9 1.7 1.8 1.9 2.6 1.1 4-2.6 4.1 9.2 12.2 17.7 12.2 1.2 0 2.7.7 3.4 1.6 1 1.4 1.5 1.3 4.1-1.3 1.6-1.6 3.6-3.4 4.4-3.9.8-.5 3.3-4.7 5.5-9.4 4.2-8.9 9.1-16 11.3-16 .6 0 1.2-.7 1.2-1.5s.7-1.5 1.6-1.5c1.3 0 1.5-.7 1-3.5-.6-3.1-.5-3.5 1.5-3.5 1.7 0 2-.4 1.5-2.3-.8-3.3 1.9-6.7 5.2-6.7 1.5 0 3.8-.8 5.2-1.7 1.3-.9 3.4-1.7 4.8-1.8 1.3 0 3.2-1.1 4.1-2.4 1.8-2.4 1.8-2.4 2.4-.2.5 2.2 3.1 2.9 4.2 1.1 1-1.5 2.5-1.2 2.5.6 0 3.1 2.5.7 2.8-2.7.1-1.9.8-4.4 1.4-5.6.9-1.9.7-2.5-1.8-4.7-1.6-1.3-4.2-2.7-5.8-3-1.6-.4-4.4-1.7-6.2-3.1-1.8-1.4-3.7-2.5-4.3-2.5-.5 0-1.7-2-2.7-4.5-1.7-4.4-1.6-4.6.4-6.8 2.7-3 7.2-11.5 7.2-13.9 0-1 .8-2.2 1.8-2.5.9-.4 2.8-1.5 4.1-2.5 3.4-2.6 4.3-1.1 2.7 4.2-.8 2.6-1 5.3-.5 6.5.4 1.1.8 3.5.8 5.3.1 3.4 1.6 7.2 2.9 7.2.4 0 1.3-.4 2.1-.9 1.1-.7 1-1.3-.4-3.5-1.3-1.9-1.4-3-.7-3.9.7-.8.7-1.8.2-2.7-.6-1-.4-2.1.7-3.3 1.9-2.1 3.3-.7 3.3 3.3 0 1.5.5 3.1 1.2 3.8 1.5 1.5 7.2 1.5 11.5 0 2.9-1 3.6-1 4.4.2 2.4 3.8-2 8.4-9.3 9.9-3.2.7-5.8 3.4-4.5 4.8.4.4 5.8-1 12-3s12.4-3.7 13.8-3.7c3.2 0 4.2-.9 2.8-2.6-.6-.7-.8-1.8-.4-2.4.7-1.2 4.2 2.8 3.7 4.2-.1.5 4.3.8 9.8.8 7.6 0 11.1.5 15 2 7.5 3 9 2.7 8.4-1.3-.5-2.6.1-4.1 3-7.9 2-2.6 3.6-5.4 3.6-6.2 0-.9 2.2-3 4.8-4.8 3.9-2.6 4.9-3.7 4.9-6 0-4 1.9-5.5 8.4-6.2 5.2-.7 5.7-.5 7.3 1.8 2.1 3.3 2 3.9-.6 5.1-2.1.9-2.3 1.5-2 7.6.3 4.1 0 6.9-.7 7.3-1.9 1.2-1.2 6.4 1.3 9.3 2.4 2.8 2.4 2.8 6.8 1.2 4-1.5 4.5-2 6.6-8 1.3-3.5 2.9-7 3.7-7.9.7-.8 1.8-2.8 2.4-4.3.9-2.4.8-3.1-.8-4.5-2.6-2.3-3.5-6.7-1.6-8.2.8-.7 1.5-2.1 1.5-3.2 0-3.2 3.1-6.8 8.1-9.3 4.1-2.1 5.4-2.3 9.5-1.6 5.1 1 7.4 3.1 7.4 6.7 0 1.2.7 2.5 1.6 2.8.9.4 1.7.5 1.8.4.1-.2.8-2 1.5-4.1 1.1-3.3 1.1-4.1-.3-5.6-.9-1-1.7-3.9-1.8-6.7-.3-4.4-.1-4.9 1.9-5.2 1.2-.2 2.8-1.3 3.6-2.6 1.3-1.9 1.3-2.5.1-4.1-2.2-3-1.7-4.5 1.4-4.5 1.6 0 3.7-.7 4.8-1.5 2.7-2.1 5.5-1.8 8.8.8 2.7 2.2 2.8 2.6 2 6.3-.7 2.9-2 4.5-5.2 6.7-2.3 1.6-4.2 3.4-4.2 4.1 0 .8-1.3 1.9-3 2.6l-2.9 1.2 2.1 2.8c1.7 2.3 1.9 3.5 1.2 7.1-.4 2.4-.7 6.3-.5 8.7.2 3.3-.2 4.7-1.6 5.7-1.3 1.1-1.4 1.4-.4 1.5.8 0 2.3.7 3.3 1.7 1.6 1.4 2.2 1.4 4.3.3 1.4-.7 2.5-2.2 2.5-3.3 0-2.8 8.9-10.7 12.1-10.7 2.5 0 9.6-4.1 11.1-6.4.4-.6.8-4.9.8-9.5s.5-10.1 1.1-12.2c1.4-4.4 8.7-11.2 13.4-12.3 1.7-.4 4.3-1.2 5.8-1.8l2.8-1.1-3.4-3.6c-5.2-5.4-14.7-24.8-14.7-29.9 0-2.2.4-4.3.8-4.6.5-.3.7-1.9.4-3.5-.9-6.4 7.4-33.9 10.3-34.1.6 0 2.5-2.1 4.3-4.5l3.2-4.4V549c0-24.2-.7-28.8-5.3-36.3-2.5-4.1-2.8-5.4-2.4-10.5.5-7.1 2.7-12.8 5.6-14.8 1.2-.9 2-2.2 1.7-2.9-.5-1.5 1.7-3.9 2.7-2.9.3.3 1.9-.3 3.5-1.5 4.3-3 8.3-2.7 11.5.9 1.9 2.1 3.6 3 5.9 3h3.1l-2-2.3c-3.7-4.1-5.3-11.4-2.8-12.4 1-.3 1.2-.9.7-1.7-.5-.6-1.2-3-1.6-5.2-.4-3.1-.2-4.5.9-5.4.9-.7 1.3-2.1 1-3-.3-1 .6-4 2-6.6 2.1-3.9 2.4-5.3 1.6-7.1-.9-2-.8-2.3.9-2.3 1.3 0 2.4-1 3-2.5.5-1.4 1.8-2.5 2.7-2.5 1.1 0 2.3-1.3 3.1-3.3.8-1.7 1.8-4.2 2.3-5.5.5-1.2 1.6-2.5 2.4-2.8 1.4-.6 1.3-.8-.2-2-1.1-.8-1.4-1.7-.8-2.1.6-.5 1.1-2.6 1.3-4.7.1-2.1.9-4.4 1.8-5 .9-.7 1.5-1.9 1.3-2.7-.2-.7.1-2.5.5-3.8.9-2.5-.9-7.1-2.8-7.1-1 0-1.4-8.1-.5-10.5.4-1.2-3.5-11.7-5.7-15-.9-1.4-2.3-2.5-3-2.5-.9 0-1.4-1.1-1.4-2.8 0-1.5-1.9-7.3-4.2-13-4.4-10.8-8.4-15.6-13.7-16.4-2.1-.3-2.9-1.6-5.6-9.8-3.1-9.4-3.2-9.4-4.3-6.2-1.5 4.3-2.2 4-2.2-.9 0-3.3.4-4.2 2.1-4.6 1.9-.5 2-1 1.2-5.7-.4-2.8-.6-10.9-.4-18l.3-12.9-3.5 2.2c-1.9 1.1-4.1 2.1-5 2.1-.8 0-3.5-2-5.9-4.4-3.3-3.4-5.2-4.5-8.3-4.9l-4-.4-2.8 6.1z"/><path d="M607.6 494.5c-2.2 2.5-4.5 4.5-5.3 4.5-.8 0-1.3 1.2-1.3 2.9 0 1.6-.4 4.1-.9 5.5-.7 1.8-.6 2.8.5 3.6.7.7 1.4.9 1.4.4 0-.4.5-.3 1.1.3 1.1 1.1-.4 7.2-2.4 10-1.1 1.6.5 1.7 5 .4 3.9-1.1 9.3-7 11-12 1.7-4.9 1.7-5-1.7-4.9-4.1.1-4.6-.7-3.2-4.5 1.3-3.7 1.6-10.7.5-10.7-.5 0-2.6 2.1-4.7 4.5zM332.5 624.2c-2.7 7.8.4 11.6 5.9 7.4 4.3-3.2 4.1-6.3-.3-8.2-4.4-1.8-4.7-1.8-5.6.8zM320.7 635.8c-1 1-1.7 2.2-1.7 2.5 0 1.5 3.8.6 5.4-1.2 1.5-1.7 1.5-1.9.1-2.5-2.2-.8-2-.9-3.8 1.2zM325.5 639.1c-.4.6-.4 1.3-.1 1.6.8.8 3.6-.5 3.6-1.7 0-1.3-2.7-1.3-3.5.1zM321 642.4c0 .2.7.9 1.5 1.6 1.2 1 1.5 1 1.5-.4 0-.9-.7-1.6-1.5-1.6s-1.5.2-1.5.4zM120.4 725.1c-1 1.2-2.9 2.5-4.1 3-2.4.9-3.1 4.3-1.3 5.4.8.5.8 1.1 0 2-.6.7-.8 1.9-.5 2.6.2.8-.8 3-2.4 4.9l-2.9 3.5 3.1 1c2.1.7 4 .8 5.4.2 1.8-.8 2-1.5 1.6-4.3-.5-2.8 0-3.8 2.6-6.4 3.6-3.7 4.6-6.9 3.4-10.6-1.2-3.6-2.5-3.9-4.9-1.3zM426.5 741.2c-3.4 1.8-7.6 6.2-9.5 9.8-1 1.9-2.7 4.4-3.9 5.4-2.1 1.9-3 7.6-1.1 7.6.6 0 1 .7 1 1.6 0 1.9 3.2 1.4 9-1.4 2.8-1.4 3.4-2.2 3.2-4.2-.7-6.3-.3-9 1.8-11.8 1.3-1.7 2-4 1.8-5.5-.3-2.2-.6-2.4-2.3-1.5zM385.3 742.7c-3.2.4-4.9 3.3-1.9 3.3.7 0 1.8.6 2.4 1.2.6.7 2.5 1.3 4.4 1.3 3 0 3.3-.3 3.6-3.3.4-3.5.1-3.6-8.5-2.5zM107.4 752.6c-2.6 6.1-2.3 8.5.9 9.7 2.5.8 3.1.6 4.5-1.4.9-1.3 1.5-3.2 1.4-4.3-.2-1 .7-2.9 1.9-4.2l2.2-2.4h-3c-1.7 0-3.9-.3-4.7-.6-1.2-.5-2 .4-3.2 3.2zM366.7 754.4c-.8 2.1-9.2 7.6-11.5 7.6-1.1 0-2.7.3-3.6.6-1.4.5-1.4.9-.1 3.4 2.2 4.2 1.9 5.6-2.2 10.1l-3.7 4.1-6-.5c-5-.5-6.5-.2-8.8 1.5-3.7 2.6-7.2 1.8-8.7-2-1.6-3.9-5.8-8.2-8-8.2-2.4 0-9.8 6.5-10.6 9.3-.3 1.2-1 3.1-1.5 4.2s-1.1 3.3-1.5 4.8c-.3 1.7-2.9 5-6.2 8-3.1 2.9-7 6.5-8.6 8-1.6 1.6-7.4 5-12.8 7.8-5.5 2.7-9.9 5.4-9.9 6 0 1.2 3.6.3 6.5-1.7 1.1-.8 2.7-1.4 3.6-1.4.9 0 2.8-.9 4.2-2 3.5-2.8 5.9-2.6 5.2.2-.2 1.3-.6 3.9-.7 5.8-.3 3.1 0 3.5 2.7 4 1.7.3 3 1 3 1.5 0 .6.3 1.5.7 2.1.4.6.5 2 .1 3.2-.4 1.8-.9 2-2.4 1.1-2.9-1.5-3.8 1.9-1.1 4 2.6 2 1.5 4.7-1.7 3.8-1.4-.3-2.1 0-2.1.9 0 .8.8 1.4 1.8 1.4 1.1 0 2.7.9 3.7 2s1.3 2 .7 2c-1.2 0-1.7 3.2-.6 4.3.4.3 1.7-.1 3.1-1 1.8-1.2 2.7-1.3 3.6-.4.6.6 1.9 1.1 2.9 1.1 2.3 0 2.3 1.1-.1 6l-1.9 4h3.1c1.8 0 3.8.4 4.6.9 1 .6 2.2.5 3.5-.5 2.7-1.9 2.9-1.8 6.5 1.2 2.7 2.2 3.2 2.4 3.7.9.4-.9.1-2.6-.5-3.8-.9-1.8-.9-3.5.3-8 1.8-7.1 2.2-7.7 4.6-7.7 1.3 0 2.7-1.4 4-4 1.1-2.2 2.5-4 3-4 1.6 0 4-5.6 4-9.3 0-3.4 1.5-5.7 3.7-5.7.7 0 3.1-1.3 5.3-2.9 2.2-1.6 6.9-3.7 10.6-4.7 6.1-1.6 6.8-1.6 11.7-.1 5.3 1.7 6.8 2.9 15.6 12.7 3.4 3.8 5.1 5 5.4 4 4.2-15.2 8.6-23.2 14.4-26 1.7-.8 4.2-2.6 5.5-4 1.3-1.4 3.9-3.7 5.8-5.2 2.7-2.1 3.2-2.9 2.1-3.6-1.1-.8-1-1.4.4-3.6 1.7-2.6 1.7-2.6-1.9-5.9-4-3.7-4.6-6.9-1.9-9.9 1.5-1.7 1.5-2-1.2-4.8-2.2-2.3-3.2-2.7-4.6-1.9-1.4.7-2.7.5-4.8-.6-1.7-.8-3.6-1.5-4.4-1.5-.7 0-2.8-1.5-4.6-3.4-1.9-1.9-4-3.2-4.7-2.9-.8.3-1.4-.1-1.4-1.1 0-1.3-.4-1.5-1.9-.6-2.5 1.3-9.8 1.3-10.6 0-.9-1.4-2.2-1.2-2.8.4zM317.4 758.4c-.3.8-.4 2.7-.2 4.2.3 2.7.4 2.7 2.1 1 2.1-2.2 2.3-6.6.2-6.6-.9 0-1.8.6-2.1 1.4zM311.7 759.7c-1 .3-1.6 1-1.4 1.6.6 2 2.5 1.9 3.7-.2 1.1-2.1.9-2.2-2.3-1.4zM288.2 767.7c.2 1.1 1.4 1.9 3.3 2.1 3 .4 3 .4 1.1-1.7-2.3-2.6-4.9-2.8-4.4-.4zM274.5 781c-1.7 1.9-1.8 2.2-.2 3.7 1.3 1.3 2 1.4 2.8.6.7-.7 2.4-1 3.8-.7 1.9.4 3.2-.1 4.6-1.7l2-2.2-3.5.5c-2.1.3-4.3 0-5.6-.8-1.8-1.3-2.3-1.2-3.9.6zM132.2 784.2c-1.1 3.4-1.1 4.3 0 4.9 2.4 1.6 4.8.9 6-1.6 1-2.2.8-2.9-1.2-5-1.3-1.4-2.6-2.5-2.9-2.5-.4 0-1.2 1.9-1.9 4.2zM121.6 811.9c-1.1 1.2-2.5 2.1-3.2 2.1-.7 0-1.6 1.5-1.9 3.2-.4 1.8-1.4 4.1-2.3 5.1-2.3 2.6-.7 3.2 3 1 2.3-1.3 3.8-3.4 5.1-6.7 2.1-5.8 1.9-7.5-.7-4.7zM95.2 834.7c-1.8 2.6-2.1 3.9-1.6 7.2.7 4.6 2.1 5.3 3 1.7.3-1.3 1.9-3.3 3.5-4.5 3.4-2.5 4.2-5.8 1-4.1-2.7 1.4-2.9 1.3-3.3-1.3-.3-2.1-.4-2-2.6 1zM90.1 841.9c-1.6 1-.6 3.1 1.5 3.1.8 0 1.4-.9 1.4-2 0-2.2-.7-2.5-2.9-1.1zM85 844.9c0 1 3 2.4 3.7 1.7.3-.3.2-.9-.2-1.5-.8-1.3-3.5-1.5-3.5-.2zM80 848.4c0 .7.7 1.9 1.6 2.7 1.3 1 1.7 1 2.5-.2 1.5-2.5 1-3.9-1.6-3.9-1.5 0-2.5.6-2.5 1.4zM77.1 850.6c-.8 1.3-1.4 1.5-1.7.6-.8-1.8-3.2-1.5-4.2.5-.5 1-1.2 3.3-1.5 5.1-.7 3.5-.6 3.6 5.1 4.6 2.8.5 3.5.2 3.9-1.4.4-1.5 1.1-1.9 2.4-1.5 2.4.8 2.6-2.6.3-4.6-.9-.7-2-2.2-2.4-3.3-.7-2-.7-2-1.9 0zM89.6 850.7c-.9.9-.7 3.3.3 3.3 1.2 0 2.2-2.8 1.2-3.4-.5-.3-1.1-.3-1.5.1zM168.6 865.7c.9 3.8 2.2 5 3 2.8.8-1.9-.5-4.6-2.5-5.3-.8-.3-1 .4-.5 2.5zM147.5 869.9c-.3.2-.5 1.5-.5 2.7 0 1.3-.4 2.6-1 2.9-1.5.9-1.3 9.5.3 9.5.6 0 .3.6-.8 1.2-2.9 1.6-2.9 1.6-1.2 3.3.9.8 2.5 1.5 3.6 1.5 1.5 0 2.1.6 2.1 2.4 0 2.8 2.4 5.1 4.6 4.2 1-.4 1.4-1.6 1.2-3.8-.2-2.5-.8-3.4-2.5-3.6-3.1-.5-2.9-1.9.8-5.3 2.7-2.5 3.1-3.6 3.2-8.6l.2-5.8-4.8-.5c-2.6-.4-5-.4-5.2-.1zM165 872.1c0 .6-.8.8-1.9.4-2.3-.7-4.4 1.7-3.9 4.6.2 1.7 1.1 2.2 4 2.4 2 .1 4.1-.1 4.5-.4 1.2-.9 3.2-6.9 2.5-7.5-1-1-5.2-.6-5.2.5zM135.4 914.6c.3.9.6 1.8.6 2 0 1.2 2.9.2 3.4-1.2.9-2.3.8-2.4-2-2.4-2 0-2.5.4-2 1.6zM127.9 920.7c-.8.2-2.3 1.7-3.2 3.2-2 3.4-2.1 4.1-.6 4.1 1.3 0 6.9-5.8 6.9-7.1 0-.9-.4-1-3.1-.2zM199.6 985.8c-2.6 3-6.6 11.9-6.6 14.9 0 1.4-1.1 3.8-2.5 5.5-2.4 2.9-3.1 6.1-1.9 9.2.5 1.2 1 1.3 3 .4 1.8-.9 2.4-1.9 2.4-4.4 0-2.3 1-4.4 3-6.7 1.7-1.9 3-4.2 3-5.1 0-1 .5-2.6 1.1-3.7.5-1.1.9-4.2.7-7-.3-5.1-.3-5.1-2.2-3.1zM165.2 1010.1c-3.6 1.7-4.1 2.3-3.7 4.4.3 1.4.7 3.6 1 5 .4 1.8 1.5 2.7 4.2 3.4 4 1.1 6.3.3 8.7-3.1 2.4-3.4 1.9-5.2-2.2-8.5l-3.8-3.1-4.2 1.9z"/></svg>
