<svg version="1.0" xmlns="http://www.w3.org/2000/svg" width="1365.333" height="1365.333" viewBox="0 0 1024 1024"><path d="M556.7 223.7c-.4.3-.7 1.5-.7 2.5 0 2.2-1.8 2.3-4.2.1-1.7-1.5-1.8-1.5-1.8.5 0 1.1-.5 2.4-1 2.7-.6.4-.8 1.5-.5 2.5.4 1.4-.2 1.9-3.2 2.6-2.1.4-4.4.6-5.2.5-1-.2-1.2.6-.7 3.2.4 2.3.2 3.8-.5 4.2-.8.6-.8 1 .2 1.5 2.4 1.5-1 4-5.3 4-2.8 0-4.5.6-5.7 2.1-.9 1.2-2.9 2.3-4.3 2.4-1.4.2-3.5.8-4.6 1.4-1.1.6-2.9 1.1-4 1.1s-5.2 1.3-9.2 3c-4 1.6-8.4 3-9.8 3-1.4 0-4 1.1-5.9 2.6-3.1 2.4-3.3 2.4-3.3.5 0-3-1.6-3.4-3.9-1-1.6 1.7-2.8 2.1-5.4 1.6-3-.5-3.9-.1-6.6 2.7-2.1 2.2-3.1 4.2-3.1 6.4 0 3-.1 3.1-2.5 2-1.9-.9-2.9-.7-5 .6-1.8 1.2-4.7 1.8-9.3 1.8-7.4 0-11.2 1.6-11.2 4.8 0 2.2-2 2.6-3.7.9-.9-.9-2-.9-4.4 0-1.7.6-4.7 1.1-6.4 1.1-1.8 0-3.8.7-4.5 1.5-.7.8-2.4 1.5-3.9 1.5-1.4 0-4.5.9-6.8 2-3.4 1.5-4.2 2.4-4 4.2.1 1.4-.4 2.3-1.5 2.6-1.4.3-1.8-.3-1.8-2.7 0-3-.2-3.1-4.2-3.1-2.5 0-4.9.7-6 1.7-1.7 1.5-1.9 1.5-3.2-.3-1.2-1.5-1.9-1.7-4.2-.9-2.5.9-3.2.7-4.9-1.2-2.8-3.2-6.7-2.2-6.3 1.6.3 2.3 0 2.6-2.4 2.3-3.3-.3-3.9 2.3-.8 3.3 2.6.8 2.5 2.5-.1 7-2.6 4.4-1.9 5.4 4.2 6.2 5 .6 8 2.8 7.2 5-.4 1.1-1.7 1.4-4.4 1.1-3.4-.3-3.9-.1-3.9 1.7 0 1.1.4 2.6.8 3.3 1.6 2.4 7.6 6.2 10.1 6.3 3.7.1 10.9 8.3 9.1 10.4-.9 1.1-1.6 1.1-2.9.3-1.2-.7-2.3-.8-3.6-.1-1.3.8-3 .5-6.3-1-4.4-1.9-4.7-1.9-7.9-.2-1.8 1-3.3 2.4-3.3 3.1 0 1.4-6.6 7.4-8.1 7.4-1.4 0 0 4.3 1.7 5.3.8.4 1.4 1.6 1.4 2.6s1.1 2.8 2.5 4.1c3.6 3.4 3.2 6.9-1.3 11.3-2.6 2.5-4.7 3.7-6.7 3.7-1.8.1-4.4 1.3-6.5 3-1.9 1.7-4.5 3-5.7 3-1.3 0-2.3.6-2.3 1.3 0 1.8 2.1 3.7 4.1 3.7.9 0 1.9.9 2.2 1.9.3 1.1 1.7 2.2 3.6 2.6 3.1.7 3.1.7 1.5 3.6-2 4-.4 6.3 3.8 5.4 2.4-.6 3.7.1 8.5 4.1 3.8 3.3 6.4 4.8 8.2 4.7 1.8-.1 3.4.9 5.4 3.3 1.6 1.9 2.4 3.4 1.9 3.4-.6 0-2 4.2-3.3 9.4l-2.2 9.4-7.1 2.9c-6.5 2.7-7.5 2.8-12.3 1.8-5.2-1-9.3-3.7-9.3-6.1 0-.7-.9-1.8-2-2.4-1.7-.9-2.3-.4-5.1 4.5-1.7 3-3.4 5.5-3.7 5.5-.4 0-1.6-.7-2.6-1.5-1.1-.8-3-1.5-4.3-1.5-3 0-14-5.3-17.5-8.4-1.5-1.3-3.1-4.2-3.7-6.3-.8-2.9-1.9-4.3-4.4-5.5-2.2-1-3.9-1.3-4.9-.7-1 .6-2.6.4-4.4-.6-4.2-2.2-6.3-1.9-7 1-.8 3.4-4.3 3.3-8.4-.2-2.5-2-4.9-2.9-9.8-3.5-4.3-.5-6.8-.4-7.2.3-.4.6-1.8.7-3.3.3-2.1-.5-2.7-.2-2.7.9s-1.2 1.7-3.7 1.9c-3.6.3-3.8.5-4.6 4.8-.7 3.6-1.5 5-4.2 6.8-4.5 2.9-6.1 2.8-9.6-.7-1.6-1.7-3.7-3.2-4.7-3.5-2.2-.7-5.2-5.7-5.2-8.5 0-1.6-.8-2.3-2.9-2.7-1.6-.3-3.9-1.9-5.1-3.6-1.2-1.6-2.9-2.8-3.8-2.6-1.4.3-1.7 1.7-1.7 8.8 0 8.2-.1 8.5-2.4 8.8-2.1.3-2.3.1-1.6-2.5 1.4-5.5.8-8-2.8-12.5-2.2-2.6-3.7-5.6-3.9-7.8-.3-3-.8-3.6-4.5-5-5.7-2.1-8-4.5-8.8-9-.8-5-2.2-6.8-7.1-8.9-2.7-1.2-4.7-1.5-6.2-1-1.4.5-3 .4-4.1-.3-1.3-.8-2.7-.8-4.8 0-2.9.9-3.1.8-4.9-2.6-1-2.1-2.1-5.1-2.4-6.7-.4-2.6-.9-3-3.5-2.7-1.6.1-4.1.3-5.5.3-4.6 0-7 1.9-7 5.6 0 3.8-.9 4.1-3.5 1.3-1-1.1-3.1-2-4.6-2-3.4 0-4.8-1.9-2.6-3.4 2.6-2-1-5.6-6.1-6.3-2.8-.4-4.6-1.3-5.3-2.5-1.4-2.6-2.9-1.3-2.9 2.4 0 3-.1 3.1-1.9 1.4-2.4-2.2-4.1-1.3-4.1 1.9 0 3-7.7 9.5-11.2 9.5-1.4 0-4.2 1.3-6.3 3-4.3 3.4-3.9 3.3-8.2 2.1-4.4-1.3-6.1.7-4.3 4.9.7 1.7 1.1 3.2.9 3.3-.2.1-2.5 1.2-5.1 2.5-2.7 1.2-4.8 2.7-4.8 3.3 0 1.2-5.8.8-9.4-.7-1.5-.6-1.7-.4-1.2 1.4.4 1.1 1.1 5.8 1.6 10.4.5 4.5 1.2 9.9 1.6 11.8.7 4.3-1.3 6.5-6.7 7.5-3.3.6-3.9.4-7.2-3.5-2.4-2.9-4-6.1-4.8-9.7-1.5-6.6-5.8-13.5-9.5-15.2-2-.9-3.5-.9-6-.1-3.2 1.1-3.4 1.4-3.4 5.8 0 3-.8 6.1-2.3 8.7-2 3.5-2.7 4-5.4 3.7-3.8-.4-5.1 1.5-7.1 9.8-.7 3-1.5 6.5-1.9 7.8-.4 1.6.3 3.4 2.3 6 4.2 5.4 3.6 9.5-1.7 12.2-3 1.6-3.9 2.6-3.9 4.7 0 1.5-1.4 4.4-3.3 6.7-5.4 6.6-6.1 8.3-4.3 11.1.9 1.3 3.7 3 6.5 4 5.6 1.8 6.5 2.7 7.5 7 .4 1.6 1.7 3.8 2.9 4.8l2.2 1.9-2.7-.6c-3.1-.7-3.3-.2-1.3 3.4.8 1.4 1.4 3.7 1.5 5.1 0 1.7.9 3.3 2.5 4.3 2.3 1.5 2.5 1.5 2.5.1 0-1.8 3-1.3 6.5 1.1 1.1.8 3.8 1.4 6.1 1.4h4.1l3.8 8.7c2.2 4.7 4.9 9.8 6 11.2 3.3 4 14.6 26.1 14 27.1-.9 1.4-3.1 1.2-6.3-.4-3.1-1.5-7.2-.5-7.2 1.8 0 2 1.9 2.5 13.4 3.8 5.6.6 10.5 1.5 11 1.9 1.5 1.3-4.5 2.3-6.5 1-2.5-1.5-4.4-1.4-5.8.2-1.4 1.8 1.6 4.6 8.4 7.9 7.2 3.6 11.8 4.1 16.8 1.8 2.3-1 5.8-2.2 7.8-2.5 2-.3 4.6-1.6 5.9-3l2.3-2.5h-4c-2.2 0-4.3-.3-4.6-.7-1.2-1.1 1.3-3.1 3.3-2.6 1.2.3 2 0 2-.7s.7-1 1.5-.7c.8.4 1.7.2 2-.3.4-.7 1.3-.6 2.5 0 1.3.7 2.1.6 3-.5.6-.7 1.7-1.2 2.4-.9.7.3 2-.6 2.9-2 1.2-1.7 2.9-2.7 6-3.1 5.8-.9 10.4 1.1 16.1 7.1 3.7 3.8 4.7 4.4 5.2 3.1.5-1.4 1-1.1 2.8 1.6 2.3 3.4 5.6 4.8 5.6 2.4 0-.7 1.1-1.9 2.5-2.5 1.4-.6 2.5-1.6 2.5-2.1s2.1-.1 4.8.9c2.6 1.1 6 2.2 7.6 2.5l2.8.6-.6 8c-.6 6.8-.5 7.9.8 7.9 3.8 0 .8 11.9-4 15.5-3.8 2.9-5.1 6-3.4 8 1 1.3.7 1.5-1.9 1.5-1.7 0-3.1.4-3.1 1 0 1.3-11.5 1.3-16.3-.1-3.2-.9-4.3-.7-6.5.8-1.5.9-3.2 1.6-3.8 1.5-1.5-.3-5 3.8-6.1 7.3-.6 1.9-1.7 3.1-3.1 3.3-2.8.4-2.9 3.2-.2 5.5 1.1.9 2 2.5 2 3.6 0 3.6 1.2 5.1 4 5.1 1.6 0 3.2.5 3.5 1 .4.7-.9 1-3.7 1-2.4-.1-5.1 0-6 0-.9.1-3-.9-4.7-2.1-2.3-1.7-3.8-2-6.6-1.6-2.1.4-4.5.1-5.6-.6-1.5-.9-2.2-.8-3.9 1-2.8 3-2.5 5.4.9 8.7 2.2 2.1 3.6 2.7 5.4 2.3 2.8-.8 6.7 1.7 6.7 4.1 0 1 .6 2.6 1.4 3.7.7 1.1 1.6 3.6 2 5.5.3 1.9 2 5.5 3.7 8 2.4 3.6 3 5.4 2.8 9-.1 2.5-.1 5.1 0 5.7.1 1.5 6.6 5.7 10.2 6.6 1.8.5 3.3 2.1 5 5.6l2.4 5 5.1.1c3.6 0 5.4.4 5.8 1.5.4 1 1.4 1.3 3.6.9 2.8-.6 3.1-.3 4.9 3.8l2 4.4-3 8.9c-3.2 9.4-3.2 10.3-.8 22.6l1.2 6.6 4.6-2.6c8.1-4.6 17.7-7.1 27.1-7.1h8.6l6.7 5.6c3.7 3 6.7 6.2 6.7 7 0 .8 3.4 6.4 7.6 12.4l7.6 11h12.5l.7-9.8c.3-5.3.9-33 1.2-61.4l.7-51.8 3.1-.6c1.7-.3 16.8-3.3 33.6-6.7l30.4-6.2 1.1-4.2c1.4-5.7 2.3-6.4 9.1-6.7 3.3-.1 6.5-.5 7.2-1 1.1-.6 1-.1-.1 2.1-2.9 5.5 2.2 8.1 5.8 3 .8-1.2 1.5-1.6 1.5-.9 0 .7.5 1 1 .7 1.1-.7.7-10.8-.5-15.8-.7-2.6-.5-2.8 1.6-2.5 2.1.3 2.4.9 2.7 5.5.2 3.2.9 5.6 1.9 6.5 1.3 1 1.7 1 2 0 .6-1.7 3.8-1.5 5.3.3.7.8 1 2.5.6 3.9-.4 1.5-.1 2.8.6 3.2 1.7 1.1-1.7 2.2-6.7 2.3-5.3.2-6.4 1-5.8 4.5.5 2.6.8 2.8 4.2 2.2 9.5-1.7 14.1-1.9 14.5-.5.2.8 1.6 6.7 3.1 13.1 2.3 10.1 2.5 12.1 1.5 15.3-1.1 3.4-1 3.9 1.3 6.3 1.3 1.5 8.5 10.8 16 20.8l13.5 18 17.3-2.2 17.4-2.2 16.2 2.6 16.2 2.6 5.1-2.4 5.2-2.4 2 2.4c1.1 1.4 2.5 3.2 3.2 4.1.6.9 2.4 2 4.1 2.6 2.3.7 4 2.8 7.9 10.2 3.3 6 5.4 9 6.3 8.6.7-.3 2-.8 2.8-1.1 1.3-.5 1.5 1.3 1.5 13.4 0 15.7-.3 15.2 8.1 15.2h3.5l1.2 7.5c1.4 9 5.1 17 8.4 17.9 1.3.3 7.3.6 13.4.6 7.3 0 12.6.5 15.6 1.6l4.6 1.5-.9 3.7c-.6 2.9-.4 4.1.9 5.5 2.8 3.1 5.1 3.9 9.3 3.2l3.9-.7V796c0-4.6.2-4.8 3.8-6.3 4.2-1.8 9.2-6.1 9.2-8.1 0-1.8 6.6-7.6 8.5-7.6.8 0 2.6-1.8 4.1-3.9 1.4-2.2 3.7-4.2 5-4.5 1.7-.5 2.6-1.6 3.1-3.6.3-1.6 1.2-3.5 1.9-4.1.8-.6 1.4-1.8 1.4-2.6 0-2 2.5-2.6 4.9-1.3 1.8.9 2.5.6 5.2-2.5 1.7-1.9 3.7-3.5 4.4-3.5 2.4 0 7.3-5 8.5-8.5 1.2-3.5 5.8-7.7 10-9 1.4-.4 3.3-1.5 4.3-2.4 3.1-2.6 20.6-1.7 27.6 1.5 4.4 2 6.3 2.3 10.2 1.8 3.6-.5 5.5-.2 7.3 1 2.8 1.8 6.3 2.1 8.6.6 1.2-.8 1.3-1.3.2-2.7-2.4-3.4-2.5-4.5-.8-7.3.9-1.6 1.6-4.1 1.6-5.7 0-1.8.9-3.8 2.3-5 3.2-2.9 11-5.3 15.2-4.6 2.8.4 3.5.2 3.5-1.1 0-2.3 2-2 9.7 1.3 11.6 4.9 21.4 7.1 31.2 7.1 8.1 0 9-.2 9.6-2 .7-2.2 1.3-2.3 13.5-2.5 5.6-.1 8.8-.7 12.5-2.4 4.3-2.1 5.8-2.3 11.5-1.6 7.5.9 7.5.9 23.5-.5 16.6-1.4 16.1-1.4 24.8-1.2 7.5.2 7.9.3 12.1 4.2 4.1 3.8 4.7 4 10.7 4 4.6 0 7.8.7 11.4 2.3l5 2.4v-9.5c0-6.1.4-9.7 1.1-9.9.6-.2 2-1 3-1.8 1.7-1.2 1.7-1.7.6-3.5-.7-1.2-1.2-2.3-1-2.3 4.5-2.2 6.4-3.6 6.6-5.1.7-3.4-.8-8.2-4.3-13.6-1.9-3-3.5-6.2-3.5-7.1 0-.9-.7-2.2-1.5-2.9-.8-.7-1.5-2.6-1.5-4.2s-.7-4.5-1.6-6.6c-.9-2.2-1.4-5.7-1.2-8.7l.3-5h-5.3c-9.7 0-8.3-5.3 2.3-8.5 2.2-.6 7.2-2 11-3 3.9-1 10.4-3.4 14.4-5.4l7.5-3.6 2.1 2c1.7 1.6 3.8 2.1 9.4 2.3 8.1.4 9.1-.4 9.1-6.7 0-3.4-.2-3.6-3.1-3.6h-3.1l.7-5.8c.4-3.1.6-8.2.6-11.2-.1-3.8 1.1-9.8 3.9-19.2 2.2-7.5 4-14.7 4-16.1 0-4.5 1.9-4.8 10.6-2.1 7.1 2.3 8.9 2.5 17.7 2 5.3-.3 9.7-.3 9.7.1 0 .5.4 1.4.8 2.1.6.9 2.5.4 7.6-2.3 3.7-1.9 7.4-3.5 8.2-3.5.7 0 1.6-1.2 2-2.8.3-1.5.7-3.3.9-3.9.2-.7-.2-3.4-1.1-6-2.4-8-3.4-18.1-2.2-24.2 1.2-6.4 3.6-9.1 8-9.1 3.6 0 8.8-2.6 8.8-4.4 0-.7.6-1.9 1.4-2.5.9-.7 1.3-3.3 1.4-7.6 0-7.1 1.2-9.5 4.7-9.5 3.7 0 3.5-1-1.1-5.9-6.1-6.5-7.7-9.6-6.1-12.2 1-1.6.9-2.1-.3-2.9-2.2-1.4-2.6-1.3-3.8 1.5-.6 1.3-2.5 3.1-4.1 4-1.7.8-3.3 2.6-3.7 4-.5 1.9-1 2.3-2.3 1.6-3.7-1.9-8.2-2.1-10.8-.4-2.5 1.6-2.6 1.6-4.7-.9-4.5-5.6-8.4-11.4-9-13.3-.6-2.2-8.4-7.5-10.9-7.5-2.1 0-4.7-3.8-4.7-7 0-2-2.1-4.7-8.3-10.7l-8.2-8.1-6.9-.7c-5.8-.6-7-.5-7.8.9-.5.9-2.2 1.6-3.8 1.6-1.9 0-3 .5-3 1.4 0 3.2-12.2 5.2-17.7 2.9-2.2-.9-4.9-1.2-7-.8-3.3.6-3.3.5-3.3-3.1v-3.7l-3.7.6c-2.1.4-4.8.4-6.1.1-2.1-.6-2.2-1-1.6-5.5.6-4.2.4-4.9-1-4.9-.9 0-3.5-.9-5.8-2.1-3.7-1.9-4.2-1.9-5-.5-.5.9-1.7 1.6-2.7 1.6-2.5 0-3.6 4.1-1.5 5.7 1.3 1 1.1 1.6-2 4.6-2.1 2.1-3.7 3.1-4 2.4-.2-.7-.5-.2-.5 1-.1 3.4-1.5 2.8-4.1-2-9.5-16.9-35.5-59.6-47.2-77.6l-14.2-21.6-19.3-18.9c-10.6-10.3-19.3-19.2-19.3-19.7s1.1-.9 2.3-.9c2.7 0 5.1-4.1 4.2-7-.3-1.1 0-2 1-2.4.8-.3 1.5-1 1.5-1.6 0-1.7-3-1.1-5.7 1-3.1 2.4-5.6 2.5-9.3.4-2.6-1.6-2.8-1.6-4.9.5-1.4 1.4-3.4 2.1-5.7 2.1-2 0-5.1.9-6.8 1.9-2.2 1.4-3.6 1.7-4.6 1.1-2.3-1.4-3-1.2-3 1 0 2.5-8.4 8.4-12.5 8.7-8.7.7-13.5 1.7-13.6 2.7-.1.6 0 2.8.1 4.8.1 3-.2 3.7-1.4 3.2-.8-.3-1.6-1.5-1.8-2.7-.2-1.5-1.1-2.3-2.8-2.6-1.4-.1-2.8-.7-3.1-1.2-.9-1.5-6.8-2.9-7.5-1.7-.4.5-2 .8-3.8.5-2.2-.3-3.7.1-5.3 1.5l-2.1 2-3.6-2.8c-3.9-3.1-4.3-4.7-2.4-9.1 2.1-4.6 3.5-5.6 7.3-4.9l3.5.7v-4.6c0-4.1-.2-4.5-2.4-4.5-1.3 0-2.9.7-3.6 1.5-.8 1-3 1.5-6.2 1.5-4.5 0-5.4-.4-8.6-3.7-3.2-3.2-10.7-7.3-13.6-7.3-.4 0-.5 1.1-.2 2.5.5 1.9.3 2.3-.9 1.9-.8-.4-2.2-.1-3 .6-2.1 1.7-2.9.7-1.6-1.9.7-1.3.8-2.2.1-2.6-.5-.3-1-1.4-1-2.4 0-1.7-2.9-5.1-4.3-5.1-.4 0-.7 3.1-.7 6.8 0 6.4-.2 7-2.5 8-1.7.8-2.5 2-2.5 3.6 0 2.7-2.7 3.9-5.4 2.4-1.1-.6-2.8-.6-4.8.1-1.7.6-3.2 1-3.3.9-.1-.2-.9-1.4-1.8-2.8-2.6-3.7-2.2-6 .9-6 2.4 0 2.6-.3 1.9-2.8-.5-1.5-.8-5.5-.9-9-.1-5.2-.5-6.6-2.2-8-3.4-2.6-4.4-5.6-4.4-12.2 0-5.1-.5-6.7-2.6-9.6-3.7-4.8-8.3-4.3-13 1.3-2.4 2.9-3.7 2.5-10.6-2.9-3.5-2.7-4.2-2.9-9.1-2.3-5 .6-5.6.5-7.4-1.9-2.1-2.6-3.4-3.2-4.6-1.9z"/><path d="M319.2 629.1c-.7 1-1.2 3.3-1.2 5.1 0 2.7 1.1 4.3 6.7 9.5 5.3 5 6.9 6 8 5.1 1-.8 1.2-2.3.7-5.2-.9-5.5-1.7-6.6-2.5-3.6-.6 1.8-.7 1.1-.6-2.4.2-4.2-.2-5.1-2.5-6.9-3-2.2-4.9-1.7-2.8.8 1.1 1.3.8 1.5-1.5 1.5-2.4 0-2.7-.3-2.3-2.5.7-3.2-.4-4-2-1.4z"/></svg>
