<svg version="1.0" xmlns="http://www.w3.org/2000/svg" width="1365.333" height="1365.333" viewBox="0 0 1024 1024"><path d="M747.4 1.7c-2.7 1.3-3.3 2.4-4.3 7.1-.6 3-1.2 8.7-1.2 12.6-.2 12.7-.3 12.8-8.8 14.5-7 1.3-7.8 1.3-15.1-.8-6.1-1.8-8.2-2-9.9-1.2-1.1.6-3.2.9-4.5.5-1.5-.4-3.6.1-5.4 1.2-2.9 1.7-3.1 1.7-7.7-1-4.6-2.8-4.7-2.8-13.1-1.6-7.2 1-8.8 1-10.7-.3-2.2-1.4-7.4-1.9-22.4-1.9-2.9 0-7.5.8-10.3 1.7-4.2 1.4-7.8 1.6-19.3 1.3-16-.6-25.1-2.8-32.4-7.9-3.2-2.3-5.2-2.9-9.2-2.9-4.4 0-5.1.3-5.1 1.9 0 1.1 2.1 8.6 4.8 16.8l4.7 14.8-.2 16c-.2 8.8-.8 19.1-1.4 22.8-1.1 6.7-1.2 7-5.6 9.5-2.5 1.5-7 4.7-10.1 7.1-3.2 2.3-7 5-8.7 5.8-1.6.9-6.5 4.7-10.8 8.5-10.4 9.1-13.8 11.3-22.7 14.3-6.6 2.3-9 2.5-20.5 2.5-7.1-.1-13.8.1-14.7.5-3.2 1.3-2.3 7.2 1.7 11.6 3.9 4.3 4 5.4 2.3 12.9-1.3 5.5-3.1 7.4-11.9 12-4.9 2.6-19.9 12.6-23.5 15.8-2.6 2.2-6.4 9.4-6.4 12.1 0 1-1.5 5.2-3.4 9.2-1.8 4.1-4.1 9.5-5 12.1-2 5.5-4.2 6.4-12.1 4.9-3.9-.7-5.6-.6-8 .6-3.8 2-4.5 3-4.5 7.3 0 2.7-1.2 5-5.1 9.9l-5.2 6.3 1.3 8.2c3 18.6 3 18.3-4.6 30.9-5.5 8.9-7.2 12.7-8.6 19.2-1.6 7.5-1.6 8.5-.1 16.7 1.3 6.7 2.1 8.9 3.5 9.4 1.5.4 1.8 1.6 1.8 6.1 0 4.9.4 6 3.5 9.4l3.5 3.9-2 5.1c-1.2 2.8-2.5 9.6-3 15-.9 9.2-1.3 10.4-6 18.7-4.4 7.8-5 9.5-5 14.6 0 5.6.2 6 5 11.3 3.5 3.9 5 6.3 5 8.3 0 2.5-.6 3-5 4.5-8.6 2.9-13.8 10.9-20.9 32.8-1.5 4.3-4.1 9.1-7.4 13.4-6.1 7.9-9.8 9.3-20.6 8.1-8.1-.9-29.8-1-32.8-.2-3.4.9-3.1 7 .7 13.7 3.4 6.1 3.7 9.5 2 28.7-1.7 19.5-3.5 26.5-8.8 33.9-6.8 9.5-9.1 16.1-9.2 25.1 0 9.3-3.9 22.1-7.8 25.4-4.7 4-5.2 4.8-5.2 8 0 7-2 14-4.9 17.1-6.6 7.1-8.6 13.1-11 32.7-.7 6.5-1.6 8.9-5.3 15-2.8 4.6-5.1 10.1-6.3 14.8-1.8 7.5-10.9 27-20.6 44-5.8 10.3-14.5 18-20.2 18-4.2 0-5.1 1-6.7 8-.7 3-3.2 10.1-5.6 15.8-6.6 15.2-11.6 33.7-12.1 45.2l-.5 9.5-8.7 17-8.6 17-4.9 1.3c-4.8 1.4-4.8 1.4-4.3 4.9.4 1.9 1.6 5.4 2.8 7.7 1.2 2.2 2.9 5.4 3.8 7.1 2.5 4.7 2 20.2-.8 28.7-3.1 9.2-9.9 18-14.9 19.1-5.1 1.1-9.1 6-9.2 11.3 0 9-.5 9.7-12.9 19.9-10.5 8.5-11.9 10.1-13.3 14.4l-1.5 4.9 6.1.5c3.3.4 13.8.9 23.1 1.3 9.4.4 19.3 1.3 22 2 4.5 1.2 5.1 1.1 6-.4.6-.9 2.3-2.9 3.8-4.4l2.9-2.8 5.1 2.6c4.7 2.4 5.7 2.6 13.1 1.9 4.3-.4 10.9-1.6 14.4-2.7 5.1-1.6 7.9-1.8 12.9-1.3l6.3.7v4.7c0 4.3.4 5.1 5 9.6 3.6 3.6 5 5.7 5 7.7v2.8h9.8c7.2 0 10.3-.4 12-1.6 1.5-1.1 5.6-1.7 13.3-2.1l11-.6 1.6-4c1.2-2.8 3.1-4.9 6.9-7.3l5.3-3.4h25l1-3.8c.5-2 1.3-5.5 1.8-7.7.7-3.3 1.4-4.1 4.2-4.9 4.3-1.2 6.7-6.2 8.2-17.2.6-4.3 1.7-9.4 2.5-11.3 1.9-4.5 1.8-17.5-.2-28.3l-1.6-8.8 2.7-4.7c1.5-2.7 3.6-7.2 4.6-10.1 1-3 3.2-7 4.9-8.9 3.7-4.1 5-7.2 5-11.6 0-5.1 1.1-5.9 4.7-3.7 2.7 1.6 3.2 2.6 3.8 7.4.7 5.2 1 5.7 5.4 8.5 4.2 2.6 10.7 5.1 13.8 5.1.8 0 1-1.6.6-5.2l-.5-5.3 6.4-3.4c5.8-3.1 7-3.4 12-2.8l5.5.7 5.1-6.4c4.5-5.6 5.8-6.6 10.5-8 6.3-1.8 7.2-2.7 8.1-8.1.5-2.4 2-5.3 3.9-7.2 2.9-3.1 3.6-3.3 9.6-3.3 6.2 0 7.3-.4 18.6-6.6 14.3-7.8 18.9-11.9 21.1-18.8 2.7-8.5 10.2-21.1 13.7-23.1 1.8-1 8.2-5.1 14.2-9.1 6.1-4 13.3-8.2 16.1-9.3 4-1.7 6.1-3.6 10.2-9.1 2.9-3.8 8.1-9.1 11.6-11.7 3.6-2.6 6.8-5.4 7.1-6.2.3-.8.8-4.7 1.2-8.7.5-6.9.4-7.6-2.1-10.8-2.7-3.6-3-5.2-2-10.5.5-2.5 1.1-3.1 3.3-3.1 1.4 0 5.4-.9 8.8-1.9 3.5-1.1 8.6-2.2 11.5-2.5 3.3-.4 8.8-2.4 14.5-5.3 8.2-4.2 9.4-5.2 10.8-8.6.9-2.2 3.4-6 5.5-8.6 3.3-3.9 4-5.5 4-8.9 0-3.6-.4-4.4-2.9-5.6-2.9-1.5-8.2-7.7-9.4-10.8-.3-1-2.2-1.9-4.9-2.3-2.4-.4-6.3-1.8-8.8-3-14.5-7.5-20.2-9.5-27.4-9.5-5.9 0-7.6-.4-10-2.4l-3-2.3 2.3-5.5c1.9-4.8 2.9-5.9 8-8.7 8.1-4.6 10.1-8.9 10.1-21.6V612l7.1-5.7c6.1-5 7.8-7.2 12.5-16.1l5.6-10.2h4.7c6.6 0 9.6-3.3 12.2-13.4 1.1-4.2 4-11.4 6.6-16.1l4.6-8.5 3.2 2c4.5 2.8 11.3 1.8 15.1-2.1 2.4-2.5 3.5-2.9 8.1-2.9 5.2 0 5.3 0 8.5-5 3.7-5.6 7.1-7.3 12.9-6.4 3.2.5 4.4 1.4 7 5.5 2.4 3.8 3.9 5.1 6.7 5.8 8 2 10.8 2.1 12.7.6 1.1-.8 2.9-1.5 4-1.5 1.3 0 3.1-1.8 5-4.8 1.7-2.6 4.5-5.4 6.3-6.4 3.2-1.5 3.7-1.5 8.5.2 2.9 1 7.8 3.2 11.1 4.9 3.2 1.7 6.3 3.1 7 3.1.6 0 5.2 1.6 10.1 3.6 7.5 3 10.7 3.6 19.1 4.1l10 .6 5.7-3.8 5.7-3.8v-13.5l-3.7-1.3c-2.1-.7-5.4-3-7.4-5.1-3.5-3.8-3.6-3.9-12.5-4.5-10.7-.7-13-2-14.5-8-1.1-4.2-1.5-4.5-8.5-7.8-4.1-1.8-7.7-4-8-4.8-.3-.9 1.1-3.6 3.2-6.4 2-2.6 6.5-10.7 10-17.8 7-14.7 10.8-19.4 27.6-34.9 6.7-6.2 11.2-11.2 12-13.2.9-2.6 1.8-3.4 4.2-3.6 3-.3 3.1-.5 3.4-5.6.3-5.5 1.1-6.1 5.7-4.3 1.5.6 3.2 0 6.5-2.4 4.4-3.2 4.6-3.3 8-1.8 2.6 1.1 6.2 1.4 14.3 1.1l10.8-.5 4.6-4.5 4.6-4.6-.2-6.9c-.2-8.3 1.7-13.5 7.8-20.8 2.2-2.7 4.1-5.7 4.1-6.5 0-1.6 8-5.8 15.1-8 3.2-.9 3.7-1.6 4.3-4.8.3-2 .6-4.8.6-6.2 0-2 1.1-3.1 5.7-5.5 5.7-3 5.8-3.1 10.1-13.1 4-9 4.8-10.3 7.6-11.1 2.6-.7 3.1-1.4 3.4-4.4.3-3.2-.2-4.1-4.9-8.3-2.8-2.5-5.5-4.6-6-4.6s-.9-.8-.9-1.8-2-5-4.5-9c-4.3-6.9-4.5-7.6-4.5-14.7 0-7.3.1-7.7 3.8-11.8 7.6-8.6 7.3-7.8 5.8-12.7l-1.3-4.5-9.6-2.9c-10.2-3.1-10.7-3.6-10.7-11.2 0-1.9-.7-2.6-3.1-3.1-3.6-.7-4.8-2.9-7.4-14.3l-1.8-7.5 6.2-12.4c7.6-15.1 7.6-16.5-.7-20.9-3.1-1.6-8.5-3.8-11.8-4.7-6.7-1.9-8.4-3.8-8.4-9.9 0-3.1-.5-3.5-10.4-9-9.8-5.6-10.4-6.1-12.5-11-1.1-2.8-2.8-7.4-3.6-10.2l-1.5-5.2-20.8-.4c-19.8-.4-20.8-.3-24.2 1.7-8.1 5-7.2 5.3-12.5-4.1-2.6-4.7-4.4-8.8-4.1-9.2.4-.4 8.2-5.2 17.4-10.8l16.7-10V68.3c0-12.9.2-14.4 2.1-17l2.1-2.8 5.4 5c5.7 5.3 11.4 8.4 12.8 6.9.8-1 6.1-20.2 6.1-22.3 0-1-2.1-1.1-8.9-.6-8.2.7-9.3.5-14.4-1.8-3-1.4-7.9-3.2-10.9-4.1-4.5-1.3-6.6-2.8-12.5-8.9-4.2-4.3-7.4-8.6-7.8-10.3-1.6-7.2-2.8-9.5-5.5-10.9-3.7-1.9-10.6-1.8-14.6.2z"/></svg>
