<svg version="1.0" xmlns="http://www.w3.org/2000/svg" width="1365.333" height="1365.333" viewBox="0 0 1024 1024"><path d="M671.3 113.1c-2.7 1.7-3.3 2.7-3.3 5.7 0 3.3-.1 3.4-1.4 1.7-1.3-1.9-1.6-1.8-6.6 1.3-2.8 1.8-6.3 3.2-7.8 3.2-5 0-6.7 1.1-9.6 6-1.7 2.8-3.9 5.1-5.2 5.4-4.6 1.2-10.5 7.5-14.3 15.1l-3.6 7.6-10.2 3.5-10.2 3.5-8.1-4.1c-4.4-2.2-10-4.3-12.4-4.6-3.9-.6-5-.2-12.2 4.3-4.3 2.7-10.5 5.9-13.7 7.2l-5.7 2.3-8.3-2.6c-6.1-1.9-10.5-4.3-17.2-9.1-4.9-3.6-10.6-7.6-12.5-9-3.3-2.3-4.8-2.5-18.3-3.1l-14.7-.7v-5.5l-6.5.6c-5 .3-7.5.1-10.4-1.3l-3.8-1.7-6.4 4.7c-4.5 3.3-6.9 4.5-8.3 4-1.2-.3-5.9-1.2-10.6-2-4.7-.7-14.1-3.3-21-5.8-12.1-4.2-12.7-4.3-18-3.2-3 .6-7.9 2-10.8 3-4.7 1.7-5.2 2.2-5.2 4.9s-.9 3.7-7.2 7.8c-8.4 5.4-8.8 5.4-14.8-2.6-3.2-4.3-4-6.1-4-9.6 0-3.8-.5-4.8-4.9-8.9-8.5-8-10.4-9.2-14-8.1-3.3.9-9.8 5.6-14.3 10.2-1.7 1.8-3.6 2.8-5.5 2.8-1.7 0-5.6.9-8.9 2-7.3 2.6-10.4 2-15.2-3-2.5-2.5-6.3-4.8-12-7l-8.2-3.2-9.8 1.2c-5.7.7-15.8 1.1-24.7.8-13.5-.4-16-.8-24.6-3.6-12.1-4-24.5-4.5-29.4-1.1-6.2 4.2-20.7 11-25.8 12-3.8.8-6.3 2.1-9.2 4.9-2.2 2.1-5.3 4.2-7 4.6-1.6.4-5.5 1.9-8.5 3.4-5 2.4-6.2 2.6-13.2 2.1-8.2-.6-14 .1-14.6 1.8-1.1 3.2-5.1 7.6-7.7 8.4-1.6.5-6.5 3.6-10.8 6.9l-7.9 6-7.6-1.1c-8.5-1.3-8.7-1.2-9.6 5.4-.6 3.8-1.3 4.5-8.5 9.4l-7.9 5.3-1.2 7.7c-2.5 17.1-3.3 19.4-6.5 20.3-1.7.4-6.6.3-11.3-.4-7.3-1.1-8.6-1-11 .4-2.4 1.5-2.8 2.5-3.3 8.5-.4 3.7-.7 11.3-.8 16.8-.1 7.3-.8 12.5-2.7 19.5C0 272.8-.1 274.4.6 285.5c.4 6.6.6 17.9.5 25C.8 322.4 1 324 3.3 329c1.3 3 3.4 6.4 4.6 7.4 3.5 3.2 7.1 12.5 9.6 25.1 1.3 6.7 3.8 15.1 5.5 18.8 2.1 4.8 3.8 11.2 5.5 21 3 18.3 2.6 26.8-1.7 34.6C24 441 20.7 450 21.6 450c.2 0 2.3-1.2 4.6-2.6 4-2.5 4.2-2.6 5.5-.8.7 1 1.3 3.2 1.3 4.9 0 1.8.9 5.8 2 9 2.6 7.4 2.6 10.1 0 10.8-1.6.4-2 1.4-2 4.7 0 3.8.2 4.1 2.3 3.4 1.2-.4 3.8-1.7 5.7-3 4.7-3.3 11.8-3.3 14.6-.2 4.1 4.7 7.3 10.6 7.9 14.9.7 4.4.7 4.5 6.8 6.7 3.4 1.2 8.1 2.2 10.4 2.2 2.4 0 6.4.8 9.1 1.8 6.6 2.5 19.7 11.6 21.8 15.1 1.9 3.1 9.1 7.1 13 7.1 1.6 0 3.5 1.1 5.2 3.2 1.5 1.7 5.8 4.6 10 6.5 6.1 2.8 8.5 3.3 14.6 3.3 4.2 0 7.9.5 8.9 1.3 1 .7 2.1 3.5 2.6 6.6 1 6 3.3 8.5 8.9 9.6 3.9.7 6.3-.9 8.2-5.6.7-1.6 2.2-3.2 3.5-3.5 2.1-.5 24.4 0 50.2 1.2 12.8.5 13.2.5 17-1.9 6.1-4 9.7-4.3 14.2-1.4l3.8 2.6.5 8.8c.3 4.8 1.1 11.2 1.8 14.1 1 4.6 1.6 5.5 5.2 7.3 3.2 1.6 5 1.9 8.9 1.4 4.7-.7 4.8-.6 5.5 2.1.4 1.6 1.7 3.6 2.8 4.5 1.7 1.4 1.8 1.9.7 3.3-1.9 2.3-.6 3.4 9.8 8.5l9 4.4.3 8.6c.2 4.7 0 12.1-.6 16.5l-.9 7.8-4.1 1.8c-2.6 1.1-5.3 3.4-7.4 6.4-1.8 2.5-3.9 4.6-4.7 4.6-.8 0-2.6.4-4 1-2.6 1-2.6 1-.9 3.9 1.7 2.9 1.7 3-1.4 5.6-3 2.5-3.2 3.2-3.2 8.8 0 3.4-.5 10-1.1 14.7-.6 4.7-1.2 12.1-1.4 16.5-.1 4.4-1 10.9-1.9 14.5-2.5 10.4-2.1 16 1.7 23.8 1.9 3.7 5 11 7 16.2 5.1 13 5 13 8.1 10.1 1.3-1.3 3-3.5 3.6-5.1.9-2.1 2-2.9 4.8-3.4 6.3-1 10.1-.7 14 1.3 2 1 6.3 2.6 9.4 3.5 4.9 1.4 5.7 2 6.3 4.6.8 3.6 2.4 4.6 8.8 5.5 5.3.8 5.6 1.4 2.6 4.1-4.5 4.1-4.3 5 2 8.8 4 2.5 7.1 3.6 9.7 3.6 2.2 0 4.8.7 5.8 1.5 1.1.8 2.8 1.5 3.7 1.5 1.1 0 2.9 2 4.6 5.2 2.4 4.4 3.4 5.3 7.3 6.4 2.5.8 7 1.4 10.1 1.4 6.5 0 7.4.6 12.5 8.5 2.1 3.3 6.5 8.7 9.7 12l5.8 6 5.2 20.7c4.8 19.4 5 20.8 3.5 22.5-1 1-2.6 4.7-3.7 8.1l-1.9 6.3 2.4 1.6c1.8 1.2 2.4 2.4 2.4 5.3v3.7l7.4 2.1c5.6 1.7 8.8 3.3 12.7 6.7 4.8 4.1 5.7 4.4 8.8 3.9 2-.4 5.8-1.8 8.4-3.1 4.1-2 5.3-2.2 8.5-1.3 5.4 1.5 5.9 1.3 7.1-2 1.2-3.5 1.6-3.6 5.9-1 3.7 2.3 6.6 1.9 16.7-2 4.9-1.9 5.2-1.9 11-.2 4.6 1.3 8 1.6 14.6 1.2 8.5-.5 8.6-.5 13.9-5.3 3.6-3.2 5.8-4.6 6.9-4.1.9.3 4.3 1.6 7.6 2.7 7.5 2.6 8.2 3.1 9.1 7 .7 3.1 5.1 10.7 6.3 10.7.3 0 2.3-.5 4.3-1 3.1-.9 4.2-.8 6.3.6 1.4.9 4.3 2 6.5 2.4 3.9.7 3.9.7 15.7-10.4 6.5-6.2 13.6-12.3 15.8-13.5 2.2-1.3 5.2-3.7 6.6-5.4 2.5-2.9 3-3 9-2.8 4.1.1 7.4-.4 9.1-1.3 2.6-1.4 2.9-1.3 4.3.7.8 1.2 1.5 3.4 1.5 4.9 0 3.3.5 3.4 6.5.8 2.6-1.1 6.6-2 9-2 4.1 0 4.4-.2 5.9-4 1-2.6 1.6-7 1.6-12.2 0-7.6-.3-8.8-4-15.9l-4-7.7 2.8-1c1.8-.6 3.4-2.3 4.6-5.1 1.8-3.8 2.2-4.1 5.8-4.1 2.2 0 7.3-1.4 11.3-3.1l7.4-3.1 5.7 4.6c6.2 5.1 5.9 5 11.8 3.5 3.6-.9 5.6-2.6 13.5-11.5 9.4-10.6 11.9-15.2 13.6-25.2.6-3.7 1-4.2 3.4-4.2 1.5 0 5 .7 7.7 1.5 4.4 1.3 5.8 1.3 13.2-.2 7-1.3 8.6-2 10-4.2 4.3-6.8 8.5-11.1 10.9-11.1 2.6 0 7.1 4.4 14.5 14.2l3.6 4.9-3.9 3.6-4 3.6 2.2 2.3 2.2 2.3-2.6 1c-3.1 1.2-4.4 5-2.7 8.2.7 1.2 1.7 4.2 2.4 6.6.6 2.5 1.4 4.4 1.9 4.4.4-.1 6-.1 12.6-.1 11.6 0 11.9 0 15.6-3 2.1-1.6 4.7-3 5.8-3 1.1 0 3.9-1.1 6.3-2.5 4.8-2.8 4.8-3.1 6-19.8l.6-9.9-3.7-5.4c-2.1-3-5-6.3-6.5-7.4-1.8-1.3-3.1-3.5-3.9-6.5L836 769l-7.9 4.1c-8.3 4.4-13 5.1-18.3 3-2.7-1-2.8-1.4-2.8-7.6 0-6.2.4-7.4 7.1-20.3 5.7-11.2 7-14.3 6.6-17.2-.5-4 1.6-17.3 3.3-21 .7-1.5 3.1-3.4 6-4.6 6.6-3 12-10.8 12-17.5 0-6.1-2.3-12.3-6-16.5-4.2-4.8-4.2-10.9.1-18.7l3.1-5.7-2.1-6.2c-3.4-10-2.3-17.8 2.3-17.8.7 0 2.6-1 4.1-2.2 2.5-2 2.7-2.5 2.1-7.2-.3-2.8-.9-7.8-1.1-11.1l-.6-6 6-4.5c4.8-3.6 6.3-5.4 7.6-9.3 2.5-7.3 6.6-9 22-9.1l12-.1 9.5-4.9c5.2-2.7 9.7-5.3 9.9-5.9.2-.6 2.7-4.5 5.6-8.7 3.4-5 5.4-9.1 5.9-12 .4-2.5 1.1-6.8 1.6-9.5.5-2.8.9-7.3.9-10.1.1-4.7.5-5.5 3.6-8.3 3.9-3.4 8.1-4 14.5-2.1 1.9.6 6.4 1.4 9.9 1.9 6.3.8 6.3.8 7.3-2 1.4-4.2 3.9-4.4 11.5-.8 7.4 3.4 13.7 5 16.8 4.3 1.1-.3 3.1-2.1 4.4-4.1 2-3.2 2.3-4.5 1.9-10.3-.4-5.5-.1-7.4 1.6-10.7 3-5.8 9.2-12.3 12.9-13.5 4.1-1.4 10-5.7 12.8-9.2l2.2-2.8-2-2.6c-3-4-6-5.2-13.6-5.2-5.4 0-7.5-.4-9.4-2-3.3-2.6-8.8-2.6-14.8 0l-4.7 2-9-2.5c-8-2.2-11.7-4.3-11.8-6.8 0-.4 2-4.4 4.4-9 2.4-4.5 5-10.7 5.6-13.7 1.6-6.9 4.4-13.1 6.8-15.4 1.9-1.6 1.9-1.8-.4-7.4-3.8-9.2-3-13.7 3.1-19.4 4.6-4.2 5.4-7.9 5.5-24.5v-13.1l-2.7-.6c-1.6-.3-5.7-1.1-9.3-1.7-3.6-.7-8.5-2.3-10.9-3.7-3.4-2-6.1-2.7-11.3-2.9-6.6-.2-7-.4-13.6-5.7-9.8-7.8-22.2-25.4-22.2-31.7 0-.8-1.8-3.9-3.9-6.8-2.9-3.9-6.1-6.5-12.3-10-6.6-3.8-9.3-6-13.1-11.1-3-4-6.5-7.4-9.5-9-10.6-6-29-19.5-34.5-25.6-3.3-3.5-9.5-9.2-13.9-12.6-8.2-6.3-11.8-11.6-11.8-17.2 0-3.4-4-4.8-11.5-4-6.1.6-6.4.6-11.1-3l-4.8-3.7-3 2.9-3.1 2.9-15.5-.9c-12.1-.6-16.6-1.3-20.5-2.9-3.3-1.4-8.6-2.5-15.5-3-5.8-.5-11.6-1.1-13-1.5-4.7-1.3-8.9-5.2-10.1-9.7-2.1-7.8-7-17.2-11.3-21.7-3.9-4.1-4.5-5.5-7-15.8-2.9-11.6-11.4-34.3-13.1-34.9-.6-.1-2.5.7-4.2 1.8z"/></svg>
