<svg version="1.0" xmlns="http://www.w3.org/2000/svg" width="1365.333" height="1365.333" viewBox="0 0 1024 1024"><path d="M597.1 210.8c-.8 1.5-.4 2.6 1.9 5.3 3.6 4.2 4.1 10.7 1.1 14.5l-1.9 2.4-3.1-5c-1.7-2.7-3.4-6.8-3.7-9-1.4-8.6-6.6-11-16.1-7.4-4 1.6-4.3 2-6.8 9.5l-2.7 7.9h-6.7c-5.7 0-7.7.5-12.6 3.2-4.8 2.6-6.3 3-8.4 2.1-1.5-.5-4.3-.8-6.4-.5-3.2.4-4.4 1.3-7.8 5.8-3.7 4.9-4.3 5.2-6.6 4.3-2.1-.8-3-.6-5 1.2l-2.3 2.3-2.9-2.8-2.9-2.7-7.8 3.8c-7.7 3.7-7.9 3.9-8.7 8.3-1.2 6-3.1 8.2-6.4 6.9-1.3-.5-3.7-.9-5.3-.9-2.7 0-2.8.2-3.3 6.2-1.8 22-.8 40.5 3 55.9 1.6 6.2 1.6 6.8 0 9.2-2.1 3.2-2.3 11.9-.3 17.3.7 2.2 1.6 8.2 2 13.4.4 5.2 1.4 11.4 2.2 13.8.9 2.7 1.4 8.5 1.4 16 0 8.8.4 12.3 1.5 13.8.8 1 1.5 4.1 1.5 6.9 0 7.3-5.1 15.3-18.6 29-11.9 12.1-21.7 19.7-31.9 24.7-5.4 2.7-6.6 3.7-7.1 6.3-1.1 5.2-6.7 8.8-20.4 13.3-13.4 4.3-30 7-36.4 5.8-3.3-.6-4.3-1.6-8.4-8.1-5.1-8-8.8-10.5-18-11.9-5.7-.8-10.9-3.6-15-7.8-2.7-2.9-3.7-5.2-5.8-14.4-1.4-6-3.5-13.6-4.6-16.9-1-3.3-2.4-9.2-2.9-13-.6-4-2.3-9.8-4.1-13.5-2.1-4.4-3-7.8-2.9-10.6.2-4.1.1-4.2-4.6-5.8-2.6-.9-8-3.7-12-6.4-6.5-4.1-8.3-6.1-15.8-16.7-5.6-8.1-10.1-13.3-13.6-16-8.5-6.4-18.5-16.2-21.7-21.3-1.6-2.6-3.7-7.1-4.7-10-1.6-5-1.6-6-.1-14.2.9-4.8 1.6-10 1.6-11.5v-2.7l-5.7.7c-7 .9-17.2 4.8-27.9 10.9-4.4 2.5-13 6.8-19.1 9.5-6.1 2.8-15.3 7.3-20.5 10.1l-9.5 5h-10.7c-10.3 0-11.1.2-20.6 4.1l-9.8 4.1-1.6 6.5c-3.1 12.3-10.5 25.6-16.3 29.5-1.5.9-5.1 6.2-8.3 12-3.1 5.7-7.7 13.1-10.2 16.6l-4.6 6.3-.7 22.4c-.4 12.3-.5 23.1-.2 23.9.3.8-.7 6.3-2.3 12.3l-2.8 10.8-8.5 8c-4.6 4.4-9.1 9.2-10 10.7-1 1.5-7.1 7.1-13.6 12.3-6.6 5.3-12.6 10.7-13.5 12-1.3 1.9-1.6 5.2-1.6 15.7 0 17.3-3.4 35.7-8.2 45l-3.3 6.3-.1 16c-.2 14.5-.4 16.7-2.9 24-2.5 7.5-2.7 8.7-2 19 .5 8.7.3 11.9-.9 15.4-2.3 6.4-2 9.9 2.4 24.4 2.1 7.3 4.2 16.2 4.6 19.8.4 3.7 1 7.2 1.4 7.8.5.8 2.5.6 7.1-.9 3.5-1.1 7.8-2 9.5-2 3.8 0 8.1-4.2 9.5-9.6 1-3.5.9-4-1.5-5.9l-2.6-2.1 5.2-2.3c3.8-1.6 6.5-3.7 9.3-7.4 3.1-3.9 5.8-6 11.8-8.9 4.2-2.1 7.7-4.2 7.7-4.7 0-.4 1.8-2.9 4.1-5.5 3.3-3.7 4.7-4.6 7.3-4.6 2.3 0 4.1-.9 6.5-3.4 4.2-4.3 6.3-4.8 14.7-3.7l6.6 1 5.2-3.8c8.4-6.3 10.6-7.1 19.9-7.1h8.5l3.1-3.8c6.6-8.1 6.3-7.9 16.9-8.4 9.4-.4 9.9-.3 14.5 2.5 4.9 3 10.7 3.9 24.7 3.7 2.5 0 9.1.3 14.8.6l10.3.6 5.6 4.8c6.4 5.4 13.3 8.1 15.8 6 1.5-1.3 19.6-1 22.6.4 1.2.5 2.6-.9 5.9-6.6 2.4-4 4.3-7.4 4.4-7.5.1 0 1.7-.4 3.7-.8l3.5-.7 1.8 8.3c2.1 9.8 5.5 15.4 10.2 16.9 3.1 1.1 3.9.8 9.4-2.5 3.3-2 6.7-4.9 7.4-6.4 1.4-2.6 2.1-2.8 12.2-4l10.7-1.2 5.6 3.4c13 7.9 19.3 8.6 29.6 3.3 5.9-3 8-3.6 13.5-3.6 8.1 0 9.4.8 8.5 4.8-.7 3.3.9 5.2 2.8 3.3 1.6-1.6 9.7-1.3 12.7.4 1.4.8 5 1.5 8 1.5 4.4 0 6.4.6 9.9 3 2.4 1.7 4.9 3 5.5 3 .7 0 2 1.3 2.9 3 1 1.6 3.4 4.2 5.4 5.7l3.5 2.7 4.7-1.8c2.5-1 7.3-2.6 10.6-3.7 3.2-1.1 6.7-2.7 7.7-3.6 1.6-1.4 2-1.3 4.8 1.1 2.1 1.7 4.3 2.6 6.8 2.6 2.2 0 4.4.8 5.7 2l2.2 2 3.9-2c2.1-1.1 5.8-2.5 8.1-3 5.4-1.3 10.3-5.4 10.3-8.6 0-1.6.8-2.8 2.4-3.5 1.9-.9 2.5-2.1 3.1-6.5.7-5.5.7-5.6 7-6.9 1.9-.3 3.6-1.6 4.6-3.4 1.4-2.3 2.5-2.9 6.9-3.5 2.9-.4 6.2-1.4 7.4-2.2 1.1-.8 3-1.4 4.2-1.4 2.3 0 3.4-1.7 3.4-5.1 0-2 .1-2 3-.3 2 1.2 3.6 3.6 5.1 7.3 1.2 3.1 3 6.9 4 8.6 1 1.6 2.1 5.9 2.4 9.5.7 6 1.1 6.9 5.6 11.5 4.9 5 7.9 11.3 9.4 19.7.6 3.2 1.3 3.9 6.3 6.1 8.7 3.8 9.9 4 11.1 2 2.6-4.5 2.7-4.6 5.2-3.3 1.3.7 4.5 3.3 7.1 5.7 4.7 4.3 4.9 4.4 9.9 3.7 3.6-.5 7.3-.1 12.5 1.2l7.4 1.8 3-2.9 2.9-2.8 4.1 3.6c4.4 4.1 6.9 4.5 12.3 2.2 2-.8 3.8-1.5 4.1-1.5.2 0 .7 2.8 1.1 6.2 1 8.1 2.7 10.6 9.5 13.5 3.7 1.7 8.3 5.2 14 10.7 6.5 6.3 10.7 9.4 17.7 13 5.3 2.6 9.8 5.6 10.4 6.9 4.4 8.6 8.5 12.9 17 17.8 8.6 5 8.8 5.1 9.9 10.2.7 2.9 2.8 7.9 4.6 11.3 2.6 4.7 4.3 6.5 7.3 7.9 4.7 2.1 8.6 5.9 10.1 9.9 1 2.6 1.3 2.8 4.9 2.2 4.1-.6 8.2.7 13.5 4.3 1.7 1.1 4.7 2.3 6.9 2.7 3.4.5 5.1 0 12.4-3.7l8.4-4.4 3.2 1.8c1.8 1.1 4.3 2.6 5.8 3.4 2.4 1.4 2.7 1.3 6-1.9 1.9-1.8 5-4.4 6.8-5.8 2.7-2 3.5-3.6 4.3-7.9.8-4.8 1.8-6.4 8.1-13.2 6.5-7.1 7.5-7.9 11-7.9 4.4 0 8.2-1.8 11.6-5.4 4.3-4.6 7.3-3.6 18.1 5.9l9.5 8.3 6.2-4.4 6.2-4.5 5.3 2.8c4.6 2.4 6.7 2.8 16.4 3.1l11.1.4 1.7-4.1c.9-2.5 1.6-7 1.6-11.4 0-7.9 3.6-23.5 6.5-28.4 2.4-4.1 4.8-5.4 11.1-6 5.2-.6 5.4-.7 5.4-3.6 0-2.1 1-4.1 3-6.2 3-3.1 3-3.1 1-5-2.5-2.3-2.6-3.5-.2-3.5 1 0 2.9-1.1 4.2-2.5 1.3-1.4 3.1-2.5 4-2.5 1 0 3.9-3.1 6.8-7.3 5.9-8.5 6.4-9 11.5-10.8 2-.7 3.7-1.9 3.7-2.5 0-.7 1.4-1.5 3-1.9 1.7-.4 3-1.3 3-2.1 0-.7 1.5-2.1 3.3-3 5.5-2.8 7.6-5.4 8.8-11.1 1.1-4.7 1-5.6-.4-7-1.4-1.5-1.3-2.1 2-8.2l3.6-6.6-5.7-11.2c-5.9-11.9-7.1-18-4.5-23.7 1.1-2.2.7-3-3.4-7.8-2.4-2.9-4.8-6.7-5.1-8.5-.4-1.7-1.8-4.3-3.2-5.8-3-3.3-3-4.3.1-8.5 1.4-1.9 2.5-4.2 2.5-5.1 0-2.8-5.3-5.9-9.9-5.9-3.6 0-4.4-.4-6.6-3.8-1.4-2.2-3-6.3-3.4-9.3-.5-3-1.4-6.7-2-8.3-1.8-4.5-6.9-11-10.1-13-3.9-2.3-3.8-4.6.6-13.9 2.2-4.6 3.4-8.6 3.2-10.4-.3-2.5-.7-2.8-3.5-2.5-2.7.2-4-.6-7.8-4.4-2.6-2.5-6-6.7-7.6-9.4-1.6-2.6-3.6-5.1-4.4-5.4-2.6-1-6.7-10.5-6.1-14.1.7-3.7-.1-6.5-1.9-6.5-2.3 0-4.7-3.7-3.7-5.7.6-1 1.6-3.7 2.3-6 1.1-3.9 1-4.6-1.3-9.1-2.3-4.4-2.4-5-.9-5.9 1.3-.8 1.4-1.3.3-2.6-1.2-1.4-.6-2 4.5-4.6l5.9-2.9 1.3-8.4c.7-4.6 2.2-12 3.3-16.4l2.1-8.2-2-4.8c-1.9-4.4-2.6-5-6.5-6-3.7-.9-4.6-1.6-6.6-5.5-1.9-3.7-3.2-4.8-8.5-7.2-3.4-1.5-8-4.5-10.2-6.7-3.7-3.5-6.1-4.6-17.2-7.6-2.1-.5-1.5-6.4 1.2-12.9 3.3-8.1 3.3-11.8-.2-14-2.5-1.7-2.9-1.7-8-.1-2.9.9-7.4 1.7-10 1.6-2.7-.1-6.3.2-8.1.6-2.6.5-4.1.1-7.3-2-2.9-2-6.1-2.9-11.7-3.6-9-1-10.7-1.5-14.7-4.5-1.7-1.2-4.5-2.6-6.2-2.9-1.8-.4-4.1-1.8-5.1-3.1-1.7-2.1-2-2.2-5-.9-4.2 1.7-8.8.2-9.6-3.2-1-4-2.8-3.1-7.1 3.8-3.4 5.4-5.9 6.8-11.9 6.8-3.6 0-5.4.8-10.6 4.7-4.7 3.5-6.6 5.7-7.2 8-.7 2.6-1.4 3.3-3.4 3.3-1.6 0-2.7-.7-3.3-2.2-.8-2.1-.8-2.1-2.7-.1-1 1.1-2.4 2.8-2.9 3.8-1.8 3.1-6.4 0-8.5-5.8-1-2.7-2.3-5.4-2.9-6.1-.6-.7-4.1-1.6-7.8-1.9-4.6-.5-7.7-1.4-10.2-3.1-2-1.3-4.9-3-6.6-3.7-1.7-.8-3.7-3-4.7-4.9-.9-1.9-3.1-6.5-4.8-10.1-1.7-3.7-5.5-9.7-8.4-13.5l-5.3-6.9-8.2-1.9-8.2-1.9.7-6.6c.3-3.6 1.3-7.3 2-8.2 1.5-1.6 1.7-5.7.6-9.7l-.7-2.3-3.4 2.6c-8.6 6.3-27.2.3-29.1-9.4-.7-3.7-7-5.2-11.2-2.8-2.9 1.7-2.9 1.6-9.5-2.8-3.9-2.5-7.1-5.6-7.8-7.2-1-2.4-2.4-3.2-8.9-5.1-7.4-2.1-7.8-2.4-9.5-6.5-1.2-2.8-3.7-5.7-7.2-8.4-3-2.3-6.7-5.5-8.3-7.2-3.4-3.6-8-4.2-9.5-1.3z"/></svg>
