<svg version="1.0" xmlns="http://www.w3.org/2000/svg" width="1365.333" height="1365.333" viewBox="0 0 1024 1024"><path d="M659 111.2c-1.9.5-5.1 2.5-7 4.3-4.1 3.9-7.7 5.5-12.8 5.5-2 .1-4.8.7-6.2 1.5-1.4.8-5.2 1.4-8.6 1.5h-6.2l-1.2 6.7c-1.6 9.9-4.5 19.2-10.5 33.8-2.9 7.1-5.6 15.2-6 18-.4 2.7-2.7 8.9-5.1 13.6-2.5 5-5.2 12.6-6.5 18-2.4 10.3-3.3 12.4-12.2 27.8-3.3 5.7-11 19.8-17.2 31.2-13.2 24.4-20.1 33.2-30 38.1-3.3 1.7-7.1 3.8-8.5 4.8-1.4 1-5.4 3-9 4.5-3.6 1.5-8.1 4.2-10 6-1.9 1.8-5 3.7-6.9 4.4-1.9.6-4.9 2.2-6.7 3.6-2.1 1.6-4.6 2.5-6.8 2.5-2.7 0-5.2 1.2-10.4 5-3.8 2.7-7.5 5-8.3 5-.8 0-6.3 2.1-12.4 4.6-6 2.5-13.3 5.2-16.2 5.9-3.6.9-7.2 3-12.1 6.9-4.3 3.5-7.9 5.6-9.4 5.6-3 0-8.7 5.8-11.9 12.2-1.1 2.4-4.7 7-7.9 10.3-3.1 3.3-8.6 9.4-12.2 13.5-7.4 8.7-15 16-26.2 25l-7.8 6.4.5 5.1c.3 2.7 0 7.1-.6 9.8-.8 3.4-.7 5.1.1 5.9 1.7 1.7.3 14.8-2 18-1 1.5-2.5 4.6-3.3 6.9-1 2.7-4.1 7-8.3 11.4-8.8 9.1-20.7 24.3-21.7 27.5-.4 1.4-1.5 3.9-2.5 5.6-.9 1.7-2.3 4.8-3 6.9-.7 2.1-2.7 6.3-4.5 9.2-2.8 4.6-3.1 6-2.7 10.3.3 2.9-.3 7.8-1.3 12-1.8 7.2-1.8 13.3.1 33.7.6 6.7.5 7.4-2.5 12.7-2.2 3.8-3.1 6.6-2.9 8.8.3 2.9.7 3.3 3.5 3.6 2.4.2 4.5 1.7 8.4 6 5.2 5.7 10.4 15.4 9.5 17.7-.2.7-1.2 6.3-2.1 12.5-2.8 18.9-12.8 38.2-23.5 45.3-5.1 3.4-12.8 14.8-14.8 21.8-1.3 4.8-7.7 13.4-17.2 23.4-4.2 4.4-10.2 11.4-13.2 15.5-9.3 12.6-12.5 15-30.3 23.1-8.8 3.9-18.8 9.2-22.2 11.6-7.9 5.6-25.3 23-30.3 30.3-5.8 8.5-10.9 11.7-34.5 21.7-13.7 5.9-25.6 9.2-40.5 11.4-4.1.6-12.2 2.2-17.8 3.5-6.3 1.4-13.5 2.4-18.1 2.4-8.8 0-17.6 1.4-23.9 3.7-3.4 1.3-4.8 2.6-7.2 6.9-3.2 5.5-8 10.3-13 12.9-2.5 1.3-5 4.2-5 5.8 0 .2 12 .7 26.8 1 14.7.4 54.6 2.1 88.7 3.7 62.9 3.1 272.4 9.3 273.7 8.1 1.8-1.6 2.9-40.3 1.9-66.6-.6-14.9-1.1-28.2-1.1-29.6 0-2.2 1.4-3.5 8.3-8 4.5-2.9 11.8-8.5 16.2-12.4 4.4-3.9 10-8.5 12.5-10.2 2.5-1.7 5.3-4 6.4-5.1 1-1.2 4.1-2.9 7-3.8 3.1-1 7.4-3.8 10.9-6.8 3.3-2.8 8.3-7.2 11.2-9.8 2.9-2.5 6.3-4.9 7.6-5.3 1.2-.4 4.4-2.3 7-4.2 4.2-3 5.9-3.5 12.4-4l7.5-.6 5-6.3c3.4-4.3 7.9-8.3 14.1-12.5l9.1-6.1 6.7 2.6c4.2 1.7 8.6 2.6 12.1 2.6 3 0 9.8 1.1 15 2.5l9.5 2.4 3.2-3c3.5-3.5 6.3-12.5 6.3-20.4v-4.6l2.8 1.5c3.7 1.9 17.7 1.4 22-.8 2.3-1.2 4.6-1.5 8.4-1 3.9.4 7.8-.1 14.9-2 5.2-1.4 14.4-3 20.5-3.6 8-.8 11.4-1.6 12.9-2.9 1.1-1.1 5.4-4.1 9.6-6.7 5.7-3.6 9.4-7 14.1-12.9 11.1-13.8 18.6-24.8 21.3-31.1l2.7-6.2 11.6-4.8c6.5-2.6 13.4-5.9 15.6-7.2 3.3-2 4.6-2.3 9.1-1.7l5.3.6 4.9-5.2c3.7-3.9 6.5-5.8 10.9-7.3 5.4-1.9 6.3-2.7 10.4-9l4.6-6.8 16.4-3.4c14.6-3 16.8-3.7 19.4-6.3 2.7-2.7 2.9-3.3 2-7.3-.7-3.5-1.3-4.4-3.4-4.6-1.4-.2-3.9-1.9-5.6-3.9l-3.2-3.7-3.3 2.9-3.4 2.8-.3-2.3c-.3-1.4.3-2.9 1.4-3.7 1.6-1.1 1.6-1.8.5-6.9l-1.3-5.6 3.1-3.2c1.7-1.8 3.1-3.5 3.1-3.9 0-.4-1.8-1.6-4-2.7l-4-2v-10.3c0-10.5.3-11.4 4.5-14.9 1.9-1.6 2.6-1.6 8-.3 8.5 2 15.9 1.9 20.3-.4 5.5-2.8 14-6.1 20.2-7.8 6.8-1.8 12.7-4.8 16.1-8 2.5-2.3 2.6-2.9 2.1-8.9-.5-6.3-.4-6.6 2.8-9.9 2.4-2.4 4.4-3.5 7.9-4 2.5-.3 11.8-2.2 20.6-4.2l16-3.6 18.5 1.2c10.2.6 32.1 1.1 48.8 1.1h30.4l-.7-3.3c-.4-1.7-1.8-5.8-3.2-9-2.1-4.6-2.5-6.7-2-10.7.8-7 2-8.7 6.7-9.5 3.3-.6 4.6-1.5 7-5 1.7-2.4 3-4.6 3-4.8 0-.3-6.6-5-14.7-10.6-19.9-13.6-23.7-17.2-25.3-23.8-.7-3.1-.9-7.3-.5-10.7.7-5.2.5-5.9-2.1-9.3-1.6-2.1-4.1-5.7-5.6-8s-3.6-4.6-4.7-5.2c-3.2-1.8-3.9-12.6-1.2-19.7 1.1-3.1 2.1-7.2 2.1-9.1 0-3.9-5.1-13.7-7.6-14.7-1.1-.4-1.5-2-1.4-5.8 0-2.9-.3-8.6-.6-12.6-.4-4.3-.2-10.3.6-14.8 1.4-9.1.6-12.9-5.2-24.1-2.1-4.1-3.8-8.3-3.8-9.4 0-1.1 1.2-3.8 2.7-6l2.7-4.1-6.8-6.2-6.8-6.1 3-5c1.7-2.8 3.4-6.1 3.7-7.5.6-2.4.1-2.8-6.1-5.4-6.3-2.6-8.9-4.7-12.4-10.5-1.1-1.7-3.6-3.2-7.9-4.5-6.2-2.1-6.4-2.2-8-7.1l-1.6-5-8.9-3.2-9-3.2-2.1 2.3c-1.3 1.4-4.3 2.8-7.4 3.5-4.8 1-5.9.8-15.9-2.4-5.9-1.9-11.3-3.9-12-4.3-.7-.5-1.5-2.6-1.8-4.8-.3-2.1-1.5-7.1-2.6-10.9-1.2-3.9-2.3-7.7-2.5-8.5-.3-.9-2.2 1.8-4.4 6.2-3.2 6.3-4.4 7.8-6.2 7.8-1.4 0-4 1.8-6.7 4.6l-4.5 4.6-9.5-.6c-7.1-.4-11.6-1.3-17.9-3.6-7.8-2.9-8.5-3-10.8-1.5-1.3.9-2.8 2.7-3.3 4.1-.8 2.1-1.6 2.4-5.5 2.4-3.8 0-4.5-.3-4.5-2 0-1.6-.7-2-3.3-2-1.8 0-5 .9-7.2 2s-4.8 2-6 2c-1.1 0-4.5 1.2-7.5 2.7-6.7 3.2-14.2 3.2-27 .2-13.7-3.3-18.3-5-21.5-7.9-1.6-1.5-6.8-5.3-11.5-8.3-9-5.8-24.7-20.5-26.6-24.7-4.4-10-5.7-20.4-3-24.2.9-1.2 1.6-2.6 1.6-2.9 0-.6-6-3.2-6.4-2.8-.1 0-1.7.5-3.6 1.1z"/></svg>
