<svg version="1.0" xmlns="http://www.w3.org/2000/svg" width="1365.333" height="1365.333" viewBox="0 0 1024 1024"><path d="M873.3 1.8c-1.2.9-2.8 4.1-3.7 7l-1.5 5.4 4.7 4.6c2.6 2.6 6 6.6 7.6 9l2.9 4.2-2.8 6.5c-2.5 6.1-4.1 7.7-20.4 22.6l-17.6 16.1-13.6-.6-13.7-.6-6.8 6.8c-13.1 12.8-11.1 12-33.7 12.8l-19.7.7-10.1 6.2c-5.5 3.5-13.4 7.5-17.6 9-7.1 2.6-8.2 2.8-19.2 2.2-6.5-.3-12.4-.7-13.1-.9-.9-.2-2.5 3.9-5.3 13.7-2.2 7.7-4.2 14.2-4.3 14.3-.1.2-3.2 1.1-6.9 2.1l-6.6 1.6-8.8 21.6c-7.4 18.2-10 23.3-16.6 33l-7.7 11.4-.6 21-.5 21-4.7 9.5c-2.6 5.2-5.7 12.6-7 16.5-1.2 3.8-4 11.7-6.2 17.5-3.4 8.9-4.9 11.4-9.7 16.3-3.1 3.2-9.5 8.8-14.3 12.3l-8.7 6.5-6.6 12.9c-6.3 12.5-6.9 13.2-23.6 30.9-15.7 16.6-17.4 18.1-21.3 18.6-3.9.6-4.4 1.2-10 9.6-3.2 4.9-6.3 8.9-6.7 8.9-.5 0-9.4-5.7-19.9-12.6l-18.9-12.7-9.8 6c-5.4 3.3-11.2 6.8-13 7.7-1.8.9-6.8 5.1-11.2 9.5-8.8 8.6-9.4 10.2-6.4 16.6l1.7 3.6-9 9c-12.3 12.4-21.5 18.7-28.7 19.5l-5.4.6-57.1 50.2c-31.3 27.5-78.2 68.1-104.1 90.1l-47.1 40v4.5c0 2.5 1.3 8.5 2.9 13.5l2.9 9-4.9 4.5c-4.9 4.4-4.9 4.6-4.9 10.4 0 5.1.7 7 5.4 16l5.4 10.1-1.9 5c-1.5 3.8-2.3 9.4-3.1 23.5-.9 14.7-1.5 18.7-2.7 19.7-.9.6-5.6 1.4-10.6 1.8-6.7.6-9.8 1.3-11.9 2.8-2 1.4-6.6 2.7-13.7 3.8l-10.8 1.7-9.3 7.3c-8.9 6.9-10.2 8.5-28.3 33.8-10.5 14.5-19 27-19 27.7 0 .7 18.9 14 42 29.6 41.6 27.9 42.8 28.9 124.8 94l82.9 65.9 3.6-3.3c2.1-1.7 18-16.7 35.6-33.2l31.8-30.1 41.7-25.7c22.9-14.2 41.7-26.3 41.8-27 .2-.7-.1-1.9-.6-2.6-.6-1-5.5 1.1-20.9 9.2-11 5.8-20.4 10.6-20.9 10.5-.8 0-3.6-3.7-16.5-21.2-6.6-9-6.7-9.4-6.8-15.3 0-5.2.3-6.4 2.2-7.6 1.5-1 1.9-2 1.5-3.2-.7-1.6-2.6-1.7-30.5-1l-29.7.7-1.9-7.1c-2-8-2.3-8.2-12.3-8.2H347v-33.9l4-1.1c2.2-.5 5.8-1.5 8-2 4-1.1 5.5-2.3 4.6-3.8-.3-.5-7.8 0-16.8.9-23.3 2.5-22.4 2.6-24.7-1.9l-2-3.8 14-12c7.7-6.5 14.4-12 14.7-12.1.4-.2 3.7 1.9 7.3 4.6 5.1 3.8 6.8 5.6 7.3 8.2l.7 3.4 2.7-3.2 2.6-3.2 4.7 2.6c4.5 2.6 4.8 3.1 9.5 14.7 3.9 9.5 5.6 12.5 8.5 14.8l3.5 2.8 6.9-4.4c8.3-5.5 15.4-8 20-7.2 3.5.7 3.9 1.3 5.1 8.1.7 3.9 6.6 12.6 11.5 17.1 1.3 1.2 4.2 2.5 6.4 2.8 5.3.9 13.3 3.5 14 4.6.3.4-.6 6.3-2 13-1.4 6.8-2.5 12.5-2.5 12.7 0 .2 1.2-.3 2.8-1.1 2.4-1.2 3-2.7 5.7-13.7l3.1-12.4 11.4-.1h11.5l9-4.7c5-2.6 12.8-7.9 17.5-11.8 4.7-3.8 11.3-8.4 14.8-10.1 3.5-1.7 7-4.3 7.8-5.7.9-1.5 4.1-4.4 7.1-6.5l5.6-3.9 6.7.9c5.6.8 7.8.6 14-1.2 6.3-1.7 7.9-2.7 11.1-6.4 3.9-4.5 5.9-10.2 5.9-16.6 0-4.7 5.2-13.4 13.9-23.4 3.7-4.1 8.4-9.9 10.5-12.8l3.9-5.4-1.9-7.4c-1.8-7.3-1.8-7.4.4-14.1 3.2-10.2 3.1-12.8-1.1-20-2.9-4.8-4.4-6.3-6.7-6.8-1.7-.4-3-.8-3-1 0-.1-2.3-11.4-5-24.9-2.8-13.5-5-24.8-5-25.1 0-.3-1.1-.5-2.4-.5h-2.3l4.3 21.7c2.4 11.9 4.4 22.4 4.4 23.3 0 1.2-3.9 2.3-19.2 5.3-10.6 2.1-19.8 3.8-20.4 3.7-.6 0-1.5-1.5-2-3.3-1.5-5-3.8-4.1-4.2 1.5-.3 4-.6 4.8-2.3 4.8-1.6 0-1.9-.7-1.9-4 0-3.8-.1-4-3.1-4h-3.2l.6 5 .6 5H537v-5.5c0-3-.2-5.5-.5-5.5-.2 0-1.6.5-3.1 1.2-2.5 1.2-2.6 1.4-2 7 .7 5.4.6 5.8-1.6 6.3-7.4 1.7-12.1 2.5-12.3 2.3-.2-.2-1.2-3.6-2.4-7.7-2-7.4-2-7.4-.1-10.2 1.1-1.5 2-2.9 2-3.2 0-.4-10.3.3-10.8.9-.2.1.3 1.5 1.2 3.1.9 1.5 2.4 6.5 3.5 11.1l1.9 8.2-2.2.5c-3.4.8-18.8 3.5-19.5 3.5-.4 0-1.6-5.4-2.6-12-1.7-11.4-2-12-4.2-12-2.8 0-2.8-.1.2 13.5 1.3 6 2.1 11.3 1.7 11.7-1.4 1.3-16.4 4-17.1 3.1-5.2-7.9-7.1-11.5-8.1-15.2-.7-2.5-3.8-9.8-7.1-16.2l-5.8-11.8 4.5-1.7c5.6-2.1 6.7-4.4 6.5-14.2-.1-4.2.2-7.2.8-7.2 1.3 0 1.8 2.1 2.6 10.8.7 7.2.7 7.2 3.7 7.2 2.3 0 2.8-.4 2.4-1.8-1.5-4.7-3.5-16.5-3-17.3.3-.5 3.2-.9 6.4-.9h5.8l1.2 7.2c1.4 9.4 2.1 11 3.9 9.9 1.2-.8 1-4-1.8-21.8-4.1-26.3-3.8-25-6.7-25.6-2.9-.5-3 .9-1 12l1.3 7.1-5.1 1c-2.8.6-5.4.8-5.7.6-.3-.2-1.4-4.2-2.4-8.9s-2.2-8.8-2.7-9.1c-2.3-1.5-2.5 1.7-.7 10.5 1 5.2 1.8 9.6 1.6 9.7-.2.2-1.8.7-3.5 1l-3.2.6v-4.3c0-2.4-.3-5.4-.6-6.5-.6-2.4-5.7-4.9-11.6-5.9-3.3-.5-3.8-1-4.5-4.3-.4-2-.7-11.1-.7-20.2-.1-18.1.7-22 5.2-26.3 2.7-2.5 3.9-2.7 68.1-10.2 35.9-4.2 65.5-7.4 65.7-7.2.2.2 2.2 10.2 4.4 22.2s4.1 22 4.4 22.2c.2.2 1.4-.1 2.8-.7l2.4-1.1-3.7-23.2c-5-30.7-5.1-28.7 1.1-28.7 4.4 0 7.2-1.1 20.8-8.1 8.6-4.5 17.4-9.2 19.4-10.6 3.3-2.2 4.5-2.5 8.7-1.9 4.6.6 4.9.5 7.4-2.7 2-2.7 3.9-3.7 9.4-5.2 8.8-2.3 14.3-7.1 14.3-12.5 0-2.4.7-4.3 2-5.5 1.2-1 2.5-4.7 3.6-9.4.9-4.2 2.2-9.8 3-12.5.8-2.7 1.4-6.8 1.4-9 0-2.3.9-6.5 2-9.4 1.1-2.9 2-6.9 2-9 0-2 1.1-8.2 2.4-13.7 1.4-5.5 4-18.1 6-28 3.7-19.3 5.5-24.4 12.2-34.5 2.4-3.6 6-10.6 8-15.5 4.1-9.9 11.5-20.1 21.9-30 5.7-5.4 6.6-6.9 9.5-15 2.8-7.8 3.2-10.2 3.1-18.2-.2-8.9-.1-9.3 3.1-13.6 2.3-3.2 5-5.3 9-7.1 3.4-1.6 6.9-4.2 8.7-6.5 1.7-2.1 3.1-4.1 3.1-4.4 0-.2-1.2-.7-2.7-1-2-.4-3.8.4-7.6 3.4-6.1 4.9-7.7 5-7.7.5 0-6.9 2.1-14.4 6.5-23.2 5.5-10.9 10.1-15.7 17.8-18.4 7.2-2.5 10.9-2.5 13.2 0 1.6 1.8 4.5 2.8 4.5 1.5 0-.3-.9-2.2-2-4.2-1.1-2.1-2-4.3-2-5 0-.7 4.8-5 10.6-9.5 5.8-4.6 11.5-9.1 12.7-10.1 2.2-1.7 20.1-6.7 24.3-6.7 1.2 0 2.6.5 2.9 1.1 1.3 2-2.4 9.4-5.5 11.2-1.6 1-3.5 2.7-4 3.8-.9 1.6-.7 1.9 1.1 1.9 1.2 0 3.9-.5 6-1.2 3.5-1 4.1-1.7 6.1-7 1.7-4.9 2.8-6.3 5.8-7.8 2.1-1.1 4-2.6 4.3-3.4.7-1.8-2.2-3.1-3.7-1.6-2.3 2.3-5.3 1-7.6-3.4l-2.3-4.3 2.2-3.6c1.2-2 5-6.1 8.3-9.2 5.6-5 6.5-5.5 10.8-5.5h4.7l9.9 17.7 9.9 17.8 8.3 5.7c6.8 4.6 9.6 5.8 14.9 6.8l6.6 1.1 12.8-4.7 12.7-4.8.5-4c.3-3.2-10.3-72.4-12.8-83.2-.3-1.2-3-3.9-6.1-6l-5.7-3.9.8-11.5c.9-14.3.9-16.2 0-33.2-.8-13.4-.7-13.9 1.8-19.5 4.1-9.4 4.1-11.1.4-16.8-4.6-7.2-12-13.7-20.7-18-4.1-2.1-10.3-5.7-13.8-8.1-3.5-2.4-6.6-4.4-7-4.4-.4 0-1.7.8-2.9 1.8z"/></svg>
