<svg version="1.0" xmlns="http://www.w3.org/2000/svg" width="1365.333" height="1365.333" viewBox="0 0 1024 1024"><path d="M746 .7c0 1.4-16.2 105.8-16.5 106.1-.2.2-54.5-4.6-120.8-10.7S486.9 85 485.3 85h-2.8l-6.8 39.7c-3.7 21.9-11.5 70.1-17.3 107.2-5.7 37.1-10.5 67.5-10.7 67.6-.1.1-6.3 2.3-13.7 4.8-12.7 4.4-13.9 4.6-20.6 4.1l-7.1-.7-19.7 11.4c-18.2 10.4-20.2 11.8-25.7 18.3l-6 7.1.6 15.4c.5 13.5.1 21.2-3.6 60-2.2 24.5-4.3 44.8-4.4 44.9-.2.2-50.2-3.5-111.2-8.2-60.9-4.7-118.3-9-127.5-9.6-15.4-.9-17.5-1.3-28.2-5-10.5-3.6-12.5-4-21.5-4h-9.9l-4.2 7.2c-2.3 4-6 11.5-8.1 16.7-3.4 8.2-3.9 10.3-3.9 17.3 0 7.8 0 7.9 2.3 7.2 3-.9 2.6-.3 5.2-9.1 1.2-4.4 3.7-10.5 5.5-13.7 3.9-6.9 4.4-6.5 6.6 5.9 2.3 13.3 4.9 20.3 10.6 29l5.3 8 .3-5.9c.3-5.4.4-5.8 2.5-5.2 1.2.3 2.5.6 2.9.6 1.5 0 4.8 8 4.8 11.7 0 7.5 2.6 14.9 7.3 21.6 5.2 7.3 5.9 11.3 2.8 15.3-1.1 1.3-2.2 4.8-2.6 7.7-.6 4.4-1.4 5.8-5.1 9.2-3.1 2.9-4.4 4.9-4.4 6.8 0 2 .5 2.7 2 2.7 2.3 0 2.3.2.9 5.5-.8 2.9-3.3 6.3-9.6 12.6-6.4 6.5-8.4 9.2-8.1 10.9l.3 2.2 2.7-2.1c1.8-1.4 2.9-1.8 3.3-1 .4.6 1.6.9 2.6.6 1.7-.5 1.7-.3.3 1.8-2.1 3.2-6.6 4.8-11.8 4.3l-4.3-.5.8 4.6c1.5 8 1.7 8.6 7.5 16.6 3.2 4.4 6.3 10.2 7.1 13 1.8 6 2.5 27.9 2.5 68-.1 28.2-.1 29.4-3 42.6-2.9 13.4-3.1 13.9-12.7 30.8-5.6 9.9-11.5 21.8-14 28.3-2.3 6.2-7.2 17.4-10.9 24.8-5.5 10.8-7.6 16.3-10.6 28.2-2.1 8.1-3.6 14.8-3.4 14.8.3 0 1.7-.6 3.2-1.4 3.8-2 7.1-5.9 12.5-14.6 4.1-6.8 5.1-7.7 9.6-9.4 6.8-2.4 12.7-1.4 18.7 3.2 4.6 3.5 4.7 3.5 12.5 2.9 4.8-.4 10.1-1.6 14-3.2 7-2.8 11.5-3 29.7-1.5 10.4.8 11.6.7 14.5-1 4.6-2.8 22.5-2.8 31.7 0 4.4 1.3 9.4 2 15.5 2 14.1 0 15.9.5 18.6 5.4 1.2 2.2 4.8 6.8 8 10.1 6.8 7.3 7.9 9.2 7.9 14.3 0 4.3 1.2 5.2 7.7 5.2 2.9 0 3.6.6 5.7 4.9l2.5 4.8 9.8 2.2c5.4 1.3 10.5 2.4 11.3 2.7.8.2 3.4 2.1 5.7 4.1 3.5 3.2 5.9 7.4 14.4 25.8 5.6 12.1 10.6 22.5 11.1 23.2.5.6 2.1 1.4 3.6 1.8 1.5.3 4.6 2.5 7 4.8 4 3.9 4.2 4.4 4.2 9.9 0 8.2 3.5 15 9.6 18.6 10.9 6.5 19.9 14.4 24.7 21.7l4.8 7.3 11.4 1.7 11.4 1.7 8.3-4.7c4.6-2.6 8.4-4.8 8.5-4.9 0 0-.4-3.6-1.1-7.8l-1.2-7.8 8.6-16.2c8.6-16.1 8.7-16.3 14.1-19.1 2.9-1.5 7-4.4 9.1-6.4l3.6-3.5 4.1 2.8c4 2.8 4.1 3 4.1 8.9v6l16.2 14.4 16.3 14.4 8.6-9.2 8.7-9.1h5c5.2 0 6.2-.9 6.2-5.1 0-1.7.8-1.9 7.6-1.9 4.1 0 10.6-.5 14.3-1.1l6.9-1 14 5.7 14 5.7 15.8-.9 15.9-.9.3-6.7.3-6.7 5.1-3.1c2.7-1.7 5.1-3 5.3-2.8.1.2-.7 3.3-1.8 7.1-1.1 3.7-1.8 6.9-1.6 7.1.4.4 293.5 22.7 297.4 22.6 1.8 0 3-3.8 11.3-34.3 5-18.8 9.2-34.8 9.2-35.4 0-.6-3.8-4.2-8.4-7.8l-8.4-6.7-.6-6.1c-.6-7-3-704.6-2.5-705.1.2-.2 27.2 1.4 59.9 3.5 32.7 2 62.3 3.9 65.8 4.1 3.4.2 6.2.1 6.2-.2-.1-.3-5.6-4.8-12.3-10-6.7-5.2-32-26-56.2-46.1C889.8 117.2 749.4 1.9 747.3.6c-.7-.4-1.3-.4-1.3.1z"/></svg>
