<svg version="1.0" xmlns="http://www.w3.org/2000/svg" width="1365.333" height="1365.333" viewBox="0 0 1024 1024"><path d="M465.6 2.1c-4.7 3.7-2.8 7.9 5.7 12.7 3.1 1.8 6.4 4.7 8 7.1 2.8 4.1 5.6 5.2 7.4 2.8.5-.6 1.7-3.3 2.7-5.8 1.6-4.4 1.6-4.9 0-8.3-1-2-2.1-3.6-2.6-3.6-.4 0-2.5-1.6-4.7-3.5-3.3-3-4.5-3.5-8.8-3.5-3.6 0-5.8.6-7.7 2.1zM509.3 21.3c-3.4 1.8-6.2 3.7-6.2 4.2-.1.6-1.4 2.5-3 4.2-3.6 4-11.1 5.5-14.1 2.8-1.7-1.6-1.9-1.6-2.9.4-.6 1.1-1.6 4.4-2.1 7.3-.6 2.9-2.9 9-5.1 13.6-2.9 5.7-4 9-3.6 10.9.3 1.5.1 3.8-.4 5.1-.6 1.7-.6 2.9.3 3.9.7.8 1.2 5.4 1.4 11.4.2 11.6 1.3 14 7.3 15.8 5.8 1.7 7.1 4.2 7.5 14.6.3 7.5.7 9 2.4 10.4 1.3 1 2.6 3.7 3.3 6.9.8 4.1 2 6.1 4.9 8.8 4.6 4.3 10 16.4 10 22.5 0 3 1 5.8 3.6 10 1.9 3.3 3.9 5.9 4.2 5.9.4 0 1.5 1.5 2.5 3.2 2.6 4.8 8.3 10.7 11.1 11.4 3.1.7 13.1-2.4 15.3-4.8.9-1 1.8-4.2 2.1-7.2.4-4.5 1.1-6.2 4.3-10.1 2.2-2.6 3.9-5.6 3.9-6.6s-1.5-3.6-3.3-5.6c-1.8-2.1-4.1-5-5-6.5-1.2-1.9-2.8-2.9-5.4-3.3-7-1.1-8.5-1.9-10.9-6.5-2.6-4.9-2.9-8.9-1.3-17.1 1.1-5.3 1-5.5-2.5-10.8-2-2.9-3.6-6.4-3.6-7.7 0-3.9-5.7-9.2-11.5-10.6-10.5-2.6-13.2-6.4-13.6-18.8-.2-10.5 2.5-20.6 6.1-22.5 1.3-.7 4-4 6-7.4 3.9-6.5 9-12.6 11.1-13.3 1.4-.5 1.3-.9-2.4-13.3-.7-2.2-1.9-4.1-2.7-4.2-.8-.1-4.3 1.2-7.7 3zM446.4 92.1c-2.4.6-4.4 1.7-4.8 2.7-.3.9-2.2 3.9-4.1 6.7-2 2.7-3.8 6.1-4.2 7.5-.3 1.4-1.1 3.2-1.8 4-.8 1-1 2.3-.5 3.6 1.1 2.9 2.6 3.7 5.4 3 1.8-.4 2.5-1.5 2.9-4.7.8-5.8 6.3-16.5 9.8-19.1 1.6-1.2 2.9-2.8 2.9-3.5 0-1.5.1-1.4-5.6-.2zM479.6 162.4c-1.5 3-3.7 6.3-4.8 7.3-4 3.6-5.8 8.8-5.8 16.9 0 7-.4 8.4-3.5 14.1-4.1 7.4-4.2 8.3-1.5 8.3 1.3 0 2.4 1 3 2.6.6 1.5 2 3.8 3.1 5.2 1.7 2.3 1.9 3.5 1.4 9.4-.5 5.5-.4 6.8.8 6.8 1.7 0 19.1-9.1 21.7-11.3 4.7-4 3.9-23.8-1.9-47.5-4.3-17-4.3-17.2-7-17.2-2.3 0-3.2.8-5.5 5.4zM550.8 204.1c-1.5.6-3 1.9-3.3 2.9-.3 1-2.5 3.4-4.9 5.3-2.9 2.5-4.6 4.8-5.5 7.9-.7 2.4-1.9 5.3-2.7 6.5-1.7 2.8-.6 3.5 4.3 2.7 2.4-.3 5.1-.1 7 .8 3.9 1.6 10.2 9.1 11 13 .7 3.4 3.2 3.7 8.6.8 2-1.1 4.7-2 5.9-2 1.3 0 2.9-.4 3.7-.9 2.1-1.4 4.1-8.2 3.5-12.1-1.1-6.9-2.2-8.4-9.1-12-3.7-1.9-7.2-4.4-7.7-5.5-2.3-4.2-5.8-8.5-6.9-8.4-.7 0-2.4.5-3.9 1zM485.8 230.2c-8.9 3.7-9.6 4.2-8.7 6 1 1.8 2 1.9 11.5 1.6 9.1-.3 10.6-.6 12.5-2.5l2.2-2.2-2.7-3.5c-1.5-2-3.2-3.6-3.9-3.5-.7 0-5.6 1.8-10.9 4.1z"/><path d="M500 238c-1.4.4-8.1.9-15 .9-6.9.1-13 .5-13.5.9-.6.4-1.2 3.4-1.3 6.7-.2 4.3-.9 6.8-2.5 9-2.6 3.5-3.3 14.5-1 14.5.7 0 1.3.9 1.3 2.1 0 1.1 1 2.9 2.1 3.8 1.8 1.5 3.2 1.6 8.3.9 9-1.2 13.3-4 26.7-17.3 11.4-11.3 12-12.1 11.4-15.1-1-5.3-9.5-8.6-16.5-6.4zM549 281c-1.1.7-1.2 1.2-.3 2.1 1.4 1.4 5.3.2 5.3-1.7 0-1.6-2.8-1.8-5-.4zM473 287c-4.1 4.1-1.8 7 5.7 7 8.4 0 17.3-5.5 13.2-8.1-.8-.5-4.9-.9-9.1-.9-6.5 0-8.1.3-9.8 2zM541.7 307.3c-2.3 1.8-2.7 2.7-2.2 5 .8 3.1 3.1 3.4 11.4 1.5 5.7-1.3 6.8-3.7 2.9-6.2-4.4-2.7-9-2.8-12.1-.3zM550 315.8c-2.9 1.3-10.1 10-11.1 13.4-.5 1.8-1.4 7.8-1.9 13.3-.5 5.5-1.4 12.2-2 15-3.5 15.5 5.7 29.4 19.3 29.5 5.8 0 9.7-4.6 9.7-11.6 0-3.2.8-4.6 5.8-9.6 3.1-3.2 6.4-5.8 7.4-5.8 1.9 0 8.8-9 8.8-11.5 0-1.8-9.3-11.5-11.1-11.5-1 0-8.4-9.8-11.1-14.8-2.7-5-9.8-8.3-13.8-6.4zM486.7 351.8c-2.2 2.4-2.1 4.5.1 6.5 3.8 3.4 9.2 1 9.2-4 0-2.3-.5-3.2-2.2-3.7-3.8-1-5.4-.7-7.1 1.2zM462.7 354.7c-4 .6-6.7 5.5-6.7 12 0 2.8-.4 5.4-.9 5.7-2.5 1.6-3.8 21-1.9 28.3.5 2.1-1.4 31.2-2.3 34.1-.8 2.4-.7 4.4.5 8 .8 2.6 2 7.4 2.6 10.7 1.4 6.9 2.4 8.5 5.4 8.5 1.1 0 3 .7 4 1.5 3.3 2.5 7.9 1.8 13.9-2.2 6.4-4.2 7.9-6.7 10.7-18.2 1.9-7.5 1.9-9 .8-23.8-.6-8.7-1.2-20.3-1.3-25.8-.1-11.2-1.6-18.5-4.6-22.4-7.1-9.4-14.4-17.1-16-17-.8.1-2.7.4-4.2.6zM542.8 391.7c-4.5 2.8-6.7 10.9-6.8 24.5 0 11.7 1.9 15.7 7.3 15.8 4.4 0 8.7-3.5 8.7-7.1 0-1.2 2.1-6.5 4.7-11.8 4-8.1 4.7-10.5 4.7-15.4 0-4-.4-6.1-1.4-6.7-2.6-1.7-14.2-1.1-17.2.7zM536.7 454.7c-5.7 7.5-10.7 17.1-10.7 20.5 0 2.8 2.3 4.8 5.6 4.8 3.4 0 11.1 6.8 13.2 11.8 2.5 5.8 3.9 7.1 8.4 7.8 2.9.5 3.6.2 4.5-1.9 1.3-2.7 6.1-4.6 11.8-4.7 4.5-.1 18.8-2.4 20.1-3.3.7-.4 1.8-3 2.4-5.9 1.1-4.3 1.1-5.3-.2-6.2-.8-.6-1.7-1.9-2.1-2.9-.9-2.3-1.1-2.2-11.8 1.8-5.1 2-10 3.3-11.1 3-1-.4-2.5-1.9-3.3-3.5-.8-1.6-2.7-4.2-4.1-5.7-2.4-2.5-2.6-3.4-2.1-8.6.3-3.1.3-6.6 0-7.7-.8-3-5.4-5-11.2-5-4.9 0-5.1.1-9.4 5.7zM473.6 490.5c-6.9 1.9-8.3 3.6-6.8 7.8.7 1.8 1.2 4.1 1.2 5.1s1.2 3.7 2.6 6.1c2.3 4 2.4 4.8 1.3 7.9-1.1 3-1 3.8.5 6.1 1.6 2.4 2.3 2.6 5.9 2.2 5.6-.6 12.7-3.4 15.4-5.9 1.2-1.2 3-4.1 3.9-6.5 1.6-4.2 1.6-4.8-.1-10.1-2.3-7.6-4.7-10.6-9.5-12.6-4.8-1.9-7.7-1.9-14.4-.1zM542.6 503.5c-.7 1.9.7 5.7 2.7 7.3 1.2 1 2 .8 4.5-1.3 3.8-3.2 3.3-4.9-1.7-6.4-4.8-1.4-4.8-1.4-5.5.4zM542.3 516c-1.3.5-2.3 1.5-2.4 2.2 0 .7-.2 10.5-.3 21.8-.2 11.3-.6 22.3-1 24.5-.7 3.2-.4 4.5 1.1 6.4 2.7 3.4 7.1 2.3 8-1.9.8-4.3 9-10 14.2-10 4.3 0 7.1-2.6 7.1-6.5 0-1.1 1.3-4.5 3-7.5 1.7-3.2 2.9-7.1 3-9.3 0-2.1.7-5.2 1.6-6.8.8-1.7 1.4-3.3 1.1-3.5-.2-.2-3-.9-6.2-1.5-3.7-.7-7.5-2.2-10.1-4.1-5.7-4.1-14.2-5.8-19.1-3.8zM482.1 533.1c-3 .5-6.3 1.7-7.3 2.6-2.7 2.4-5.7 11.2-4.8 14.3.4 1.4.4 3.4-.1 4.5-1.3 3.5-1 15.4.6 18.4.8 1.6 2.8 3.4 4.4 4.1 2.6 1 3.7 1 7.3-.5 4.5-1.7 10.5-5.8 12.4-8.4 1.7-2.2 2.8-27.9 1.4-31.6-1.8-4.8-3.2-5.1-13.9-3.4zM494.6 596.6c-6 1.9-11.6 5.4-14.6 9.1-2 2.5-2.2 3.5-1.6 9.8.3 3.8 1.3 8.3 2.1 10 .8 1.6 2.1 5.5 2.9 8.6 1.9 7 5.3 10.5 11.4 11.8 4.4.9 5.2.8 11.7-2.6 3.9-1.9 9.3-5.2 12-7.3 2.8-2 7.5-5.5 10.5-7.7s6.7-5.2 8.2-6.6c2.5-2.3 2.6-2.7 1.6-6.8-.6-2.4-1.8-5.3-2.8-6.4-.9-1.1-2.3-3.1-3.2-4.5-1.3-2.1-2.4-2.6-6.7-2.8-3.5-.1-7-1.2-10.8-3.2-6.4-3.4-12.6-3.8-20.7-1.4zM565.1 652.1c-1.3.5-2.9 1.6-3.5 2.3-.6.8-3.3 1.7-6 2.1-3.5.5-7.4 2.3-13.7 6.3-4.8 3.2-10.7 6.9-13.2 8.4-4.2 2.4-4.5 2.9-4.9 7.5-.5 6.1 2.8 13 7.3 15.7 4.4 2.6 11.1 2.7 13.9.1 1.5-1.4 3.7-2 6.7-2 4.4 0 4.7-.2 8.4-5.5l3.8-5.5-1-8c-1.4-10.5-.7-15 2.7-18.6 3.1-3.3 3-4.1-.5-2.8zM521.6 813.1c-3.3 2.2-6.1 4.1-6.4 4.3-.8.9 2.8 6.3 6.2 9.4 3.6 3.3 4.2 4.7 2.8 6.8-1 1.6-13.5 9.1-15.8 9.6-1 .2-2.8 1.7-3.8 3.3-1.1 1.7-3.6 3.8-5.6 4.7-6.5 3.2-8.6 9.5-6.5 19.7.7 3.6 1.8 7.9 2.4 9.4.6 1.6 1.1 4.1 1.1 5.6 0 1.9.9 3.4 3 4.9 1.6 1.2 3.2 2.2 3.6 2.2.3 0 2.3 1.5 4.4 3.2 2.1 1.8 5.8 4.4 8.2 5.7 5 2.7 3.7 3 16.5-4.2 3.7-2.2 8.3-4.1 10.3-4.4 6.8-.9 8.1-1.4 11.8-4.6 2-1.8 4.9-4.1 6.4-5 3.6-2.3 6.8-8.6 6.8-13.4-.1-2.2-1.1-5.5-2.5-7.8-1.4-2.2-3.4-5.8-4.4-8-1.1-2.2-3.8-5.7-6-7.9-2.2-2.1-3.8-4.2-3.5-4.7.9-1.5-1.7-16.8-3.5-20.2-4.2-8.1-6.5-10.7-10.1-11.2-9.1-1.5-9.4-1.4-15.4 2.6zM546.6 970.9c-.7 1 2.8 4.3 3.7 3.5.8-.8-1.1-4.4-2.3-4.4-.5 0-1.1.4-1.4.9zM513.7 1008.6c-3.9 2-5 2.2-7.2 1.2-1.4-.6-2.5-1.5-2.5-2 0-.4-.7-.8-1.5-.8-1.9 0-1.9 1.9-.1 4.5.7 1.1 1.7 3.1 2.1 4.5.9 3.1 5.4 8 7.3 8 2.3 0 7.1-5.9 8.2-10.2.6-2.1 1.3-4.5 1.6-5.2.9-2.4-3.2-2.4-7.9 0z"/></svg>
