<svg version="1.0" xmlns="http://www.w3.org/2000/svg" width="1365.333" height="1365.333" viewBox="0 0 1024 1024"><path d="M0 156.7c0 2.6 7.1 20.6 9.3 23.4 2.6 3.3 2.6 5.9 0 5.9-1.1 0-1.3.6-.8 2.2.4 1.3.9 4.1 1.2 6.3.3 2.2 1.1 4.7 1.8 5.5 2.4 2.7 5.5 11.1 5.5 14.9 0 2.7 1 5 4.1 9.1 2.9 3.9 3.9 6 3.4 7.4-.4 1.2-.9 4.3-1.2 7-.5 4.5-.5 4.8 1.5 4.2 3.1-1 4 1.7 4.6 13.2.6 11.5 2.1 15.4 6.7 17.8 1.7.8 5 3.3 7.3 5.4 2.2 2 5.1 4 6.3 4.4 2.1.7 2.9 1.7 9.7 12.4 1.9 2.9 4.6 6.4 6 7.7 1.4 1.3 2.6 3.1 2.6 3.9 0 .8 2.1 4 4.6 7.1 4.3 5.2 4.6 5.9 4 9.8-.4 2.3-.7 6.8-.7 9.9 0 3.2-.5 5.8-1 5.8s-.9-.7-.9-1.5-.7-1.5-1.5-1.5-1.5.8-1.5 1.9c0 1-.7 2.4-1.5 3.1-1.8 1.5-.3 5 2.1 5 .8 0 1.8 1 2.3 2.2 1.1 3 .4 3.6-1.4 1.2-1.5-1.9-1.5-1.9-.9.1.4 1.1 1.4 2.8 2.2 3.8.8.9 1.2 2 .9 2.4-1 1-4.7-2.8-4.7-4.8 0-1-.9-2.1-2-2.4-1.1-.3-2-1.5-2-2.6 0-2.2-1.8-2.4-5.4-.8-1.9.9-2.9.9-4 0-1.5-1.3-13.6-4.4-14.3-3.8-.8.9 2.9 7.8 4.5 8.4.9.4 2.9 1.8 4.3 3.2 1.4 1.4 3.7 3.4 5.2 4.3 1.9 1.3 2.7 2.9 3.2 6.6.5 4 1.2 5.2 3.3 6.3 1.5.7 3.6 1.3 4.7 1.4 1.1 0 2.4 1 3 2.2.5 1.2 3 3.1 5.6 4.1 3.8 1.6 5.2 3 7.8 7.6l3.3 5.6 2.8-2c2.1-1.5 3.4-1.8 4.7-1.2 1 .5 3.2 1.5 4.8 2.3 2.1 1.1 3.3 2.5 3.9 5.2.5 2 1.4 3.7 2 3.7 1.2.1 6.6 4.5 6.6 5.4 0 1.4 7.8 7.6 10.2 8.1 4.9 1.1 11.3 16.2 11.1 26.5 0 6-.9 13.6-1.7 14.8-.3.5-1.2 3.6-2.1 6.8-1.3 5.1-1.3 6 0 8 .9 1.4 3 2.6 5 3 2.8.5 3.9 1.3 5 4 .9 2.1 2.3 3.6 3.9 4 1.4.3 2.6 1.2 2.6 2 0 .7 1.4 2.3 3 3.6 1.7 1.2 3 2.7 3 3.3 0 1.1 5.3 5.5 6.5 5.5 1.6 0 11.8 10.2 14.5 14.4 1.7 2.6 3.7 4.9 4.5 5.2.9.4 2.2 1.8 2.9 3.2.8 1.5 3.1 3.2 5.7 4.2 4.7 1.9 5.1 2.6 8.4 16.5 1.3 5.5 2.4 7.6 4.8 9.6 3 2.6 3.2 2.6 6.4 1 1.7-.9 3.6-2.6 4.2-3.9.6-1.2 2-2.2 3.1-2.2 2.8 0 6-1.8 6-3.3 0-.7.8-2.9 1.9-4.9l1.8-3.7-2.8-4.3c-1.6-2.3-3.7-4.6-4.9-5-1.4-.5-2-1.6-2-3.6 0-1.5-1.1-4.3-2.5-6.2-1.5-2-2.5-4.7-2.5-6.7 0-2.5-.4-3.3-1.8-3.3-.9 0-3.3-2-5.2-4.5-3.5-4.5-6.9-6.3-9-5-.7.4-1 1.6-.7 2.6.3 1-.1 2.6-.9 3.6-.9 1.2-1.3 1.4-1.4.4 0-.9-.8-1.1-2.5-.7-2.7.7-3.6-.5-6.7-8.4-2.2-5.5-2.3-9.4-.3-11 .8-.7 1.5-2.3 1.5-3.7 0-2.4-4.2-11.6-6.6-14.3-.7-.9-1.6-4.3-2-7.5-.6-4.9-1.3-6.5-4.2-9.5-5-5.1-6.5-8.7-6.7-16-.3-6.8-2.1-17.8-3.6-21.8-.5-1.3-.9-3.1-.9-4.1 0-1-1.2-2.8-2.6-4.2-1.5-1.3-3.3-4-4.1-5.9-1.3-3-1.6-3.2-2.5-1.6-.7 1.2-.7 2.5 0 4 3.1 6.7 3.3 7.8 1.5 7.4-1.1-.2-2.2-2.1-3.1-5.3-.8-2.8-2.5-6.3-3.9-7.9-2.2-2.7-2.3-3-.8-5.2 1.5-2.3 1.4-2.4-.5-2.4-2.5 0-5.3-4.4-8.1-12.7-1.4-4.3-3-7.1-5.2-8.8-9.3-7.5-9.2-7.4-9.2-15.9 0-4.3-.4-8-.8-8.3-.5-.3-.6-1.6-.2-3 .9-3.8-.2-6-3.4-6.6-1.9-.4-3.2-1.4-3.6-2.9-1.6-5.2-5.1-11.8-6.3-11.8-.7 0-1.8-1.1-2.4-2.5-.8-1.8-1.7-2.4-2.9-2-1.9.6-1.8.9-3.4-9.8-.3-1.9-2.1-5.1-4-7.3-2-2.1-3.8-4.9-4.1-6.2-.4-1.2-1.9-2.9-3.5-3.7-1.5-.8-4-3.5-5.4-5.9-1.6-2.8-3.5-4.6-4.8-4.8-1.6-.2-2.3-1.1-2.5-3-.2-1.5-1.2-3.4-2.2-4.1-3-2.1-4.4-9.4-2.7-14.2 1.5-4.2 1.2-20-.3-22-.5-.6-1.1-4.8-1.5-9.5-.3-4.7-.8-10-1.1-11.8-.4-2.3-.1-3.2.9-3.2 3.6 0 2.1-6.9-2.9-13.5-4.2-5.5-2.6-6 3.1-.9 3 2.7 8.1 7.2 11.3 10 9.7 8.7 16.7 10.9 19 5.9 1.4-3.1 2.2-3.1 5.6-.2 1.6 1.4 2.9 3.8 3.3 6.1.3 2.1 1.1 3.9 1.7 4.1 10.5 3.1 13.7 6.2 12.9 12.5-.9 6.9 1.3 18.9 4.3 23.3 2.4 3.6 2.8 5.5 3.4 14.2.6 8.8 1.1 11.1 4.8 19.4 2.3 5.2 4.2 9.9 4.2 10.4s1.4 2.5 3 4.4c1.7 1.9 3.6 5.5 4.3 8 1.1 4.2 3.2 6.8 8.3 10 1.8 1.1 1.8 1.2-.3 1.2-3 .1-2.9 1.8.1 4.2 1.3 1 2.9 3.1 3.5 4.7 1.3 3 5.7 6.2 8.8 6.2 1.5 0 2.3 1.4 3.7 6 1 3.2 2.4 6.4 3.1 7 .7.6 1.5 2.4 1.8 4 .5 2.2 1.4 3.1 3.4 3.6 1.5.4 3.7 1.5 4.9 2.6 1.8 1.6 2.3 1.7 3.3.4 1.7-2 7.5.1 6.5 2.4-1.8 3.8-1.6 9.1.5 12.5 1.6 2.8 1.7 3.5.6 3.5-2.3 0-1.8 2.8.8 4.1 1.2.7 4.3 2.9 6.8 5 3.3 2.8 5.6 3.9 7.9 3.9 2 0 3.8.7 4.6 1.7 1.8 2.4 1.7 3.3-.1 3.3-2.4 0-1.8 1.9 2.3 7.2l3.7 4.9 5.5-.3 5.5-.2 3.5 6.7c1.9 3.7 4.3 7 5.3 7.3 2.4.8 2.2 4.3-.3 4.1-1.1-.1-2.2-.7-2.4-1.4-1-2.6-2.5-1.2-4.5 4.2-1.2 3.1-2.1 8-2.1 10.9 0 5.8.4 6.3 9.3 14.3 3.6 3.3 7.7 4.4 7.7 2.1 0-.6 1-.2 2.2.9 3.6 3.3 15.6 11.2 16.1 10.7.3-.3 1.3.9 2.4 2.6 1 1.8 3.4 4 5.5 5.1 6.3 3.2 8.4 11 2.5 9.5-4-1-3.9.6.2 5.4 3.2 3.7 4.1 4.3 5.3 3.2 1.2-1 1.8-1 2.7.2.6.7 2.5 1.6 4.1 2 1.7.3 3 1 3 1.6 0 1.3-1.6 1.3-4.1-.1-1.1-.6-2.5-.9-3.1-.7-1.7.6 9.2 8.8 11.6 8.8 3 0 9.5 7.1 13.9 15.1 2 3.7 4.4 6.9 5.2 7.3.8.3 1.5 1.2 1.5 2.1 0 .8 2.2 4.4 4.9 7.8 2.7 3.5 5.3 7.5 5.6 9 .5 1.8 1.4 2.7 2.7 2.7 3 0 8.3 4.6 10.3 9 1.5 3.3 2.4 4.1 5.4 4.6 5.7.9 5.9 1.1 7.1 5.4.8 3.1.8 4.5 0 5.5s-.8 2.9-.1 7.1c.6 3.2 1.1 7.1 1.1 8.8 0 1.7 1.4 5.8 3 9.1s3 6.6 3 7.3c0 2 3.9 7.2 5.4 7.2 2.3 0 4.4 3.3 3.6 5.5-.5 1.1-.9 3.7-.9 5.8-.1 4.6-1.1 6.7-6.2 12.8-4 4.8-4.6 5.9-3 5.9 1.4 0 9.1 5.3 9.1 6.2 0 1.2-6.4 3.8-9.2 3.8-1.3 0-3.9 1.4-5.8 3.1l-3.4 3.2 3.2 2.7c1.8 1.4 3.2 3.4 3.2 4.3 0 .9 1.6 4.2 3.5 7.4s3.5 6.5 3.5 7.4c0 .9 1 1.9 2.3 2.3 1.2.3 2.7 1.6 3.3 2.8 4.9 9.7 6.8 12.5 9.4 13.9 1.6.9 3.6 2.2 4.4 2.8 2.1 1.8 13.7 6.1 14.7 5.5.5-.3.9.6.9 2 0 3 1.3 3.8 10 6.1 7.3 2 11.4 5.2 13 10.1.6 1.8 1.9 3.6 2.8 3.9.9.3 2.8 2.2 4.2 4.2 1.3 2.1 3.1 4.5 4 5.3 1.7 1.7 11.5 5 14.8 5 1.2 0 3.1 1.1 4.4 2.4 1.8 1.8 3.7 2.5 8.4 2.9 3.3.2 8.3 1.5 11.2 2.7 4.5 1.9 5.6 2.1 8.1 1 2.5-1 3.4-.9 5.3.4 1.2.9 3 1.6 3.9 1.6 1 0 3.6 2.2 5.9 4.9 2.2 2.8 5 5.3 6 5.6 1 .3 2.2 1.4 2.5 2.5.3 1 3 3 6.1 4.5 3 1.5 6.2 3.8 7.1 5.1.8 1.3 2.2 2.4 3 2.4.8 0 2.7.6 4.1 1.3 7 3.6 10.2 4.8 16.7 6.6 3.9 1 9.5 2.8 12.5 4.1 3 1.2 6.5 2.4 7.8 2.7 1.2.3 2.7 1.4 3.3 2.4 1.5 2.9 5 4.3 10.1 4 2.6-.1 7 .5 9.7 1.3 2.7.8 5.1 1.3 5.3 1 .3-.2 2.2.5 4.3 1.6 2.2 1.1 5.1 2 6.5 2 1.7 0 3.9 1.4 6.7 4.4 3.1 3.3 5.7 4.9 10 6.2 3.2 1 6.6 1.7 7.6 1.6 1.1-.1 3.2.7 4.7 1.8 7.1 5 15 8.1 21.8 8.4 3.7.1 7.7.8 8.9 1.4 1.2.7 3.3 1.2 4.6 1.2 1.4 0 4.9 1.2 7.8 2.7 4.6 2.4 6.4 2.8 13.7 2.7 7.2-.1 9.1-.5 14.4-3.3 3.3-1.7 6.8-3.1 7.7-3.1 4-.1 19.2-6.2 21.1-8.5 2.2-2.7 7.1-4.8 12.8-5.6 3-.4 5.6-1 5.9-1.3 1-1-.9-2.6-3.2-2.6-3.6 0-3.8-1.6-.4-3 2.4-1 3.5-1 5.4 0 1.2.7 2.8.9 3.4.6 1.4-.9 5.1.2 5.1 1.5 0 .5-1.1.7-2.4.3-1.8-.4-2.7-.1-3.6 1.5-1 2-.8 2.1 3 2.1 2.3 0 8.1 1.6 13.1 3.5 10.4 4 9.9 3.9 9.9 2.2 0-.6-3.4-2.5-7.5-4-4.6-1.7-7.5-3.4-7.5-4.3 0-1.9-.3-1.9 8.1 2.1 4.1 1.9 8.4 3.5 9.6 3.5 1.9 0 2.2.4 1.8 2.2-.4 2 .4 2.7 5 5 3.6 1.7 5.5 2.3 5.5 1.4 0-.6-.5-1.7-1.2-2.4s-.8-1.2-.3-1.2c.8 0 9.6 8.1 24.1 22.1 2.2 2.2 5.6 4.4 7.6 4.9 2.3.7 4.4 2.3 6.1 4.8 2.5 3.5 15.1 16.2 16.2 16.2 1.3 0 3.5-6.5 3.5-10.5 0-2.6.8-6 1.7-7.6 1.7-2.9 1.7-3-.9-5.6l-2.6-2.6 8-16.2 8.1-16.1 23.1-1.2c12.7-.7 23.4-1.6 23.7-2 .4-.4.9-3.2 1.1-6.1l.3-5.5-3.5-.7c-3.9-.8-7-4.1-7-7.4 0-1.6-1.5-3.2-5.9-5.9-3.2-2-6.3-3.6-6.8-3.6-.6 0-2.9-2.2-5.2-5-3-3.5-5.1-5.1-7.6-5.6-6.1-1.1-3.8-2.4 4.5-2.4h8v-21.9l3.3-.6c4.9-.8 42.3-3.5 49.7-3.5 10.6 0 14-.9 14-3.5 0-2.9 2.6-3.9 5.3-2 1.2.8 2.7 1.5 3.3 1.5.6 0 3.6-5.4 6.7-12 3.5-7.3 6.2-12 7.1-12 3 0 6.5-2.3 7-4.6.4-1.3 1.5-2.8 2.6-3.4 1.3-.7 2-2.1 2-4.1 0-2 .4-2.9 1.3-2.6.8.2 1.2 2.6 1.2 6.8 0 6 .1 6.4 2.8 7.3 2 .7 2.7 1.6 2.7 3.6 0 1.5.8 3.5 1.9 4.4 1.8 1.6 1.9 1.6 3-1.5.6-1.7 1.8-7.1 2.6-11.9.8-4.8 2.2-10.9 3-13.6.8-2.7 1.5-5.8 1.5-7 0-1.1.9-2.9 2-3.9s2-2.2 2-2.7c0-1.3-3.4-.9-5.7.7-1.6 1.1-2.2 1.2-2.6.2-.6-1.7 1.1-4.7 2.6-4.7.8 0 2.6-1.3 4.1-2.9 2.2-2.3 2.6-3.4 2-5.6-.7-2.6-.8-2.7-2-1-.8 1.1-1.4 1.3-1.4.7 0-.9-.9-.8-3.1.4l-3.2 1.6.7-2.9c.4-1.5 1.8-4.4 3.2-6.4 1.7-2.5 2.4-4.9 2.4-8.2 0-2.7 1-7.3 2.4-10.7 1.3-3.3 2.2-6.8 1.9-8-.4-1.4 0-2 1-2 2.3 0 7.7-4.9 7.7-7.1 0-1 1.4-4 3-6.6 2.4-3.7 3-5.8 3-10 0-3.3-.6-6-1.5-7.1-.9-.9-2.6-2.9-3.8-4.4-2.2-2.8-6.4-4.2-6.7-2.3-.5 3-2.3 3.5-10.9 2.8-4.7-.3-10.3-1.2-12.5-2-4.5-1.5-14.2-1.8-15.1-.3-.3.5-2.2 1-4.2 1-4.5 0-15.3 4.1-15.3 5.7 0 .7-.8 1.3-1.7 1.3-1 0-3.2.8-4.8 1.9-1.9 1.1-6.1 2.1-11.4 2.5-10.6 1-17.4 2.8-26.9 7.1-14 6.5-14.5 7.6-15.2 30.5-.5 16.5-.6 17.7-3 21.5-1.9 3.1-2.6 5.8-3.1 12.3l-.5 8.3-6 6c-3.2 3.3-8.7 7.8-12.1 10.1-4.1 2.6-6.3 4.7-6.3 6 0 1.6.5 1.8 3.5 1.2 3-.5 3.5-.4 3.5 1.4 0 1.1.7 2.5 1.5 3.2 2.4 2 1.8 2.6-2 2.2-2.8-.3-4 .1-6.5 2.7-2.2 2.2-4.1 3.1-6.4 3.1-1.7 0-3.7.5-4.4 1.2-.9.9-1.2.8-1.2-.5 0-1-1.4-2.3-3.2-3.1-3.1-1.4-3.2-1.4-.8-1.6 2.3-.1 2.4-.2.7-1.4-2.5-2-21.2-3.2-23.2-1.6-.8.7-1.2 1.6-.9 2.1.3.5-.8.9-2.4.9-2 0-4.5 1.2-7.1 3.4-4.3 3.6-9.6 5.1-16.2 4.5-1.9-.2-4.7.1-6.4.5-1.6.4-4.7 1.2-6.7 1.7-2.7.7-3.8 1.5-3.8 2.9 0 1.7-3.5 3.8-4.6 2.7-.3-.3-4.1.6-8.5 1.9-10 3.1-19.2 3.1-19.8-.1-.2-1.1-1.2-2.6-2.2-3.3-1.1-.7-1.9-2-1.9-2.8 0-2.2-3.8-5.4-6.4-5.4-1.5 0-3.2-1.1-4.4-2.7-1.9-2.6-2.5-2.8-9.9-2.9-4.3 0-8.8-.6-10.1-1.3-3.8-2-4.7-.7-1.6 2.3 2.9 2.8 2.9 2.8.4 2.1-1.4-.4-4.2-.9-6.2-1.2-2.1-.3-3.8-1.1-3.8-1.8 0-.6-1-1.7-2.2-2.3-1.9-.9-2-1.1-.5-1.1 1-.1 2.7.4 3.9 1 4.3 2.3 2.9-.5-3-6.1-3.4-3.2-6.2-6.4-6.2-7.1 0-.7-1.6-3-3.6-5-2.8-2.9-4.2-5.6-6-12.1-1.9-6.5-3.1-8.9-5.7-11.3-1.9-1.7-3.7-4.3-4.1-5.9-.4-1.5-1.5-3-2.5-3.3-1.2-.3-1.7-1.1-1.4-2.3.5-2-5.2-7-8-7-1 0-1.7-.6-1.7-1.3 0-.7-1.3-2.6-2.9-4.1-1.6-1.6-3.9-5-5.1-7.7-1.1-2.7-2.7-4.9-3.5-4.9-.8 0-1.2-.6-.9-1.4.3-.8-.1-2.8-1-4.3-.8-1.5-2.2-5.2-3.2-8.2-.9-3-2.7-7-4-8.9-1.3-1.9-2.9-5.3-3.5-7.6-.6-2.3-1.5-4.9-2-5.8-.5-1-.9-3-.9-4.5-.1-3.6-3.6-8.4-4.8-6.5-.7 1.1-1.2 1-2.6-.3-2.2-2.2-2-2.7.7-2.3 2.1.3 2.2 0 2.2-7.7 0-4.4.4-8.6.9-9.4.6-.9.4-1.8-.7-2.6-1.2-.9-1.4-1.8-.7-4.1.4-1.6.9-2.1.9-1.2.1 2.3 2.1 3.4 3.2 1.7 1.1-1.8 1.2-6.6 0-7.3-.4-.3-1.1-2.6-1.4-5.1-.4-4.1-.1-6.8 1.8-15.2.4-1.8.1-2.3-1.6-2.3-1.8 0-2-.4-1.4-2.3.4-1.2.5-3.1.4-4.2-.2-1.1-.3-7.1-.2-13.3 0-6.1-.2-11.2-.6-11.2-.4 0-1.2.5-1.9 1.2-.9.9-1.2.2-1.2-3.2 0-3.4.3-4.1 1.2-3.2 2.3 2.3 2.9 1.2 2.7-4.8-.1-3.3.3-6.5.9-7.3.9-1 .8-1.8-.2-3.3-.9-1.1-1.2-3-.9-4.6.3-1.6 0-3.5-.8-4.4-1.1-1.3-1-1.7.5-2.6 1.4-.8 1.5-1.3.5-2.4-1.6-2-.5-2.8 1.9-1.3 2.8 1.8 5.6.5 4.2-2-.5-1.1-1-2.2-1-2.5 0-.9 2.3-.7 4 .4 1.2.8 1.1 1.4-.7 4.7-1.2 2.1-2.4 5.5-2.8 7.5-.6 3.1-.4 3.8.9 3.8.9 0 1.8-1.2 2.2-2.8.3-1.5 1.6-5 2.9-7.7 1.2-2.8 3.4-8.3 4.9-12.2 2.4-6.4 2.6-7.7 1.6-10.8-1.2-3.8-4.2-4.8-5.8-1.9-.8 1.4-1.6 1.2-6.8-1.4-4.4-2.2-8.2-3.2-15-3.9-7.4-.8-10.7-1.8-17.6-5.1-4.7-2.3-10.6-4.6-13.1-5.3-2.5-.6-5.2-1.8-6-2.8-2.2-2.5-12.7-23.6-12.7-25.5 0-.9-.7-3.2-1.5-5.2-1-2.5-1.2-4.2-.4-6.1.8-2.1.5-3.1-1.6-5.9-1.4-1.9-3.2-3.4-3.9-3.4-1.6 0-9.6-8.5-9.6-10.1 0-.7-2.4-3.8-5.2-6.9-7.5-8.2-7.5-8.2-9.3-14.5-.9-3.1-2.3-5.9-3.1-6.2-.8-.3-3.6-4.9-6.3-10.2-2.6-5.3-5.9-10.8-7.2-12.2-1.3-1.4-3.2-4-4.1-5.8-1-1.8-3.2-3.8-5.2-4.6-1.9-.8-3.7-2.4-4.1-3.5-.3-1.1-1.4-2-2.3-2-1 0-2.3-.9-2.9-1.9-1.4-2.3-9-4.1-17.2-4.1-3.3 0-7.1-.7-8.7-1.5-3.9-2-6.1-1.9-7.4.4-.6 1.1-2.5 2.2-4.8 2.6-5 .8-8.7 5.5-10.5 13.2-.7 3.3-2.2 6.9-3.3 8-1 1.1-2.9 3.2-4.2 4.7-1.7 2-2.9 2.6-4.5 2.2-1.2-.3-3-.6-3.9-.6-1 0-3-1.4-4.5-3-1.4-1.7-3.6-3-4.7-3-1.2 0-3.7-1.1-5.7-2.4-1.9-1.3-5.3-3.1-7.4-4-2.1-.9-5.7-3.4-8.1-5.6-2.4-2.2-4.8-4-5.3-4s-2.6-2.8-4.8-6.3c-3-4.7-4.2-8.1-5.2-13.7-.6-4.1-1.9-8.8-2.7-10.4-.7-1.6-1.4-3.5-1.4-4.3 0-3.3-3.4-7.4-8.7-10.7-5.1-3.1-13.3-11.5-13.3-13.6 0-.5-1.2-1.2-2.7-1.8-1.6-.5-5.7-3.7-9.3-7.1-3.5-3.3-6.7-6.1-7-6.1-.3 0-1.9-2.2-3.5-5-1.6-2.7-3.8-5.3-5-5.6-1.1-.4-2.7-1.2-3.5-2-1.1-.9-7.6-1.6-22-2.3-11.3-.6-23.5-1.3-27.2-1.6l-6.8-.5v9c0 4.9-.4 9-.8 9-.8 0-51.4-4.5-82.7-7.3l-14-1.3-36-18.5c-19.8-10.1-45.1-22.7-56.2-27.8-11.2-5.2-20.3-9.9-20.3-10.4 0-.6 1-2.1 2.2-3.4 1.2-1.3 2-2.5 1.7-2.7-.9-.8-75.9-1.8-75.9-.9z"/></svg>
