<svg version="1.0" xmlns="http://www.w3.org/2000/svg" width="1365.333" height="1365.333" viewBox="0 0 1024 1024"><path d="M91.4 47.8c-5.5 2.1-11.4 4.8-13.2 6-4.2 3.1-16.9 8.2-20 8.2-1.4 0-5.1.5-8.2 1.2-5.5 1.1-5.6 1.1-13.1-3-4.3-2.4-8.8-4.2-10.5-4.1-1.6 0-7.6 1.9-13.3 4.2C.6 65.3 1.1 64.4.3 84c-.5 13-.4 14.3 3.2 31 3.6 16.6 4 17.6 7 20.3 2.3 1.8 4.2 5.1 6.1 10 3.9 10.3 6.8 16.1 12.7 24.9 4.2 6.4 5.8 8 9.4 9.3 3.8 1.5 5.3 3 11.5 12.3 7.7 11.4 28.6 47.3 47.2 81 9.6 17.3 13.1 25 21.5 46.9 9.7 25.2 10.5 26.8 20.9 43 14.7 22.8 30.6 52.6 29.8 55.8-.5 2 .8 3.6 8.2 10.7 7.1 6.6 9.8 10 13.5 16.9 2.8 5.4 6.5 10.5 9.8 13.6 5.5 5.3 5.2 4.6 7.9 21.8.5 3.3 1 9.5 1 13.8 0 7.5-.1 7.7-2 6.7-1.4-.8-2.6-.8-4 0-2.6 1.4-2.6 4.7.1 22.8 2 13 2 14.6.7 18.1-1.4 3.4-1.3 4.2.4 8.5 1 2.6 2.5 9.1 3.3 14.5.8 5.4 1.7 10.5 2 11.2.3.8-.3 4-1.4 7.2-2 5.7-2 5.7 0 17.3 1.1 6.3 3.3 14.8 4.9 18.8 1.6 4.1 3.6 10.2 4.5 13.6.9 3.5 3.3 8.8 5.4 11.9 7.4 10.9 8.8 14.7 9.6 26.2.6 9 .4 11.2-1 14-1.5 2.8-1.6 4.2-.6 10 .6 3.7 1.1 12.6 1.1 19.6v12.9l4 8.3c4.2 8.8 5.2 14.1 2.4 14.1-1.3 0-1.5.8-.9 4.2 1.7 11.2 1.5 10.8 6.7 14 4.3 2.7 5.5 4.2 9.8 12.9 2.8 5.4 5 10.1 5 10.3 0 .3-1.2.6-2.7.8-2.7.3-2.8.6-3.1 6.1-.3 5 .1 6.4 2.2 9.1 1.9 2.5 2.8 5.4 3.6 12.2 1.9 14.1 6.2 25 16.2 41 6.3 10.2 8.8 15.1 8.8 17.4 0 2.5 1.3 4.7 5.9 9.9 3.3 3.7 6.3 8.1 6.8 9.8.5 2.1 3.3 5.5 8.3 9.9 11.7 10.6 43 43.6 44.4 46.9l1.3 3 3.5-3.8c3.3-3.6 3.8-3.8 11.4-4.4 11.3-.8 12-1.5 14.4-14.8.6-3.2 1.7-5.5 3-6.4 1.1-.7 2-2.1 2-3 0-.9.9-3.5 1.9-5.7 1.5-3.2 2.7-4.5 5.6-5.4 5.6-1.9 8.2-.7 9.6 4.3 1.5 5.7 2 6.1 8.8 8.2 7.8 2.3 8.9 4.5 5 10.2-3.5 5.1-3.7 8.2-.4 11.3 1.5 1.4 2.9 4.4 3.6 7.6 1.4 6 2.5 6.5 10.1 4.2 3.7-1.1 4-1 7.1 2 2.8 2.7 4.4 3.3 10.5 4.1 7.2.9 8.3 1.4 13.2 5.7 2.9 2.5 7.4 3.2 22.7 3.6 10.4.2 11.4.1 13.6-2 1.5-1.4 3.6-2.2 5.8-2.2 1.9 0 5.8-.7 8.8-1.5 7.1-1.8 13.8-.7 16.3 2.8 5.5 7.5 5 7.3 11.5 5.9 3.3-.6 7.3-1.2 8.9-1.2 4.3 0 5.4-1.6 4.7-6.6-.8-6 .6-7.4 7.3-7.4 5 0 5.4-.2 7-3.2 3.5-7 8.7-12.8 11.4-12.8 6.1 0 24.5-6.4 27-9.5 1.1-1.3 4.4-93.7 9-253.5 1.7-58 3.9-134.8 5-170.5 1.1-35.8 2-67.6 2-70.8v-5.9l36.8.3c35.8.3 36.7.3 36.9-1.6 1.2-10.3 11.3-257.9 11.3-275.8v-2.5l17.3-.7c15.2-.6 20.4-1.3 44.2-6.1 34.3-7 117.6-22.6 118.1-22.2.1.2 1.2 4.1 2.4 8.8 1.3 5.2 3.5 10.6 5.6 13.7 2.9 4.5 3.4 6.1 3.4 11.1 0 4.6.4 6.3 1.9 7.6 3 2.7 7.8 1.3 9.8-2.9 1.2-2.6 3-3.9 7.8-6 5.3-2.2 6.5-3.2 8.1-6.7 4.3-9.6 6.7-12.1 19-19.9l11.9-7.5 13.2-1.2c8.8-.8 14.9-1.9 18.5-3.3 3.7-1.5 8.8-2.4 17-2.9 10.9-.7 12-1 15.2-3.6 1.9-1.6 3.5-3.2 3.5-3.6.1-.3-1.7-2.9-3.8-5.6-3.7-4.6-4.7-5.2-13.6-8.2-8.8-2.9-10.2-3.1-17.7-2.5-7.6.7-8.6.5-21.3-3.5l-13.3-4.3-25.3 5.6c-14 3.1-31.2 6.7-38.4 8.1-7.1 1.4-27.4 5.7-45 9.5-36.5 8.1-98 20.1-102.9 20.1-1.9 0-5.3-.8-7.7-1.7-3.7-1.5-7.6-1.7-23.4-1.7-10.4.1-21.8.6-25.2 1.2-6 1-6.5.9-15-2.5-12.8-5.2-17.7-6.3-28.4-6.3-9.3 0-64.5-4.6-65.9-5.5-.4-.2-5.3-.9-11-1.4-15.4-1.5-18.1-3.1-38.1-23.3L511.3 74H191.4l-3.4 2.5c-6.3 4.7-18.2 2.8-26.8-4.2-3.8-3.1-6.2-4.3-8.5-4.3-4 0-4.8-.6-7.9-5.5-1.4-2.2-5-6.7-8.1-10l-5.5-6-8.2.2c-5.6.1-9.2-.3-11.1-1.3-4.4-2.2-9.6-1.6-20.5 2.4z"/></svg>
