<svg version="1.0" xmlns="http://www.w3.org/2000/svg" width="1365.333" height="1365.333" viewBox="0 0 1024 1024"><path d="M636.2 205.7 496 289.5l-58.6 48c-32.3 26.4-60.1 48.8-61.8 49.7-1.8 1-22.4 5.3-50.1 10.4-25.8 4.8-47.1 8.7-47.2 8.8-.2.2-5.1 106.5-6.8 147.6-.8 20.6-1.8 41.6-2.1 46.6l-.6 9.1-8 3.9-8 3.9-5.4 9.5c-5.2 9.3-5.7 9.8-15.9 17-7.8 5.5-10.7 8.1-11.5 10.4l-1 3.1-18.7-.9c-16.1-.8-19-.7-21.7.7-2.5 1.2-13.9 2.1-54.6 4.2-28.3 1.4-52.9 2.8-54.7 3.1-2.5.4-4.1 1.7-7 5.9l-3.8 5.5H48c-8.4 0-12.6.6-21.2 2.9l-10.7 2.9-4-3-4-2.9-3.5 2.7-3.4 2.7-.2 10.1c-.7 27.3-.6 27.6 4.8 30 3.9 1.8 3.9 1.9 4.6 8.6.5 5.4 1.4 8.2 4.6 13.8 3.7 6.4 4.8 7.5 15.7 14.7 6.5 4.3 13.7 8.6 16 9.4 3 1.1 5.9 3.5 9.8 8.1 3 3.6 5.5 7 5.5 7.6 0 .5-.7 1.9-1.5 3-1.4 1.9-1.5 1.9-5.4-.4-2.2-1.2-4.3-2.2-4.6-2.2-.3 0-.4 5.1-.3 11.2l.3 11.3 9.1 5c5.8 3.2 11.9 7.7 16.6 12.1l7.4 7 9.4 1.5 9.5 1.5 6.4-2.8c3.5-1.6 6.8-2.7 7.2-2.6.5.2 3.5 3.4 6.8 7.3l6 7-6.6 6.7c-4.9 5-6.4 7-5.6 8 .5.7 5.6 7.1 11.2 14.1l10.3 12.9 2-3.3c1.9-3.1 1.9-3.9.8-10.2-.7-3.7-1-7-.9-7.1.2-.2 4.6-2.7 9.8-5.6l9.4-5.2 8.6 8.5c4.7 4.6 10.8 9.7 13.4 11.3 3.8 2.3 5.7 4.5 8.8 10 2.1 4 4.6 7.4 5.4 7.8.8.3 4.8 3.1 8.9 6.2l7.5 5.6 3.3-2.3c1.8-1.2 3.4-2.3 3.6-2.5.2-.1-.6-3.7-1.7-8-1.8-7.1-1.9-8-.4-10.7 1-2.1 1.3-4.4.9-7.5-.3-2.4.1-9 1-14.5l1.6-10.2 8.6-6.6c8.2-6.3 9.2-7.4 17-20.3l8.2-13.7v-20.5l7.2-6c3.9-3.2 8-6.5 9.1-7.3 1-.7 8.2-3.1 16-5.2l14-3.9 3.3 2.1c3.1 1.9 3.9 1.9 13.9.9 9.6-1 11-1.4 15.3-4.5 9.8-7 24.1-5 42.9 6 9.2 5.4 9.6 5.5 17.1 5.5l7.7.1 9.2 8.2c7.4 6.5 11 10.8 17.7 20.8 7.3 10.9 8.9 12.7 11.6 13.3 5 1 5.3.9 11.6-3.9 5.6-4.2 6.2-4.4 12.6-4.5 6 0 8.2-.6 20.1-5.9l13.3-5.9 11.4 2.1 11.5 2 5.6 6.1c4.7 5.1 8.3 7.6 20.5 14.2l14.9 8.1 24.3 1.9 24.4 1.9 7.5-8.2c4.3-4.8 11.9-11.4 17.7-15.6l10.1-7.4 7.7 1c7.1.8 8.3.7 17.5-2.1 14.8-4.5 27.9-6.3 38.8-5.1 17.3 1.8 34.2 5.8 46.1 11l11.2 4.9h28.9l17.9-13.5c12.2-9.2 18.7-13.5 20.5-13.5 6.4 0 8.5-1.1 11.3-5.8 2-3.3 2.6-5.4 2.2-7.4-.6-3.2-4.8-9.7-10.9-17.1l-4-4.8 1.3-5.9 1.3-6h4.5c3.5 0 5.4-.7 9.4-3.7 4.9-3.6 5.6-3.6 7-.1.2.3 1.9.8 3.8 1l3.5.3-.3-6.1-.4-6.1 4.5-1.2c4.2-1.2 4.6-1.6 5.7-6 .8-2.9 2.8-6.2 5.5-9.1 4.1-4.3 4.3-4.9 5-12.3l.7-7.9 55.3-63.8 55.2-63.8.7-23.4c1.3-43.3 6.7-105 12.1-138.3 1.9-11.6 3.7-25.7 4.1-31.4.7-10.2.9-10.7 5.6-19 2.8-4.7 5.6-9.3 6.4-10.2.8-.8 1.4-2.7 1.4-4 0-2.6-2-4-11.5-7.9-7.5-3.1-12.3-6.9-15.1-11.6-1.7-2.9-3.6-4.6-5.9-5.4-2.8-.9-3.4-1.7-4-5-.6-3.5-.3-4.6 2.8-8.7 5.7-7.8 5.7-7.5-4.2-21-4.9-6.7-9.4-13.1-10.1-14.3-.6-1.1-1.5-10.8-2-21.8-1.1-23-1.9-30.2-5.5-47.1-1.5-6.9-3.2-16.9-3.8-22.3l-1.2-9.8-24.2 11.2-24.2 11.1-23-16.2c-12.6-8.8-24-16.5-25.3-17.1-2-.8-88.5-23-89.8-23-.3 0-63.7 37.7-140.8 83.7z"/></svg>
