<svg version="1.0" xmlns="http://www.w3.org/2000/svg" width="1365.333" height="1365.333" viewBox="0 0 1024 1024"><path d="M739 2.5c-2.9 1.6-6.2 2.4-9.3 2.5-7 0-20.7 3.8-24.4 6.6-3 2.3-4.5 6.4-2.4 6.4.5 0 1.3.9 1.6 2 .8 2.7 2.3 2.5 5.5-.5 2-1.9 4.5-2.7 12.4-3.9 7-1.1 10.5-2.1 12-3.5 1.2-1.1 3.9-2.8 6.1-3.7 5.4-2.2 9.5-5.2 9.5-7 0-2.2-5.9-1.6-11 1.1zM857.1 16.4c-1.2 1.4-3.4 1.6-14 1.4l-12.6-.3-14.5 6.3c-11.3 4.9-16.3 6.5-22.5 7.3-4.4.5-10.5 1.4-13.6 1.9-3 .6-7.5 1-9.8 1-3.1 0-5.8.9-9 2.9-8.4 5.1-10.6 5.5-20.2 3.7-4.7-.9-10.7-1.6-13.4-1.6h-4.9l2.9 3c2.6 2.7 2.7 3 .9 3-1.1 0-2.9-.7-4-1.5-2.8-2.2-3.4-1.8-3.4 1.9 0 4.3 2.9 6.6 8.2 6.6h3.8l-.6 4c-.7 4.4-1.1 4.1 7.7 5.9 5 1.1 6.1 1.8 9.5 6.1 2.2 2.7 5 5.1 6.4 5.5 2.2.6 2.3.8.7 1.6-2.1 1.2-7-1.9-8.9-5.7-.9-1.9-3-3.2-7.2-4.6-6.4-2.1-8.6-1.9-8.6.9-.1 1-1.2-.4-2.7-3.1l-2.5-5-1.4 2.5c-1 1.8-1.3 2-1.4.6 0-2.1-2.8-2.3-3.7-.1-.3.8.5 2.6 1.8 4.1l2.4 2.6-2.5-.6c-1.4-.4-3-.7-3.7-.7-.7 0-1.5-1.7-1.8-3.8-.4-2-1.1-5.7-1.7-8.2-.8-3.6-.7-5.2.5-8.1 2.5-6 1.7-6.3-14.5-5.6-14.7.7-20.6 1.9-38.8 7.5-9.1 2.9-43.4 19.9-54.1 27-3.2 2.1-6.3 3.2-11 3.7-7.5.8-10.9 3-16.3 10.3-2 2.8-7.5 7.7-12.8 11.5-5.1 3.7-10.3 7.5-11.5 8.4-3.1 2.5-5.2 10-6.3 22.4-1.1 12.1-1.9 14.7-6 19.9-3.7 4.6-4.1 10.7-1 15 3 4.2 1.1 4.5-3.2.3-2.1-2-4-3.4-4.3-3.1-.7.7 5.9 14.2 8.6 17.6 1.4 1.9 1.6 3.5 1.2 9.5-.4 5.4-.2 8.1.9 10.2.9 1.7 1.8 5.1 2.2 7.6.6 4.2.5 4.7-1.4 5.2-2 .5-2.1 1-1.5 6.2l.7 5.6-5.1 4.7c-2.8 2.6-5.1 5.4-5.1 6.2.1 2.7 2.4 5.8 7 9.4 4.9 3.9 9.8 4.7 12 2.1 1.7-2.1 8.6-1.9 11.8.3 7.8 5.4 17.7 6.7 21.4 3 1.3-1.3 3-2.1 4-2 .9.2 3-.4 4.7-1.2 3.7-2 5.1-2 5.1-.1 0 2.3 3.4 3.5 10 3.5 5.6 0 6 .1 5.1 1.9-.8 1.3-2.5 2-6.5 2.3-4.7.4-5.8.9-8.3 3.8-1.5 1.8-3.1 4.2-3.5 5.2-.4 1-2.5 4.4-4.7 7.6l-3.9 5.8-.7 20-.7 19.9 3.9 5.4c2.1 3 6.3 7.3 9.3 9.7l5.5 4.3 12 .2c11.2.2 12.8 0 23.5-3.3 6.3-2 15.3-4.1 19.9-4.8 8.7-1.3 8.7-1.4 14.4-8.1 1.5-1.7 1.7-1.7 5.6.4 2.3 1.2 4 2.9 4 3.7 0 .8-1.7 2.9-3.8 4.7-3.4 2.9-4.3 3.2-13.6 3.8-9.1.5-18.4 2.3-24.2 4.6-1.8.7-2.3 1.7-2.3 4.3 0 1.9-.6 3.7-1.2 4-1 .5-1 .7 0 1.2 2 .9 5.7 10.1 7.2 17.5 1.3 6.4 1.2 6.9-1.6 15-5.6 16.2-20.4 34.7-30.4 38-1.9.7-5.4 2.9-7.8 5-2.4 2.1-5.5 3.9-7 4.1-1.7.2-3.4 1.5-4.7 3.4-1.1 1.7-3.7 4.4-5.8 5.9-4.3 3-6.9 8.1-8.8 16.8-1.1 4.9-1.9 6.4-5.3 9.2-3.5 2.8-6 3.7-17.3 6.1l-13.2 2.7-5.7-4.9c-4.9-4.1-6.6-5-10.8-5.4-4.9-.5-5.2-.7-7.9-5.7-3.4-6.4-6.9-7.8-16.9-7-3.8.3-9.4.2-12.6-.3-5.1-.8-6.2-1.4-10.2-6-3.7-4.1-5.1-5-7.8-5-1.9 0-4.7.8-6.2 1.7-2.4 1.4-3.1 1.4-4.4.3-.9-.7-1.5-2-1.4-2.9.2-1.2-.6-1.7-3.2-1.9-4.3-.4-9.4-4.1-8.5-6.2.3-.8 2.9-2.6 5.6-3.9 3.7-1.7 5.8-3.6 8-7 1.6-2.6 4-5.3 5.4-5.9 1.4-.6 2.5-2 2.5-3 0-2.5 9.3-11.2 12-11.2 2.8 0 2.5-2.6-.7-6.4-1.6-1.7-3.5-4.3-4.4-5.6l-1.7-2.5.5 2.7c.6 3-2 12.4-4.2 15.2-1.2 1.6-1.7 1.7-3 .6-.9-.8-2.6-3.1-3.7-5.3-2.1-4.2-1.5-5.7 2.5-5.7 1.3 0 1.7-.9 1.7-4.1 0-2.5.9-5.5 2.1-7.5l2-3.4-2.6-2.4c-2-1.8-3-4.3-4.2-10.3-.8-4.3-2.1-8.5-2.8-9.3-1.8-2.1-5.5-13.8-5.5-17.2 0-1.6.7-4.3 1.6-6 1.5-2.9 1.8-3 6.4-2.5 2.9.4 5.2.1 5.9-.6 1.5-1.5 8.1 1.7 8.8 4.3.4 1.6 1.4 2 5 2 3.8 0 5.5-.8 11.5-5.2 7-5.2 8.8-7.7 8.8-12.4 0-3.9 4.2-7.4 8.7-7.4 3.2 0 4.2-.5 5.5-2.8 1.5-2.6 1.5-2.8-.8-5.5-1.3-1.6-2.4-4.1-2.4-5.7 0-5.8-1.7-7.7-7.5-8.5-3-.3-5.9-1.3-6.6-2.1-.6-.8-2.4-1.4-4-1.4-2.2 0-3.2.7-4.4 3-1.2 2.4-2.2 3-4.8 3-4.6 0-7.2-2.2-8.7-7.4-1.2-4.3-1-14 .6-22.8.9-5.2-3.4-16.7-9.1-24.2-2.5-3.4-5-8.2-5.9-11.6-1.6-5.5-1.8-5.8-5.4-6.4-9.7-1.6-15-.1-18.6 5.4-1.4 2.2-4.9 5.3-7.7 6.9-4.2 2.4-5.6 2.7-8.2 2-1.8-.4-4.9-1.1-7-1.4-5.6-.9-11.7-6.7-11.7-11.1 0-1.9.5-4.2 1.1-5.2.8-1.3.9-2.8.2-4.8-1.1-3.4-4.7-4.2-11.3-2.4-5.9 1.6-8 5.4-8 15 0 7.7-4.6 32.8-7.4 40.9-.9 2.4-3.1 6.9-5 10-2.8 4.7-3.4 6.9-3.9 13.6-.3 4.4-1.3 10.1-2.2 12.7-1.4 3.9-1.5 6.2-.7 13.5.8 7.9.7 9-1 11.2-1.4 1.9-1.8 4.1-1.8 10.6 0 4.8-.6 10-1.5 12.5-.8 2.3-2 7.2-2.6 10.8-.5 3.7-2.3 10.9-3.8 16.2-1.6 5.2-3.2 12.2-3.5 15.5-1.3 10.5-4.5 21.6-10.8 37-6.5 15.7-29.1 59.6-36.1 70-6.1 9.1-15.1 20.7-18.2 23.5-1.5 1.4-5.3 5.6-8.4 9.5-3.1 3.8-10.2 11.5-15.9 16.9-5.8 5.7-10.9 11.5-11.9 13.7-1 2.4-2.4 3.9-3.4 3.9-3.1 0-6.9 2.3-6.9 4.1 0 1.1 3.3 3.8 9.2 7.4 5.1 3.2 11.1 7.2 13.3 8.9 6.7 5.4 16.1 11.5 18.8 12.1 1.4.4 3.5 1.7 4.7 3l2.1 2.3-5.8-1.3c-3.2-.6-7.5-2.2-9.5-3.4l-3.8-2.3V598.5l-4-4.5c-2.2-2.5-5.3-6.2-6.7-8.4-3.4-4.8-6.9-6.3-9.4-4-1.6 1.5-1.9 1.5-1.9.2 0-1.6-3.7-6.8-4.8-6.8-2.5.1-3.1 1.8-2.3 6.8.7 4.6.6 5.2-1 5.2-3.1 0-5.6-4.9-5.1-10 .2-2.5.9-5 1.4-5.7 1.1-1.4-2.4-5.3-4.8-5.3-7.3 0-9.9 13.2-4.8 24.4 2.3 5 2.4 5.9 1.3 9-1.1 3.2-1 3.7 1.4 6.6 4 4.7 4.7 9.6 2.2 15.3-.6 1.4-.2 1.7 2.3 1.7 1.7 0 3.5.6 3.9 1.4.9 1.5 7.3 3.6 11.1 3.6 3.7 0 19.8 10.9 22.1 15 3 5.4 6 7.5 13.6 10 3.9 1.3 10.8 4.2 15.5 6.5 4.7 2.3 11 5 14 5.9 3 1 7.5 2.5 10 3.3 15.9 5.5 19.8 5.3 29.1-1.3 3.5-2.4 7.7-5.2 9.3-6.2 1.6-.9 4.4-3 6.2-4.6l3.4-2.8v3.6c0 2 .3 3.6.8 3.6 1.4 0 10.7-5.8 12.6-7.9 2.9-3.2 3.8-2.5 1.9 1.4-2.5 5.3-.7 5.4 4.1.2 4.6-5 6.8-6 5.9-2.7-.5 1.9-.2 2 3.8 1.4 2.4-.3 5-.8 5.7-1 1-.3 1.1.2.6 1.8-.5 1.8-.3 2 1.2 1.3 1.1-.4 3.1-1 4.7-1.3 3.4-.5 3.8 2.1.5 3.9l-2.1 1.2 2.2 1.1 2.2 1.2-2.1 1.9c-1.2 1.1-1.9 2.7-1.7 3.7.5 1.6-.2 1.8-4.7 1.8-2.9 0-7.7-.7-10.7-1.6-3.4-1.1-9-1.7-15.4-1.6-10 0-10 0-20.5 5-10.6 5.1-20.3 8.2-25.8 8.2-1.6 0-4.9-.7-7.2-1.5-4.5-1.6-9.7-1.9-14.9-.9-2.4.5-3.9 1.9-6.6 6.4-3.1 5.1-4.2 6-11.7 9.6-7.6 3.6-9.1 3.9-18.2 4.2-9.2.4-10.2.2-16.5-2.6-9.7-4.5-13.6-5-16.7-2.1-2.9 2.7-3.1 5-.5 7.3 1.1 1 2.2 2.9 2.6 4.3.6 2.4.7 2.5 7.3 1.8 4.9-.4 7.1-.3 8.3.7 1.8 1.4 4.9 8.8 4.9 11.6 0 .9 1.6 2.7 3.5 4 4.2 2.6 4.3 4.3 1.4 13.1-2 5.9-2 6.3-.4 8.1 1 1.1 2.6 2.2 3.6 2.5 1.1.4 1.9 1.3 1.9 2.2 0 .8.8 2.7 1.9 4.1 1 1.5 2.9 5.1 4.1 7.9 2.6 6 1.8 8.3-2.9 8.3-1.4 0-4.1.4-5.9.9-1.8.6-8.9 1.1-15.7 1.3l-12.4.3-4.5-4.4c-2.5-2.5-6.1-7.4-8-11-6.1-11.6-11.9-16.3-22.9-18.7-4.3-1-7.7-2.2-7.7-2.9 0-.7-.9-2-1.9-2.9-1.8-1.6-4-1.8-20.8-1.4-20.1.3-20.5.4-27.7 6.2-4.5 3.6-8.1 3.1-9.1-1.3-.3-1.6-1.5-3.7-2.6-4.7-3.7-3.4-8.9-11.1-8.9-13.3 0-4.3 2.7-3.2 9.8 3.9 6.4 6.3 7.1 7.3 6.5 10-.7 3.8.4 3.8 5.2 0 2.1-1.7 5-3.4 6.4-3.7 3.6-1 17.8-.9 22.3.1 2.8.7 4.7.4 7.5-.9 2.1-1 4.1-2.2 4.4-2.7.4-.6-1-4.2-3-8.2l-3.7-7.1-12.4.2c-6.9.2-17 .5-22.5.8-5.5.4-15.4.7-22 .9-14 .3-11.5-.8-33.1 13.6-2.3 1.6-5.2 3.1-6.5 3.5-6.1 1.9-7.7 7.1-3.6 11.5 1.3 1.4 5.3 4.4 8.8 6.8 5.5 3.5 7.2 5.4 10.9 11.8 5.5 9.6 7.4 10.9 16.5 10.9 6.2 0 7.5-.4 11.9-3.2 5.6-3.7 8.6-4.3 8-1.5-.5 2.1.3 3.2 3.9 5.5 1.7 1.1 2.7 2.6 2.7 4.1 0 3.3 3.2 5.7 8.7 6.7 2.6.5 5.3 1.5 5.8 2.3.6.7 2.4 2 4.1 2.9 1.7.9 3.6 2.3 4.3 3.1 1.7 2.1 4 2 6.4-.1 1.3-1.3 3.7-1.8 7.9-1.9 6.9-.1 7-.2 9.4-9.4 2-7.6 5.2-11.6 10.7-13.1 4.2-1.1 2.9-1.9 16 9.2 9.9 8.3 16.3 12 22.9 13.1 5.9 1.1 6.7 1 9.4-.9 1.8-1.3 5.1-2.2 8.8-2.5l5.8-.5 1.5 3.4c1 2.6 1.1 3.8.3 4.8-1.9 2.2 8.6 4.1 14.6 2.6 4.8-1.2 6.3-.6 6.4 2.5 0 1.1 7.2 5.5 10.9 6.6 1.4.4 3.9.1 6.2-.9 3.7-1.4 3.9-1.8 3.9-5.8 0-3-.6-4.7-2.1-6.1-4.6-4.2-6-10-3.8-16.2.8-2.5.7-3.5-.7-5.7-.9-1.4-1.5-2.7-1.3-2.9.2-.2 7.8-2.9 16.8-6l16.5-5.7 2.8 2.8 2.8 2.8-2.5 5.3c-3.2 6.9-3.2 9.7 0 11.8 2.3 1.5 2.7 1.5 4.3.2 3.1-2.7 6.8-3 10.4-.8 3.6 2.2 8.2 2.6 12.2 1 2.1-.8 2.6-1.6 2.6-4.3 0-4 1.2-5.7 6.8-9.1 2.4-1.5 5.3-4.3 6.4-6.2 2.5-4.3 6.5-6.4 13.3-7.1 6.8-.7 11.2 1.1 12.4 5.2 1.9 6.3 2 8.2.6 10.2-.8 1.1-1.9 4.1-2.6 6.7-.9 3.7-1.5 4.6-2.8 4.1-2.7-1.1-8.9-1.8-10.5-1.2-2.4 1 0 5.4 3.3 6 7.4 1.5 15 1.8 18.9.8 4.1-1.2 4.2-1.1 7.3 2.4 1.7 1.9 3.8 3.5 4.6 3.5 2.4 0 16.1-12.8 18.2-16.9 1.1-2 2.4-5.5 3-7.8.7-2.4 2.3-5.1 3.8-6.3l2.6-2.1 2.6 2.5c1.4 1.4 3.8 2.7 5.2 3.1 2.3.6 2.7 1.4 3.7 6.9 1.6 8.4 1.5 13.7-.3 16-2.2 2.9-1.8 7 .8 10.3 4.5 5.5 10.7 16.4 11.5 20.1l.8 3.7 8.9 1.3c7.1 1 9.5 1.8 11.4 3.7 2.3 2.3 2.4 2.7 1.4 8.2-.6 3.2-.8 6.2-.4 6.6 1.2 1.2 23.2-1.3 26.4-3 2.2-1.1 3.5-1.2 5.6-.4 1.4.6 4.5 1.5 6.8 2 3.9.8 4.4.7 5.8-1.6.9-1.4 3.8-3.4 6.5-4.5 2.9-1.2 5-2.8 5.3-4 .5-1.7 1.1-1.9 3.9-1.3 4.4 1 4.1.7 9.4 7.6 4.1 5.3 4.7 6.7 5.1 12.2.6 7.3 1.3 8 10.8 10.2 3.9.9 7.7 1.9 8.6 2.1.9.3 2.3 1.9 3 3.6 2.2 5.3 6 6.8 17.6 6.8h10.1l1.2 3.7c.7 2.1 1.6 4.2 2 4.6.4.5 3.1-.3 5.9-1.7l5.1-2.6.9 2.2c2.2 6.1 2.1 7.3-1 10.3-4.5 4.2-5.4 7.3-2.9 10 2.6 2.8 2.6 3.2-1 5-2.4 1.3-2.9 2-2.4 3.9.8 3.5-2 9.4-4.7 9.8-1.4.2-3.1 1.7-4.3 3.7l-2 3.4 3.2 2.7c4 3.3 3.8 4-3.4 13.7-6.7 9-6.9 12.3-.9 13.5 3.1.5 2.9 2.9-1.2 10.2-3 5.4-4.5 7.1-7.5 8.3-2.5 1-4 2.4-4.8 4.6-.7 1.8-1.5 4-1.8 4.9-.4.9-2.3 2.8-4.2 4.1-3.3 2.2-3.5 2.6-3.5 8.3 0 6.7 1.9 10.1 7.2 13.1 4.7 2.5 5.2 6.3 2.7 17.5-.5 2.3-.3 2.8 1.3 2.8 1.1 0 2.8-.6 3.8-1.4 1.7-1.2 2.2-1.2 4.3.5 3.1 2.4 3.8 1.9 4.6-3 .9-5.7 2.9-5.9 8.8-.6l5 4.5 4-2.1c3.1-1.6 4.3-1.8 5.4-.8 1.3 1.1 4.4.9 9.1-.6 1.7-.6 2.2-.2 2.5 1.7.2 1.7.8 2.2 2.3 1.9 1.1-.2 5.3-.6 9.3-.8 6.6-.4 7.7-.2 9.7 1.7 1.9 1.8 2.9 2 5.1 1.3 1.5-.5 3.1-1.9 3.5-3 1.2-3.2-2.9-10.4-6.9-12.3-2-.9-3.2-2.2-3.2-3.5 0-1.8.5-2 5.4-1.7 6.5.4 7.6-1.2 4.8-6.9l-1.9-3.8 3.4-3.8c3.2-3.5 3.6-3.6 6.5-2.5 1.8.6 3.2 1.1 3.2.9.1-.1.9-1.9 2-3.9 1.8-3.5 1.8-3.9.2-6.3-1.3-1.9-1.6-3.7-1.1-6.4.3-2 .2-4.9-.4-6.4-1-2.7-7.1-7.2-10.7-7.9-1.5-.2-2.1-1.5-2.6-5.8-.7-5.3-.6-5.6 2.2-8.1 3-2.5 3-2.6 1-4.4-1.6-1.4-2.7-1.6-5.7-1-2.1.5-6.9.9-10.8 1.1-3.9.1-8.7.9-10.7 1.8-2.1.9-4.7 1.6-6 1.6-2.1 0-2.1 0 .5-2.8l2.7-2.8-3.1-6.3c-1.6-3.6-4.6-8.6-6.5-11.3l-3.6-4.8h3.4c5.3 0 7.4-1 8.4-3.8 1-2.7 1-2.7 3.9 2.5 2.3 4 3.6 5.3 5.3 5.3 3 0 6.6-3.9 9.6-10.5 2.5-5.6 7.3-9.7 17-14.5 4.1-2.1 5.2-3.2 6.3-6.6 1-2.9 2.1-4.4 3.6-4.7 1.2-.3 5.2-1.8 9-3.3 7.4-3.1 8.3-4.8 4.5-8.6l-2.2-2.2 2.2-1.4c1.2-.8 2.2-2.1 2.2-2.8 0-1.7-3.1-1.1-9.8 1.8-4.5 1.9-7.9 2.2-10.6 1.2-2.2-.8-2.3-12.6-.1-14.4 1.9-1.6 1.9-3.3-.1-7.1-1.5-3.1-1.5-3.1 2.5-7.2 9-9.3 13-14.5 15.9-21 2.1-4.6 3.6-6.7 4.9-6.7 2.8-.1 10.7-14.5 9.8-17.9-.4-1.4-.7-4.3-.7-6.4 0-3.4-.2-3.7-2.9-3.7-3.5 0-4.8-2.4-2.6-4.8 2.8-3.1 3.2-15.3.8-27.6-1.2-5.9-2.4-11.3-2.8-12-.4-.6-5.2-6.7-10.6-13.5l-9.9-12.4.6-4.6c.3-2.5.9-7.2 1.2-10.3l.6-5.6-3.8-2c-2.2-1-6.3-2.7-9.3-3.8-5.9-2.1-7.1-3.9-7.1-10.4 0-2.6.6-4.2 1.6-4.8 1.5-.9 1.5-1.2-.2-4-2.1-3.6-9.5-7.2-14.8-7.2-1.9 0-3.6-.6-3.8-1.2-.8-2.2 1.4-7.7 3.2-8.3 1.6-.5 3.1-2.9 4.4-6.8.7-2.2-2.3-8.4-5.7-11.5-4-3.7-2.1-8.2 3.5-8.2 4.1 0 10.9-2.9 14.3-6.1 3.9-3.7 5.6-3.6 11.8.2 4.4 2.7 5.8 3.1 10.4 2.7 2.9-.3 5.6-.8 5.9-1.1.7-.7-3.1-10.3-5-12.6-.6-.8-2.6-2-4.3-2.8-3.8-1.6-4.2-3-1-3.8 11.6-2.6 13.2-2.5 14.2 1.3.3 1.5 1.8 3.9 3.2 5.4 3.2 3.3 11.6 4.7 16.4 2.7 3-1.2 3.3-1.1 6.3 2.3 3.5 3.9 7.5 5.9 10.3 5.2 1.2-.4 3.5.9 6.5 3.5 2.5 2.3 5.6 4.1 6.8 4.1 2.1 0 2.2-.3 1.7-5.7-.3-3.2-.8-6.8-1.2-8.1-.6-1.7-.3-2.2.9-2.2.9 0 1.9.7 2.2 1.5.4.9 1.9 1.5 4 1.5 1.8 0 5.2.7 7.4 1.6 4.8 2 6.8 1.4 7.2-2.1.2-2.2 1.2-3 5.9-4.5 3.1-1.1 8.9-3.7 13-5.9 4.1-2.1 11.4-5.1 16.3-6.6 7.8-2.3 9.2-2.5 11.4-1.3 1.4.7 4.4 1.3 6.8 1.3 3.5 0 4.9-.6 7.9-3.5 4.6-4.4 5.7-6.5 6.4-11.5.6-3.7 1-4.1 4.9-5.3 4-1.3 4.2-1.6 4.2-5.2 0-3.1-.7-4.4-3.9-7.3-2.2-2-5.3-4.3-6.9-5.1-1.7-.9-4-3.1-5.1-5-1.8-2.8-3.1-3.6-7.2-4.5-2.7-.6-5.9-1.1-6.9-1.1-1.7 0-2-.7-2-4.9 0-4.5.3-5.3 3.3-7.5 1.9-1.5 4.4-2.6 5.5-2.6 2 0 2.2-.5 2.2-5.9 0-9.3-.2-9.1 10.9-9.1 7.9 0 10.2-.4 13.1-2.1 4.9-2.9 6-4.7 6-9.5 0-3.7.5-4.7 4.2-7.8 2.5-2.2 5.2-3.6 6.9-3.6 3.5 0 8.5-5.5 12.4-13.8 2.5-5.4 3.2-6.2 5-5.7 6.5 2 9.6 2.7 10.2 2.1 1.5-1.5.4-6.8-2.1-10.4-6.4-9.3-5.5-20.2 2.4-28.7 2.6-2.7 2.9-3.8 3.2-12l.3-9-4.7-2.5c-4.1-2.2-5.3-3.7-9.7-12-2.7-5.2-5.6-9.6-6.5-9.8-.8-.2-3.5 1.5-6 3.8l-4.5 4.2-9.3-3.1c-5.1-1.7-12.9-3.5-17.3-4-7.7-.8-10.7-1.8-18.5-6.2-1.9-1-4.5-1.9-5.6-1.9-1.7 0-2.4-.9-3.3-4.4-.6-2.5-1.1-6-1.1-7.9 0-1.8-.7-5.5-1.6-8.1-1.8-5.4-1.4-6.4 2-4.8 2.9 1.3 3.6.7 3.6-2.9 0-2.6.3-2.9 5-3.5 2.8-.4 5-.9 4.9-1.3 0-.3-1.9-2-4.2-3.6-5.9-4.3-6.7-8.4-3.7-18.1 1.3-4.1 3.4-8.3 4.6-9.5 2.2-2.1 2.4-2.1 8.9-.4 5.1 1.3 7.4 1.4 9.7.6 3.9-1.4 10.5-1.4 11.3-.1.3.5 1.8 1 3.2 1 1.4 0 3.1.6 3.7 1.4.6.8 2.9 1.7 5.1 2.1 3.3.5 4.6.2 7.4-1.9 3.3-2.4 3.5-2.5 7-.9 2 .8 4.3 1.7 5.2 2 2 .6 6.4-4.9 7.3-9.2.4-1.7 1.1-14.6 1.6-28.8l.9-25.8 2.9-5.2c2-3.6 3.1-7.3 3.6-12 .7-7 3.7-13.2 12.3-25 2.6-3.5 4-7 5.4-13.4 1-4.8 1.9-9.7 1.9-10.9 0-1.2.7-2.7 1.5-3.4 2.7-2.2 2.8-7.7.5-20.3-1.3-6.7-3.3-16.4-4.6-21.5l-2.2-9.3 2.4-5.5c1.4-3.2 2.9-9.3 3.5-14.2 1.3-11 1.3-12.1 0-15.5-.9-2.4-1.6-2.7-5.4-2.7-6.2 0-13.5-2.5-18.9-6.5l-4.7-3.5-.3-6.7-.3-6.8-8.2-.3c-7.6-.3-8.9-.6-15.5-4.4-4-2.3-9-5.5-11.1-7.2-6.3-5.1-11-16.5-12.4-29.8-.6-6-.9-6.6-6.8-12.6-5.4-5.7-6.2-6.2-7.4-4.8zM594.2 19c-3.3 2.7-4.1 9.3-1.6 12.1 1 1.2 3.2 2.6 4.9 3.3 4.2 1.8 12.3-.4 14.8-3.9 2.1-2.9 3.8-3 14.9-1.3 7.3 1.1 8.2 1 16.5-1.5 4.8-1.5 12.2-3.5 16.3-4.5 5.6-1.4 7.6-2.3 7.8-3.6.4-1.8-.3-1.8-10.9-1.1-6.2.4-12.4 1.2-13.8 1.7-3.2 1.3-35.1 2.6-35.8 1.5-.5-.9-8.9-4.7-10.1-4.7-.4.1-1.8.9-3 2zM574 23.9c-.8.5-12.7 4.8-26.5 9.5-22.8 7.9-25.9 8.7-35 9.3-12.3.7-14.1 1.4-15 5.1-.3 1.7-2.2 4.4-4.1 6.1-3.7 3.4-4 4.7-2.2 8.6.9 2.1 1.8 2.5 5.4 2.5 3.7 0 4.6-.4 6.5-3.3 3.5-5.1 4.8-5.7 12.2-5.7h7l8.6-6.4c8.4-6.2 8.7-6.3 16.3-6.9 8.6-.6 10.8-1.5 16-6.5 2.7-2.6 4.2-3.3 5.9-2.9 4.7 1.2 12.5-5.9 10.4-9.3-.8-1.2-3.5-1.2-5.5-.1zM468.9 80c-5 1.5-23.9 12.1-25.4 14.3-.8 1.2-1.5 3-1.5 4 0 1.2-2 2.7-6.5 4.8-3.6 1.7-6.7 3.5-7.1 4-.3.5-1.6.9-3 .9-2.2 0-2.5.4-2.2 2.7.3 2.7.6 2.8 6 3.1l5.7.3 6.8-6.2c8-7.4 8.5-8.1 8.1-11.6-.3-2.4.2-2.8 5.3-4.3 3.1-1 7.2-2.9 9-4.3 1.9-1.3 4.9-2.8 6.7-3.2 3.2-.7 6.2-2.8 6.2-4.6 0-1.1-4.4-1.1-8.1.1zM417.8 127.8c-1.9 2.1-6.7 9.1-10.8 15.7-4 6.6-9.4 15.1-11.9 19-4.1 6.4-4.6 7.7-5.2 15-.4 4.4-.9 9.3-1.3 11-1 4.6 2.2 7.7 8.4 8.3 4.5.4 5 .3 5-1.6 0-1.2-.4-2.4-1-2.7-.5-.3-1-1.5-1-2.5 0-1.8.2-1.8 3.5-.4 4.4 1.8 4.1 1.9 5.5-1.5.7-1.7 3-3.9 5.8-5.4 2.6-1.4 6.6-4.5 8.9-6.9 3.8-3.9 4.5-5.4 7.4-16.8 3.6-13.9 3.5-17.3-.6-23.4-1.3-1.9-2.3-4.7-2.2-6.2.2-2.2-.4-2.9-3.4-3.9-3.6-1.3-3.7-1.2-7.1 2.3z"/><path d="M588 340.6c-4.9 2.3-9.6 5.6-13.5 9.3-5.3 5.1-6.6 5.9-10.8 6.4-6.6.7-8.7 2.8-8.7 9 0 7.6-2.2 9.8-16.9 16.9-10.3 5.1-13.9 7.4-20.1 13.3-4.1 3.9-12.6 10.3-18.7 14.3-6.2 4-11.3 7.7-11.3 8.2 0 .6-2.3 2.1-5 3.5-2.8 1.4-5.3 3.2-5.6 4-.9 2.4 4.1 12 7.5 14.4 3.2 2.3 3.2 2.3 9.6.6 6.3-1.7 6.6-1.7 11.8.2 2.9 1.2 8.8 4.4 13.1 7.2 4.3 2.8 8.5 5.1 9.3 5.1.8 0 4.5 3.2 8.3 7.1 6 6.3 7.1 7.1 10.6 7.2 5.3.2 17-3.2 21.7-6.2 6.7-4.3 10.2-14.1 8.3-22.8-1.2-5.3.5-7 8.4-8.3 5.6-.9 7-1.5 7-3 0-.9 1.7-3.6 3.8-5.9 2.9-3.2 6.1-5.1 14.5-8.6 6-2.5 11.7-4.5 12.6-4.5.9 0 3.3-2.1 5.2-4.6 1.9-2.5 4.6-6.3 6.1-8.3 1.5-2 4.1-7.4 5.9-12.1 2.8-7.6 3-9.4 2.7-17.2-.3-6.6-.9-9.2-2.2-10.7-2.3-2.6-16-9.2-21.1-10.2-7.7-1.5-16.3-4.4-18.2-6.2-2.9-2.5-6-2.1-14.3 1.9zM209.4 621.9c-3.4 1.6-7.6 3.2-9.5 3.6-8.5 1.9-11.7 8.8-6.4 14 2.6 2.7 4 3.1 5 1.5.3-.6 2.4-1 4.6-1 3.6 0 3.9.2 2.9 1.9-1.5 2.9-1.3 3.1 2.5 3.1s4.3-1 2-5c-1.2-2.2-1.1-2.7.2-4.3 2.2-2.4 7.4-2.1 11.4.6 3.3 2.2 3.4 2.6 3.7 9.2.3 8.2 2.3 13.2 7.9 19.4 3.8 4.3 4 4.4 11.7 5 7.5.6 8 .8 11.1 4.4 2.4 2.8 4 3.7 6.4 3.7 1.7 0 7.4 2.1 12.9 4.8 9.4 4.7 9.9 4.9 16.6 4.4 6.6-.4 7.4-.7 13.3-5.5 4.9-4 6.3-5.6 6.3-7.8 0-2.9 1.1-2.5-13.5-4.5-3.3-.5-5.8-1.8-9.9-5.3-3.1-2.5-8.7-6.9-12.6-9.6-5-3.6-7.2-5.9-7.8-8-.8-2.8-1.3-3-6.3-3.6-4.1-.5-6.8-1.5-11.1-4.6-3.2-2.2-7-4.6-8.6-5.2-1.5-.7-3.6-2.5-4.5-4.1-1.2-2-2.8-3-5.5-3.5-2.7-.4-4.2-1.4-5.4-3.5-1.5-2.7-2.2-3-6.5-3-3.2 0-6.8 1-10.9 2.9zM192.5 656.1c-2.2.4-9.6.8-16.5.9-16 .1-21.5 1.8-24.7 7.6-3.7 6.5-2.9 14.5 1.8 16.9 3.9 2.1 5.6 1.9 12.3-1.5 6.8-3.5 14.4-4.1 16.7-1.4.9 1.1 2.3 1.4 4.7 1.1 2.9-.5 3.5-.2 5.2 2.6 1.1 1.8 2 4.4 2 5.8 0 3.5 5.8 10.9 8.7 10.9 1.2 0 2.5-.5 2.8-1 1-1.6 2.1-1.2 6.8 2.4 4.1 3.1 4.7 3.3 9.3 2.6 10.6-1.7 20.4-6.1 20.4-9 0-1.1.9-2.8 2-3.7 2.5-2.2 2.6-4.5.2-6.6-2.2-2-12.5-5.7-15.8-5.7-2.7 0-4.2-2.5-7-11.3-2.6-8.3-3.5-8.9-11.8-7.4l-6.8 1.1-2.2-2.7c-1.2-1.5-2.6-2.6-3.1-2.6-.6.1-2.8.5-5 1zM233.6 707.5c-1.4 1.5-3.4 2.5-5 2.5-3.9 0-9.6 2.7-9.6 4.5 0 .9 2.5 4.2 5.5 7.3 3.1 3.1 6.5 7.2 7.8 8.9 1.2 1.8 2.9 3.6 3.7 3.9 2.7 1.1 16.4 3.4 20.8 3.4 3.8 0 4.5.4 6.3 3.5 2.9 4.8 5 3.4 8.4-5.5 2.9-7.6 2.7-9.6-1.1-13.8-1.3-1.5-3.6-5.2-5.2-8.2l-2.8-5.5h-7.5c-5.4 0-8.1-.5-9.9-1.8-3.6-2.5-8.6-2.2-11.4.8zM101.5 781c-3.4 1.6-7.8 2.9-10.1 2.9-5.5.1-10.3 1.8-13.6 4.9-3.4 3.1-3.4 3.9-.7 10.3l2.1 4.9-2.7 3.6c-2.7 3.6-2.8 3.9-1.5 8.3.7 2.5 1.6 6.4 1.9 8.6.5 3.5 1.6 4.7 8.4 10.2 6.2 4.9 8.4 6.1 10.5 5.8 1.5-.2 4.9-.7 7.5-1 5.5-.7 6-1.5 7.1-10.6l.7-5.7 5.8-.6c4.9-.6 6.1-1.1 8-3.6 1.2-1.7 2.7-3 3.4-3 .7 0 7.7 3.6 15.6 8 13.3 7.4 14.9 8 20.1 8h5.7l1.2 5.7c.6 3.1 1.1 6.6 1.1 7.7 0 1.2 1.1 2.8 2.3 3.7 3 2.2 18.3 4.4 27.7 4 7-.2 7.6-.4 11.5-4 2.2-2 6.2-5.2 8.8-7 4.1-2.8 5.3-3.2 8.6-2.6 6.3 1 12.1-2.7 27.3-17.7 17.1-16.8 19.5-20 17.9-23.4-.6-1.4-1.1-3.4-1.1-4.5 0-1.2-.4-1.7-1.1-1.4-.6.4-.7 1.9-.4 3.6.4 1.6.5 2.9.2 2.9-.2 0-2.1-1.4-4.2-3-2.6-2.1-4.2-2.7-4.9-2-.5.5-2.7 1-4.8 1-3 0-3.8.4-3.8 1.8 0 1.1 1 2.4 2.3 3 2 1 2.1 1.1.2 1.1-1.1 0-2.9-.6-3.9-1.4-1.1-.8-3-1.5-4.3-1.5-2 0-2.1.3-1.3 2.6 1.7 4.3 1.2 4.3-3.4-.2-2.4-2.5-5.3-4.4-6.5-4.4-4.4 0-8.9-2.8-11.5-7.2-2.6-4.5-6.4-7.4-10.6-8-2-.2-2.6.2-2.8 2.2-.2 1.4-.7 2.9-1.2 3.5-.4.5-1 2.7-1.4 4.7-.7 3.8-.7 3.8-5.6 3.8-4.5 0-5.3.4-8.6 4-5.1 5.5-14.5 7.9-17.4 4.5-.7-.8-2.3-1.5-3.6-1.5-1.4 0-3.3-.5-4.4-1.2-1.5-1-2.6-.9-5.5.5-3.2 1.5-3.9 1.6-6.8.2-1.8-.8-6-3.7-9.4-6.4-5.4-4.1-7.1-4.9-12.2-5.5-4.8-.6-6.8-1.4-10.1-4.1-3.8-3.2-15.3-7.6-19.1-7.4-.8 0-4.1 1.3-7.4 2.9z"/></svg>
