<svg version="1.0" xmlns="http://www.w3.org/2000/svg" width="1365.333" height="1365.333" viewBox="0 0 1024 1024"><path d="M508.7 1.4c-.3.8-2 2.2-3.8 3.1-2.7 1.4-3.8 1.5-7.3.5-9.4-2.6-17.3 1.1-9.4 4.4 4 1.7 6.9 4.8 9.6 10.2 1.2 2.3 3.7 5.4 5.7 7 3.6 2.9 3.6 3 2.2 6.3-1.3 3-1.2 4 .4 9.5 2.5 8.2 1.9 10-3.2 9.3-5.2-.7-5.8.3-10.6 18.2l-3.8 14.3-19 20.4c-11.4 12.3-22.9 23.6-28.9 28.3l-9.9 7.9-36.1 12.1-36.1 12.2-5.2 6.7c-2.8 3.7-6.8 8.8-8.8 11.4-3.2 4.1-3.5 4.9-2.5 6.8 1 1.9.9 2.6-.8 4.2-2 2-2 2-4.3-1.1-2.7-3.6-5.6-4-6.8-.9-.4 1.3-1.1 5.9-1.4 10.3-.6 7.6-.8 8.2-4.4 11.5-3.4 3.2-3.9 4.1-4.4 10-.3 3.6-1.5 8.7-2.7 11.5-1.1 2.7-2.4 8.1-2.9 12-.7 6.5-1 7.1-4.3 9.2-8.4 5.3-9.2 6.3-8.5 10.3.6 3.4.4 3.8-2 4.4-2.2.6-3.6 2.5-6 8.3-.1.2-3.5-.4-7.6-1.3-9.8-2-13.7-5.6-17.4-16.3-2-5.7-3.6-8.4-6.3-10.7-3.3-2.8-4-3-7.1-2.2-2.8.8-4.1.6-7.1-1.1-2.1-1.2-4.6-2.1-5.6-2.1-1.1 0-3.9-1.6-6.3-3.5l-4.5-3.6-5.1 5.1c-4.4 4.4-5.6 5-9.2 5-6.1 0-7-2.2-3.1-7.7 3.3-4.5 3.2-7.1-.1-8-1.4-.3-2.2-1.7-2.6-4.4-1.1-6.3 1.2-7.9 7.9-5.3 1 .4 1.6.1 1.6-.9 0-.9 1.5-2 3.4-2.7l3.5-1.1-.6-8.7c-.3-4.8-1.2-9.6-1.9-10.7-.8-1.1-1.4-2.8-1.4-3.9s-.9-3-2.1-4.2l-2.1-2.2-2.9 3.2c-1.6 1.8-5 4.1-7.6 5.1-11.9 4.5-20.8 11.7-21.7 17.5-.5 3.4-1 3.8-4.1 4.4-2.8.6-3.5 1.1-3.5 3.1 0 1.7-2 4-7.5 8.5-7.4 6-7.5 6.2-7.5 10.8 0 2.6-.7 7.2-1.5 10.2-.8 3-1.5 6.6-1.5 7.9 0 2.4 4.1 8.2 10.9 15.4l3.6 3.8-2.2 4.2c-4.4 8.5-4.2 9.5 3.4 16.8 3.7 3.6 8 7.3 9.4 8.3 4.8 3 4.4 15.6-.5 18.8-1.7 1.2-9.1.9-10.3-.3-2.4-2.4-5.2 8.5-3.3 13 .9 2.4 3 4 15 11.7 1.9 1.3 6 2.6 9 3 3 .3 6.8 1.6 8.5 2.8 1.7 1.1 8.4 4.8 14.9 8.1 13 6.5 17.8 10.5 20.6 16.9 1 2.2 3.2 5.4 5 7.1 4.8 4.5 14.6 18.5 16 23 .7 2.2 3 5.9 5.1 8.3 2.3 2.7 4 5.8 4.4 8.2.7 4 10.7 17.9 12.9 18 1.3.1 13.9 19.3 16.6 25.3 1 2.3 3.6 5.6 5.8 7.4 4.3 3.5 5.9 8.1 4.1 11.5-.9 1.6-.5 2.9 2.3 7.1 3.7 5.6 5.8 10.7 5.8 14.2 0 1.6.9 2.6 3 3.5 1.7.7 3 1.7 3 2.2 0 .5 1.1 2 2.4 3.3 1.7 1.7 3 5.2 4.6 12 1.9 8.4 2.6 9.8 5.4 12 3.1 2.3 3.4 3.1 3.9 9.7.5 5.7 1.3 8.2 4 12.7 1.9 3.1 4.1 7.6 4.8 10.1 1.3 4.5 6.9 12.8 14 20.6 5.8 6.5 11.1 18.4 12 27.3.4 4.2.8 7.7.8 7.8.1.1 2.2 1.4 4.9 3 9.2 5.3 11.1 7.5 17.1 19.9 3.1 6.6 6.5 14.9 7.5 18.6l1.8 6.8 8.4 5.7c8 5.4 8.4 5.8 8.4 9.4 0 2.9 1.2 5.5 5.6 11.8 3 4.5 6.4 8.5 7.4 9.1 1.2.6 2 2.6 2.5 6 .4 3.2 1.7 6.2 3.6 8.6 1.6 2 2.9 4.3 2.9 5.1 0 .8 2 3.6 4.5 6.2 2.5 2.7 5.2 6.9 6.1 9.4 1.4 4.2 1.4 5.1 0 10.1-.9 3-1.6 6.6-1.6 8.1 0 2.4-.3 2.7-2.5 2.3-3.5-.7-4.8 3.6-1.7 5.8 1.4 1 2.3 3 2.7 6.8.6 4.8 1.1 5.7 4.4 7.8 2.6 1.7 3.6 3 3.6 5 0 1.9 1.2 3.7 4.4 6.4 4.5 3.9 8 10.1 8.1 14.1 0 1.3.6 2.3 1.4 2.3.7 0 3.6 1.8 6.4 4 2.8 2.2 6.7 4.7 8.9 5.6 5.1 2.1 9 5.9 11.9 11.6 1.4 2.7 3.7 5.4 5.3 6.3 2.2 1.1 2.8 2 2.4 3.5-.3 1.1-.1 2 .4 2 .6 0 3.5 2.5 6.7 5.5 3.1 3 8 6.7 10.9 8.1 2.8 1.5 7.8 4.4 11 6.5 3.2 2.2 7 4.2 8.5 4.5 1.5.4 4.5 2.3 6.7 4.4 4.7 4.4 9.5 6.4 13.2 5.7 2.3-.4 4.1.7 12.3 8.3l9.5 8.8 7.5 1.1c11.5 1.8 15 3 21 7.2 3.1 2.1 6.3 3.9 7.1 3.9.9 0 2.6 1.1 3.9 2.5 1.3 1.4 3.1 2.5 4.1 2.5.9 0 5.4 1.6 9.9 3.5s9.1 3.5 10.3 3.5c2.8 0 10.6 2.4 14.5 4.4 1.9 1 3.3 2.6 3.7 4.5.4 2 1.4 3.1 3.1 3.5 1.4.4 4.8 2.5 7.6 4.6 2.7 2.2 5.8 4 6.8 4 1.1 0 3.3 1.8 5 3.9 2 2.5 4.3 4.1 6.3 4.5 1.8.3 6 2 9.4 3.8 5.6 2.8 6.6 3.7 9.3 9.1 1.6 3.3 3 7.5 3 9.3 0 2.6.7 3.8 3.8 6 2.1 1.5 5 4.4 6.5 6.5 2.2 3 3.5 3.8 7.3 4.4 4.1.6 5.6 1.6 11.8 7.7 3.9 3.9 10.3 9.1 14.1 11.6 6.1 4 7.8 4.6 13.5 5 4.8.3 8.1-.2 13-1.8 8.3-2.8 11-4.8 13.9-10.4l2.3-4.5-2.1-7.8c-1.9-7-1.9-7.9-.5-10 1.2-1.9 2.3-2.3 5.3-2.2 2.8.2 4.7-.4 7.3-2.4 3.1-2.4 3.7-3.5 4.3-8.3.6-4.8.4-5.8-1.2-6.9-4.8-3.5-5.1-3.9-4.2-7 .6-2.1 2.2-3.8 5.8-5.7 2.6-1.5 5.7-4 6.6-5.5 1-1.6 4-5.3 6.7-8.4 2.6-3 4.8-6.2 4.8-7 0-.8 2.1-2.5 4.6-3.8 4.4-2.4 4.5-2.6 3.9-6.1-.7-3.9.6-5.6 8.3-11.7l2.4-1.8-4.5-3.3c-3.5-2.5-5.6-3.2-9-3.2-2.9 0-5.2-.6-6.4-1.8-2.1-1.8-8.7-21.6-9.7-28.7-.7-5.5 3.8-15.1 8.8-19 4.7-3.6 5-7.7.7-9.9-1.6-.9-4.3-3.3-6-5.4-2.6-3.4-2.9-4.3-2.2-7.3.5-1.9 1.2-4.6 1.5-6.1.4-1.8 1.4-2.8 2.9-3 1.8-.2 2.3-1 2.5-4.1.2-2.6 1-4.2 2.7-5.3 1.3-.8 2.6-2.6 2.9-3.9.3-1.3 2.4-3.8 4.6-5.5 3.3-2.6 4-3.8 4-6.6 0-3 .5-3.6 3.8-5.1 2-1 3.8-1.8 4-1.9.6-.3-3.2-8.1-5.5-11.1-1.7-2.2-2.7-5.3-3.4-10-1.1-9.2-1.2-8.8 1.4-12 2.1-2.6 2.2-3.5 1.9-16.1-.2-7.2-.8-13.2-1.3-13.2s-8.6 3.4-18 7.6l-17.2 7.6-12.6-6.5c-13.8-7.1-29.7-12.7-36.3-12.7h-4.1l2.3 2.4 2.3 2.5-2.7.7c-5.5 1.3-26-2.1-30-5-1.7-1.3-5.3-2.9-8.1-3.6-2.7-.7-6.8-2.3-9-3.5-2.5-1.4-6.6-2.5-10.8-2.8-10.8-1-16.1-6.1-15-14.5.8-5.8-1.8-11.1-7.3-15.3-2.4-1.8-4.7-4.2-5-5.3-.9-2.8-5.3-8.6-6.5-8.6-2 0-7-4.2-8-6.6-.5-1.6-.4-5.3.3-10.2 1-6.5 1.8-8.7 5.5-13.9 3.6-5.1 4.3-7 4.2-10.1-.2-2.9.5-4.9 3-8.6 3.3-4.7 3.3-4.8 1.8-9.2-1.6-5-1.4-5.1 5.4-2.7 7.3 2.6 14.6.8 24.8-6.2 5.4-3.8 8.9-5.5 11-5.5 7.2 0 17.4-8 24.7-19.2 3.6-5.6 4.4-7.7 4.4-11.4 0-4.2.4-4.9 5.3-9.4 4.7-4.3 5.6-5.8 7.6-12.5 1.4-4.8 1.9-8.8 1.6-10.8-.5-2.5-.2-3.7 1.4-5.1 2.3-2.1 1.9-3.6-1-3.6-2.8 0-19 11.1-23.1 15.9-1.9 2.3-4 4.1-4.5 4.1-.6 0-3.9 1.9-7.3 4.2-3.4 2.2-8.1 4.5-10.4 5-2.2.5-13.2 1.2-24.3 1.5l-20.3.6v-6c0-4.6-.4-6.4-1.9-7.7-1-1-2.4-3.7-3-6.2-1.3-5.1-4.1-8.4-7.2-8.4-1.2 0-3.7-.9-5.5-2.1-2.8-1.7-6.1-2.2-19.6-3-9-.6-16.6-1.4-17-1.7-.4-.4.7-2.5 2.3-4.7 6.2-8.6 6.9-10 6.9-14.5 0-3.8-.8-5.7-5.1-11.8-2.8-3.9-5.8-7.2-6.7-7.2-2.8 0-7.2-5.1-7.2-8.3 0-2.3-1.3-4.2-5.9-8.6-4.9-4.7-6.1-6.6-7.6-11.9-1.5-5-2.6-6.9-5.6-9.3-4.6-3.7-5.8-7.5-3-10.2 1.6-1.6 1.7-2.4.9-4.3-.7-1.4-2-2.4-3.2-2.4-1.3 0-4.3-2.1-7.1-5-3.8-3.9-4.6-5.3-3.7-6.2.7-.7 1.2-2.4 1.2-3.9 0-3.4 1.9-5.4 6.6-6.9 5.3-1.8 6.5-6.6 2.8-11.1-1.2-1.3-1-2.7 1.2-9.1 2.1-6.4 3.2-8.2 7.3-11.6 7.1-6 14.2-10.2 17.2-10.2 2.9 0 7.3-3 9.1-6.3.6-1.2 1-4.9.9-8.2-.1-5.2-.5-6.4-2.9-8.6l-2.8-2.5 1.8-4c1-2.1 1.8-4.6 1.8-5.5 0-.9 2.5-3.8 5.5-6.3 6.8-5.9 8.6-10.8 6.2-17.3-1.6-4.2-1.5-4.3.9-7.2 1.9-2.3 2.4-4 2.4-8.4 0-6.2.2-6.5 8.5-9.8 3.3-1.3 6.9-3.3 8-4.5 1.1-1.2 3.6-2.7 5.5-3.4 4.8-1.8 5.8-2.7 6.5-6.1.4-1.9 1.3-2.9 2.5-2.9 3.2 0 12.9-4 14.2-5.9.7-.9 4-3.4 7.3-5.4 5.5-3.4 6.7-3.7 13.5-3.7 4.1 0 9.7-.7 12.4-1.5 2.7-.8 6.2-1.5 7.7-1.5 1.6 0 3.2-.7 3.8-1.7.8-1.5 1.5-1.6 6.3-.6 4.2.9 5.8.8 8-.3 1.5-.8 3.7-1.4 5-1.4 1.7 0 2.9-1.1 4.3-3.7 4.3-8 4.9-8.4 13.4-8.4 4.2.1 8.5.1 9.6 0 4.6 0 8.5 1.4 8.5 3.1 0 2.2 7 5.4 9.8 4.5 1.3-.3 3.1.1 4.7 1.1 1.4.9 2.7 1.5 2.9 1.3.1-.2 1.2-2 2.5-4.1l2.2-3.6-5.5-3.1c-6.2-3.6-7.1-4.5-8-8.6-.4-1.6-2.2-4.5-3.9-6.5-1.8-1.9-4-4.5-4.9-5.8l-1.6-2.4-4 2.5c-4.5 2.9-10.2 2.8-14-.3l-2.3-1.9 18.6-28.8c17.9-27.9 18.5-28.8 16.3-29.8-3.1-1.3-6.8-4.6-6.8-5.9 0-.6-4.5-2.8-10.1-4.9-7.2-2.8-11.4-5.1-15-8.3-8.6-7.6-9.3-7.9-13.2-5.6-1.8 1.2-8.1 3.1-14.1 4.3-10 2-11 2-11.8.5-.5-.9-1.7-1.6-2.7-1.6-1 0-2.9-.8-4.2-1.9-1.3-1-4.8-2.9-7.7-4.1-6.3-2.7-6.1-2.8-18.5 6.9-7.5 5.8-9.6 7-13.5 7.3-2.6.3-5.7.1-7-.4-3.4-1.2-13.7-1-16.6.3-1.9.9-2.9.9-3.9.1-.9-.8-2.3-.7-5.2.3-2.2.8-4.7 1.4-5.5 1.4-.8 0-4.4-2.6-8-5.8-6.2-5.6-6.4-6-5.2-8.5 1.8-4.1 1.4-11.8-1-18.1-2-5.3-2.3-5.6-4.9-5-4 .9-9.1-.3-12.4-2.9-2.6-2.1-2.8-2.9-3-9.2 0-4.6-.7-7.7-1.8-9.5-2.3-3.5-9.5-8.5-13.5-9.4-1.8-.3-3.7-1.5-4.2-2.6-.6-1-1.7-1.9-2.5-1.9s-3.2-1.6-5.4-3.5c-2.8-2.6-4.7-3.5-7.4-3.5-2.8 0-4-.7-6.2-3.6-1.8-2.3-2.6-4.3-2.2-6 .3-1.5-.4-3.5-1.9-5.6-1.3-1.7-2.4-3.8-2.4-4.6 0-2.3-4.2-9.1-6-9.7-.8-.3-2.3-1.8-3.2-3.3-1-1.7-3.2-3.4-5.6-4.1-2.9-1-4.3-2.3-6.1-5.7-2.2-4-2.7-4.4-6.2-4.4-2.9 0-4.2-.6-5.6-2.6-1-1.4-4.6-3.7-7.8-5-8.5-3.6-9.2-3.7-9.8-2z"/></svg>
