<svg version="1.0" xmlns="http://www.w3.org/2000/svg" width="1365.333" height="1365.333" viewBox="0 0 1024 1024"><path d="M392 214.7c-3.1 1.1-6 4.7-6 7.4 0 1.6-.8 3.2-2.2 4.1-2.2 1.5-2.2 1.6-.5 4.1 1.9 3 3.2 3.2 8.8 1.5 2.7-.8 3.9-1.7 3.9-3 0-2.4 2.3-2.3 11.3.5 6.3 2 7.8 2.2 10.8 1.2 1.9-.7 5.5-1.6 7.9-2 2.5-.4 5.8-1.8 7.3-3.1 1.6-1.3 4.2-2.4 5.8-2.4 2.6 0 2.9-.3 2.9-3.3v-3.3l-8.2.4c-5 .2-11.9-.2-17.3-1.2-8.7-1.5-21.4-2-24.5-.9zM468.3 233.2c-.6.7-1.6 2.3-2.2 3.5-.9 1.9-.8 2.4.9 3.3 1.5.8 2.7.7 4.9-.5 3.8-1.9 4.4-3 3.1-5.5-1.2-2.2-5.2-2.7-6.7-.8zM625.3 244.2c-5.1 2.6-6.1 4.7-3.4 6.8 1.1.8 2.3 2.7 2.6 4.2 1 4.1 7.4 7.8 13.4 7.8 6.7 0 9.8-1.5 10.5-5.2 1.4-7.3 1.2-7.6-7.8-11.9-4.6-2.1-9-3.9-9.7-3.8-.8 0-3.3 1-5.6 2.1zM670.6 260.7c-3.1 2.6-5.6 5-5.6 5.3 0 .3 2 1.3 4.5 2.3 3.4 1.5 5.8 1.7 10.2 1.3l5.8-.7 10 7.9c5.5 4.4 11.8 8.5 13.9 9.2 2.2.7 6.8 3.2 10.2 5.6 3.5 2.3 7.1 4.5 8.1 4.8 1 .3 4.1 3.3 6.8 6.7 2.8 3.4 7.1 7.8 9.7 9.8 4.4 3.6 5.2 3.8 13.9 4.4 5.1.4 9.3.8 9.4 1 .1.1 6.3 7.9 13.8 17.4 20.6 26 20.2 25.3 22.1 41.3 1.4 11.4 2.2 14.2 4.8 19 1.7 3 4.5 6.7 6.3 8.2l3.2 2.7 3.4-2.5c4-2.9 6.7-8.4 6.8-13.6.1-2 1.2-5.8 2.5-8.5 1.3-2.6 2.7-6.3 3-8 .5-3 .2-3.4-3.9-5.9-2.5-1.4-6.6-5.2-9.1-8.4-4.9-6.2-12.2-12.8-19.1-17.2-5.4-3.5-21-18.4-21.8-20.8-.3-1-2.6-2.6-4.9-3.5-3.2-1.2-5.4-3.1-8.2-7-4.5-6.2-9-9.2-19.5-12.9-4.1-1.5-9.8-4.3-12.6-6.4-19.1-14.1-23.6-16.9-28.4-17.7-5.3-.8-20.6-10.3-23.8-14.7-1.4-2.1-3.3-3.8-4.2-3.8-.9 0-4.2 2.1-7.3 4.7zM10.8 385.3c.3 125.2.3 125.3-1.8 127.2-1.1 1-2 3.1-2 4.8 0 1.7-1.6 5.9-3.6 9.4-3.5 6.3-3.5 6.5-2.3 11.4 1 3.7 2.4 6 5.6 9L11 551l.1 38.3c.1 21 .5 56.6.8 79.2l.6 41 5.2.9c4.8.8 5.4.7 8.2-1.7 5.2-4.3 8.2-4.4 15.9-.2 6.7 3.7 6.7 3.7 12.8 2.6 3.4-.6 8.7-1.1 11.8-1.1 3.2 0 9.4-.9 13.9-2.1 11.2-2.9 18.6-1.7 31.3 5.2l9.2 4.9 14.1-8c11.5-6.6 15.4-8.3 21.7-9.5 4.2-.8 9-2.3 10.8-3.3 3.1-1.8 3.1-1.8 3.4-11.2l.3-9.4-5.8-5.8c-9.5-9.7-17.5-14.9-24.1-15.7-3.4-.4-7.6-1.8-10.3-3.4-3.7-2.2-5.8-2.7-11.3-2.7-3.7 0-6.5-.4-6.2-.9.9-1.5 12.4-3.4 16.6-2.7 2.2.3 6.1 1.6 8.6 2.8l4.5 2.3 7.7-2.7c4.8-1.7 10.9-2.9 16.2-3.3 10-.7 19.8-2.4 20.6-3.6 1.1-1.8-4.1-9-8-11.2-2.2-1.2-4.9-3.7-6-5.6l-1.9-3.3 2.4.7c1.3.4 3.8 1.8 5.5 3.1 2.5 2 4.3 2.4 9.5 2.4 3.6 0 7 .5 7.5 1 .6.6 2.5.7 4.3.4 2.5-.5 3.1-1.1 2.8-2.5-.4-1.5 0-1.7 2.8-1.2 2.7.4 3.4.2 4-1.6.5-1.6-1.6-5.3-8.9-16-5.3-7.7-9.9-14.7-10.2-15.6-1.4-3.5 3.7.9 7.1 6.1 3 4.7 4 5.4 13.2 9.3 12 5.2 15.1 5.2 16.8.1 1.5-4.5 3.4-4.8 7-1 2.2 2.3 3.7 3 6.7 3h3.9l-2.6-4.3c-3.4-5.9-3.2-7.8.4-4.3l2.9 2.7.7-3.7.7-3.8 2 3.2c2.3 3.6 3.4 3.9 6 1.5 1.7-1.5 1.9-1.5 3.6 0 1 .9 3.2 1.9 4.8 2.3 2.4.5 3.2.2 4-1.5.6-1.4 1.3-1.8 2.3-1.2 1.1.7 1.1 1.5.1 4.6-1 3-1 4 .1 5 1.3 1.3 19.5 5.5 23.7 5.5 1.1 0 4.3 1.6 7.2 3.5 4.8 3.3 5.7 3.5 13.1 3.5 6.4 0 9.3.6 15.4 3 4.2 1.7 9.7 3.5 12.3 4 2.6.6 5.7 1.2 6.8 1.5 1.2.3 2.7 1.9 3.5 3.7.7 1.8 3.4 5.5 5.9 8.3 2.6 2.8 5.6 7.7 6.9 11 1.7 4.2 4.4 8.1 9 13 15.3 16.2 14.7 15.3 13.2 17.7-1.2 1.9-.8 2.6 5.4 8.8 4.6 4.6 8 7.2 11.5 8.4 4.6 1.7 4.9 1.9 4.3 4.6-.8 4.3.3 7.5 3.1 8.8 1.4.6 3.5 3.1 4.7 5.4 2.8 5.5 2.7 5.5 4.2 3.5 1.1-1.6 2.1-1.1 10.4 4.8 10.5 7.4 17.7 15.9 18.8 22.1 1 5.2 1.1 5.4 8 11.3 4.9 4.2 6.7 5.1 9.8 5.1 2.6 0 5.2 1 8.2 3 3.7 2.6 5.3 3 10.8 3 5.6 0 6.7-.3 7.9-2.2 1.5-2.2 1.5-2.2 5.5-.4 2.2.9 4.8 3.1 5.7 4.7 1.5 2.5 2.3 2.9 4.4 2.5 1.5-.3 5.7-1 9.4-1.6 3.7-.6 7.8-1.4 9.1-1.9 2-.8 3.5-.1 9.3 3.9 3.8 2.7 7.4 4.9 8.1 5 .6 0 3.9-1.2 7.2-2.6l6-2.6 5.1 3.1c3.9 2.4 6.2 3.1 10.1 3.1 2.8 0 6 .7 7.3 1.5 1.5 1 6 1.8 12.7 2.2 8 .4 11.5 1.1 15 2.9 2.5 1.2 6.3 2.5 8.5 2.9 5.9 1 6.4 1.3 5.7 3.1-.5 1.2-1.4 1.5-4.3 1-2.5-.4-4.1-.1-4.8.7-.8 1 1.1 2.5 8.2 6.5 8.8 4.9 9.6 5.2 16.5 5.2 5.8 0 8.7-.6 14.5-3 14.2-5.9 14.1-7.8-.4-14.1-5.6-2.3-10-4.8-10-5.6 0-1.8 5.5-2.1 14.6-.7 3.4.5 5.3.1 10-2.2 5.6-2.6 5.7-2.8 2.9-3.1-8.9-.9-11.5-1.5-11.5-2.6 0-.9-1.3-1.1-4-.9-7.7.8-12.9-.7-17.4-4.8-3.9-3.6-4.5-3.8-13.2-4.5l-9.1-.7-7.3-7.3c-5.8-5.9-7.1-7.7-6.5-9.4.5-1.8 1.4-2.1 6.5-2.1 4.8 0 6.4-.4 8.9-2.6 1.7-1.4 3.1-2.9 3.1-3.4 0-.4-2.4-2.1-5.2-3.8-5-2.7-6.2-2.9-19.6-3.5l-14.3-.6-7.6-4.8c-4.2-2.6-8-5-8.4-5.3-.5-.3-1.1-2.3-1.4-4.5-.6-3.8-.2-4.4 5.4-11.3l6.1-7.4-1.7-2.9c-1.2-2-2.8-3.1-5.3-3.5-1.9-.3-5.3-1-7.5-1.5-3.6-.7-4.3-.5-7 2.1-2.6 2.5-3.9 3-7.8 3-3.3 0-4.9.5-5.3 1.5-.9 2.3-7.5 1.8-14.6-1l-6.3-2.5-2.8-12-2.8-11.9-5-3.8c-6.5-4.9-10.9-11.7-10.9-16.9-.1-2.1-1.3-7.7-2.8-12.4l-2.8-8.5-6.2-1.5c-5-1.2-6.4-2-6.8-3.7-.6-2.3-1.8-2.7-11-3.8l-5.2-.7-3.1-6.8c-3.9-8.4-6.2-10.5-22.8-20.6l-13-7.9-.7-8.9c-.6-8.1-1-9.4-4.1-13.6-1.8-2.5-4.6-5.2-6-6-2.5-1.4-2.6-1.7-2-7 1-9.6 1.5-11 3.9-11.6 1.3-.3 10.5-.1 20.6.5 17.5 1 18.5.9 21.6-.9 1.7-1.1 4.7-2 6.6-2 2 0 5.1-.7 7.1-1.5l3.5-1.4-1.3-5.8c-.8-3.2-1.9-8.4-2.5-11.5-.9-4.7-1.7-6.1-4.3-7.7-1.8-1.1-4.8-4.5-6.7-7.6-2.5-3.9-5.4-6.8-9.7-9.6-9.3-6.1-13-7.1-20.8-5.9-7.1 1.1-8.7.6-19.2-6-3.1-2-6-3-8.5-3-3 0-6.3-1.6-15.2-7-9.3-5.7-12.1-7-15.5-7-2.8 0-6.5-1.2-11.4-3.7-5.7-2.9-9.8-4.2-19.7-5.8l-12.5-2.1-.3-3.8c-.3-3.2.2-4.4 2.8-7.1l3.2-3.3-1.1-13.2-1-13.2-8.4-8.7c-4.6-4.7-10.8-11.2-13.8-14.3-5.3-5.7-5.6-5.8-12.7-6.8-6.7-.9-8-1.5-14.2-6.4-3.8-2.9-9.4-8.1-12.5-11.5-3.9-4.2-6.5-6.1-8.1-6.1-5.7 0-9.8-2.8-13.4-9.2-4.4-7.7-6.1-8.3-21.9-7l-11.5.9-8.2-7.2c-4.7-4.2-9.4-7.6-11.2-8-1.7-.3-3.9-1.7-4.9-3.1-2.7-3.7-31.3-13.4-39.4-13.4-4.9 0-11.6-1.8-35.7-9.6-27.3-8.9-30-10-33.7-13.5-3.6-3.4-4.7-3.9-8.9-3.9-3.7 0-5.7-.6-8.1-2.5-1.8-1.3-7.7-4.1-13.1-6.1-5.5-2.1-13.9-5.8-18.9-8.4-7.4-3.9-10.3-4.9-16-5.4l-7-.6.3 125.3z"/><path d="M675 280.8c-3.4 1.6-4.1 4-1 3.4 1.8-.4 7.6-.4 10.5 0 3 .5 3-2.7 0-4-3.5-1.6-5.4-1.5-9.5.6zM764 366.5c-1.4.8-3.7 1.4-5.1 1.5-2.1 0-2.8.6-3.2 3-.6 2.7-1 3-4.5 3-3 0-4.5-.7-7.2-3.5l-3.4-3.5-9 .1c-13.5.1-13.5 0-7.6 8.9 2.8 4.1 5 8.5 5 9.8 0 1.2.7 3.3 1.5 4.6 1.3 2 4.2 24.3 3.3 25.2-.2.1-5.3.8-11.3 1.4-6.1.6-13.3 2.1-16.1 3.1-4.5 1.8-5.8 3-10.8 10.2-4.3 6.3-5.6 9.1-5.6 11.9 0 5.8-2.4 7.7-10.7 8.4-7 .7-7.3.8-9.9 4.5l-2.6 3.8-7.9-3.9c-4.3-2.2-8.4-4-9.1-4-.7 0-3.1 1.4-5.2 3-6.3 4.8-8.7 4.2-14.7-3.8-4.6-6.2-5-7-4.6-11.4.2-2.9 1.4-6.3 3.1-8.8 3.1-4.8 3.1-4.6.4-5.3-4-1.1-9.6 3.4-13.8 10.9l-3.8 6.8 2.8 4.5 2.8 4.5-5.6 4.2c-5.3 4-5.8 4.2-8.7 3-6.4-2.7-9.7-2.7-14.4-.1-3.7 2.2-5.6 2.5-13.3 2.5-8.6 0-9.2-.1-15.8-4-3.8-2.2-7.3-4-7.9-4-.6 0-3.6 1.1-6.7 2.5-4.1 1.8-6.1 2.2-7.4 1.5-2.4-1.3-10.1-1.3-13.6 0-2.4.9-3.2.7-6.6-2.1-6.2-4.9-10.2-2.8-11.9 6.6-.6 3.4-.3 4.5 2.3 8.3 3.5 5.1 7.7 7.2 19.3 9.7 6.6 1.5 8.8 2.5 13 6 2.8 2.3 6.9 5.2 9.3 6.4 2.4 1.2 5.1 3.5 6 5.2.9 1.6 2 2.9 2.3 2.9.3 0 2-1.1 3.9-2.5 2.8-2.1 4.5-2.5 9.9-2.5 8.2 0 11.3 1.7 17.1 9.6l4.3 5.9 14.6-.1c8-.1 16.8-.6 19.4-1.3 2.7-.6 5.3-.9 5.9-.5.5.3 3.2 1.2 5.9 1.9 4.7 1.3 5.3 1.2 10.7-1.3 3.1-1.4 7.8-3.8 10.3-5.4 3.1-1.9 6-2.8 8.8-2.8 3.6 0 4.4-.4 5.9-3.1 3.1-5.6 3.6-5.9 11.4-7.3 6.7-1.1 9-2.1 17.2-7.5 5.2-3.5 11.8-8.7 14.7-11.8 4.8-5 5-5.5 3.5-7.2-.9-1-1.6-2.7-1.6-3.9 0-2 .3-2.1 10.3-1.6 7.3.4 10.5.9 11.3 2 2.2 2.8 6.7 1.5 16.2-4.6l9.2-5.9v-4.4c0-4.2-.3-4.5-5.9-8.6-6.5-4.7-7.8-7.7-5.9-13.2l1.1-3.2 8.7.6 8.7.7 5.6-7.1c6.5-8.2 7.8-13.1 5.4-20.2-1-3.1-1.2-5.7-.6-9.3 1.3-8 1.1-9.3-1.5-10.5-1.7-.8-2.9-.8-4.4 0-2.1 1.1-3.2-.1-3.2-3.9 0-1.3-5.9-6.2-7.3-6-.1.1-1.3.7-2.7 1.5zM342.1 394.5c-2 3-2.3 4.1-1.5 6.3 1 2.8 2.4 3 8.2 1.7 2.1-.5 2.3-1 2-5.8-.3-5-.4-5.2-3.3-5.5-2.5-.2-3.4.4-5.4 3.3zM930.3 426.2c-1.2 1.3-2.6 3.9-3.1 5.8-.8 3.1-.4 4.5 2.9 11.2l3.9 7.7 3-1c2.7-1 3-1.5 3-5.4 0-6.5-2-14.5-4.3-17.7-2.5-3.4-2.8-3.4-5.4-.6zM418.8 435.7c-3.3 2.1-4.4 7.8-1.9 10.7 2.5 3 9.2 5.6 11.3 4.5 3.1-1.7 2.4-8.3-1.4-13-3.5-4.4-4.2-4.5-8-2.2zM469.1 454.3c-2 1-2.2 1.6-1.8 5.1.5 3.2 1.8 5.2 7.8 11.2l7.3 7.4 2.8-2.7c2.3-2.2 2.8-3.5 2.8-7.5 0-4.4-.3-4.9-3.7-7.1-10.7-6.7-12.7-7.5-15.2-6.4zM944 456c0 1.2-.7 3.4-1.5 5-1.7 3.3-2.3 14.2-1.1 20.8.7 3.6 1.5 4.7 4.9 6.9 2.3 1.4 7.1 5.3 10.7 8.5 3.6 3.3 8.3 6.9 10.5 8 2.8 1.4 4.5 3.1 5.7 5.9 1.7 4 1.7 4-.8 5.1-1.9.9-2.4 1.9-2.4 4.6 0 2.9 1 4.3 7.6 10.5 4.2 4 10.2 8.5 13.3 10.1 5.4 2.8 5.9 2.9 17 2.3 13-.6 14.9-1.6 15.8-8.3.9-6.6-1.2-11.3-9.2-20.9-5.8-6.9-9.6-10.2-16.5-14.7-6.1-3.9-10-7.3-12.5-10.7-2.4-3.4-4.5-5.2-6.6-5.6-3.3-.7-5.2-3.8-6.3-9.9-.8-4.4-5.6-12-8.1-13-.9-.3-3.2-.6-5.1-.6-1.9 0-6.1-1.4-9.4-3-5.8-2.9-6-2.9-6-1zM692 655.1c-1.4.5-3.3 2.2-4.2 3.7-1.7 2.8-1.6 2.9 1.3 4.6 2.3 1.4 2.9 2.4 2.9 5.1 0 2-.6 3.8-1.5 4.3-1.3.7-1.2 1.2 1 3.2 1.5 1.5 2.9 2 3.4 1.4.5-.5 1.3-6 1.6-12.2.8-12.1.8-12.1-4.5-10.1zM793 694.4c0 .2 2 1.4 4.5 2.6 3 1.4 5.3 3.5 6.8 6 1.7 3 3.1 4.1 6.5 5.1 3.9 1.1 4.8 1 8.8-.9 2.4-1.2 4.4-2.6 4.4-3.1 0-2-8.3-7.9-12.5-9-4.1-1-18.5-1.6-18.5-.7zM635.5 707.2c-6.8 3.6-9.2 9.2-6.1 14.7 1.4 2.5 9.1 8.1 11.1 8.1.8 0 1.5-2.3 1.9-5.9.5-4.6.2-7-1.4-11.5-2.5-6.4-2.8-6.8-5.5-5.4zM649 721.9c0 2.6.8 4.1 3.5 6.5l3.4 3.1-3.1 3.2c-4.9 5-3.2 5.7 10 4.2 10.7-1.2 11-1.2 13.8 1 2.5 2 2.9 2 3.7.5.6-1 .5-2.5-.1-3.9-.6-1.3-.8-3.3-.5-4.5.9-3.5-4.1-8-9-8-2.4 0-5.1-.8-7-2.2-2-1.5-5.3-2.5-8.9-2.8l-5.8-.6v3.5zM673.4 749.1c.3 1.7.6 3.6.6 4.1 0 .5 1.3 1.4 2.9 1.9 1.8.6 3.2 2 3.5 3.5.4 1.4 1.6 4.9 2.7 7.9 1.8 4.9 2.3 5.5 4.9 5.5 1.6 0 5.3.9 8.1 2 2.8 1.2 5.3 1.9 5.4 1.8 1.1-1.1 5.5-13.6 5.5-15.4 0-5.1-6.4-4.3-7.5.8-1.4 6.1-5.2 6.5-8.3.9-1.2-2.1-4.4-5.6-7.1-7.6-2.7-2.1-5.5-4.8-6.2-6.1-.7-1.3-2.1-2.4-3.2-2.4-1.7 0-1.9.5-1.3 3.1z"/></svg>
