<svg version="1.0" xmlns="http://www.w3.org/2000/svg" width="1365.333" height="1365.333" viewBox="0 0 1024 1024"><path d="M863.1 32.1c-2.7 3.3-3.8 3.9-5.7 3.5-1.6-.4-4.4.4-8.4 2.4-3.3 1.6-7.3 3-8.9 3-2.1 0-3.5.7-4.6 2.4-2.5 3.7-5.4 3.8-16.1.5-9.5-3-10.3-3.1-20.4-2.4-5.8.5-15 .9-20.5 1-5.5.1-12 .7-14.5 1.3-2.5.5-9.7 1.3-16 1.7-6.3.4-12.4 1.3-13.5 2-1.1.7-5.5 2.3-9.7 3.4-4.3 1.2-8.6 2.8-9.5 3.6-8.1 6.9-10.2 8.5-11.4 8.5-.8 0-3.8 1.6-6.6 3.5-2.9 1.9-5.6 3.5-6.1 3.5s-1.7.9-2.6 1.9c-1.6 1.8-1.6 2 0 2.9.9.5 1.4 1.4 1 2-.9 1.5-4.9.1-6.9-2.5-2.2-2.7-4.5-3-5.5-.6-1.8 4.1-4.7 8-7.8 10.3-1.8 1.4-3.8 3.5-4.5 4.7-.7 1.3-1.6 2.3-2.1 2.3-1.2 0-11 7.9-12.6 10.1-1.1 1.6-.9 2.2 2 4.8 1.8 1.7 4.3 3.1 5.6 3.1 1.6 0 2.2.6 2.2 2.1 0 1.2 1 2.9 2.3 3.9 1.3 1 3.2 3.5 4.2 5.7 1.1 2.1 2.7 4.3 3.5 5 1.3 1 1.3 1.6.1 4.8-.7 2-1.1 3.8-.9 3.9.1.2 1.7 1.1 3.4 1.9 2.8 1.4 3.2 2.2 3.7 6.9.4 4.1.1 6-1.4 8.4-2.7 4.4-2.4 6.5 1.2 9.5l3.2 2.6-4.1 4.5c-3.5 3.8-4.2 5.2-4.2 8.7 0 3.9-.3 4.3-3.8 5.9-6.2 2.8-11.1 7.2-13.2 11.8-1.2 2.9-2.5 4.4-3.7 4.4-3.2 0-6.2 2.8-6.5 6.3-.2 2.6-.8 3.3-2.9 3.5-2.1.2-2.8 1-3.3 3.4-.7 3.5 2.5 9.2 7.2 12.9 2.4 1.8 2.4 2 .7 4.5-1.2 1.8-1.5 3.6-1 6.4.5 3 .2 4.5-1.7 7.3-3.7 5.8-17.2 10.9-27.9 10.6-2.5-.1-5.9.5-7.5 1.4-2.6 1.4-3.2 1.3-5.9-.1-1.6-.8-6.2-1.8-10.2-2.2-3.9-.4-9-1.6-11.3-2.8-3.7-1.8-4.6-1.9-7.8-.8-4.3 1.5-6 5.8-4.2 11 1.3 4 8.5 11 12.5 12.3 1.9.6 3.1 1.7 3.3 3.1.2 1.2.8 2.2 1.3 2.2.6 0 .9 1.8.8 4-.3 3.3.2 4.5 2.8 7.2 5.1 5.3 6.1 12.8 1.8 12.8-.6 0-2.9 1.3-5.1 3-2.1 1.6-4.4 3-5 3-.6 0-2.1 1.2-3.5 2.6-3.8 4.1-5.7 4.7-16.8 5-9.3.3-10.9.6-14.4 3-3.7 2.4-3.9 2.8-3.4 6.7.2 2.3.8 5.2 1.2 6.3.5 1.7.2 2.3-1.7 2.8-1.3.3-3.1 1.7-4.1 3.1-1.7 2.3-1.7 2.6-.1 5 1.4 2.1 1.5 3.5.8 7.3-.8 4.2-1.3 4.8-4.4 5.8-2.2.7-4.3 2.5-5.8 4.9-2.1 3.3-2.2 4.1-1.1 6.4.7 1.4 1.6 8.2 2 15.1.4 6.9 1 14.1 1.4 16 .6 3.3.4 3.7-4.3 7.3-3.4 2.6-5.4 5.1-6.6 8.1-1.5 4-2.3 4.7-8.6 7.5-3.9 1.7-8.1 3.1-9.4 3.1-3.5 0-7.3-3.5-8-7.5-.6-2.8-1.1-3.5-3-3.5-1.3 0-3.5-.9-5-2.1l-2.6-2-3.2 2.4c-3 2.2-3.9 2.3-9.6 1.8-4.4-.5-6.8-1.3-8.3-2.8l-2.1-2.1-7.4 7.5c-6.5 6.7-7.7 7.5-10 6.9-2.3-.6-3.5 0-7.8 4.3-5.1 5-5.2 5.1-9 4-2.1-.6-4-.9-4.2-.6-.2.2.2 2.6.8 5.4l1.2 5 3.3-1.4c4.5-1.8 8.3-.8 8.3 2.3 0 1.7-.6 2.4-1.9 2.4-1 0-2.9.8-4.2 1.9-5.1 3.9-15.2 6.3-26.1 6.1-14.7-.3-16.1-.6-15.4-3.6.7-2.4.6-2.5-4.6-1.8-4 .5-6.1 1.4-8.8 3.9-1.9 1.8-4.3 3.5-5.3 3.8-1 .4-2.6 2.7-3.7 5.3-3.6 8.2-5.5 10.1-11.6 11.5-6.5 1.5-6 .6-10.5 18.4l-3.3 12.5 2.3 2.4c2.1 2.2 2.2 3 1.6 8.8-.4 3.5-1.8 9.4-3.1 13.2-3.2 9.2-3.1 10.5 1.3 14.3l3.8 3.2-3 2.9c-2.6 2.6-8.7 4.8-42.3 15.1-30.7 9.5-39.7 11.9-41.2 11.1-2.5-1.4-29.6-1.3-36.1.1-2.9.6-7.3 2.2-9.9 3.5-2.7 1.3-5.3 2.4-5.8 2.4-.6 0-1.4 1.6-1.8 3.5-.7 3.9-1.1 4.1-3.9 2.1-1.1-.7-8.1-2.8-15.5-4.5l-13.5-3.2-37 4.2-37 4.1-48.8-16.6C22.8 559.5.6 552 .3 552c-1.6 0 12.7 18.2 21.1 26.7 9.5 9.8 10 10.5 9.7 14.1-.1 2.6.3 4.3 1.4 5.2.9.7 1.3 2.1 1 3.1-.4 1.3.2 2.2 2.4 3.3 2.3 1.2 3.1 2.5 3.6 5.7.9 5.2 15.2 26.7 20.9 31.2 5.6 4.5 15.2 8.6 24.9 10.5 7.9 1.7 8.3 1.9 15.1 8.6l7 6.9 6-1.1c3.3-.6 6.2-1 6.4-.8.2.3-.1 4.2-.7 8.8-.8 6.7-.7 8.7.4 10.5.9 1.3 2 8.4 2.9 19.1 1.2 14.7 1.2 17.8-.1 23.2-.8 3.5-1.2 6.9-.9 7.5.2.7-.2 2.1-.9 3.2-2.3 2.9-1.9 5.3.9 5.3 1.2 0 3.7.5 5.4 1.1 2.3.8 4.1.7 7.7-.5 7.1-2.5 12.4-2.1 15.7 1.1 2.6 2.5 2.7 2.8 1.1 4.5-2 2.3-3.1 13.4-1.4 15.1 1.6 1.6 1.4 2.4-1.2 3.1-1.9.4-2.4 1.6-3.4 8.1-.7 4.2-1.5 8-1.8 8.6-.9 1.4-5.7 1.1-10.6-.7-5.3-1.9-12.7-1.3-17.2 1.4-1.8 1.1-6.4 2.5-10.4 3.1-3.9.7-8 1.9-9 2.6-1 .8-2.8 1.5-4.1 1.5-1.2 0-2.5.7-2.7 1.5-.3.8-.8 2.3-1.1 3.2-.4 1-.6 3.1-.5 4.7.3 3.1.6 3-6.6 1-1.7-.5-2.2-.1-2.8 2.4-.4 2.2-1.3 3.1-3.3 3.5-1.5.3-5.5 1.5-8.8 2.7l-6.2 2.2-1.7 9.2c-.9 5-1.9 11.6-2.2 14.6-.6 6.1-1.7 8-4.4 8-1.4 0-1.9.7-1.9 2.8 0 1.5.5 3.3 1.2 4 .8.8.8 1.5.1 2.4-.6.7-1.6 6.8-2.2 13.6-.9 10.1-1.6 13-3.6 16.2l-2.4 3.9 2.7.5c1.5.3 4.4.8 6.4 1.2 4.2.7 4.5 1.4 2.2 4.9-2.3 3.5-1.2 5.5 3 5.5 2.5 0 3.6-.5 4.1-1.9.6-1.9 4.8-3.1 11.8-3.1 3.9 0 4.5-.8 2.5-2.8-2-2 .7-3.5 7.3-4l6.1-.5-.4 4.2c-.3 3.9-.2 4.1 2.4 4.1 2.9 0 4.5-1.4 2.8-2.5-2-1.2-.9-2.7 3-4.2 2.2-.9 3.7-1.9 3.5-2.3-1.4-2.2 17.2-2.6 27.5-.6 5.4 1 7.1 1 10-.2 2.3-.9 5-1.2 8-.8 2.5.4 6.5.8 9 1 2.5.1 5.5.8 6.8 1.5 1.3.7 3 1 3.8.7 1.2-.4 1.1-1.1-.6-3.8-1.1-1.8-2-3.6-2-4 0-3.1 19.5-6.3 22.6-3.7 1 .8 5.3 1.7 10.3 2 11.2.8 21.2 2.7 23.1 4.3.8.8 3 1.7 4.8 2.1 2.5.5 3.2.3 3.2-.9 0-.9.8-1.6 1.8-1.6 2.6 0 6.2 2.9 6.2 5 0 2.5 1.5 3.3 4.7 2.5 2.3-.6 2.4-.7.9-2.4-2-2.2-2-3.5 0-5.6 1.4-1.4 3.8-1.6 15.6-1.4 13.9.2 14 .2 16.4-2.4 3.2-3.5 10.4-4 22.7-1.6 5.3 1.1 6.2 1 12-1.4 5.7-2.5 10.3-3.3 30.7-5.6 7.3-.9 7.6-.8 11.1 2 2.9 2.3 3.8 2.6 4.2 1.4.4-.8.2-1.7-.4-2.1-.5-.3-.7-1.4-.4-2.5.5-1.5.1-1.9-1.7-1.9-1.3 0-3.4-.9-4.8-2-3.2-2.5-5.5-2.5-7.2-.1-1.3 1.9-9.5 4.2-8.6 2.5 2.5-5.6 3.4-6.5 7.2-7.5 6-1.6 11.1-.4 15.2 3.6 1.8 1.9 3.4 3.8 3.4 4.3s.9 1.7 1.9 2.6c1.6 1.5 1.8 2.3 1 4.4-.9 2.3-.5 3.1 4.2 7.8 5.6 5.7 5.5 5.3 3 16.4-.5 2.5-1 6.4-1.1 8.7 0 2.3-.4 4.5-1 4.8-2.6 1.6-.4 2.3 6.6 2.1 4.9-.1 8.2.3 9.4 1.1 1.2.9 2 .9 2.2.2.2-.6 1.5-.1 3.1 1.1 1.7 1.4 3.4 1.9 4.7 1.5 3.5-1.1 5.9.4 6.6 4.2.5 2.7.3 3.8-1 4.5-2.4 1.3-1.9 2.8.9 2.8 2.7 0 3.3 1.8 1.3 3.8-.9.9-.9 1.2.1 1.2.8 0 1.1.6.7 1.6-.7 1.7 1.5 6.4 3.9 8.4 1.2 1 1.4 2.4.9 5.9-.7 5.4 2.1 14.8 6.2 20.8 1.4 2.1 2.8 5 3.1 6.5.7 3.3 1.6 4.2 6.6 5.8 2.5.8 4.2 2.1 4.7 3.6 1.3 3.3 3.5 4 6.5 2 1.9-1.2 3-1.4 4.4-.6 2.8 1.4 2.9 1.3 3.3-2.1l.3-3.2 4.3 3.7c6.6 5.5 7.8 4.8 7.2-3.9-.2-3.7 1.1-2.4 2.9 2.8 1.1 3.3 1 4.1-.3 6.3-1.6 2.3-1.6 2.5.9 3.4 1.5.6 3.1 1 3.6 1 1.6 0 4.9-6.4 4.9-9.6 0-3 2.5-6.4 4.7-6.4.6 0 1.3-1 1.6-2.1.5-1.8 1.1-2.1 4-1.5 4 .7 22.7 1 23.4.3.2-.3.7-5.5 1-11.6.6-10.7 1.6-14 3.4-11 .4.8 1.4 2.3 2.3 3.4 1.4 2 1.5 1.9 2.5-.8 1.2-3.1 1.9-3.3 3.6-1 1 1.3 1.8 1.5 4.1.6 1.6-.6 9.4-1.1 17.3-1.2 7.9-.1 15.1-.6 16-1 1.2-.7 2.7.2 6.3 3.5l4.7 4.4h9.3c5.1 0 9.9-.4 10.6-.8.6-.5 2.3-2.3 3.7-4.2 2.2-3 4.1-3.9 15.7-7.7 7.3-2.3 13.5-4.3 13.8-4.3.3 0 .5 2.3.6 5 0 2.8.6 5.6 1.3 6.3.7.7 4.8 1.4 9.8 1.6 8.4.3 8.6.3 8-1.8-.4-1.7.3-2.7 3.1-4.5 2-1.4 5.1-2.7 6.9-3.1 5.5-1.1 7-5.5 1.9-5.5-3.2 0-4.9-4.1-4-9.7.4-2.8 1.3-4.7 2.6-5.4 2.7-1.4 1.9-4.3-4.2-14.9-2.7-4.7-5.5-11.3-6.3-14.7-.9-3.8-2.7-7.9-5-11.1-2.1-2.7-3.7-5.8-3.7-6.9 0-1.1-1.1-3-2.5-4.3-2.4-2.2-2.5-2.9-2.5-13.7 0-11.1 0-11.3-2.4-11.9-1.3-.3-3.3-.1-4.4.5-1.2.6-5.5 1.1-9.7 1.1-7 0-7.6-.2-8.4-2.3-.5-1.3-2.7-4.9-4.8-7.9-5-7.1-7.2-15.6-5.4-20.1 4.8-11.5 5.3-14.1 4.7-22.4-.7-9.6-1.1-10.7-4-12.7-1.8-1.1-3.7-1.2-8.7-.6-6.2.8-6.7.6-16.6-3.7-5.6-2.5-10.8-5.2-11.7-6.1-1-1.1-1.5-4.2-1.7-9.2-.1-6.8.2-8.2 3.5-15.2 3.7-7.8 7.7-12.8 23.3-28.8 5.9-6.2 7.9-9.1 10.8-15.8 1.9-4.6 3.5-9 3.5-9.7 0-.7 1.5-2.3 3.4-3.5 1.9-1.1 4.3-3.6 5.4-5.5 2.4-3.9 6.4-5.4 13-4.7 3.4.3 4.8 1.1 7.1 3.9 1.6 2 3.4 5.4 4 7.7 1.5 5.5 5.1 9.6 9.2 10.5 2.6.6 4.5.2 8.4-1.7 15.4-7.6 19.5-8.9 32.1-9.6 9.7-.5 13.4-1.2 19.3-3.4l7.4-2.9 1.8-7.3c1.8-7.1 2.2-7.7 10.2-15.5l8.2-8 3.4-11.3c3-9.8 3.9-11.7 7.3-14.7 2.1-1.9 4.5-3.5 5.4-3.5.9 0 3.7-1.5 6.3-3.4 2.5-1.9 9-5.6 14.4-8.2 9.2-4.6 9.8-5.1 10.8-8.9.6-2.2 2.6-5.6 4.4-7.5 1.9-1.9 6.1-8.7 9.4-15.1 5.5-10.4 6.4-13.1 9-25.8 1.6-7.8 3-14.3 3.2-14.5.2-.2 5.9-2.2 12.5-4.5 11.5-4 12.5-4.6 18.3-10.5 5.8-5.8 6.1-6.4 5.1-9-.5-1.5-2.1-4.2-3.4-5.9l-2.5-3.2 5.2-4.6c2.9-2.6 6.2-4.9 7.5-5.3 1.3-.5 2.2-1.6 2.3-2.9 0-1.4 1.8-3.5 4.9-6 2.9-2.1 6-5.7 7.4-8.5 2.3-4.4 6.5-9.2 14.8-16.9 2.7-2.5 3.7-2.9 5.2-2.1 2.8 1.6 5.3-1.3 3.9-4.5-.9-1.9-1.7-2.3-4.2-1.9-4.7.7-5-2.7-1.1-14.3 1.9-5.6 3-10.8 2.7-12.3-.2-1.5-2.1-6.5-4.1-11.2l-3.6-8.5 6.7-6.2c3.8-3.5 7.6-6.3 8.6-6.3s3.7-2.1 6-4.6c4-4.3 4.4-4.5 6.9-3.4 2.2 1.1 3.4 1 6.8-.4 2.2-.9 5.1-1.6 6.4-1.6 1.3 0 2.6-.7 2.9-1.5.4-.8 2.4-2.3 4.6-3.4 5.9-3.1 6.4-6.7 1.6-13.7-3.3-4.7-4.2-5.4-7.1-5.4-2.6 0-3.7-.6-5.1-3-1.9-3.3-6.6-4.2-7.7-1.4-.5 1.4-.8 1.4-2.8 0-1.5-1.1-4.5-1.6-8.8-1.6h-6.6l-1.6-4.9c-1.1-3.5-1.3-5.2-.5-6 .7-.7.7-1.8-.2-3.5-1.1-2-1.1-2.8.3-4.7.9-1.3 1.6-2.9 1.6-3.6 0-2.3-3-1.4-4.2 1.2-.9 1.9-1.9 2.5-4.5 2.5-2.9 0-3.6-.6-6.3-5.4-2.4-4.2-3.7-5.5-6.2-6l-3.1-.6 2.1-2.3 2.2-2.4-2.1-1.9c-1.2-1-4-2.3-6.3-2.9-3.2-.8-4.5-1.8-6-4.5-1-1.9-3.2-4.2-4.9-5-4.3-2.1-4.3-3.2.3-5.8 9.4-5.4 9.1-17.6-.7-21.7-2.7-1.1-3.3-2-3.8-5.9-.9-5.9 1.8-10.3 9.3-15.2 5.9-3.8 6.6-6.3 3.1-10.8-2-2.6-2.4-2.7-8.9-2-4.3.4-7.5.2-8.8-.5L819 248l3.2-6.4 3.1-6.3-3.2-4.6c-2.9-4.3-3.3-4.5-6.6-4s-3.5.4-3.5-2.1c0-1.9 1-3.3 4-5.2 3.4-2.3 4-3.2 4-6.1 0-2.4 1-4.8 3.1-7.5 2.9-3.6 3.5-3.9 7.3-3.6 3.5.2 5.1-.4 10.3-4 5.6-3.8 6.8-4.2 12.3-4.2 5.5 0 6.7.4 12.3 4.2 5.6 3.9 7 4.4 14.7 5.2 4.7.4 11.5.9 15.1 1 5.7.1 7 .5 10.6 3.4 4.5 3.6 12.1 5.1 25.1 5.2 8 0 14.6-2.5 19.1-7.4 2.1-2.2 3.3-2.6 8.3-2.6 4.4 0 7.1-.7 10.6-2.5 2.6-1.4 5.4-2.5 6.3-2.5.9 0 2.8-.9 4.2-2l2.5-2 3.6 2.1c2.1 1.2 4.8 1.9 6.8 1.7 2.9-.3 3.4-.8 5.6-6.6 1.9-4.9 2.8-6.2 4.5-6.2 1.2 0 3.1-.7 4.2-1.6 1.4-1 3.1-1.3 5.8-.9 3.5.6 3.7.5 3.7-2 0-1.4.4-2.4.9-2.1.5.3 2.3.1 4-.5 2.6-.9 3-1.5 2.5-3.3-1-3.3-3.5-7.9-5.4-10.1-.9-1.1-2-3.1-2.4-4.5-.3-1.4-3.7-6.7-7.6-11.8-5.1-6.8-7.2-10.5-7.6-13.5-.5-3.3-1.8-5.3-5.5-8.9-2.7-2.6-5.5-6.4-6.4-8.3-1.4-3.5-1.6-3.6-5.2-2.9-2.1.4-5.1 1.3-6.6 2.1-1.7.8-4.9 1.3-8 1.1-5-.3-5.2-.4-6-4-.9-3.9-7-9.8-10-9.8-3.2 0-3.6-5.9-.6-8.6 1.8-1.6 1.9-2.5 1.4-8.4-1.3-12.5-3.4-20.1-6.4-23.5-1.6-1.9-3.4-4.9-4-6.8-1.1-3.3-1.3-3.4-9.2-4.5l-8.1-1.2-3.7 3-3.6 3-1.1-6.7c-1-5.7-1.7-7.1-4.7-10-2-1.8-4.7-3.3-6.1-3.3-1.3 0-2.9-.7-3.6-1.5-1.6-1.9-8.9-2-11.6-.1-1.1.8-3.6 1.7-5.5 2.1-3.3.6-3.6.4-5.4-2.9-2-3.7-3-4.2-5.5-2.6-1 .6-2.4.2-4.7-1.6-1.7-1.3-3.3-2.4-3.5-2.4-.2 0-1.8 1.9-3.7 4.1z"/></svg>
