<svg version="1.0" xmlns="http://www.w3.org/2000/svg" width="1365.333" height="1365.333" viewBox="0 0 1024 1024"><path d="M917.7 211.4c-1 1.5-2.9 2.5-5.4 2.9-5.3.9-8 3.1-8.7 7.1-.4 1.9-1.3 4.8-2.1 6.3s-1.5 3.1-1.5 3.5c0 .5 2.5.8 5.6.8 3.3 0 5.3.4 4.9 1-1 1.5-7.5 2.3-10.9 1.3-2.1-.7-3.8-.6-5.1.1-4.5 2.4-16.5 10.4-23.5 15.7-4.1 3.1-8.6 6.2-10 6.9-1.4.7-4.7 3.7-7.3 6.6-2.7 3-5.7 5.4-6.8 5.4-1.2 0-1.9.7-1.9 1.9 0 3.2-5.2 13.4-8.7 17.1-1.8 1.9-3.6 4.3-3.9 5.3-.7 2.2 2.2 5.7 4.7 5.7 1 0 3.9 1 6.4 2.2 3.5 1.7 4.5 2.7 4.5 4.6 0 1.5-.5 2.2-1.2 1.9-.7-.3-3.2.6-5.4 1.9-3.5 2-4.4 2.1-5.9 1-1.3-.9-1.5-1.5-.7-2 1.9-1.1 1.4-4.3-.7-4.9-2.5-.6-6.1 1.9-6.1 4.1 0 .9.7 2.6 1.5 3.6 2.4 3.2 1.8 7.4-1.3 10.4-1.6 1.5-3.7 4-4.8 5.6-1 1.6-2.7 4-3.7 5.5-1.2 1.9-1.6 3.6-1.1 6.3.5 3.5.4 3.8-2.3 4.3-1.5.4-3.8 1.1-5.1 1.6-3.4 1.3-4 1.1-4.4-1.3-.5-3.3-6.2-4.9-11.3-3.1-8.3 2.9-11 5.5-14.5 14.5-1.8 4.6-4.2 9.3-5.3 10.5-2.1 2.4-4.7 3.1-4.7 1.3 0-1.6-5.8-1.2-9.2.6-6.5 3.3-10.7 3.7-7.7.7 1.5-1.5.3-3.3-2.1-3.3-1 0-4.7 1.9-8.2 4.3-3.5 2.4-10 6-14.6 8.2-4.5 2.1-8.7 4.4-9.3 5.2-.6.7-2.2 1.3-3.4 1.3-1.3 0-2.6.7-2.9 1.6-.9 2.2-.8 2.4.9 2.4 2.1 0 1.9 1.4-.9 4.7-1.8 2.1-2.1 3.3-1.5 5.1.7 1.9 1.2 2.1 2.8 1.2 2.5-1.3 3.1-1.3 3.1.2 0 .7 1.1 2.6 2.4 4.2l2.3 3-2.7 1.5c-10.1 5.9-13.7 8.7-15.2 12.3-1.4 3.2-2.1 3.8-4.7 3.8-1.6 0-3.3-.5-3.6-1-.8-1.3-4.5-1.3-4.5 0 0 .5.6 2.7 1.4 4.7.8 2.1 1.7 5 2 6.5.3 1.4.9 3.3 1.2 4.2.5 1.3-.1 1.6-3.5 1.6s-4.9-.7-8.5-4c-2.4-2.2-5.1-4-6.1-4-1.7 0-1.7-1.1 0-5.2.5-1.3.1-1.9-1.8-2.3-1.3-.4-3.9-2.6-5.7-5.1-4.6-6-8.7-7.3-14.2-4.4-2.8 1.5-5.3 2-7.4 1.7-3.8-.6-5 0-6.4 3.7-.8 2.3-.7 3.2.5 4.6 4.3 4.8-2.4 10-13 10-4.8 0-5.4-.2-5.7-2.3-.2-1.3-.9-2.1-1.8-1.8-.8.1-3.8.6-6.6 1s-6.4 1.7-8.1 2.9c-3.6 2.6-5.9 2.8-7.1.7-.7-1.4-1.1-1.3-2.7.5-2.1 2.4-4.8 2.6-6.5.5-1.7-2.1-2.3-1.9-4.3 1.4-2.2 3.8-2.1 4.4.3 3.8 3-.8 2.5 1.7-1.1 4.7-1.7 1.4-5.1 3.8-7.5 5.2-2.6 1.5-4.7 3.6-5 4.9-.6 2.4-3.4 4.3-3.4 2.3 0-1.8 5.2-12.8 6.1-12.8 1.8 0 4.7-4.4 5.9-8.8.7-2.6 2.3-5.8 3.5-7.2 4.3-4.7 8-13.2 7.9-18 0-3.7-.9-5.7-4.5-10.8-3.4-4.9-4.8-6.2-6.3-5.8-1.1.3-2.4-.1-3-.9-1.6-2.2-11.9 1.8-13.5 5.1-1 2.3-3.1 3.1-4.4 1.8-.3-.4.1-2 .9-3.5 1.3-2.6 1.3-3-.1-3.5-.8-.4-3.7-.3-6.3.1l-4.7.7 2.8-2.9c1.5-1.6 2.7-3.2 2.7-3.6 0-1-6.7-2.6-8.8-2.1-3.1.9-7.2 8.6-7.2 13.6 0 2.4.5 4.9 1.2 5.6.9.9.1 1.2-3.6 1.2-4.6 0-4.8.1-4.2 2.5.5 2.1 0 2.9-3.3 5.1-4.9 3.2-6.6 2.9-4.6-.9 1.7-3.2.7-3.4-4.4-.8-2 1.1-4.9 2.2-6.4 2.6-2.1.4-2.7 1-2.2 2.3.4 1.4-.6 2.3-4.8 4-2.9 1.2-5.6 2.2-6 2.2-.4 0-3.3 2-6.6 4.5-3.2 2.5-6.5 4.5-7.2 4.5-.7 0-2 .7-3 1.6-1.4 1.2-1.6 2.2-.9 4 .5 1.3.7 3.1.4 3.9-.4.9.2 2.5 1.1 3.5 1 1.1 1.6 2.1 1.4 2.3-.2.2-2.6 1.3-5.4 2.5-5.5 2.5-8.5 2.8-16.1 1.7-4.9-.7-5.2-.6-6 1.6-.4 1.3-.8 3.5-.9 4.9-.1 1.4-.6 4.1-1 6.1-.6 3.1-.3 4.1 2.2 7 1.5 1.9 3.8 4.8 4.9 6.4l2.1 3.1-3.4-.4c-2.7-.3-4-1.3-5.8-4.2-1.3-2.1-3.8-4.8-5.5-6-2.9-2.1-3.5-2.2-7.3-.9-5.5 1.7-5.4 1.5-2.6 3.8l2.4 2-2.2.1c-1.3 0-2.3-.5-2.3-1.1 0-.6-1.2-.9-2.7-.7-2 .2-2.9.9-3.1 2.5-.4 2.6 2.5 7.3 4.4 7.3 1.6 0 5.4 5.7 5.4 8 0 .8-1.2-.2-2.6-2.2-1.8-2.5-3.6-3.8-5.9-4.2-1.8-.4-3.8-1.3-4.5-2.1-1.4-1.6-.6-6.8 1.6-10.2 2.1-3.3 1.8-14.2-.4-17.1-1.6-2-2-2.1-3-.9-1 1.1-.9 1.7.3 2.7 1.7 1.4 2 6.6.6 10.3-.6 1.6-2.1 2.8-3.9 3.2-1.6.3-4 1.7-5.2 3-2.2 2.3-2.3 2.8-1.2 7.6 1.7 7.3 1.5 11.3-.7 13.3-1 .9-2.6 3.5-3.7 5.7-1.4 3.3-1.6 4.4-.6 6 .9 1.5 1 2.5.1 4-.9 1.7-.8 2.5.4 3.6 1.2 1.3 2.1 1.3 5.1.3 3.1-1 3.9-.9 6.3.8 4.6 3.3 6 5.5 6.6 10.4.5 3.6.3 4.7-.9 5.2-2.3.9-2.4.8-2.4-2.4 0-1.6-.8-4.5-1.7-6.5-1.5-3.2-2.1-3.5-5.8-3.5-5.7 0-7.8 2.4-8.3 10-.4 5-.7 5.9-2.6 6.4-1.6.4-2.7 1.9-3.7 5.3-1.2 3.9-2.2 5-5.9 7-2.5 1.3-4.7 2.8-4.8 3.3-.5 1.5-3.9 1.2-7.2-.5-3.4-1.8-3.9-3.5-1.1-3.5 3.2 0 5.1-1.1 5.1-3.1 0-1 1.9-3.1 4.4-4.8 5.4-3.7 8.6-7.6 8.6-10.4 0-1.1 1-3.2 2.3-4.5l2.2-2.4-2.2-1.8c-2.8-2.3-2.9-5.4-.3-12 1.1-2.8 2-6.2 2-7.6 0-1.4.9-4.2 2-6.4 2.2-4.3 2.6-10 .9-13.1-.9-1.7-.3-3.2 3-8.9 5.1-8.6 5.3-12 .9-15.2-1.8-1.3-4.8-2.8-6.6-3.5l-3.4-1.1-3.8 6.1c-5.9 9.3-7.6 11.3-12.7 14.3-2.7 1.5-5.1 3.2-5.5 3.8-1.3 1.8-.9 3.4.9 3.8 1.5.3 1.5.4 0 1.9-.9.9-1.9 3-2.3 4.5-.4 1.6-1.8 4-3.2 5.3l-2.6 2.3 3.5 2.9c2.7 2.2 3.3 3.3 3.1 5.8-.2 1.7.5 4.4 1.5 6.1l1.8 3.1-3.3 3c-3.2 2.9-3.5 2.9-4.8 1.2-.7-1-1.4-3.1-1.4-4.7 0-1.8-1-4.1-2.6-5.7-2.8-3-3.4-3.8-7.7-11.8-2-3.8-3.8-5.7-6.5-6.9-5.1-2.3-9.2-5.7-9.2-7.5 0-.9-.5-1.9-1.1-2.3-.6-.3-.9-1.4-.6-2.4.3-1.1-.6-2.9-2.3-4.5l-2.8-2.7-2.1 2.1c-2.7 2.7-2.6 4.7.5 9.2 2.1 3.1 2.5 4.6 2.2 9.5l-.3 5.9-3.7.3c-2.7.2-3.9.9-4.4 2.4-.4 1.4-.9 1.7-1.6 1-.8-.8-.6-1.9.6-3.6 2.5-3.9 2.1-5.6-1.3-5.6-1.6 0-4.1.4-5.4.9-1.9.7-3.5.4-7.3-1.5-3.6-1.8-5.8-2.3-8.1-1.9-1.8.3-4.1.1-5.2-.5-1.8-.9-1.8-1.2-.5-3.9.8-1.6 2.4-3.2 3.7-3.5 5.4-1.5-1.3-2.2-16.6-1.9-8.9.2-17.7.4-19.6.3-2.6 0-4.3.8-6.7 3.1l-3.2 3.1-3.9-1.8c-3.6-1.8-3.8-2.1-3.5-6.4.4-7.3.5-7.4 7.2-6.7l6 .7v-4.6c0-5.4-1.6-8.7-6.4-13.3l-3.6-3.5v4.5c0 5.3-1.8 8.3-6.8 10.8-3.5 1.8-3.7 2.2-3.7 6.7 0 4.4-.3 5-3.5 7.1-1.9 1.2-4.1 2.7-4.8 3.3-.9.8-1.2.4-1.2-1.9 0-1.7-1-4.5-2.3-6.4-2.1-3.2-2.4-3.3-5.2-2.1-1.7.7-6.4 1.3-10.6 1.4h-7.6l-2.6 5.3c-1.5 2.9-2.7 5.8-2.7 6.5 0 1.9-3.9-.8-4.6-3.3-.4-1.1-1.2-2.7-1.9-3.5-.7-.8-1.5-3.2-1.8-5.3-.7-4.6-2.2-6.7-4.8-6.7-2.7 0-4.2 3.7-3.6 9 .6 5.3-.2 7.4-2.9 6.8-5.7-1.1-7.6-15.5-2.9-22.4 1.3-2 2.7-4.3 3-5.2.3-.9 2-2.6 3.8-3.7 3.3-2.1 4.7-5.9 2.9-7.7-.7-.7-.5-2.2.4-4.4.8-1.8 1.4-4.6 1.4-6.1s.4-3.3.8-4c.4-.6.7.8.7 3 .1 2.9 1.4 6.9 4.3 12.6 2.3 4.6 4.2 9.2 4.2 10.2 0 2.8 6.3 8.5 11.6 10.5 4.5 1.7 5 1.7 11.3.1 7.3-2 8.1-2.7 8.1-7.7 0-2 .7-4.5 1.5-5.7 1.4-2 1.4-2.8-.5-8.2-1.1-3.3-2-7.8-2-9.9 0-2.2-.7-5.5-1.4-7.4-.8-1.9-1.2-4.5-.9-5.7.4-1.5-.1-2.8-1.6-4.2-1.1-1.1-2.1-2.6-2.1-3.5 0-.8-1.1-1.9-2.4-2.5-1.5-.7-2.6-2.3-3-4.1-.9-4.8-.8-5.1 1.9-3.4 2.4 1.6 2.5 1.6 2.5-.9 0-3.9-1.7-6.4-3.8-5.8-1 .2-2.4-.3-3.1-1.1-.8-.9-2.9-1.6-5.1-1.6-2 0-5.1-.5-6.9-1.1-4.2-1.5-7.3-.6-11 3.2-2.2 2.1-3.1 4-3.1 6.2 0 1.8-.5 4.9-1.1 6.9-.9 3.6-1.2 3.8-4.9 3.8-4.8 0-10.5 4.5-11.5 9-.7 3.2-4.1 8-5.6 8-1.7 0-10.4 4.2-11.1 5.4-.4.6-.3 1.5.2 2 1.6 1.6 1.1 3.4-1.1 4.1-1.6.5-1.9 1.4-1.7 3.8.3 3.1.2 3.2-4.2 3.7l-4.5.5-1.7 6.9c-.9 3.8-2.3 7.5-3.1 8.3-1.7 1.7-15.8 3.2-30.1 3.3-9.8 0-9.9 0-8.1 2 1.7 1.9 1.7 2.1.2 3.8-2.2 2.4-2.1 3.4.4 6.6 1.2 1.5 1.8 3 1.4 3.4-.4.4-1.2-.1-1.9-1.1-.7-.9-1.6-1.7-2-1.7-.3 0-2.7-1-5.1-2.1-4.2-2-4.7-2-6.4-.5-.9.9-2.8 1.6-4 1.6-2.3 0-7.4 3.4-12.2 8.2-1.6 1.6-3.8 2.8-5.3 2.8-1.9 0-2.9.7-3.7 2.7-2.7 6.6-3.5 8-7 12.3-3 3.7-3.5 5.1-3.1 7.9.3 2.1 1.1 3.5 2.3 3.8 1.7.5 1.7.8.5 3.2-1.4 2.6-1.3 2.7 1.5 4 2.5 1.1 2.9 1.8 2.9 5.1 0 3-.5 4-2 4.5-1.1.3-2 1.5-2 2.5s-1 2-2.3 2.4c-2.3.5-4.7 4.2-4.7 7.1 0 .8-.7 3.5-1.6 6.1-1.6 4.6-1.5 4.8.6 6.4 1.5 1.2 1.9 1.9 1.1 2.4-.6.4-1.1 1.6-1.1 2.8 0 1.4-.5 1.8-1.6 1.4-.9-.3-2.7-.6-4-.6-1.3 0-2.4-.6-2.4-1.3 0-.7-.6-2.2-1.4-3.2-1.2-1.6-1.6-1.7-3-.6-.9.7-1.6 2-1.6 2.8 0 .8-1.3 2.8-3 4.3-2.1 2-3 3.7-3 6 0 3 .2 3.2 2.9 2.7 2.4-.5 3.5 0 6.5 2.9 5.3 5.2 5.7 7.9 1.4 11.9-4.8 4.3-5.3 6.5-2.8 10.8l2.1 3.6-2.5 4.4c-2.6 4.4-2.6 4.4-.6 6.2 1.1 1 2 2.8 2 4 0 2.7 1.5 4.1 5.3 5 2.4.6 2.7 1.2 2.7 5 0 3.4.4 4.4 2 4.8 1.2.3 2 1.4 2 2.5s1 3.3 2.3 4.9c2.5 3 5.2 10.7 4.3 12.2-.3.5-2.1 1.2-4 1.5-3.8.7-5.2 2-6.1 5.7-.4 1.5-2.3 3.7-4.6 5.2l-3.9 2.6-2.2-3c-2.4-3.2-5.3-3.7-10.7-1.8-4.2 1.5-3.9 3.9.9 6.9 2.1 1.3 3.8 2.5 3.7 2.6-.7.7-13.5-3-14.9-4.3-2.2-2-5.3-.9-4.3 1.5.4.9.9 3.3 1.2 5.2.5 3.3.5 3.4-1.2 1.8-1.6-1.5-2.2-1.5-5.9-.2-2.2.8-4.6 2.2-5.3 3.1-1.1 1.4-1.6 1.2-4.4-2.1-1.8-2-3.6-3.6-3.9-3.6-1.1 0-3 4.9-3 7.6 0 2.1 5.3 13.8 7 15.4 1.1 1 3.2 11.6 3.1 15.7-.1 3.7.2 4.4 2.8 5.8 2.9 1.5 5.9 6.6 7.4 12.7.4 1.6 1.4 2.8 2.3 2.8.8 0 3.5 2 6 4.5 3.4 3.5 4.4 5.3 4.4 7.8 0 1.8.5 3.8 1 4.3.8.8.6 1.5-.5 2.4-2.4 2-1.8 3 2 3 2.7 0 4.6 1 8.7 4.7 6.2 5.4 6.3 5.6 4.3 7.3-2.2 1.8-1.9 4.4 1 7.8 1.9 2.2 2.7 4.6 3.1 9.4.4 3.4 1.4 7.5 2.2 9 1.5 2.5 2 2.7 5.7 2.1 2.2-.3 4.6-.9 5.4-1.3 2.2-1.2 4.1-8 4.1-15.4 0-5.8.5-7.7 3.1-12.2 4.4-7.7 5.1-11 3.4-14.5-.8-1.5-1.5-3.2-1.5-3.6 0-.5 3-1.7 6.6-2.7 3.6-1.1 7.9-3 9.5-4.3 2.6-2.3 2.8-2.3 3.8-.5.7 1.4 1.8 1.7 4.5 1.4 2.5-.3 3.6 0 3.6.8 0 .9.5.8 1.8-.3 1.1-1 2.6-1.4 4.1-1 2.3.6 2.4.4 1.8-3.6-.4-3.4-.2-4.1.9-3.7 2.1.8 2.5-.7 2.5-9 0-6.9-.3-8-2.5-10.3-2.3-2.4-2.5-3.1-1.6-6 .6-2.2.6-4 0-5.2-1.6-2.9-1.2-3.9 2.3-5.4 4.5-2 7-4.5 8.6-8.3 1.1-2.7 1.9-3.3 3.7-2.9 1.6.3 2.8-.4 4.4-2.5 1.1-1.5 2.8-2.8 3.7-2.8 1.3 0 1.5.9.9 6.4-.5 5.3-.4 6.5 1 7 2.7 1 3.4.7 5.5-2.9 1.6-2.6 2.8-3.5 4.8-3.5 1.5 0 3.1-.4 3.7-1 .5-.5 4.1-1.4 7.9-2.1 11.6-1.8 11.8-1.8 13.6 2 .9 1.9 1.9 2.9 2.2 2.3 1.2-1.8 4.9 0 6.9 3.4 1.1 1.8 2.7 3.6 3.6 3.9 2.7.9 6.2 9.6 5.5 13.9-.6 3.6.3 4.6 2.4 2.5 1.5-1.5 3.3-.3 3.3 2.1 0 3 4.2 5.3 7.4 4 4.9-1.8 9.2-1.3 11 1.5 1.7 2.5 4.4 3.2 6.2 1.6.5-.5 2.1-.7 3.7-.4 2.1.4 2.5.8 1.7 1.8-1.5 1.8-.2 6.4 2.1 7.8 1.1.7 1.9 1.7 1.9 2.4 0 2.1 4 2.6 5.5.7 1.2-1.8 1.4-1.7 2.6.8 2.4 5.5 10.5 5 13.1-.7 1.5-3.5 1.5-3.6-1.4-7.3-6-7.4-5.8-9.2.8-9.2 2.8 0 3.3-.4 3.8-3.4.7-3.7 3.6-7 4.3-4.9.2.7 2.1 1.7 4 2.4 3.2 1 3.8.9 5-.6 1.1-1.6.9-2.1-1.7-3.7-3.3-1.9-3.6-2.8-1.8-4.6.9-.9.8-1.2-.4-1.2-2.2 0-1.3-3.2 1.4-4.9 1.8-1.1 2.5-1 4.8.7 4.2 3.2 11.1 4.1 41.6 5.9 7.4.4 10.4.1 16.3-1.7 6.6-1.9 7.5-2 9-.6.9.8 3.3 2.2 5.4 3.1 4.5 1.9 5.4 4.8 3.6 11.2-1.1 4.1-1.1 4.7.6 5.9 1.2.9 2.3 1 3.6.4 2.5-1.4 2.5-1.4 3.9 2 1 2.4 1.6 2.8 2.6 1.9 1-.8 1.9-.7 3.6.5 1.2.9 3.1 1.6 4.2 1.6 1.9 0 1.9.1-.2 1.6-1.4 1-2.2 2.4-2 3.7.3 1.8 1.1 2.1 6 2.4 3.1.2 6-.1 6.3-.7.3-.5 1.6-1 2.9-1 1.2 0 2.6-.3 2.9-.6.5-.6 10.3-4.2 11.5-4.4.1 0-.2.9-.8 1.9-1.9 3.6-1 6 3.7 10.8 4.1 4.2 5.4 6.9 11.5 22.8 3.8 9.9 7.4 18.4 7.9 19 .7.7 1.7.2 2.9-1.3 1.9-2.3 4-2.2 4 .2 0 3.8 14.5 8.8 16.4 5.7.8-1.2 5.4-1.5 8.1-.5.9.4 2.7 2.8 4.1 5.5 1.3 2.7 3.3 5.5 4.4 6.1 1.1.7 2 2.1 2 3 0 2.9 4.9 5.3 10.6 5.3 5.5 0 7.7 1.2 10 5.7 1.2 2.3 2.1 2.8 5.4 2.8 3.2 0 3.9-.4 4.2-2.2.2-1.9 1.3-2.4 6.6-3.4 6.1-1 8.2-2.4 8.2-5.2 0-1.1 13.4-8.2 15.7-8.2.5 0 1.8-.9 2.7-1.9 1-1 3.3-2.2 5.2-2.6 2-.3 4.2-.9 5-1.2.8-.3 1.4.1 1.4 1.1 0 1.3 1.1 1.6 5.6 1.6 4.8 0 5.9.4 7.6 2.5 3.7 4.7 6.6 5.5 19.4 5.1 10.2-.3 12.2-.7 14.1-2.4 2.6-2.4 3.1-7.3.8-9.2-2.3-1.9-2.9-7.5-1.1-10.2.9-1.2 1.6-3 1.6-4s.4-1.8.9-1.8 1.4-1.5 2.2-3.3c1.7-4.2 1.6-4.2 3.4-2.7.9.7 3.7 1.7 6.3 2.2 2.6.4 8.5 1.8 13.2 3.1l8.5 2.4 1.4 4.2c1.1 3.6 2.1 4.6 5.7 6.2 5.9 2.7 10.5 2.7 14.1.1 4.9-3.5 8.4-4.4 16.3-4.4 10.4 0 17.1 1.1 19.5 3.3 3.9 3.5 7.3 4 18 2.6 8.6-1.2 10.4-1.7 12.7-4 1.5-1.5 3.6-2.7 4.7-2.7s2.9-1.3 4-2.9c1.2-1.6 3.2-3.2 4.6-3.5 1.6-.4 2.5-1.3 2.5-2.6 0-1.1 1.1-2.6 2.3-3.5 1.3-.8 2.9-2.6 3.5-4 .6-1.3 2.3-3.1 3.7-4.1 2.3-1.5 2.7-1.5 5 0 2.9 1.9 7.6 2.1 9.3.3.8-.7 5.2-1.4 11-1.7 9.7-.5 9.7-.5 10-3.2.2-1.6 1.8-4 3.8-5.7 3.6-3.2 4.3-6.4 2-9-1.1-1.3-1.2-3.2-.4-9.6 1.8-16.2 2-19.3.8-21.5-.9-1.7-1.7-2-3.9-1.5-3.8.8-4.6-1.5-2.5-7.1 1.2-3.1 2.5-4.6 4.8-5.5 1.7-.8 4.9-3 7.2-5.1 5.1-4.7 8-5.8 15.4-5.8 3.2 0 6.2-.4 6.5-1 .3-.5 2.3-1 4.5-1 2.9 0 4.8.8 8 3.5 2.3 1.9 4.6 3.5 5 3.5.4 0 3.7 2.8 7.3 6.2 3.5 3.5 8.5 8.1 11.1 10.3 2.5 2.2 4.6 4.6 4.6 5.2 0 .7 1.7 2.1 3.9 3.2 3.6 1.9 3.9 1.9 6.2.3 1.3-.9 4.5-2.4 7-3.2 4.2-1.4 5.1-1.4 8.8-.1 3.3 1.2 4.8 1.3 7.1.4 1.7-.6 3-.8 3-.5 0 .4 1.7 2.6 3.9 5 3.3 3.6 4.4 4.2 7.9 4.2 3.1 0 4.5-.5 5.6-2.2.9-1.2 3-2.7 4.8-3.3 2.6-.8 3.2-1.5 3-3.4-.1-1.3.9-3.6 2.4-5.4 1.5-1.8 3.3-4.6 4-6.4 1.6-3.6 5.4-6.4 5.4-3.9 0 .8 1.2 2.4 2.6 3.5 2.2 1.7 2.5 2.6 2 5.2-.4 2.3.3 5.5 2.8 11.8 3.1 8 5.2 16.9 4.7 19.8-.1.7.3 2.2.9 3.3.9 1.6.6 2.2-1.5 3.6-1.4.9-4 2-5.8 2.3-2.4.5-3.5 1.4-4.2 3.6-.5 1.7-1.8 4.1-2.8 5.5-1.7 2.4-1.7 2.5 0 3.5 4.3 2.4 15.3 15.7 15.3 18.4 0 1.2-1 4-2.2 6.1-1.8 3.1-2 4.2-1.1 5.1 1 1 1.9.7 4.3-1.6 2.6-2.5 3-3.6 3.2-9.4.2-5.4.6-6.6 2.1-6.9 1-.2 2.4.4 3.1 1.4 1.1 1.5 1.8 1.5 6.4.5 6.1-1.5 9.4-5.7 11.1-14.1.7-3 1.9-6.6 2.8-7.9 1.2-1.8 1.4-3.6.8-7.5-.3-2.8-.6-5.6-.5-6.1.1-.6.4-9.5.7-19.8.4-17.1.2-19.4-1.7-25.1-1.1-3.4-2-7.8-2-9.7 0-8.9-1.3-21.5-2.5-22.9-.7-.8-1.6-2.6-2-4-1.7-5.3-7.7-14.7-12.2-19.1-4.9-4.6-8.7-12.3-10-20.1l-.5-3.6 6.7 2.6c4.8 1.9 7.1 3.4 8.1 5.4.8 1.6 4.3 5.7 7.9 9.2 3.5 3.5 8 9.1 10 12.4 2.2 3.7 4.9 6.9 7.3 8.3 2 1.3 4.1 3 4.6 3.8.5.9 2.9 3.7 5.3 6.2s4.3 5.5 4.3 6.6c0 2.2 5.9 7.3 8.4 7.3 2 0 2.1-3 .1-5.6-2-2.7-1.8-5.1.5-5.7 4.5-1.2.3-6.4-7.2-8.9-3.6-1.2-9.8-6.5-9.8-8.3 0-.6-1.3-2.9-3-5.1-5.8-7.7-3.2-13.4 6.5-13.4l5-.1-4.5-1.8c-8.7-3.5-19.8-9.8-24.6-13.9-2.7-2.3-5.6-4.2-6.5-4.2-2.8 0-9.2-5.6-10.3-9-.8-2.4-2.5-4.2-6.1-6.3-2.7-1.6-7.1-4.7-9.6-6.8-4.5-3.7-6.8-4.7-8.2-3.3-.4.4 1.4 2.6 3.8 4.9 4.6 4.3 5.6 6.5 3 6.5-3.2 0-2.8 3.1.8 6.8 3 3.2 6.7 9 6.7 10.7 0 1.2-3.8.4-4.4-1-.3-.8-1.7-2-3.1-2.5-1.8-.7-2.5-1.7-2.5-3.5 0-2.4-.2-2.5-6.4-2.5-3.6 0-6.8-.5-7.1-1-1.1-1.8-7.8-1.1-11.2 1.2-3.6 2.5-4.1 3.9-1.7 5.8 3.5 3 3.5 4.6-.1 8.4-1.8 2-3.6 3.6-3.9 3.6-.3 0-.6-1.3-.6-2.9 0-2.7-3.3-6.1-6-6.1-1.6 0-1.1 3.8.7 4.8 1 .6 1.4 1.6 1 2.6-1.1 2.8-3.3 1.7-5.6-2.9-1.2-2.5-2.5-4.5-2.9-4.5-.4 0-2 1.4-3.5 3-4.4 4.7-9.7 5.2-9.7 1.1 0-1 1-5.6 2.1-10.2 1.7-6.6 2.2-12.2 2.4-26.1.2-9.7.8-18.5 1.3-19.4.7-1.2.5-3.1-.6-6.1-1.3-3.4-1.4-5.1-.6-8.2.6-2.2.7-4.6.3-5.3-1.4-2.2-1-7 1-11.3 2.3-5.1 12.6-14.5 15.8-14.5 2.8 0 4.2-2.8 2.2-4.2-.8-.5-1-1.1-.4-1.4 3.8-1.6 7.7-4.8 8.5-6.9.5-1.4 1.6-2.5 2.3-2.5.9 0 1.4-1.1 1.3-3-.1-1.6-.4-3-.8-3-.5 0-.8-.6-.8-1.3 0-2 11-10.7 13.5-10.7 1.2 0 2.8-.7 3.5-1.5.7-.8 1.7-1.2 2.2-.9.5.3 0 1.7-1.3 3-2.6 2.8-1.9 5.7 1.3 5.2 1.5-.2 2.4-1.3 3-3.6.5-1.8 1.5-3.5 2.3-3.9 1-.3 1.5-2 1.5-4.8 0-3.8.3-4.4 2.3-4.7 1.2-.2 2.1-.8 2.1-1.3-.1-.6.5-1.9 1.2-3 .8-1.1 1.4-2.5 1.4-3.2 0-2-4.7-1.5-6.3.7-1.3 1.9-1.5 1.9-2.9.3-2-2.4-4.8-11.7-4.8-16.2 0-2-.7-4.5-1.5-5.5-.8-1.1-1.5-3-1.5-4.2 0-1.2-.7-2.7-1.5-3.4-2.1-1.7-1.8-7 .5-10 1.1-1.4 2-3.7 2-5.3 0-2 .5-2.7 2-2.7 1.6 0 2-.7 2-3 0-1.7.3-3 .8-3 .4 0 2.8 2.4 5.4 5.2 4.2 4.7 4.7 5 4.8 2.9 0-2.3.1-2.4 2-.6 1.1 1 2.3 1.5 2.6 1.2.4-.3-.1-5-1-10.3-1.1-6.6-1.3-10.1-.6-10.8 1.4-1.4 1.2-4.6-.2-4.1-.7.2-3.2-1.3-5.6-3.5-3.4-3-4.2-4.4-3.7-6 .9-2.8 7.5-9.7 7.5-7.8 0 .9-.7 2.1-1.5 2.8-2.6 2.1-1.8 5.4 1.5 6.7 1.6.6 3.8 2.5 4.7 4.2 1 1.7 2.6 3.1 3.6 3.1.9 0 1.7.7 1.7 1.6 0 .9.8 1.8 1.8 2.1 1.7.4 1.8 1.3 1.4 7.9-.4 6.2-.2 7.7 1.2 8.7 1.1.8 2 3.5 2.5 7 .4 3.2 1.3 6.3 1.9 6.9.7.7 1.2 2.5 1.2 4.2 0 1.6.9 3.9 1.9 5 1.1 1.2 2.8 5.4 3.9 9.3 1.6 6.1 1.7 7.5.6 8.4-.8.7-1.1 2.1-.8 3.5.4 1.4.1 3.1-.7 4-1 1.3-1 1.7.2 2.5.8.5 1.9.9 2.6.9 1.1 0 3.6 5.8 4.7 11.2 1.5 6.9 17.1 19.5 32.6 26.3 3.6 1.6 8 4.1 9.7 5.7 2.2 1.8 5 3 8.3 3.4 3.5.5 6.4 1.7 9.5 4.1 4.7 3.6 10.2 6 11.2 4.9.3-.3.1-3.1-.6-6.1-.7-3-.9-5.9-.6-6.5.8-1.3-3.5-8.7-6.9-11.9-2.3-2.1-2.6-3.3-2.6-8.8 0-4.3.4-6.3 1.3-6.3.6-.1.3-.6-.8-1.3-8.2-4.8-11.5-9.2-11.5-15.1 0-2.6.6-3.8 2.1-4.6 1.6-.9 1.9-1.7 1.4-3.8-1-3.9-2.4-5.2-5.6-5.2-1.6 0-4.8-1.4-7.4-3.2-5.3-3.8-6-7.2-2-10.6 3-2.6 2.5-4.4-1.8-6.4-2.4-1.1-3.6-1.2-4.9-.5-2.3 1.5-8.5-1.5-9.8-4.7-.5-1.3-1.4-2.7-2-3.1-1.5-.9-4 1.3-4 3.6 0 2.2-2.8 2.5-5.3.6-2.6-1.9-8.7-11-8.7-12.9 0-1-1.1-2.4-2.3-3.3-4.8-3.1-5.4-9-1.3-12.4 1.5-1.2 1.5-1.6.2-3-.8-.9-1.8-3.6-2.2-6-.7-4.3-.7-4.4 1.9-3.8 1.4.4 3.2 1 4.1 1.3 2.1.8 2.2-3.9.1-5.6-1.8-1.5-1.9-3.2-.4-10.1 1.4-6.5 3.7-8.9 8.7-8.9 5.1 0 5.6-.7 2.7-4.4-1.3-1.7-2.7-4.5-3.1-6.1-.4-1.7-2-5.5-3.5-8.6-2.8-5.7-4.2-12.7-5.9-30.9-.4-4.7-1.1-9.6-1.4-11-.6-2-.1-3.2 2.4-5.5 3.5-3.4 3.8-5.5.9-8.1-2.1-1.9-6.2-2.3-16.9-1.5-2.5.2-5.5 0-6.7-.4-2-.6-2.3-.4-2.3 2 0 2.3-.3 2.6-2.2 2.1-1.3-.3-2.9-.6-3.5-.6-1.8 0-1.6-2.5.2-4 .8-.7 1.5-1.9 1.5-2.6 0-.8-.7-1.4-1.5-1.4-1.1 0-1.5-1.2-1.5-4.6 0-3.9-.5-5.1-3.2-7.6-2.9-2.7-3.6-2.9-8-2.3l-4.8.7v-3.1c0-2.9.1-3 2.9-2 1.8.6 4.2.7 6.2.1 3.1-.8 3.4-1.2 3.4-4.8.1-6 2.2-8.4 7.1-8.4 4.2 0 7.2-2 5.9-4-.9-1.4 3.2-4.7 6.8-5.5 3.3-.8 4.9-4.2 4.1-8.5-.7-3.2-1.4-3.6-3-2-.7.7-2.2.2-4.8-1.5-2-1.4-5-2.5-6.6-2.5-3 0-4-1.3-2-2.5 1.7-1 1.2-4.8-.5-4.1-1.1.4-1.5-.2-1.5-2.3 0-2.4-2.5-6.1-4.2-6.1-.3 0-1.3 1.1-2.1 2.4z"/><path d="M832.4 235.2c-2.4 1.1-4.4 4.8-4.4 8.1 0 3.1 4.7 9.7 6.9 9.7 1.6 0 2-1.1 2.6-8 .5-5.8.4-8.5-.5-9.5-1.4-1.7-1.7-1.7-4.6-.3zM512.3 334.5c-2 2.1-3 4-2.7 5 .4.8-.1 2.6-1 4-1.6 2.4-1.5 2.6.4 4.8l2.1 2.2-2.5.3c-2 .3-2.6.9-2.6 2.7 0 3.6 3.8 4.4 6.3 1.4l1.9-2.4-.7 4.2c-.4 2.7-.3 4.3.3 4.3s1.2 1 1.4 2.2c.2 1.3 1.6 2.8 3.3 3.7 1.7.8 3.7 1.8 4.5 2.3 3.4 1.9 4.2 2 7 .8s4.4-5 2-5c-.5 0-.7-2-.3-4.8.4-3.7.1-5.6-1.3-7.6l-1.8-2.8-1.8 2.4-1.8 2.3v-2.7c0-1.5-.7-3.1-1.6-3.6-1.4-.8-1.5-1.7-.8-4.8.4-2.2.8-4.2.8-4.6.1-.9-6.3-7.8-7.2-7.8-.4 0-2.2 1.6-3.9 3.5zM715.7 332.3c-.3.8-2.6 2.4-5 3.5-2.5 1.2-5 2.9-5.5 3.8-.5.9-1.2 1.5-1.5 1.5-1.6-.2-1.7 0-.6 2 .8 1.6 1.7 2 3.7 1.6 10.6-2.1 13.2-3.8 13.2-8.7 0-3.9-3.2-6.6-4.3-3.7zM690.5 345.1c-2.2 1-5.2 1.9-6.7 1.9-3.5 0-3.7 2.4-.5 5 3 2.5 2 3-3.6 1.8-5.3-1.1-7.7-.1-7.7 3.4 0 2.8 4.7 11.6 6.9 12.8 3.2 1.7 9.1 1.3 9.8-.8 1.7-4.7 5.9-10.1 8.3-10.4 1.7-.2 2.6-1 2.8-2.5.3-1.8 0-2.1-1.3-1.7-2.7 1.1-9.5-1.6-9.5-3.8 0-2.4 1.6-2.3 2.3.2.6 2.3 5.3 3.7 7.6 2.3 1.8-1.1 2.8-6.3 1.3-6.3-.5 0-1.2-.9-1.5-2-.6-2.5-2.9-2.4-8.2.1zM538.1 360.4c-.7.8-1.9 5-2.7 9.3-.8 4.3-1.7 9.3-2 11-.6 2.9-.4 3.3 1.4 3.3 1.2 0 2.9-1.1 3.8-2.5.9-1.4 2.5-2.5 3.6-2.5 3.1 0 8.7-3.9 9.4-6.5 1.1-4.5-6.5-11.7-8.8-8.4-.6 1-.8.5-.6-1.6.3-3.3-2.1-4.6-4.1-2.1zM704.5 373c-.3 1-.3 3.5 0 5.3l.7 3.5 3.7-1.5c2.1-.8 5.1-2.6 6.7-3.9 2.8-2.3 2.8-2.4 1-3.9-1.1-.9-4-1.5-6.7-1.5-3.9 0-4.9.4-5.4 2zM416.5 391c-1.6 1.1-4 2-5.2 2-1.2 0-2.5.5-2.8 1-1 1.6-6.8.8-9.2-1.3-2.1-1.9-2.4-1.9-5.7-.3-1.9.9-5.1 1.6-7.3 1.6s-4.8.8-6.3 2c-1.4 1.1-3.9 2-5.7 2-2.2 0-3.7.8-5 2.5-3 4.1-13.4 11.5-16 11.5-2.1 0-2.4.4-2 2.2.7 2.5-1.6 4.7-5 4.8-1.4 0-2.3.6-2.3 1.5s-.9 1.5-2.5 1.5c-2 0-2.7.6-3.1 2.9-.8 3.7-6.2 8-7.5 6-.7-1.1-1.5-.8-3.4 1.4-3 3.4-3.2 5.3-.5 6.7 1.1.6 2 1.5 2 2 0 .6-.9 1-2 1-1.5 0-2 .7-2 2.4 0 3.2 1.9 4.4 3.5 2.3 1.9-2.6 2.4-2 1.3 1.6-.8 2.8-.6 3.8 1.3 6.9 1.3 2.1 3.1 3.7 4 3.8.9 0 2.8.9 4.2 2 1.4 1.1 2.9 2 3.4 2 .6 0 .8-4.4.5-10.5-.5-10.3-.4-10.6 2.4-14.6 1.6-2.3 4.4-5.2 6.4-6.4 1.9-1.2 4.1-3 4.9-3.9.7-.9 1.7-1.6 2.2-1.6 1.3 0 13.2-8.9 14.2-10.5.9-1.7 6.4-4.5 8.7-4.5.9 0 2.4-.8 3.4-1.9 2.1-2.3 11.2-4.6 23.6-6.1 8.6-1 9.8-1.4 12.7-4.2 4.2-4.1 5.1-6.8 2.7-8.5-2.5-1.8-4.4-1.6-7.9.7zM414 446.9c-1.4 2.6-1.3 3.8.4 4.4 3 1.2 5.6-.4 5.6-3.4 0-2.4-.4-2.9-2.5-2.9-1.4 0-2.9.8-3.5 1.9z"/></svg>
