<svg version="1.0" xmlns="http://www.w3.org/2000/svg" width="1365.333" height="1365.333" viewBox="0 0 1024 1024"><path d="M530.5 216.5c-17.1 1.3-53 6.2-65.9 9.1-8.7 1.9-10.8 3-20.8 11-8.6 7-9.7 7.3-19 4.9-2.2-.6-3.4 0-7 3.3-2.3 2.1-5.6 4.6-7.3 5.5-1.6.8-8.8 7.8-16 15.5l-13 13.9-13 .6c-7.1.4-14.8 1-17.1 1.3-4 .6-4.1.5-9-5.5-5.3-6.6-8.7-7.9-9.8-3.8-.6 2.7-4.4 4.7-8.9 4.7-1.8 0-3.9.5-4.7 1-1.1.7.3 1 4.5 1h6l5.8 9c3.1 4.9 5.7 10 5.7 11.4 0 3.3.9 3.3 5.5-.4 4-3.2 7.5-3.9 7.5-1.6 0 1-1.3 1.6-3.7 1.8-2.6.2-3.8.8-3.8 1.8 0 .8-2 2.5-4.5 3.8-5.4 2.8-15 12-15 14.3 0 1.3-1.2 1.9-5 2.4-3.4.5-5.4 1.3-6 2.6-1 1.7-.7 1.9 3.7 1.6 4.5-.2 4.8 0 6.5 3.3.9 1.9 1.7 3.8 1.8 4.2 0 1.6-4.3.7-6.7-1.2-1.4-1.1-3.2-2-4-2-2.4 0-8.7 3.7-11.8 7-3.4 3.7-9.8 8-11.8 8-2.5 0-4.7 3.6-4.7 7.4 0 4.8 1.3 7.2 5 9.1 2.5 1.3 6 6 6 8 0 .4-1.7-.7-3.7-2.4-3.9-3.2-8.3-4-10-1.9-.6.7-1.3 5.5-1.5 10.6-.6 10.7-.9 11.1-9.7 16.2-5.3 3.1-6.2 4-7 7.5l-.9 4-.1-3.3c-.1-3.8 2.6-8.3 7.6-12.6 2.7-2.3 3.3-3.5 3.1-5.9-.2-2.3-.9-3.3-2.8-3.8-1.5-.4-1.8-.7-.8-.8 2.4-.1 4.1-3.6 4.9-10.4.4-3.2 1.4-6.6 2.3-7.6 1.7-1.8 2.1-5.8.8-7.7-2-3-8.8-4.4-10.9-2.3-2.3 2.3-5.7.4-9.6-5.4-2.2-3.2-4.7-5.7-5.7-5.7-.9 0-4.2 2.7-7.2 6-6.2 6.8-8.3 7.7-6.6 3 .8-2.6.7-3.4-.7-5-1.8-2-1.8-2 1.4-.9 3 1.1 3.5.9 6.6-2.1 3-2.9 3.8-3.2 7.1-2.6 2.4.5 5.1 2.1 7.7 4.8 3.7 3.7 4.3 4 7.6 3.3 2-.4 5.9-.8 8.7-.9 4.8-.1 5.2-.3 10.6-6.4 3.1-3.5 5.8-7.3 6-8.5.2-1.7 1.5-2.5 5.9-3.7 4.3-1.2 6.7-2.6 10.5-6.5 7.9-7.8 10.4-11.7 10.4-15.8 0-3.2-.4-3.8-2.7-4.3-1.6-.4-3.6-1.6-4.7-2.6-1.8-1.9-2.9-1.9-7-.3-1.4.6-1.8.4-1.4-.6.7-2 7.3-2.3 10-.5 3.6 2.6 4.8 2 4.8-2.3 0-2.2-.4-4.3-1-4.6-.5-.3-1-1.4-1-2.4 0-1.4-.6-1.7-2.4-1.4-3.8.8-4.5-3.2-1.2-6.6 5-5.2 3.6-8.4-10.2-23.7-8.3-9.2-9.5-10.1-14.2-11.2-7-1.6-10.9-1.5-22.5.7-13.2 2.5-18.7 4.7-32.5 12.9-15.6 9.1-29 19.3-31.9 24.1l-2.5 3.9-10.5.6c-7.3.5-12.2 1.3-15.6 2.7-2.7 1.2-7.9 2.7-11.5 3.4-9.4 1.8-14.9 5.1-17.6 10.6-1.2 2.4-4.3 11.6-6.8 20.4-3.5 11.8-5.4 16.7-7.4 18.8-2.7 2.9-7.7 4.7-12.8 4.7-1.7 0-3.6.6-4.1 1.2-2.3 3.1-4.3 14.2-4.3 24 0 8.8-.4 11.6-3.1 19.5-2.5 7.6-3.6 9.5-6.4 11.4-4.4 3-4.8 5.1-2 9.2 1.2 1.9 2.6 4.6 3.2 6.2l.9 2.8 2.8-2.7c1.6-1.4 3.9-2.6 5.2-2.6 1.7 0 2.9-1 4.2-3.6 1.4-2.8 2.1-3.4 2.8-2.3.4.8.8 2.3.9 3.4 0 1.5.8 2.1 3.2 2.3 2 .2 3.7 1.1 4.3 2.3 1.4 2.6 2.3 2.4 5.9-1.1 2.3-2.4 3.2-2.7 3.8-1.6.4.7 2.5 3.2 4.5 5.5 3.3 3.5 4.1 3.9 6.2 3.1 3.1-1.1 4.6-5.6 4.8-14.3.2-4.1.6-6.6 1.3-6.4.5.2.9 1.5.8 2.8-.4 4.5.8 8.8 3.2 11.8 1.5 1.7 2.3 3.6 1.9 4.5-.8 2-2.4 1.1-2.4-1.5 0-2.2-.9-2.4-3.4-.6-1.9 1.4-2.3 4.4-1.2 9.2.6 2.7.5 2.8-.5.7-1.4-2.6-2.9-2.9-3-.5 0 1.6-.2 1.5-1-.2-.7-1.3-2.9-2.5-6.2-3.4-10.5-2.7-11.1-2.7-14.5 1.5-2.9 3.5-3 3.8-1.5 6 .9 1.4 2.5 2.4 3.9 2.4 1.6 0 2.2.4 1.8 1.5-.3.8.3 3 1.5 4.8 1.5 2.4 2.1 5.1 2.1 8.8 0 8.7-1.5 8.6-2.8-.2-1.6-10.1-1.8-10.5-5.2-11.9-3.2-1.3-5-.7-5 1.8 0 .9-1.4 2.3-3.1 3.1-3.6 1.6-5 .8-2-1.1 1.2-.7 2.1-2.3 2.1-3.5 0-1.2.5-2.5 1-2.8 1.4-.9 1.3-3.5-.2-3.5-.7 0-2.4-1.1-3.8-2.5l-2.6-2.5-3.7 2.6c-2 1.3-3.7 3.1-3.7 3.9 0 .9-1 1.5-2.4 1.5-1.3 0-2.6.7-3 1.5-.4 1.1-2 1.5-5.5 1.5-9.8 0-10.2-1.8-3.5-15.1 2.5-5.1 4.4-10.1 4.2-11.5-.2-1.8-2.1 1-7.7 11.2-5.6 10-8.1 13.6-9.8 14-3.8 1-5.2 3.8-3.9 7.9 1.1 3.6 2 4.3 3.1 2.5.5-.8 5.2-.4 6.3.6.2.1-.6 1.2-1.7 2.3-2.2 2.2-2.7 5.6-1.2 8 .6.9 1.1 1 1.5.2.4-.6 1.2-1.1 1.7-1.1.6 0-.2 1.1-1.7 2.3l-2.8 2.4 2.3 3.1c1.3 1.8 3.1 3.2 4.3 3.2 1.5 0 1.8.4 1.2 1.7-.8 1.9-.8 4.3-.2 7.8.2 1.3-.3 2-1.2 2-1.1 0-1.6-1.3-1.8-4.7-.2-3.5-.8-4.8-2.1-5.3-1.1-.3-2.1-1.5-2.4-2.5-.4-1.6-1.4-2-5.1-2-2.7 0-4.6-.5-4.6-1.1 0-.6-.9-.9-2-.6-1.1.3-2.2.2-2.4-.2-.5-.8 1.7-7.9 3.6-11.5 2.2-4.4-1.2.2-7.7 10.3-3.6 5.7-6.4 10.9-6.1 11.7.3.9-.7 1.5-3.2 1.9-2 .4-4.2.8-4.7 1-.6.1-1.9 5.6-2.9 12.1l-1.8 11.9-8.3 13.5C24.1 533.3 18 549.2 6.4 591.4l-6.6 24L2 617c1.2.9 8.5 5.5 16.3 10.2 18.1 10.9 31.8 15.5 32.9 11 1.1-4.2-1.5-8.3-12.6-19.9l-11.4-11.9 4.5-6.3 4.5-6.2-6.2-5.7c-3.5-3.1-6.9-6.1-7.6-6.5-1.1-.6-.9-1.8 1.2-5.9l2.6-5 3.1 2.9c1.8 1.6 8.1 7.4 14.1 12.7l10.9 9.7 7.2-7.1 7.2-7.2 2.2 3.1 2.2 3.1-7.1 8-7 8.1 3.7 4.4c2 2.5 4 4.5 4.2 4.5.3 0 4-3.4 8.2-7.6 7.1-7 7.8-7.5 9.8-6.3 1.1.8 2.1 2.1 2.1 2.9 0 .8-4.6 6.1-10.2 11.7l-10.1 10.2 2.6 4c2.8 4.1 4.1 4.9 5.2 3.1.3-.6 1.3-1 2.2-1 1.3 0 1.2.5-.7 2.5-3.1 3.4-1.9 4.3 2 1.5 2.6-1.9 3.4-2 4.1-.9 1.2 2 1.1 3.2-.7 5.7-1.5 2.2-1.3 2.5 7.2 11.8l8.7 9.5 4.8-4.7 4.7-4.6 1.7 2.5c1.6 2.5 1.6 2.8-.6 6.7-1.5 2.7-1.9 4.4-1.3 5 1.2 1.2 26-19.6 25.8-21.5-.1-.7-2.7-4.6-5.8-8.7-5.5-7.3-5.6-7.6-5.6-14.1V614h10v5.7c0 5.6.3 6.1 6 13.3 3.3 4.1 6.3 7.6 6.7 7.7.5.1 3.1-1 5.8-2.5l5-2.7.1-11.8c.1-11.1 1.1-15.6 2.9-12.7.4.6 1 5.8 1.2 11.4l.6 10.3 7.8.6c5.7.5 9 .2 12.3-.9l4.6-1.6v-6.7c0-7.8 1-9.3 7.6-11 4.7-1.2 7.4-.6 7.4 1.6 0 .8 2 3.8 4.5 6.6 2.5 2.9 4.5 6.2 4.5 7.4 0 2.2.4 2.3 7 2.3h7l2-4c1.1-2.1 2-5 2-6.3 0-1.8 1.3-3.1 6.4-5.9l6.3-3.5 6.4 4.5c3.5 2.4 8.5 6.4 11.1 8.8 4.4 4.1 15.7 11.9 16.2 11.2 2.6-3.4 3.6-5.8 3.6-8.5V624h-6c-7.3 0-7.6-1-2-6.5 4.2-4.1 5.2-7.9 2.8-10.4-1.1-1-1-1.1.3-.6 1.1.4 2.4-.4 3.9-2.4 2-2.9 5-4.2 5-2.2 0 .5-1.2 2.3-2.6 4l-2.6 3.1 1.7 5.5c1.5 5.3 1.7 5.5 5 5.5 2.8 0 3.5.4 3.5 2 0 1.3-1 2.4-2.5 3-2.2.8-2.3 1.2-1.4 3.9.6 1.6 1.9 3.7 2.9 4.6 2.2 2 11.2 4.5 16.5 4.5 2.9 0 4.4.5 5.3 2 2.3 3.7 9.5 2.1 10.6-2.4.6-2.3.9-2.4 3.5-1.5 2.7.9 2.9 1.3 1.9 3.4-3 6.5 2.9 11.3 14.9 12.1 6.7.5 8.3.3 10.9-1.4 1.7-1.1 3.7-3.4 4.5-5 1.3-3 1.4-3 9-2.9 7.6.2 7.6.2 6.2 2.4-.9 1.4-1.2 3.1-.8 4.5 1 3.1 9.6 14.8 10.9 14.8.6 0 3.8 2.6 7.1 5.9 4 3.9 7.9 6.6 11.7 8 4.9 2 5.9 2.8 7.3 6.4 2.3 6 7.5 10.8 15.5 14.7 5.3 2.6 7 3.9 7 5.4 0 6.6 13 12.3 25.6 11.3 8-.7 8.4-.4 8.4 5.7 0 3.6 3.4 7.6 6.5 7.6 1 0 5.4 3.7 9.8 8.2 7.3 7.6 8.1 8.1 8.5 5.9.2-1.3-1.3-7.1-3.3-12.8-2-5.8-3.5-10.6-3.3-10.9.3-.2 3.6 3.4 7.4 8.1 6 7.4 7.3 8.5 10.1 8.5 2.2 0 4.4-1 6.6-3 3.1-2.7 4.2-3 10-3 7 0 7.6.4 8.6 5.4.7 3.3 1.5 3.8 11.9 8 7.5 3.1 8.8 2.7 16.4-4.1 2.9-2.7 6.8-5.9 8.6-7.1 1.7-1.3 3.2-3 3.2-3.9 0-1.1.5-1.3 1.8-.7.9.5 5.4 1 10 1.2 6.3.3 8.2.7 8.2 1.8s-1.9 1.4-9.1 1.4c-6.8 0-9 .3-8.7 1.2.5 1.3 3.1 2 13.4 3.6 5.8.9 10.4 3.5 10.4 5.8 0 1.7 4.4 6.4 6 6.4.7 0 .9-1.3.4-3.6-1.1-5.7 1.5-3.9 6.3 4.6 3 5.3 4.4 7 4.8 5.8.4-.9.2-2.6-.4-3.7-1-1.8-.7-2.2 1.9-3.6 1.6-.8 3-1.9 3-2.3-.1-.4-.9-4.6-1.9-9.4-2.1-10.2-1.7-11.4 4.4-12.3 3.9-.6 4.1-.5 6.3 3.5 2.6 4.5 10.3 10 14.3 10 1.9 0 4.9-2.5 12.5-10.3 5.6-5.6 11.4-12.2 13.1-14.7 1.7-2.5 4-5.4 5.2-6.4 1.2-1.1 3.2-3.7 4.3-5.8 1.6-2.7 2.8-3.8 4.5-3.8 2.4 0 7.6-2.2 10.3-4.5.8-.6 4-2 7-2.9 3-1 7.1-3 9-4.5 1.9-1.5 7.6-4.4 12.6-6.5l9.1-3.8 10.2 1.5c10.1 1.5 10.2 1.5 17.4-.9 4-1.4 13.3-3.9 20.6-5.5 11.3-2.6 14.4-3.7 19.3-7.1 11.4-7.7 29.1-12.4 51.8-13.8 12.4-.8 14-1.1 19.1-3.9 5-2.7 7-3.2 15.5-3.7 6.5-.3 15-1.8 24.8-4.2 14.8-3.7 15-3.7 19.4-8.5 2.5-2.6 6.8-6 9.6-7.6 2.8-1.7 9.4-6.5 14.6-10.9 10.8-9 14.8-11.3 17.8-10.5 1.2.3 5.2 0 8.9-.7 8.7-1.5 15.2-6.3 23.8-17.7 5.7-7.5 6.5-9.3 10.4-22.5 2.4-7.8 6.2-19.7 8.6-26.3 3.1-8.7 4.6-14.9 5.5-22.5.7-6.1 2.5-14.2 4.2-19.4 2.7-7.7 3-9.8 2.6-17-.4-7.8-.6-8.5-4.5-13.6l-4.1-5.4 1.7-3.5c3-5.9 4.3-10.9 3.7-13.9-.6-2.3-1.9-3.2-10.4-6.6-9.8-4-15.3-4.8-21.6-3.1-3.3.9-4.1 0-5.7-6.2-.9-3.5-1.6-4.3-4.1-4.8-4.6-1-15.5 1.4-18.8 4.1-1.5 1.3-3.3 2.4-4 2.4-.9 0-.9.4-.3 1.2 1.8 2.3 2.4 7.7.9 8.5-.7.4-1.5 1.8-1.8 3-.5 1.7-.2 2.3 1.1 2.3 3.9 0 5.7 5.3 2.1 6.3-1.2.3-2 0-2-.8 0-1.8-2.6-2.6-5.8-1.9-1.5.4-6.3 2.4-10.8 4.4-9.1 4.2-14.6 5.6-25.3 6.6-4.1.3-9.2 1.5-11.5 2.5-6.1 2.8-10 2.5-12.5-.9-2.3-3.2-6.3-4.7-18.4-6.6-4.5-.8-10.4-2.4-12.9-3.6-4.8-2.2-15-12.2-18.4-17.9-1.2-2.1-2.8-3.1-5.3-3.6-2-.4-4.7-1.3-6-2.2-1.8-1.2-4.4-1.4-11.2-1.1-8.1.4-9.1.7-11.9 3.3-1.6 1.6-3.3 3.8-3.6 4.9-.3 1.2-1.7 3.7-3.1 5.7-2.9 4.4-8.9 6.4-14.4 4.9-7.9-2.3-12.5-.2-18.1 8.4l-2.8 4.1 3.6 3.6c3.9 4 3.8 5.4-.4 7-2.8 1.1-4.2-.1-4.2-3.7 0-2.2-3.5-4.4-7-4.4-1 0-2.6 1-3.4 2.2-1.1 1.5-1.6 1.7-1.6.8.1-2.2 1.9-4.1 7.6-7.9 3.4-2.3 5.9-4.9 7.3-7.7 2.8-5.8 5.3-7.2 15.2-8.5 9.3-1.2 12.2-3.3 13.5-9.5.4-2.4 1.8-4 5.4-6.3 2.7-1.8 5.2-4.2 5.6-5.4.4-1.2 1.4-3.3 2.3-4.6.9-1.4 2.1-5 2.7-8 1.1-5.4 1.1-5.8-1.9-11.1-1.7-3-5.9-8.8-9.5-12.8-7.9-9-8.7-12.2-4.8-20.7 1.4-3.2 2.6-7 2.6-8.6 0-2.7-.3-2.9-3.9-2.9-2.1 0-6.5-.3-9.8-.6l-6.1-.7-3.5 5.6c-2 3.1-5 6.3-6.6 7.2-4.4 2.2-7.1 8.1-7.1 15.6v6.1l-9.7-.7-9.8-.7-3.4 3.6c-2.2 2.2-4.8 3.8-7 4.2-2 .4-4.6 1.6-5.8 2.7-2 1.8-2.3 3-2.3 9.7 0 8.5-.9 10-8 13.5-1.9.9-5 3.3-6.8 5.3l-3.3 3.7 1.5-3.9c.9-2.1 1.6-4 1.6-4.1 0-.2 2-1.2 4.3-2.3 6.3-3 7.8-5.8 7.5-14-.2-5.2.1-7.5 1.5-9.5 2.4-3.6 19.9-12.4 26.6-13.3 6.4-.8 7.7-2.3 5.7-6.2-2.2-4.2-8.2-8.9-14.1-11.1-7.8-2.9-23.8-4.6-30.9-3.2-3.3.6-6.2.8-6.5.4-.3-.5-2.7-4-5.2-7.9-5.5-8.3-11.9-13.9-17-14.9-4-.7-17.8 1-21.6 2.8-1.6.7-2.8 2.7-4.1 7.1-1.1 3.4-3.8 9-6.1 12.5-3.3 5.2-5.8 7.6-12.8 12.2-4.8 3.2-9.9 6.1-11.4 6.4-1.8.4-3.1 1.6-3.8 3.5-.5 1.6-2.8 4.1-5 5.6-3.7 2.4-4.6 2.6-9.8 2-3.2-.4-7.1-.8-8.8-.9l-3-.2-.5 7.8c-.5 7.2-2.2 10.6-2.8 5.5-.7-5.9-1.2-7-2.7-5.8-1.3 1.1-1.5.7-1.5-2.3 0-2.7 1-4.6 4.5-8.5 6.3-7 6.2-7.3-3.7-8.7-2.6-.3-5.7-1.5-7-2.6l-2.3-2 4.5.4c7.2.7 14.9 3.2 17.8 6 3.5 3.2 8.7 5.8 10.4 5.2.7-.3 2.3-2.3 3.6-4.5 1.2-2.2 2.7-4 3.3-4 .6 0 4.3-1.5 8.3-3.3 9.2-4.3 13-9.4 14-18.9.9-9.2 9.3-26.3 14.8-30.1 4.9-3.4 7.9-9.5 6.8-14-1-4.6-11.8-18.7-14.3-18.7-3.6 0-20.7 15.3-20.7 18.6 0 3.3-1 5.4-2.6 5.4-1.7 0-1.8-1.4-.3-4.2 1.3-2.3-.1-3.8-3.7-3.8-4.4 0-5.3 1.9-4.5 9.7.7 7.1.6 7.2-2.4 9.6-1.7 1.3-4.1 2.8-5.4 3.2-2.2.7-2.2.5 1-4.1 3.2-4.7 3.4-5.3 3.1-12.5-.3-7.3-.2-7.7 2.4-9.4 2.4-1.6 2.8-1.6 3.6-.2.8 1.4 1.6 1.3 7.1-1 7.3-3.2 10.8-5.8 15.5-11.9 2.9-3.9 3.3-5.1 2.7-8-.3-1.9-1.9-4.9-3.4-6.6l-2.8-3.1-4.8 1.6c-2.7 1-7 1.7-9.6 1.7h-4.7l.5 3.8c.7 5.2-1.3 6.9-6.5 5.4-2-.6-6-.8-8.8-.5-3.8.4-5.8.1-7.7-1.2-2.3-1.5-2.8-1.5-5.6-.1-4 2.1-7.5 2.1-6.7 0 .3-.9.6-1.8.6-2.1 0-.3.7 0 1.5.7 1.3 1.1 2 .9 4-1 2.4-2.2 2.7-2.3 9.4-1.1 3.8.7 8.9 1 11.3.6 4.3-.6 4.3-.7 4.3-4.6 0-6.1 2-7.4 11.3-7 6.2.2 8.1-.1 9.1-1.3 1.2-1.4 1-2.2-1.2-5.5-4.4-6.6-10.8-11-20.4-14-4.8-1.5-9.8-3.3-11-3.9-1.8-1-2.8-.8-5.9 1-2.7 1.6-3.6 1.8-3.2.8.3-.8.9-2.3 1.3-3.2 1-2.4-2.8-4.4-11.3-5.9-5.4-.9-7.8-.9-9.7-.1-2.1 1-3 .7-7.2-2.7-4.4-3.4-13.1-7.3-15.7-7-.6.1-8.7.7-18.1 1.4z"/><path d="M845.3 328c-1.2.5-2.5 2.1-2.9 3.5-.6 2.3-1 2.5-6.5 2.5-5.2 0-5.9.2-5.9 2 0 1.1 2 5.2 4.5 9.1 4.2 6.5 5.1 7.3 11.8 10.3 4 1.8 8.9 3.9 11 4.6 2.2.7 6.9 3.3 10.5 5.8 3.7 2.5 9.4 5.4 12.7 6.4 7.8 2.5 9.6 3.7 12 8.4 1.1 2.2 2.5 4.2 3 4.6 1.8 1.4 3.5.8 3.5-1 0-2.7 2.5-5.8 3.5-4.3.4.7.3 1.7-.3 2.3-1.4 1.4 4.9 12.9 7.9 14.5 1.3.6 2.9 2.3 3.6 3.7 1.6 3 1.4 2.9 8.5 1.5 22-4.4 27.8-6.3 27.8-9.5 0-.7 1-1.6 2.3-1.9 2-.7 4.3-2.4 8.4-6.7 1.5-1.5 1.8-1.5 4.6.3 2.8 1.6 4.5 1.8 16.1 1.2 16.7-.7 19.4-2.6 14.6-9.8-1.4-2.1-2-4.7-2-8.8 0-5.1-.4-6.2-2.8-8.7-2.6-2.6-5-3.5-13.3-5.4-1.6-.3-4 .2-6.3 1.4-2.9 1.4-3.6 1.5-3.2.4.6-1.7.2-1.7-4.6-.3-2.5.6-3.8 1.6-3.8 2.7 0 1.7-6.7 6.2-9.2 6.2-.6 0 .5-1.8 2.7-4 2.1-2.2 3.6-4.2 3.3-4.6-.4-.3-11.6-.8-25-1-13.4-.2-25.8-.6-27.7-1-2.4-.4-5.8-2.7-11.5-8-4.4-4.1-8.6-7.4-9.2-7.4-.6 0-3.8-1.2-7-2.6-14.9-6.7-25.2-8.8-31.1-6.4zM807.1 364.2c0 1.8.8 5.3 1.8 7.8 1.6 3.9 2.3 4.6 5.6 5.2 2.1.5 4 .7 4.2.5.2-.3-.2-2.6-.9-5.2-1-3.5-2.3-5.6-5.4-8.1-2.3-1.9-4.4-3.4-4.8-3.4-.3 0-.6 1.5-.5 3.2z"/><path d="M880.4 382.7c.2 1 .7 3.3 1.1 5.1.5 2.6 2.3 4.4 8.3 9 13.5 10 14.2 10.2 14.2 3.4 0-5.6-2-8.2-6.4-8.2-3 0-8.6-2.6-8.6-3.9 0-.5-1.3-2.3-2.9-4-3.2-3.4-6.5-4.2-5.7-1.4zM188.6 619.9c-.3.5.2 2.3 1.1 4.1 1.2 2.6 1.3 3.7.4 5.1-.6 1-1.1 3.4-1.1 5.3 0 3 .4 3.6 4 5 4.9 1.9 11.4 2.2 10.8.3-.3-.6-1.5-1.4-2.9-1.5-4.1-.6-4.6-2.2-.6-2.2 3.4 0 3.7-.2 3.7-2.9 0-5.1-1.7-7.7-6.9-11-5.2-3.2-7.6-3.8-8.5-2.2zM235.3 620.3c-3.7.8-4.3 1.3-4.3 3.6 0 4.1 3.5 9.1 6.5 9.1 1.7 0 2.5.5 2.5 1.8 0 2.1 7.6 6.2 11.5 6.2 2.6 0 6.7-4.5 6.3-6.9-.2-.8-1.9-1.9-3.8-2.4-4.7-1.2-7-3.4-7-6.8 0-2.1-.7-3.2-3-4.4-3.2-1.7-2.9-1.7-8.7-.2zM223.3 652.5c-.6 1.8-9.3 6.5-11.8 6.5-1 0 .9 2.3 4.3 5.5 4.3 3.9 6 6.2 6.1 8.2.1 1.6.2 5.6.4 9 .2 5.3.6 6.6 3.1 9.2 1.7 1.7 3.4 3.1 3.8 3.1.5 0 2-2.4 3.3-5.4 2.4-5.3 2.5-5.5 7.2-6.1 14-1.7 24.9-3.8 25.5-4.9 1.7-2.5.6-4.9-4.1-9.5-5.7-5.6-8.6-6.4-18.7-5.5-4 .4-8.8.4-10.8 0-3-.6-3.6-1.1-3.6-3.2 0-1.4.5-3.5 1.1-4.6.9-1.6.8-2.3-.2-2.9-2.2-1.4-4.9-1-5.6.6zM167.1 663c-4.3 3.4-5 4.5-4.5 6.4.3 1.4-.1 3.7-1 5.4-2.4 4.7-2.1 8.9.9 10.8 3.8 2.4 5.9 1.5 6.3-2.8.4-4.4 2.4-6.3 6.3-6 2.7.2 2.9 0 2.9-3.3 0-4.7 1.4-7.2 5.3-9.5 2.1-1.3 2.6-2.1 1.6-2.4-.8-.2-2.9-.9-4.8-1.5-5.5-1.8-7.7-1.3-13 2.9zM270.3 662.2c-3 3.8-1.7 7.8 2.6 7.8s5.4-2 3.1-5.8c-2.1-3.4-4.1-4-5.7-2zM271.7 672.6c-.4.4-.7 1.8-.7 3.1 0 1.7.6 2.3 2.1 2.3 1.6 0 2-.5 1.7-2.7-.3-2.6-1.8-3.9-3.1-2.7zM200.1 676.9c-1.2 1.6-3.4 3.2-5 3.6-4.1.9-4.9 2.2-5.3 8.5l-.3 5.5-6.5.5c-5.8.4-6.5.7-6.8 2.7-.3 2.1 0 2.3 4.7 2.3 3.8 0 5.1.4 5.1 1.4 0 2.4-6.3 6.6-9.8 6.6-1.8 0-3.2.4-3.2 1 0 1.3 6 2.7 14.9 3.4 8 .7 10.1-.1 10.1-3.9 0-3.3 2.3-4.7 6.2-4 3.3.6 9.8 5.6 9.8 7.5 0 .5.9 1.4 2.1 2.1 1.7.9 2.5.7 4.5-1.2 1.3-1.2 2.4-3.3 2.4-4.6 0-1.3.8-3.5 1.7-5 1.7-2.5 1.6-2.6-1-4.9-1.5-1.3-4.6-2.9-6.8-3.6-4.6-1.3-5.9-3.5-5.9-10.1 0-4.4-2-7.7-5.7-9.6-2.9-1.5-2.9-1.5-5.2 1.8zM269.5 685.2c0 3.2-.2 3.3-4.5 3.6-4.6.3-8 2.4-8 4.9 0 .7-.8 1.3-1.7 1.3-1 0-2.4.4-3.2.9-1.1.7-1 1.4.8 4 2 2.7 2.8 3.1 7 3.1 4.6 0 4.8.1 4.4 2.4-.4 1.7.1 2.7 1.6 3.5 1.9 1 2.1.9 2.1-1.2 0-1.3.9-3.2 2-4.2s2-2.6 2-3.5c0-1.9 1.9-3 5.1-3 1.6 0 1.8-.5 1.3-2.8-.7-2.9-6.3-11.3-7.9-11.9-.6-.2-1 1.2-1 2.9z"/><path d="M245.7 684.2c-3.1 1.7-4 4.7-2.2 7.4 2.2 3.4 6 3.2 7.3-.4.5-1.5 1.3-3.4 1.7-4.3.8-2.1-4.3-4.2-6.8-2.7zM292.2 693.2c-.7.7-1.2 2-1.2 2.9 0 1-.4 2.1-1 2.4-2 1.3-1 5.3 2.1 7.9 3.5 3 4.7 3.2 7.4 1.2 2.6-1.9 2.6-8.3 0-10.2-1.1-.8-2.9-2.3-4.1-3.4-1.6-1.4-2.4-1.6-3.2-.8zM281.3 700.9c-2 3.3.7 11 3.9 11.1.4 0 1.3-.7 2.2-1.5 1.3-1.3 1.3-2-.2-5.7-2.3-6-3.9-7.1-5.9-3.9zM229 704l-2.1 2.9 2.4 5.3c1.8 3.8 2.2 5.8 1.5 7.1-1.6 3.2-.4 4.8 5.3 7.1 3.1 1.3 7.9 4.1 10.5 6.3 2.7 2.3 6.3 4.8 8.1 5.7 3.1 1.5 3.2 1.5 5.3-1.1 1.1-1.4 2.3-3.7 2.6-5 .4-1.2 1-2.3 1.6-2.3 1.2 0 5.8-4.6 5.8-5.8 0-.5-2.4-.9-5.2-.9-7.2.2-14.6-3.5-17.3-8.5-1.1-2.1-3.2-4.3-4.7-4.9-2.3-.9-2.8-1.8-2.8-4.4 0-3.6-1.3-4.5-6-4.5-2 0-3.5.9-5 3zM199.5 725c-1 1.1-2.6 2.2-3.5 2.5-1 .3-2 1.9-2.4 3.6-.4 2.3-1.5 3.4-4.7 4.7l-4.2 1.8 3.9 3.2c2.4 2 4.5 3 5.4 2.6.8-.4 3.7-1.1 6.3-1.7 4.3-.9 5-.8 7.1 1.2l2.4 2.2.7-2.8c.3-1.5 2.2-4.7 4.1-7l3.5-4.3h-4.2c-3.3 0-4.9-.6-7.1-2.7-1.5-1.5-2.8-3.3-2.8-4 0-1.9-2.4-1.6-4.5.7zM217 739.9c0 1.1-.9 4.1-2 6.7-1.9 4.3-1.9 4.9-.5 7.1 2.5 3.7 5.2 2.5 6.9-3.1.5-1.5.9-1.6 2.2-.5 1.3 1 1.7 1 2.5-.2 2-3.1.4-9.4-2.7-10.8-3.8-1.7-6.4-1.4-6.4.8zM501.2 740.3c-2.1 1-2.3 1.5-1.7 5.5 1.2 8.2 2.2 8.9 6.7 4.5 3.4-3.2 3.6-6.8.6-9.4-2.7-2.1-2.6-2.1-5.6-.6zM547.5 750.6c-3.8 2.4-7.5 4.3-8.2 4.4-.7 0-1.6.8-2.1 1.7-.8 1.4.1 2.2 5.6 4.7 4.6 2.2 6.7 2.7 7 1.8.5-1.6 2.2-1.5 2.2.2 0 .8 3.4 2.4 8.5 4.1l8.4 2.7 2.9-2.3c1.6-1.3 3.7-2.9 4.7-3.4 2.8-1.7.4-4.9-6.8-9.1-3.4-2-7.1-4.4-8.2-5.3-4.9-4.2-6.5-4.1-14 .5zM495 757.7c0 .5 1.9 2.5 4.3 4.4 2.3 1.8 10.3 9.3 17.7 16.5 14.3 13.9 16.3 15.4 20.5 15.4 3.3 0 11.8 7 13.5 11 1 2.4 2 3 5.5 3.6 4.7.7 6.8-.1 10.4-4l2.4-2.6h-4.7c-5.4 0-6.7-1.6-4.5-5.7l1.4-2.6.9 3.2c.7 2.5 1.4 3.1 3.7 3.1 1.5 0 3.9.4 5.3 1 1.7.6 3.5.6 5.1 0 2.1-.8 2.5-1.6 2.5-4.9 0-2.2.5-4.3 1-4.6.6-.3 1-1.7 1-3 0-2.9-7.1-7.5-11.6-7.5-2.3 0-3.8-1-6.7-4.5-4.2-5-5.5-5.3-13-3-5.1 1.5-4.9 1.6-9.5-3.9-1.4-1.8-4.8-2.1-5.7-.6-.3.5-2.2 1-4.1 1-2.9 0-3.8-.6-5.2-3.1-2.8-5-11.9-9-21.9-9.7-5.1-.3-8.3-.1-8.3.5z"/></svg>
