<svg version="1.0" xmlns="http://www.w3.org/2000/svg" width="1365.333" height="1365.333" viewBox="0 0 1024 1024"><path d="M471.4 96.4c-.3.8-1.7 2.2-3 3.1-2.4 1.5-2.8 1.5-7.1-1-3.8-2.3-4.9-2.5-6.9-1.6-2.9 1.3-3 2.8-.4 6.1 2.4 3.1 2.4 3.9.4 6.1-1.3 1.5-2.7 1.7-7.8 1.2-5-.4-7.1-.1-11.1 1.6-4.3 1.8-5.9 2-11.3 1.3-5.2-.7-7.8-.5-14.8 1.3-9.1 2.4-11.4 2-15.2-2.4-1.4-1.6-2.6-1.8-7.3-1.4l-5.6.5.5 4.4c.4 4 .3 4.3-2.3 5-1.5.4-5.4.4-8.6.1-5.7-.5-6.1-.4-9.5 2.8-5 4.7-7.4 5-16.8 2.2-4.5-1.4-13.2-3.2-19.4-4-10.3-1.3-11.9-1.3-16.3.1-3.9 1.3-5.6 1.4-7.9.5-2.4-.9-3.9-.8-7.2.5l-4.1 1.6-3.4-3.9c-1.8-2.1-3.7-5.3-4.1-6.9-1.2-4.5-5.4-4.7-11-.6-3.6 2.6-5 3-10.6 3-6.4 0-9.6 1.4-9.6 4.3 0 .7-1.4 3.2-3 5.7-1.7 2.6-3 5.8-3 7.6 0 1.8-.8 3.8-1.9 4.8-1.1 1-2.3 3.6-2.6 5.8-.5 2.7-1.4 4.2-3 5-2.8 1.3-4.4 4.6-3.8 7.9.2 1.6-.8 4.3-3.1 8-3 4.7-4 5.6-6 5.2-1.7-.4-3.3.5-6 3.2-3.5 3.5-3.7 4-3.5 9.3.3 8.3-2.4 15.9-7.2 20.2l-3.9 3.5-2.5 16.5c-3.8 24.7-5.4 28.8-15.2 39.4-4.4 4.8-6.8 8.3-7.6 11.3-.7 2.9-4.1 8-10.3 15.7-5.1 6.3-9.5 12.7-9.8 14.3-.5 1.9-2 3.7-4.7 5.3-3 1.8-7.2 6.8-15.2 18-6 8.5-16 21.3-22.1 28.5-6.1 7.1-12.7 15-14.6 17.5-1.9 2.5-8.9 10.2-15.6 17.1-9.4 9.9-12.5 13.8-13.9 17.7l-1.8 5-27.1 10.6c-14.9 5.8-28.4 10.6-30 10.6-1.6 0-5.3.8-8.3 1.7-6.5 2-6.9 4.2-1.5 7.8 2.1 1.4 5.1 4.7 6.7 7.5 1.6 2.7 3.2 5 3.6 5 .3 0 1.7-2.8 3-6.3l2.5-6.2 5.2-.3c4.5-.3 6.1.2 10.3 2.7 2.7 1.7 6.1 3.1 7.4 3.1 3.4 0 9.5 4 12.9 8.5 1.6 2.1 4 6.9 5.3 10.9 1.4 3.9 3.5 8.2 4.8 9.6 1.5 1.7 2.4 4.3 2.9 8 .3 3 1.1 5.7 1.7 5.9 3.5 1.1 12.1 9.7 16.6 16.4 4 6.2 5.2 8.9 5.6 13 .8 8.1 2.8 14.1 5.4 16.1 2.4 1.7 2.4 1.7 1.8-1.1l-.6-2.8 1.7 3c1.3 2.1 1.7 4.7 1.5 9.2l-.2 6.1 3.5 1.3c2 .7 3.6 1.8 3.6 2.5 0 .6.7 1.8 1.6 2.5 1.5 1.2 1.6 4.3 1.2 27.6-.3 19.8-.1 26 .8 25.3.7-.6 1.3-5.7 1.6-12.7.5-11.6.6-11.8 3.6-14.3 2.9-2.4 6.1-8.4 7.5-14 .5-2 1.6-2.8 4.9-3.7 4.1-1.1 4.1-1.1 2 .5-1.2.9-3.2 3.8-4.5 6.4-2.2 4.3-2.2 4.8-.7 4.8.9 0 2.5.9 3.5 2 2.9 3.2 6.6 2.5 11-2.1 2.2-2.3 6-5.5 8.5-7.3 5.9-4 13.4-12.2 12-13.1-.5-.3-1-1.8-1-3.2v-2.6l2.1 2.7c2.6 3.3 7.9 3.7 7.9.6 0-2.6 4.3-3.7 7.3-1.8 1.9 1.3 3.3 1.3 9.7.2 6.4-1.1 7.8-1.1 9.8.2 3.8 2.5 2.1 5.5-1.9 3.3-1.7-.8-3.6-.8-8 .1-5 1.1-6.4 1-9.7-.3-4.2-1.7-5.2-1.4-5.2 1.4 0 1.7-2.7 2.9-6.6 2.9-1.1 0-3.6 1.6-5.5 3.6-1.8 2-5.3 4.9-7.6 6.5-3.1 2.2-4.3 3.7-4.3 5.4 0 2.9.5 3 4 1 2.9-1.7 7-2 7-.5 0 .5.9 1 2 1 1.3 0 2-.7 2-1.9 0-1 1.1-2.6 2.4-3.5 2.2-1.4 2.9-1.4 6.3-.1 3.8 1.3 3.8 1.4.8 1.4-6.3.2-7.5 1-7.5 5.1 0 2.1-.6 4.3-1.4 4.9-.8.6-1.6 2.4-1.9 3.9-.3 1.5-1.6 5.5-2.8 9-1.2 3.4-1.9 6.5-1.6 6.8 1 1 4.4-1.9 5.4-4.7 1.7-4.3 3.3-3.5 3.3 1.6 0 4-.3 4.5-2.2 4.5-3.1 0-4.1.9-5.3 4.5-1 2.8-1.3 2.9-5.8 2.6-5.8-.3-6.2 1.4-.7 3 4.7 1.4 5 3.1 1.5 8.3-2.3 3.3-2.3 3.6-.5 3.6 3.3 0 3.2 3.5-.2 11.4-2.9 6.9-3.6 7.7-6.8 8.6-1.9.5-4.3 1-5.2 1-1.2 0-1.8.8-1.8 2.3 0 2.7 1.7 4.7 3.5 4.1.7-.3 1.8.8 2.4 2.5 1.2 2.8 1.6 2.9 8.9 3.5 13 1 172.2 6 172.7 5.4.3-.3 2.5-5.8 4.8-12.2l4.2-11.8 10.5-4.3 10.4-4.3 6.9 3.5 6.9 3.4 12.7-5c14.2-5.8 18.1-6.2 26.6-3 3.1 1.2 6.6 1.8 7.8 1.5 1.4-.4 6 1.1 13 4.1 12.8 5.5 15.8 8.8 16.7 18.2.5 5.3.7 5.6 6.5 10.2l6 4.7 7.9-4.4 7.9-4.4 11.2 3.5 11.3 3.5 2.2 7.3c1.1 3.9 2.3 7.9 2.6 8.7.2.8 3.7 3.7 7.6 6.5 6.1 4.2 8.4 5.2 14.3 6.1 6.4 1 7.5.9 13.5-1.3 3.6-1.3 9-3.8 12-5.5 7.8-4.4 15.5-6.8 21.9-6.8 3.1-.1 8.5-.7 12.1-1.5 5-1 7.6-1.1 11.3-.2 5.4 1.2 5.9 1.8 17 17.8l6.6 9.6-8.7 8.5c-8.4 8.2-8.9 8.5-14.4 9.2-3.1.3-9.4 1.5-14 2.6s-10 2-12.1 2c-3.1 0-4.9.9-9 4.4-4.3 3.6-6.4 4.6-12.4 5.9l-7.3 1.4-3.7-2.8c-3.6-2.7-4.4-2.8-13.9-2.9h-10l-5.6-5c-3.3-3-7.9-5.8-11.4-7.1-3.3-1.2-7.8-3.5-10.1-5-4.6-3.2-6.3-3.4-12.7-1.8-4.1 1-4.5.9-12.1-3.7-4.7-2.8-8.5-6-9.6-7.9-2.4-4.1-11.8-8.5-18-8.5-8-.1-11.4-1.6-23.1-10.3-9.6-7.3-11.8-9.5-13.8-13.7-2.1-4.5-2.7-5-5.5-5-2.3 0-5.3 1.5-10.1 5l-6.8 5-3.1 11.2-3 11.3-7.5 3.7c-6.7 3.3-8.3 3.7-15.7 3.7-7.6.1-8.9-.2-15.8-3.6l-7.5-3.7-7.9 3.9-8 3.9-9.3-2.1c-7.7-1.8-9.7-1.9-11.8-.9-1.6.8-4.9 1.1-9.2.8-3.8-.2-6.8-.3-6.9-.1 0 .2-.6 6.8-1.4 14.7-.7 7.9-1.6 14.6-1.9 14.9-.5.6-109.3-1.9-144.6-3.3-12.8-.5-15.3-.4-14.2.7 1.8 2 1.5 2.7-1.9 4.5-2.6 1.3-3 2-2.6 4.2.3 1.6-.3 3.9-1.7 6.1-1.2 2-2.7 4.8-3.3 6.3-2.1 4.7-9.3 32.5-9.3 35.6 0 1.6-.6 3.2-1.4 3.5-.7.3-1.6 2.3-2 4.4-.4 2.1-.9 5.1-1.2 6.8l-.5 3 1.5-2.5 1.5-2.5.1 3.6c0 2.2-.7 4.2-1.7 5-1.4 1.2-4.3 6.8-4.3 8.4 0 1.2 2.8.3 6.2-2 2-1.4 4.8-2.5 6.2-2.5 1.6 0 2.6-.6 2.6-1.4 0-1.8 8.6-6.7 10.4-6 .8.3 3.2-.4 5.5-1.5 6.4-3.3 7.1-2.9 7.1 3.4 0 5.3-.1 5.5-4.4 8.4-2.4 1.7-4.6 3.7-5 4.6-.8 2.2-2.6.9-2.6-1.9 0-2.2-.2-2.3-8.2-1.8-8.3.4-8.3.4-12 4.5l-3.8 4.2.6 7.5c.5 6.2.3 7.8-.9 8.9-.9.7-1.3 1.9-1 2.7.6 1.5 5.8 2 6.7.6.3-.5 4.6-3.3 9.5-6.3 7.6-4.5 9.1-5.8 9.1-8 0-3.7 1.8-4.9 7.5-4.9 4.3 0 5.5.4 7.9 2.9 3.2 3.3 7.1 4.4 8.7 2.5 1.7-2.1 2.9-1.7 2.9 1 0 1.4 1.1 3.3 2.5 4.4 1.4 1.1 2.5 2.7 2.5 3.5 0 1.8 4.6 5.4 7.5 5.8 2.6.4 6.5-1.8 6.5-3.6 0-1.1 1.3-1.5 5-1.5 5.7 0 6.4 1.3 2.7 4.8-1.6 1.5-4.2 2.4-8.4 2.8-5.2.6-6.8.3-12.1-2.1-4.7-2.1-7.2-2.6-10.2-2.2l-4 .5-3-6.4c-1.7-3.5-3.7-6.4-4.3-6.4-.7 0-3.7 2.4-6.6 5.4-2.9 3-7 6.2-9.1 7.1-4.3 1.9-5 4.1-5 15.9 0 5.5-.3 6.7-1.2 5.8-.7-.7-1.5-3.3-1.8-5.9-.5-4.4-.7-4.8-3.8-5.4-1.8-.4-4.2-1.5-5.3-2.5-1.9-1.7-2-1.7-4.1.4-2.9 2.9-3.7 9.9-2.1 18.9 1.8 9.5 5.4 15.3 9.7 15.3 1.7 0 7.8.2 13.6.5 5.8.2 16.5.5 23.8.6l13.2.1 17.4-9.4 17.3-9.4 5.2 1.7c4.7 1.6 6.1 1.7 16.8.4l11.7-1.3 5.9 2.9c5.3 2.7 6.4 2.9 12.5 2.4 5-.5 10.6 0 22.2 2 8.5 1.4 16.6 2.6 18 2.7 1.4 0 21.9-10.1 45.6-22.5l43.1-22.4 103.4 6.2c56.9 3.5 127 7.7 155.9 9.5l52.5 3.1 5.5 2.8c5 2.6 5.8 2.7 8.5 1.5 4.6-2 11.2-1.7 14.6.7 2.1 1.5 3.7 1.9 5.9 1.4 1.8-.4 5 0 8 1 4.2 1.4 5.5 1.4 8.4.4 3.1-1.1 3.8-1.1 5.6.6 3 2.7 2.5 6.6-1.5 11.2-3.2 3.8-3.5 4.6-3.5 10.6v6.4l3.8.7c2 .3 5 .6 6.6.6 1.8 0 4 1 5.6 2.5 2.4 2.3 3 2.4 5.8 1.4l3.2-1.1v-7.9c0-7.6.1-7.9 2.8-9.3 2.9-1.5 2.9-1.4 9.3 5 3.5 3.6 8 7.4 9.9 8.4 1.9 1 4.6 3 5.9 4.4 2.3 2.4 3.1 2.6 11 2.6h8.6l6.8 6c3.8 3.3 7.2 6 7.6 6 .4 0 3.1-.7 6.1-1.6 5.5-1.6 5.8-1.6 18.3 1.7 3.5.9 4.1 1.7 6.8 7.7 1.7 3.7 3.2 6.8 3.3 7 .2.2 8-2 17.2-4.9 15.6-4.8 17.2-5.4 20.9-9.3 3.8-4 4.5-4.3 17.2-7l13.1-2.9 7.4 4c6.9 3.8 7.6 4 14.2 3.5 4.1-.3 8.3.1 10.6.8 3.5 1.2 5.3.9 20.4-2.9 13.9-3.4 18.1-4.1 26.3-4.1 8.3.1 10.5.5 14.3 2.4 4.5 2.4 4.5 2.4 8.2.5 2.7-1.4 3.5-2.3 3.1-3.8-.3-1.3.2-2.1 1.6-2.6 2.1-.6 2.1-.6-.3-3.8-1.3-1.8-3-4.9-3.7-7.1-1-2.7-2.4-4.3-5.1-5.7-2.5-1.3-3.8-2.6-3.8-3.9 0-1.1.3-2 .8-2 .4 0 2.2-.9 4-2l3.4-2.1-2.6-3.4c-1.4-1.8-2.6-4.3-2.6-5.4 0-1.1-.4-3.1-.9-4.4-.8-2-.4-3.4 1.9-7.1 2.7-4.2 3.3-4.6 7-4.6 3.8 0 5.2-1.2 3-2.5-.5-.3-1-3.7-1-7.4 0-3.8-.7-8.8-1.5-11.1-1.2-3.4-1.3-5-.4-8.1 1-3.2 1.9-4.1 6-5.8 4.3-1.7 4.9-2.4 4.9-4.9 0-3.6-1.9-9.2-3.1-9.2-.4 0-1.3.9-1.9 2-1.3 2.4-6.6 2.9-5.7.6 1.5-3.9 1.7-8.6.5-13.3-1.1-4-2.3-5.9-5.3-8.3-2.1-1.7-4.7-4.4-5.7-6.1-1-1.6-2.5-3.2-3.3-3.5-1.3-.5-1.3-.9 0-2.7 1.9-2.8 1.9-6.7-.1-9.5-.9-1.3-1.3-2.9-1-3.7.7-1.9-1.3-8.5-3.5-11.7-1.1-1.4-1.9-4.1-1.9-6 0-5.3-2.3-7.8-6.5-7.1-2.4.4-4.1.1-5.3-.9-.9-.9-2.7-1.9-3.9-2.2-1.3-.4-2.3-1.4-2.3-2.2 0-1-8.5-6.4-10.2-6.4-.2 0-.2 1.7 0 3.8.3 2.8-.1 4.2-1.7 5.6-1.2 1.1-2.1 3-2.1 4.3 0 2-.5 2.3-3.4 2.3-3 0-3.5.4-4.1 3-.5 2.3-1.2 3-3 3-2 0-2.5-.7-3.1-3.7-.4-2.1-1.8-5.7-3.1-8-2.3-4-2.3-4.2-.7-8 2.7-6.3 2-10.8-2.6-16.9-2.2-3-5.3-6-6.9-6.8-3.4-1.8-7.8-7.4-8.7-11.2-.4-1.6-2-4.6-3.7-6.7-3.2-4.2-6.8-17.4-4.9-18.6.5-.3 5.2-3.4 10.4-6.9l9.6-6.3 1.1-8.8c1.6-12.8 1.6-13.3-2.9-18.4-2.3-2.5-4.7-6.5-5.5-8.9-1.4-4.2-1.4-4.6 3.8-20.7 5-15.6 5.3-16.8 4.4-22.5-1-7.6-3-10.5-9-13.4-4.5-2.1-4.7-2.4-4.7-6.3 0-5.4-3.1-9.6-8.7-12-6.5-2.8-7.9-5.1-8.8-13.9-1.3-13.4-1.1-14.6 1.7-17.5 1.5-1.4 4.5-5.1 6.9-8.1 3.9-5.1 4.1-5.7 3.7-10.6-.4-3.9-1.1-5.6-2.9-6.9-6.9-5.2-7.7-6.1-8.7-10.1-1-3.7-1.8-4.7-5.9-6.8-3.6-1.9-5-3.3-5.7-5.7-.7-2.1-1.8-3.4-3.4-3.8-1.3-.3-6.1-2.6-10.7-5.1-6.7-3.6-8.5-5-8.9-7.2-.3-1.5-1.1-5.6-1.7-9.2-1.4-7.5-3.9-10.9-11-14.6-6.4-3.2-11.8-8.5-12.5-12.3-.5-2.5-1.1-3.1-3.3-3.1-1.4.1-4.4.7-6.6 1.5-5.4 2-6.5 1.9-6.5-.7 0-1.3-2.3-4.4-6-7.9-3.3-3.3-6.2-7-6.6-8.6-1.4-6.5-1.3-6.4-4.9-5.7-3.1.5-3.5.3-6-3.6-4-6.3-4-6.5.5-7.9 3.7-1.1 4-1.5 4-4.6 0-3-.5-3.7-3.7-5.3-2.1-1.1-5.1-2.2-6.6-2.6-3.8-.9-6.9-7.5-5.6-12 .9-3.2-1.1-12.7-3.3-15.4-.7-.8-3.9-1.2-9.1-1.2-7.7 0-8.3-.1-11.4-3.2l-3.2-3.1 2.4-2.9c3.7-4.3 3.2-7.2-2.2-13.4-4.1-4.6-5.3-5.4-8.3-5.4-6.8-.1-8-.8-8-5.1 0-2.5.9-5.2 2.6-7.6l2.6-3.8-4.6-4.2c-3.3-2.9-4.6-4.9-4.6-6.8 0-2.6.2-2.6 4-2 3.6.6 4 .5 4-1.4 0-1.2-.8-2.4-1.7-2.7-9-2.9-11.3-5.9-11.3-14.7 0-5.4-.3-6.2-4-10.6-3.5-4.1-4-5.4-4-9.7 0-6.3-4.6-14.8-8.6-15.8-1.4-.4-3.8-1.6-5.3-2.7-2.3-1.7-3.1-1.8-5.4-.8-3.6 1.6-5.7.6-5.7-3 0-2.7.4-3.1 4.3-3.8 3.3-.7 4.3-1.3 4.5-3.1.3-2 0-2.2-2.5-1.7-1.5.4-4.4 1.3-6.4 2-2.8 1-4.6 1.1-7.3.4-3.2-.9-4.3-.7-8.4 1.7-9.9 5.6-22.7 1-15.6-5.7 4.9-4.6 1.6-7.2-4.1-3.3-2 1.3-4.9 2.4-6.6 2.4-3.9 0-8.6 2.5-9.4 5-1 3.1-3.5 2.4-5.1-1.6-1.2-2.8-1.3-4.3-.5-6.7 1.4-4 1.4-4.7-.4-4.7-2.8 0-6-2.2-8.2-5.5-2-3-2.7-3.4-5.1-2.9-4.1.8-5-2-1.7-5.1l2.6-2.3-2.8-2.1-2.8-2.2 2.3-1.5c1.2-.9 2.2-2.2 2.2-3 0-1.8-3.8-3.7-6.1-3.1-1.4.4-2.4-.3-3.4-2.3-.8-1.6-2.5-3.7-3.8-4.7-1.3-1-2.7-3-3-4.4-.4-1.6-2.5-3.8-5.7-5.8-5.2-3.4-6.2-5.8-3.5-8.1 1.4-1.2 1.3-1.6-1.1-4.2-1.5-1.5-3.8-2.8-5-2.8-1.4 0-3-1.4-4.8-4-3.2-4.9-6.2-5.3-7.1-1-.4 1.6-1.3 3-2.1 3-1.8 0-2.8-4.1-2.1-9.1.6-4.4-1.1-6.1-3.8-3.9-3.8 3.1-6.1-2.3-2.9-6.8.9-1.3 1.4-2.4 1.3-2.6-.2-.1-2.6-.9-5.4-1.9-9.2-3.2-19.1-1.9-24.8 3.2-1.8 1.5-2.1 1.4-4.4-1.3l-2.5-2.9-5 1.8c-3.5 1.2-5.3 1.4-6 .7-.8-.8-1.7-.8-3-.1-1.4.7-2.4.7-3.4-.2-1.3-1-1.3-1.4.1-2.9.8-.9 1.5-2 1.5-2.3 0-1.3-4.6-.7-6.6.8-1 .8-3.3 1.5-5 1.5-2.1 0-3.6.7-4.6 2.1-1.2 1.9-1.7 2-3.7 1-1.6-.9-1.9-1.6-1.2-2.4.6-.9.4-2-.9-3.7l-1.8-2.4-1.9 2.3c-1.6 1.9-2.3 2.2-3.9 1.4-1-.6-3.3-.9-5-.6-2 .3-3.5-.1-4.3-1.1-1.5-1.8-5.1-2.2-5.1-.6 0 .5-1.5 1-3.4 1-2.7 0-3.9-.7-5.6-3-1.7-2.3-2.9-3-5.6-3-2.1 0-3.7.6-4 1.4z"/><path d="M148.1 580.6c-2.5.7-5.4 2.3-6.6 3.4-2.3 2.1-8.9 2.8-10 1-1-1.6-5.2-1.1-8.9 1.1-3.1 1.8-3.6 2.6-3.6 5.9 0 4.5 1.8 6.3 5.5 5.4 2.6-.6 2.6-.5 1.5 1.6-.6 1.2-1 3.9-.8 6 .2 2.1 0 3.6-.4 3.4-.5-.3-.8-1.1-.8-1.7 0-.7-.9-2.3-1.9-3.6-1.3-1.8-2.3-2.2-4-1.6-2.2.7-2.3 1-1.6 7.4.4 3.6 1.3 7.3 2.1 8.2.8.8 1.4 2.5 1.4 3.7 0 1.2.3 2.2.8 2.2 1.1 0 7.4-4 9.9-6.2 1.2-1.1 4.4-2.8 7.2-3.7 4.5-1.4 5.6-2.4 10.5-9.5 5.2-7.4 5.5-7.7 6.6-5.6 1.2 2.1 1.3 2 3.2-3.1 1.1-3 2.2-7.2 2.5-9.5.4-3.6.2-4.1-2.2-5.2-3.2-1.5-4.7-1.4-10.4.4zM140.7 617.2c-6.1 4.2-9 8.3-9.5 13.3-.9 8.2-.6 12.2 1.1 14.8 1.6 2.5 1.9 2.6 4 1.3 1.2-.8 3.9-1.8 5.9-2.1 2.9-.6 4.3-1.6 5.9-4.4 1.2-2 3.1-4.5 4.1-5.7 1.8-2 1.8-2.1-.2-3.9-2.6-2.4-2.5-4.1.5-8.1 2.9-3.8 3-4.4 1-4.4-.9 0-2.7-1.1-4.1-2.5-1.4-1.4-2.6-2.5-2.7-2.4-.1 0-2.8 1.9-6 4.1z"/></svg>
