<svg version="1.0" xmlns="http://www.w3.org/2000/svg" width="1365.333" height="1365.333" viewBox="0 0 1024 1024"><path d="M852.1 1.5c-1.8.8-4.3 1.5-5.5 1.5-3 0-7.4 4.8-8.2 9-.4 1.9-1.6 4.6-2.6 6-1.9 2.7-3.3 3.5-15.3 9.1-3.8 1.8-7.2 3.6-7.5 4-1.3 1.8-9.9 4.2-14.7 4-3.5-.1-6.9.5-9.9 1.9-3.7 1.6-6.8 2-14.5 2-9.4 0-10 .1-11 2.3-1.4 3.1-8.6 6.7-13.4 6.7-2.2 0-6.7 1.1-10 2.5-3.3 1.3-7.6 2.5-9.5 2.5-1.9 0-5.1.4-7 1-2.6.7-5 .6-9.3-.5-3.2-.8-7.5-1.5-9.5-1.5-2.3 0-4.4-.8-5.9-2.1-1.9-1.9-2.5-2-3.8-.9-.9.7-2.8 1.4-4.3 1.6-6.3.6-14.4 2.4-17 3.8-1.5.8-4.2 2.2-5.9 3.1-1.8.8-3.3 1.9-3.3 2.3 0 1.5-12.9 4.3-22.5 4.7-5.5.3-11.9.8-14.3 1.1-3.8.5-4.9.2-8.7-2.5-5.1-3.7-8.4-3.9-17.4-1.1-8.1 2.6-20.8 8.6-21.8 10.4-.4.8-2.4 2.1-4.3 3-6 2.9-9.7 5.1-13.1 8.1-5.4 4.5-18.7 10.3-27.4 12-10.7 2-11.2 2-12.9-1.4-2-3.8-6.1-5.1-14.3-4.4-6.8.5-9.9-.2-21.1-4.8-3.1-1.3-3.7-1.2-9.2 1.9-3.2 1.7-6.7 3.2-7.8 3.2-1 0-2.9 1.2-4.3 2.6-4.6 4.9-8.6 6.7-13.7 6.1-4.5-.5-4.8-.3-10.2 4.6-5.3 4.9-13.8 9.7-17.1 9.7-.9 0-2.3 1-3.1 2.2-1.4 2.1-2.1 2.2-10.9 2-6.2-.2-10.8.2-13.4 1.1-3.1 1.1-5.6 1.2-11 .5-3.8-.5-8.9-1.2-11.3-1.4-3.4-.4-5.5-1.6-9.8-5.5-3-2.7-5.9-4.9-6.5-4.9-.6 0-3.2-1.7-5.8-3.8-2.5-2.1-6.3-4.8-8.3-6.1-5.6-3.3-21.9-21.8-26.3-29.5-2.1-3.7-4.4-7-5.1-7.3-.7-.2-2-2.8-3-5.6-2.1-6.5-4-9.7-6-9.7-.8 0-3-1.6-5-3.5-1.9-1.9-4-3.5-4.7-3.5-.7.1-10.2 13.4-21.2 29.6-11 16.2-21 30.8-22.2 32.4-3 3.7-2.9 5.4.6 9.8 1.7 2.1 4.1 7.4 5.6 12.4 2.6 8.8 4.4 11.2 13.6 18.3 1.6 1.3 3.4 4.5 4.7 8.5l2.2 6.5 6.5 1.9 6.4 1.8 1.6 7.7c.9 4.2 1.9 8.4 2.2 9.4.2.9 2.2 2.6 4.3 3.7 3 1.5 4.2 2.9 5.1 5.8 1.4 4.9 6.7 9.2 12.8 10.5 4.1.9 5.9 2.4 17.6 14.3l13 13.3 41.5 14c22.8 7.7 73.9 24.6 113.6 37.5l72.1 23.6h71.6l-6.9 7.3c-29 30.4-103.2 106.8-155.3 159.9L420.5 530l-8-.5c-16-1-65.5-2.6-66.3-2.1-.4.2-9.4 2.7-20.1 5.5-15.1 4-21.9 6.3-31.4 11-16.3 7.8-19.7 10.5-22 16.9-1 3-4.1 7.9-7.3 11.7-5.2 6.1-5.8 6.5-9.8 6.5-2.4 0-7.3 1.1-10.9 2.5-5.6 2.1-9.3 2.6-24.1 3.3l-17.5.9-3.9 3.4c-2.2 1.9-4.8 4.9-5.7 6.7-.9 1.8-2.3 3.6-3.1 3.9-.8.3-2.4 2.3-3.5 4.5s-4.4 7.2-7.3 11.2c-2.9 3.9-11.2 15.4-18.5 25.6-10.3 14.5-16.1 21.4-26.6 32L121 686.5l-.2 137.6-.2 137.6 21 28.2c11.5 15.5 21.4 29.6 22 31.3l1 3.2 5.7-8.7c3.2-4.8 6-9.5 6.4-10.4.3-1 2.1-3.5 3.9-5.5 1.9-2.1 3.6-4.9 4-6.3.3-1.4 1.2-2.5 2-2.5 1.5 0 3.4-3.4 6.5-11.4 1.1-3.1 2.4-5.6 2.9-5.6 1.1 0 7-8.7 7-10.3 0-.7 1.4-1.7 3-2.2 2-.7 5.4-4 10.3-10.1 12.1-15.2 24.4-28.9 41.3-45.8 8.8-8.8 18.3-18.8 21-22 2.7-3.3 6.3-7.4 7.9-9.1 1.7-1.8 6.5-7 10.7-11.7 4.2-4.6 11.6-11.8 16.5-15.9 4.8-4.1 10.6-9.2 12.8-11.4 4.9-4.9 13-11.5 14.2-11.5.5 0 1.6-.8 2.5-1.8 1-.9 3.8-3.5 6.3-5.7s7.2-6.5 10.3-9.5c16.2-15.8 58.9-45.4 76.6-53.2 3.9-1.7 16.8-9 28.6-16.3 11.8-7.3 24-14.6 27-16.3 5.1-2.9 28-24.9 28-26.9 0-.5 1.2-1.6 2.8-2.5 1.5-.9 5.4-4.3 8.7-7.5 3.3-3.2 8-7.6 10.5-9.8 2.5-2.3 6.1-5.9 8-8 1.9-2.2 4.9-5.2 6.7-6.6 1.8-1.5 4-4.1 5.1-5.8 2.6-4.2 26.8-30.2 35.5-38 3.9-3.5 9-8.9 11.4-11.9 3.8-4.9 9.7-11.5 29.4-32.7 3.1-3.3 7.3-9.2 9.4-13 2.1-3.9 4.6-7.9 5.6-9.1 1-1.1 4.3-6.6 7.4-12.3 3-5.6 9.3-15.3 14-21.4 4.7-6.2 11.8-15.6 16-21 15.4-20.2 39.6-64.6 38.1-70.1-.6-2.2 5.5-21.5 8-25.3.8-1.2 1.4-3.3 1.4-4.7 0-1.4 2.1-5.2 4.8-8.8 2.6-3.5 7.6-11 11.1-16.8 3.5-5.8 7.9-12.1 9.7-14 3.3-3.5 13.6-23.1 14.9-28.3.4-1.6 1.8-3.5 3-4.3 1.9-1.3 2.3-2.6 2.7-9.4.4-7.4.7-8.2 4.3-12.6 2.2-2.6 5.9-5.9 8.3-7.3 8.2-4.8 11.3-8.1 11.9-13.1.3-2.5 1.2-4.9 1.9-5.3.8-.4 2.1-2.2 3-4 .9-1.8 3.5-5.4 5.6-8.2 3.3-4.1 3.9-5.6 3.5-8.1-.4-2.5 0-3.7 1.8-5.4 1.9-1.8 2.5-3.7 3.1-9.1l.6-6.8 6-4.7c7-5.5 11.8-11.7 11.8-15.2 0-2.9 3.4-8.7 5.5-9.6.8-.3 1.5-1 1.5-1.6 0-.6 1.9-3.7 4.1-7l4.2-5.8-2-2.5c-1.9-2.5-1.9-2.7-.2-12.9 1-5.7 3-13.7 4.5-17.8 2.3-6.4 2.5-8.1 1.6-11.4-.7-2.6-.7-4.8 0-6.8.6-1.6.8-4.9.4-7.4-.5-4.2-.4-4.5 3.2-6.9 5.1-3.3 20.5-6.7 22.4-4.9.7.7 3.1 1.6 5.3 1.9 3.8.6 4.2.5 5.3-2 1.4-3.1.2-5.5-2.7-5.5-.9 0-3.8-.8-6.4-1.7-4.1-1.5-4.9-1.5-5.7-.3-.5.9-.5 1.9.1 2.6 1.3 1.6-1.1 2.4-7.4 2.4h-5.2l3.3-2.2c2.7-1.6 3.2-2.6 2.8-4.4-.5-1.8-.1-2.3 1.6-2.6 2-.3 2.3-.8 2-3.8-.2-1.9-.8-3.9-1.3-4.5-.5-.5-.9-6-.9-12.2 0-9.7.3-12 2.4-16.8 2.7-5.9 2.2-7.5-2.3-9-1.2-.3-2.3-2.1-2.8-4.3-.8-3-.5-4.7 1.3-8.8 1.2-2.8 2-6.3 1.7-7.6-.6-3.3 1.8-8 6.3-12 2.9-2.7 3.5-3.8 3.1-6.3-.3-1.6.2-4.3 1-5.8 1.6-3.2 1.1-5.9-1-5.2-.7.3-3-.1-5-1-2-.8-5-1.5-6.6-1.5-1.6 0-3.3-.4-3.6-1-.3-.5-3.8-1.9-7.8-3s-8-2.5-8.9-3c-2.3-1.3-3.6-1.2-7.7.5z"/></svg>
