<svg version="1.0" xmlns="http://www.w3.org/2000/svg" width="1365.333" height="1365.333" viewBox="0 0 1024 1024"><path d="M735.4 134.1c-.6 1.3-.6 4.9-.1 9.5.5 4 .6 9 .2 11l-.6 3.7-26-.7c-14.2-.4-25.9-.6-25.9-.3 0 .2 5.4 5.3 12 11.3l12 10.8v47l3.4 3.6 3.5 3.5-16.1 14.5c-8.8 8-18.5 16-21.5 17.9-5.2 3.2-5.9 4.1-10.2 13.2-4.1 8.8-7 12.7-28.1 37.8L614.5 345h-15.4c-11.7 0-16.7.4-20.8 1.7l-5.3 1.7-4.3-4c-2.3-2.1-6.7-6.2-9.7-9.1-6.9-6.5-54.3-36.3-57.8-36.3-.5 0-8.4 4.1-17.5 9.1l-16.7 9.1-.1 7.6c0 8.7-1.2 16.9-2.5 18.2-.5.5-8.1 1.4-16.9 2.1-13.1 1-16.9 1.7-20.7 3.6L422 351v-38.3l-48.2.7c-26.5.4-48.4.9-48.6 1.1-.3.2-.7 8.2-1 17.7-.4 16.5-.4 17.6 1.7 21.7 1.2 2.3 2 4.5 1.7 4.8-.3.3-15.7.1-34.3-.4l-33.8-.9-5.5 2.7c-6.1 3.1-19.8 7.9-24.5 8.6-2.8.4-20.8-3.3-26.6-5.6-3.5-1.3-8.3-10.1-11.5-21-2.1-7.3-3.3-9.4-9.4-16.6-3.8-4.5-9.4-10.4-12.4-13l-5.6-4.7.7-8.7c.7-10.3 1.3-9.7-11.1-10.7-7.6-.6-8.8-.4-11.9 1.5-2.8 1.7-5 2.1-12.3 2.1-16.5 0-34.1 5.4-38.3 11.8-2.2 3.3-2.2 3.7-.7 6.8 2.6 5.6 0 9.8-13.9 22.3l-12 10.7-.3 13-.4 12.9-5.9 4.8c-5.7 4.7-5.9 5-5.9 9.5 0 3.1-.7 5.5-2 7.2-2.3 3-2.6 11.2-.9 22 1.1 6.6 1.1 6.9-1.4 10.1-2.2 3-5 4.3-21.6 10.4L7 440.4l-.6 3.5c-.6 2.8-.3 3.7 1.7 5.2 2.7 2 2.7 1.8-4.9 10-2.9 3.1-3.3 4.1-2.7 7.1.9 4.5 1 4.7 8.3 9.8l6.2 4.3 6.5-.9c6-.9 6.6-.8 8.7 1.2 2 1.9 4.5 2.5 17.4 4l15.2 1.8 3.8 8.9c3.2 7.5 4.6 9.6 8.7 12.8 4.1 3.3 5.1 3.7 7.3 2.9 1.4-.6 3.1-1 3.7-1 1.9 0 5.4 6.2 7.3 12.6.9 3.3 1.9 6.4 2.1 7 .2.7-1.2 1.7-3.1 2.4l-3.6 1.2v12.5l3.6 1.4c2.4.9 6.3 4.5 11.8 10.9l8.1 9.4 18.6 7.1 18.5 7 15.5 17c12.5 13.6 16.6 17.5 20.7 19.4 2.9 1.4 5.2 2.9 5.2 3.5 0 .5-1.4 2.5-3.1 4.2l-3.1 3.3.7 9.3.7 9.3 9.9 5.9 10 5.8-3.1 5.4c-1.6 3-3 5.8-3 6.4 0 .5 1.4 1 3.1 1 2.3 0 4.4 1.1 7.5 4 4.2 3.8 4.6 4 11.1 4l6.8.1 15.5 10.8c13.7 9.5 15.9 11.4 19.1 16.7 3.5 5.7 3.6 6.2 4.2 18.4.3 6.9.8 13.4 1.2 14.6.3 1.1 4.7 5.1 9.6 8.9 9 6.9 9 6.9 6.5 8.2l-2.5 1.3 2.8 6.3c2.7 6.1 2.8 6.2 9 8.2 4.5 1.5 6.9 2.9 8.4 5 1.1 1.7 3 4.1 4.3 5.5 1.3 1.5 2.5 4.6 2.9 7.5.4 3.3 1.5 5.9 3.3 7.7 2.4 2.6 3.2 2.8 10.3 2.8h7.7l2.3 5.5c2.2 5 2.7 5.6 5.1 5.2 2.3-.3 2.9.3 4.9 4.5 2.4 5.2 2.9 5.4 10.6 3.9 4-.8 4.4-.6 6.6 2.2l2.3 2.9 11-5.5c9.5-4.8 11.9-6.4 16.1-11.5l5-6 4.3 3.4c4.5 3.6 5.3 3.7 14 2.4 5.5-.8 5.5-.8 15.8 5.2 9.2 5.4 10.4 5.9 12 4.6 14.1-11.8 13.8-11.6 15.7-18.3 1.7-6.4 1.8-6.5 5.1-6.5s8.8 1.9 19.6 6.7l5.6 2.5.7 7.9.7 7.9 5.3 3.7c3.4 2.4 5.1 4.2 4.8 5.3-.3 1 2.5 3.6 8.6 8 8.7 6.2 9.2 6.8 11.1 12.6l2.1 6.1 15.1 4.4c11.8 3.4 15.2 4.8 15.9 6.4.4 1.1 1.1 6 1.4 10.9l.7 8.9 7.7-.7c6.2-.5 7.9-1 9.3-2.8.9-1.3 1.8-2.1 2-1.8.3.3 2.2 2.7 4.3 5.5 2.2 2.7 4.2 5.4 4.6 5.9.4.5 2.4-2.4 4.4-6.3l3.6-7.2 8.3-3.9c4.6-2.1 10.6-4.1 13.4-4.5 4.7-.6 6-.3 18 5l12.9 5.6 6.6-4c3.6-2.2 8.3-4.9 10.5-6l4.1-2.1 5.5 5.1c3.1 2.8 5.6 5.7 5.6 6.5 0 2.9 17 12.4 22.2 12.4.4 0 .8-1.5.8-3.4 0-3.2.7-3.9 9.3-10l9.2-6.6h26.2l13.7-6.1 13.6-6 7.2 5.6 7.2 5.7 15.6-.7 15.5-.7 37-36.8 37-36.9 48.5-1c26.7-.6 57.2-1.4 67.8-1.7l19.3-.6-2.3-2.9c-11.3-14-10.6-12.7-12.3-24.4l-1.5-11 2.2-1.7c1.3-1 2.7-1.8 3.2-1.8s.6-2.1.2-4.8c-.3-2.6-.2-6.3.4-8.2.9-3.1.7-3.7-2-6.5-2.3-2.4-5.6-3.9-13.8-6.4l-10.8-3.3-7.5 4.1-7.6 4.1-2-2.3c-1.2-1.2-2.4-4.3-2.8-6.9-.7-4.7-.9-4.9-9-10l-8.2-5.1-5.7-11.4c-5.2-10.5-5.6-11.8-5.6-18.3s-.3-7.5-4-13.5c-5.7-9-12.8-25.2-14.1-32.1-2.3-12.7-6.3-16.9-17.9-19.4l-6-1.3v-5c0-4.5-.3-5.2-4.2-8.8-3.3-2.9-5.2-3.8-7.9-3.9-8.9-.1-9.7-.6-14.1-9.5-3.8-7.6-4.5-8.4-9.9-11.4-5.8-3.2-5.9-3.3-5.9-7.7 0-4.2-.3-4.8-6.7-10.6-3.8-3.4-10.4-9.8-14.8-14.3-7-7.3-8.5-8.3-12.5-8.9-2.5-.4-7.1-1.6-10.3-2.8-5.7-2-5.9-2-11.6-.3l-5.8 1.7-4.3-2.8c-4-2.7-5.1-2.9-12.7-2.7-8.2.1-8.3.1-8.9-2.5-.3-1.5-1-4.2-1.4-6-.5-2-.5-4.4 0-5.8 1.3-3.4 8.5-12.6 10.9-14.2 1.2-.7 2.1-2.3 2.1-3.7 0-1.4.5-3.4 1.2-4.4.9-1.4.8-2.3-.5-4.2-2.8-4-2.2-9 1.6-12.6 3.1-3 3.7-3.2 18.1-4.7 16.6-1.7 15.9-1.8 25.1 4.8l5 3.7 3-3.6c2.3-2.7 3.8-3.5 6.3-3.5 7.9 0 11.5-1.8 16.1-8.2l4.4-6-1.7-32.1c-.9-17.7-1.9-34.2-2.2-36.7l-.6-4.5-9.5-4.5c-10.8-5.1-13.9-8.4-14.9-16-.5-4.3-.3-4.9 6-13.5 3.6-4.9 6.6-9.2 6.6-9.5 0-1.2-4-23.3-4.2-23.5-.2-.2-1.8-.7-3.7-1.2-3-.8-3.8-1.7-6.2-7.3-2.3-5.4-4.3-8-12.2-15.5-5.2-5-11.6-11.8-14.1-15.3l-4.7-6.2h-6.8c-6.5 0-6.8-.1-10.5-3.9l-3.8-3.9 1.7-3c1.8-2.9 1.7-3.6-3.9-33.3-3.1-16.7-5.6-31.6-5.6-33.1s1.1-6.7 2.5-11.4c2.3-7.9 3.8-16.8 5.2-31.4.3-3 1.4-6.7 2.5-8.2l1.8-2.7-4.2-.5c-4.5-.6-34.7-2.6-38.4-2.6-1.2 0-2.5.9-3 2.1z"/></svg>
