<svg version="1.0" xmlns="http://www.w3.org/2000/svg" width="1365.333" height="1365.333" viewBox="0 0 1024 1024"><path d="M993.5 46.1c-2.2 2.2-8.3 7.8-13.6 12.4-8.7 7.6-10.1 8.5-16.5 10.1-3.8.9-9.1 2.9-11.9 4.4-5.6 3-17.5 6-24.2 6-4.3 0-9.1 1.9-16.3 6.5-4.7 3.1-17.7 4.5-39.5 4.6-14.2 0-18.2-.3-24.2-2-5.6-1.6-10.3-2.1-20-2.1-7.1-.1-17.5-.5-23.3-1-15.3-1.2-20.6-.1-30.3 6.8-8.9 6.2-19.7 11.1-24.4 11.2-4.2 0-21.4 9.1-36.8 19.4-10.8 7.1-12.7 8.1-19 9.1-6.3 1-8.1 1.8-17.8 8.5-5.9 4.1-12.9 8.7-15.6 10.2-5.3 3.1-16.7 5.8-24 5.8-2.7 0-6.6.7-8.7 1.6-5.8 2.5-13.1 4.3-20.9 5.4-3.8.5-11.1 1.8-16 2.8-5 1.1-12.4 2.3-16.5 2.6-4.1.4-10 1.2-13 1.8-5 .9-6 .7-9.1-1.1-5.9-3.5-16.8-4.3-41.4-3.3-28.5 1.2-28.2 1.3-32.3-4.9-2.7-4.1-6.1-6.8-17.5-14.3-19.1-12.5-22-14.1-30.2-16.4-17.5-5-28.5-3-44.5 8-14.9 10.2-21.5 13.4-30.9 15.2-4.6.9-10.3 1.6-12.8 1.6-7.2 0-25.6 7.2-39.8 15.5-7.9 4.7-14.1 6.5-18 5.3-6.2-1.9-19.4-3.2-30-3-9.3.2-11.4.5-13.7 2.2-3.6 2.6-4.6 2.5-8-.6-2.4-2.4-2.6-3.2-2.1-6.9.4-3 0-5.2-1.4-8-1.9-3.7-2.4-4-18.9-9.7-20.2-7.1-28.3-8.6-32-6.1-3.6 2.6-10.4 16.4-10.4 21.1 0 2-.7 4.8-1.6 6.1-1.2 1.7-1.7 4.8-1.8 11.5-.1 8.5-.3 9.6-2.8 12.9-2.6 3.3-2.8 4.3-2.8 12.8v9.3l4.2 4.3c3.6 3.6 4 4.6 3.2 6.5-1.6 3.7-.6 5.8 2.6 5.8 1.6 0 4.2 1.1 5.9 2.6 2.8 2.3 3.1 3.2 3.1 8 0 7.1-1.3 7.8-13.4 7-8.2-.6-9.9-.4-16.5 1.8-4.1 1.5-7.8 2.6-8.3 2.6-.5 0-1.4-1.4-1.9-3-.8-2.1-1.7-3-3.3-3-3.3 0-3.7.9-2.1 4.7 1.8 4.4 1.8 4.3-.1 4.3-1.3 0-1.5.8-1 3.7.3 2.1.8 7.7 1.1 12.6.7 8.4.6 8.9-2.1 13.2-2.5 3.9-3.3 4.4-6.8 4.7-3.8.3-4.1.6-4.9 4.2l-1 3.8-4.4-.6c-8.6-1.2-11.2 2.3-12.9 17-1 8.4-4 10.1-6.6 3.6-1.4-3.5-1.9-3.9-6-4.5-8-1.1-9.6-2.3-10.3-7.9l-.7-5-6 .6c-8.7 1-12.6 3.2-13.4 7.4-.5 2.3-1.4 3.7-3.3 4.5-1.4.6-3.7 1.9-5 2.9-1.3 1-3.3 1.8-4.3 1.8-1.5 0-1.8.4-1.3 1.7 1.5 4 3.5 14.1 3.5 17.9 0 4.7-3.1 8.3-9.3 10.9-3.4 1.4-3.6 1.8-2.6 3.7 1.5 2.9.5 9.5-1.9 12.1-1.1 1.2-2.3 3.4-2.7 4.9-.6 2.2-.3 2.7 1.7 3.3 2.6.9 20.9 17.5 23.5 21.4 1.5 2.2 1.7 4.7 1.4 16.6-.2 13.6-.2 14.1 2.4 18.8 2.5 4.5 2.6 5.1 1.5 9.5-.6 2.5-2.7 8-4.6 12.1-2.4 5.3-3.4 8.8-3.4 12.5 0 5.4-1 10-3.1 15.4-1.2 2.8-1.1 4.3.9 12 1.2 4.8 2.2 10.2 2.2 12 0 2.8 2.1 10.8 8.3 31.6 2.2 7.1 4.3 7.9 24.5 8.8 9.7.4 19.4 1.1 21.4 1.6 3.6.9 3.9.8 5.9-2.4l2-3.4 3.7 1.6c2 .8 5.2 2.4 7 3.5 1.8 1 4.2 1.9 5.2 1.9 3.2 0 5 1.1 5 3.1 0 1.4-.7 1.9-2.6 1.9-4 0-6.4 1.8-6.4 4.7 0 1.7-1 3.5-2.5 4.8-1.3 1.1-2.6 3.3-2.7 4.8-.3 2.8 0 3 6.3 4.6 6.9 1.7 12.2 5.2 17.9 11.8 3 3.3 3.2 4 2.7 8.6-.7 5.8 2.4 14.7 5.2 14.7.9 0 2.2.4 3 .9 1.2.8 1.2 1.3-.2 3.5-2.1 3.1-2.2 6.8-.3 10.4 2.5 4.8 2.3 7.1-.4 8.5-1.8.9-2.6 2.2-2.8 4.5-.3 2.5-1.2 3.9-4.3 5.9-3.4 2.2-3.9 3.1-3.9 6.3 0 3.4-.4 3.9-4.2 5.6-2.7 1.2-5.8 1.8-8.5 1.6l-4.3-.4v3.5c0 3.1-.8 4.2-6.7 9.3-3.8 3.2-8.5 7.3-10.5 9.2l-3.6 3.5 1.6 3.3c1.4 3.1 1.9 3.4 6.2 3.4 3.6 0 5.2.5 6.9 2.4 2.1 2.3 2.2 2.5.7 5.5-2.8 5.3-4.6 5.5-10.5 1.1l-5.2-3.9-10.2.6c-8 .4-10.6 1-12.3 2.4-1.2 1.2-3.6 1.9-6 2-3.6 0-4.4.6-9.4 6.7-8.2 9.8-10.9 13.8-11.6 16.9-.4 1.5-1.5 3.5-2.6 4.4-2.9 2.3-1.6 6.3 1.8 5.6 2-.3 2.8.2 4 2.4.8 1.7 2.3 2.9 3.4 2.9s3.4 1.4 5.2 3l3.3 3-2.8 2.5c-1.5 1.4-3.9 2.5-5.3 2.5s-4.3.9-6.4 2c-3.7 1.9-4 2.3-4 6.4 0 3.6-.7 5.2-4.2 9.5-2.5 3.1-5 5.1-6.2 5.1-4.5 0-6.2 1.3-9.1 6.7-2.7 5.1-3.6 5.9-10.2 9-4 1.8-7.7 4.2-8.2 5.2-.6 1-2.5 2.4-4.3 3-5.4 2-11.8 5.3-11.8 6.2 0 1.4 3.8 2 7.6 1.3l3.7-.7-.7 3.4c-.4 1.9-1 5.6-1.3 8.4-.3 2.7-1.6 8.1-2.9 11.8-1.4 4-2.4 9.2-2.4 12.5-.1 3.1-.7 6.8-1.5 8.2-1 1.8-1.4 6.1-1.5 15.6 0 16.2 1.2 22.9 4.7 26.6 3.6 3.8 2.9 9.3-2.2 14.9-2 2.3-3.5 4.2-3.3 4.4.2.2 1.9.5 3.9.6 2.7.2 5.1-.8 11.3-4.9 8.8-5.8 10.8-6 19.2-2.1 2.2 1 5.9 1.9 8.1 1.9 3.2 0 4.4.5 5.7 2.5 1.2 1.9 2.6 2.5 5.4 2.6l3.7.1-3 1c-3.9 1.4-3.8 1.3-3 3.7.5 1.8 1.5 2.1 5.5 2.1h4.9l.6 4.7c.3 2.7 1.9 7.5 3.5 10.8 1.6 3.3 3.1 6.9 3.2 7.9.3 1.7 1.1 1.9 7.3 1.7 3.9-.1 8.1-.5 9.3-.8 1.9-.4 3.5.6 8 4.9 3.2 3 8 6.9 10.9 8.7 2.9 1.8 7.5 6.1 10.3 9.5 5.1 6.3 5.2 6.3 11.2 7 3.4.3 6.7 1.1 7.4 1.7.7.6 7.7 1.8 15.6 2.6 7.9.9 15 2.1 15.8 2.8.8.7 3.3 1.3 5.5 1.4 2.2 0 7.3.9 11.3 2l7.4 1.9 1.5-2.7c1.1-1.8 25.8-18.2 76.7-50.8 87.7-56.1 258.1-159.1 447.3-270.3l118.2-69.5 5.7-13.5c6.5-15.3 16.3-35.2 23.7-48.4l5-9-2.7-37c-1.4-20.4-2.6-39.4-2.6-42.2 0-3.5 1-7.4 3.4-13 3.2-7.3 3.5-9 4.5-24.3 1.2-18.1.5-16 11-33.1l5.2-8.5-.3-18c-.3-17.8-.3-18.1-3.5-25.5-1.8-4.2-6.6-13.3-10.7-20.3l-7.5-12.7 1.6-28.3 1.5-28.2 8.7-16.8c8.1-15.7 8.8-16.8 12.1-17.7 1.9-.5 16.4-4.1 32.2-8.1l28.8-7.1 37.5-42.9c35.4-40.4 40.3-46.9 36-46.9-1.8 0-1.8.3-.4-5.9 1-4.6.9-5.4-1.1-8.2-2.1-2.8-2.2-3.5-1.1-8.7l1.1-5.7-4.7-4.2c-3.7-3.1-5.9-4.3-9.5-4.7-4.6-.6-4.7-.7-4.1-3.6.5-2.8.3-3-2.4-3-2.1 0-4 1.1-6.8 4.1z"/></svg>
