<svg version="1.0" xmlns="http://www.w3.org/2000/svg" width="1365.333" height="1365.333" viewBox="0 0 1024 1024"><path d="M316.2 2.5c-.7 1.4-1.2 2.8-1.2 2.9 0 .2 3 1.7 6.8 3.2 5 2.1 9 3 15.7 3.4l9 .5 3.2 9.2 3.2 9.2-5.1 3.7c-4.7 3.5-5 4-4.5 7.1.4 2-.4 8.1-1.9 14.6-2.4 11.1-2.5 11.2-8 16.6-5.3 5.1-5.5 5.6-6 11.5-.5 5-.1 7.2 1.9 12.1 2.5 6 2.5 6 12.8 11.6 6.8 3.7 11 6.7 12.1 8.6 1.3 2.2 3.6 3.6 9.7 5.8l8 2.9 4.2 11c2.3 6.1 4.6 11.7 5.2 12.3.5.7 3 1.3 5.6 1.4 11.5.2 12.4.6 19.6 10.2l6.7 8.9 4.4-.7 4.4-.6v5c0 4.8-.1 5.1-3.2 5.9-2.8.7-3.3 1.4-4.9 7.4-1.7 6-1.7 7.1-.4 10.9.8 2.3 1.5 7 1.5 10.4v6.2l6 4.2c5.6 4 6 4.5 6 8.2 0 2.1-.1 3.9-.2 3.9-.2 0-2.8-.7-5.8-1.5-6.1-1.6-7-1.1-7 3.9 0 1.9 1.4 4.5 4.1 7.7l4.1 4.9-3.1 3.7c-2.7 3.3-3.1 4.5-3.1 10.2 0 5.7-.4 6.9-4 12.3-3.5 5.3-4 6.7-4 11.8 0 5.4.2 6 3.1 8.1 2.7 1.9 3 2.6 2.6 5.5-.4 2.4.4 5.7 2.9 12 1.9 4.7 3.4 8.8 3.2 8.9-.2.2-6.6 1.1-14.3 2-7.7.9-14.2 1.8-14.4 2.1-.2.2-.6 2.6-.9 5.4l-.5 5h7.7c4.2 0 7.6.2 7.6.4s-1.2 2.4-2.6 5l-2.5 4.6-6.1-3.1c-3.3-1.7-6.2-2.8-6.4-2.6-.3.2.5 3 1.6 6.1 2.5 6.5 2.2 6.4 14.9 3.5 8.4-1.9 9-2.2 9.6-5 .4-1.6 1-3.1 1.5-3.4.5-.3 6.6.1 13.7 1 7 .8 13.1 1.5 13.6 1.5.4 0 .7 2 .7 4.4 0 4.3.2 4.5 6.8 9.2 3.7 2.6 6.8 4.8 6.9 4.9.2.1-.8 3.9-2.2 8.4-1.5 5.1-3.9 10.4-6.4 13.8l-3.9 5.5 2.5 5.4c1.3 3 2.1 5.9 1.7 6.6-.4.7-2.4 3.5-4.5 6.3-2.2 3-4.8 8.6-6.5 13.8l-2.8 8.8 6.2 12.4c7.1 14.3 7.8 18.5 3.8 23.8-2.1 2.8-2.3 3.8-1.6 8l.7 4.9-5.4-.7c-4.8-.6-5.8-.4-7.9 1.6-2.3 2.2-2.4 2.2-6.4.4-4-1.8-4-1.8-6.5.5l-2.5 2.4 2.4 2.5c1.6 1.8 2.2 3.2 1.7 4.5-.5 1.3 1.4 6.1 6.2 15.5 3.8 7.5 7.7 14.3 8.6 15.2.9.9 4.6 2.8 8.2 4.4 4.5 1.8 8.3 4.3 11.5 7.6 4.6 4.7 5 4.9 10.5 4.9s5.6 0 7.3 3.9c1.7 3.5 1.7 4.1.2 6.9-2.5 4.8-2 5.8 3.7 7.9 4.7 1.8 5.5 2.5 8.1 7.9 1.6 3.2 3.1 8.2 3.4 11l.4 5.1-7.2 2.9c-4.9 1.9-8 3.8-9.6 5.9-1.3 1.7-4.9 4.9-8 7l-5.6 3.9 3.6 2.9 3.6 2.9-2.5 3.2c-2.4 3.2-2.5 3.8-2.5 19.7 0 15.7.1 16.8 2.9 23.9 3.8 9.9 4.8 18.7 2.7 22.9-1.4 2.7-1.5 3.5-.3 6.4 1.3 3 1.2 3.5-.9 6.7l-2.3 3.4 2 3.3 2.1 3.3h-3.1c-2.7 0-3.1.4-3.6 3.7-2.2 12.5-2.6 13.4-8 15.4-2.7 1.1-6 2.3-7.1 2.8l-2.2 1 2 9.3c1.1 5.4 1.7 10.9 1.3 13.1-.5 3.2.2 5.1 4.1 12.3 2.5 4.6 4.8 8.4 5 8.4.3 0 1.9-.7 3.6-1.6 2.2-1.1 4.3-1.4 7.8-.9 5.7.8 5.6.4 6.6 16.5.8 13.9-.5 19.6-7.7 34.1l-4.8 9.6.6 9 .6 8.9-8.2 5.3c-4.4 2.9-8.1 5.7-8.1 6 0 .4 2 2.7 4.5 5.1 2.5 2.4 4.5 4.8 4.5 5.3s-2 3.5-4.5 6.7l-4.5 5.9 4.5 2.6c3.9 2.4 4.5 3.1 4.5 6.1 0 3.1.6 3.8 7.2 8 4 2.6 7.4 4.8 7.6 4.9.2.2-.4 4-1.4 8.4l-1.7 8.1 3.9 5.7c3.3 4.7 4.8 5.9 9.4 7.6 9.2 3.3 10.7 5.6 7 10.7l-2.1 2.9 3.5 6.8c4 8.1 4.4 8.4 16.8 15.8 5.4 3.1 10.1 6.2 10.6 6.8.5.7 1.4 3.1 2 5.3 1.4 4.8 2.6 5.3 11.7 5.5 3.3.1 7.3.4 8.9.8 2.9.6 3 .7 7.9 14.2 1.3 3.4 2.6 5 5.1 6.2 2.3 1.1 4.3 3.3 6.3 6.9l2.8 5.3 10.5.5 10.5.5.6 5.8c.4 3.2.8 6 1.1 6.2.2.3 7.2-1.7 15.4-4.5 26-8.5 51.9-15.9 62.1-17.6 7.8-1.2 48.8-11.9 50.1-12.9.5-.5-11.8-39.9-12.6-40.5-.5-.3-2.5-1.5-4.5-2.8-3.2-2.1-3.7-2.9-3.7-6.3 0-3.8-.2-4-10-10.4l-10-6.4v-5.8c0-4.6-.5-6.2-2.4-8.2-1.3-1.5-2.6-4.3-2.9-6.3-.6-3.7-.5-3.8 3.4-4.8 3.8-1 3.9-1.2 3.9-5.3-.1-3-.9-5.4-2.9-8.1l-2.8-3.9 1.4-7.9 1.4-8-2.6-3.4c-3.2-4.2-8.7-16.3-7.9-17.5.3-.5 1.7-.9 3.2-1 1.5 0 5-.6 7.9-1.2l5.2-1.2.5-124.5.5-124.5-3.1-10.9c-3.9-14.3-3.6-18.7 2.1-29.8l4.3-8.3-2.2-5.5c-2-5.2-2.1-6.5-1.5-21.5.4-9 .2-27.3-.5-41.8-.9-20.5-.9-27.2.1-32.1l1.2-6.3-6.8-13-6.9-13.1-7.3-4.3c-6.2-3.8-8.2-5.7-14-13.8-3.8-5.2-7.1-9.9-7.4-10.5-.4-.6-1.7-9-2.9-18.6-1.2-9.6-2.8-18.6-3.5-20-.8-1.6-3-3-6.1-4-4.7-1.6-4.9-1.8-5.2-5.9-.3-3.5.3-5 3.3-9.2l3.6-5.1-1.6-39.1c-.8-21.6-1.9-39.5-2.3-39.8-.4-.4-26.6-19-58.2-41.4s-57.7-40.8-57.8-41c-.2-.2.2-7 .8-15.2l1.3-14.9 3.8-2.7c4.6-3.3 4.5-3.1 2.1-20.9l-1.8-12.7 8.4-9.6 8.4-9.6 2.8-17.2c1.5-9.4 2.7-17.3 2.5-17.5-.1-.1-11-.7-24.1-1.3l-24-1.1-14.5 4.6c-8 2.5-15.1 4.6-15.7 4.6-.7 0-1.2-.9-1.2-1.9 0-1.1-.7-2.6-1.5-3.4-.7-.8-1.7-2.6-2-3.9-.6-2.4-3.1-3-62.8-17.2C349.5 7.5 320.6.6 319.4.4c-1.5-.4-2.3.2-3.2 2.1z"/></svg>
