<svg version="1.0" xmlns="http://www.w3.org/2000/svg" width="1365.333" height="1365.333" viewBox="0 0 1024 1024"><path d="M416 164.6c-.8.2-3.2.5-5.2.9-3.6.6-3.8.8-3.9 4.3-.1 2-.4 4.7-.7 6-1.1 3.7-14.8 13.9-26.2 19.4-5.7 2.7-13.8 7.4-18 10.3-6.1 4.3-8.8 5.5-14.5 6.5-9.6 1.8-25.5 7.3-30 10.3l-3.8 2.6-8.1-6.6c-7.4-6-19.9-13.3-22.8-13.3-.6 0-4.1 1.9-7.7 4.2-3.6 2.3-6.7 4.2-6.8 4.2 0 .1-.8 5.3-1.7 11.6-2.2 15.7-2.1 15.3-5.7 17.4l-3.2 1.9.6 6.7c.4 4.8 1.5 8.6 3.6 12.9 1.7 3.3 3.1 6.5 3.1 7.1 0 .5-2.5 2.6-5.5 4.6-3 2-5.5 4.2-5.5 4.8 0 .6.7 3.3 1.5 6l1.5 4.8-3.4 3.4c-3.9 3.9-5.9 4.1-14.9 1.8-12.1-3.1-39.6-1-59.9 4.7-8.7 2.4-11 4.2-9.7 7.6.7 2 1.6 2.3 5.9 2.3 3.3 0 6.7-.8 9.8-2.4 8.9-4.4 14.4-5.7 23.3-5.4 5.6.2 8.4.7 8.4 1.5 0 .6-3 3.4-6.6 6.1-10.9 8.3-11.9 9.9-11.9 19.5 0 5.8-.6 9.4-1.9 12.2-1.9 4.3-8.6 10.8-10.3 10.3-.6-.2-1.7-2.6-2.3-5.2-1.1-4.3-2.7-6.5-4.7-6.6-1.1 0-4.8 6.7-4.8 8.8 0 1.5-1.2 2.7-4.3 4-2.3 1.1-4.9 2.8-5.8 3.8-1.6 2-10.7 24.4-13.1 32.3-1.1 3.8-1.9 4.6-5.8 6.2-5.6 2.2-12.5 2.4-18.1.3-2.4-.9-8.3-1.7-13.1-1.9-4.8-.2-9.7-.9-10.9-1.6-1.3-.7-9.8-1.6-19.8-2.1-14.8-.7-18.5-1.2-24.5-3.4s-8.1-2.5-13.6-1.9c-5.6.6-7.8 1.5-16.3 6.7-5.4 3.4-11.3 8-13.2 10.3-3 3.8-3.6 5.5-5.1 14.8-1.6 10.3-1.7 10.5-5.5 13.3-4.2 3.1-5.5 6-4.5 9.6 1 3.8 3.6 6.1 13.1 11.7 5 3 12.2 7.7 16.2 10.5 6.6 4.6 7.4 5.7 9.4 11.1 3 8.1 8.6 13.9 17.6 18.1 6 2.8 8.3 3.4 14.1 3.4 3.8 0 8.7-.6 10.9-1.4l4-1.4 6.1 5.5c3.5 3.1 6.2 6.3 6.2 7.4 0 1-1.6 3.4-3.6 5.2l-3.6 3.3 1.8 3.7c1.4 2.9 1.6 4.4.8 7.4-.8 3.2-.3 6.3 3.2 20.1 2.3 8.9 4.8 19.4 5.5 23.2 1 6 1.9 7.7 6.1 12.7 4.9 5.8 17.7 14.9 29.1 20.7 7.7 3.9 8.4 4.8 6.4 9.4-.9 2-2.4 6.8-3.3 10.7-1.3 5.4-2.7 8.2-6 12-5.1 6.1-9.3 19.4-7.6 24.3l1 2.9-8 .6c-11.2.9-15 3.5-23.2 15.7-3.5 5.2-7.1 10.8-7.9 12.5-1.6 3.1-12.8 14.9-25.1 26.5-10.4 9.8-12.6 15.3-13.7 34.3-1 16.3-.4 19 4.6 22.3 2.1 1.4 2.5 2.4 2.5 6.5 0 6.7 2.2 11.7 5.7 13 7 2.6 11.5 5.4 18.1 11.4 4 3.6 9.1 7.4 11.3 8.6l4.1 2 3.6-2.4c6.9-4.6 14.7-8.5 19.2-9.7 2.5-.6 5.9-2.4 7.5-3.9 5.3-4.9 11.7-7.8 23-10.5 6.1-1.5 13-3.3 15.5-4.1 2.5-.7 6.1-1.8 8-2.2 2.8-.7 3.6-1.4 4-3.8.4-2.1 1.3-3.2 3.4-4 2.5-.8 3.1-.6 5 1.8l2.3 2.8 3.5-3.9c2-2.2 3.9-5 4.3-6.2.5-1.7 1.2-2 2.8-1.6 6.2 1.8 7.7 1.8 8.2.2.3-.9.7-2.4 1-3.3.4-1.2.8-1.4 1.7-.5 2 2 5.8 1.5 5.8-.7 0-2.6 2.5-4.4 5-3.6 1.2.4 3.6 1.9 5.3 3.4 5.2 4.6 22.6 16.2 25.9 17.3 3.7 1.3 13-.5 17-3.3 1.4-1.1 3.3-3.8 4.1-6.2 1.4-4.1 1.3-4.4-1-7.2-3.9-4.8-7.3-12.2-7.3-15.8 0-2.3 1.7-6 5.6-12.3 6.8-10.8 8.8-13 13.6-15.5 2.1-1.1 4.5-3.3 5.3-4.9 1.2-2.4 2-2.9 3.8-2.5 6.1 1.6 32.8-.9 37.5-3.4 1.1-.6 3.8-1.1 5.9-1.1 3.1 0 4.1.5 5.4 2.9 1.1 1.8 4.3 4.1 9.3 6.6 4.3 2.1 8.5 4.9 9.3 6.2 2.4 3.6 6.9 3.2 8.7-1 1.9-4.1 3.2-5.6 7.9-9.1 2.9-2.2 4.1-4.1 5.3-8.5.9-3.1 2.7-7.2 4-9.1 3.8-5.5 2.6-13.3-2.6-18-3.4-3-4.9-8.7-5-18.3V652h2.9c1.5 0 4-.9 5.4-2 1.4-1.2 4.3-2.7 6.4-3.4 4.2-1.4 6.3-4.7 8.4-13 1-3.9 1.8-5.1 4.3-6.1 5.2-2.2 8.7-5.6 11.2-10.9 1.3-2.8 2.4-6.6 2.4-8.4 0-2 1-4.6 2.4-6.5 1.4-1.8 3.5-6.8 4.7-11.2 4-13.9 9.2-18.6 23.5-21.2 4.9-.9 10.3-1.6 11.9-1.7 1.7-.1 3.9-.7 5-1.3 1.5-.9 2.5-.8 4.5.3 1.4.8 3.7 1.8 5.3 2.4 1.5.5 2.7 1.5 2.7 2.2 0 2 5.6 6.8 7.9 6.8 1.4 0 2.1.6 2.1 2 0 1 .9 2.4 2 3 1.1.6 2 1.7 2 2.5 0 2 4.5 4.1 11.8 5.3 7.2 1.3 14.2 5.9 14.2 9.5 0 1.2 1.1 3 2.5 4.2 2.3 1.9 2.4 2.2 1.3 6.8-.7 2.8-1.9 5.2-3 5.8-1.3.7-1.8 2.2-1.8 5.7 0 2.7-.5 5.3-1 5.8-1.5 1.5-2.8 10.9-1.8 12.7.4.9.2 2.9-.7 5.1-.8 1.9-1.5 5.3-1.5 7.5 0 3.5.4 4.3 3 5.6 1.6.8 3.5 1.5 4.3 1.5.8 0 1.8.9 2.3 2 .9 1.9 1 1.9 5.3-.9 2.7-1.8 6.3-3.1 9.7-3.6 4.3-.5 5.7-1.2 7.4-3.5 1.8-2.6 2.3-2.7 5-1.7 3.3 1.2 3.5 2.1 1.9 6.4-1.4 3.8-3.1 16.2-3.4 25.3-.2 8.1-1.9 20.2-3 22-.4.6-.1 4.2.6 7.9.9 5.6.9 7.8-.1 11.8-.7 2.6-1.4 9.1-1.5 14.3-.1 6.7-1 12.3-2.8 19-3 10.8-3.3 17.4-1.2 27.5.8 3.8 1.5 8.3 1.5 9.9 0 1.6 1.2 4.4 3 6.6 2.5 3.2 2.8 4.2 2.1 6.7-.7 2.5-.4 3.9 1.7 7.4 1.4 2.4 2.8 6 3.1 7.9.5 2.7 1.2 3.6 2.9 3.8 1.4.2 2.8 1.5 3.4 3 .7 1.5 2.2 3.8 3.4 5.2 1.3 1.4 3.7 5.9 5.4 9.9 1.6 4.1 3.5 8 4.1 8.8.6.7 3.2 1.3 5.8 1.4 2.5.1 5.7.4 7.1.8 2.8.8 14-3.2 15.2-5.4.4-.7 2-1.8 3.5-2.4 1.6-.7 4.1-3.3 5.7-5.8 2.3-3.6 4.2-5.1 9.2-7.3 3.4-1.6 8.1-4.7 10.3-6.9 2.2-2.2 5.3-4.3 6.8-4.7 1.6-.4 3.6-1.5 4.5-2.5.9-.9 3.1-2 4.8-2.4 2.2-.5 4.1-2.2 7.1-6.6 2.8-4.1 4.6-5.9 6.1-5.9 2.1 0 4.1-1.1 14.8-8.3l4.5-3 8.3 1.2c7.1 1 8.8 1 11.4-.3 1.7-.9 5.2-1.9 7.9-2.2 6.2-.8 12.4-5.3 13.3-9.4.3-1.7.9-4.3 1.2-6 .4-1.8 3-5.1 7-9 3.5-3.3 6.4-6.6 6.4-7.4 0-.8 1.6-2 3.5-2.7 2.9-1.1 3.5-1.8 3.5-4.1 0-1.5.4-2.8 1-2.8.5 0 1.6-1.5 2.4-3.4 1.3-3.1 1.8-3.4 7.2-4 3.3-.4 7.9-.8 10.4-1 2.5-.1 5.7-1 7.3-2 2.3-1.5 2.7-2.5 2.7-6.3 0-3.5.6-4.9 2.6-6.8 1.5-1.4 3.1-2.5 3.6-2.5.6 0 2.1-.9 3.4-1.9 2.1-1.7 3.6-1.9 9.2-1.4 5.5.4 7 .2 8.1-1.1.7-.9 2-1.6 2.9-1.6 1.6 0 5.5-1.1 12.7-3.6 2.6-.9 4.2-1.1 4.9-.4.6.6 2.5 1 4.4 1 2.2 0 4.7 1 7.1 2.9 5.2 4.1 7.4 4.5 11.8 2.2 3.3-1.6 4.3-1.7 6.8-.7 2.5 1.1 3.4 2.5 5.1 7.8l2.1 6.6-3.3 1.6c-1.9.8-4 1.3-4.9 1-1-.4-1.8.3-2.5 2.1-1.4 3.7-1.3 4.3.9 5 1.1.3 2.4 1.9 3 3.6 1 3 1.1 3 6.8 2.3 6.4-.7 5.9-.5 16.2-8.8l7.2-5.9 2.1 2 2 2.1 2.9-3.2c2-2.4 4.3-3.6 8.2-4.5 12.2-2.7 12.7-3 14.7-7.4 1.6-3.9 2.3-4.4 9.6-7.1 7.6-2.8 7.9-2.8 12.8-1.3 3.7 1.1 6.9 1.3 11.6.7 6-.6 6.7-.5 8.5 1.6 1.1 1.2 3.4 2.9 5.1 3.7 2.9 1.5 3.2 1.4 5.9-.7 1.6-1.3 3.7-2.1 4.6-1.9 1 .3 3.4 0 5.4-.7 3.3-1.1 4.5-.9 11.2 1.6 7.4 2.8 7.6 3 10.5 8.9 1.7 3.3 3.1 6.1 3.3 6.3.1.1 3.6-1.7 7.6-4.1 4.1-2.4 9.6-5.2 12.3-6.3 6.2-2.4 7.7-5.3 5.2-9.7-1.7-3.1-1.7-3.2.3-4.8 1.4-1.2 2.1-2.9 2.1-5.2 0-5.7-3.6-9-14.5-13.3-9.2-3.6-9.6-3.9-12.3-8.9-4.7-8.7-5.5-11.2-4.8-15.7.6-3.8 1.5-4.9 6.6-8.8 7.2-5.5 7.7-7.9 2.1-10.5-2.2-.9-5.2-3-6.7-4.6l-2.8-2.9 3.1-3.8c6.3-7.8 5.1-15.2-4.2-26.6-4.1-5-5.3-7.6-7.8-16-5.6-20-5.9-22.7-3.1-34.3 3.1-13.2 3-15.2-.6-21.1-6.6-10.7-14.6-14.9-38.7-20.3-10-2.2-10.4-2.2-14.2-.4-4 1.8-4 1.8-10.5-1-3.6-1.5-7.4-2.5-8.5-2.2-1.1.2-2.9-.2-4.1-1-2.4-1.7-11.4-1.4-18.2.7-3.5 1-3.8 1.4-3.8 4.8-.1 2-.7 4.8-1.4 6.2-1.2 2.1-1.2 2.9.4 6.1l1.9 3.6-5.6 1.3c-8 1.7-15.3.6-20-3.1-2.7-2.2-4.6-2.9-6.6-2.6-2.3.3-3.3-.3-5.3-2.8-1.3-1.8-2.4-4.5-2.4-6.1 0-2.3-1.3-4.3-5.5-8.4-4.4-4.4-5.5-6.1-5.5-8.7 0-1.8-.9-4.7-1.9-6.4-1.1-1.8-2.5-6.3-3.2-10-1.1-6-1-7.2.7-11.3 1.8-4.3 2.2-4.6 7.3-5.8 6.6-1.4 8.1-3.9 5.7-8.7-1.1-2.1-3.5-4.1-7.1-5.8-4.8-2.4-5.7-3.3-8.1-8.7-1.6-3.4-3.8-9.5-5-13.6-2-6.8-2.4-7.5-5-8-2.8-.5-2.9-.7-3.7-9-1-10.7-.5-12.6 3.9-15.2l3.5-2-2.4-3.2c-2.7-3.4-5.4-4.3-13.4-4.5-5.6-.1-11 2.3-25.4 11.5l-6.7 4.2-21.3 2.6c-11.8 1.4-33.7 3.5-48.7 4.6-25.7 1.9-28 2.2-39.5 5.7-14.7 4.5-18 6.8-24.9 17.5-8.1 12.7-10.4 12.7-29.1-.6-7.2-5-13.5-9-14-8.8-.6.2-3.6 1.5-6.6 2.9-5.4 2.6-5.7 2.6-11.2 1.2-5.3-1.4-5.9-1.4-8.3.4-3.8 2.8-6.6 1.5-6.6-3.1 0-2-.7-7.1-1.7-11.3-1.5-7.3-1.8-7.8-5.2-9.3-2.1-1-5.9-1.5-9.2-1.4-7.6.2-13.7-3.5-17.9-10.9-7-12.4-13.2-13.2-32.7-4.6-7.1 3.2-14.8 7.3-17.2 9.2-2.3 1.9-10.6 6.3-18.4 9.9-7.8 3.5-15.4 7.3-16.8 8.3-6.2 4.4-13.4 1-16.4-7.6-1.8-5.3-1.8-5.8-.2-8.8.9-1.8 1.9-4.9 2.3-7 .6-3.4.3-4.2-2.7-7.3-3.1-3.2-3.7-3.4-10-3.4-3.6 0-8.5.7-10.8 1.5-3.5 1.2-5.5 1.3-11.4.3-7.1-1.1-7.2-1-12.5 2.1-2.9 1.7-5.5 3.1-5.8 3.1-.3 0-3.2-1.6-6.4-3.6l-5.8-3.6-4.4 2.5c-4.3 2.5-4.5 2.6-35.3 3.1-17 .4-35.6.9-41.2 1.2l-10.2.5-2-4c-1.7-3.2-2.1-5.9-2.1-13.6 0-9.2-.2-9.9-4.5-19.2-2.5-5.3-4.5-10.2-4.5-11 0-.8 1.4-4.6 3-8.5 1.8-4.2 3-8.8 3-11.4 0-3.3.5-4.6 2-5.4 2.7-1.5 3.1-1.1 6.5 5.9 1.6 3.4 3.3 6.1 3.9 6.1.6 0 3.5-1.1 6.4-2.5l5.2-2.4v-7c0-6 .3-7.2 2-8.1 1.3-.7 2-2.1 2-3.9 0-2.5.3-2.8 2.1-2.4 1.2.4 3.2-.3 5.1-1.7 2.7-2 3.6-2.1 5.9-1.3 2.5 1 3.6.6 9.9-3.4l7.1-4.6 9.5.7c9.7.7 30.4 6.1 46.5 12.2l7.6 2.8 11.1-3.3 11.1-3.4 10.3 1.4c8.2 1.2 10.3 1.8 10.2 3-.1.9-.4 3.6-.8 6.1-.7 4.4-.6 4.6 2.4 5.8 3 1.2 3.3 1.1 7.5-3 2.9-2.8 4.5-5.4 4.9-7.8.9-5.5 6.7-12.9 10.8-13.7 1.9-.4 5.2-2.6 8-5.3l4.8-4.6 13.7-1.5 13.8-1.6.3-4.8c.3-4.4.2-4.7-2.1-4.7-1.4 0-4.4.9-6.8 1.9-2.4 1.1-7.1 2.3-10.4 2.7-4.9.6-7.6 1.7-15.2 6.6-5.8 3.7-9.7 5.7-10.5 5.2-.7-.4-4.1-3-7.4-5.6-5.6-4.4-6.2-5.2-6.9-9.6-.8-5.4-2-7.2-4.6-7.2-1 0-2.4-.9-3.1-2-.9-1.3-2.8-2.2-6-2.6-2.7-.4-4.8-1-4.8-1.5s-3.2-4.3-7.1-8.4c-6.1-6.4-6.9-7.6-5.3-8.2 1.1-.3 3.3-1.7 5-3 1.7-1.3 4.2-2.3 5.6-2.3 1.7 0 3.7-1.2 5.5-3.3 1.6-1.7 5.2-4.3 7.9-5.7 3-1.5 5-3.3 5.2-4.5.4-2 2.7-4.1 17-15.2 8.3-6.4 8.3-6.3-.8-10.9-3-1.5-5.7-2.9-5.9-3-.2-.2.6-1.9 1.8-3.9 2.4-4.1 1.8-6.1-2.4-8.9-1.4-.9-3.6-4.1-4.9-7.1-2.3-5.2-2.6-5.3-7.9-6.5-5-1.2-5.7-1.7-7.3-5.1-1.9-4.4-3.2-5.7-5.4-5.3z"/></svg>
