<svg version="1.0" xmlns="http://www.w3.org/2000/svg" width="1365.333" height="1365.333" viewBox="0 0 1024 1024"><path d="M547 1.9c-2.7 2-7.1 3.2-22.4 6.2-5.4 1-10.5 2.4-11.2 3-1.8 1.5-15.7 2.4-18 1.1-1.6-.9-2.9-.1-8.4 5.2-6.2 6-6.9 6.4-12.6 7.1-5.9.6-6.4.9-12.5 7.2-3.5 3.6-9.8 9.3-13.9 12.6l-7.5 6.2-7.5.1c-4.2.1-9.1.8-11.2 1.7-3.4 1.4-3.7 1.9-5.3 9.1l-1.7 7.6-8.6 5.2c-4.8 2.8-9 5.6-9.4 6.2-.4.6-.8 4.5-.8 8.7v7.6l-10.5 2.1-10.6 2.1-8 7.3-8 7.3 13.5 6.5 13.4 6.5-6.5 14.5c-8.8 19.5-14.6 41.5-16.2 62.1l-1.2 14.6 5.6 9.6 5.5 9.6v13.2c0 12.8-.1 13.3-3.1 18.5l-3 5.3 1.3 8.8 1.4 8.8 5.5.3 5.5.3 1.7 6.6 1.7 6.7-4.2 4.5c-2.4 2.5-6.9 7.3-10 10.6l-5.8 6-8.5 29.2c-4.7 16.1-8.5 29.5-8.5 29.8 0 .2-3.6 2.1-8 4.1l-7.9 3.6.6 4.3c.7 5.1.8 5.1-12.8 6l-9.6.7-7.9 11.5c-6.9 10-8.2 12.7-10.5 21.1-3 11.1-1.2 10.1-16.6 8.9l-8.1-.7-6 5c-5.6 4.6-6.1 5.5-8.5 13.2-2 6.4-2.9 12.2-3.7 24.8l-1.1 16.5 3.1 13c2.8 11.8 3.7 14.1 10.4 25.5 6.3 10.6 8.2 15.1 12.7 29.3l5.3 16.9 9 4.6c6.2 3.2 10.8 6.5 14.6 10.4 4.4 4.5 6.7 6 11.4 7.5 5.8 1.7 6.2 2.1 15.5 13.8 5.2 6.6 9.8 12.5 10.2 13 .4.6 2.2 11.4 3.9 24 1.6 12.7 3.2 24 3.5 25.2.3 1.4 15.8 13.7 45.2 35.9 24.7 18.5 44.9 33.8 45 33.9.1 0 12.5 59.3 27.4 131.6 14.9 72.2 27.5 131.7 27.8 132.1.4.4 9.4-2.3 20.1-6.1 14.7-5.2 22.9-7.5 33.3-9.2l13.8-2.4 18.8-23.1 18.8-23.1 3.2-20.4c1.7-11.2 3.1-21.4 3.1-22.5 0-1.2-3.6-13.9-8-28.2l-8-26 .6-10.2.7-10.1 9.4-10.4 9.4-10.3 12.2-3.2 12.2-3.2 4.8-6.6c2.7-3.7 6.2-8.8 7.8-11.4 1.6-2.6 5-6.4 7.6-8.3 4.1-3 5.5-3.5 9.4-3.3l4.7.3 9.5-11 9.5-11 25.9-13.4c23-11.8 26.9-14.1 33.8-20.4 5.8-5.3 9.9-8.1 15.9-10.7l8-3.5 3-6.7 2.9-6.7-7.8-11.8-7.8-11.7 1.2-5.6c.6-3 1.4-6.6 1.8-7.9.5-2.2.4-2.2-1.7-1.1-2.3 1.2-2.3 1.1-1.7-2.6.4-2.1 2-5.8 3.7-8.2 2.7-3.8 3.1-5.4 3.7-13.5.5-7.7.3-9.4-1-10.6-2.3-1.9-7.6-.5-8.9 2.4-2.1 4.6-3.6 3.7-5-2.8-1.2-5.8-1.5-6.2-4.8-7.1-3.2-.9-4.9-2.2-5-3.7 0-.3 2.9 0 6.4.6 5.2 1 6.8 1 9-.2 2-1.1 3.1-1.1 4.7-.2 1.2.6 4.6 1.1 7.7 1.2 5.2 0 5.5-.1 6.8-3.3 1.7-4 1.4-4.6-3.3-5.5-2.1-.3-6.1-2.1-8.9-3.9-6.4-4.3-13.5-7.9-14.1-7.2-.3.2.7 2.2 2.1 4.3 1.4 2 2.6 4.2 2.6 4.7s-4.2.7-10 .3c-12.1-.6-15.8-2.5-19.6-9.8-2.2-4.4-2.3-5-.8-5.6.9-.3 4.6.1 8.2.9 3.8 1 7.4 1.3 8.6.8 1.7-.6.6-1.2-5.4-3-4.8-1.4-8.6-3.3-10.6-5.2-2.4-2.3-3.7-2.8-5.4-2.3-2.2.7-2.3.5-1.7-3.3.4-2.2.2-5.3-.4-7-.8-2.5-.7-3.7 1-7.1 1.2-2.2 2.1-5 2.1-6.2 0-2.3-4.9-11.9-6-11.9-.4 0-3.5-1.8-6.7-4l-6-4-4.9 1.7c-2.7.9-5 1.7-5.2 1.8-.1.1.2 1.5.8 3 2.7 7.1-2.9 12.7-15.4 15.3-6.5 1.3-7 1.3-9.5-.5-1.4-1.1-3.3-3.2-4.1-4.6-1.4-2.5-1.3-2.8 2.4-6.6 3.4-3.5 4-4.8 4.3-9.3.6-7.6-.3-8.5-7-7.1-3 .6-8.4 2.3-12 3.7-5.8 2.4-6.9 2.5-11.8 1.6-11.8-2.4-17.7-5.7-31-17.7-15.4-13.8-18-17.1-21.9-26.8-1.7-4.2-4.1-9.8-5.5-12.5-3.4-6.6-3.4-14.3-.1-20.8 1.3-2.6 3-6.6 3.7-9 .9-3.3 2.3-5.1 5.5-7.3 2.4-1.6 5.2-4.2 6.3-5.8 1.7-2.4 2.9-2.9 7.6-3.3 3-.3 6.3-1.2 7.2-2 1-.9 3.4-1.9 5.3-2.3 4.2-.9 10.1-5 12.6-8.7 1.1-1.6 4.5-3.9 7.9-5.4 13.4-5.9 16.1-7.5 18-10.4 1.1-1.6 2.8-3.3 3.8-3.6.9-.3 2.4-1.9 3.2-3.5.9-1.7 2.7-3.1 4.3-3.5 6-1.5 8.2-3.3 8.2-6.8 0-2.7.9-4.1 4.3-7.3 2.3-2.1 5.6-4.4 7.2-5.1 1.7-.8 5.4-4.6 8.8-9 4.4-5.9 5.7-8.4 5.7-11.2.1-4.7 1.6-7 7.7-11.8 4.3-3.5 5.2-4.7 5.8-8.4 1.3-8.6 1.7-9.7 3.7-10.4 1.1-.3 2.6-2 3.3-3.8.8-1.8 2-3.8 2.8-4.5.8-.6 1.8-2.3 2.1-3.6.5-1.8 1.5-2.6 4.1-3.1 3.1-.5 3.4-.8 2.3-2.2-.7-.8-3.6-2.5-6.4-3.8-3.9-1.7-5.7-3.3-7.7-6.6-2.2-3.8-2.4-5.1-2-11.3.3-3.9 1.1-7.9 1.8-9 2.3-3.7 2.2-5.9-.3-9.3-2-2.8-2.4-4.2-2-8.3.5-4.8.4-5-4.9-10.8-4.4-4.9-6-6-9.6-6.6-7.6-1.2-7.7-1.2-7.7-6 0-4-.4-4.7-3.7-6.9-3.4-2.4-3.9-2.4-6-1.1-1.2.8-3.9 1.5-6 1.4-3.5 0-4.3-.6-10.7-8.6-5.1-6.3-7.7-10.7-10-16.7-1.7-4.5-4.4-9.8-6-11.9l-2.8-3.7.4-13.7.5-13.8 5-11 5.1-11 5-.5c2.7-.3 5.7-1.1 6.6-1.9.9-.8 6.2-2.6 11.7-4.2 5.6-1.5 10.3-2.9 10.4-3.1.1-.2 2.5-4.8 5.3-10.3 8.8-17.6 28.9-43.3 32.6-41.9.8.3 2.3-.7 3.5-2.1 1.9-2.6 2-2.9.4-6.3-.9-2.1-1.8-5.3-2.1-7.2-.2-1.9-1.3-4.7-2.4-6.3-1.3-1.9-1.8-3.6-1.3-5.5.4-2.2-.1-3.4-2.7-5.9l-3.3-3.2-7.3 3.4c-5.8 2.8-7.6 4.2-8.9 7.1-2.8 5.8-16.3 13.2-29 16l-8.1 1.7-4.1 7.2c-2.3 3.9-4.1 7.8-4.1 8.7 0 1.1-1.8 1.8-6.9 2.7-9.9 1.6-14.1 1.4-17.9-.9-1.8-1.1-3.9-3.5-4.6-5.2-1.3-3.1-1.5-3.2-7.1-2.9-6 .3-7.5-.6-7.5-4.2 0-2.5 5.3-4.5 13.9-5.3 3.9-.4 7.1-1 7.1-1.4 0-1.7-7.8-7.7-12.1-9.3-5.2-2-6.5-4-8.4-13.1-1.6-7.2-1.1-8.6 2.6-8.6 2.2 0 2.9-.5 2.9-2 0-1.1-.6-2.2-1.2-2.4-.7-.2-3.5-1-6.2-1.7-4.4-1.1-4.7-1.4-3-2.6 1-.7 3-1.3 4.6-1.3 3.2 0 10.8-2.8 10.8-4 0-1.4-1.8-2.2-17.5-8.1l-15-5.6-4.2 1.9c-3.6 1.6-4.9 1.7-8.2.8-3.4-.9-4.2-1.6-5.1-4.8-.5-2-1-4.3-1-4.9 0-.7-1-1.5-2.2-1.7-7.2-1.5-10.1-1.8-17.3-2.1-6.5-.3-8.5 0-10.5 1.4z"/><path d="M692.4 505.4c-.9 2.3-6 3-8.6 1.2-2.7-1.9-8.6-2-10.9-.3-4 3-5.1 15.5-1.9 21.7 1.9 3.7 4 5.3 4 3 0-1.7 5.6-1.1 7.3.8 1 1 1.7 3.5 1.7 5.4 0 2 .6 4.1 1.4 4.7 1.2 1 1.8.7 3.2-1.3 2.3-3.7 10.4-9 10.4-7 0 2.5 1.8.6 2.5-2.7.6-2.4 1.7-3.5 5.2-5.1l4.4-1.9-.3-5.2c-.3-4.9-.5-5.2-3.3-5.7-3.7-.6-6.6-2.6-8.9-6.3-2-2.9-5.3-3.6-6.2-1.3z"/></svg>
