<svg version="1.0" xmlns="http://www.w3.org/2000/svg" width="1365.333" height="1365.333" viewBox="0 0 1024 1024"><path d="M101.6 195.1c-39.5 8.1-72.2 15.1-72.6 15.6-1.5 1.8-6.3 46.8-12 113.4-3.2 38.3-8.5 93.8-11.6 123.3C2.4 477 0 501.3.2 501.5c.4.4 59 9.5 61 9.5.7 0 3.4-1.7 6-3.9l4.7-3.8-2.9-2.8c-3.6-3.4-4.6-6.3-6.3-18-1.2-8.1-1.1-9.6.4-14.8 1.8-5.9 3.4-8.4 11.6-17.5 6-6.6 12.1-8.6 21.1-7.1 3.9.6 8 .5 13-.3 6.4-1.1 7.3-1.5 6.8-3.1-.2-1 .2-2.1 1-2.4 2.1-.8 5.4-7.7 5.4-11.2 0-2.8 3.7-7.1 6.1-7.1.5 0 3.7 2.1 7.2 4.6 4.4 3.1 7 5.9 8.5 9 2 4.1 2.4 4.4 6.2 4.4 2.2 0 4-.1 4-.3 0-.2-1.6-4.1-3.6-8.8-2.8-6.7-4.6-9.4-9-13.5l-5.5-5 4.1-1.9c3.9-1.8 4.4-1.8 11.2-.2 3.9 1 7.2 1.6 7.3 1.5.1-.2 1.1-2.5 2.2-5.1l2-4.8 7.4 9.3c4 5.1 7.8 9.6 8.4 10 .5.4 3.6.8 6.7.8 5.4 0 5.9.2 8.4 3.6 1.6 2 3 5.4 3.3 7.7l.6 4.1 16.7 2.6 16.6 2.6 5.7 4.8c4.4 3.9 5.5 5.3 5.1 7-.3 1.2-.6 4.7-.6 7.8 0 5.4-.2 5.8-2.7 6.4-2.5.7-2.4.8 2.8 3.4 4.5 2.3 11.9 9.4 11.9 11.4 0 .3-2.1.3-4.6-.1l-4.5-.6.2 5.9c.1 3.2-.4 10.4-1.1 15.8l-1.3 10 3.4 2.9c1.9 1.5 7 5 11.4 7.7l8 4.8 17.5.7c15.3.7 18.2 1.1 23.4 3.2l5.9 2.4 4.1-3.2c2.2-1.8 4.5-3.9 4.9-4.6 1-1.6 2.2-1.6 8.6-.2 5.8 1.2 11.4 5.7 19 15.2 4.5 5.8 5 6.9 6 14.2.8 5.7 2.6 11.1 6.5 19.9 4.7 10.5 6 12.6 9.9 15.5 4.5 3.4 4.6 3.7 6.2 12.4.9 5 2 11.7 2.3 15l.7 6 32 24.6c30.4 23.4 32.3 25 37 32.3 4.8 7.3 5.6 8 21.4 18.2l16.3 10.7 4.7-1 4.6-1 10 9.8c9.6 9.5 10.3 9.9 18 12.3 7.3 2.2 9.8 3.8 28.3 17.6 11.1 8.4 21.4 15.7 22.8 16.2 4 1.6 9.2 1.2 13.5-1.1l4-2 7.6 4.1c4.2 2.3 10.3 6.1 13.7 8.4 4.5 3.1 8.2 4.7 14.5 6.1 8.2 1.8 8.4 2 10.2 5.9l1.7 4-2.9 5.8c-4 7.9-5.2 16.9-3.6 28.1l1.2 8.8 15.6-.7 15.7-.7 7.1 7.1 7.2 7.1 4.6-2c2.5-1 5.7-2.8 7.1-3.9l2.6-2.1 2.1 2.6c1.8 2.4 2.4 2.6 5.5 1.7 2.8-.7 4.3-.5 7.2.9l3.6 1.8 1.6-3.9c1.1-2.7 1.6-7.1 1.6-13.2v-9.2l6.9-10.6c4.5-6.8 7.3-12.3 8.1-15.7 1.1-4.9 1.4-5.3 5.3-6.6 4.2-1.3 4.2-1.4 7.9-11.9l3.7-10.7-5.6-3.8c-5.8-4-9.2-8.3-13.8-17.2-2.6-5.2-2.7-5.9-2-14.7.6-8.3.9-9.5 3.1-10.9 3.2-2 3-3.7-.7-9.1l-3-4.5-8.7.2c-11.6.1-16.2-1.7-16.2-6.5v-3.3l-9.6-2.9c-5.3-1.6-9.9-3.5-10.2-4.2-.2-.7.5-4.6 1.7-8.5 1.1-4 2.1-8.3 2.1-9.5 0-1.6.7-2.6 2.1-2.9 1.2-.3 2.2-1.7 2.6-3.3.4-2.2 1.7-3.3 6.5-5.3l5.9-2.6 19.7 2.5c25.4 3.2 25.6 3.2 30.4-3.1 3.6-4.8 3.8-5.3 3.8-12.8 0-4.2.2-7.7.4-7.7.3 0 1.6.4 3.1 1 2.3.9 2.7.7 3.5-1.6.6-1.4 1-3.9 1-5.5 0-2.6.2-2.9 1.9-1.9 3 1.6 3.2 1.3 2.5-3.9l-.6-4.8 3.6-.7c2.7-.5 3.6-1.2 3.6-2.6 0-2.1-1.2-2.3-6.5-1-2.3.5-4.2 0-7.8-1.9-3.2-1.6-4.4-2.7-3.5-3.2.7-.4 8.4-1.3 17.1-2 15.2-1.3 15.8-1.4 15.3-3.4-.4-1.5.4-2.8 2.9-4.8l3.5-2.7-3.5-4.6c-1.9-2.5-3.5-5.6-3.5-6.9 0-1.3-.3-3-.6-3.9-.4-1.1.4-1.7 2.9-2.1l3.6-.7.7-8.9c.5-7.3 1-9.2 2.6-10 2.2-1.2 2.7-.9 9.9 5.3 6.7 5.8 9.3 6.1 13.7 1.5 1.7-1.8 9.2-6.2 17-10.1l13.9-6.9 2-6.1c1.3-4.1 2.4-6.1 3.5-6.1.9 0 4.8 3.1 8.7 6.8 7 6.8 7.1 6.9 5 8.6-2.1 1.6-2 1.7 3 4.1 2.8 1.3 5.1 2.7 5.1 3.1 0 .5-5.6 5.6-12.4 11.6l-12.4 10.7 3 3.8c2.3 3 3.6 3.8 6.2 3.8 2.9 0 3.8.7 7 5.5 2 3 4 5.5 4.4 5.5 3.9 0 21.7-4.8 29.8-8l10-4.1 8.2 3.5c7 3 8.6 3.4 10.2 2.4 1.7-1.1 2.3-.8 4.8 2.1l2.9 3.5 3.2-4.7c3.1-4.6 3.4-4.7 8.3-4.7h5l-1.6-2.4c-1.5-2.4-1.4-2.6 1-4.5 1.5-1.2 2.9-3.5 3.3-5.2.5-2.7 1.3-3.4 5.1-4.5 3.9-1.2 4.9-1.1 8.8.6 2.5 1.1 4.8 2 5.3 2 1.5 0 1-4.7-1.1-10-1.1-2.8-1.8-5.5-1.5-6 .3-.5 4 .1 8.2 1.2 7.1 2 7.7 2 8.8.4.7-.9 1.9-1.4 2.7-1.1 1.1.5 1.8-.6 2.8-3.9 1.1-4.2 1.8-4.8 10.4-10 5-3 10.1-6.5 11.4-7.9l2.3-2.5-5.3-.5c-2.9-.4-9.8-.9-15.3-1.2-15.1-.9-17.1-1.3-18.3-3.9-.7-1.5-3.1-3.1-7.1-4.6l-6.2-2.3-2.3 2.2c-1.2 1.1-3.2 2.1-4.4 2.1-2.2 0-2.3-.2-4-9l-.8-4.5-8.1.3-8 .2-.7-4c-.3-2.2-1.6-6-2.8-8.5-2-4.1-2.5-4.5-5.9-4.5-3.5 0-3.7-.2-4.3-4-.6-4-1.8-4.8-4.5-3.1-1 .7-1.2 2-.7 5.1.3 2.3.4 6.3 0 8.8l-.6 4.7-4.2-.3-4.3-.4-.7 4.8c-.3 2.6-.6 6-.6 7.5 0 2.8-.1 2.9-5.4 2.9-3.2 0-7.3-.8-10-2-2.5-1-8.4-2.5-13.1-3.1l-8.5-1.2v-4c0-4.2-2.2-9.7-4.8-12-1.5-1.3-2.5-1.2-8.5.6l-6.8 2-2.7-2.6c-2.1-2-3.8-2.7-6.9-2.7-6.1 0-9.3-1.5-9.3-4.3 0-1.8 2.1-3.8 9.8-9 6.3-4.4 11.2-8.8 14.1-12.5 2.5-3.2 6.4-6.9 8.7-8.4 3.2-2 4.3-3.3 4.8-6.3.7-3.4 1.2-3.9 8.9-7.4 8-3.7 14.7-8.3 14.7-10.2 0-.5-2.8-2.3-6.3-4l-6.3-3.1-9.2 4.6c-8.8 4.4-9.3 4.8-12.2 10.6-1.7 3.3-3.3 6-3.6 6-.2 0-2.2-.9-4.3-2l-3.8-1.9-4.5 2.8c-3 1.9-4.8 3.9-5.2 5.7-.4 1.5-3.8 6.6-7.6 11.3-6.8 8.5-7.1 8.7-17.2 13-10.6 4.6-20.9 12.2-23.8 17.6-.9 1.7-2.2 2.5-4 2.5-1.5 0-5.6 2-9.6 4.8l-6.9 4.7-.3 6.2-.3 6.2-8 6.3c-5.9 4.7-8.2 7.2-8.9 9.7-.5 1.9-2.7 5.3-4.9 7.5-3.5 3.8-3.9 4.7-4.4 10.8-.4 6.3-.4 6.7 1.9 7.2 2 .5 2.4 1.3 2.4 4.7 0 4.1 0 4.1-3.2 3.6-1.8-.2-4.1 0-5.1.5-1.4.7-4.6-.6-14.4-5.9-6.9-3.7-13.2-7.8-14.1-9.1-1.4-2.2-1.4-2.5 1-4.5 2-1.7 2.7-3.5 3.1-7.5.6-5.2.6-5.2-2.2-5.2-2.3 0-3.1-.7-4.5-3.8-2.8-6.1-4.3-7.7-5.9-6.3-1 .7-2.3.8-3.8.3-1.6-.6-8.7-.1-20.9 1.5-18.9 2.5-27 2.5-39.5.3l-6-1.1-6.3-22.7c-4.9-18.2-6.2-24.4-6.4-31.2l-.3-8.5-15.1-.3-15.1-.3-.7-14.3c-.6-11.9-.5-14.9.7-17.3 1.2-2.1 1.7-8.4 2.3-24.1.4-11.7.4-21.2.1-21.2-.4 0-4 2.1-8.2 4.7-4.1 2.5-7.7 4.4-8 4.1-.3-.2-4-7.8-8.4-16.9l-8-16.4-8.8-4.8c-8.4-4.5-9.3-5.4-17.7-16.2-4.8-6.3-9.2-11.5-9.7-11.5s-6.3 3.4-13 7.6l-12.1 7.5-36.7-3.5-36.7-3.5-31.5 4.4c-17.3 2.4-32.6 4.6-34 4.9-2.3.4-4.6-1.9-23-23.2-25.5-29.5-23.9-27.3-25.4-33.3-1.4-5.1-7-14.9-8.6-14.9-1.4 0-3.9 5.7-3.9 8.9 0 2.8-.2 3-2.8 2.5l-2.9-.6-.7 7.3c-.9 10.1-1.5 12.2-3.5 11.6-4.2-1.2-4.6-1.1-4.9 1.1-.5 3.6 1.7 8.2 4 8.2 1 0 3 1.1 4.3 2.4 1.3 1.3 3.8 2.7 5.5 3.1 3.6.8 3.6.9.7 5.9-1.8 3.2-3.3 4.3-9.2 6.6-3.8 1.4-8.5 3.4-10.3 4.4-3 1.5-3.6 1.6-5 .3-4.5-4.1-17.7-2.7-22.2 2.3-2.1 2.3-3.5 2.8-9.5 3.4-3.8.3-8.6.9-10.5 1.2-5.1.8-7.2-1.2-7.7-7.3-.5-4.8-.4-5.1 2.3-6l2.9-1-3.5-.7c-1.9-.5-5.2-1.9-7.2-3.3-3.1-2.1-3.8-3.2-3.8-5.9 0-4-.2-4.1-4.2-1.2-2.6 1.8-3.4 1.9-5.1.9-1-.7-3.9-1.9-6.3-2.6-4-1.2-4.4-1.2-4.4.5 0 1-.7 2.3-1.5 3-1.3 1.1-1.6.8-2.1-1.9-.6-3-2.9-5.3-11.1-11l-3.3-2.2v4c0 4 .1 4.1 3.5 4.1 3 0 3.5.3 3.5 2.2 0 1.9-1 2.6-6 4-3.2 1-7.5 1.8-9.3 1.8-1.9 0-5.4.7-7.7 1.5-5.7 2-8.7 1.1-11-3.6-2.7-5.1-2.5-11.2.6-23.5l2.5-10.2-3.4-4.9c-2.5-3.4-3.8-6.7-4.6-11.4-1.7-10.3-1.5-13.2 1.5-16 2.9-2.7 2.9-5.1-.1-12.9-3-7.9-.4-19.2 6.1-26.1 1.5-1.5 3.3-5.8 4.6-10.5 1.4-5.2 3.6-10 6.4-14.1 3.7-5.5 7.2-13 6.2-13.7-.1-.1-32.6 6.4-72.2 14.5z"/></svg>
