<svg version="1.0" xmlns="http://www.w3.org/2000/svg" width="1365.333" height="1365.333" viewBox="0 0 1024 1024"><path d="M257.6.9c-.3.5-.1 2.3.5 4 .9 2.4.8 3.9-.2 6.3-1.1 2.7-1 3.2.6 4.4 1 .8 2.9 1.4 4.1 1.4 1.7 0 2.3-.8 2.8-3.5.4-1.9 1.1-3.5 1.6-3.5 2.1 0 .9-3-1.5-3.6-1.3-.3-2.7-1.6-3.1-2.7-1-3.2-3.7-4.7-4.8-2.8zM265.3 21.7c-1.7.6-1.7 4.2 0 4.9 2 .7 6.7-1.3 6.7-3 0-2.1-3.6-3.2-6.7-1.9zM270.3 34.1c-2.7 1-2.8 2-.6 6.2l1.6 3.2 1.3-3c2.5-5.7 1.6-7.9-2.3-6.4zM275 46.9c0 3.5.3 4.1 2.1 4.1 1.7 0 2-.5 1.7-3.7-.2-2.7-.8-3.9-2-4.1-1.5-.3-1.8.4-1.8 3.7zM364.4 55.1c-1.9 2.1-1.8 2.1.9 4.5 3.7 3.2 9.7 3.4 9.7.4 0-1.1-.7-2.3-1.5-2.6-.8-.4-1.5-1.5-1.5-2.5 0-2.7-5.1-2.5-7.6.2zM414 76.6c-.8 1.4-2.2 2.4-3.6 2.4-1.8 0-3.4 1.7-3.4 3.5 0 1.2 3.4 1.2 5.7 0 1.5-.8 3.7-1.5 4.9-1.5 2.5 0 6.2-3.7 4.8-4.9-.5-.5-2.3-1.1-4-1.4-2.6-.5-3.3-.2-4.4 1.9zM379.3 84.7c-3.1 1.6-3.3 2-3.3 6.9 0 2.9-.4 5.6-1 5.9-1.4.8 1.1 5.3 4.9 8.9 1.7 1.7 3.1 3.6 3.1 4.4 0 .8.5 3.2 1.2 5.4.9 3.1 1.6 3.8 3.2 3.6 1.8-.3 2.1-.9 1.9-4.1l-.2-3.8 3.4.7c2.5.4 3.5.3 3.5-.6 0-.7.8-1 1.9-.7 1.2.3 2.7-.3 3.7-1.4.9-1 2.5-1.9 3.5-1.9 2.2 0 3.1-1.3 2.3-3.4-.5-1.2-1.1-1.3-2.4-.6-1 .6-3.1 1-4.5 1-2.4 0-2.6-.3-2-2.7.3-1.5 1.3-3.2 2.2-3.8 1.4-1 1.3-1.6-.5-5.1-2.4-4.8-4.7-6.9-9.5-8.9-4.5-1.9-7.3-1.8-11.4.2zM395.2 151.6c-1.7 1.2-3.5 1.4-6.8.9-3.9-.5-4.4-.4-4.4 1.2 0 1.1-1.1 3.4-2.5 5.3-2 2.7-2.5 4.6-2.5 9.2 0 7.7 1.3 9.8 5.6 8.8 1.8-.4 5.4-.4 8.1.1 6.4 1.2 9.4-.9 10.9-7.7.6-2.7 1.4-5.7 1.9-6.7.4-1 .3-2.8-.2-4-.6-1.2-1.4-3.6-1.9-5.2-1.1-3.6-4.7-4.4-8.2-1.9zM462.5 185c-1.5 1.7-1.6 2.4-.5 5 1.3 3.1 4 4 5.8 1.7.7-.8.5-2.3-.5-5-1.7-4.2-2.3-4.5-4.8-1.7zM265.2 226.3c-.7.8-1.6 3.6-2.1 6.4-.6 2.7-1.5 7-2.1 9.5-1.1 4.4-1.1 4.8 1.6 8.4 2.6 3.4 2.9 4.5 2.9 11.4 0 6.7.3 8.1 2.6 11.1 2.2 2.8 2.9 5.2 3.7 13.1.8 7.7 1.6 10.5 3.6 13.5 3 4.4 3.4 10.3 1.1 17.9-2.5 8.3-2 10.8 4.1 20.8 3.2 5 6.6 10.4 7.8 12.1 1.1 1.6 2.5 5.5 3.2 8.5.9 4.5 1.5 5.7 3.6 6.4 2 .7 3.2.5 5.3-1.2 1.5-1.2 3.9-2.2 5.2-2.2 1.3 0 3.5-1.1 4.9-2.5 1.7-1.8 3.2-2.4 4.5-2 1.3.5 2.6-.1 3.8-1.7 1.8-2.2 2-2.2 3.9-.5 1.9 1.7 5.2 1.4 5.2-.4 0-1.7 1.8-.9 2.3.9.2 1.1 1.3 2.1 2.4 2.4 3.3.9 6.2-1 8.4-5.5 2.5-5.1 6.3-6.9 12.9-6 2.9.4 4 .2 4-.8 0-.7-2.2-5.9-5-11.6-5.8-12-6.1-13.6-2.3-12.7 2.6.7 2.6.6 2-3.2-.7-4.3-3.8-7.3-7.6-7.4-1.8 0-2.2-.4-1.5-1.8.4-.9.9-5.1 1-9.2.2-6.1-.1-8-1.6-10-1.6-2-2-2.2-2-.8 0 1.9-1.7 2.3-3.8.9-.9-.6-1.1-1.9-.7-4.4.6-2.8.4-3.8-.8-4.3-2.5-.9-3.7-5.7-2.5-10.1 1.9-7.5 1.8-7.8-3.4-8.1-3.9-.3-4.9.1-6.2 2-.9 1.2-1.6 3.4-1.6 4.9 0 1.5-.7 3.2-1.6 4-1 .8-1.3 2.1-.9 3.7.3 1.3.3 5.1-.1 8.3-.5 4.6-1 5.9-2.1 5.5-.8-.3-2.7.4-4.3 1.5-2.4 1.8-3.6 2.1-8.3 1.5-7.3-.9-9.1-3.4-8.2-11 .5-3.8.3-6.1-.8-8.2-1.3-2.6-2.6-8.9-4.2-19.4-.4-2.8-1.4-4.1-5-6.5-3.3-2.2-4.6-3.9-5.1-6.3-.3-1.8-1.4-3.8-2.3-4.5-.9-.6-2.4-2.4-3.4-4-1-1.5-2.3-2.7-3-2.7-.8 0-2-1.4-2.8-3.2-1.6-3.7-3.1-4.4-4.7-2.5zM473.1 257.9c-1.1.7-.9 1.5 1 4 2 2.7 2.3 4.7 2.9 15.3.3 6.8 1.1 13.3 1.8 14.5.7 1.2 1.2 3.7 1.2 5.5 0 1.9.7 4.3 1.5 5.4 1.9 2.5 1.9 5.5 0 8-2.3 3.1-1.8 6.3 1.5 9.1 1.7 1.3 3 3.3 3 4.4 0 2.4 3.3 4.2 4.8 2.7 1.6-1.6 1.5-4-.2-6.4-1.3-1.7-1.3-2.1.5-3.4 1.9-1.5 1.9-2 .8-9-.6-4.1-1.9-9.1-2.9-11-1-1.9-2.3-6.9-2.9-11-.7-4.1-1.6-10-2.2-13-.5-3-1-6.7-1.2-8.2-.1-1.8-1.4-3.6-3.6-5.3-3.9-2.8-4-2.8-6-1.6zM445 315.1c-1.7 1.5-4.9 2.9-7 3.3-2.6.4-4.3 1.4-5.5 3.3-3 4.6-8.8 9.2-11.6 9.3-1.5 0-3.2.6-3.8 1.4-2.5 2.9 8.6 8.4 13.4 6.6 1.1-.4 2.7-.4 3.5 0 .9.5 3.7.4 6.3-.2 3.5-.7 5.2-1.7 6.9-4.1 1.2-1.8 2.8-3.6 3.6-4 4.7-3 8-7 8.6-10.6.3-2.4 1.5-4.6 2.7-5.4 3-2.1 1-2.8-7-2.5-5.7.3-7.4.7-10.1 2.9zM483.5 337.9c-.3.6-.7 3.9-.9 7.3-.2 3.5-1 7.6-1.9 9.3-1.2 2.2-1.6 5.3-1.5 11.9.1 7.6.5 9.5 2.4 12.4 1.9 2.7 2.2 4.2 1.7 7.7-.4 3 0 5.3 1.1 7.6.9 1.7 1.6 5.3 1.6 7.9 0 4.4.3 4.9 4.4 7.8 2.4 1.8 5.1 3.2 5.9 3.2.9 0 2-2.5 3.2-7.5 1.5-6.4 1.6-8.3.5-13.7-.6-3.5-1.6-8.8-2.1-11.8-.6-3-1.7-6.2-2.4-7.1-.8-.8-1.5-2.8-1.5-4.3s-.5-3.7-1.1-4.8c-.7-1.2-1.5-6.4-1.9-11.5-.5-7-1.2-10.1-2.6-12-2.3-3.1-3.9-3.9-4.9-2.4z"/><path d="M347.2 351c-3.5 1.6-4.3 2.4-4 4.2.3 2 1 2.3 5.4 2.6 5.4.3 7.7-1.5 4.9-3.8-.7-.6-1.1-2-.8-3 .7-2.5-.1-2.5-5.5 0zM358 352.6c-1.9 4.8-.8 5.7 3.1 2.6 1.4-1.2 2-2.5 1.6-3.5-1-2.5-3.6-2-4.7.9zM336.5 361.3c-.4.8-.5 3.4-.3 5.8.3 3.8.6 4.4 2.8 4.7 1.4.2 3.9 1.7 5.5 3.3 6.1 5.8 13.3 4.7 12-1.8-.4-2.1-.1-4 1-5.6 2.5-3.8 1.1-5.4-5.3-6-3.1-.3-7.8-.9-10.4-1.3-3.8-.5-4.9-.3-5.3.9zM353.3 398.4c-4.5 1.4-5.9 4.5-4.5 9.5 1.6 5.3 1.5 7.2-.8 10.1-2.5 3.2-2.5 5.1.1 10.1 1.3 2.7 3.2 4.5 5.4 5.5 4.6 1.9 9.4 1.8 10.2-.2.3-.8 1.7-2 3-2.5 2-.7 2.8-.4 5.6 2.7 5.4 6.2 6 7.8 5.1 15.8-.9 8.5-.8 9.9 1.7 15.3 1 2.3 1.9 4.9 1.9 5.7 0 .8 1.1 2.8 2.5 4.4 3.1 3.7 3.3 7.2.5 7.2-2.4 0-2.5 1.8-.6 6.4 1 2.5 1.1 3.7.3 4.5-1.5 1.5-.2 2.4 3.9 2.5 2.2.1 4.5 1 5.9 2.4 1.6 1.6 2.4 1.9 2.7 1 .3-.7 1.3-1.3 2.3-1.3 1.1 0 2.4-.9 3-2.1.5-1.1 1.5-1.9 2.2-1.7.7.3 2.2-1.8 3.4-4.6 2.3-5.4 3.3-6.2 4.3-3.4.6 1.4.8 1.4 1.9.1.6-.9 2.9-1.9 4.9-2.2 3.1-.6 3.7-.4 4.3 1.4.5 1.4 1.2 1.9 2.5 1.5 1.1-.3 2 0 2.4 1 .7 1.8 3.6 2 3.6.2 0-.6 1.4-2.4 3.2-3.9l3.3-2.7-3.2-1.3c-2.6-1-3.3-1.8-3.3-4 0-1.6.5-3.7 1.2-4.7.9-1.4.8-2.6-.2-5-.7-1.7-1.6-3.1-2.1-3.1s-2.3-1.3-4.2-3c-1.9-1.6-4.6-3.4-6.1-4-2.1-.8-2.6-1.5-2.1-2.9.6-2.1-1.8-4.1-5.2-4.1-1-.1-3.2-2-4.9-4.3-2.3-3.1-4.4-4.7-8.4-6.1l-5.2-1.9.5-4.7c.5-4.2.3-4.9-1.4-5.3-1.1-.3-2.3.1-2.8 1.1-.8 1.4-1.4 1.3-5.9-.8-5.2-2.5-6.8-5-5.2-8 1.5-2.9 0-5.9-3.4-6.8-2.3-.6-3.2-1.5-3.6-3.5-.4-1.9-2.1-3.6-6.5-6.3-8.4-5-8.6-5.1-12.2-4zM481.6 427.2c-.9 1.2-1.6 3.4-1.6 4.8 0 5-3.4 7-11.6 7-6.6 0-16.4 4-16.4 6.7 0 4.8 11.3 15.3 16.5 15.3 1.4 0 4.8 1.1 7.5 2.5 4.9 2.5 10.4 3.3 11.4 1.6.3-.4 2.7-1.1 5.3-1.4 11.7-1.5 14.1-3.4 12.9-10.1-.5-2.4-1.5-3.7-4-4.8-4.2-2.1-9.2-9.3-10.1-14.9-.8-4.4-4.3-8.9-6.9-8.9-.8 0-2.2 1-3 2.2zM493.9 478.5c-2.5 5.7-2.2 7.9 1.3 8.3 2.3.3 2.8-.2 3.7-3.3 1-3.8-.2-9.5-2.1-9.5-.5 0-1.8 2-2.9 4.5zM505.7 480.6c-1.2 1.2 1.5 6.1 4.4 7.8 3 1.8 7.9 1.6 7.9-.4 0-1.2-9-7.9-10.6-8-.6 0-1.3.3-1.7.6zM486 492.9c-.5 1.1-1 3.1-1 4.5s-1.1 4.1-2.4 6.1c-2.4 3.5-2.4 3.7-1 8.8.9 3.1 2.7 6.3 4.5 7.9 1.9 1.8 2.9 3.8 2.9 5.7 0 2.5.6 3.1 4.6 4.6 5 1.9 4.8 1.9 13.4-3 3.9-2.3 7.7-1.9 9.6 1 .9 1.4 2.6 2.5 3.7 2.5s2.8.6 3.6 1.4c.9.7 3.2 1.6 5.1 1.9 3.3.5 3.7.2 4.9-2.5 1.3-2.9 1.2-3.2-1.2-5-1.7-1.2-2.7-2.9-2.7-4.4 0-1.7-.6-2.4-2-2.4-1.1 0-2 .4-2 1 0 1.2-3.7 1.3-4.4.1-.3-.5-2.1-1.2-4.1-1.5-2.8-.6-4-1.6-6.7-6.1-2.9-4.8-3.9-5.7-8.8-7.3-5.4-1.8-5.5-1.9-5.8-6-.3-3.6-.9-4.6-4-6.7-4.4-3-4.8-3-6.2-.6zM540.6 541.2c-.4 2-.1 3.9.9 5.4l1.5 2.3 2.5-2.5c3.7-3.7 4.2-7 1.3-7.8-4.4-1.1-5.5-.7-6.2 2.6zM514.3 561c-2.2.9-3.9 4.3-2.9 5.9.8 1.3 6.5 1.9 6.9.7.2-.5 2.1-1.5 4.3-2.1 2.8-.8 3.9-1.6 3.9-3 0-1.7-.8-2-5-2.2-2.7-.1-6 .2-7.2.7zM510.7 613.7c-1.3 1.2-.7 6.2.9 7.7 1.8 1.9 6.1 2.1 6.7.3.4-1.2-4.9-8.7-6.2-8.7-.4 0-1.1.3-1.4.7zM528.2 618.2c-1.9 1.9-1.5 5.8.6 5.8 2.8 0 5.5-2.4 5-4.6-.4-2.2-3.8-3-5.6-1.2zM497.5 629c-1.9 3.7-1.9 4 .4 4 2.1 0 3.5-1.5 4.5-4.8 1.1-3.5-3-2.9-4.9.8zM503.7 633.1c-.6 1-2 1.9-2.9 1.9-1.3 0-1.8.8-1.8 3 0 2.1-.8 3.6-2.9 5.1-1.8 1.3-3.1 3.3-3.4 5.4-.3 1.9-1.6 4.7-2.8 6.4-1.8 2.5-2 3.3-.9 4.6 1.5 1.8 4.1 2 5.7.4 1.4-1.4 8.1-2.9 9.9-2.2 2.6 1 1.6 4.1-1.3 4.5-2 .2-2.9.9-3.1 2.6-.5 3.2 2.4 3.9 5.2 1.3 1.2-1.1 2.8-2.1 3.5-2.1 1.5 0 5.5 3.9 6.4 6.3.3.8 2.2 2 4.1 2.7 2.9.9 4.6.9 9-.4 3-.9 7.7-1.6 10.5-1.6h5.1v-5c0-3.9.4-5.3 2-6.2 3-1.9 2.6-5.6-.7-6.4-5.6-1.2-6.2-1.5-6.9-3.7-.4-1.2-1.5-3.4-2.5-4.8s-2.1-3.7-2.4-5c-.5-1.9-2.2-3.2-6.3-5.2-5.1-2.3-6.2-2.5-10-1.5-3.5.9-5.1.8-8.3-.5-3.8-1.5-4-1.5-5.2.4zM492 639.3c0 3 1 4 2.7 2.6 2-1.8 1.6-4.9-.7-4.9-1.4 0-2 .7-2 2.3zM483.7 647.6c-.9 1 1.2 4.4 2.7 4.4 2.2 0 3.7-2.5 2.4-3.8-1.3-1.3-4.1-1.6-5.1-.6zM604.6 784.4c-4.1 1-5.4 1.9-7.4 5.1-3.9 6.2-4.4 10.8-1.6 14.7 2.9 3.9 3.1 7.4.4 9-1.1.7-2 2.4-2 3.8 0 2.8 5.4 10 7.4 10 .7 0 4.8 1.8 9.1 4s8.3 4 9 4c.7 0 2.3.8 3.6 1.8 2 1.7 2.5 1.8 5.3.4 3.9-1.9 8.6-6.2 8.6-7.9 0-2.7-5.4-14.9-7.6-17.2-1.3-1.4-4.7-3.2-7.6-4.1-3.3-1-5.3-2.1-5.3-3 0-1.2 1.5-1.5 7.3-1.3 8.2.2 9.3-1 4.1-4.8-2.5-1.8-3.5-2-5.5-1.1-2 1-2.5.8-3.4-.9-.6-1.1-.8-3.3-.5-4.9.9-4.3-.2-6.7-3.7-7.9-3.6-1.3-3.6-1.3-10.2.3zM678.5 878c-.4.6-.3 2.4 0 4.1 1 4.4 3.9 3.5 4.3-1.4.3-3.1 0-3.7-1.7-3.7-1.1 0-2.3.5-2.6 1zM640 888.9c-.8.5-3.2 1.1-5.2 1.5-3.6.7-3.7.8-3.5 4.9 0 2.3-.7 5.9-1.6 7.9l-1.7 3.7 4.5 6.7c2.5 3.7 4.5 7.4 4.5 8.3 0 2.3 1.4 4.1 4.1 5.4 1.3.7 2.6 2.3 2.9 3.7.5 2.1 1.3 2.6 4.5 2.8 4.6.4 9-1.5 7.5-3.3-.7-.8-.5-2.2.5-4.1.8-1.6 1.5-3.4 1.5-4.1 0-.6 1.4-2.3 3.1-3.6 3.4-2.7 3.5-5.7.1-5.7-1.1 0-2.5-1.4-3.5-3.5-.9-2-2.5-3.8-3.4-4.1-7.8-2.5-7.6-2.3-7-8.4.5-4.8.3-6-1.2-7.4-1.9-1.8-3.8-2-6.1-.7zM758.7 918.4c-.9 2.2 1.7 3.7 5.2 3 2.1-.5 3.1-1.2 3.1-2.5 0-1.5-.8-1.9-3.9-1.9-2.4 0-4.1.5-4.4 1.4zM702.7 1005.9c.4 1.6-.1 2-2.9 2.3-2.8.3-3.3.7-3.6 3.3-.3 1.9.2 3.3 1.3 4.1 1 .7 2 2.8 2.4 4.6.6 2.8 1.1 3.2 3.2 3 1.3-.2 5.3-.6 8.9-1l6.4-.7-.3-5.5c-.3-6.1-2.1-9-5.8-9-1.3 0-4-.7-6-1.5-4.4-1.9-4.2-1.9-3.6.4z"/></svg>
