<svg version="1.0" xmlns="http://www.w3.org/2000/svg" width="1365.333" height="1365.333" viewBox="0 0 1024 1024"><path d="M327.3 277.4c-3.7 3.2-4.2 3.3-14.3 3.9-10.7.6-24.1 3.9-28.7 7.2-1.2.9-2.7 3.4-3.3 5.6-.8 3-1.5 3.9-2.6 3.5-.9-.3-2.6-.6-3.8-.6-2 0-2.2-.4-1.8-2.7.4-2 .2-2.5-1-2.1-.8.4-3.9.9-6.9 1.3-4.3.5-6.5.2-10.7-1.4-8.8-3.5-13.8-2.9-28.5 3.5l-12.9 5.6-4.8-2.1c-7.6-3.3-11.2-2.8-23 3-5.8 2.8-13.5 6.9-17.2 9-6.4 3.8-6.9 3.9-16 3.9-8.8 0-9.9.3-19.8 4.4-8.7 3.7-10.7 4.9-11.9 7.4l-1.4 3-4.4-2.1c-2.8-1.4-4.2-2.6-3.8-3.5.3-.8.8-2.4 1.1-3.7l.6-2.3-11 2.4c-6 1.3-14.4 3.6-18.8 5.1-7.4 2.7-8.4 2.8-14.4 1.8-3.6-.6-9.3-2.1-12.8-3.3-3.4-1.2-7.6-2.2-9.2-2.2-1.7 0-3-.3-3-.8 0-.4-1.3-2.2-2.9-4.1-2.4-2.9-3-3.2-4.8-2.3-1.6.9-3.4.7-8-1-5.8-2.1-6.1-2.1-10.4-.5-2.4.9-7.3 4.3-10.8 7.5l-6.4 5.7 3.1 6.2c1.8 3.4 3.5 8.1 3.8 10.4.5 3.2 1.9 5.6 5.3 9.3 8.3 8.9 20.1 17.6 31.2 22.9 10 4.9 10.8 5.5 14.5 11.2 7.5 11.6 19.2 22.2 27.2 24.6 3.1.9 4.8 2.2 6.4 4.8 1.2 2 7.4 9 13.8 15.6 7.5 7.6 13.2 14.6 15.8 19 6 10.4 15 18.6 24 22 3.9 1.5 7.2 3.2 7.2 3.8 0 .7.5 5.2 1.1 10.2 1.2 9.9 2.6 13.4 7.1 18.1 1.6 1.8 4 6 5.3 9.5l2.3 6.4 6.5 1.9c5.6 1.6 6.8 2.4 7.8 4.9.7 1.7 3.9 6.6 7.2 11l5.9 7.9 6.6-.6c16.3-1.4 19.8-2.2 28.8-6.4 12.7-5.9 14.3-6.1 19.9-2.4 2.6 1.7 6 3.4 7.7 3.7 2.6.6 3.6.2 7.2-3.4 4-3.9 4.5-4.1 10.4-4.1 4.4 0 7.5-.6 10.4-2.1l4.2-2.1 1.9 2.6c1 1.4 2.3 2.6 2.7 2.6.5 0 3.6-1.6 6.9-3.5l6.1-3.6 20 .2 19.9.1 2.5-2.8c1.4-1.6 3.4-5 4.3-7.7 1.7-4.6 1.9-4.7 5.9-4.7 2.3 0 6.8.3 10.2.6l6.1.7.6 6.3c.7 6.2.8 6.3 8.4 13.7l7.6 7.4 10.3 2.1c13.5 2.9 15.1 2.8 20.8-1.1 9.4-6.3 11.2-12.6 7.9-27.7-.8-3.6-1.4-8.4-1.5-10.7 0-4.2.1-4.4 7.5-9.5 8.2-5.7 8.7-6.9 6.4-14.8-1.6-5.3.8-9.8 9.8-18.8 9.1-9 9.5-11.7 3.4-20.4-7.5-10.8-10.9-17.9-11.6-24.8-.7-6.4-3.7-13.6-9.2-22.3-1.7-2.7-2.4-5-2.2-7.7.3-3.1-.3-4.5-3-7.7-1.8-2.1-6.2-8.3-9.8-13.8-3.6-5.5-9.2-12.5-12.3-15.5-4.3-4.1-6.4-7-8.1-11.5-2.8-7.6-3.4-8.3-7.4-9.1-2.4-.4-3.6-1.3-4.3-3.2-.6-1.5-4.8-7.4-9.4-13.2-5.3-6.5-9.5-13-11.2-17-2.2-5.3-3.5-7.1-6.9-9.2-8.7-5.4-12.5-6.8-18.4-6.8-4 0-6.8-.6-9.1-2-1.8-1.1-3.5-2-3.7-2-.3 0-2.2 1.5-4.2 3.4zM712.7 540.6c-.3.3-6.1 1-12.9 1.5-36.4 2.7-34.5 2.4-49.1 7.3-7.5 2.5-15.8 4.9-18.5 5.3-3.1.4-5.4 1.3-6.7 2.9-3.5 4-14 6.4-28.5 6.4-11.8 0-13.5.3-22.8 3.3l-10 3.4-11.9 11.9c-13.4 13.3-14.3 15.2-12.1 26.2 1 5 1.6 5.8 8.6 11.7 7.4 6.2 7.9 6.4 19.9 9.4 6.7 1.7 13.6 3.1 15.3 3.1 3 0 3 0 1.4 2.5s-1.3 7.5.5 7.5c1.7 0 10.8 8 13.5 11.9 2.5 3.6 3.1 3.9 5 2.9 2.9-1.5 3.6-2.8 3.6-6.6 0-2.7.4-3.2 2.4-3.2 3.5 0 7.9 5.8 10.2 13.2 1.1 3.9 3.5 8.2 6.7 12.2 2.7 3.3 5.6 7.4 6.4 9 1 2 3.8 3.9 9.6 6.7 4.5 2.1 10 5.2 12.3 6.9l4.1 3.1 6.4-1.5c7.9-1.8 23.5-8.9 27-12.2 2.2-2.1 2.7-2.3 3.2-1 .5 1.3 2.4 1.6 9.1 1.6 7.7 0 8.6.2 10.1 2.2 1.5 2.2 1.5 2.3-1.9 2.8l-3.4.5 4.8 5.2c2.9 3.2 5.7 5.3 7 5.3 2.7 0 29.8 6.8 32.2 8.1 2.9 1.5 9.4 11 11 15.9l1.5 4.5 9.7.3 9.8.3 7.6-4.5c10-5.8 14.9-7.1 23.6-6.1 6.6.7 7 .9 11.4 5.6l4.5 4.9h7.3c5.9 0 8.5-.6 13.9-3 4.3-1.9 8.3-3 11.3-3 2.6 0 6.3-.5 8.3-1 3-.9 4.5-.6 9 1.3 4.5 2 8 2.6 20.4 3.2 8.3.5 19.5.8 25 .7 5.5-.2 21.9-.3 36.5-.5l26.5-.2 9 3.7c4.9 2.1 9.2 3.8 9.6 3.8 1.2 0 2.1-3.2 2.9-10 .4-3.9 2.2-10 4.4-15 2.2-5.2 3.6-9.9 3.6-12.6 0-4-.2-4.3-6.5-8.4-3.6-2.4-8.5-6.5-10.8-9.2-3.4-4-5.2-5.1-9.7-6.3-3-.8-6.9-1.5-8.6-1.5-2.4 0-3.8-.8-5.8-3.4-1.4-1.9-3-4.6-3.6-6-.7-1.8-2.1-2.8-5.2-3.6-5.2-1.2-10.1-2.8-14.5-4.7-2.9-1.2-3.3-1.8-3.3-5.3 0-3.6-.4-4.2-5.2-7.4l-5.1-3.5-3 2.5c-5 4.2-12.9 7.8-19.6 9l-6.3 1.1.6-4.1c.4-2.2 1.2-4.4 1.9-4.8.6-.4 5.2-2.1 10.2-3.9 4.9-1.7 9.3-3.5 9.8-3.8 1.3-1.3-7.9-7.1-11.2-7.1-2.7 0-3.1-.4-3.1-2.6 0-2.1-.8-2.9-5-4.6-3.4-1.4-5-2.6-5-3.9 0-2.3-1.4-3.2-7.2-4.4l-4.8-1 3-4.5c1.6-2.5 3-4.8 3-5.1 0-.8-12-2.9-16.9-2.9-2.6 0-6.3 1.1-10.1 3-6.9 3.5-8.6 3.7-9.9 1.1-.8-1.4-2.6-1.9-8.7-2.4-7.4-.5-7.9-.7-12.3-5-6.6-6.4-11.1-7.3-25.5-5.1l-11.2 1.7-4.5-3.5c-2.5-1.9-6.2-5.3-8.2-7.5-2.7-2.9-5.1-4.4-9.1-5.6-3-.8-7.6-3.1-10.1-5.1-2.6-1.9-5.3-3.2-6.1-2.9-3.5 1.3-8.7-.9-13.7-6l-5.1-5.2-.9 4.6-.9 4.7-8.5-5.1c-7-4.3-8.9-6-10.8-9.7-2.1-4.1-3-4.8-10.2-7.8-8-3.3-9.5-3.7-10.6-2.6zM479 561.5c0 2.1.5 2.5 3 2.5s3-.4 3-2.5-.5-2.5-3-2.5-3 .4-3 2.5zM505.3 576.7c-3.8 1.9-3.9 2.4-1.3 8 1.8 4.1 2.1 4.3 6.4 4.3 4.3 0 4.5-.1 5-3.3.3-1.7.2-4.8-.2-6.7-.7-3-1.2-3.5-3.7-3.7-1.7-.1-4.5.5-6.2 1.4zM1014.2 744.2l.3 4.3 4.8.3 4.7.3v-3.5c0-3.6-.2-3.8-6.8-5.1l-3.3-.7.3 4.4z"/></svg>
