<svg version="1.0" xmlns="http://www.w3.org/2000/svg" width="1365.333" height="1365.333" viewBox="0 0 1024 1024"><path d="M616 38.5c-6.9.7-14.7 1.4-17.3 1.4-3.1.1-7.4 1.2-11.7 3.1-4.9 2.2-8.4 3-12.5 3-4.3 0-7.8.9-14.8 3.9-5.1 2.1-12.5 5.1-16.5 6.6-9.5 3.5-20.8 11.1-25.2 16.8-2.7 3.5-4.2 4.6-6.3 4.7-1.7 0-5.8 2.1-10.2 5l-7.5 5.1v5.2c0 3.8-.7 6.3-2.5 9.2-1.9 3.1-2.5 5.4-2.5 10.5 0 3.6-.7 9.4-1.5 13-.8 3.6-1.5 9-1.5 12-.2 7.3-1.8 12-5.8 16.5-5.5 6.2-33.1 17.5-74.2 30.3-1.7.5-3.7 3-6.5 8.1l-4 7.4-11.5 4.1c-12.3 4.5-24 10.3-33 16.4-6.7 4.5-20 21.6-29.5 37.7-3.5 6-10.1 15.9-14.7 22-7.2 9.4-9.3 11.5-15.5 15.2-18.5 10.9-32.3 25.4-33.8 35.7-.6 3.6-1.4 5.2-3.7 6.9-1.6 1.2-4.3 4.7-5.9 7.7-2.7 5-3.8 6-12.5 10.8-5.7 3.1-11.4 5.5-14.1 5.9-2.7.4-6.5 1.9-9.4 4-5.8 4-6.6 4-8.1.9l-1.1-2.5-4.8 2.5c-5.5 2.7-11.4 3.1-14.6.9-1.2-.9-3.2-3.4-4.5-5.6-1.6-2.8-3.5-4.6-6.8-6-4-1.8-6.5-2-24-2-17.1 0-20.4.3-26.5 2.2-6 1.8-8.6 2.1-19.5 1.7-6.9-.3-13.2-.8-14.1-1.2-.9-.4-1.9-2.4-2.3-4.4-.5-3.5-1-4-9.1-8L68 341H50.2c-25.9-.1-35.8-1.2-43.6-4.8l-6.4-3 .5 10.7c.5 9.3 1 11.9 4.7 21.4 4 10.5 4.2 10.9 9.1 13.7 5 2.8 5.1 3 10.4 16.2 8.6 21.3 12.5 28 19.4 33.5 4.3 3.4 6.6 6.1 8.4 9.9 2.2 4.9 2.8 5.4 8.1 7.2l5.7 1.9-.3 8.8c-.2 7.1.3 10.4 2.3 16.9l2.5 8.1 7.8 4.4 7.9 4.4 1.1 9.4c.8 6.7.8 10.3 0 12.5-1 2.8-.6 4 3.6 12.2 3.8 7.4 5.7 13.3 10.3 31.3l5.5 22.1 5.8 2.2c3.3 1.2 7.3 2 9.5 1.8 3.5-.3 4 0 4.9 2.5.8 2.1.6 3.4-.7 5.7-1.7 2.8-1.7 2.9.5 4.3 1.3.8 3.9 1.8 5.8 2.1 2.7.5 4.1 1.5 6 4.6 2.2 3.6 3.1 4.1 10.6 6.1l8.2 2.1 2.7 7.2c4.1 10.6 4.9 11.6 9.4 11.6 3.1 0 5 .9 9.6 4.7 5.5 4.5 6.2 4.8 20.8 8 8.4 1.8 17.2 3.3 19.7 3.3 4 0 5.2.6 11 5.6 6.5 5.7 6.5 5.7 10.8 18.3l4.2 12.6-.6 14.9-.7 14.9 2.4-.6c10.6-2.5 18.3-2.9 33.1-1.7 8.4.6 15.3 1.3 15.4 1.3 0 .1.8 2 1.6 4.1 1.4 3.6 1.4 4.5 0 9.4-1.3 4.5-1.4 6.8-.5 13 1 6.8.9 8.1-.8 12.6-2.7 6.7-4.8 19.3-4.2 24.8.3 2.7-.1 6.8-1.2 10.3-1.6 5.8-1.6 6 .5 10.6 2.2 4.6 3.9 5.8 8.5 5.9 3.3.1 13.6 15.9 17.8 27.3 2.1 5.3 3.7 11.3 3.7 13.1 0 1.9 1.4 6.3 3.1 10 3.9 8.3 4.8 8.6 26.9 9.6 15.6.6 17.1.9 27 4.4 8.7 3.1 11.4 3.7 15.9 3.2 4.9-.4 6.3 0 17 5 7.1 3.4 17.2 7.1 25.9 9.5 12.6 3.5 19.1 6.1 19.2 7.9 0 .3-1.8 3.5-3.9 7.2l-3.9 6.6 2.6 7.2c1.6 4.6 4 8.7 6.6 11.7l4.1 4.5 9.7.5 9.7.6 4.8 5.8 4.8 5.8h8c4.4.1 10.5-.6 13.5-1.4 3.3-.9 7.3-1.2 10-.9 2.5.3 5.6.1 7.1-.4 2.1-.9 3.6-.3 10.5 3.9 7.2 4.5 8.4 4.9 13.4 4.7l5.4-.2 1.9 7.6c2.3 9.2 3.3 9.7 14.5 7.3 10.4-2.2 11.4-2 20 3 8.7 5.1 12.3 5.6 22.3 2.8 5.8-1.6 6.4-1.6 10.9 0 6.1 2.2 9.2 2.1 13.8-.2 2.8-1.4 7-2 16.9-2.6 18.5-1 21.8-.4 29.7 5.6 5.8 4.4 7.1 4.9 11.6 4.9 3.4 0 6.7-.8 10-2.5 2.7-1.4 6-2.5 7.3-2.5 2.8 0 10.5 5.7 16.9 12.5l4.7 5 19.8-19.6c10.9-10.8 32.6-31.4 48.3-45.9 15.7-14.5 43-40.7 60.7-58.3 34.5-34.4 32.5-32.9 39.6-30.2 1.5.6 1.7.1 1.7-4.5 0-4.5-.7-6.4-5.1-13.6-3-5-4.7-8.9-4.3-9.6.4-.7 5.2-7.3 10.7-14.7l9.9-13.5-1.1-16.1c-1.5-21.9-1.7-20.3 3.4-26.2 4.2-4.8 4.9-5.2 10.3-5.8 3.1-.3 6.6-.8 7.8-1 1.4-.3 5.1-5.1 11-14.4 6.4-10 9.9-14.6 12.6-16.2 2.9-1.8 4.2-3.6 5.4-7.2 1.1-3.2 1.3-5.2.6-5.9-.6-.6.2-3.2 2.2-7.2 2.4-4.9 3.8-6.6 6.2-7.5 1.8-.6 3.4-2 3.7-3.1.3-1.3 1.4-2 3-2 1.3 0 3.8-.3 5.4-.6l3-.6 1.1-11.2c.7-6.1 2.1-14.5 3.2-18.6 1.1-4.1 2-7.8 2-8.1 0-.3-5.2-4.8-11.5-9.9l-11.6-9.4.7-6.7.6-6.7-4.6-6.5c-4.2-5.9-4.6-6.9-4.6-12.3v-5.9l4.9-3.5 4.9-3.5 1.2-9.5c.6-5.2 2-12.4 3.2-15.9 1.9-6.1 2-6.5.4-9.2-1.2-2.1-1.5-3.9-1-6.5l.7-3.7-6.9.7c-6.7.6-7 .6-10.1-2.3-1.8-1.6-3.3-3.6-3.3-4.3 0-.8 1.6-2.9 3.4-4.8 3.4-3.2 3.4-3.4 2-6.1-.7-1.5-1.4-3.3-1.4-3.8 0-.6 2.7-2.5 6.1-4.1l6.1-3.1 5.8 2c6.7 2.2 6 2.6 11-6.3l3.3-5.9-2.3-7.1c-1.2-3.9-3.1-8.3-4.1-9.8-1.1-1.4-1.9-4.1-1.9-6 0-3.1.4-3.4 5.4-5.4 5-2 5.6-2 7.1-.5s1.8 1.3 4.5-1.9c2.2-2.6 3-4.5 3-7.7 0-3.4.5-4.5 2.3-5.4 2.2-1.2 3.7-2.8 3.7-4.1 0-.4-1.8-2-4-3.4l-4-2.7v-7.5c0-6.9-.4-8.4-5.1-18.8l-5.2-11.4 3.2-7.1c2.1-4.9 3.1-8.7 3.1-12.2 0-6.3 1.8-12.5 4.1-13.7 2.3-1.3 3.9-6.2 3.9-12 0-3 .6-5.2 1.5-6 .8-.7 1.5-2.7 1.5-4.6 0-4.9-2.7-14.4-4.7-16.6-2.2-2.4-1.9-7.3.6-10.8 1-1.4 2.1-3.9 2.5-5.5.4-1.9 1.8-3.7 3.7-4.7l3-1.8-2.3-3.2c-1.6-2.3-2.3-4.8-2.4-8.3-.1-2.8-1.7-11.9-3.6-20.3-3.3-14.5-3.7-15.5-8.3-21.3-5-6.4-5-7.1.1-8.5 1.3-.3 5-5.5 10.5-14.6 4.6-7.8 8.5-14.4 8.7-14.7.1-.3-8.8-.4-19.8-.2l-20 .3v-14l-23.3-12.5c-22.8-12.2-23.4-12.5-32.2-13.6-5-.6-14.5-1.1-21.3-1.1-11.7 0-12.5-.1-18.3-3-4.9-2.5-6.1-3.6-6.6-6.1-.4-2.3-1.8-3.9-5.1-6-2.6-1.6-6.6-5.8-9.7-10.1l-5.3-7.3-13.8-3.4c-7.7-1.9-17.3-4.6-21.4-6.1-6.5-2.4-7.6-3.2-8.4-5.8-.4-1.6-1.9-3.6-3.2-4.2-1.3-.7-3.4-2.8-4.6-4.6-2.7-4-14-8.7-20.3-8.5-7.2.2-14.9 2.3-19.2 5.2-5.2 3.6-7.5 3.6-10.7.2l-2.4-2.6-31.9-1.3c-17.5-.7-32-1.3-32.2-1.3-.2-.1-.1-11.5.2-25.5l.6-25.3-5.8-.6c-3.2-.4-7-1.2-8.4-1.8-2.3-1-3-.8-6.8 2.2l-4.2 3.3-3.2-3.6-3.2-3.5-14.4-.7c-7.9-.3-15.7-.8-17.4-1-1.6-.2-8.6.2-15.5.9z"/></svg>
